<?xml version="1.0" encoding="UTF-8"?>
<svg width="3195px" height="415px" viewBox="0 0 3195 415" version="1.1" xmlns="http://www.w3.org/2000/svg" xmlns:xlink="http://www.w3.org/1999/xlink">
    <!-- Generator: Sketch 61.2 (89653) - https://sketch.com -->
    <title>direction-sign-blue-get-in-lane</title>
    <desc>Created with Sketch.</desc>
    <g id="direction-sign-blue-get-in-lane" stroke="none" stroke-width="1" fill="none" fill-rule="evenodd">
        <g id="Group">
            <polygon id="Fill-169" fill="#ABACAB" points="3170.2918 0 3161.14513 52.6138771 3185.84039 123.535912 3167.09037 213.681465 3191.79857 300.613082 3183.09658 381.139941 3195 415 28.367241 415 6.40285193 381.139941 0 220.999735 24.7091288 164.714241 3.65903666 98.8359412 0 0"></polygon>
            <path d="M372.829636,239 C386.552117,239 398,249.980413 398,263.717721 L398,387.282279 C398,401.007564 386.552117,412 372.829636,412 L71.7135955,412 C58.4358631,412 47,401.007564 47,387.282279 L47,263.717721 C47,249.980413 58.4358631,239 71.7135955,239 L372.829636,239 Z" id="Fill-170" fill="#FFFFFE"></path>
            <path d="M372.859424,237 L71.6830736,237 C57.1645972,237 45,249.015427 45,263.693644 L45,387.306356 C45,401.976047 57.1688974,414 71.6830736,414 L372.859424,414 C387.746812,414 400,402.048197 400,387.306356 L400,263.693644 C400,248.943298 387.751173,237 372.859424,237 Z M71.6830736,240.932032 L372.859424,240.932032 C385.60268,240.932032 396.069525,251.137797 396.069525,263.693644 L396.069525,387.306356 C396.069525,399.85402 385.598015,410.067968 372.859424,410.067968 L71.6830736,410.067968 C59.3288223,410.067968 48.9304747,399.793476 48.9304747,387.306356 L48.9304747,263.693644 C48.9304747,251.198315 59.3242133,240.932032 71.6830736,240.932032 Z" id="Stroke-171" fill="#0070AD" fill-rule="nonzero"></path>
            <path d="M59,263.38648 C59,256.969968 64.9789723,251 71.4041643,251 L136.596763,251 C143.480235,251 149,256.969968 149,263.38648 L149,387.625563 C149,394.041149 143.480235,400 136.596763,400 L71.4041643,400 C64.9789723,400 59,394.041149 59,387.625563 L59,263.38648 Z" id="Fill-172" fill="#1A1919"></path>
            <path d="M372.667279,252 C379.519201,252 385,257.492216 385,264.341333 L385,387.670667 C385,394.519783 379.519201,400 372.667279,400 L174.332721,400 C167.480799,400 162,394.519783 162,387.670667 L162,264.341333 C162,257.492216 167.480799,252 174.332721,252 L372.667279,252 Z" id="Fill-173" fill="#0070AD"></path>
            <path d="M245.222056,345.344544 L232.568676,355.756806 L251.547833,355.756806 L251.547833,363 L219.451254,363 L219.451254,356.208877 L237.08761,342.62846 C241.154376,339.459391 243.4143,334.932281 243.4143,330.845344 C243.4143,327.22329 241.606544,322.696179 235.732021,322.696179 C229.393456,322.696179 226.681365,326.770304 226.681365,332.668268 L219,332.668268 C219,321.791123 225.325776,315 235.732021,315 C246.577645,315 252,322.244109 252,330.845344 C252,337.195379 247.933234,343.080531 245.222056,345.344544" id="Fill-174" fill="#FFFFFE"></path>
            <path d="M196,292.753281 L196,298.695004 L204.450205,298.695004 L204.450205,332 L212,332 L212,285 L204.894574,285 C204.894574,292.753281 202.230152,291.84151 196,292.753281" id="Fill-175" fill="#FFFFFE"></path>
            <path d="M315.017568,311.829141 C315.931536,310.463497 320.041624,305 329.632754,305 C340.605914,305 347,313.650307 347,321.844172 L347,356 L335.569855,356 L335.569855,323.665337 C335.569855,319.568405 332.372812,315.926074 327.348756,315.926074 C322.781683,315.926074 318.671595,319.568405 318.671595,324.120859 L318.671595,356 L306.784466,356 L306.784466,324.120859 C306.784466,318.657362 302.674378,315.926074 299.020351,315.926074 C294.910262,315.926074 289.886206,318.657362 289.886206,324.120859 L289.886206,356 L278,356 L278,306.821166 L289.430145,306.821166 L289.430145,310.919018 C290.34319,309.552454 294.910262,305 302.217394,305 C309.068464,305 312.721568,309.097853 315.017568,311.829141" id="Fill-176" fill="#FFFFFE"></path>
            <path d="M100.030595,337.368419 L89.0516452,337.368419 L108.711603,311.906851 L108.711603,337.368419 L103.228132,337.368419 L100.030595,337.368419 Z M118.763248,324.630746 L118.763248,301 L106.426592,301 L79,336.004259 L79,346.002589 L108.711603,346.002589 L108.711603,356 L118.763248,356 L118.763248,346.002589 L127,346.002589 L127,337.368419 L118.763248,337.368419 L118.763248,327.811949 L118.763248,324.630746 Z" id="Fill-177" fill="#FFFFFE"></path>
            <path d="M1308,188.895615 C1308,209.043655 1291.08329,226 1270.95202,226 L437.047983,226 C416.460122,226 400,209.043655 400,188.895615 L400,39.5616642 C400,18.9554193 416.460122,2 437.047983,2 L1270.95202,2 C1291.08329,2 1308,18.9554193 1308,39.5616642 L1308,188.895615 Z" id="Fill-178" fill="#FFFFFE"></path>
            <path d="M1270.98487,0 L437.015131,0 C415.424006,0 398,17.7566207 398,39.5407652 L398,188.917289 C398,210.317494 415.498255,228 437.015131,228 L1270.98487,228 C1292.19764,228 1310,210.162612 1310,188.917289 L1310,39.5407652 C1310,17.912882 1292.27246,0 1270.98487,0 Z M437.015131,3.93521448 L1270.98487,3.93521448 C1290.0952,3.93521448 1306.07159,20.0786399 1306.07159,39.5407652 L1306.07159,188.917289 C1306.07159,207.98946 1290.02784,224.064786 1270.98487,224.064786 L437.015131,224.064786 C417.675582,224.064786 401.92841,208.1518 401.92841,188.917289 L401.92841,39.5407652 C401.92841,19.9149916 417.608856,3.93521448 437.015131,3.93521448 Z" id="Stroke-179" fill="#0070AD" fill-rule="nonzero"></path>
            <path d="M1289,188.267562 C1289,198.318596 1280.30046,207 1270.24234,207 L437.758581,207 C427.242981,207 419,198.318596 419,188.267562 L419,39.731514 C419,29.6804802 427.242981,21 437.758581,21 L1270.24234,21 C1280.30046,21 1289,29.6804802 1289,39.731514 L1289,188.267562 Z" id="Fill-180" fill="#0070AD"></path>
            <polyline id="Fill-181" fill="#FFFFFE" points="951 130.950713 951 157 939.063197 157 939.063197 104.91343 917.49351 132.778069 895.93773 104.91343 895.93773 157 884 157 884 88 897.771594 88 917.49351 113.592217 937.228406 88 951 88 951 104.91343"></polyline>
            <path d="M999.918953,135.817405 L999.918953,145.406371 C998.535162,148.598699 994.383791,150.879328 989.770845,150.879328 C988.848628,150.879328 980.544953,150.423018 980.544953,143.582974 C980.544953,136.742009 990.693993,136.742009 999.918953,135.817405 M1011.46484,160 L1017,151.791026 C1013.77084,150.423018 1011.92548,149.511319 1011.92548,146.318992 L1011.92548,122.136397 C1011.92548,114.840043 1006.39032,108 991.154635,108 C980.544953,108 973.612946,112.104026 971.306939,113.015724 L975.458311,121.224698 C980.084311,119.400379 985.619473,117.576061 992.538426,117.576061 C998.535162,117.576061 999.918953,121.680087 999.918953,123.504405 L999.918953,127.153043 C993,128.064741 987.003264,128.064741 983.774108,128.977362 C980.544953,129.43275 969,131.713379 969,143.582974 C969,155.439664 980.544953,159.54369 988.387054,159.54369 C996.229155,159.54369 1000.38053,156.351362 1001.76432,154.527044 C1005.4681,158.175681 1008.23568,159.54369 1011.46484,160" id="Fill-182" fill="#FFFFFE"></path>
            <path d="M1088,158.091589 L1086.62087,148.549141 L1086.60786,148.549141 C1086.60786,148.549141 1083.38959,149.003805 1080.63134,149.003805 C1077.87309,149.003805 1076.49396,146.7314 1076.49396,144.914578 L1076.49396,89 L1065,89 L1065,149.003805 C1065,155.365438 1070.05742,159 1078.3331,159 C1082.47048,159 1088,158.091589 1088,158.091589" id="Fill-183" fill="#FFFFFE"></path>
            <path d="M1118.5,148.493815 C1127.11584,148.493815 1131.19688,140.271142 1131.19688,132.493536 C1131.19688,124.270863 1126.66208,116.505262 1118.5,116.505262 C1110.32508,116.505262 1105.79029,124.270863 1105.79029,132.493536 C1105.79029,140.271142 1109.87133,148.493815 1118.5,148.493815 M1118.5,159 C1133.01098,159 1143,146.666452 1143,132.493536 C1143,116.962333 1131.65063,106 1118.5,106 C1105.33653,106 1094,116.962333 1094,132.493536 C1094,146.666452 1103.97619,159 1118.5,159" id="Fill-184" fill="#FFFFFE"></path>
            <path d="M1055,107.034941 L1055,117.933989 C1045.36555,117.933989 1038.48288,123.837448 1038.48288,130.194384 L1038.48288,157 L1027,157 L1027,107.942813 L1038.48288,107.942813 L1038.48288,112.938401 C1040.77741,110.667345 1047.20099,106.580547 1055,107.034941" id="Fill-185" fill="#FFFFFE"></path>
            <polyline id="Fill-186" fill="#FFFFFE" points="1185.33466 108 1190.38101 108 1197.72057 140.670946 1205.0731 108 1217 108 1204.61409 157 1192.21613 157 1183.49954 124.782919 1174.78387 157 1162.84399 157 1150 108 1162.38591 108 1169.72546 140.670946 1176.61899 108 1180.74732 108"></polyline>
            <path d="M716.086401,154.344313 L716.086401,98.6566099 C716.086401,91.7987366 709.726655,89.5164688 707,89.5164688 C704.274263,89.5164688 698.355338,92.2544522 698.355338,99.1123255 L698.355338,155.257589 C698.355338,159.821202 702.911395,163.471539 707,163.471539 C710.634928,163.471539 716.086401,160.733555 716.086401,154.344313 M732,157.082296 L732,96.3614272 C732,79.0202511 717.903865,74 707,74 C696.084197,74 682,80.8458808 682,95.4490735 L682,157.538934 C682,170.773135 691.995592,179 707,179 C721.992469,179 732,171.229773 732,157.082296" id="Fill-187" fill="#FFFFFE"></path>
            <path d="M528.810313,77 L518.333333,77 L496,176 L512.867403,176 L516.056169,158.577408 L542.033149,158.577408 L546.588398,176 L563,176 L539.755985,77 L533.365562,77 L528.810313,77 Z M528.810313,95.3265073 L519.244936,144.375013 L539.300184,144.375013 L528.810313,95.3265073 Z" id="Fill-188" fill="#FFFFFE"></path>
            <path d="M648.216807,127.409935 L648.216807,77 L625.770484,77 L596,141.167781 L596,156.744572 L631.722174,156.744572 L631.722174,176 L648.216807,176 L648.216807,156.744572 L656,156.744572 L656,142.542177 L648.216807,142.542177 L648.216807,129.701211 L648.216807,127.409935 Z M631.722174,97.6298237 L611.565462,142.542177 L631.722174,142.542177 L631.722174,97.6298237 Z" id="Fill-189" fill="#FFFFFE"></path>
            <path d="M802.810043,127.409935 L802.810043,77 L780.539493,77 L751,141.167781 L751,156.744572 L786.911296,156.744572 L786.911296,176 L802.810043,176 L802.810043,156.744572 L811,156.744572 L811,142.542177 L802.810043,142.542177 L802.810043,129.701211 L802.810043,127.409935 Z M786.911296,97.6298237 L766.457064,142.542177 L786.911296,142.542177 L786.911296,97.6298237 Z" id="Fill-190" fill="#FFFFFE"></path>
            <polygon id="Fill-191" fill="#0070AD" points="737 372 973 372 973 272 737 272"></polygon>
            <polygon id="Fill-192" fill="#FFFFFE" points="879.966944 309.140631 967 290.359832 855.228613 365 743 290.359832 830.033981 309.140631 830.033981 278 879.966944 278"></polygon>
            <polygon id="Fill-193" fill="#0070AD" points="1653 372 1890 372 1890 272 1653 272"></polygon>
            <polygon id="Fill-194" fill="#FFFFFE" points="1796.14423 309.140631 1883 290.359832 1771 365 1659 290.359832 1746.31299 309.140631 1746.31299 278 1796.14423 278"></polygon>
            <polygon id="Fill-195" fill="#0070AD" points="2573 372 2809 372 2809 272 2573 272"></polygon>
            <polygon id="Fill-196" fill="#FFFFFE" points="2715.95866 309.140631 2803 290.359832 2691.23554 365 2579 290.359832 2666.04134 309.140631 2666.04134 278 2715.95866 278"></polygon>
            <path d="M3133,188.43741 C3133,209.043655 3116.07943,226 3095.48687,226 L1349.05644,226 C1328.46388,226 1312,209.043655 1312,188.43741 L1312,39.5616642 C1312,18.9554193 1328.46388,2 1349.05644,2 L3095.48687,2 C3116.07943,2 3133,18.9554193 3133,39.5616642 L3133,188.43741 Z" id="Fill-197" fill="#FFFFFE"></path>
            <path d="M3095.52018,0 L1349.02247,0 C1327.42728,0 1310,17.7566207 1310,39.5407652 L1310,188.459235 C1310,210.243379 1327.42728,228 1349.02247,228 L3095.52018,228 C3117.19428,228 3135,210.162629 3135,188.459235 L3135,39.5407652 C3135,17.8373708 3117.19428,0 3095.52018,0 Z M1349.02247,3.93521448 L3095.52018,3.93521448 C3115.02407,3.93521448 3131.07085,20.0105242 3131.07085,39.5407652 L3131.07085,188.459235 C3131.07085,207.989476 3115.02407,224.064786 3095.52018,224.064786 L1349.02247,224.064786 C1329.61254,224.064786 1313.92915,208.085008 1313.92915,188.459235 L1313.92915,39.5407652 C1313.92915,19.9149916 1329.61254,3.93521448 1349.02247,3.93521448 Z" id="Stroke-198" fill="#0071AE" fill-rule="nonzero"></path>
            <path d="M3110,188.267562 C3110,198.318596 3101.75326,207 3091.23169,207 L1344.76831,207 C1334.23379,207 1326,198.318596 1326,188.267562 L1326,39.2752786 C1326,29.2233212 1334.23379,21 1344.76831,21 L3091.23169,21 C3101.75326,21 3110,29.2233212 3110,39.2752786 L3110,188.267562 Z" id="Fill-199" fill="#0070AD"></path>
            <path d="M2238.49954,87 C2256.40286,87 2272,101.589878 2272,122.544642 C2272,143.511376 2257.31996,159 2238.49954,159 C2219.67911,159 2205,143.511376 2205,122.544642 C2205,101.589878 2220.13813,87 2238.49954,87 M2238.49954,97.9451713 C2252.27454,97.9451713 2259.61409,111.611442 2259.61409,122.99954 C2259.61409,133.93274 2252.73355,148.0668 2238.49954,148.0668 C2224.27943,148.0668 2217.38591,133.93274 2217.38591,122.99954 C2217.38591,111.611442 2224.27943,97.9451713 2238.49954,97.9451713" id="Fill-200" fill="#FFFFFE"></path>
            <path d="M2501.92874,127.34478 L2501.92874,137.41927 C2501.92874,142.450505 2496.38053,147.938453 2490.38379,147.938453 C2483.92548,147.938453 2477.00653,142.450505 2477.00653,132.376015 C2477.00653,121.856832 2483.92548,117.283233 2490.38379,117.283233 C2496.38053,117.283233 2501.92874,122.314469 2501.92874,127.34478 M2501.92874,110.880011 L2501.92874,88 L2513,88 L2513,157.08565 L2501.92874,157.08565 L2501.92874,153.884039 C2500.08338,155.713663 2494.99674,158 2489,158 C2482.54169,158 2465,156.1713 2465,132.376015 C2465,108.593674 2484.8477,106.764049 2489,106.764049 C2492.6898,106.764049 2497.3158,108.593674 2501.92874,110.880011" id="Fill-201" fill="#FFFFFE"></path>
            <path d="M2349.88802,105.045639 L2349.88802,108.268276 L2359.83797,108.268276 L2359.83797,117.475545 L2349.88802,117.475545 L2349.88802,158 L2338.14385,158 L2338.14385,117.475545 L2330,117.475545 L2330,108.268276 L2338.14385,108.268276 L2338.14385,99.5216495 C2338.14385,91.2226373 2346.27401,88 2355.30813,88 C2362.09604,88 2363,88.9203547 2363,88.9203547 L2362.09604,98.6012949 C2362.09604,98.6012949 2359.83797,98.1406522 2357.11513,98.1406522 C2351.24305,98.1406522 2349.88802,101.36329 2349.88802,105.045639" id="Fill-202" fill="#FFFFFE"></path>
            <polyline id="Fill-203" fill="#FFFFFE" points="2289.3825 108 2292.59192 108 2301.76407 122.061563 2311.40808 108 2324.24854 108 2308.6557 131.133362 2327 157 2313.70066 157 2301.76407 140.217081 2289.84046 157 2277 157 2295.3443 131.133362 2279.75146 108 2286.17215 108"></polyline>
            <path d="M2157.90293,163.756052 L2158.35349,167 C2163.76834,166.536311 2171,166.536311 2171,155.878026 C2171,149.853818 2166.48808,148 2163.31687,148 C2161.51192,148 2157,148.927378 2157,153.561455 C2157,158.658285 2161.51192,158.658285 2163.31687,159.121974 C2164.21889,159.121974 2164.21889,160.049352 2164.21889,160.512104 C2164.21889,162.365922 2161.96339,162.829611 2157.90293,163.756052" id="Fill-204" fill="#FFFFFE"></path>
            <path d="M2393.49954,148.493815 C2402.11522,148.493815 2406.1971,140.271142 2406.1971,132.493536 C2406.1971,123.814715 2401.66239,116.505262 2393.49954,116.505262 C2385.32478,116.505262 2380.79007,123.814715 2380.79007,132.493536 C2380.79007,140.271142 2384.87103,148.493815 2393.49954,148.493815 M2393.49954,159 C2408.01117,159 2418,146.666452 2418,132.493536 C2418,116.962333 2406.64993,106 2393.49954,106 C2380.33632,106 2369,116.962333 2369,132.493536 C2369,146.666452 2379.42974,159 2393.49954,159" id="Fill-205" fill="#FFFFFE"></path>
            <path d="M2459,107.034941 L2459,118.387465 C2449.36555,118.387465 2442.46989,123.837448 2442.46989,130.194384 L2442.46989,157 L2431,157 L2431,107.942813 L2442.46989,107.942813 L2442.46989,112.938401 C2444.77741,110.667345 2451.20007,106.580547 2459,107.034941" id="Fill-206" fill="#FFFFFE"></path>
            <path d="M1640.74829,98.0619998 L1624.32214,98.0619998 L1624.32214,115.419573 L1640.74829,115.419573 C1644.39517,115.419573 1648.49917,111.308715 1648.49917,107.197856 C1648.49917,103.086074 1645.30758,98.0619998 1640.74829,98.0619998 M1642.57219,124.555429 L1624.32214,124.555429 L1624.32214,146.493858 L1642.57219,146.493858 C1648.95445,146.493858 1653.05845,140.098573 1653.05845,135.061572 C1653.05845,131.40686 1650.32214,124.555429 1642.57219,124.555429 M1644.85137,157 L1612,157 L1612,88 L1640.74829,88 C1651.23455,88 1660.35312,94.8514306 1660.35312,104.91343 C1660.35312,114.049287 1653.05845,119.074285 1650.77835,119.987501 C1658.98543,121.357787 1664,127.296001 1664,136.900931 C1664,147.407074 1655.79384,157 1644.85137,157" id="Fill-207" fill="#FFFFFE"></path>
            <path d="M2052.38053,135.817405 L2052.38053,145.406371 C2050.99674,148.598699 2046.38379,150.879328 2042.23242,150.879328 C2040.84863,150.879328 2032.54495,150.423018 2032.54495,143.582974 C2032.54495,136.742009 2042.69306,136.742009 2052.38053,135.817405 M2063.46391,160 L2069,151.791026 C2065.77084,150.423018 2063.92548,149.511319 2063.92548,146.318992 L2063.92548,122.136397 C2063.92548,114.840043 2058.39032,108 2043.15464,108 C2032.54495,108 2025.61295,111.647716 2023.30601,113.015724 L2027.93201,121.224698 C2032.54495,119.400379 2037.61947,117.576061 2044.53843,117.576061 C2050.99674,117.576061 2052.38053,121.680087 2052.38053,123.049017 L2052.38053,127.153043 C2045,127.608431 2039.46391,128.064741 2035.77411,128.977362 C2032.54495,129.43275 2021,131.713379 2021,143.582974 C2021,155.439664 2033.00653,159.54369 2040.84863,159.54369 C2048.6898,159.54369 2052.8421,156.351362 2054.22589,154.527044 C2057.92874,158.175681 2060.69632,159.54369 2063.46391,160" id="Fill-208" fill="#FFFFFE"></path>
            <path d="M1953,160.732824 L1953,107.379405 L1941.62947,107.379405 L1941.62947,110.138215 C1937.54115,107.379405 1933.90739,106 1929.36451,106 C1924.36706,106 1918.00684,108.299628 1914.36022,112.897955 C1910.2719,117.03617 1908,123.474014 1908,129.910928 C1908,136.361785 1911.18011,146.01762 1917.09863,150.156765 C1923.00429,153.834869 1928.00173,153.834869 1929.81815,153.834869 C1931.63549,153.834869 1937.0875,153.834869 1941.62947,150.156765 L1941.62947,156.134497 C1941.62947,160.272713 1939.35849,163.950816 1929.81815,163.950816 C1920.7333,163.950816 1917.09863,161.192006 1914.81479,160.272713 L1910.72555,169.929478 C1912.54289,170.848771 1918.91596,175 1930.72728,175 C1944.36788,175 1953,169.469366 1953,160.732824 M1942.08404,130.371039 C1942.08404,125.772713 1940.2667,117.03617 1931.18185,117.03617 C1921.64151,117.03617 1919.82417,125.772713 1919.82417,130.371039 C1919.82417,135.901673 1923.00429,142.799628 1931.18185,142.799628 C1938.90392,142.799628 1942.08404,136.361785 1942.08404,130.371039" id="Fill-209" fill="#FFFFFE"></path>
            <path d="M1782.51481,112.828344 C1783.42669,111.462675 1787.53245,106 1797.11041,106 C1808.07048,106 1814,114.649543 1814,122.843555 L1814,157 L1802.58445,157 L1802.58445,124.664754 C1802.58445,120.567748 1799.39149,116.925351 1794.83025,116.925351 C1790.26901,116.925351 1786.16417,120.567748 1786.16417,125.120284 L1786.16417,157 L1774.29223,157 L1774.29223,125.120284 C1774.29223,119.656688 1770.64287,116.925351 1766.53803,116.925351 C1762.43319,116.925351 1757.41555,119.656688 1757.41555,125.120284 L1757.41555,157 L1746,157 L1746,107.820278 L1756.95915,107.820278 L1756.95915,111.918205 C1758.32743,110.551616 1762.43319,106 1769.73099,106 C1776.57239,106 1780.23373,110.097006 1782.51481,112.828344" id="Fill-210" fill="#FFFFFE"></path>
            <path d="M1897,122.077651 L1897,157 L1885.58117,157 L1885.58117,123.455603 C1885.58117,118.862121 1881.47515,117.024543 1877.36821,117.024543 C1873.71872,117.024543 1866.41883,119.780446 1866.41883,127.129832 L1866.41883,157 L1855,157 L1855,107.377952 L1866.41883,107.377952 L1866.41883,110.133855 C1866.41883,110.133855 1871.89352,106 1879.64995,106 C1888.77505,106 1897,112.431061 1897,122.077651" id="Fill-211" fill="#FFFFFE"></path>
            <path d="M1736,107.034941 L1736,118.387465 C1726.36462,118.387465 1719.46989,123.837448 1719.46989,130.194384 L1719.46989,157 L1708,157 L1708,107.942813 L1719.46989,107.942813 L1719.46989,112.938401 C1721.76443,110.667345 1728.20007,106.580547 1736,107.034941" id="Fill-212" fill="#FFFFFE"></path>
            <path d="M1977.93978,111.308715 L1977.93978,88 L1967,88 L1967,157 L1977.93978,157 L1977.93978,126.838932 C1977.93978,121.357787 1983.40276,116.789859 1988.41111,116.789859 C1993.8741,116.789859 1997.5167,121.357787 1997.5167,126.382785 L1997.5167,157 L2008,157 L2008,119.987501 C2008,110.851645 1997.97134,105.82757 1991.1426,105.82757 C1985.22406,105.82757 1981.12682,108.568142 1977.93978,111.308715" id="Fill-213" fill="#FFFFFE"></path>
            <polygon id="Fill-214" fill="#FFFFFE" points="1680 157 1691 157 1691 108 1680 108"></polygon>
            <path d="M1685.49953,88 C1689.08577,88 1692,90.91423 1692,94.4995307 C1692,98.08577 1689.08577,101 1685.49953,101 C1681.91423,101 1679,98.08577 1679,94.4995307 C1679,90.91423 1681.91423,88 1685.49953,88" id="Fill-215" fill="#FFFFFE"></path>
            <polygon id="Fill-216" fill="#FFFFFE" points="1829 157 1840 157 1840 108 1829 108"></polygon>
            <path d="M1834.5,88 C1838.08504,88 1841,90.91423 1841,94.4995307 C1841,98.08577 1838.08504,101 1834.5,101 C1830.91496,101 1828,98.08577 1828,94.4995307 C1828,90.91423 1830.91496,88 1834.5,88" id="Fill-217" fill="#FFFFFE"></path>
            <path d="M2114.2653,112.828344 C2115.18443,111.462675 2119.32192,106 2128.977,106 C2140.02331,106 2146,114.649543 2146,122.843555 L2146,157 L2134.49365,157 L2134.49365,124.664754 C2134.49365,120.567748 2131.27529,116.925351 2126.67777,116.925351 C2122.08025,116.925351 2117.48366,120.567748 2117.48366,125.120284 L2117.48366,157 L2105.51727,157 L2105.51727,125.120284 C2105.51727,119.656688 2101.83888,116.925351 2098.16143,116.925351 C2094.023,116.925351 2088.96638,119.656688 2088.96638,125.120284 L2088.96638,157 L2077,157 L2077,107.820278 L2088.50635,107.820278 L2088.50635,111.918205 C2089.42548,110.551616 2094.023,106 2101.37885,106 C2107.81557,106 2111.96607,110.097006 2114.2653,112.828344" id="Fill-218" fill="#FFFFFE"></path>
            <polyline id="Fill-219" fill="#FFFFFE" points="2654 113.496974 2654 77 2629.78955 77 2617.46237 125.809517 2604.20952 77 2580 77 2580 176 2596.90477 176 2596.90477 97.9910606 2611.07129 153.641801 2623.39755 153.641801 2638.01998 97.9910606 2638.01998 176 2654 176 2654 134.475128"></polyline>
            <path d="M2812.94039,154.344313 L2812.94039,98.6566099 C2812.94039,91.7987366 2806.98013,89.5164688 2803.77062,89.5164688 C2801.0069,89.5164688 2795.04664,92.2544522 2795.04664,99.1123255 L2795.04664,155.257589 C2795.04664,159.821202 2800.09029,163.471539 2803.77062,163.471539 C2807.89766,163.471539 2812.94039,160.733555 2812.94039,154.344313 M2829,157.082296 L2829,96.3614272 C2829,79.0202511 2815.23329,74 2803.77062,74 C2792.75466,74 2779,80.8458808 2779,95.4490735 L2779,157.538934 C2779,170.773135 2788.62854,179 2803.77062,179 C2819.35941,179 2829,171.229773 2829,157.082296" id="Fill-220" fill="#FFFFFE"></path>
            <path d="M2744.80921,127.409935 L2744.80921,77 L2722.5449,77 L2693,141.167781 L2693,156.744572 L2728.90613,156.744572 L2728.90613,176 L2744.80921,176 L2744.80921,156.744572 L2753,156.744572 L2753,142.542177 L2744.80921,142.542177 L2744.80921,129.701211 L2744.80921,127.409935 Z M2728.90613,97.6298237 L2708.44752,142.542177 L2728.90613,142.542177 L2728.90613,97.6298237 Z" id="Fill-221" fill="#FFFFFE"></path>
        </g>
    </g>
</svg>