<?xml version="1.0" encoding="UTF-8"?>
<svg width="1619px" height="420px" viewBox="0 0 1619 420" version="1.1" xmlns="http://www.w3.org/2000/svg" xmlns:xlink="http://www.w3.org/1999/xlink">
    <!-- Generator: Sketch 61.2 (89653) - https://sketch.com -->
    <title>direction-sign-other-route-pedestrians</title>
    <desc>Created with Sketch.</desc>
    <g id="direction-sign-other-route-pedestrians" stroke="none" stroke-width="1" fill="none" fill-rule="evenodd">
        <g id="Group" transform="translate(7.000000, 0.000000)">
            <path d="M148.14182,1.28858634 L148.14182,1.28858634 C128.69466,1.28858634 110.710296,11.4166006 100.952901,27.8373976 L3.73463615,193.25162 C1.23861675,196.346082 0,203.155652 0,206.869507 C0,209.96397 1.23861675,216.773539 3.73463615,220.504913 L101.193361,385.075759 C111.020889,401.273825 128.86749,411.211642 148.14182,411.211642 L1551.46204,413.06857 C1581.56205,413.06857 1606,388.944776 1606,359.197644 L1606,358.544466 L1606,53.9219769 C1606,24.432613 1581.99288,0.428943912 1552.13332,0.0685697945 L148.14182,1.28858634 Z" id="Fill-23143" fill="#FFFFFE"></path>
            <path d="M148.142706,2.2893946 L148.141836,2.28939497 C129.052058,2.28939497 111.392238,12.2274518 101.814728,28.3447395 L4.59664857,193.757954 L4.51300893,193.878921 C2.48817983,196.390302 1,202.502447 1,206.869477 C1,210.639541 2.52093137,216.891459 4.59496256,219.995338 L102.0485,384.55687 C111.694197,400.455806 129.216846,410.21154 148.143159,410.211541 L1551.46219,412.06857 C1581.01782,412.06857 1605,388.384118 1605,359.197509 L1605,53.9224355 C1605,24.9831729 1581.4348,1.4229895 1552.13424,1.06856942 L148.142706,2.2893946 Z" id="Stroke-23144" stroke="#0070AC" stroke-width="2"></path>
            <path d="M1551.72307,27.0685698 L1551.72307,27.0685698 C1566.78105,27.0685698 1579,39.0385834 1579,53.7673357 L1578.98247,359.955942 C1578.65561,374.478855 1566.5406,386.06857 1551.72307,386.06857 L148.476965,385.447289 C138.840309,385.447289 129.926246,380.463235 125.004601,372.322571 L33.1952613,218.356592 L27,207.181065 L35.672364,193.521669 L124.745369,41.2463274 C129.581856,32.863427 138.651208,27.6898508 148.476965,27.6898508" id="Fill-23145" fill="#0070AC"></path>
            <polyline id="Fill-23146" fill="#FFFFFE" points="157.06405 54.0685698 242.377148 54.0685698 153.329455 206.946939 243 361.06857 158.931348 361.06857 68 207.56857 157.686902 54.0685698"></polyline>
            <path d="M1420.85987,180.071885 C1417.12534,188.758902 1408.41059,197.445918 1399.69584,204.270357 C1390.98235,211.716909 1380.38272,216.060417 1377.89261,216.680022 C1374.78092,217.300882 1364.82175,219.800626 1363.57607,219.800626 C1362.33164,219.800626 1360.46438,221.041091 1359.21869,221.041091 C1358.59711,221.041091 1356.107,219.800626 1355.48416,216.680022 C1354.23974,213.578233 1352.37247,204.270357 1356.72984,203.650751 C1361.7088,202.409032 1361.7088,204.270357 1361.7088,204.270357 C1361.7088,204.270357 1367.93344,203.029892 1369.17787,201.789427 C1370.42355,200.547708 1379.75988,196.204199 1382.24999,193.10241 C1385.36294,189.999366 1391.60394,183.174928 1394.71689,178.21056 C1397.82858,172.005727 1400.94153,162.060686 1403.43038,158.338037 C1405.29764,154.615388 1409.65502,146.549231 1412.76797,144.067047 C1416.5025,140.965257 1423.34998,134.760425 1423.97156,134.139565 C1424.5944,133.51996 1424.5944,130.416916 1423.34998,129.796057 C1422.72714,129.176451 1415.25807,125.452548 1414.01239,122.350759 C1412.14512,118.62811 1410.27786,116.766785 1410.27786,110.544393 C1410.27786,103.7187 1416.5025,90.0685698 1431.45824,90.0685698 C1446.39763,90.0685698 1451.37785,101.237771 1451.37785,109.303928 C1451.37785,120.489434 1443.90753,123.591224 1445.77479,126.073408 C1447.02047,127.934732 1451.37785,127.315127 1455.73522,127.934732 C1460.71418,128.555592 1471.31381,132.278241 1476.29277,137.862214 C1481.89457,142.826582 1492.47658,153.994529 1495.58953,160.199361 C1498.70122,166.421754 1504.32064,178.21056 1506.81075,186.276718 C1509.30085,194.342875 1509.92244,199.307243 1509.92244,202.409032 C1509.92244,205.512076 1511.16812,209.234725 1511.16812,209.234725 C1511.16812,209.234725 1514.90265,211.716909 1514.90265,214.818698 C1514.90265,217.300882 1510.54528,221.66195 1508.05517,222.902415 C1505.56632,224.14288 1499.94691,226.005459 1498.70122,226.005459 C1496.83396,226.005459 1491.23216,223.523275 1491.23216,219.800626 C1491.23216,216.680022 1493.72227,211.096049 1493.72227,207.99426 C1493.72227,204.891216 1490.60932,191.861945 1488.74205,189.379761 C1487.49762,186.897577 1481.27298,176.970095 1479.40572,175.72963 C1478.16003,173.867052 1475.66993,172.005727 1475.66993,172.005727 C1475.04834,183.174928 1476.91561,209.234725 1478.78288,216.680022 C1481.27298,224.14288 1491.855,244.618703 1496.21111,251.444395 C1501.81417,260.131412 1513.65823,277.521751 1519.26003,284.967049 C1525.48467,291.792742 1534.821,299.238039 1536.06668,300.479759 C1537.31111,301.720223 1537.31111,303.581548 1536.06668,304.823267 C1534.821,306.684591 1523.6174,329.038044 1523.6174,329.038044 C1522.99456,329.038044 1506.1879,332.141088 1504.94348,332.141088 C1503.69905,332.141088 1503.07621,329.038044 1504.94348,328.418439 C1506.81075,327.17672 1508.67801,327.17672 1508.67801,327.17672 C1509.92244,320.334722 1511.79096,313.50903 1513.65823,306.684591 C1513.65823,306.684591 1499.94691,294.274926 1496.83396,290.552277 C1494.34385,287.449233 1478.78288,272.557383 1476.29277,268.19757 C1473.18108,264.474921 1463.82713,251.444395 1462.58145,247.721747 C1461.33702,244.618703 1455.11238,234.691221 1455.11238,234.691221 C1455.11238,234.691221 1448.2649,240.276449 1445.77479,243.378238 C1443.90753,246.480027 1433.32677,265.094526 1430.83666,269.438034 C1428.34655,273.799103 1419.61419,294.274926 1418.36976,298.618434 C1416.5025,302.960688 1402.18595,342.06857 1402.18595,342.06857 C1402.18595,342.06857 1367.3106,327.17672 1366.06617,326.557115 C1364.19891,325.297836 1362.33164,321.575187 1366.06617,321.575187 C1369.17787,321.575187 1390.35951,319.094257 1390.35951,319.094257 C1390.35951,319.094257 1391.60394,307.304197 1392.22678,304.202407 C1392.84962,301.099364 1397.82858,277.521751 1399.69584,273.799103 C1401.56311,269.438034 1410.27786,248.962211 1412.76797,246.480027 C1414.63523,244.618703 1420.85987,226.625064 1422.1043,222.281555 C1423.97156,218.541347 1426.46167,207.3734 1426.46167,202.409032 C1426.46167,198.066778 1423.97156,185.657112 1420.85987,180.071885" id="Fill-23147" fill="#FFFFFE"></path>
            <path d="M386,248.534187 L369.853871,255.986925 C365.511369,246.669746 357.447082,238.595528 344.419579,238.595528 C328.274703,238.595528 314.007022,252.880781 314.007022,274.63635 C314.007022,295.754117 325.793095,312.524035 344.419579,312.524035 C363.650477,312.524035 368.612439,296.995822 369.853871,295.132637 L386,302.586631 C382.27696,310.03937 371.094048,328.06857 344.419579,328.06857 C317.728808,328.06857 296,308.797665 296,275.87931 C296,239.838488 320.829878,223.06857 343.179401,223.06857 C365.511369,223.06857 379.17589,235.490638 386,248.534187" id="Fill-23148" fill="#FFFFFE"></path>
            <path d="M1215.85488,283.103258 L1182.77389,283.103258 C1182.77389,274.482843 1188.89698,265.846247 1199.30634,265.846247 C1209.73179,265.846247 1215.85488,275.098942 1215.85488,283.103258 M1219.52848,305.885251 L1229.93784,316.967576 C1225.65156,320.662928 1217.08023,328.06857 1199.30634,328.06857 C1181.54854,328.06857 1165,314.505667 1165,289.87662 C1165,264.615292 1181.54854,251.06857 1199.30634,251.06857 C1217.08023,251.06857 1233,267.077201 1233,286.797366 L1233,294.801682 L1182.16122,294.801682 C1182.16122,305.269152 1191.34646,312.042513 1200.53046,312.042513 C1209.73179,312.042513 1215.85488,308.96326 1219.52848,305.885251" id="Fill-23149" fill="#FFFFFE"></path>
            <path d="M967.996465,248.849881 L967.996465,253.186736 L982.379214,253.186736 L982.379214,266.815957 L967.996465,266.815957 L967.996465,325.06857 L950.509153,325.06857 L950.509153,266.815957 L938,266.815957 L938,253.186736 L950.509153,253.186736 L950.509153,240.177424 C950.509153,229.025333 962.375679,224.06857 975.490847,224.06857 C986.751357,224.06857 988,225.308387 988,225.308387 L986.126405,238.937607 C986.126405,238.937607 982.379214,238.317699 979.255713,238.317699 C969.87006,238.317699 967.996465,243.274462 967.996465,248.849881" id="Fill-23150" fill="#FFFFFE"></path>
            <path d="M634,275.385535 L634,325.051217 L616.64406,325.051217 L616.64406,276.612614 C616.64406,270.463588 610.445688,267.397132 604.86753,267.397132 C599.271831,267.397132 588.734474,271.689427 588.734474,282.130747 L588.734474,325.06857 L572,325.06857 L572,253.907948 L588.734474,253.907948 L588.734474,258.200243 C588.734474,258.200243 596.792232,252.06857 607.967342,252.06857 C621.603258,252.06857 634,261.265459 634,275.385535" id="Fill-23151" fill="#FFFFFE"></path>
            <path d="M433.692265,312.658613 C446.609667,312.658613 452.162571,300.344089 452.162571,289.26052 C452.162571,276.945996 445.994198,265.846247 433.692265,265.846247 C422.005802,265.846247 415.239367,276.945996 415.239367,289.26052 C415.239367,300.344089 420.774863,312.658613 433.692265,312.658613 M433.692265,328.06857 C454.621963,328.06857 470,310.195459 470,289.26052 C470,267.077201 453.392267,251.06857 433.692265,251.06857 C414.623897,251.06857 398,267.077201 398,289.26052 C398,310.195459 412.762568,328.06857 433.692265,328.06857" id="Fill-23152" fill="#FFFFFE"></path>
            <path d="M1239,315.016085 L1249.65724,303.844372 C1254.66512,308.189345 1259.67173,313.154133 1272.81646,313.154133 C1274.69409,313.154133 1283.47369,312.534319 1283.47369,305.706324 C1283.47369,298.87833 1275.3204,297.637447 1267.18354,296.395309 C1259.04669,295.154426 1244.02433,290.189639 1244.02433,274.050629 C1244.02433,257.275495 1261.54937,251.06857 1272.81646,251.06857 C1283.47369,251.06857 1292.86315,254.792474 1301,262.861351 L1290.35921,273.430815 C1284.7263,268.447208 1279.09338,265.344372 1272.81646,265.344372 C1266.55724,265.344372 1260.92433,269.689345 1260.92433,274.050629 C1260.92433,280.257555 1270.31252,280.257555 1276.57173,282.120761 C1283.47369,283.361645 1300.3737,285.844666 1300.3737,304.465441 C1300.3737,323.084962 1282.84866,328.06857 1271.56385,328.06857 C1257.79409,328.06857 1245.90196,321.844079 1239,315.016085" id="Fill-23153" fill="#FFFFFE"></path>
            <path d="M489,303.888878 L489,253.06857 L505.581453,253.06857 L505.581453,298.93196 C505.581453,306.986013 508.649704,312.562859 519.079773,312.562859 C528.913306,312.562859 534.43467,303.888878 534.43467,298.313285 L534.43467,253.06857 L551,253.06857 L551,325.590111 L534.43467,325.590111 L534.43467,320.616912 C534.43467,320.616912 528.299408,328.06857 514.784966,328.06857 C500.673988,328.06857 489,319.996984 489,303.888878" id="Fill-23154" fill="#FFFFFE"></path>
            <path d="M715,270.931483 L699.503826,278.396857 C695.169504,270.931483 690.835181,265.965441 682.786082,265.965441 C674.099914,265.965441 662.955586,274.051884 662.955586,288.947501 C662.955586,304.465441 673.481619,313.155387 682.786082,313.155387 C692.073022,313.155387 698.264733,304.465441 700.122121,300.741537 L715,308.189345 C710.648155,316.258223 700.741668,328.06857 682.166536,328.06857 C664.193427,328.06857 645,315.01734 645,288.947501 C645,263.48242 665.43252,251.06857 682.166536,251.06857 C699.503826,251.06857 709.410313,260.999399 715,270.931483" id="Fill-23155" fill="#FFFFFE"></path>
            <polygon id="Fill-23156" fill="#FFFFFE" points="729 325.06857 746 325.06857 746 253.06857 729 253.06857"></polygon>
            <path d="M737,225.06857 C742.521162,225.06857 747,229.326639 747,234.56921 C747,239.811781 742.521162,244.06857 737,244.06857 C731.478838,244.06857 727,239.811781 727,234.56921 C727,229.326639 731.478838,225.06857 737,225.06857" id="Fill-23157" fill="#FFFFFE"></path>
            <path d="M800,325.828512 L798.133191,311.544655 C798.133191,311.544655 793.154195,312.165311 789.402966,312.165311 C785.669348,312.165311 783.17985,309.063287 783.17985,305.962516 L783.17985,224.06857 L767,224.06857 L767,311.544655 C767,321.468877 773.845805,327.06857 786.292037,327.06857 C792.531506,327.06857 800,325.828512 800,325.828512" id="Fill-23158" fill="#FFFFFE"></path>
            <path d="M890.692265,312.658613 C903.627074,312.658613 909.162571,300.344089 909.162571,289.26052 C909.162571,276.945996 903.011605,265.846247 890.692265,265.846247 C879.005802,265.846247 872.239367,276.945996 872.239367,289.26052 C872.239367,300.344089 878.390333,312.658613 890.692265,312.658613 M890.692265,328.06857 C912.237432,328.06857 927,310.195459 927,289.26052 C927,267.077201 910.392267,251.06857 890.692265,251.06857 C871.62514,251.06857 855,267.077201 855,289.26052 C855,310.195459 869.779975,328.06857 890.692265,328.06857" id="Fill-23159" fill="#FFFFFE"></path>
            <path d="M1023.00707,248.849881 L1023.00707,253.186736 L1038.00114,253.186736 L1038.00114,266.815957 L1023.00707,266.815957 L1023.00707,325.06857 L1005.49463,325.06857 L1005.49463,266.815957 L993,266.815957 L993,253.186736 L1005.49463,253.186736 L1005.49463,240.177424 C1005.49463,229.025333 1017.38304,224.06857 1031.12928,224.06857 C1041.74965,224.06857 1043,225.308387 1043,225.308387 L1041.74965,238.937607 C1041.74965,238.937607 1038.00114,238.317699 1034.25262,238.317699 C1024.88133,238.317699 1023.00707,243.274462 1023.00707,248.849881" id="Fill-23160" fill="#FFFFFE"></path>
            <polygon id="Fill-23161" fill="#FFFFFE" points="1054 325.06857 1071 325.06857 1071 253.06857 1054 253.06857"></polygon>
            <path d="M1063,225.06857 C1068.52116,225.06857 1073,229.326639 1073,234.56921 C1073,239.811781 1068.52116,244.06857 1063,244.06857 C1057.47884,244.06857 1053,239.811781 1053,234.56921 C1053,229.326639 1057.47884,225.06857 1063,225.06857" id="Fill-23162" fill="#FFFFFE"></path>
            <path d="M1156,270.931483 L1139.9018,278.396857 C1136.18703,270.931483 1131.8527,265.965441 1123.16779,265.965441 C1115.11869,265.965441 1103.35356,274.051884 1103.35356,288.947501 C1103.35356,304.465441 1113.8796,313.155387 1123.16779,313.155387 C1133.0918,313.155387 1138.66396,304.465441 1140.52135,300.741537 L1156,308.189345 C1151.66568,316.258223 1141.1409,328.06857 1123.16779,328.06857 C1104.59265,328.06857 1086,315.01734 1086,288.947501 C1086,263.48242 1105.8305,251.06857 1123.16779,251.06857 C1139.9018,251.06857 1150.42784,260.999399 1156,270.931483" id="Fill-23163" fill="#FFFFFE"></path>
            <path d="M336.689601,95.5535753 L319.353562,95.5535753 L319.353562,129.02032 L337.928694,129.02032 C347.233157,129.02032 354.662709,120.967916 354.662709,112.278183 C354.662709,102.98743 347.852703,95.5535753 336.689601,95.5535753 M342.898834,143.885524 L319.353562,143.885524 L319.353562,181.06857 L302,181.06857 L302,80.0685698 L341.660993,80.0685698 C358.997032,80.0685698 372,96.7931771 372,112.915513 C372,127.780718 357.139644,143.885524 342.898834,143.885524" id="Fill-23164" fill="#FFFFFE"></path>
            <path d="M487.532445,136.321472 C488.757804,130.14166 491.836055,122.726386 503.469539,122.726386 C515.715703,122.726386 522.451464,132.613835 522.451464,144.973459 C522.451464,157.333083 516.328382,167.855127 504.082218,167.855127 C491.836055,167.855127 488.145125,157.950189 487.532445,151.770377 L487.532445,136.321472 Z M487.532445,114.692755 L487.532445,80.0685698 L471,80.0685698 L471,180.833107 L487.532445,180.833107 L487.532445,175.888758 C487.532445,175.888758 494.285535,182.06857 506.530461,182.06857 C520.001984,182.06857 539,171.562765 539,144.973459 C539,117.163681 518.776625,107.259992 507.143141,107.259992 C500.408617,107.259992 493.672855,109.730917 487.532445,114.692755 L487.532445,114.692755 Z" id="Fill-23165" fill="#FFFFFE"></path>
            <path d="M1033.96812,148.848266 L1033.96812,162.435256 C1031.50482,167.39289 1025.34717,171.099568 1018.57338,171.099568 C1017.34235,171.099568 1005.00963,169.863592 1005.00963,159.964553 C1005.00963,150.082993 1019.80566,150.082993 1033.96812,148.848266 M1049.97776,184.06857 L1058,172.334295 C1053.07338,169.863592 1050.5939,169.246853 1050.5939,164.28797 L1050.5939,129.085145 C1050.5939,118.585596 1042.58908,108.06857 1021.03669,108.06857 C1005.00963,108.06857 995.157647,114.26218 992.079446,115.496907 L998.237093,127.849169 C1005.00963,125.378467 1012.39956,122.291026 1022.26897,122.291026 C1031.50482,122.291026 1033.96812,127.849169 1033.96812,130.937859 L1033.96812,136.496003 C1023.5,137.113991 1014.87905,137.73073 1009.93625,138.966705 C1005.00963,139.583445 989,143.290122 989,159.964553 C989,177.275699 1005.62577,183.451831 1016.72621,183.451831 C1028.42662,183.451831 1034.58426,178.510426 1036.43143,176.039724 C1041.3568,181.597868 1045.66728,183.451831 1049.97776,184.06857" id="Fill-23166" fill="#FFFFFE"></path>
            <path d="M705,125.788735 L688.901802,133.793051 C685.187026,126.404834 680.852703,120.863672 672.167787,120.863672 C664.118688,120.863672 652.353562,128.867988 652.353562,144.26052 C652.353562,159.038197 662.879595,167.674793 672.786082,167.674793 C682.090545,167.674793 687.663961,159.038197 689.521349,155.958944 L705,163.348405 C700.665677,171.368901 690.139644,183.06857 672.167787,183.06857 C654.21095,183.06857 635,170.137947 635,144.26052 C635,118.400518 655.450043,106.06857 672.167787,106.06857 C689.521349,106.06857 699.427836,115.937365 705,125.788735" id="Fill-23167" fill="#FFFFFE"></path>
            <path d="M589,181.827258 L587.133191,167.560955 C587.133191,167.560955 582.154195,168.181611 578.420577,168.181611 C574.686959,168.181611 572.197461,165.063287 572.197461,161.961262 L572.197461,80.0685698 L556,80.0685698 L556,168.181611 C556,177.48643 563.467236,183.06857 575.30839,183.06857 C581.531506,183.06857 589,181.827258 589,181.827258" id="Fill-23168" fill="#FFFFFE"></path>
            <path d="M975,108.22899 L975,124.288071 C961.128136,124.288071 951.040318,132.308881 951.040318,141.564429 L951.040318,181.06857 L934,181.06857 L934,109.463728 L951.040318,109.463728 L951.040318,116.267261 C954.823091,113.18291 963.650409,106.995499 975,108.22899" id="Fill-23169" fill="#FFFFFE"></path>
            <path d="M389,159.269789 L389,109.06857 L405.735727,109.06857 L405.735727,154.312788 C405.735727,162.366975 408.834287,167.960195 418.768971,167.960195 C429.306327,167.960195 434.884486,159.888475 434.884486,154.312788 L434.884486,109.06857 L451,109.06857 L451,180.971384 L434.884486,180.971384 L434.884486,176.014383 C434.884486,176.014383 428.686114,184.06857 414.429986,184.06857 C400.776529,184.06857 389,175.395697 389,159.269789" id="Fill-23170" fill="#FFFFFE"></path>
            <path d="M1161.84112,194.276078 L1191,109.06857 L1172.39843,109.06857 L1157.50063,157.843771 L1142.61912,109.06857 L1124,109.06857 L1148.81964,181.931938 C1151.3001,189.955504 1143.23955,191.807001 1130.8385,188.721589 L1127.72132,202.299645 L1127.73761,202.299645 C1150.05925,206.002638 1158.1198,204.151141 1161.84112,194.276078" id="Fill-23171" fill="#FFFFFE"></path>
            <polygon id="Fill-23172" fill="#FFFFFE" points="603 181.06857 621 181.06857 621 109.06857 603 109.06857"></polygon>
            <path d="M612,80.0685698 C617.521162,80.0685698 622,84.5474074 622,90.0685698 C622,95.5897321 617.521162,100.06857 612,100.06857 C606.478838,100.06857 602,95.5897321 602,90.0685698 C602,84.5474074 606.478838,80.0685698 612,80.0685698" id="Fill-23173" fill="#FFFFFE"></path>
            <path d="M796,181.827258 L793.482471,167.560955 C793.482471,167.560955 789.059303,168.181611 784.655218,168.181611 C780.878288,168.181611 778.362031,165.063287 778.362031,161.961262 L778.362031,80.0685698 L762,80.0685698 L762,168.181611 C762,177.48643 769.551315,183.06857 781.507988,183.06857 C787.801175,183.06857 796,181.827258 796,181.827258" id="Fill-23174" fill="#FFFFFE"></path>
            <polygon id="Fill-23175" fill="#FFFFFE" points="808 181.06857 826 181.06857 826 109.06857 808 109.06857"></polygon>
            <path d="M816.999368,80.0685698 C822.520182,80.0685698 827,84.5474074 827,90.0685698 C827,95.5897321 822.520182,100.06857 816.999368,100.06857 C811.479818,100.06857 807,95.5897321 807,90.0685698 C807,84.5474074 811.479818,80.0685698 816.999368,80.0685698" id="Fill-23176" fill="#FFFFFE"></path>
            <path d="M863.532445,136.321472 C864.773895,130.14166 867.836055,122.726386 879.469539,122.726386 C891.103023,122.726386 898.450227,132.613835 898.450227,144.973459 C898.450227,157.333083 892.327145,167.855127 880.082218,167.855127 C867.836055,167.855127 864.145125,157.950189 863.532445,151.770377 L863.532445,136.321472 Z M863.532445,114.692755 L863.532445,80.0685698 L847,80.0685698 L847,180.833107 L863.532445,180.833107 L863.532445,175.888758 C863.532445,175.888758 870.284297,182.06857 882.530461,182.06857 C896.001984,182.06857 915,171.562765 915,144.973459 C915,117.163681 894.776625,107.259992 882.530461,107.259992 C875.795937,107.259992 869.672855,109.730917 863.532445,114.692755 L863.532445,114.692755 Z" id="Fill-23177" fill="#FFFFFE"></path>
            <path d="M1114,108.22899 L1114,124.288071 C1100.12941,124.288071 1090.04159,132.308881 1090.04159,141.564429 L1090.04159,181.06857 L1073,181.06857 L1073,109.463728 L1090.04159,109.463728 L1090.04159,116.267261 C1093.82437,113.18291 1102.65168,106.995499 1114,108.22899" id="Fill-23178" fill="#FFFFFE"></path>
        </g>
    </g>
</svg>