<?xml version="1.0" encoding="UTF-8"?>
<svg width="390px" height="420px" viewBox="0 0 390 420" version="1.1" xmlns="http://www.w3.org/2000/svg" xmlns:xlink="http://www.w3.org/1999/xlink">
    <!-- Generator: Sketch 61.2 (89653) - https://sketch.com -->
    <title>direction-sign-black-border-approach-junction-crossroads</title>
    <desc>Created with Sketch.</desc>
    <g id="direction-sign-black-border-approach-junction-crossroads" stroke="none" stroke-width="1" fill="none" fill-rule="evenodd">
        <g id="Group-2" transform="translate(5.000000, 0.000000)">
            <path d="M380,405.587234 C380,412.422837 374.279284,418 367.582473,418 L12.4135808,418 C5.71676951,418 0,412.422837 0,405.587234 L0,12.4127664 C0,5.72034029 5.71676951,0 12.4135808,0 L367.582473,0 C374.279284,0 380,5.72034029 380,12.4127664 L380,405.587234 Z" id="Fill-21824" fill="#1A1919"></path>
            <path d="M12.1459092,88 C8.65617279,88 6,85.2220022 6,81.7545519 L6,12.2415228 C6,8.77407244 8.65617279,6 12.1459092,6 L367.854091,6 C371.208098,6 374,8.77407244 374,12.2415228 L374,81.7545519 C374,85.2220022 371.208098,88 367.854091,88 L12.1459092,88 Z" id="Fill-21825" fill="#FFFFFE"></path>
            <path d="M12.1459092,412 C8.65617279,412 6,409.20891 6,405.864278 L6,101.135722 C6,97.6479862 8.65617279,95 12.1459092,95 L367.854091,95 C371.208098,95 374,97.6479862 374,101.135722 L374,405.864278 C374,409.20891 371.208098,412 367.854091,412 L12.1459092,412 Z" id="Fill-21826" fill="#FFFFFE"></path>
            <path d="M167.80888,260 C170.183876,260 172,261.950089 172,264.178964 L172,397.816812 C172,400.18874 170.183876,402 167.80888,402 L20.9115428,402 C18.8161238,402 17,400.049629 17,397.816812 L17,264.178964 C17,261.950089 18.9559126,260 21.0513315,260 L167.80888,260 Z" id="Fill-21827" fill="#005E3C"></path>
            <path d="M359.808491,280 C362.18542,280 364,281.941907 364,284.161109 L364,357.834966 C364,360.192956 362.18542,362 359.808491,362 L225.187558,362 C222.95425,362 221,360.192956 221,357.834966 L221,284.161109 C221,281.941907 222.95425,280 225.187558,280 L359.808491,280 Z" id="Fill-21828" fill="#005E3C"></path>
            <path d="M119.584239,33.7745677 L117.611742,33.7745677 L120.429513,24.7130995 L123.528947,33.7745677 L121.556735,33.7745677 L119.584239,33.7745677 Z M119.020627,37.8155955 L116.199154,37.8155955 L114.930957,42 L110,42 L117.611742,19 L123.388258,19 L131,42 L126.209732,42 L124.797144,37.8155955 L121.979373,37.8155955 L119.020627,37.8155955 Z" id="Fill-21829" fill="#1A1919"></path>
            <path d="M177.350706,26.9500664 L181.577363,24.962478 C180.168477,22.1231481 176.787379,19 171.993124,19 C167.203141,19 161,22.5490189 161,30.9289737 C161,39.1628583 167.062167,43 171.993124,43 C175.23752,43 177.350706,41.580335 177.773343,41.2962299 L177.773343,42.8579474 L182,42.8579474 L182,29.5093087 L171.993124,29.5093087 L171.993124,33.3424328 L177.773343,33.3424328 C177.773343,35.6138394 175.801131,38.8790401 171.993124,38.8790401 C168.189105,38.8790401 165.790268,35.4717868 165.790268,31.0707393 C165.790268,26.5241956 168.471053,23.5428131 171.711461,23.5428131 C174.955857,23.5428131 176.505431,25.3883488 177.350706,26.9500664" id="Fill-21830" fill="#1A1919"></path>
            <polyline id="Fill-21831" fill="#1A1919" points="93.8192631 32.2419292 91.5019976 32.2419292 91.5019976 42 87 42 87 19 91.5019976 19 91.5019976 27.922035 100.50186 27.922035 100.50186 19 105 19 105 42 100.50186 42 100.50186 32.2419292 97.7721157 32.2419292"></polyline>
            <polyline id="Fill-21832" fill="#1A1919" points="212 32.102496 212 42 207.510619 42 207.510619 25.1311174 200.501983 34.8894699 193.349406 25.1311174 193.349406 42 189 42 189 19 194.610876 19 200.501983 27.2254323 206.248867 19 212 19 212 25.5491354"></polyline>
            <polyline id="Fill-21833" fill="#1A1919" points="138.619638 19 140.412052 19 151.587948 34.8894699 151.587948 19 156 19 156 42 150.760724 42 140.550015 26.3854529 140.550015 42 136 42 136 19 137.102874 19"></polyline>
            <path d="M276,38.6717382 L279.430353,35.4634671 C283.85639,38.3928685 287.429602,38.6717382 288.28618,38.6717382 C289.571336,38.6717382 290.856203,37.5559772 290.856203,36.0214886 C290.856203,34.6265758 289.713906,33.7896845 288.857328,33.6501087 C288.14361,33.3712389 284.855828,32.6739235 283.570961,32.3947718 C282.285805,32.115902 277.860056,30.999859 277.860056,25.834988 C277.860056,20.8133584 281.572086,19 285.859017,19 C289.999625,19 293.140507,20.115761 295.857141,22.4871409 L292.712218,25.6954121 C290.998773,24.3004993 288.714469,23.3240322 285.573587,23.3240322 C283.570961,23.3240322 283.285242,24.9980967 283.285242,25.6954121 C283.285242,26.2534336 283.713531,27.652294 284.998687,27.7915879 C286.144735,28.0707396 289.428477,28.9076309 289.999625,28.9076309 C291.284492,29.1865006 296,30.8602831 296,35.7426188 C296,40.0705986 292.997648,43 287.572461,43 C282.143234,43 277.860056,40.3494684 276,38.6717382" id="Fill-21834" fill="#1A1919"></path>
            <path d="M226.509283,33.7745677 L224.520108,33.7745677 L227.502007,24.7130995 L230.479892,33.7745677 L228.494731,33.7745677 L226.509283,33.7745677 Z M225.941971,37.8155955 L223.101971,37.8155955 L221.825448,42 L217,42 L224.520108,19 L230.479892,19 L238,42 L233.174552,42 L231.756416,37.8155955 L228.920143,37.8155955 L225.941971,37.8155955 Z" id="Fill-21835" fill="#1A1919"></path>
            <polyline id="Fill-21836" fill="#1A1919" points="245.619638 19 247.412052 19 258.584046 34.8894699 258.584046 19 263 19 263 42 257.894785 42 247.550015 26.3854529 247.550015 42 243 42 243 19 244.102874 19"></polyline>
            <path d="M269.857349,24.5714109 L268.57147,25.1429043 L268.857349,26 C272.42853,25.7143977 273,22.4286716 273,21.2856848 C273,20.1429868 272.14294,19 270.714409,19 C269.285879,19 268,19.7144389 268,21.1430281 C268,22.4286716 269.14294,23.000165 269.714409,23.1431106 C270.14294,23.2857673 270.285879,23.7143152 270.285879,24.0002063 C270.285879,24.142863 270.14294,24.5714109 269.857349,24.5714109" id="Fill-21837" fill="#1A1919"></path>
            <path d="M90,59.382143 L85.5217426,61.0856261 C84.6821048,58.9562722 83.282614,56.6848657 79.7800679,56.6848657 C76.2811995,56.6848657 73.7622858,59.8080138 73.7622858,64.0710263 C73.7622858,68.1879686 76.4212334,71.4531693 79.7800679,71.4531693 C83.282614,71.4531693 84.9618898,68.6138394 85.5217426,66.9103562 L90,68.755892 C88.8805771,71.4531693 85.8015276,76 79.9198189,76 C73.6222519,76 69,70.8852459 69,63.9289737 C69,56.9686839 74.1821048,52 79.7800679,52 C85.3817087,52 88.6005092,55.8331241 90,59.382143" id="Fill-21838" fill="#1A1919"></path>
            <path d="M130,56.5428131 C126.898627,56.5428131 123.793264,58.9562722 123.793264,64.0707393 C123.793264,69.1814758 126.898627,71.7369875 130,71.7369875 C133.101373,71.7369875 136.206736,69.1814758 136.206736,64.0707393 C136.206736,58.9562722 133.101373,56.5428131 130,56.5428131 M130,52 C125.48886,52 119,55.5490189 119,64.0707393 C119,72.5887291 125.347798,76 130,76 C134.656192,76 141,72.5887291 141,64.0707393 C141,55.5490189 134.51513,52 130,52" id="Fill-21839" fill="#1A1919"></path>
            <path d="M105.618157,56.0410278 L100.536301,56.0410278 L100.536301,61.754409 L105.618157,61.754409 C107.682106,61.754409 108.643561,60.2214888 108.643561,58.967435 C108.643561,57.573948 107.682106,56.0410278 105.618157,56.0410278 M106.716765,52 L96,52 L96,75 L100.536301,75 L100.536301,65.9385318 L103.832678,65.9385318 L108.918144,75 L114,75 L108.643561,65.7993803 C110.291611,65.5205139 113.450558,63.5695758 113.450558,58.967435 C113.450558,54.3689561 110.291611,52 106.716765,52" id="Fill-21840" fill="#1A1919"></path>
            <path d="M144,71.6720202 L147.427293,68.463749 C151.857978,71.3928685 155.42787,71.6720202 156.284621,71.6720202 C157.570037,71.6720202 158.859205,70.5559772 158.859205,69.0214886 C158.859205,67.6265758 157.712636,66.7896845 156.998773,66.6503906 C156.142022,66.3712389 152.857617,65.8132174 151.57249,65.5343476 C150.287075,65.2554779 145.85639,63.999859 145.85639,58.834988 C145.85639,53.8133584 149.573212,52 153.857256,52 C158.145053,52 161.286859,53.2553369 164,55.6267168 L160.715595,58.6954121 C159.001804,57.4400752 156.855885,56.3240322 153.57148,56.3240322 C151.57249,56.3240322 151.286714,58.1373906 151.286714,58.6954121 C151.286714,59.2534336 151.71509,60.6483464 153.000505,60.9272161 C154.142744,61.066792 157.570037,61.9036833 157.998412,62.0432591 C159.430468,62.182835 164,63.999859 164,68.7426188 C164,73.066933 161.143971,76 155.570758,76 C150.144476,76 145.85639,73.4853786 144,71.6720202" id="Fill-21841" fill="#1A1919"></path>
            <path d="M168,71.6720202 L171.544619,68.463749 C175.802347,71.3928685 179.346967,71.6720202 180.339529,71.6720202 C181.473681,71.6720202 182.749996,70.5559772 182.749996,69.0214886 C182.749996,67.6265758 181.757434,66.7896845 180.906748,66.6503906 C180.197653,66.3712389 176.9365,65.8132174 175.518594,65.5343476 C174.238553,65.2554779 169.984838,63.999859 169.984838,58.834988 C169.984838,53.8133584 173.67162,52 177.787185,52 C182.040901,52 185.16419,53.2553369 187.85841,55.6267168 L184.597257,58.6954121 C183.033463,57.4400752 180.764872,56.3240322 177.503719,56.3240322 C175.660471,56.3240322 175.235128,58.1373906 175.235128,58.6954121 C175.235128,59.2534336 175.660471,60.6483464 176.9365,60.9272161 C178.212815,61.066792 181.473681,61.9036833 181.899311,62.0432591 C183.320942,62.182835 188,63.999859 188,68.7426188 C188,73.066933 185.0226,76 179.630433,76 C174.238553,76 169.843248,73.4853786 168,71.6720202" id="Fill-21842" fill="#1A1919"></path>
            <path d="M204.691877,56.0410278 L199.567285,56.0410278 L199.567285,61.754409 L204.691877,61.754409 C206.768069,61.754409 207.598433,60.2214888 207.598433,58.967435 C207.598433,57.573948 206.768069,56.0410278 204.691877,56.0410278 M205.799217,52 L195,52 L195,75 L199.567285,75 L199.567285,65.9385318 L202.892661,65.9385318 L208.013616,75 L213,75 L207.736921,65.7993803 C209.263079,65.5205139 212.584818,63.5695758 212.584818,58.967435 C212.584818,54.3689561 209.401567,52 205.799217,52" id="Fill-21843" fill="#1A1919"></path>
            <path d="M227.932053,56.5428131 C224.846991,56.5428131 221.90575,58.9562722 221.90575,64.0707393 C221.90575,69.1814758 224.986848,71.7369875 227.932053,71.7369875 C231.013152,71.7369875 234.09425,69.1814758 234.09425,64.0707393 C234.09425,58.9562722 231.153292,56.5428131 227.932053,56.5428131 M227.932053,52 C223.586297,52 217,55.5490189 217,64.0707393 C217,72.5887291 223.446441,76 227.932053,76 C232.553843,76 239,72.5887291 239,64.0707393 C239,55.5490189 232.413703,52 227.932053,52" id="Fill-21844" fill="#1A1919"></path>
            <path d="M251.509283,66.7745677 L249.519821,66.7745677 L252.50172,57.7130995 L255.479892,66.7745677 L253.494444,66.7745677 L251.509283,66.7745677 Z M250.937957,70.9550287 L248.101685,70.9550287 L246.825448,75 L242,75 L249.519821,52 L255.337993,52 L263,75 L258.174266,75 L256.756129,70.9550287 L253.919856,70.9550287 L250.937957,70.9550287 Z" id="Fill-21845" fill="#1A1919"></path>
            <path d="M276.099828,56.180461 L272.60843,56.180461 L272.60843,70.8158771 L276.099828,70.8158771 C278.896503,70.8158771 282.3879,69.0043722 282.3879,63.5695758 C282.3879,57.9919659 278.896503,56.180461 276.099828,56.180461 M276.099828,52 L268,52 L268,75 L276.099828,75 C282.248165,75 287,70.9550287 287,63.5695758 C287,55.7624431 281.550055,52 276.099828,52" id="Fill-21846" fill="#1A1919"></path>
            <path d="M291,71.6720202 L294.430641,68.463749 C298.85639,71.3928685 302.429602,71.6720202 303.28618,71.6720202 C304.571336,71.6720202 305.856203,70.5559772 305.856203,69.0214886 C305.856203,67.6265758 304.713906,66.7896845 304.000188,66.6503906 C303.28618,66.3712389 299.998687,65.8132174 298.570961,65.5343476 C297.286094,65.2554779 292.998874,63.999859 292.998874,58.834988 C292.998874,53.8133584 296.714945,52 300.855265,52 C305.142484,52 308.283366,53.2553369 311,55.6267168 L307.712218,58.6954121 C305.999062,57.4400752 303.857328,56.3240322 300.569835,56.3240322 C298.71382,56.3240322 298.285242,58.1373906 298.285242,58.6954121 C298.285242,59.2534336 298.71382,60.6483464 299.998687,60.9272161 C301.283554,61.066792 304.571336,61.9036833 304.999625,62.0432591 C306.427351,62.182835 311,63.999859 311,68.7426188 C311,73.066933 308.140507,76 302.715321,76 C297.143234,76 292.856015,73.4853786 291,71.6720202" id="Fill-21847" fill="#1A1919"></path>
            <path d="M158.151905,119.284016 L164.799429,119.284016 C164.799429,117.712824 163.553578,115.856091 161.477626,115.856091 C159.401393,115.856091 158.151905,117.570198 158.151905,119.284016 M158.151905,122.569027 L168.955251,122.569027 C169.232231,120.56938 168.401571,112 161.339135,112 C155.245571,112 154,118.855562 154,120.997835 C154,123.144438 155.107081,130 161.892816,130 C165.768021,130 167.70968,127.714813 168.26336,127.143444 L165.62981,124.429802 C165.62981,124.429802 164.383959,126.14362 162.031306,126.14362 C159.539883,126.14362 158.151905,124.286887 158.151905,122.569027" id="Fill-21848" fill="#1A1919"></path>
            <path d="M152,129.432077 L151.571671,125.598953 C149.425984,126.166876 148.426453,125.598953 148.426453,124.747211 L148.426453,106 L144,106 L144,126.450981 C144,128.154464 145.284988,130 148.569037,130 C150.286683,130 152,129.432077 152,129.432077" id="Fill-21849" fill="#1A1919"></path>
            <path d="M141,129.006206 L140.132861,125.457187 C137.097875,126.308929 136.230736,125.457187 136.230736,124.747211 L136.230736,116.367256 L140.711051,116.367256 L140.711051,112.676185 L136.230736,112.676185 L136.230736,106 L131.746038,107.277612 L131.746038,112.676185 L129,112.676185 L129,116.367256 L131.746038,116.367256 L131.746038,126.308929 C131.746038,128.296517 133.050836,130 136.375064,130 C138.832153,130 140.422102,129.290024 141,129.006206" id="Fill-21850" fill="#1A1919"></path>
            <polyline id="Fill-21851" fill="#1A1919" points="125.223082 129 127 129 121.391835 120.456053 126.453192 113 121.528606 113 118.931614 116.795848 116.330754 113 111.546808 113 116.471117 120.456053 111 129 115.647176 129 118.931614 124.119819 122.212185 129 123.715561 129"></polyline>
            <path d="M180.344586,132.257906 L187,113 L182.325704,113 L179.070662,123.188942 L175.674296,113 L171,113 L176.664712,128.909539 C176.947933,130.025568 176.523387,131.281205 174.255042,131.002269 L172.698183,130.862659 L172.273638,134.490245 L174.821199,134.91274 C177.938635,135.331286 179.636819,134.211309 180.344586,132.257906" id="Fill-21852" fill="#1A1919"></path>
            <path d="M96.5055559,121.774568 L94.5201076,121.774568 L97.4979933,112.717043 L100.480179,121.774568 L98.4907175,121.774568 L96.5055559,121.774568 Z M95.938244,125.819539 L93.1019712,125.819539 L91.8257344,130 L87,130 L94.5201076,107 L100.338279,107 L108,130 L103.174552,130 L101.756416,125.819539 L98.9201431,125.819539 L95.938244,125.819539 Z" id="Fill-21853" fill="#1A1919"></path>
            <path d="M211.55339,111.180461 L206.705493,111.180461 L206.705493,116.340053 L211.830365,116.340053 C213.768069,116.340053 214.598433,115.085999 214.598433,113.692512 C214.598433,112.438458 213.491094,111.180461 211.55339,111.180461 M212.10706,119.823911 L206.705493,119.823911 L206.705493,125.819539 L212.384034,125.819539 C214.598433,125.819539 215.428798,124.147467 215.428798,122.88947 C215.428798,121.635416 214.736641,119.823911 212.10706,119.823911 M216.674345,117.594388 C217.366502,117.176089 219.169356,115.504017 219.169356,112.856476 C219.169356,110.065559 216.95132,107 213.214399,107 L202,107 L202,130 L213.214399,130 C216.95132,130 220,126.934441 220,123.168055 C220,119.26646 217.089527,117.872973 216.674345,117.594388" id="Fill-21854" fill="#1A1919"></path>
            <path d="M231.998249,107 L236,107 L236,130 L231.598182,130 L231.598182,114.11053 L228,114.11053 L228,110.344425 L228.66624,110.344425 C229.599192,110.344425 231.465095,110.344425 231.998249,107" id="Fill-21855" fill="#1A1919"></path>
            <path d="M245.927665,115.373749 L241.005513,115.373749 C240.864904,111.114754 243.398131,106 250.424298,106 C257.454442,106 259,111.966496 259,114.096137 C259,116.225491 258.719067,120.342433 250.002756,125.741005 L258.719067,125.741005 L258.719067,130 L241.848596,130 L241.848596,125.59924 C249.299998,120.484485 254.081825,117.928974 254.081825,114.522007 C254.081825,112.534419 252.395374,110.401047 249.721823,110.401047 C247.19229,110.401047 245.927665,112.96029 245.927665,115.373749" id="Fill-21856" fill="#1A1919"></path>
            <path d="M277.907418,118.442119 C278.188716,118.442119 280.578336,117.326076 280.578336,113.69936 C280.578336,110.208271 277.345388,107 271.999858,107 C266.654612,107 263.421664,109.65025 263,113.978511 L267.919888,114.536533 C268.200903,112.444023 269.329224,111.184738 272.421806,111.184738 C275.373455,111.184738 275.795119,113.280914 275.795119,113.978511 C275.654754,116.07074 274.530127,116.768337 270.5945,116.768337 L270.5945,120.673924 C271.718843,120.673924 274.108463,120.673924 274.811141,121.092369 C276.076418,121.92926 276.076418,122.626858 276.076418,123.463749 C276.076418,124.025718 276.076418,126.675968 272.562171,126.675968 C269.048209,126.675968 268.200903,124.862609 267.919888,123.045303 L263,123.886142 C263.562314,127.791729 266.373597,131 272.421806,131 C278.469731,131 281,126.954838 281,123.746566 C281,120.534348 279.172694,118.581695 277.907418,118.442119" id="Fill-21857" fill="#1A1919"></path>
            <path d="M296.361631,119.684478 L296.361631,121.914001 L289.001052,121.914001 L296.361631,112.159592 L296.361631,114.807414 L296.361631,119.684478 Z M300.942352,119.405893 L300.942352,121.914001 L304,121.914001 L304,125.958972 L300.942352,125.958972 L300.942352,130 L296.361631,130 L296.361631,125.958972 L284,125.958972 L284,121.914001 L295.112421,107 L300.942352,107 L300.942352,114.249963 L300.942352,119.405893 Z" id="Fill-21858" fill="#1A1919"></path>
            <path d="M128.687384,270 C132.192126,270 135,272.773488 135,276.10145 L135,306.89855 C135,310.226512 132.192126,313 128.687384,313 L33.1726188,313 C29.8039066,313 27,310.226512 27,306.89855 L27,276.10145 C27,272.773488 29.8039066,270 33.1726188,270 L128.687384,270 Z" id="Fill-21859" fill="#FFFFFE"></path>
            <path d="M128.791326,272 C131.035895,272 133,273.810163 133,276.038035 L133,306.961965 C133,309.189837 131.035895,311 128.791326,311 L33.2126446,311 C30.9641048,311 29,309.189837 29,306.961965 L29,276.038035 C29,273.810163 30.9641048,272 33.2126446,272 L128.791326,272 Z" id="Fill-21860" fill="#0070AC"></path>
            <polyline id="Fill-21861" fill="#FFFFFE" points="76 294.35655 76 303 72.0992289 303 72.0992289 285.713099 64.9978901 294.914001 57.9004898 285.713099 57.9004898 303 54 303 54 280 58.4572203 280 64.9978901 288.500073 71.5427797 280 76 280 76 285.713099"></polyline>
            <path d="M115,303.818147 L116.8128,307 C122.378618,303.956573 126,298.003951 126,291.501818 C126,284.996049 122.517567,279.324195 116.95203,276 L115.13923,279.324195 C120.013118,282.506049 121.82198,287.762902 121.82198,291.501818 C121.82198,295.237098 120.291296,300.217378 115,303.818147" id="Fill-21862" fill="#FFFFFE"></path>
            <path d="M46,303.818147 L44.1673316,307 C38.5242746,303.956573 35,298.003951 35,291.501818 C35,284.996049 38.3832124,279.324195 44.0262694,276 L46,279.324195 C40.9248964,282.506049 39.0882383,287.762902 39.0882383,291.501818 C39.0882383,295.237098 40.642772,300.217378 46,303.818147" id="Fill-21863" fill="#FFFFFE"></path>
            <path d="M91.4302053,280 L95,280 L95,303 L90.9981239,303 L90.9981239,286.829173 L87,286.829173 L87,283.763088 L89.1419346,283.623631 C91.1407079,283.344717 91.4302053,281.811816 91.4302053,280" id="Fill-21864" fill="#FFFFFE"></path>
            <path d="M104.350947,280 L108,280 L108,303 L104.070076,303 L104.070076,286.829173 L100,286.829173 L100,283.763088 L102.245549,283.623631 C104.070076,283.344717 104.350947,281.811816 104.350947,280" id="Fill-21865" fill="#FFFFFE"></path>
            <polyline id="Fill-21866" fill="#FFFFFE" points="34.958036 339.085999 34.958036 331 31 331 31 354 44 354 44 350.37699 34.958036 350.37699 34.958036 342.012406"></polyline>
            <path d="M56.4766128,347.185042 L56.4766128,350.2 C55.9107424,351.3 54.4954942,352.122161 52.9386354,352.122161 C52.6557002,352.122161 49.8252038,351.985042 49.8252038,349.651801 C49.8252038,347.45928 53.2215706,347.45928 56.4766128,347.185042 M60.160206,355 L62,352.396399 C61.0092977,351.985042 60.3018166,351.71108 60.3018166,350.614958 L60.3018166,342.662881 C60.3018166,340.333518 58.4620226,338 53.3631812,338 C49.8252038,338 47.5568588,339.374238 46.7077671,339.648199 L48.1230153,342.38892 C49.8252038,341.84072 51.5233872,341.155679 53.7877271,341.155679 C55.9107424,341.155679 56.4766128,342.526039 56.4766128,343.074238 L56.4766128,344.307479 C54.0709484,344.58144 52.0895437,344.71856 50.9572307,344.855679 C49.8252038,345.12964 46,345.951801 46,349.651801 C46,353.492521 49.9665284,355 52.5140895,355 C55.2029753,355 56.6182234,353.903601 57.0467744,353.355402 C58.1790874,354.58892 59.1695036,355 60.160206,355" id="Fill-21867" fill="#FFFFFE"></path>
            <path d="M77.4188482,339.232411 C77.7008032,338.953677 79.1111483,337.139367 82.3549135,337.139367 C86.025745,337.139367 88,339.928685 88,342.575257 L88,354 L84.1923249,354 L84.1923249,343.27153 C84.1923249,341.739334 83.0639348,340.62524 81.5087634,340.62524 C80.0984184,340.62524 78.5469532,341.878702 78.5469532,343.410898 L78.5469532,354 L74.5981581,354 L74.5981581,343.410898 C74.5981581,341.600248 73.3249417,340.62524 72.0554316,340.62524 C70.6450865,340.62524 68.9527865,341.600248 68.9527865,343.410898 L68.9527865,354 L65,354 L65,337.696274 L68.8116664,337.696274 L68.8116664,338.953677 C69.2347414,338.532196 70.6450865,337 73.0427017,337 C75.3031881,337 76.5724131,338.39677 77.4188482,339.232411" id="Fill-21868" fill="#FFFFFE"></path>
            <path d="M159,342.480822 L159,354 L155.218357,354 L155.218357,342.761576 C155.218357,341.357235 153.81912,340.655206 152.55961,340.655206 C151.160373,340.655206 148.777966,341.637989 148.777966,344.165918 L148.777966,354 L145,354 L145,337.56151 L148.777966,337.56151 L148.777966,338.404342 C148.777966,338.404342 150.600905,337 153.119361,337 C156.197568,337 159,339.110345 159,342.480822" id="Fill-21869" fill="#FFFFFE"></path>
            <path d="M132.998082,351.458077 C135.848531,351.458077 137.204152,348.620931 137.204152,345.929265 C137.204152,343.095841 135.71316,340.545645 132.998082,340.545645 C130.422484,340.545645 128.931219,343.095841 128.931219,345.929265 C128.931219,348.620931 130.151469,351.458077 132.998082,351.458077 M132.998082,355 C137.746455,355 141,350.749865 141,345.929265 C141,340.687403 137.339796,337 132.998082,337 C128.660204,337 125,340.687403 125,345.929265 C125,350.749865 128.253545,355 132.998082,355" id="Fill-21870" fill="#FFFFFE"></path>
            <path d="M95.8552513,343.963525 L95.8552513,347.164906 C95.8552513,349.531193 97.8543132,351.066044 99.7145434,351.066044 C101.570733,351.066044 104.140708,349.670188 104.140708,345.772989 C104.140708,341.875508 101.42786,340.344596 99.8571274,340.344596 C98.2826424,340.344596 95.8552513,341.736514 95.8552513,343.963525 M95.8552513,352.875508 L95.8552513,359 L92,359 L92,337.417547 L95.8552513,337.417547 L95.8552513,338.535132 C97.1402388,337.696099 98.568099,337 100.428329,337 C103.141177,337 108,338.813403 108,345.633713 C108,352.597237 103.141177,354.406702 100.285457,354.406702 C97.2831114,354.406702 95.8552513,352.875508 95.8552513,352.875508" id="Fill-21871" fill="#FFFFFE"></path>
            <path d="M122,353.58699 L121.421824,350.420392 L121.421824,350.416495 C119.687296,350.554258 117.085942,351.108649 117.085942,349.314949 L117.085942,340.641453 L121.277207,340.641453 L121.277207,337.470959 L117.085942,337.470959 L117.085942,331 L113.324147,332.376794 L113.324147,337.470959 L110,337.470959 L110,340.641453 L113.324147,340.641453 L113.324147,350.282629 C113.324147,352.485443 114.914058,354 117.519501,354 C120.121147,354 122,353.58699 122,353.58699" id="Fill-21872" fill="#FFFFFE"></path>
            <path d="M41.9031241,379.793723 L34.1008885,379.793723 L37.9292061,368.15527 L41.9031241,379.793723 Z M38.0710805,382.979403 L33.1083405,382.979403 L31.8323302,387 L28,387 L35.5187733,364 L40.4852393,364 L48,387 L44.1716824,387 L42.7537976,382.979403 L38.0710805,382.979403 Z" id="Fill-21873" fill="#FBD033"></path>
            <path d="M59.4303651,364 L63,364 L63,387 L59.0020205,387 L59.0020205,370.786858 L55,370.786858 L55,367.878364 L57.1457642,367.601178 C59.1448983,367.462865 59.4303651,365.939182 59.4303651,364" id="Fill-21874" fill="#FBD033"></path>
            <path d="M72.3486583,364 L76,364 L76,387 L71.9278296,387 L71.9278296,370.786858 L68,370.786858 L68,367.878364 L70.1041438,367.601178 C72.0682003,367.462865 72.3486583,365.939182 72.3486583,364" id="Fill-21875" fill="#FBD033"></path>
            <polyline id="Fill-21876" fill="#FFFFFE" points="240.20488 315 241.981798 315 241.981798 295.623587 248 295.623587 248 292 232 292 232 295.623587 238.017925 295.623587 238.017925 315 239.658072 315"></polyline>
            <path d="M332.855177,305.370796 L325.140783,305.370796 C325.140783,303.387342 326.568668,301.400165 329.000144,301.400165 C331.427291,301.400165 332.855177,303.670856 332.855177,305.370796 M333.854726,310.754415 L336.286201,313.446081 C335.282611,314.296051 333.283513,316 329.000144,316 C324.855321,316 321,312.879339 321,307.070735 C321,301.116938 324.855321,298 329.000144,298 C333.283513,298 337,301.683393 337,306.362523 L337,308.204219 L324.997907,308.204219 C324.997907,310.612658 327.139881,312.312597 329.285606,312.312597 C331.570166,312.312597 332.855177,311.462628 333.854726,310.754415" id="Fill-21877" fill="#FFFFFE"></path>
            <path d="M319,315.574129 L318.551914,312.304911 C318.551914,312.304911 317.367194,312.446963 316.478804,312.446963 C315.442249,312.446963 314.84989,311.737274 314.84989,311.027298 L314.84989,292 L311,292 L311,312.446963 C311,314.71837 312.777079,316 315.73828,316 C317.071164,316 319,315.574129 319,315.574129" id="Fill-21878" fill="#FFFFFE"></path>
            <polyline id="Fill-21879" fill="#FFFFFE" points="278.558559 299 280.228751 299 282.594645 309.575161 284.964196 299 289 299 284.824943 315 280.924453 315 278.00211 304.560453 275.2148 315 271.178996 315 267 299 271.039743 299 273.405637 309.575161 275.771531 299 277.027902 299"></polyline>
            <path d="M346.47177,318.639072 L353,299 L348.831743,299 L345.5,310.361948 L342.164328,299 L338,299 L343.552531,315.834584 C344.111797,317.657473 342.303233,318.218427 339.526827,317.517164 L338.832866,320.602271 C343.833988,321.443561 345.638904,321.022916 346.47177,318.639072" id="Fill-21880" fill="#FFFFFE"></path>
            <path d="M256.931614,312.454355 C259.80574,312.454355 261.036127,309.479174 261.036127,306.929265 C261.036127,304.095841 259.532474,301.541923 256.931614,301.541923 C254.334623,301.541923 252.83097,304.095841 252.83097,306.929265 C252.83097,309.479174 254.061081,312.454355 256.931614,312.454355 M256.931614,316 C261.582658,316 265,311.745855 265,306.929265 C265,301.683393 261.309393,298 256.931614,298 C252.694199,298 249,301.683393 249,306.929265 C249,311.745855 252.284163,316 256.931614,316" id="Fill-21881" fill="#FFFFFE"></path>
            <path d="M307,303.340302 L307,315 L303.222034,315 L303.222034,303.761576 C303.222034,302.357235 301.822797,301.651232 300.55961,301.651232 C299.160373,301.651232 296.781643,302.638273 296.781643,305.025399 L296.781643,314.99631 L293,314.99631 L293,298.421274 L296.781643,298.421274 L296.781643,299.404342 C296.781643,299.404342 298.600905,298 301.259369,298 C304.201527,298 307,300.106371 307,303.340302" id="Fill-21882" fill="#FFFFFE"></path>
            <path d="M245.900248,340.65905 L238.241314,340.65905 L242.068918,329.15891 L245.900248,340.65905 Z M242.068918,343.983323 L237.107389,343.983323 L235.83133,348 L232,348 L239.517086,325 L244.482914,325 L252,348 L248.16867,348 L246.892611,343.983323 L242.068918,343.983323 Z" id="Fill-21883" fill="#FBD033"></path>
            <path d="M264.350947,325 L268,325 L268,348 L264.070076,348 L264.070076,331.831945 L260,331.831945 L260,328.766105 L262.245549,328.626953 C264.070076,328.48752 264.350947,326.815448 264.350947,325" id="Fill-21884" fill="#FBD033"></path>
            <path d="M277.430205,325 L281,325 L281,348 L277.001876,348 L277.001876,331.831945 L273,331.831945 L273,328.766105 L275.141646,328.626953 C277.144749,328.48752 277.430205,326.815448 277.430205,325" id="Fill-21885" fill="#FBD033"></path>
            <polygon id="Fill-21886" fill="#1A1919" points="314.346458 249 337.606231 249 350 236.570501 337.606231 224 300 224"></polygon>
            <path d="M204.279651,253.433534 L204.279651,253.433534 C204.279651,251.200944 206.094016,249.386946 208.327059,249.386946 L220.756206,249.386946 L235,224.541302 L208.327059,224.541302 C206.094016,224.541302 204.279651,222.727305 204.279651,220.494714 L204.279651,146.232801 L196.041233,138 L187.803097,146.232801 L187.803097,220.494714 C187.803097,222.727305 185.849078,224.541302 183.616036,224.541302 L80.285826,224.541302 L68,236.963983 L80.285826,249.386946 L183.616036,249.386946 C185.849078,249.386946 187.803097,251.200944 187.803097,253.433534 L187.803097,406 L204.279651,406 L204.279651,253.433534" id="Fill-21887" fill="#1A1919"></path>
            <path d="M307.952681,270 C310.048838,270 312.148667,268.751471 313.266373,266.948352 C314.244542,265.0028 314.244542,262.644811 313.266373,260.702904 L272.969082,191.209221 C271.893746,189.232828 269.813407,188 267.550596,188 C265.287503,188 263.211118,189.232828 262.135782,191.209221 L221.838491,260.702904 C220.720503,262.644811 220.720503,265.0028 221.838491,266.948352 C222.956197,268.751471 225.052354,270 227.152184,270" id="Fill-21888" fill="#D0383F"></path>
            <polyline id="Fill-21889" fill="#FFFFFE" points="231 262 304 262 267.498177 198"></polyline>
            <polygon id="Fill-21890" fill="#1A1919" points="292.284035 246 286 246 286 259 300 259"></polygon>
            <path d="M286,253.000135 C284.879814,253.000135 284.181919,253.400108 283.484306,253.800081 C282.647057,254.466613 281.25155,255 279.716406,255 C278.320898,255 276.925391,254.466613 276.084193,253.800081 C275.38658,253.400108 274.688685,253.000135 273.572448,253.000135 C272.595564,253.000135 271.758316,253.400108 271.200056,253.800081 C270.362808,254.466613 268.9673,255 267.42849,255 C266.032982,255 264.637474,254.466613 263.800226,253.800081 C263.102331,253.400108 262.265082,253.000135 261.288199,253.000135 C260.311315,253.000135 259.474067,253.400108 258.911858,253.800081 C258.074609,254.466613 256.679102,255 255.14424,255 C253.609097,255 252.353225,254.466613 251.515976,253.800081 C250.814132,253.400108 249.976884,253.000135 249,253.000135 L249,251 C250.535143,251 251.794965,251.666801 252.632213,252.200189 C253.330108,252.733306 254.167357,253.000135 255.14424,253.000135 C256.121124,253.000135 256.958372,252.733306 257.655985,252.200189 C258.493234,251.666801 259.753055,251 261.288199,251 C262.823342,251 264.21885,251.666801 265.056098,252.200189 C265.614358,252.733306 266.451606,253.000135 267.42849,253.000135 C268.409041,253.000135 269.246289,252.733306 269.944184,252.200189 C270.781432,251.666801 272.17694,251 273.572448,251 C275.107591,251 276.502817,251.666801 277.344015,252.200189 C278.04191,252.733306 278.739523,253.000135 279.716406,253.000135 C280.832925,253.000135 281.530538,252.733306 282.228433,252.200189 C283.065682,251.666801 284.46119,251 286,251" id="Fill-21891" fill="#1A1919"></path>
            <path d="M286,257.070752 C284.879814,257.070752 284.181919,257.346518 283.484306,257.897493 C282.647057,258.448747 281.25155,259 279.716406,259 C278.320898,259 276.925391,258.448747 276.084193,257.897493 C275.38658,257.346518 274.688685,257.070752 273.572448,257.070752 C272.595564,257.070752 271.758316,257.346518 271.200056,257.897493 C270.362808,258.448747 268.9673,259 267.42849,259 C266.032982,259 264.637474,258.448747 263.800226,257.897493 C263.102331,257.346518 262.265082,257.070752 261.288199,257.070752 C260.311315,257.070752 259.474067,257.346518 258.911858,257.897493 C258.074609,258.448747 256.679102,259 255.14424,259 C253.609097,259 252.353225,258.448747 251.515976,257.897493 C250.814132,257.346518 249.976884,257.070752 249,257.070752 L249,255 C250.535143,255 251.794965,255.555153 252.632213,256.244011 C253.330108,256.657382 254.167357,257.070752 255.14424,257.070752 C256.121124,257.070752 256.958372,256.657382 257.655985,256.244011 C258.493234,255.555153 259.753055,255 261.288199,255 C262.823342,255 264.21885,255.555153 265.056098,256.244011 C265.614358,256.657382 266.451606,257.070752 267.42849,257.070752 C268.409041,257.070752 269.246289,256.657382 269.944184,256.244011 C270.781432,255.555153 272.17694,255 273.572448,255 C275.107591,255 276.502817,255.555153 277.344015,256.244011 C278.04191,256.657382 278.739523,257.070752 279.716406,257.070752 C280.832925,257.070752 281.530538,256.657382 282.228433,256.244011 C283.065682,255.555153 284.46119,255 286,255" id="Fill-21892" fill="#1A1919"></path>
            <polygon id="Fill-21893" fill="#1A1919" points="242.716124 246 249 246 249 259 235 259"></polygon>
            <polygon id="Fill-21894" fill="#1A1919" points="245 242.108554 248.90532 246 275 219.891446 271.094398 216"></polygon>
        </g>
    </g>
</svg>