<?xml version="1.0" encoding="UTF-8"?>
<svg width="470px" height="300px" viewBox="0 0 470 300" version="1.1" xmlns="http://www.w3.org/2000/svg" xmlns:xlink="http://www.w3.org/1999/xlink">
    <!-- Generator: Sketch 61.2 (89653) - https://sketch.com -->
    <title>direction-sign-blue-approach-to-junction</title>
    <desc>Created with Sketch.</desc>
    <g id="direction-sign-blue-approach-to-junction" stroke="none" stroke-width="1" fill="none" fill-rule="evenodd">
        <g id="Group" transform="translate(5.000000, 5.000000)">
            <path d="M437.26911,8.52651283e-13 C449.38911,8.52651283e-13 459.29011,9.901 459.29011,22.021 L459.29011,264.504 C459.29011,276.624 449.38911,286.525 437.26911,286.525 L22.02761,286.525 C9.90111004,286.525 0.000110040001,276.624 0.000110040001,264.504 L0.000110040001,22.021 C0.000110040001,9.901 9.90111004,8.52651283e-13 22.02761,8.52651283e-13 L437.26911,8.52651283e-13 Z" id="Fill-15" fill="#FFFFFE"></path>
            <path d="M437.268908,0.00119948 C449.388929,0.00119948 459.289694,9.90196464 459.289694,22.0219853 L459.289694,264.504847 C459.289694,276.624868 449.388929,286.525633 437.268908,286.525633 L22.0276566,286.525633 C9.90076516,286.525633 1.03028697e-12,276.624868 1.03028697e-12,264.504847 L1.03028697e-12,22.0219853 C1.03028697e-12,9.90196464 9.90076516,0.00119948 22.0276566,0.00119948 L437.268908,0.00119948 Z" id="Stroke-17" stroke="#0070AD" stroke-width="0.425"></path>
            <path d="M437.26911,10.8905 C443.20561,10.8905 448.39961,15.8375 448.39961,21.7735 L448.39961,264.9985 C448.39961,271.1825 443.20561,276.1295 437.26911,276.1295 L21.78061,276.1295 C15.83711,276.1295 10.89011,271.1825 10.89011,264.9985 L10.89011,21.7735 C10.89011,15.8375 15.83711,10.8905 21.78061,10.8905 L437.26911,10.8905" id="Fill-18" fill="#0070AD"></path>
            <path d="M35.14411,258.066 C31.92861,258.066 29.20061,255.3455 29.20061,252.1295 L29.20061,205.3675 C29.20061,202.2275 31.75011,199.6715 34.89661,199.6715 C34.97911,199.6715 35.06161,199.6785 35.14411,199.6785 L104.92361,199.6715 C108.14611,199.6715 110.86661,202.152 110.86661,205.3675 L110.86661,252.1295 C110.86661,255.3455 108.14611,258.066 104.92361,258.066" id="Fill-19" fill="#FFFFFE"></path>
            <path d="M35.14411,255.098 C33.41261,255.098 32.17611,253.861 32.17611,252.1295 L32.17611,205.3675 C32.17611,203.725 33.39211,202.399 34.89661,202.399 C34.97911,202.399 35.06161,202.399 35.14411,202.406 L104.92361,202.399 C106.66161,202.399 107.89861,203.8835 107.89861,205.3675 L107.89861,252.1295 C107.89861,253.861 106.66161,255.098 104.92361,255.098" id="Fill-20" fill="#1A1919"></path>
            <path d="M62.11861,234.314 L53.45461,241.2395 L66.57111,241.2395 L66.57111,246.441 L44.79061,246.441 L44.79061,241.487 L56.91761,232.0875 C60.38061,229.1195 61.12911,225.904 61.12911,224.1725 C61.12911,222.441 60.38061,218.2295 55.43361,218.2295 C50.48661,218.2295 49.74461,223.183 49.74461,225.162 L44.29611,225.162 C44.29611,218.477 47.76561,213.035 55.68061,213.035 C64.59211,213.035 67.06561,219.961 67.06561,223.9255 C67.06561,226.8935 65.33411,231.8405 62.11861,234.314" id="Fill-21" fill="#FFFFFE"></path>
            <path d="M77.21361,236.7875 L72.01261,238.2715 C73.24911,242.978 76.96661,247.183 83.64461,247.183 C86.36561,247.183 96.01911,245.6985 96.01911,235.3035 C96.01911,224.6675 86.86011,223.4305 84.88161,223.4305 C82.90261,223.4305 80.42911,224.1725 78.94511,225.162 L80.18211,218.724 L94.04011,218.724 L94.04011,213.53 L74.98061,213.53 L72.26011,230.6035 L78.20311,231.3455 C78.94511,229.6145 80.92411,228.3775 83.64461,228.3775 C86.86011,228.3775 90.32311,230.3565 90.32311,235.3035 C90.32311,240.25 87.10761,241.9815 83.64461,241.9815 C80.42911,241.9815 78.20311,239.7555 77.21361,236.7875" id="Fill-22" fill="#FFFFFE"></path>
            <path d="M331.35661,224.6675 C332.09861,223.9255 334.32461,220.71 340.01361,220.71 C346.45161,220.71 349.91411,225.6565 349.91411,230.6035 L349.91411,250.893 L343.22911,250.893 L343.22911,231.593 C343.22911,229.1195 341.49761,227.141 338.77661,227.141 C336.05611,227.141 333.33511,229.367 333.33511,232.0875 L333.33511,250.893 L326.65011,250.893 L326.65011,232.0875 C326.65011,228.872 324.42361,227.141 321.95011,227.141 C319.72411,227.141 316.75611,228.872 316.75611,232.0875 L316.75611,250.893 L309.82361,250.893 L309.82361,221.699 L316.50861,221.699 L316.50861,224.1725 C317.00311,223.4305 319.72411,220.71 323.92911,220.71 C327.88661,220.71 330.11261,223.183 331.35661,224.6675" id="Fill-23" fill="#FFFFFE"></path>
            <path d="M290.77061,243.9675 L283.34361,250.3985 L294.48111,250.3985 L294.48111,254.603 L275.67561,254.603 L275.67561,250.3985 L286.07111,242.483 C288.29711,240.4975 289.78161,237.7765 289.78161,235.5505 C289.78161,233.3245 288.79211,230.6035 285.07511,230.6035 C281.61211,230.6035 279.88061,233.077 279.88061,236.54 L275.18111,236.54 C275.18111,230.109 279.13861,226.1515 285.32211,226.1515 C291.51261,226.1515 294.97561,230.3565 294.97561,235.5505 C294.97561,239.261 292.50211,242.7305 290.77061,243.9675" id="Fill-24" fill="#FFFFFE"></path>
            <path d="M262.06461,213.2825 L262.06461,216.9925 L267.01161,216.9925 L267.01161,236.54 L271.71811,236.54 L271.71811,208.83 L267.25911,208.83 C267.25911,213.53 265.77511,213.035 262.06461,213.2825" id="Fill-25" fill="#FFFFFE"></path>
            <polyline id="Fill-26" fill="#FFFFFE" points="70.52861 53.448 70.52861 32.169 63.60261 32.169 63.60261 61.6105 44.29611 32.169 36.13361 32.169 36.13361 72.995 43.05911 72.995 43.05911 43.3 62.36611 72.995 70.52861 72.995 70.52861 60.8685"></polyline>
            <path d="M295.22311,60.1265 L295.22311,65.568 C294.23361,67.5465 291.76011,69.031 289.28661,69.031 C288.54461,69.031 283.83811,68.536 283.83811,64.5785 C283.83811,60.3735 289.78161,60.3735 295.22311,60.1265 M301.66111,74.232 L304.87661,69.5255 C302.89761,68.536 302.15561,68.289 302.15561,66.31 L302.15561,51.964 C301.90811,47.5045 298.68611,43.547 290.02861,43.547 C283.83811,43.547 279.63311,45.7735 278.39661,46.268 L280.87011,51.469 C283.59061,50.2255 286.56611,49.236 290.77061,49.236 C294.48111,49.236 295.22311,51.469 295.22311,52.4585 L295.22311,54.932 C291.01811,55.1795 287.55511,55.4265 285.57661,55.9215 C283.83811,56.416 277.15961,57.653 277.15961,64.5785 C277.15961,71.511 283.83811,73.9845 288.54461,73.9845 C292.99711,73.9845 295.47061,72.2465 296.21261,71.257 C298.19111,73.2425 299.92261,73.9845 301.66111,74.232" id="Fill-27" fill="#FFFFFE"></path>
            <path d="M237.31611,75.2215 L237.31611,43.7945 L230.63761,43.7945 L230.63761,45.526 C228.16461,43.7945 226.18561,43.0525 223.21061,43.0525 C220.24261,43.0525 216.53211,44.289 214.30611,47.01 C212.08011,49.4835 210.58911,53.2005 210.58911,56.911 C210.58911,60.8685 212.57461,66.5575 216.03761,68.7835 C219.50011,71.0095 222.46861,71.0095 223.45811,71.0095 C224.44711,71.0095 227.91711,71.0095 230.63761,69.031 L230.63761,72.5005 C230.63761,74.7265 229.15361,76.953 223.70511,76.953 C218.26361,76.953 216.03761,75.4685 214.80061,74.974 L212.08011,80.4155 C213.56411,81.1575 217.02711,83.384 224.20011,83.384 C232.12211,83.384 237.31611,80.1685 237.31611,75.2215 M230.88511,57.158 C230.88511,54.6845 229.64861,49.4835 224.20011,49.4835 C218.75811,49.4835 217.52161,54.6845 217.52161,57.158 C217.52161,60.621 219.50011,64.826 224.20011,64.826 C228.90661,64.826 230.88511,60.8685 230.88511,57.158" id="Fill-28" fill="#FFFFFE"></path>
            <path d="M203.91061,52.4585 L203.91061,72.995 L197.23211,72.995 L197.23211,53.2005 C197.23211,50.72 194.75211,49.4835 192.52561,49.4835 C190.29961,49.4835 186.09461,51.222 186.09461,55.4265 L186.09461,72.995 L179.40961,72.995 L179.40961,43.7945 L186.09461,43.7945 L186.09461,45.526 C186.09461,45.526 189.06311,43.0525 193.76261,43.0525 C198.96361,43.0525 203.91061,46.7625 203.91061,52.4585" id="Fill-29" fill="#FFFFFE"></path>
            <path d="M95.02961,68.0415 C100.22411,68.0415 102.45011,62.847 102.45011,58.395 C102.45011,53.448 99.97661,48.989 95.02961,48.989 C90.32311,48.989 87.60211,53.448 87.60211,58.395 C87.60211,62.847 89.82861,68.0415 95.02961,68.0415 M95.02961,74.232 C103.68661,74.232 109.63011,66.8045 109.63011,58.395 C109.63011,49.236 102.94461,42.805 95.02961,42.805 C87.35511,42.805 80.42911,49.236 80.42911,58.395 C80.42911,66.8045 86.61311,74.232 95.02961,74.232" id="Fill-30" fill="#FFFFFE"></path>
            <path d="M134.37161,72.5005 L133.62961,66.8045 C130.41411,67.2995 125.96161,68.289 125.96161,64.826 L125.96161,49.4835 L133.38211,49.4835 L133.38211,43.7945 L125.96161,43.7945 L125.96161,32.169 L119.52411,34.6425 L119.52411,43.7945 L114.08211,43.7945 L114.08211,49.4835 L119.52411,49.4835 L119.52411,66.5575 C119.52411,70.762 122.25161,73.2425 126.70361,73.2425 C131.15611,73.2425 134.37161,72.5005 134.37161,72.5005" id="Fill-31" fill="#FFFFFE"></path>
            <path d="M251.66911,46.0205 L251.66911,32.169 L245.23811,32.169 L245.23811,72.995 L251.66911,72.995 L251.66911,55.1795 C251.66911,51.7165 255.13211,49.236 258.10711,49.236 C261.07511,49.236 263.30161,51.964 263.30161,54.932 L263.30161,72.995 L269.48511,72.995 L269.48511,51.222 C269.48511,45.7735 263.54861,42.805 259.34411,42.805 C256.12861,42.805 253.64811,44.289 251.66911,46.0205" id="Fill-32" fill="#FFFFFE"></path>
            <polygon id="Fill-33" fill="#FFFFFE" points="163.81961 72.9885 170.74534 72.9885 170.74534 43.79463 163.81961 43.79463"></polygon>
            <path d="M167.25511,32.1415 C169.44011,32.1415 171.21261,33.9145 171.21261,36.099 C171.21261,38.284 169.44011,40.057 167.25511,40.057 C165.07011,40.057 163.29761,38.284 163.29761,36.099 C163.29761,33.9145 165.07011,32.1415 167.25511,32.1415" id="Fill-34" fill="#FFFFFE"></path>
            <path d="M157.88311,72.5005 L157.14111,66.8045 C154.17311,67.2995 149.71411,68.289 149.71411,64.826 L149.71411,49.4835 L156.89411,49.4835 L156.89411,43.7945 L149.71411,43.7945 L149.71411,32.169 L143.03561,34.6425 L143.03561,43.7945 L137.59411,43.7945 L137.59411,49.4835 L143.03561,49.4835 L143.03561,66.5575 C143.03561,70.762 145.75661,73.2425 150.20861,73.2425 C154.66761,73.2425 157.88311,72.5005 157.88311,72.5005" id="Fill-35" fill="#FFFFFE"></path>
            <path d="M331.35661,46.7625 C332.09861,46.0205 334.32461,42.805 340.01361,42.805 C346.45161,42.805 349.91411,47.752 349.91411,52.706 L349.91411,72.995 L343.47661,72.995 L343.47661,53.6955 C343.47661,51.222 341.49761,49.236 338.77661,49.236 C336.05611,49.236 333.58261,51.469 333.58261,54.19 L333.58261,72.995 L326.65011,72.995 L326.65011,54.19 C326.65011,50.9675 324.42361,49.236 321.95011,49.236 C319.72411,49.236 316.75611,50.9675 316.75611,54.19 L316.75611,72.995 L309.82361,72.995 L309.82361,43.7945 L316.50861,43.7945 L316.50861,46.0205 C317.25061,45.526 319.72411,42.805 323.92911,42.805 C327.88661,42.805 330.11261,45.2785 331.35661,46.7625" id="Fill-36" fill="#FFFFFE"></path>
            <path d="M123.48811,152.6615 L123.48811,136.0895 C123.48811,126.1885 114.32961,122.973 110.61961,122.973 C107.15661,122.973 105.17111,124.21 103.93411,124.952 L103.93411,113.8145 L122.25161,113.8145 L122.25161,104.91 L95.02961,104.91 L95.02961,135.093 L103.93411,135.093 C103.93411,132.3725 106.41461,130.146 108.88811,130.146 C111.36161,130.146 114.32961,131.6305 114.32961,135.3405 L114.32961,150.683 C114.32961,153.8985 111.85611,155.877 109.13511,155.877 C106.41461,155.877 103.93411,153.8985 103.93411,150.683 L103.93411,146.2305 L94.28761,146.2305 L94.28761,152.4145 C94.28761,158.605 98.98711,164.7885 109.13511,164.7885 C119.27661,164.7885 123.48811,159.0995 123.48811,152.6615" id="Fill-37" fill="#FFFFFE"></path>
            <path d="M147.73511,149.446 L161.34611,135.588 C162.83011,134.104 165.55111,130.641 165.55111,125.694 L165.55111,115.8 C165.55111,106.394 158.13061,102.931 150.95761,102.931 C143.77761,102.931 137.09911,107.3835 137.09911,114.5565 L137.09911,124.457 L146.00361,124.457 L146.00361,117.284 C146.00361,113.8145 149.46661,112.3305 151.45211,112.3305 C153.43111,112.3305 156.15211,113.8145 156.15211,117.779 L156.15211,122.231 C156.15211,125.694 154.91511,128.415 153.18361,130.3935 L139.57261,144.252 C137.59411,146.2305 136.60461,148.704 136.60461,151.425 L136.60461,163.057 L165.55111,163.057 L165.55111,154.146 L146.00361,154.146 C146.00361,152.167 146.25111,151.1775 147.73511,149.446" id="Fill-38" fill="#FFFFFE"></path>
            <path d="M54.69161,104.91 L48.26011,104.91 L35.14411,163.057 L45.03811,163.057 L47.02361,152.6615 L62.36611,152.6615 L64.83961,163.057 L74.48611,163.057 L60.87511,104.91 L57.16461,104.91 L54.69161,104.91 Z M54.69161,115.8 L48.75511,144.7465 L60.62761,144.7465 L54.69161,115.8 Z" id="Fill-39" fill="#FFFFFE"></path>
            <path d="M383.32011,160.3365 C383.32011,164.0465 379.85711,167.5095 375.89961,167.5095 C374.65611,167.5095 373.41911,167.0145 372.18261,166.52 C333.58261,144.0045 294.97561,121.2415 256.37561,98.479 C248.20661,100.705 239.78961,102.931 231.38011,105.1575 C233.60611,113.3195 235.83211,121.489 238.05811,129.899 C285.07511,157.368 332.34561,184.8305 379.60961,212.5405 C381.83561,214.0245 383.32011,216.2505 383.32011,218.9715 L383.32011,265.4935 L419.19911,265.4935 L419.19911,116.7895 C413.26261,110.8465 407.32661,104.6625 401.13561,98.479 C395.44661,104.415 389.50361,110.599 383.56711,116.7895 C383.56711,131.1355 383.56711,145.736 383.32011,160.3365" id="Fill-40" fill="#FFFFFE"></path>
        </g>
    </g>
</svg>