<?xml version="1.0" encoding="UTF-8"?>
<svg width="2444px" height="420px" viewBox="0 0 2444 420" version="1.1" xmlns="http://www.w3.org/2000/svg" xmlns:xlink="http://www.w3.org/1999/xlink">
    <!-- Generator: Sketch 61.2 (89653) - https://sketch.com -->
    <title>direction-sign-blue-destination-leaving-motorway</title>
    <desc>Created with Sketch.</desc>
    <g id="direction-sign-blue-destination-leaving-motorway" stroke="none" stroke-width="1" fill="none" fill-rule="evenodd">
        <g id="Group">
            <polygon id="Fill-129" fill="#ABACAB" points="14.4869156 0 14.4869156 61.9669052 0 106.037269 17.9339249 205.870403 0.344909971 310.875273 26.9050681 353.903498 14.4869156 420 2428.47905 420 2442.96597 378.692208 2433.305 311.219638 2444 240.639435 2427.44502 189.694991 2443.65509 112.920394 2420.88615 45.1034586 2431.23694 0"></polygon>
            <path d="M293.478582,287.315914 C303.497771,287.315914 312.127712,295.911093 312.127712,305.891426 L312.127712,399.438275 C312.127712,409.409572 303.497771,418.004751 293.478582,418.004751 L68.6702939,418.004751 C58.6504076,418.004751 50.0204666,409.409572 50.0204666,399.438275 L50.0204666,305.891426 C50.0204666,295.911093 58.6504076,287.315914 68.6702939,287.315914 L293.478582,287.315914 Z" id="Fill-130" fill="#FFFFFE"></path>
            <path d="M293.478363,287.315914 C303.498193,287.315914 312.127712,295.911351 312.127712,305.891608 L312.127712,399.438608 C312.127712,409.409314 303.498193,418.004751 293.478363,418.004751 L68.6698152,418.004751 C58.6499852,418.004751 50.0204666,409.409314 50.0204666,399.438608 L50.0204666,305.891608 C50.0204666,295.911351 58.6499852,287.315914 68.6698152,287.315914 L293.478363,287.315914 Z" id="Stroke-131" stroke="#0070AD" stroke-width="0.425"></path>
            <path d="M293.802949,296.294537 C298.640568,296.294537 303.124028,300.748658 303.124028,305.554621 L303.124028,398.777423 C303.124028,403.574382 298.640568,408.028504 293.802949,408.028504 L143.366169,408.028504 C138.193215,408.028504 134.054851,403.574382 134.054851,398.777423 L134.054851,305.554621 C134.054851,300.748658 138.193215,296.294537 143.366169,296.294537 L293.802949,296.294537 Z" id="Fill-132" fill="#0070AD"></path>
            <path d="M60.02456,305.554621 L60.02456,305.554621 C60.02456,300.443914 64.1698773,296.294537 69.2747332,296.294537 L114.810961,296.294537 C119.944181,296.294537 124.050757,300.40582 124.050757,305.554621 L124.050757,398.777423 C124.050757,403.574382 119.944181,408.028504 114.810961,408.028504 L69.2747332,408.028504 C64.1318278,408.028504 60.02456,403.574382 60.02456,398.777423" id="Fill-133" fill="#1A1919"></path>
            <path d="M99.9013949,359.775015 L88.9830602,368.977581 L105.701976,368.977581 L105.701976,375.106888 L77.7136559,375.106888 L77.7136559,368.977581 L93.0772633,357.050725 C97.8542934,353.645707 98.5364307,349.219252 98.5364307,347.176379 C98.5364307,345.133506 97.5128799,339.685615 91.3715753,339.685615 C85.2199248,339.685615 84.196374,345.814234 84.196374,348.538524 L77.0315186,348.538524 C77.0315186,340.025635 81.807859,333.206651 91.712299,333.206651 C102.972047,333.206651 106.043389,341.728488 106.043389,346.835671 C106.043389,350.922106 103.995598,357.050725 99.9013949,359.775015" id="Fill-134" fill="#FFFFFE"></path>
            <path d="M196.460932,367.51529 L186.613097,375.522497 L201.380232,375.522497 L201.380232,381.092637 L176.423624,381.092637 L176.423624,375.870851 L190.126782,365.426575 C193.298828,362.980359 195.056026,359.498934 195.056026,356.713512 C195.056026,353.580441 193.65041,350.099016 189.072747,350.099016 C184.153446,350.099016 182.045378,353.232087 182.045378,357.757869 L176.072043,357.757869 C176.072043,349.402308 180.991343,344.180523 189.424329,344.180523 C197.514966,344.180523 202.082685,349.750662 202.082685,356.365159 C202.082685,361.239294 198.569,365.774929 196.460932,367.51529" id="Fill-135" fill="#FFFFFE"></path>
            <path d="M159.065084,327.161359 L159.065084,331.693038 L165.062488,331.693038 L165.062488,357.149644 L171.069996,357.149644 L171.069996,321.235154 L165.729315,321.235154 C165.729315,327.161359 163.730181,326.463744 159.065084,327.161359" id="Fill-136" fill="#FFFFFE"></path>
            <path d="M249.153685,342.40703 C249.83834,341.364492 252.91721,337.544662 260.110922,337.544662 C268.321933,337.544662 273.111748,343.795676 273.111748,350.047391 L273.111748,376.104513 L264.558409,376.104513 L264.558409,351.436739 C264.558409,348.31053 262.163502,345.532536 258.400669,345.532536 C254.979472,345.532536 251.89092,348.31053 251.89092,351.78355 L251.89092,376.104513 L242.653618,376.104513 L242.653618,351.78355 C242.653618,347.616207 239.916384,345.532536 236.837513,345.532536 C234.100971,345.532536 229.985437,347.616207 229.985437,351.78355 L229.985437,376.104513 L221.090463,376.104513 L221.090463,338.586498 L229.643801,338.586498 L229.643801,341.712004 C230.670091,340.670169 234.100971,337.19715 239.574748,337.19715 C244.363871,337.19715 247.443432,340.322656 249.153685,342.40703" id="Fill-137" fill="#FFFFFE"></path>
            <path d="M465.126793,418.004751 C449.946346,418.004751 437.178878,405.655638 437.178878,390.209713 L437.178878,241.286724 C437.178878,225.849813 449.946346,213.491686 465.126793,213.491686 L2381.70292,213.491686 C2397.21862,213.491686 2409.98608,225.849813 2409.98608,241.286724 L2409.98608,390.209713 C2409.98608,405.655638 2397.21862,418.004751 2381.70292,418.004751 L465.126793,418.004751 Z" id="Fill-138" fill="#FFFFFE"></path>
            <path d="M465.126637,418.004751 C449.945966,418.004751 437.178878,405.655641 437.178878,390.209726 L437.178878,241.286711 C437.178878,225.850324 449.945966,213.491686 465.126637,213.491686 L2381.7031,213.491686 C2397.21899,213.491686 2409.98608,225.850324 2409.98608,241.286711 L2409.98608,390.209726 C2409.98608,405.655641 2397.21899,418.004751 2381.7031,418.004751 L465.126637,418.004751 Z" id="Stroke-139" stroke="#0070AD" stroke-width="0.425"></path>
            <path d="M465.98416,404.038005 C458.390521,404.038005 452.185018,397.833777 452.185018,390.240845 L452.185018,240.59382 C452.185018,233.009947 458.390521,226.460808 465.98416,226.460808 L2382.19097,226.460808 C2389.77485,226.460808 2395.98035,233.009947 2395.98035,240.59382 L2395.98035,390.240845 C2395.98035,397.833777 2389.77485,404.038005 2382.19097,404.038005 L465.98416,404.038005 Z" id="Fill-140" fill="#0070AD"></path>
            <path d="M1200.75109,293.874108 L1188.22035,293.874108 L1188.22035,306.933651 L1200.75109,306.933651 C1203.88113,306.933651 1206.66387,303.833294 1206.66387,300.742656 C1206.66387,297.651324 1204.22915,293.874108 1200.75109,293.874108 M1202.14245,313.802198 L1188.22035,313.802198 L1188.22035,330.629931 L1202.14245,330.629931 C1207.01188,330.629931 1210.14193,325.478173 1210.14193,321.700958 C1210.14193,318.953262 1208.05523,313.802198 1202.14245,313.802198 M1203.88113,338.194774 L1178.48219,338.194774 L1178.48219,286.31829 L1200.75109,286.31829 C1208.75057,286.31829 1215.71654,291.470047 1215.71654,299.025172 C1215.71654,305.903438 1210.14193,309.680653 1208.40255,310.367925 C1214.67319,311.398137 1218.49857,316.206259 1218.49857,323.074807 C1218.49857,330.973567 1212.57665,338.194774 1203.88113,338.194774" id="Fill-141" fill="#FFFFFE"></path>
            <polyline id="Fill-142" fill="#FFFFFE" points="871.247478 306.247074 880.481106 306.247074 880.481106 286.31829 889.363897 286.31829 889.363897 338.194774 880.481106 338.194774 880.481106 314.488775 857.229906 314.488775 857.229906 338.194774 848.347114 338.194774 848.347114 286.31829 857.229906 286.31829 857.229906 306.247074 865.780507 306.247074"></polyline>
            <polyline id="Fill-143" fill="#FFFFFE" points="676.276709 313.458563 676.276709 286.31829 667.329688 286.31829 667.329688 323.761384 642.570425 286.31829 632.258698 286.31829 632.258698 338.194774 640.852036 338.194774 640.852036 300.39902 665.611298 338.194774 676.276709 338.194774 676.276709 322.731171"></polyline>
            <path d="M716.297927,285.320665 C729.651992,285.320665 741.303316,296.227986 741.303316,311.915485 C741.303316,327.594026 730.33655,339.192399 716.297927,339.192399 C702.249614,339.192399 691.282849,327.594026 691.282849,311.915485 C691.282849,296.227986 702.591547,285.320665 716.297927,285.320665 M716.297927,293.500984 C726.912378,293.500984 732.048982,303.726209 732.048982,312.256532 C732.048982,320.43685 726.912378,331.343482 716.297927,331.343482 C705.673095,331.343482 700.537182,320.43685 700.537182,312.256532 C700.537182,303.726209 705.673095,293.500984 716.297927,293.500984" id="Fill-144" fill="#FFFFFE"></path>
            <path d="M773.171974,294.21705 L762.559892,294.21705 L762.559892,310.024289 L772.829448,310.024289 C777.631733,310.024289 780.712392,305.903438 780.712392,301.772868 C780.712392,297.994959 777.289207,294.21705 773.171974,294.21705 M774.541387,286.31829 L753.308228,286.31829 L753.308228,338.194774 L762.559892,338.194774 L762.559892,317.923049 L771.802562,317.923049 L781.396753,338.194774 L791.323782,338.194774 L780.369866,316.549201 C783.450525,314.832411 789.955062,310.71156 789.955062,301.772868 C789.955062,293.186837 782.423639,286.31829 774.541387,286.31829" id="Fill-145" fill="#FFFFFE"></path>
            <path d="M1088.42148,293.500984 L1081.2418,298.954299 C1078.16825,295.886938 1074.75372,292.819577 1068.94966,292.819577 C1063.13524,292.819577 1059.03809,296.227986 1059.03809,299.976753 C1059.03809,305.098667 1062.79358,306.12181 1070.65657,307.484622 C1075.77801,308.507076 1079.87585,308.848123 1083.973,311.915485 C1087.38752,314.642487 1089.44576,318.732302 1089.44576,323.163164 C1089.44576,327.935074 1086.36324,339.192399 1069.29063,339.192399 C1056.30619,339.192399 1049.81881,332.024889 1047.42857,329.298575 L1055.2819,323.504212 C1058.69643,328.61648 1064.50118,331.343482 1068.608,331.343482 C1072.70515,331.343482 1079.87585,329.638934 1079.87585,323.504212 C1079.87585,317.028442 1072.02252,316.346347 1064.84215,315.323893 C1057.33048,313.960392 1049.81881,310.211625 1049.81881,300.317801 C1049.81881,290.092575 1059.72071,285.320665 1068.94966,285.320665 C1077.82728,285.320665 1084.31466,288.388715 1088.42148,293.500984" id="Fill-146" fill="#FFFFFE"></path>
            <polyline id="Fill-147" fill="#FFFFFE" points="496.045596 338.194774 500.156081 338.194774 500.156081 294.21705 514.210397 294.21705 514.210397 286.31829 477.195252 286.31829 477.195252 294.21705 491.249567 294.21705 491.249567 338.194774 495.017974 338.194774"></polyline>
            <polyline id="Fill-148" fill="#FFFFFE" points="957.505068 286.31829 953.701762 286.31829 945.058711 322.387535 936.05993 286.31829 926.379042 286.31829 938.480152 338.194774 949.55321 338.194774 958.887453 299.368807 968.23218 338.194774 978.949508 338.194774 991.405649 286.31829 981.715675 286.31829 973.072624 322.731171 964.428874 286.31829 959.92529 286.31829"></polyline>
            <path d="M1436.5878,341.44407 L1436.5878,301.322118 L1428.0869,301.322118 L1428.0869,303.396982 C1425.02666,301.322118 1422.30598,300.285036 1418.55629,300.285036 C1415.1558,300.285036 1410.39496,302.013972 1407.33472,305.480232 C1404.61405,308.592178 1402.57388,313.431663 1402.57388,318.271847 C1402.57388,323.112031 1405.29456,330.371608 1409.71514,333.483554 C1414.13572,336.258658 1417.53621,336.258658 1418.89586,336.258658 C1420.2562,336.258658 1424.34615,336.258658 1428.0869,333.483554 L1428.0869,337.986896 C1428.0869,341.098842 1426.38631,343.864162 1419.23612,343.864162 C1412.43512,343.864162 1409.71514,341.789997 1408.01454,341.098842 L1404.61405,348.358419 C1406.31464,349.050273 1410.73522,352.16152 1419.91594,352.16152 C1430.12706,352.16152 1436.5878,348.01319 1436.5878,341.44407 M1428.42716,318.617774 C1428.42716,315.160599 1427.06682,308.592178 1419.91594,308.592178 C1413.11563,308.592178 1411.41504,315.160599 1411.41504,318.617774 C1411.41504,322.766104 1414.13572,327.952215 1419.91594,327.952215 C1426.04674,327.952215 1428.42716,323.112031 1428.42716,318.617774" id="Fill-149" fill="#FFFFFE"></path>
            <path d="M1307.61413,304.505193 C1308.30722,303.453776 1311.42785,299.63414 1318.7175,299.63414 C1327.03802,299.63414 1331.54482,305.894216 1331.54482,312.143763 L1331.54482,338.194774 L1322.87741,338.194774 L1322.87741,313.532785 C1322.87741,310.408012 1320.45056,307.629967 1316.97463,307.629967 C1313.50781,307.629967 1310.38717,310.408012 1310.38717,313.879515 L1310.38717,338.194774 L1301.37357,338.194774 L1301.37357,313.879515 C1301.37357,309.71315 1298.25364,307.629967 1295.47079,307.629967 C1292.35086,307.629967 1288.53714,309.71315 1288.53714,313.879515 L1288.53714,338.194774 L1279.52354,338.194774 L1279.52354,300.675731 L1288.19025,300.675731 L1288.19025,303.801207 C1288.88403,302.759616 1292.35086,299.287411 1297.90675,299.287411 C1303.10733,299.287411 1305.88037,302.412185 1307.61413,304.505193" id="Fill-150" fill="#FFFFFE"></path>
            <path d="M529.737363,303.833294 L529.737363,286.31829 L521.213262,286.31829 L521.213262,338.194774 L529.737363,338.194774 L529.737363,315.518988 C529.737363,311.398137 533.824194,307.963864 537.570916,307.963864 C541.657747,307.963864 544.38276,311.398137 544.38276,315.176047 L544.38276,338.194774 L552.225952,338.194774 L552.225952,310.367925 C552.225952,303.489658 544.723559,299.712443 539.614331,299.712443 C535.186701,299.712443 532.121577,301.772868 529.737363,303.833294" id="Fill-151" fill="#FFFFFE"></path>
            <path d="M588.808936,316.79905 L571.325389,316.79905 C571.325389,312.672458 574.471142,308.202504 580.06257,308.202504 C585.653999,308.202504 588.808936,313.016515 588.808936,316.79905 M590.905633,328.833381 L596.497062,334.688596 C594.400365,336.751544 589.857284,340.190024 580.06257,340.190024 C570.626725,340.190024 562.230045,333.303334 562.230045,320.580891 C562.230045,307.515087 570.626725,300.285036 580.06257,300.285036 C589.857284,300.285036 598.244781,308.546561 598.244781,318.861999 L598.244781,323.331953 L570.97641,323.331953 C570.97641,328.489324 575.868469,332.27186 580.761234,332.27186 C586.003684,332.27186 588.808936,330.552273 590.905633,328.833381" id="Fill-152" fill="#FFFFFE"></path>
            <polyline id="Fill-153" fill="#FFFFFE" points="1018.37653 286.31829 1002.41015 286.31829 1002.41015 338.194774 1036.42407 338.194774 1036.42407 330.286295 1011.09244 330.286295 1011.09244 315.862624 1033.30232 315.862624 1033.30232 307.620228 1011.09244 307.620228 1011.09244 294.560685 1035.38348 294.560685 1035.38348 286.31829 1029.83347 286.31829"></polyline>
            <polyline id="Fill-154" fill="#FFFFFE" points="817.86234 338.194774 822.046194 338.194774 822.046194 294.21705 836.342202 294.21705 836.342202 286.31829 798.326648 286.31829 798.326648 294.21705 812.622656 294.21705 812.622656 338.194774 816.816377 338.194774"></polyline>
            <polyline id="Fill-155" fill="#FFFFFE" points="1114.29856 338.194774 1118.40905 338.194774 1118.40905 294.21705 1132.46336 294.21705 1132.46336 286.31829 1095.44822 286.31829 1095.44822 294.21705 1109.50254 294.21705 1109.50254 338.194774 1113.27094 338.194774"></polyline>
            <path d="M1139.53075,342.51983 L1139.88596,345.178147 C1143.79046,344.513736 1149.47032,344.513736 1149.47032,336.869982 C1149.47032,332.540224 1145.92032,331.211401 1143.79046,331.211401 C1142.01582,331.211401 1138.46582,331.875813 1138.46582,335.208618 C1138.46582,338.863888 1142.01582,339.19643 1143.43525,339.19643 C1144.14568,339.528971 1144.5009,340.193383 1144.5009,340.525924 C1144.5009,341.855419 1142.72554,342.187289 1139.53075,342.51983" id="Fill-156" fill="#FFFFFE"></path>
            <polygon id="Fill-157" fill="#FFFFFE" points="1229.50307 338.194774 1238.50675 338.194774 1238.50675 301.28266 1229.50307 301.28266"></polygon>
            <path d="M1234.50545,286.31829 C1237.26583,286.31829 1239.50716,288.555239 1239.50716,291.306413 C1239.50716,294.057587 1237.26583,296.294537 1234.50545,296.294537 C1231.74508,296.294537 1229.50307,294.057587 1229.50307,291.306413 C1229.50307,288.555239 1231.74508,286.31829 1234.50545,286.31829" id="Fill-158" fill="#FFFFFE"></path>
            <path d="M1271.52026,300.384008 L1271.52026,308.714445 C1264.52046,308.714445 1259.27097,312.874758 1259.27097,317.728923 L1259.27097,338.194774 L1250.51167,338.194774 L1250.51167,300.730233 L1259.27097,300.730233 L1259.27097,304.554132 C1261.02056,302.81109 1265.57036,299.690155 1271.52026,300.384008" id="Fill-159" fill="#FFFFFE"></path>
            <polygon id="Fill-160" fill="#FFFFFE" points="1341.54892 338.194774 1350.5526 338.194774 1350.5526 301.28266 1341.54892 301.28266"></polygon>
            <path d="M1346.5506,286.31829 C1349.30965,286.31829 1351.55301,288.555239 1351.55301,291.306413 C1351.55301,294.057587 1349.30965,296.294537 1346.5506,296.294537 C1343.79155,296.294537 1341.54892,294.057587 1341.54892,291.306413 C1341.54892,288.555239 1343.79155,286.31829 1346.5506,286.31829" id="Fill-161" fill="#FFFFFE"></path>
            <path d="M1393.5702,312.241932 L1393.5702,338.194774 L1384.52586,338.194774 L1384.52586,313.265942 C1384.52586,310.193914 1381.39459,308.487461 1378.60225,308.487461 C1375.47168,308.487461 1370.25336,310.53548 1370.25336,315.997094 L1370.25336,338.194774 L1361.5571,338.194774 L1361.5571,301.309045 L1370.25336,301.309045 L1370.25336,303.357754 C1370.25336,303.357754 1374.08008,300.285036 1380.00299,300.285036 C1386.96028,300.285036 1393.5702,305.073867 1393.5702,312.241932" id="Fill-162" fill="#FFFFFE"></path>
            <path d="M1455.28816,303.833294 L1455.28816,286.31829 L1446.5919,286.31829 L1446.5919,338.194774 L1455.28816,338.194774 L1455.28816,315.518988 C1455.28816,311.398137 1459.46295,307.963864 1463.64689,307.963864 C1467.47361,307.963864 1470.2561,311.398137 1470.2561,315.176047 L1470.2561,338.194774 L1478.60499,338.194774 L1478.60499,310.367925 C1478.60499,303.489658 1470.60418,299.712443 1465.38586,299.712443 C1460.85455,299.712443 1457.72328,301.772868 1455.28816,303.833294" id="Fill-163" fill="#FFFFFE"></path>
            <path d="M1558.36998,304.505193 C1559.40996,303.453776 1562.53059,299.63414 1569.82024,299.63414 C1577.79387,299.63414 1582.64756,305.894216 1582.64756,312.143763 L1582.64756,338.194774 L1573.98015,338.194774 L1573.98015,313.532785 C1573.98015,310.408012 1571.55331,307.629967 1568.08648,307.629967 C1564.61055,307.629967 1561.14372,310.408012 1561.14372,313.879515 L1561.14372,338.194774 L1552.13012,338.194774 L1552.13012,313.879515 C1552.13012,309.71315 1549.35638,307.629967 1546.22664,307.629967 C1543.4536,307.629967 1539.63988,309.71315 1539.63988,313.879515 L1539.63988,338.194774 L1530.62628,338.194774 L1530.62628,300.675731 L1538.9468,300.675731 L1538.9468,303.801207 C1539.98677,302.759616 1543.4536,299.287411 1549.01019,299.287411 C1553.86318,299.287411 1556.63692,302.412185 1558.36998,304.505193" id="Fill-164" fill="#FFFFFE"></path>
            <path d="M1510.8137,322.101017 L1510.8137,329.264352 C1509.77515,331.65236 1506.65949,333.358376 1503.18763,333.358376 C1502.4955,333.358376 1496.2635,333.017035 1496.2635,327.900367 C1496.2635,322.783009 1503.88046,322.783009 1510.8137,322.101017 M1519.46921,340.190024 L1523.62341,334.040368 C1521.1999,333.017035 1519.81493,332.335042 1519.81493,329.947034 L1519.81493,311.866991 C1519.81493,306.408982 1515.66073,301.28266 1504.22618,301.28266 C1496.2635,301.28266 1491.07074,304.01132 1489.33936,305.034654 L1492.45571,311.52565 C1495.91778,309.820324 1500.07198,308.455649 1505.27453,308.455649 C1509.77515,308.455649 1510.8137,311.52565 1510.8137,312.890325 L1510.8137,315.619674 C1505.62094,316.301667 1501.11053,316.301667 1498.68701,316.983659 C1496.2635,317.325 1487.60868,319.371667 1487.60868,327.900367 C1487.60868,336.778682 1496.2635,339.849372 1502.14908,339.849372 C1508.04446,339.849372 1511.16011,337.461364 1512.19866,336.43803 C1514.9686,338.826039 1517.0457,339.849372 1519.46921,340.190024" id="Fill-165" fill="#FFFFFE"></path>
            <path d="M1590.71529,342.51983 L1590.71529,345.178147 C1594.97544,344.513736 1600.65493,344.513736 1600.65493,336.869982 C1600.65493,332.540224 1597.10516,331.211401 1594.62025,331.211401 C1593.2002,331.211401 1589.65043,331.875813 1589.65043,335.208618 C1589.65043,338.863888 1593.2002,339.19643 1594.62025,339.19643 C1595.33064,339.528971 1595.33064,340.193383 1595.33064,340.525924 C1595.33064,341.855419 1593.91058,342.187289 1590.71529,342.51983" id="Fill-166" fill="#FFFFFE"></path>
            <path d="M1673.68481,298.272893 L1664.97333,302.02166 C1662.88499,297.590798 1658.70761,293.159936 1652.09431,293.159936 C1643.38282,293.159936 1636.07294,300.658848 1636.07294,311.575126 C1636.07294,322.481758 1641.99036,331.343482 1652.09431,331.343482 C1661.84012,331.343482 1664.62503,323.163164 1664.97333,322.481758 L1673.33652,326.231214 C1671.58663,329.979981 1665.6692,339.192399 1651.74602,339.192399 C1637.81369,339.192399 1626.66558,329.298575 1626.66558,312.256532 C1626.66558,294.18239 1639.55374,285.320665 1651.39843,285.320665 C1662.88499,285.320665 1669.84588,291.797124 1673.68481,298.272893" id="Fill-167" fill="#FFFFFE"></path>
            <path d="M1787.80507,316.79905 L1770.64121,316.79905 C1770.64121,312.672458 1773.72888,308.202504 1779.228,308.202504 C1784.71741,308.202504 1787.80507,313.016515 1787.80507,316.79905 M1789.86352,328.833381 L1795.35362,334.688596 C1792.95187,336.751544 1788.49168,340.190024 1779.228,340.190024 C1769.9546,340.190024 1761.72084,333.303334 1761.72084,320.580891 C1761.72084,307.515087 1769.9546,300.285036 1779.228,300.285036 C1788.49168,300.285036 1796.73516,308.546561 1796.73516,318.861999 L1796.73516,323.331953 L1770.29791,323.331953 C1770.29791,328.489324 1775.1014,332.27186 1779.91391,332.27186 C1784.71741,332.27186 1787.80507,330.552273 1789.86352,328.833381" id="Fill-168" fill="#FFFFFE"></path>
            <path d="M1835.75113,312.241932 L1835.75113,338.194774 L1827.05467,338.194774 L1827.05467,313.265942 C1827.05467,310.193914 1823.92403,308.487461 1821.14078,308.487461 C1818.01014,308.487461 1812.43448,310.53548 1812.43448,315.997094 L1812.43448,338.194774 L1803.73803,338.194774 L1803.73803,301.309045 L1812.43448,301.309045 L1812.43448,303.357754 C1812.43448,303.357754 1816.60866,300.285036 1822.53241,300.285036 C1829.48985,300.285036 1835.75113,305.073867 1835.75113,312.241932" id="Fill-169" fill="#FFFFFE"></path>
            <path d="M1698.19484,332.340099 C1704.70334,332.340099 1707.78621,325.862241 1707.78621,320.067314 C1707.78621,313.930576 1704.36057,308.13496 1698.19484,308.13496 C1692.01942,308.13496 1688.59378,313.930576 1688.59378,320.067314 C1688.59378,325.862241 1691.68634,332.340099 1698.19484,332.340099 M1698.19484,340.190024 C1709.1566,340.190024 1716.70242,330.635182 1716.70242,320.067314 C1716.70242,308.476081 1708.12898,300.285036 1698.19484,300.285036 C1688.25101,300.285036 1679.68727,308.476081 1679.68727,320.067314 C1679.68727,330.635182 1687.22339,340.190024 1698.19484,340.190024" id="Fill-170" fill="#FFFFFE"></path>
            <path d="M1897.7765,300.384008 L1897.7765,308.714445 C1890.7767,308.714445 1885.52721,312.874758 1885.52721,317.728923 L1885.52721,338.194774 L1876.76791,338.194774 L1876.76791,300.730233 L1885.52721,300.730233 L1885.52721,304.554132 C1887.2768,302.81109 1891.8266,299.690155 1897.7765,300.384008" id="Fill-171" fill="#FFFFFE"></path>
            <path d="M1868.76463,337.512026 L1867.73832,330.338337 C1863.63305,330.679712 1858.14944,331.703145 1858.14944,327.608722 L1858.14944,308.162799 L1867.39598,308.162799 L1867.39598,300.988421 L1858.14944,300.988421 L1858.14944,286.31829 L1849.93821,289.389279 L1849.93821,300.988421 L1842.75399,300.988421 L1842.75399,308.162799 L1849.93821,308.162799 L1849.93821,329.996963 C1849.93821,335.123785 1853.3595,338.194774 1858.84311,338.194774 C1864.65936,338.194774 1868.76463,337.512026 1868.76463,337.512026" id="Fill-172" fill="#FFFFFE"></path>
            <polyline id="Fill-173" fill="#FFFFFE" points="1740.75279 338.194774 1744.56811 338.194774 1756.71879 301.28266 1747.34352 301.28266 1739.71148 327.936998 1732.07032 301.28266 1722.70487 301.28266 1734.85555 338.194774 1737.97737 338.194774"></polyline>
            <path d="M1922.83085,346.001485 L1937.79288,301.28266 L1928.2714,301.28266 L1920.78111,326.934538 L1913.30044,301.28266 L1903.77896,301.28266 L1916.02037,339.417956 C1917.72093,343.576528 1913.64069,344.615995 1907.17939,343.229805 L1905.47952,350.160057 C1917.04112,352.238992 1920.78111,351.199524 1922.83085,346.001485" id="Fill-174" fill="#FFFFFE"></path>
            <path d="M2063.84445,340.60808 L2067.96208,348.171021 C2080.62913,341.295999 2088.85469,327.536226 2088.85469,312.754997 C2088.85469,297.620775 2080.97169,284.901914 2068.30463,277.339667 L2064.18701,284.901914 C2075.49421,292.120896 2079.25959,304.151838 2079.25959,312.754997 C2079.25959,321.349123 2075.83608,332.69284 2063.84445,340.60808" id="Fill-175" fill="#FFFFFE"></path>
            <path d="M1982.8113,340.60808 L1978.70119,348.171021 C1966.02958,341.295999 1957.80106,327.536226 1957.80106,312.754997 C1957.80106,297.620775 1965.68759,284.901914 1978.35851,277.339667 L1982.8113,284.901914 C1971.16704,292.120896 1967.39962,304.151838 1967.39962,312.754997 C1967.39962,321.349123 1970.82436,332.69284 1982.8113,340.60808" id="Fill-176" fill="#FFFFFE"></path>
            <polyline id="Fill-177" fill="#FFFFFE" points="2044.83668 313.458563 2044.83668 286.31829 2035.89883 286.31829 2035.89883 323.761384 2011.14065 286.31829 2000.81867 286.31829 2000.81867 338.194774 2009.76555 338.194774 2009.76555 300.39902 2034.52442 338.194774 2044.83668 338.194774 2044.83668 322.731171"></polyline>
            <polygon id="Fill-178" fill="#FFFFFE" points="2322.06435 380.095012 2322.06435 299.056282 2296.93983 324.230454 2296.93983 286.646195 2334.44996 249.406176 2371.97053 286.646195 2371.97053 324.230454 2346.84531 299.056282 2346.84531 380.095012"></polygon>
            <polyline id="Fill-179" fill="#FFFFFE" points="2194.89808 305.340074 2194.89808 278.337292 2176.2233 278.337292 2166.88172 314.565944 2156.85822 278.337292 2138.87515 278.337292 2138.87515 352.16152 2151.32803 352.16152 2151.32803 293.713282 2162.3884 335.418607 2171.72998 335.418607 2182.4452 293.713282 2182.4452 352.16152 2194.89808 352.16152 2194.89808 321.057968"></polyline>
            <path d="M2252.71665,335.868668 L2252.71665,318.295496 C2252.71665,313.81849 2248.88198,311.407687 2245.7449,311.407687 C2242.95592,311.407687 2239.12125,314.163089 2239.12125,318.295496 L2239.12125,336.213267 C2239.12125,341.034873 2242.95592,343.445676 2245.7449,343.445676 C2248.53318,343.445676 2252.71665,341.723375 2252.71665,335.868668 M2264.92673,339.657172 L2264.92673,318.295496 C2264.92673,305.552979 2252.71665,302.443928 2248.88198,302.443928 C2244.69921,302.443928 2243.65352,303.133126 2240.51574,304.510828 L2253.76235,278.337292 L2240.16765,278.337292 L2230.04896,297.966922 C2228.65446,300.722324 2226.91117,306.93068 2226.91117,312.785388 L2226.91117,338.968669 C2226.91117,349.299687 2235.63608,355.154394 2245.7449,355.154394 C2255.8636,355.154394 2264.92673,349.644286 2264.92673,339.657172" id="Fill-180" fill="#FFFFFE"></path>
            <path d="M78.2953792,208.503563 C62.7744527,208.503563 50.0204666,196.1377 50.0204666,180.670824 L50.0204666,29.8279884 C50.0204666,14.3708334 62.7744527,1.99524941 78.2953792,1.99524941 L1577.38207,1.99524941 C1592.90299,1.99524941 1605.65698,14.3708334 1605.65698,29.8279884 L1605.65698,180.670824 C1605.65698,196.1377 1592.90299,208.503563 1577.38207,208.503563 L78.2953792,208.503563 Z" id="Fill-181" fill="#FFFFFE"></path>
            <path d="M78.295192,208.503563 C62.774254,208.503563 50.0204666,196.137681 50.0204666,180.670788 L50.0204666,29.8280245 C50.0204666,14.3706725 62.774254,1.99524941 78.295192,1.99524941 L1577.38225,1.99524941 C1592.90319,1.99524941 1605.65698,14.3706725 1605.65698,29.8280245 L1605.65698,180.670788 C1605.65698,196.137681 1592.90319,208.503563 1577.38225,208.503563 L78.295192,208.503563 Z" id="Stroke-182" stroke="#0070AD" stroke-width="0.425"></path>
            <path d="M78.1680351,194.536817 C70.5846601,194.536817 64.0261973,188.014179 64.0261973,180.451972 L64.0261973,29.6936088 C64.0261973,22.1411173 70.5846601,15.9619952 78.1680351,15.9619952 L1577.8543,15.9619952 C1585.43698,15.9619952 1591.65125,22.1411173 1591.65125,29.6936088 L1591.65125,180.451972 C1591.65125,188.014179 1585.43698,194.536817 1577.8543,194.536817 L78.1680351,194.536817 Z" id="Fill-183" fill="#0070AD"></path>
            <path d="M1160.47483,97.7594506 L1152.11903,101.508955 C1149.67274,97.0683898 1145.49449,92.6374709 1138.8798,92.6374709 C1130.524,92.6374709 1122.85507,100.145436 1122.85507,111.052207 C1122.85507,121.959668 1129.1221,130.4901 1138.8798,130.4901 C1148.62835,130.4901 1151.423,122.641083 1151.77137,121.959668 L1151.77137,121.618616 L1160.47483,125.367431 C1158.38605,129.126581 1152.46739,138.669834 1138.8798,138.669834 C1124.94455,138.669834 1113.45559,128.785529 1113.45559,111.734311 C1113.45559,93.3188857 1126.68496,84.7980998 1138.18378,84.7980998 C1149.67274,84.7980998 1156.64494,91.2739522 1160.47483,97.7594506" id="Fill-184" fill="#FFFFFE"></path>
            <polyline id="Fill-185" fill="#FFFFFE" points="1503.75225 85.7957245 1487.60868 85.7957245 1487.60868 137.672209 1521.6226 137.672209 1521.6226 129.429813 1496.53899 129.429813 1496.53899 115.340058 1518.5308 115.340058 1518.5308 107.097663 1496.53899 107.097663 1496.53899 94.0381201 1520.59153 94.0381201 1520.59153 85.7957245 1515.09601 85.7957245"></polyline>
            <polyline id="Fill-186" fill="#FFFFFE" points="773.183963 104.007025 773.183963 85.7957245 764.31273 85.7957245 764.31273 137.672209 793.324601 137.672209 793.324601 129.429813 773.183963 129.429813 773.183963 110.531936"></polyline>
            <path d="M894.02292,109.172373 L886.138221,112.987975 C884.081464,109.172373 881.681683,106.396752 877.558466,106.396752 C873.101928,106.396752 867.273986,110.560183 867.273986,118.539217 C867.273986,126.518252 872.758904,131.037226 877.558466,131.037226 C882.367037,131.037226 885.452173,126.518252 886.138221,124.436185 L886.138221,124.783313 L894.365944,128.608733 C891.966162,132.772165 886.823576,138.669834 877.558466,138.669834 C867.959341,138.669834 858.351208,132.077909 858.351208,118.539217 C858.351208,105.008941 868.645389,98.7648456 877.558466,98.7648456 C886.138221,98.7648456 891.280115,103.968259 894.02292,109.172373" id="Fill-187" fill="#FFFFFE"></path>
            <path d="M1274.59509,116.27078 L1257.44094,116.27078 C1257.44094,111.799736 1260.5286,107.328692 1266.01801,107.328692 C1271.50742,107.328692 1274.59509,112.488017 1274.59509,116.27078 M1276.66324,127.9646 L1282.15265,134.164689 C1279.75159,135.884695 1275.28169,139.667458 1266.01801,139.667458 C1256.75433,139.667458 1248.51085,132.788822 1248.51085,119.710098 C1248.51085,106.985247 1256.75433,99.7624703 1266.01801,99.7624703 C1275.28169,99.7624703 1283.52517,108.016973 1283.52517,118.334927 L1283.52517,122.46183 L1257.09763,122.46183 C1257.09763,127.9646 1261.90113,131.413651 1266.70393,131.413651 C1271.85073,131.413651 1274.59509,129.693645 1276.66324,127.9646" id="Fill-188" fill="#FFFFFE"></path>
            <path d="M1322.54114,111.712752 L1322.54114,137.672209 L1313.83752,137.672209 L1313.83752,112.737022 C1313.83752,109.322558 1310.70784,107.61567 1307.92544,107.61567 C1304.79576,107.61567 1299.23166,110.005865 1299.23166,115.46887 L1299.23166,137.672209 L1290.52804,137.672209 L1290.52804,100.786741 L1299.23166,100.786741 L1299.23166,102.835282 C1299.23166,102.835282 1303.40456,99.7624703 1309.31664,99.7624703 C1316.27194,99.7624703 1322.54114,104.542169 1322.54114,111.712752" id="Fill-189" fill="#FFFFFE"></path>
            <path d="M1185.98526,131.757096 C1192.50346,131.757096 1195.58632,125.557008 1195.58632,119.710098 C1195.58632,113.175602 1192.16069,107.672832 1185.98526,107.672832 C1179.81954,107.672832 1176.3939,113.175602 1176.3939,119.710098 C1176.3939,125.557008 1179.47676,131.757096 1185.98526,131.757096 M1185.98526,139.667458 C1196.95672,139.667458 1204.49284,130.381925 1204.49284,119.366653 C1204.49284,108.016973 1195.92909,99.7624703 1185.98526,99.7624703 C1176.05113,99.7624703 1167.47769,108.016973 1167.47769,119.366653 C1167.47769,130.381925 1175.02351,139.667458 1185.98526,139.667458" id="Fill-190" fill="#FFFFFE"></path>
            <path d="M1385.56693,99.7888596 L1385.56693,108.396845 C1378.32839,108.396845 1373.16427,112.183719 1373.16427,117.004135 L1373.16427,137.672209 L1364.55833,137.672209 L1364.55833,100.477888 L1373.16427,100.477888 L1373.16427,104.264762 C1374.88587,102.543582 1379.71458,99.4450412 1385.56693,99.7888596" id="Fill-191" fill="#FFFFFE"></path>
            <path d="M937.383545,133.076119 L942.957489,127.16923 C945.739189,129.606882 948.173616,132.035418 954.780944,132.035418 C955.824169,132.035418 960.34575,131.688284 960.34575,128.219047 C960.34575,124.740694 956.172146,124.046426 951.999244,123.352859 C947.82564,122.659292 940.165245,120.230756 940.165245,111.557314 C940.165245,102.884573 949.216841,99.7624703 954.780944,99.7624703 C960.34575,99.7624703 965.223742,101.843872 969.396643,106.006676 L963.832541,111.210881 C961.040999,108.782345 958.258596,107.047376 955.12892,107.047376 C951.651268,107.047376 948.521592,109.128778 948.521592,111.557314 C948.521592,115.026551 953.390446,115.026551 956.868098,115.720819 C960.34575,116.76152 969.04937,117.802221 969.04937,127.515663 C969.04937,137.238923 959.997774,139.667458 954.433671,139.667458 C947.130391,139.667458 940.861197,136.545356 937.383545,133.076119" id="Fill-192" fill="#FFFFFE"></path>
            <path d="M1355.55465,136.648762 L1354.52833,129.484633 C1350.7654,130.166702 1344.94914,131.190148 1344.94914,127.086705 L1344.94914,107.299145 L1354.18668,107.299145 L1354.18668,100.475705 L1344.94914,100.475705 L1344.94914,85.7957245 L1336.72822,88.8660653 L1336.72822,100.475705 L1329.544,100.475705 L1329.544,107.299145 L1336.72822,107.299145 L1336.72822,129.143255 C1336.72822,134.260489 1340.15919,137.672209 1345.97545,137.672209 C1351.44938,137.672209 1355.55465,136.648762 1355.55465,136.648762" id="Fill-193" fill="#FFFFFE"></path>
            <polyline id="Fill-194" fill="#FFFFFE" points="1227.85262 137.672209 1231.5939 137.672209 1243.5088 100.760095 1234.32509 100.760095 1226.83221 127.411745 1219.34827 100.760095 1210.49529 100.760095 1222.06982 137.672209 1225.13106 137.672209"></polyline>
            <path d="M1410.32831,145.200424 L1425.5833,100.760095 L1415.52537,100.760095 L1407.90278,126.446569 L1400.27039,100.760095 L1390.56897,100.760095 L1403.39843,138.605315 L1403.39843,138.952648 C1404.78455,142.771201 1400.61709,144.159128 1394.03391,142.423869 L1394.03391,142.771201 L1392.30109,149.712941 C1404.09114,151.796235 1408.24949,150.407607 1410.32831,145.200424" id="Fill-195" fill="#FFFFFE"></path>
            <polygon id="Fill-196" fill="#FFFFFE" points="841.344249 137.672209 850.347933 137.672209 850.347933 100.760095 841.344249 100.760095"></polygon>
            <path d="M841.344249,90.6120835 C841.344249,93.7080163 843.75915,95.7719715 846.518539,95.7719715 C849.278626,95.7719715 851.348342,93.7080163 851.348342,90.6120835 C851.348342,87.8596797 849.278626,85.7957245 846.518539,85.7957245 C843.75915,85.7957245 841.344249,87.8596797 841.344249,90.6120835" id="Fill-197" fill="#FFFFFE"></path>
            <path d="M1537.62914,139.463795 L1541.73925,146.650831 C1554.76254,139.806232 1562.63938,126.449786 1562.63938,111.733967 C1562.63938,96.6667167 1554.76254,84.0041389 1542.08124,76.8171021 L1537.62914,84.0041389 C1549.28309,91.1911757 1553.04983,103.178564 1553.04983,111.733967 C1553.04983,120.28937 1549.62508,131.592575 1537.62914,139.463795" id="Fill-198" fill="#FFFFFE"></path>
            <path d="M1469.60131,139.463795 L1465.43469,146.650831 C1452.57756,139.806232 1444.59108,126.449786 1444.59108,111.733967 C1444.59108,96.6667167 1452.23011,84.0041389 1465.08724,76.8171021 L1469.60131,84.0041389 C1458.13329,91.1911757 1453.96597,103.178564 1453.96597,111.733967 C1453.96597,120.28937 1457.43838,131.592575 1469.60131,139.463795" id="Fill-199" fill="#FFFFFE"></path>
            <path d="M1078.50578,141.930682 L1078.50578,144.655582 C1082.7655,144.3154 1088.44535,144.3154 1088.44535,136.480195 C1088.44535,131.71076 1084.89535,130.688836 1082.7655,130.688836 C1080.99014,130.688836 1077.44085,131.369889 1077.44085,134.436348 C1077.44085,138.183171 1080.99014,138.524041 1082.41028,138.864912 C1083.12071,138.864912 1083.47521,139.545965 1083.47521,139.886836 C1083.47521,141.24963 1081.70057,141.589812 1078.50578,141.930682" id="Fill-200" fill="#FFFFFE"></path>
            <path d="M825.252727,116.27078 L807.765085,116.27078 C807.765085,111.799736 810.910995,107.328692 816.50396,107.328692 C822.106817,107.328692 825.252727,112.488017 825.252727,116.27078 M827.350708,127.9646 L832.943672,134.164689 C830.496618,135.884695 825.95229,139.667458 816.50396,139.667458 C807.065523,139.667458 798.326648,132.788822 798.326648,119.710098 C798.326648,106.985247 807.065523,99.7624703 816.50396,99.7624703 C825.95229,99.7624703 834.341384,108.016973 834.341384,118.334927 L834.341384,122.46183 L807.415304,122.46183 C807.415304,127.9646 811.959632,131.413651 817.212708,131.413651 C822.106817,131.413651 825.252727,129.693645 827.350708,127.9646" id="Fill-201" fill="#FFFFFE"></path>
            <path d="M925.296157,116.27078 L907.462925,116.27078 C907.462925,111.799736 910.957656,107.328692 916.200106,107.328692 C921.801425,107.328692 925.296157,112.488017 925.296157,116.27078 M927.392854,127.9646 L932.634598,134.164689 C930.5379,135.884695 925.99482,139.667458 916.549085,139.667458 C906.764261,139.667458 898.367581,132.788822 898.367581,119.710098 C898.367581,106.985247 906.764261,99.7624703 916.549085,99.7624703 C925.99482,99.7624703 934.382317,108.016973 934.382317,118.334927 L934.382317,122.46183 L907.462925,122.46183 C907.462925,127.9646 912.006005,131.413651 917.248455,131.413651 C922.150404,131.413651 925.296157,129.693645 927.392854,127.9646" id="Fill-202" fill="#FFFFFE"></path>
            <path d="M1001.40974,136.648762 L1000.35782,129.484633 C996.149441,130.166702 990.188098,131.190148 990.188098,127.086705 L990.188098,107.299145 L1000.00695,107.299145 L1000.00695,100.475705 L990.188098,100.475705 L990.188098,85.7957245 L981.762828,88.8660653 L981.762828,100.475705 L974.39869,100.475705 L974.39869,107.299145 L981.762828,107.299145 L981.762828,129.143255 C981.762828,134.260489 985.279382,137.672209 991.240725,137.672209 C996.851193,137.672209 1001.40974,136.648762 1001.40974,136.648762" id="Fill-203" fill="#FFFFFE"></path>
            <path d="M1032.98809,116.27078 L1015.50044,116.27078 C1015.50044,111.799736 1018.64636,107.328692 1024.23932,107.328692 C1029.84218,107.328692 1032.98809,112.488017 1032.98809,116.27078 M1035.08536,127.9646 L1040.67833,134.164689 C1038.23198,135.884695 1034.03672,139.667458 1024.23932,139.667458 C1014.80088,139.667458 1006.41179,132.788822 1006.41179,119.710098 C1006.41179,106.985247 1014.80088,99.7624703 1024.23932,99.7624703 C1034.03672,99.7624703 1042.42652,108.016973 1042.42652,118.334927 L1042.42652,122.46183 L1015.15066,122.46183 C1015.15066,127.9646 1020.04477,131.413651 1024.94807,131.413651 C1030.19196,131.413651 1032.98809,129.693645 1035.08536,127.9646" id="Fill-204" fill="#FFFFFE"></path>
            <path d="M1071.4384,99.7888596 L1071.4384,108.396845 C1064.19916,108.396845 1059.03574,112.183719 1059.03574,117.004135 L1059.03574,137.672209 L1050.4298,137.672209 L1050.4298,100.477888 L1059.03574,100.477888 L1059.03574,104.264762 C1060.75665,102.543582 1065.57631,99.4450412 1071.4384,99.7888596" id="Fill-205" fill="#FFFFFE"></path>
            <polyline id="Fill-206" fill="#FFFFFE" points="185.222875 171.591449 114.478001 101.503135 114.478001 136.547639 88.0360213 110.433502 88.0360213 57.8622328 141.263473 57.8622328 167.705453 84.3200592 132.338221 84.3200592 203.083095 154.064684"></polyline>
            <path d="M473.736191,114.555974 C473.736191,130.681954 476.105465,141.998006 482.197298,154.685847 C480.166687,157.428733 478.136076,160.524444 476.105465,163.610451 C465.613062,148.856261 460.188293,131.025075 460.188293,114.898401 C460.188293,98.4293003 465.613062,80.5981141 476.105465,65.8432304 C478.136076,68.5868097 480.166687,71.682521 482.197298,74.7685279 C477.120771,88.1419175 473.736191,98.4293003 473.736191,114.555974" id="Fill-207" fill="#FFFFFE"></path>
            <path d="M665.165892,112.152533 L665.165892,94.5003338 C665.165892,89.6570452 661.016986,87.5815499 658.596558,87.5815499 C655.830854,87.5815499 651.681249,89.6570452 651.681249,94.1541848 L651.681249,112.498682 C651.681249,116.649673 654.792928,119.417466 658.250583,119.417466 C661.708237,119.417466 665.165892,116.649673 665.165892,112.152533 M663.783389,126.335551 L650.644023,152.63658 L663.783389,152.63658 L672.782237,134.648021 C674.857389,130.497031 677.277118,124.606204 677.277118,117.68742 L677.277118,91.3870908 C677.277118,80.662766 667.932295,75.8194774 658.596558,75.8194774 C649.251735,75.8194774 640.261973,80.316617 640.261973,91.3870908 L640.261973,112.498682 C640.261973,127.373998 653.755702,128.420836 656.17613,128.420836 C658.596558,128.420836 662.054213,127.373998 663.783389,126.335551" id="Fill-208" fill="#FFFFFE"></path>
            <path d="M398.724014,135.690702 L398.724014,118.11753 C398.724014,113.295924 395.269768,110.885121 392.160458,110.885121 C389.397481,110.885121 385.597601,113.640524 385.597601,118.11753 L385.597601,136.035301 L385.597601,135.690702 C385.597601,140.856211 389.397481,142.92311 392.160458,142.92311 C394.924134,142.92311 398.724014,141.20081 398.724014,135.690702 M411.168236,139.134607 L411.168236,118.11753 C411.168236,105.375013 399.06895,102.275708 395.269768,102.275708 C391.124255,102.275708 390.088051,102.964211 386.979439,103.997312 L400.105154,77.8147268 L386.288171,77.8147268 L376.606927,97.4443563 C374.880153,100.209505 373.152681,106.408115 373.152681,112.262822 L373.152681,138.446104 C373.152681,149.121721 382.143356,154.631829 392.160458,154.631829 C402.187337,154.631829 411.168236,149.121721 411.168236,139.134607" id="Fill-209" fill="#FFFFFE"></path>
            <path d="M259.432639,76.8171021 L251.09643,76.8171021 L234.095784,151.638955 L246.932534,151.638955 L249.361298,138.195187 L269.49416,138.195187 L272.616556,151.638955 L285.11666,151.638955 L267.412562,76.8171021 L262.555034,76.8171021 L259.432639,76.8171021 Z M259.432639,90.9500259 L251.790062,127.853667 L267.065396,127.853667 L259.432639,90.9500259 Z" id="Fill-210" fill="#FFFFFE"></path>
            <polyline id="Fill-211" fill="#FFFFFE" points="551.225542 104.403549 551.225542 76.8171021 532.896624 76.8171021 523.20919 113.710987 513.530839 76.8171021 495.20262 76.8171021 495.20262 151.638955 507.655496 151.638955 507.655496 92.673961 518.71587 134.748014 528.057449 134.748014 539.118521 92.673961 539.118521 151.638955 551.225542 151.638955 551.225542 120.260408"></polyline>
            <path d="M349.305619,115.089996 L349.305619,76.8171021 L332.464245,76.8171021 L310.126893,125.43082 L310.126893,137.161105 L336.939493,137.161105 L336.939493,151.638955 L349.305619,151.638955 L349.305619,137.161105 L355.145313,137.161105 L355.145313,126.465599 L349.305619,126.465599 L349.305619,116.813234 L349.305619,115.089996 Z M336.939493,92.3290346 L321.816003,126.465599 L336.939493,126.465599 L336.939493,92.3290346 Z" id="Fill-212" fill="#FFFFFE"></path>
            <path d="M701.877005,114.555974 C701.533744,130.681954 699.127443,141.998006 693.283668,154.685847 C695.002752,157.428733 697.065097,160.524444 699.127443,163.610451 C709.783126,148.856261 715.292673,131.025075 715.292673,114.898401 C715.292673,98.4293003 709.783126,80.5981141 699.127443,65.8432304 C697.408358,68.5868097 695.346013,71.682521 693.283668,74.7685279 C698.439531,88.1419175 701.533744,98.4293003 701.877005,114.555974" id="Fill-213" fill="#FFFFFE"></path>
            <path d="M607.69468,135.690702 L607.69468,118.11753 C607.69468,113.295924 603.86064,110.885121 601.071606,110.885121 C598.283278,110.885121 594.448533,113.640524 594.448533,118.11753 L594.448533,136.035301 L594.448533,135.690702 C594.448533,140.856211 598.283278,142.92311 601.071606,142.92311 C603.86064,142.92311 607.69468,141.20081 607.69468,135.690702 M620.253786,139.134607 L620.253786,118.11753 C620.253786,105.375013 608.05335,102.275708 603.86064,102.275708 C600.025895,102.275708 598.980184,102.964211 595.843049,103.997312 L595.494244,103.997312 L609.099062,77.8147268 L595.145439,77.8147268 L585.375366,97.4443563 C583.632748,100.209505 582.238232,106.408115 582.238232,112.262822 L582.238232,138.446104 C582.238232,149.121721 590.962593,154.631829 601.071606,154.631829 C611.190485,154.631829 620.253786,149.121721 620.253786,139.134607" id="Fill-214" fill="#FFFFFE"></path>
        </g>
    </g>
</svg>