<?xml version="1.0" encoding="UTF-8"?>
<svg width="960px" height="488px" viewBox="0 0 960 488" version="1.1" xmlns="http://www.w3.org/2000/svg" xmlns:xlink="http://www.w3.org/1999/xlink">
    <!-- Generator: Sketch 61.2 (89653) - https://sketch.com -->
    <title>direction-sign-green-at-junction</title>
    <desc>Created with Sketch.</desc>
    <g id="direction-sign-green-at-junction" stroke="none" stroke-width="1" fill="none" fill-rule="evenodd">
        <g id="Group" transform="translate(6.522989, 1.000000)">
            <path d="M820.235979,470.355262 C814.314852,480.70601 803.232064,487 791.400266,487 L33.7358329,487 C15.2645181,487 0.477011494,472.20393 0.477011494,454.090868 L0.477011494,33.2790146 C0.477011494,14.7968171 15.2645181,0 33.7358329,0 L791.400266,0 C803.232064,0 813.945949,6.28427592 819.866328,16.644738 L820.235979,16.644738 L946.260603,235.182862 C947.738458,237.770549 948.477011,240.727371 948.477011,243.684942 C948.477011,246.642512 948.107361,249.229451 946.260603,251.817138 L820.235979,470.725145 L820.235979,470.355262 Z" id="Fill-21947" fill="#FFFFFE"></path>
            <path d="M819.658365,17.6447457 L820.236055,17.6447457 L820.236055,16.6447457 L819.369775,17.144304 L819.658365,17.6447457 Z M821.236055,466.983715 L819.36941,470.225985 L820.236055,470.724909 L821.236055,470.724909 L821.236055,466.983715 Z" id="Stroke-21948" stroke="#005E3C" stroke-width="2"></path>
            <path d="M17.4770115,453.391773 L17.4770115,33.6082268 C17.4770115,24.4427775 24.9184752,17 34.0813881,17 L790.826112,17 C796.709471,17 802.152025,20.1066285 805.144422,25.1813852 L805.226467,25.1194615 L931.477011,243.684652 L805.226467,461.880538 L805.144422,461.818615 C802.152025,466.883673 796.709471,470 790.826112,470 L34.0813881,470 C24.9184752,470 17.4770115,462.557222 17.4770115,453.391773" id="Fill-21949" fill="#005E3C"></path>
            <path d="M407.991757,320 L668.701976,320 L668.681054,319.630404 C682.429189,319.435526 693.477011,308.252078 693.477011,294.513566 C693.477011,290.214307 692.378655,285.997928 690.283559,282.25269 L690.519668,281.945067 L560.349486,56.5587926 L560.277757,56.5998588 C555.729664,48.8017595 547.289505,44 538.161939,44 C529.034373,44 520.594213,48.8017595 516.046121,56.5998588 L516.343499,56.5587926 L385.80421,281.945067 L385.783289,281.954773 C383.61721,285.782144 382.477011,290.112015 382.477011,294.513566 C382.477011,308.580608 393.905149,320 407.991757,320" id="Fill-21950" fill="#FFFFFE"></path>
            <polyline id="Fill-21951" fill="#FFFFFE" points="397.477011 297.630334 536.586747 60 673.477011 298"></polyline>
            <path d="M667.661187,314 C674.695439,314 681.358522,310.308804 684.70054,304.033695 C688.402502,298.127931 688.402502,290.366495 684.70054,284.46073 L554.31095,59.9968967 C550.8043,53.8143108 544.315577,50 537.291801,50 C530.268774,50 523.780051,53.8143108 520.273401,59.9968967 L390.253483,284.46073 C386.551521,290.366495 386.551521,298.127931 390.253483,304.033695 C393.595501,310.308804 400.259333,314 407.292836,314 L667.661187,314 Z M418.778872,287.782583 L656.175151,287.782583 L537.662222,83.2312127 L418.778872,287.782583 Z" id="Fill-21952" fill="#D0383F"></path>
            <path d="M472.977376,215 L479.477011,215 L479.477011,252 L472.254708,252 L472.254708,226.466979 L466.477011,226.466979 L466.477011,220.548804 L467.19968,220.548804 C469.004891,220.548804 472.254708,220.548804 472.977376,215" id="Fill-21953" fill="#1A1919"></path>
            <path d="M506.963946,235.724456 L506.963946,239.05329 L494.819566,239.05329 L506.963946,223.507518 L506.963946,227.57659 L506.963946,235.724456 Z M514.546902,234.984965 L514.546902,239.05329 L519.477011,239.05329 L519.477011,245.711705 L514.546902,245.711705 L514.546902,252 L506.963946,252 L506.963946,245.711705 L486.477011,245.711705 L486.477011,239.05329 L505.067632,215 L514.546902,215 L514.546902,226.837099 L514.546902,234.984965 Z" id="Fill-21954" fill="#1A1919"></path>
            <path d="M569.00587,240.09102 C569.00587,236.77095 566.394327,233.820688 563.036951,233.820688 C559.678821,233.820688 557.068032,236.77095 557.068032,240.09102 C557.068032,243.410344 559.306282,246.361351 563.036951,246.361351 C565.275202,246.361351 569.00587,244.516785 569.00587,240.09102 M568.632577,224.957973 C570.870828,224.220594 573.119636,223.483215 575.357886,222.376773 C573.866222,218.688387 571.617414,215 563.036951,215 C554.456488,215 548.477011,220.901269 548.477011,234.18975 C548.477011,240.828399 551.098359,245.623227 552.96407,248.574234 C554.829027,251.156179 559.306282,253 563.40949,253 C567.513452,253 576.477011,250.787117 576.477011,239.721957 C576.477011,229.015422 568.259284,227.171601 564.528615,227.171601 C560.798701,227.171601 557.440571,228.646359 556.321446,229.753546 C556.321446,223.851531 560.425408,221.638649 563.036951,221.638649 C565.648495,221.638649 567.140159,222.74509 568.632577,224.957973" id="Fill-21955" fill="#1A1919"></path>
            <polygon id="Stroke-21956" fill="#1A1919" fill-rule="nonzero" points="538.477011 229 538.477011 234 530.477011 234 530.477011 229"></polygon>
            <polygon id="Fill-21957" fill="#1A1919" points="530.481556 214 524.477011 224 530.856461 224 536.477011 214"></polygon>
            <polygon id="Fill-21958" fill="#1A1919" points="587.102177 214 581.477011 224 587.47739 224 593.477011 214"></polygon>
            <polygon id="Fill-21959" fill="#1A1919" points="597.107408 214 591.477011 224 597.481556 224 603.477011 214"></polygon>
            <polyline id="Fill-21960" fill="#1A1919" points="550.477011 281 523.477011 281 536.977011 259"></polyline>
            <polyline id="Fill-21961" fill="#1A1919" points="569.477011 149 503.477011 149 536.666239 206"></polyline>
            <polygon id="Fill-21962" fill="#FFFFFE" points="694.356939 454 675.477011 454 797.267241 243.5 675.477011 33 764.686782 33 886.477011 243.5 764.686782 454"></polygon>
            <path d="M647.620802,443 L647.620802,443 C652.510253,443 656.477011,439.068202 656.477011,434.221844 L656.477011,433.856611 L656.477011,346.778156 C656.477011,341.931798 652.510253,338 647.620802,338 L428.333221,338 C423.44377,338 419.477011,341.931798 419.477011,346.778156 L419.477011,433.856611 L419.477011,434.221844 C419.477011,439.068202 423.44377,443 428.333221,443" id="Fill-21963" fill="#FFFFFE"></path>
            <polyline id="Fill-21964" fill="#FFFFFE" points="64.278877 142.906802 64.278877 121 53.4770115 121 53.4770115 183 88.4770115 183 88.4770115 172.979139 64.278877 172.979139 64.278877 150.329606"></polyline>
            <path d="M123.386658,162.820197 L123.386658,170.8602 C122.254939,173.779745 118.10835,175.969589 114.338238,175.969589 C113.207281,175.969589 105.667058,175.605107 105.667058,169.400058 C105.667058,163.184679 115.091956,163.184679 123.386658,162.820197 M133.575943,184 L138.477011,176.700029 C135.46138,175.239887 133.953183,174.874667 133.953183,171.955121 L133.953183,150.410098 C133.953183,144.205049 129.052114,138 115.469196,138 C105.667058,138 99.6243628,141.649986 97.7396881,142.380425 L101.509037,150.044879 C105.667058,148.220255 110.190887,146.394893 116.600153,146.394893 C122.254939,146.394893 123.386658,150.044879 123.386658,151.50502 L123.386658,155.155006 C116.977393,155.520226 111.699084,155.884708 108.68269,156.615148 C105.667058,156.97963 95.4770115,159.170211 95.4770115,169.400058 C95.4770115,179.619575 106.044298,183.63478 113.207281,183.63478 C119.993024,183.63478 123.763136,180.714497 125.271333,179.255093 C128.297634,182.539858 130.936789,183.63478 133.575943,184" id="Fill-21965" fill="#FFFFFE"></path>
            <path d="M178.212348,142.30517 C179.327574,141.192581 182.674003,136.371113 191.224569,136.371113 C200.900131,136.371113 206.477011,143.788872 206.477011,150.835517 L206.477011,182 L196.439227,182 L196.439227,152.689582 C196.439227,148.981453 193.465542,145.642936 189.365358,145.642936 C185.275696,145.642936 181.186785,149.351816 181.186785,153.431808 L181.186785,182 L170.777008,182 L170.777008,153.060695 C170.777008,148.61034 167.420809,145.642936 164.075132,145.642936 C160.357461,145.642936 155.896558,148.61034 155.896558,153.060695 L155.896558,182 L145.477011,182 L145.477011,137.854815 L155.524565,137.854815 L155.524565,141.192581 C156.639791,140.079992 160.357461,136 166.677576,136 C172.636219,136 176.353889,139.708879 178.212348,142.30517" id="Fill-21966" fill="#FFFFFE"></path>
            <path d="M394.477011,152.013021 L394.477011,183 L384.21527,183 L384.21527,153.119272 C384.21527,149.431518 380.553904,147.219014 377.258897,147.219014 C373.963149,147.219014 367.729132,149.800517 367.729132,156.438028 L367.729132,183 L357.477011,183 L357.477011,139.106252 L367.729132,139.106252 L367.729132,141.687755 C367.729132,141.687755 372.132836,138 379.089209,138 C387.143918,138 394.477011,143.531259 394.477011,152.013021" id="Fill-21967" fill="#FFFFFE"></path>
            <path d="M324.476635,174.822626 C332.314377,174.822626 336.041505,167.113097 336.041505,160.495176 C336.041505,153.15298 331.941438,146.178116 324.476635,146.178116 C317.395318,146.178116 313.295251,153.15298 313.295251,160.495176 C313.295251,167.113097 316.650193,174.822626 324.476635,174.822626 M324.476635,184 C337.531754,184 346.477011,172.986706 346.477011,160.495176 C346.477011,146.912039 336.413691,137 324.476635,137 C312.550127,137 302.477011,146.912039 302.477011,160.495176 C302.477011,172.986706 311.805002,184 324.476635,184" id="Fill-21968" fill="#FFFFFE"></path>
            <path d="M227.599785,156.351284 L227.599785,164.792801 C227.599785,171.042699 232.847985,175.079462 237.732411,175.079462 C242.606227,175.079462 249.354996,171.042699 249.354996,160.755296 C249.354996,150.479022 242.231085,146.808765 238.107553,146.808765 C233.972654,146.808765 227.599785,150.479022 227.599785,156.351284 M227.599785,179.850721 L227.599785,196 L217.477011,196 L217.477011,139.101003 L227.599785,139.101003 L227.599785,141.670257 C230.598648,139.468251 234.347796,138 239.607364,138 C246.730517,138 259.477011,142.404753 259.477011,160.755296 C259.477011,179.116967 246.730517,184.255475 239.232222,184.255475 C231.348933,184.255475 227.599785,179.850721 227.599785,179.850721" id="Fill-21969" fill="#FFFFFE"></path>
            <path d="M297.477011,181.893283 L296.370295,173.407958 C291.574274,173.776366 284.933228,175.252237 284.933228,170.087062 L284.933228,146.834825 L295.631986,146.834825 L295.631986,138.718654 L284.933228,138.718654 L284.933228,121 L274.962337,124.689304 L274.962337,138.718654 L266.477011,138.718654 L266.477011,146.834825 L274.962337,146.834825 L274.962337,172.66965 C274.962337,178.941542 279.020049,183 285.671536,183 C292.311836,183 297.477011,181.893283 297.477011,181.893283" id="Fill-21970" fill="#FFFFFE"></path>
            <path d="M84.289116,250.437067 L64.0434625,250.437067 L73.9773834,219.067913 L84.289116,250.437067 Z M74.344783,259.291546 L61.0998031,259.291546 L57.778332,270 L47.4770115,270 L67.3545216,208 L80.6099136,208 L100.477011,270 L90.175691,270 L86.864632,259.291546 L74.344783,259.291546 Z" id="Fill-21971" fill="#FFFFFE"></path>
            <path d="M248.701155,244.462398 L228.253619,244.462398 C228.253619,239.324509 231.969509,233.818621 238.296362,233.818621 C244.985265,233.818621 248.701155,239.691024 248.701155,244.462398 M250.930539,258.410005 L257.247628,265.393825 C254.646429,267.595883 249.444033,272 238.296362,272 C227.50999,272 217.477011,263.925538 217.477011,248.5 C217.477011,233.084849 227.50999,225 238.296362,225 C249.444033,225 259.477011,234.553135 259.477011,247.031714 L259.477011,251.803088 L227.881804,251.803088 C227.881804,258.042748 233.455264,262.457252 239.03924,262.457252 C244.985265,262.457252 248.701155,260.244806 250.930539,258.410005" id="Fill-21972" fill="#FFFFFE"></path>
            <path d="M210.477011,270.262949 L209.365817,261.423547 C209.365817,261.423547 206.404877,261.792073 204.183985,261.792073 C201.963094,261.792073 200.482249,259.940511 200.482249,258.098628 L200.482249,208 L190.477011,208 L190.477011,261.792073 C190.477011,267.684759 194.929271,271 202.332743,271 C206.034479,271 210.477011,270.262949 210.477011,270.262949" id="Fill-21973" fill="#FFFFFE"></path>
            <polyline id="Fill-21974" fill="#FFFFFE" points="116.56442 226 119.151556 226 127.66154 238.75442 135.792754 226 147.24922 226 133.574675 247.000505 149.477011 271 138.010087 271 127.66154 255.24659 116.933477 271 105.477011 271 121.737946 247.000505 107.694344 226 113.607479 226"></polyline>
            <path d="M286.027076,277.85427 L303.477011,226 L292.206756,226 L283.482156,255.577462 L274.746532,226 L263.477011,226 L278.018992,270.188362 C279.836372,275.298968 274.746532,276.393992 267.475542,274.56846 L265.294392,282.964138 C278.745797,285.154924 283.482156,284.0599 286.027076,277.85427" id="Fill-21975" fill="#FFFFFE"></path>
            <path d="M182.477011,269.882089 L181.393088,260.928256 C176.695841,261.683825 170.191569,263.174624 170.191569,257.946659 L170.191569,234.469025 L181.031536,234.469025 L181.031536,225.88808 L170.191569,225.88808 L170.191569,208 L160.426029,211.726621 L160.426029,225.88808 L152.477011,225.88808 L152.477011,234.469025 L160.426029,234.469025 L160.426029,260.555368 C160.426029,266.900491 164.400903,271 171.275492,271 C177.779765,271 182.477011,269.882089 182.477011,269.882089" id="Fill-21976" fill="#FFFFFE"></path>
            <path d="M84.1753681,339.436321 L64.1591039,339.436321 L74.1623681,308.436321 L84.1753681,339.436321 Z M74.1623681,348.290801 L61.1948964,348.290801 L57.8502399,359 L47.4770115,359 L67.4932757,297 L80.8307116,297 L100.477011,359 L90.4737474,359 L86.7688624,348.290801 L74.1623681,348.290801 Z" id="Fill-21977" fill="#FBD033"></path>
            <path d="M131.903,297 L141.477011,297 L141.477011,359 L131.16608,359 L131.16608,315.445776 L120.477011,315.445776 L120.477011,307.329605 L126.010614,306.592042 L126.000937,306.592042 C131.16608,306.222888 131.903,302.164429 131.903,297" id="Fill-21978" fill="#FBD033"></path>
            <path d="M166.260713,297 L175.477011,297 L175.477011,359 L165.156037,359 L165.156037,315.445776 L154.477011,315.445776 L154.477011,307.329605 L160.368862,306.592042 C165.524511,306.222888 166.260713,302.164429 166.260713,297" id="Fill-21979" fill="#FBD033"></path>
            <path d="M457.655505,362 L466.477011,362 L466.477011,411 L456.554115,411 L456.554115,376.989035 L448.477011,376.989035 L448.477011,368.946156 L449.945036,368.946156 C452.148557,368.946156 456.554115,368.946156 457.655505,362" id="Fill-21980" fill="#1A1919"></path>
            <path d="M603.835383,389.28116 L618.070824,389.28116 C618.070824,385.918808 615.439704,382.194322 610.947806,382.194322 C606.455909,382.194322 603.835383,385.918808 603.835383,389.28116 M603.835383,396.357458 L627.429195,396.357458 C627.803772,391.887623 626.306221,374 610.947806,374 C597.471358,374 594.477011,388.535811 594.477011,393.004894 C594.477011,397.474729 597.09678,412 611.69696,412 C620.316772,412 624.809426,407.530918 625.932401,406.040972 L619.942952,400.453866 C619.942952,400.453866 617.322426,403.806431 612.070781,403.806431 C606.455909,403.806431 603.835383,400.081945 603.835383,396.357458" id="Fill-21981" fill="#1A1919"></path>
            <polygon id="Stroke-21982" fill="#1A1919" fill-rule="nonzero" points="562.477011 377 562.477011 413 555.477011 413 555.477011 377"></polygon>
            <path d="M558.477011,362 C561.234736,362 563.477011,364.242437 563.477011,367.000361 C563.477011,369.758285 561.234736,372 558.477011,372 C555.719287,372 553.477011,369.758285 553.477011,367.000361 C553.477011,364.242437 555.719287,362 558.477011,362" id="Fill-21983" fill="#1A1919"></path>
            <path d="M590.477011,410.91333 L589.343729,402.581705 C585.187851,403.668375 582.921286,402.94344 582.921286,400.7701 L582.921286,362 L573.477011,362 L573.477011,404.392578 C573.477011,408.015055 575.743576,412 582.921286,412 C586.699149,412 590.477011,410.91333 590.477011,410.91333" id="Fill-21984" fill="#1A1919"></path>
            <path d="M543.477011,387.329809 L543.477011,412 L534.422908,412 L534.422908,389.582029 C534.422908,386.208986 531.887583,383.59348 528.98986,383.59348 C526.08262,383.59348 522.82323,386.582845 522.82323,391.076711 L522.82323,412 L513.768394,412 L513.768394,389.582029 C513.768394,386.208986 511.233802,383.59348 508.698477,383.59348 C506.163153,383.59348 502.168717,385.835126 502.168717,390.702852 L502.168717,412 L493.477011,412 L493.477011,375.746964 L502.168717,375.746964 L502.168717,377.989365 C502.168717,377.989365 505.438356,375.373859 511.595468,375.373859 C516.666118,375.373859 519.925507,378.736329 519.925507,378.736329 C519.925507,378.736329 523.547295,375 529.714657,375 C538.406362,375 543.477011,381.351834 543.477011,387.329809" id="Fill-21985" fill="#1A1919"></path>
        </g>
    </g>
</svg>