<?xml version="1.0" encoding="UTF-8"?>
<svg width="621px" height="387px" viewBox="0 0 621 387" version="1.1" xmlns="http://www.w3.org/2000/svg" xmlns:xlink="http://www.w3.org/1999/xlink">
    <!-- Generator: Sketch 61.2 (89653) - https://sketch.com -->
    <title>direction-sign-blue-approach-to-junction</title>
    <desc>Created with Sketch.</desc>
    <g id="direction-sign-blue-approach-to-junction" stroke="none" stroke-width="1" fill="none" fill-rule="evenodd">
        <g id="Group">
            <path d="M591.225694,0 C607.612987,0 621,13.3729587 621,29.7430486 L621,357.256951 C621,373.627041 607.612987,387 591.225694,387 L29.7830946,387 C13.3870126,387 0,373.627041 0,357.256951 L0,29.7430486 C0,13.3729587 13.3870126,0 29.7830946,0 L591.225694,0 Z" id="Fill-15" fill="#FFFFFE"></path>
            <path d="M591.225964,1 L29.7833261,1 C13.9401466,1 1,13.9237971 1,29.7428181 L1,357.257182 C1,373.076203 13.9401466,386 29.7833261,386 L591.225964,386 C607.061246,386 620,373.074812 620,357.257182 L620,29.7428181 C620,13.9251877 607.061246,1 591.225964,1 Z" id="Stroke-17" stroke="#0070AD" stroke-width="2"></path>
            <path d="M591.93917,14 C599.971929,14 607,20.6957461 607,28.7301 L607,357.934233 C607,366.304254 599.971929,373 591.93917,373 L29.7360823,373 C21.6938524,373 15,366.304254 15,357.934233 L15,28.7301 C15,20.6957461 21.6938524,14 29.7360823,14 L591.93917,14" id="Fill-18" fill="#0070AD"></path>
            <path d="M48.005596,349 C43.674479,349 40,345.319525 40,340.968704 L40,277.705931 C40,273.457928 43.4340484,270 47.6722259,270 C47.7833493,270 47.8944726,270.00947 48.005596,270.00947 L141.995078,270 C146.335623,270 150,273.355787 150,277.705931 L150,340.968704 C150,345.319525 146.335623,349 141.995078,349" id="Fill-19" fill="#FFFFFE"></path>
            <path d="M47.9979663,345 C45.6655948,345 44,343.333422 44,341.000617 L44,277.999383 C44,275.786486 45.6379808,274 47.6645779,274 C47.7757074,274 47.8868368,274 47.9979663,274.009431 L141.992605,274 C144.333732,274 146,276.000028 146,277.999383 L146,341.000617 C146,343.333422 144.333732,345 141.992605,345" id="Fill-20" fill="#1A1919"></path>
            <path d="M84.264806,316.664162 L72.4690265,325.99325 L90.3267529,325.99325 L90.3267529,333 L60.6732471,333 L60.6732471,326.326648 L77.1837985,313.664925 C81.8985705,309.666841 82.917631,305.335359 82.917631,303.002919 C82.917631,300.670478 81.8985705,294.997321 75.1633764,294.997321 C68.4281824,294.997321 67.4179714,301.669999 67.4179714,304.335838 L60,304.335838 C60,295.330719 64.7236215,288 75.4996596,288 C87.632403,288 91,297.329761 91,302.670194 C91,306.668278 88.642614,313.332201 84.264806,316.664162" id="Fill-21" fill="#FFFFFE"></path>
            <path d="M104.932789,320.099382 L98,322.083752 C99.6482203,328.377173 104.603545,334 113.505134,334 C117.132152,334 130,332.014962 130,318.115012 C130,303.892803 117.791307,302.238716 115.154021,302.238716 C112.516069,302.238716 109.218962,303.230901 107.240831,304.554037 L108.889717,295.945295 L127.362048,295.945295 L127.362048,289 L101.956262,289 L98.3299106,311.830283 L106.251765,312.822468 C107.240831,310.507815 109.878783,308.853728 113.505134,308.853728 C117.791307,308.853728 122.40739,311.5 122.40739,318.115012 C122.40739,324.729355 118.121217,327.044677 113.505134,327.044677 C109.218962,327.044677 106.251765,324.068122 104.932789,320.099382" id="Fill-22" fill="#FFFFFE"></path>
            <path d="M448.003929,303.375791 C449.003367,302.367873 452.001684,298 459.664497,298 C468.336177,298 473,304.719229 473,311.439138 L473,339 L463.995622,339 L463.995622,312.783255 C463.995622,309.423301 461.663374,306.735745 457.998316,306.735745 C454.333932,306.735745 450.668874,309.7595 450.668874,313.454975 L450.668874,339 L441.664497,339 L441.664497,313.454975 C441.664497,309.087102 438.665507,306.735745 435.33382,306.735745 C432.335503,306.735745 428.337748,309.087102 428.337748,313.454975 L428.337748,339 L419,339 L419,299.343438 L428.004378,299.343438 L428.004378,302.703393 C428.670446,301.695474 432.335503,298 437.999439,298 C443.330003,298 446.32832,301.359275 448.003929,303.375791" id="Fill-23" fill="#FFFFFE"></path>
            <path d="M393.264316,329.79516 L383.133775,338.384444 L398.325494,338.384444 L398.325494,344 L372.674506,344 L372.674506,338.384444 L386.854126,327.812453 C389.890424,325.160607 391.915305,321.526422 391.915305,318.553363 C391.915305,315.580303 390.565612,311.946119 385.495567,311.946119 C380.771982,311.946119 378.41019,315.249741 378.41019,319.874945 L372,319.874945 C372,311.285662 377.39809,306 385.832479,306 C394.276415,306 399,311.616224 399,318.553363 C399,323.50913 395.626108,328.143015 393.264316,329.79516" id="Fill-24" fill="#FFFFFE"></path>
            <path d="M354,288.945236 L354,293.899044 L360.661936,293.899044 L360.661936,320 L367,320 L367,283 L360.995235,283 C360.995235,289.275713 358.996789,288.61476 354,288.945236" id="Fill-25" fill="#FFFFFE"></path>
            <polyline id="Fill-26" fill="#FFFFFE" points="96 72.6666585 96 44 86.5357755 44 86.5357755 83.6630211 60.1538741 44 49 44 49 99 58.4635412 99 58.4635412 58.9954686 84.8461259 99 96 99 96 82.663413"></polyline>
            <path d="M399.113342,81.1528271 L399.113342,88.4235294 C397.792438,91.0671175 394.490511,93.0506436 391.188585,93.0506436 C390.198073,93.0506436 383.915269,92.3892456 383.915269,87.1014013 C383.915269,81.4828581 391.84937,81.4828581 399.113342,81.1528271 M407.707562,100 L412,93.7113736 C409.358192,92.3892456 408.36768,92.0592146 408.36768,89.4149584 L408.36768,70.2464396 C408.037288,64.2878442 403.736173,59 392.179096,59 C383.915269,59 378.301927,61.9749552 376.651297,62.6356852 L379.953224,69.5850416 C383.584876,67.9235294 387.556933,66.6014013 393.169607,66.6014013 C398.122831,66.6014013 399.113342,69.5850416 399.113342,70.9071696 L399.113342,74.2121558 C393.5,74.5428548 388.877169,74.8728858 386.236028,75.5342839 C383.915269,76.1950139 375,77.847841 375,87.1014013 C375,96.3643148 383.915269,99.669301 390.198073,99.669301 C396.141808,99.669301 399.443735,97.3470588 400.434246,96.0249307 C403.075387,98.6778719 405.386802,99.669301 407.707562,100" id="Fill-27" fill="#FFFFFE"></path>
            <path d="M321,101.868812 L321,59.0118642 L312.004378,59.0118642 L312.004378,61.3731079 C308.673364,59.0118642 306.007745,58 302.000561,58 C298.002806,58 293.004939,59.686213 290.006623,63.3968362 C287.008306,66.7699441 285,71.8388109 285,76.8988136 C285,82.2956498 287.674374,90.0537297 292.338871,93.0893222 C297.002694,96.1249148 301.001122,96.1249148 302.333932,96.1249148 C303.666068,96.1249148 308.339993,96.1249148 312.004378,93.4268376 L312.004378,98.158189 C312.004378,101.193782 310.0055,104.230056 302.666629,104.230056 C295.337187,104.230056 292.338871,102.205646 290.672691,101.531297 L287.008306,108.951861 C289.007184,109.963726 293.67168,113 303.333371,113 C314.003929,113 321,108.615028 321,101.868812 M312.337748,77.2356471 C312.337748,73.8625392 310.672242,66.7699441 303.333371,66.7699441 C296.003255,66.7699441 294.337748,73.8625392 294.337748,77.2356471 C294.337748,81.9581345 297.002694,87.692486 303.333371,87.692486 C309.672803,87.692486 312.337748,82.2956498 312.337748,77.2356471" id="Fill-28" fill="#FFFFFE"></path>
            <path d="M276,70.565417 L276,98 L267.004837,98 L267.004837,71.5566502 C267.004837,68.2429657 263.664565,66.591133 260.665728,66.591133 C257.667565,66.591133 252.003918,68.9135844 252.003918,74.5303498 L252.003918,98 L243,98 L243,58.9912332 L252.003918,58.9912332 L252.003918,61.3043333 C252.003918,61.3043333 256.002143,58 262.331823,58 C269.336966,58 276,62.956166 276,70.565417" id="Fill-29" fill="#FFFFFE"></path>
            <path d="M128.5,91.7268273 C135.437622,91.7268273 138.410602,84.7847392 138.410602,78.8349508 C138.410602,72.2236294 135.107068,66.264486 128.5,66.264486 C122.214137,66.264486 118.580049,72.2236294 118.580049,78.8349508 C118.580049,84.7847392 121.553697,91.7268273 128.5,91.7268273 M128.5,100 C140.062036,100 148,90.0736628 148,78.8349508 C148,66.5945843 139.071042,58 128.5,58 C118.250163,58 109,66.5945843 109,78.8349508 C109,90.0736628 117.259169,100 128.5,100" id="Fill-30" fill="#FFFFFE"></path>
            <path d="M181,97.9883502 L180.012593,90.2223697 C175.733606,90.8972574 169.808497,92.2463511 169.808497,87.524864 L169.808497,66.6067537 L179.683235,66.6067537 L179.683235,58.8503171 L169.808497,58.8503171 L169.808497,43 L161.241874,46.3723934 L161.241874,58.8503171 L154,58.8503171 L154,66.6067537 L161.241874,66.6067537 L161.241874,89.8856075 C161.241874,95.6180627 164.871461,99 170.795904,99 C176.721013,99 181,97.9883502 181,97.9883502" id="Fill-31" fill="#FFFFFE"></path>
            <path d="M339.752547,62.6604737 L339.752547,44 L331,44 L331,99 L339.752547,99 L339.752547,74.9993019 C339.752547,70.3340151 344.465666,66.9923333 348.51462,66.9923333 C352.554048,66.9923333 355.584299,70.6674423 355.584299,74.6658747 L355.584299,99 L364,99 L364,69.6678342 C364,62.3277201 355.920464,58.3286141 350.198169,58.3286141 C345.821895,58.3286141 342.445952,60.3278303 339.752547,62.6604737" id="Fill-32" fill="#FFFFFE"></path>
            <polygon id="Fill-33" fill="#FFFFFE" points="222 98 231 98 231 59 222 59"></polygon>
            <path d="M226.5,43 C229.536639,43 232,45.4638999 232,48.4996526 C232,51.5361001 229.536639,54 226.5,54 C223.463361,54 221,51.5361001 221,48.4996526 C221,45.4638999 223.463361,43 226.5,43" id="Fill-34" fill="#FFFFFE"></path>
            <path d="M213,97.9883502 L212.012568,90.2223697 C208.062842,90.8972574 202.128937,92.2463511 202.128937,87.524864 L202.128937,66.6067537 L211.683868,66.6067537 L211.683868,58.8503171 L202.128937,58.8503171 L202.128937,43 L193.241387,46.3723934 L193.241387,58.8503171 L186,58.8503171 L186,66.6067537 L193.241387,66.6067537 L193.241387,89.8856075 C193.241387,95.6180627 196.862413,99 202.787003,99 C208.720908,99 213,97.9883502 213,97.9883502" id="Fill-35" fill="#FFFFFE"></path>
            <path d="M448.003929,63.3745446 C449.003367,62.3668599 452.001684,58 459.664497,58 C468.336177,58 473,64.7183504 473,71.4462074 L473,99 L464.328993,99 L464.328993,72.7900132 C464.328993,69.430838 461.663374,66.7337198 457.998316,66.7337198 C454.333932,66.7337198 451.002245,69.7662802 451.002245,73.4615767 L451.002245,99 L441.664497,99 L441.664497,73.4615767 C441.664497,69.0852103 438.665507,66.7337198 435.33382,66.7337198 C432.335503,66.7337198 428.337748,69.0852103 428.337748,73.4615767 L428.337748,99 L419,99 L419,59.3438059 L428.004378,59.3438059 L428.004378,62.3668599 C429.003816,61.6952965 432.335503,58 437.999439,58 C443.330003,58 446.32832,61.3591752 448.003929,63.3745446" id="Fill-36" fill="#FFFFFE"></path>
            <path d="M167,206.595331 L167,184.177735 C167,170.784263 154.767966,166.43453 149.812914,166.43453 C145.187754,166.43453 142.535933,168.107868 140.883803,169.111601 L140.883803,154.045467 L165.348539,154.045467 L165.348539,142 L128.99101,142 L128.99101,182.82973 L140.883803,182.82973 C140.883803,179.149603 144.196743,176.137729 147.500334,176.137729 C150.803925,176.137729 154.767966,178.14587 154.767966,183.164533 L154.767966,203.918936 C154.767966,208.268669 151.464376,210.945064 147.830226,210.945064 C144.196743,210.945064 140.883803,208.268669 140.883803,203.918936 L140.883803,197.895864 L128,197.895864 L128,206.261204 C128,214.635337 134.276622,223 147.830226,223 C161.375148,223 167,215.304266 167,206.595331" id="Fill-37" fill="#FFFFFE"></path>
            <path d="M199.996269,201.663656 L218.334548,182.994561 C220.333961,180.99536 224,176.330107 224,169.665652 L224,156.336743 C224,143.665253 214.002263,139 204.337986,139 C194.664277,139 185.666246,144.998279 185.666246,154.661536 L185.666246,167.999202 L197.663396,167.999202 L197.663396,158.335945 C197.663396,153.661935 202.329142,151.662733 205.004232,151.662733 C207.670565,151.662733 211.336604,153.661935 211.336604,159.002794 L211.336604,165.000399 C211.336604,169.665652 209.669977,173.331304 207.337105,175.996682 L188.998825,194.66645 C186.333166,197.331828 185,200.664055 185,204.329708 L185,220 L224,220 L224,207.99536 L197.663396,207.99536 C197.663396,205.329308 197.996856,203.996283 199.996269,201.663656" id="Fill-38" fill="#FFFFFE"></path>
            <path d="M74.3336256,142 L65.669361,142 L48,221 L61.3288089,221 L64.0035967,206.876408 L84.6724112,206.876408 L88.0046134,221 L101,221 L82.6637944,142 L77.6651543,142 L74.3336256,142 Z M74.3336256,156.795432 L66.3362056,196.122887 L82.3303721,196.122887 L74.3336256,156.795432 Z" id="Fill-39" fill="#FFFFFE"></path>
            <path d="M518.478466,216.70408 C518.478466,221.724362 513.795223,226.41041 508.443235,226.41041 C506.761568,226.41041 505.088692,225.740588 503.416491,225.071443 C451.21517,194.60401 399.004382,163.801667 346.80306,133 C335.755584,136.01217 324.372721,139.024339 313,142.037185 C316.010366,153.081807 319.020733,164.136578 322.031099,175.516787 C385.615284,212.687177 449.542293,249.848771 513.460513,287.345275 C516.470879,289.353388 518.478466,292.365558 518.478466,296.04755 L518.478466,359 L567,359 L567,157.777328 C558.97168,149.735403 550.944037,141.367363 542.57154,133 C534.87793,141.032452 526.84082,149.400492 518.8125,157.777328 C518.8125,177.189989 518.8125,196.947035 518.478466,216.70408" id="Fill-40" fill="#FFFFFE"></path>
        </g>
    </g>
</svg>