<?xml version="1.0" encoding="UTF-8"?>
<svg width="1353px" height="420px" viewBox="0 0 1353 420" version="1.1" xmlns="http://www.w3.org/2000/svg" xmlns:xlink="http://www.w3.org/1999/xlink">
    <!-- Generator: Sketch 61.2 (89653) - https://sketch.com -->
    <title>direction-sign-other-diversion-route</title>
    <desc>Created with Sketch.</desc>
    <g id="direction-sign-other-diversion-route" stroke="none" stroke-width="1" fill="none" fill-rule="evenodd">
        <g id="Group" transform="translate(0.000000, 33.000000)">
            <path d="M1283.29167,354 C1322.23014,354 1354,322.166879 1354,283.199357 L1354,70.7990355 C1354,31.8090078 1322.23014,0 1283.29167,0 L137.470307,0 C112.032585,0 88.20519,13.5180647 76.29069,34.9903909 L4.76515779,159.094874 C1.58945627,164.661892 0,171.024659 0,176.590069 C0,182.952836 1.58945627,189.315602 4.76515779,194.881012 L76.29069,318.191355 C88.20519,340.480328 112.032585,354 137.470307,354" id="Fill-232" fill="#1A1919"></path>
            <path d="M1285.01105,318 C1304.08381,318 1320,302.094418 1320,282.213245 L1320,69.8092618 C1320,49.9055819 1304.08381,34 1285.01105,34 L137.763679,34 C125.049043,34 113.105477,41.1586372 106.748962,51.4971046 L36,175.602119 L106.748962,299.708742 C113.105477,310.84297 125.049043,318 137.763679,318" id="Fill-233" fill="#FBD033"></path>
            <polyline id="Fill-234" fill="#1A1919" points="309.392521 104 320.607535 104 385.392465 195.328923 385.392465 104 411 104 411 237 380.595497 237 320.607535 146.472507 320.607535 237 295 237 295 104 301.397035 104"></polyline>
            <path d="M734.844658,146.218109 L734.844658,104 L710,104 L710,237 L734.844658,237 L734.844658,180.452228 C734.844658,171.694139 742.85943,163.732678 751.698847,163.732678 C760.513962,163.732678 770.13266,169.305861 770.13266,180.452228 L770.13266,237 L795,237 L795,171.694139 C795,152.587921 778.145811,139.848297 760.513962,139.848297 C744.484418,139.848297 738.050891,145.421481 734.844658,146.218109" id="Fill-235" fill="#1A1919"></path>
            <path d="M1246,174.975019 L1246,237 L1221.36462,237 L1221.36462,177.359606 C1221.36462,170.205844 1215.80645,163.84748 1205.4846,163.84748 C1195.16275,163.84748 1185.63538,172.590432 1185.63538,185.308767 L1185.63538,237 L1161,237 L1161,142.384587 L1185.63538,142.384587 L1185.63538,149.538349 C1185.63538,149.538349 1195.16275,140 1209.45541,140 C1230.91446,140 1246,158.282908 1246,174.975019" id="Fill-236" fill="#1A1919"></path>
            <path d="M485.5,159.344749 C475.082613,159.344749 463.863391,168.830594 463.863391,188.594902 C463.863391,209.169406 475.082613,218.656849 485.5,218.656849 C495.917387,218.656849 507.157667,209.169406 507.157667,188.594902 C507.157667,168.830594 495.917387,159.344749 485.5,159.344749 M485.5,138 C462.259719,138 439,156.182268 439,188.594902 C439,221.02831 462.259719,240 485.5,240 C508.759719,240 532,221.02831 532,188.594902 C532,156.182268 508.759719,138 485.5,138" id="Fill-237" fill="#1A1919"></path>
            <path d="M608,163.84748 L608,140 C585.037536,140 581.081468,146.358364 575.543932,151.922937 L575.543932,142.384587 L551,142.384587 L551,237 L575.543932,237 L575.543932,190.079548 C575.543932,175.770417 591.365006,163.84748 608,163.84748" id="Fill-238" fill="#1A1919"></path>
            <path d="M693,232.483965 L688.230736,211.996743 C671.536703,217.512778 666.767438,212.785203 666.767438,208.844495 L666.767438,161.544849 L691.410781,161.544849 L691.410781,141.057628 L666.767438,141.057628 L666.767438,104 L642.103206,111.092956 L642.103206,141.057628 L627,141.057628 L627,161.544849 L642.103206,161.544849 L642.103206,216.724318 C642.103206,228.544849 649.2796,238 667.562852,238 C681.075232,238 689.819955,233.272425 693,232.483965" id="Fill-239" fill="#1A1919"></path>
            <polyline id="Fill-240" fill="#1A1919" points="1109.09859 237 1117.02592 237 1144 142 1117.02592 142 1102.75608 204.277097 1086.90302 142 1062.30537 142 1046.45071 204.277097 1032.18247 142 1006 142 1032.18247 237 1060.72055 237 1074.98878 177.915815 1090.86588 237 1100.37804 237"></polyline>
            <path d="M882,232.483965 L878.024638,211.996743 C860.537225,217.512778 855.768077,212.785203 855.768077,208.844495 L855.768077,161.544849 L880.409213,161.544849 L880.409213,141.057628 L855.768077,141.057628 L855.768077,104 L831.102839,111.092956 L831.102839,141.057628 L816,141.057628 L816,161.544849 L831.102839,161.544849 L831.102839,216.724318 C831.102839,228.544849 839.074451,238 856.561864,238 C870.075522,238 878.820032,233.272425 882,232.483965" id="Fill-241" fill="#1A1919"></path>
            <path d="M942.5,159.344749 C932.059935,159.344749 920.840713,168.830594 920.840713,188.594902 C920.840713,209.169406 932.861771,218.656849 942.5,218.656849 C952.917387,218.656849 964.936825,209.169406 964.936825,188.594902 C964.936825,168.830594 952.917387,159.344749 942.5,159.344749 M942.5,138 C920.040497,138 896,156.182268 896,188.594902 C896,221.02831 919.238661,240 942.5,240 C966.540497,240 989,221.02831 989,188.594902 C989,156.182268 965.738661,138 942.5,138" id="Fill-242" fill="#1A1919"></path>
            <polygon id="Fill-243" fill="#1A1919" points="76 177.385835 137.078337 70 218 70 156.900826 177.385835 218 284 137.078337 284"></polygon>
        </g>
    </g>
</svg>