<?xml version="1.0" encoding="UTF-8"?>
<svg width="420px" height="420px" viewBox="0 0 420 420" version="1.1" xmlns="http://www.w3.org/2000/svg" xmlns:xlink="http://www.w3.org/1999/xlink">
    <!-- Generator: Sketch 61.2 (89653) - https://sketch.com -->
    <title>direction-sign-other-emergency-diversion-circle</title>
    <desc>Created with Sketch.</desc>
    <g id="direction-sign-other-emergency-diversion-circle" stroke="none" stroke-width="1" fill="none" fill-rule="evenodd">
        <g id="Group-2">
            <path d="M420,364.187167 C420,395.124438 394.608712,420 363.70204,420 L56.2979601,420 C25.3901726,420 0,395.124438 0,364.187167 L0,55.812833 C0,24.9984046 24.976463,0 55.7459756,0 L56.3280684,0 L363.70204,0 C394.608712,0 420,24.8599279 420,55.812833 L420,364.187167 Z" id="Fill-32" fill="#FBD033"></path>
            <path d="M419,364.187219 L419,55.8127809 C419,25.5227632 394.168335,1 363.701704,1 L55.7466526,1 C25.5268026,1 1,25.5533235 1,55.8127809 L1,364.187219 C1,394.467222 25.8370817,419 56.2982962,419 L363.701704,419 C394.162918,419 419,394.467222 419,364.187219 Z" id="Stroke-33" stroke="#1A1919" stroke-width="2"></path>
            <path d="M209.499442,56 C294.229644,56 363,124.767635 363,209.5 C363,294.233477 294.229644,363 209.499442,363 C124.770356,363 56,294.233477 56,209.5 C56,124.767635 124.770356,56 209.499442,56" id="Fill-34" fill="#1A1919"></path>
            <path d="M208.999445,98 C270.274594,98 320,148.177311 320,209.999443 C320,271.821574 270.274594,322 208.999445,322 C147.725406,322 98,271.821574 98,209.999443 C98,148.177311 147.725406,98 208.999445,98" id="Fill-35" fill="#FBD033"></path>
            <path d="M209,98 C270.275052,98 320,148.177839 320,210 C320,271.822161 270.275052,322 209,322 C147.724948,322 98,271.822161 98,210 C98,148.177839 147.724948,98 209,98" id="Stroke-36" stroke="#1A1919" stroke-width="0.036"></path>
        </g>
    </g>
</svg>