<?xml version="1.0" encoding="UTF-8"?>
<svg width="700px" height="392px" viewBox="0 0 700 392" version="1.1" xmlns="http://www.w3.org/2000/svg" xmlns:xlink="http://www.w3.org/1999/xlink">
    <!-- Generator: Sketch 61.2 (89653) - https://sketch.com -->
    <title>information-sign-motorway-exit-countdown-markers</title>
    <desc>Created with Sketch.</desc>
    <g id="information-sign-motorway-exit-countdown-markers" stroke="none" stroke-width="1" fill="none" fill-rule="evenodd">
        <g id="Group" transform="translate(0.609694, 12.000000)">
            <path d="M0,30.5126614 C0,13.557515 13.6041172,0 30.6073898,0 L182.70117,0 C199.395258,0 213,13.557515 213,30.5126614 L213,333.796271 C213,350.443108 199.395258,364 182.70117,364 L30.6073898,364 C13.6041172,364 0,350.443108 0,333.796271 L0,30.5126614 Z" id="Fill-114" fill="#FFFFFE"></path>
            <path d="M0,30.5123563 C0,13.5572433 13.6043279,0 30.6075919,0 L182.701402,0 C199.395672,0 213,13.5572433 213,30.5123563 L213,333.795763 C213,350.442757 199.395672,364 182.701402,364 L30.6075919,364 C13.6043279,364 0,350.442757 0,333.795763 L0,30.5123563 Z" id="Stroke-115" stroke="#0070AD" stroke-width="2"></path>
            <path d="M7,30.8156819 C7,18.1702081 17.2049933,8 29.8923161,8 L182.107684,8 C194.795007,8 205,18.1702081 205,30.8156819 L205,334.184318 C205,346.829169 194.795007,357 182.107684,357 L29.8923161,357 C17.2049933,357 7,346.829169 7,334.184318 L7,30.8156819 Z" id="Fill-116" fill="#0070AD"></path>
            <polyline id="Fill-117" fill="#FFFFFE" points="175.415614 311 22 233.096553 35.8843897 206 189 284.211454"></polyline>
            <polyline id="Fill-118" fill="#FFFFFE" points="175.415614 236 22 158.096553 35.8843897 131 189 209.211454"></polyline>
            <polyline id="Fill-119" fill="#FFFFFE" points="175.415614 159 22 81.0981794 35.8843897 54 189 132.217321"></polyline>
        </g>
        <g id="Group-3" transform="translate(487.000000, 12.000000)">
            <path d="M0,30.5126614 C0,13.557515 13.5965554,0 30.5999015,0 L182.699926,0 C199.395324,0 213,13.557515 213,30.5126614 L213,333.796271 C213,350.443108 199.395324,364 182.699926,364 L30.5999015,364 C13.5965554,364 0,350.443108 0,333.796271 L0,30.5126614 Z" id="Fill-120" fill="#FFFFFE"></path>
            <path d="M0,30.5123563 C0,13.5572433 13.5962926,0 30.6002418,0 L182.700181,0 C199.395124,0 213,13.5572433 213,30.5123563 L213,333.795763 C213,350.442757 199.395124,364 182.700181,364 L30.6002418,364 C13.5962926,364 0,350.442757 0,333.795763 L0,30.5123563 Z" id="Stroke-121" stroke="#0070AD" stroke-width="2"></path>
            <path d="M8,30.8156819 C8,18.1702081 18.2132935,8 30.8913043,8 L183.099944,8 C195.787332,8 206,18.1702081 206,30.8156819 L206,334.184318 C206,346.829169 195.787332,357 183.099944,357 L30.8913043,357 C18.2132935,357 8,346.829169 8,334.184318 L8,30.8156819 Z" id="Fill-122" fill="#0070AD"></path>
            <polyline id="Fill-123" fill="#FFFFFE" points="176.132515 311 23 233.096553 36.8674846 206 190 284.211454"></polyline>
        </g>
        <g id="Group-2" transform="translate(244.000000, 12.000000)">
            <path d="M0,30.5126614 C0,13.557515 13.5131058,0 30.4127137,0 L181.885895,0 C198.478203,0 212,13.557515 212,30.5126614 L212,333.796271 C212,350.443108 198.478203,364 181.885895,364 L30.4127137,364 C13.5131058,364 0,350.443108 0,333.796271 L0,30.5126614 Z" id="Fill-124" fill="#FFFFFE"></path>
            <path d="M0,30.5123563 C0,13.5572433 13.5128566,0 30.4124583,0 L181.886121,0 C198.478613,0 212,13.5572433 212,30.5123563 L212,333.795763 C212,350.442757 198.478613,364 181.886121,364 L30.4124583,364 C13.5128566,364 0,350.442757 0,333.795763 L0,30.5123563 Z" id="Stroke-125" stroke="#0070AD" stroke-width="2"></path>
            <path d="M8,30.8156819 C8,18.1702081 18.1371627,8 30.7407762,8 L182.251151,8 C194.54739,8 205,18.1702081 205,30.8156819 L205,334.184318 C205,346.829169 194.54739,357 182.251151,357 L30.7407762,357 C18.1371627,357 8,346.829169 8,334.184318 L8,30.8156819 Z" id="Fill-126" fill="#0070AD"></path>
            <polyline id="Fill-127" fill="#FFFFFE" points="176.215554 311 24 233.096553 37.7844457 206 190 284.211454"></polyline>
            <polyline id="Fill-128" fill="#FFFFFE" points="176.215554 236 24 158.096553 37.7844457 131 190 209.211454"></polyline>
        </g>
    </g>
</svg>