<?xml version="1.0" encoding="UTF-8"?>
<svg width="498px" height="420px" viewBox="0 0 498 420" version="1.1" xmlns="http://www.w3.org/2000/svg" xmlns:xlink="http://www.w3.org/1999/xlink">
    <!-- Generator: Sketch 61.2 (89653) - https://sketch.com -->
    <title>Information-sign-camera-area</title>
    <desc>Created with Sketch.</desc>
    <g id="Information-sign-camera-area" stroke="none" stroke-width="1" fill="none" fill-rule="evenodd">
        <g id="Group-130" transform="translate(8.000000, 0.000000)">
            <path d="M238.779625,5.859875 L51.751875,5.859875 C23.604,5.859875 0.784,28.679875 0.784,56.82775 L0.784,363.068125 C0.784,391.22825 23.604,414.04825 51.751875,414.04825 L425.8065,414.04825 C453.954375,414.04825 476.774375,391.22825 476.774375,363.068125 L476.774375,56.82775 C476.774375,28.679875 453.954375,5.859875 425.8065,5.859875 L238.779625,5.859875 Z" id="Fill-126" fill="#1A1919"></path>
            <path d="M238.779625,31.343375 L51.751875,31.343375 C37.678375,31.343375 26.268375,42.753375 26.268375,56.82775 L26.268375,363.068125 C26.268375,377.1425 37.678375,388.5525 51.751875,388.5525 L425.8065,388.5525 C439.88,388.5525 451.290875,377.1425 451.290875,363.068125 L451.290875,56.82775 C451.290875,42.753375 439.88,31.343375 425.8065,31.343375 L238.779625,31.343375 Z" id="Fill-128" fill="#FFFFFE"></path>
            <path d="M349.35775,286.614125 L349.35775,150.555125 L363.6115,150.555125 L363.6115,176.038625 L408.9645,176.038625 L408.9645,261.12975 L363.6115,261.12975 L363.6115,303.471 L294.9345,303.471 L294.9345,286.614125 L349.35775,286.614125 Z M322.146125,129.38975 L335.967625,129.38975 L335.967625,273.655375 L322.146125,273.655375 L322.146125,129.38975 Z M308.756,119.455875 L294.9345,119.455875 L294.9345,273.655375 L308.756,273.655375 L308.756,119.455875 Z M221.505375,107.793 L221.505375,107.793 C230.804,107.793 238.350875,115.339875 238.350875,124.6385 C238.350875,133.937125 230.804,141.484 221.505375,141.484 C212.20675,141.484 204.659875,133.937125 204.659875,124.6385 C204.659875,115.339875 212.20675,107.793 221.505375,107.793 L221.505375,107.793 Z M221.505375,92.243375 L221.505375,92.243375 C239.3825,92.243375 253.9005,106.761375 253.9005,124.6385 C253.9005,142.527875 239.3825,157.033625 221.505375,157.033625 C203.62825,157.033625 189.11025,142.527875 189.11025,124.6385 C189.11025,106.761375 203.62825,92.243375 221.505375,92.243375 L221.505375,92.243375 Z M153.692,221.823875 L153.692,221.823875 C175.156625,221.823875 192.565625,239.245125 192.565625,260.6975 C192.565625,282.162125 175.156625,299.572 153.692,299.572 C132.227375,299.572 114.8175,282.162125 114.8175,260.6975 C114.8175,239.245125 132.227375,221.823875 153.692,221.823875 L153.692,221.823875 Z M153.692,205.842 L153.692,205.842 C184.2155,205.842 208.97975,230.60625 208.97975,261.12975 C208.97975,291.65325 184.2155,316.428875 153.692,316.428875 C123.18075,316.428875 98.40425,291.65325 98.40425,261.12975 C98.40425,230.60625 123.18075,205.842 153.692,205.842 L153.692,205.842 Z M175.072625,74.102875 L102.508,74.102875 C83.778625,74.102875 68.600875,89.292 68.600875,108.009125 L68.600875,312.31375 C68.600875,331.0545 83.778625,346.220875 102.508,346.220875 L247.63725,346.220875 C266.366625,346.220875 281.544375,331.0545 281.544375,312.31375 L281.544375,108.009125 C281.544375,89.292 266.366625,74.102875 247.63725,74.102875 L175.072625,74.102875 Z" id="Fill-129" fill="#1A1919"></path>
        </g>
    </g>
</svg>