<?xml version="1.0" encoding="UTF-8"?>
<svg width="588px" height="420px" viewBox="0 0 588 420" version="1.1" xmlns="http://www.w3.org/2000/svg" xmlns:xlink="http://www.w3.org/1999/xlink">
    <!-- Generator: Sketch 61.2 (89653) - https://sketch.com -->
    <title>road-work-sign-temporary-hazard</title>
    <desc>Created with Sketch.</desc>
    <g id="road-work-sign-temporary-hazard" stroke="none" stroke-width="1" fill="none" fill-rule="evenodd">
        <g id="Group">
            <polygon id="Fill-85" fill="#FFFFFE" points="0 41.0181814 0 39.154104 0.464160927 36.8237717 0.464160927 34.4943813 1.39154508 29.8346586 2.33205702 27.9705811 2.79621795 25.6411908 3.7236021 23.7771133 5.11514719 21.446781 6.04346904 19.5836455 10.2181043 13.9914131 14.8569005 9.33169043 18.5683125 6.53604521 20.4230808 5.60447745 22.2787868 4.19346783 24.5986537 3.26190007 26.917583 2.79564522 28.773289 1.86407746 33.4242752 0.931567764 35.2799812 0.465312918 37.5998482 0 549.021735 0 551.340664 0.465312918 553.660531 0.465312918 558.299327 1.39782261 560.155033 2.32939037 562.473962 2.79564522 564.342796 3.72721299 566.661725 5.1382226 568.517431 6.0707323 574.083611 10.2642001 575.475157 11.6620227 577.330863 13.0598453 581.505498 18.6511358 583.361204 22.3792907 584.752749 24.7086811 585.21691 26.5727585 586.144294 28.9030908 587.072616 33.5628135 587.535839 35.425949 588 37.7562814 588 307.641541 587.535839 309.505619 586.608455 314.165341 585.681071 316.029419 585.21691 318.358809 584.288588 320.222887 583.361204 322.553219 577.795023 330.020832 573.156227 334.680555 569.444815 337.477142 567.589109 338.40871 565.27018 339.806532 561.546578 341.67061 559.226711 342.135923 556.907782 343.068432 554.587915 343.534687 552.732209 343.534687 550.41328 344 36.6715263 344 29.7006731 342.602177 27.8449671 341.67061 25.5260379 341.204355 23.6703319 340.272787 21.3514026 339.340277 17.6399906 336.544632 15.7842846 335.613064 13.9295163 334.215242 12.5370335 332.351164 10.6822652 330.953342 6.50669227 325.361109 4.65192396 321.620709 3.26037887 319.291319 2.79621795 317.427241 1.85570601 315.096909 1.39154508 312.767519 0.927384155 310.903441 0 306.243719"></polygon>
            <path d="M1,306.145282 L1.89814789,310.661902 L2.37237414,312.572011 L2.8179192,314.809783 L3.72341206,317.052574 L3.76653261,317.185438 L4.19471875,318.905906 L5.54747793,321.176281 L7.36268004,324.83572 L11.3978331,330.240188 L13.2533324,331.638088 L14.6449569,333.501956 L16.3141937,334.759529 L18.0889537,335.650911 L18.2418564,335.74583 L21.8475211,338.462274 L24.1193265,339.378646 L25.8547286,340.25026 L28.1741027,340.716227 L30.0294397,341.648079 L36.7711593,343 L550.313796,343 L552.535661,342.553623 L552.732628,342.534033 L554.48867,342.534033 L556.620182,342.105808 L558.854042,341.208234 L559.029909,341.155722 L561.21859,340.716012 L564.753935,338.94983 L567.140683,337.514779 L568.915443,336.623397 L572.49748,333.924753 L577.035656,329.36611 L582.481265,322.059892 L583.393772,319.777144 L584.262059,318.032738 L584.725933,315.702904 L585.653736,313.83893 L586.565727,309.264002 L587,307.519076 L587,37.8545949 L586.565727,35.6679317 L586.091501,33.7578234 L585.181612,29.1878609 L584.2877,26.9430038 L584.246353,26.8145623 L583.818171,25.0941124 L582.466022,22.8249558 L580.650622,19.1777811 L576.615052,13.7727555 L574.873652,12.4608153 L574.766684,12.367628 L573.42523,11.0201246 L567.987075,6.92311478 L566.142066,5.99293224 L563.896036,4.62259401 L562.146653,3.75001768 L559.825897,3.28377321 L557.970398,2.35183958 L553.56092,1.46596681 L551.341003,1.46596681 L551.144037,1.44637706 L548.922172,1 L37.69884,1 L35.5238224,1.43585147 L33.6212002,1.91244911 L29.101609,2.81792862 L27.2463531,3.74974002 L24.8855707,4.22402582 L22.7768157,5.07133186 L21.0286418,6.40057013 L20.8722027,6.49816501 L19.0974427,7.38954693 L15.515405,10.0881909 L10.9769344,14.6471291 L6.89797604,20.1102674 L5.97402002,21.9602112 L4.61911361,24.2228562 L3.75082676,25.9672615 L3.28640267,28.2998543 L2.3457676,30.1637216 L1.46387483,34.5930713 L1.46387483,36.8243218 L1.44462449,37.0195911 L1,39.2527394 L1,306.145282 Z" id="Stroke-86" stroke="#D0383F" stroke-width="2"></path>
            <polygon id="Fill-87" fill="#D0383F" points="20 41.4373539 20 40.0440046 20.9297368 36.3277807 21.393666 34.9344314 21.8585344 33.0763195 24.6458665 28.8962717 26.0395325 27.5029224 26.9692693 26.1095732 29.7566013 24.2514612 31.6273444 23.3228747 33.0210104 22.3933493 34.8795448 21.9285865 36.2732109 21.4647627 38.1317453 21.4647627 39.9902797 21 548.939457 21 552.656526 21.9285865 554.050192 22.3933493 555.908726 22.858112 560.089724 25.6448105 561.48339 27.0381597 562.877056 27.9667463 564.748739 30.7543837 565.677536 32.6115567 566.606334 34.0058449 567.071202 35.3991942 567.536071 37.2563672 567.536071 39.1144792 568 40.9725912 568 304.420758 567.536071 305.814107 567.071202 307.672219 566.606334 309.065569 566.142405 310.923681 565.212668 312.31703 564.28387 314.175142 563.341925 315.568491 561.948259 316.497078 561.018522 317.890427 559.624856 318.819952 558.23119 319.748539 556.372656 320.677125 554.97899 321.606651 553.120455 322.071413 551.726789 322.535237 549.869194 323 39.061482 323 37.2029476 322.535237 35.3444132 322.535237 33.9507472 322.071413 32.0922128 321.141888 26.5044009 317.426603 25.1107349 316.033254 22.3234028 311.852267 21.393666 309.994155 20.9297368 308.600806 20.4648684 306.743633 20.4648684 304.885521 20 303.492172"></polygon>
            <polygon id="Fill-88" fill="#FFFFFE" points="164.376318 94.7001116 184.470167 99.3498208 188.121749 100.280327 189.490862 101.209892 190.859974 101.675145 192.229087 102.604711 193.598199 103.99953 194.967312 104.930036 197.705537 109.114492 198.618894 110.974564 199.087566 112.369383 199.544244 114.229454 200 115.624273 200 122.598367 199.544244 123.06362 199.544244 124.922752 199.087566 124.922752 198.162215 128.656054 197.249781 130.516125 196.336425 131.910944 195.42399 133.770076 194.054878 135.165834 194.510634 135.165834 191.772408 137.955472 187.665071 140.74511 185.83928 141.674675 184.470167 142.139928 180.818585 143.069494 180.362829 143.534747 178.08036 143.534747 175.798813 144 169.39609 144 167.114543 143.534747 164.832074 143.534747 162.550527 142.605181 160.268058 142.139928 158.44319 141.210362 156.16072 140.74511 154.334929 139.350291 152.510061 138.419785 150.227592 137.490219 148.401801 136.0954 143.837785 131.445691 142.456678 129.585619 142 129.120367 152.053383 120.738295 153.422495 122.598367 156.16072 125.401163 157.986511 126.795982 159.355624 128.190801 161.181415 129.585619 163.007206 130.516125 163.462961 130.516125 164.832074 130.980438 168.483656 131.910944 170.309447 131.910944 172.147231 132.375257 173.973022 131.910944 175.798813 131.910944 177.167926 131.445691 180.818585 130.516125 182.18862 129.585619 183.101055 129.120367 184.013489 128.190801 184.926846 127.725548 185.83928 126.795982 186.752637 125.401163 187.208392 124.458439 187.208392 123.06362 187.665071 122.133114 187.665071 119.343476 187.208392 118.413911 186.752637 117.019092 186.295958 116.088586 183.557733 113.298948 181.731942 112.369383 180.362829 111.90413 160.268058 107.25442 158.44319 106.789168 157.074077 105.859602 155.248286 104.930036 152.510061 103.069964 151.140948 101.675145 149.770913 100.74464 148.858479 99.3498208 147.946045 97.4897492 147.032688 96.0949304 146.576932 94.7001116 145.663575 92.8409799 145.20782 90.9809082 145.20782 89.5860894 144.751141 87.7260177 144.751141 83.9936556 145.20782 83.5284027 145.20782 81.6683311 145.663575 79.8082594 146.576932 78.4134406 147.032688 76.553369 148.858479 73.7637314 151.596704 70.9740939 152.510061 69.5792751 153.879173 68.6497092 155.704964 67.7192034 157.074077 66.7896375 158.898945 66.3243847 160.724736 65.3948188 167.571222 64 174.429701 64 176.711248 64.464313 178.993717 64.464313 181.275264 64.9295659 181.731942 64.9295659 181.275264 64.9295659 183.557733 65.3948188 184.926846 65.8600717 186.752637 66.7896375 188.577505 67.2548904 190.403296 68.1844563 191.772408 69.5792751 193.141521 70.508841 194.967312 71.9045997 195.879746 73.2994184 197.249781 74.6942372 198.162215 76.089056 198.618894 76.553369 188.577505 84.9363802 186.752637 82.133584 184.470167 79.8082594 180.362829 77.0186219 178.537039 76.553369 177.167926 76.089056 176.711248 76.089056 174.885457 75.6238031 167.571222 75.6238031 163.91964 76.553369 163.462961 77.0186219 162.093849 77.4838748 161.181415 77.9491277 159.355624 79.8082594 157.986511 82.5988369 157.529833 83.9936556 157.529833 87.2607648 157.986511 88.1912706 158.44319 89.5860894 159.355624 91.4452212 161.181415 93.3052928 162.093849 93.7705457 163.007206 94.2357986"></polygon>
            <polygon id="Fill-89" fill="#FFFFFE" points="222 142 266 142 266 130.557488 235.253047 130.557488 235.253047 66 222 66"></polygon>
            <path d="M312.50652,144 L314.810034,144 L317.114478,143.533952 L319.879067,143.533952 L322.18258,143.068845 L322.643656,143.068845 L324.487025,142.136749 L326.330395,141.671642 L328.633908,140.739546 L330.477277,139.808391 L331.859572,138.411188 L333.702941,137.013985 L335.085236,136.081889 L336.928605,134.684686 L338.310899,132.821434 L339.693194,131.424231 L341.088529,129.561922 L341.088529,129.095873 L342.470823,127.232622 L343.392042,125.369371 L344.314192,123.027832 L345.235411,121.164581 L345.696487,119.302271 L346.15663,116.972972 L346.617706,115.575769 L347.078781,112.781363 L347.538925,110.452063 L348,107.657657 L348,97.8772361 L347.538925,95.0818885 L346.15663,88.0958734 L345.696487,86.2326222 L344.774336,84.369371 L343.853117,82.027832 L342.009748,78.3022711 L341.088529,76.9050681 L340.166378,75.0418169 L338.771043,73.6446139 L337.388749,71.7813627 L335.546311,70.3841596 L334.164017,68.9869566 L332.320647,68.0548603 L330.938353,66.6576572 L327.251614,64.7953476 L324.9481,63.8632512 L323.104731,63.397203 L322.643656,62.9320964 L320.340142,62.4660482 L317.574622,62.4660482 L315.271109,62 L310.189966,62 L307.424446,62.4660482 L305.120933,62.4660482 L302.81742,62.9320964 L302.356344,62.9320964 L298.669605,64.7953476 L296.366092,65.2604542 L294.522723,66.6576572 L293.140428,67.5897536 L291.297059,68.9869566 L289.453689,69.9181115 L288.071395,71.7813627 L285.306806,74.5757687 L283.924512,76.4390199 L283.924512,76.9050681 L282.529177,78.7673778 L281.607958,80.630629 L280.685808,82.9599284 L279.764589,84.8354192 L279.303513,87.1647186 L278.382294,89.0270283 L278.382294,90.4242313 L277.921219,93.2195788 L277.461075,95.5479367 L277,98.3423428 L277,108.123705 L277.461075,110.918111 L278.84337,117.904127 L279.303513,119.767378 L280.225664,122.096677 L283.003293,127.69867 L283.924512,129.095873 L283.463437,129.095873 L284.845731,130.959125 L287.611251,133.753531 L288.993545,135.616782 L290.835983,137.013985 L292.219209,137.94514 L294.061647,139.342343 L297.748386,141.205594 L300.0519,142.136749 L301.895269,142.602797 L302.356344,143.068845 L304.659858,143.533952 L306.964303,143.533952 L309.728891,144 L312.50652,144 Z M312.50652,132.356328 L314.34989,131.890279 L316.192328,131.890279 L319.879067,130.959125 L321.261361,130.493076 L323.104731,129.561922 L324.487025,128.629825 L326.330395,127.69867 L328.633908,125.369371 L332.320647,119.767378 L332.320647,119.302271 L333.241866,116.972972 L334.62416,109.986957 L334.62416,107.657657 L335.085236,105.329299 L335.085236,100.671642 L334.62416,98.3423428 L334.62416,95.5479367 L333.241866,88.5619216 L332.320647,86.6986704 L331.859572,85.3014674 L330.938353,83.425035 L330.016202,82.027832 L327.712689,79.6994741 L326.330395,78.7673778 L326.330395,78.3022711 L324.487025,77.3701748 L323.104731,76.4390199 L321.261361,75.5069236 L319.417992,75.0418169 L318.035697,74.5757687 L316.192328,74.1097205 L314.34989,74.1097205 L312.50652,73.6446139 L310.65011,74.1097205 L308.807672,74.1097205 L305.120933,75.0418169 L303.738639,75.5069236 L300.0519,77.3701748 L297.287311,79.233426 L295.443942,82.027832 L294.061647,83.425035 L293.601503,84.8354192 L292.679353,86.2326222 L292.679353,86.6986704 L291.758134,89.0270283 L289.914764,98.3423428 L289.914764,107.657657 L290.37584,110.452063 L291.758134,117.43902 L292.679353,119.302271 L293.140428,120.699474 L294.061647,122.561784 L294.983798,123.958987 L297.287311,126.301467 L298.669605,127.232622 L298.669605,127.69867 L300.0519,128.629825 L303.738639,130.493076 L305.120933,130.959125 L306.964303,131.424231 L308.807672,131.890279 L310.65011,131.890279 L312.50652,132.356328 Z" id="Fill-90" fill="#FFFFFE"></path>
            <polygon id="Fill-91" fill="#FFFFFE" points="392.665216 142 377.738527 142 360 66 373.540572 66 386.135379 118.64499 398.27569 66 412.736568 66 424.877822 118.64499 437.471686 66 451 66 433.273731 142 418.333841 142 405.739034 85.692259"></polygon>
            <polygon id="Fill-92" fill="#FFFFFE" points="94.4988608 278 80.099432 278 62 202 75.4584798 202 88.0022783 254.516436 100.068566 202 114.919238 202 126.99866 254.516436 139.528386 202 153 202 134.888372 278 120.036763 278 107.493902 221.351835"></polygon>
            <polygon id="Fill-93" fill="#FFFFFE" points="169 278 220 278 220 266.48812 182.229183 266.48812 182.229183 245.308235 214.807932 245.308235 214.807932 233.783324 182.229183 233.783324 182.229183 213.52398 217.639622 213.52398 217.639622 202 169 202"></polygon>
            <polygon id="Fill-94" fill="#FFFFFE" points="264.530662 278 264.530662 213.52398 286 213.52398 286 202 230 202 230 213.52398 251.45708 213.52398 251.45708 278"></polygon>
            <polygon id="Fill-95" fill="#FFFFFE" points="358.198502 278 358.198502 213.52398 379 213.52398 379 202 324 202 324 213.52398 344.801498 213.52398 344.801498 278"></polygon>
            <path d="M434.852463,263.725567 L439.502617,278 L453,278 L427.411465,202 L411.588535,202 L386,278 L399.498323,278 L404.148477,263.725567 L434.852463,263.725567 Z M431.597261,253.135159 L407.403679,253.135159 L419.49389,217.207074 L431.597261,253.135159 Z" id="Fill-96" fill="#FFFFFE"></path>
            <path d="M500.578749,213.52398 L483.947823,213.52398 L483.947823,236.546808 L505.660758,236.546808 L506.12208,236.086073 L507.046591,235.625337 L509.83133,232.862784 L510.292651,231.942243 L511.217162,230.560966 L511.678484,229.178759 L511.678484,227.797482 L512.14074,226.416205 L512.14074,225.034929 L511.678484,224.575124 L511.678484,222.272375 L510.754907,219.509822 L509.83133,218.588351 L508.906819,217.207074 L508.445497,216.286533 L507.046591,215.365992 L506.12208,214.905256 L504.736247,213.984716 L503.350414,213.984716 L501.964582,213.52398 L500.578749,213.52398 Z M471,278 L471,202 L504.274925,202 L505.660758,202.459805 L509.369074,203.381277 L510.754907,204.314848 L512.602995,205.235389 L515.37466,207.077402 L518.146326,209.839955 L519.070837,211.221232 L520.456669,212.602508 L522.766079,217.207074 L523.228335,218.588351 L524.151912,222.272375 L524.151912,229.639494 L522.766079,235.164601 L521.842502,236.546808 L520.917991,238.38789 L520.456669,238.848626 L519.994414,240.229903 L519.070837,241.611179 L517.68407,242.532651 L516.760493,243.466223 L513.988828,245.308235 L512.602995,245.76804 L511.217162,246.228776 L510.292651,246.689512 L526,278 L512.14074,278 L497.344828,248.070788 L483.947823,248.070788 L483.947823,278 L471,278 Z" id="Fill-97" fill="#FFFFFE"></path>
        </g>
    </g>
</svg>