<?xml version="1.0" encoding="UTF-8"?>
<svg width="476px" height="420px" viewBox="0 0 476 420" version="1.1" xmlns="http://www.w3.org/2000/svg" xmlns:xlink="http://www.w3.org/1999/xlink">
    <!-- Generator: Sketch 61.2 (89653) - https://sketch.com -->
    <title>road-work-sign-road-works</title>
    <desc>Created with Sketch.</desc>
    <g id="road-work-sign-road-works" stroke="none" stroke-width="1" fill="none" fill-rule="evenodd">
        <g id="Group" transform="translate(0.000000, -2.648936)">
            <path d="M31.3589922,420.648936 C13.8988559,420.648936 0,406.77391 0,389.35377 C0,383.29984 1.06903201,378.678185 4.27396838,373.345783 L210.569071,16.6468623 C216.266975,6.69280478 226.604551,0.64893617 238.00036,0.64893617 C249.406248,0.64893617 259.733745,6.69280478 265.441728,16.6468623 L471.726752,373.345783 C474.931688,378.678185 476,383.29984 476,389.35377 C476,406.77391 462.111223,420.648936 444.651086,420.648936 L444.295462,420.648936 L444.651086,420.648936 L31.3589922,420.648936" id="Fill-25809" fill="#D0383F"></path>
            <polygon id="Fill-25810" fill="#FFFFFE" points="427 378.648936 50 378.648936 238.31695 52.6489362"></polygon>
            <path d="M246.742883,245.760373 C240.673252,237.194435 238.891415,235.05313 230.336722,229.332644 C229.623411,228.619117 228.198229,228.976241 228.198229,230.046894 C228.554164,232.901725 228.91082,235.766658 228.91082,238.622211 C228.91082,247.18815 228.198229,251.113634 224.989769,258.966045 L216.42571,273.608873 C215.713119,274.3224 216.782366,275.750177 217.851612,275.036649 L241.742499,260.036697 L247.098818,248.258802 C247.455474,247.18815 247.455474,246.473901 246.742883,245.760373 L246.742883,245.760373 Z M287.039931,190.063374 C287.752522,190.063374 288.465113,190.420499 288.821768,191.491151 L298.089052,224.692911 L294.881312,226.834216 L272.772263,191.848276 C271.703016,191.134026 272.415607,189.349847 273.841509,189.349847 L287.039931,190.063374 Z M276.336658,268.612015 C276.336658,268.612015 289.891015,305.026453 290.247671,305.382856 C290.604326,306.810633 291.316917,307.881285 292.386164,308.595534 L331.257309,340.013115 C332.683211,341.083767 333.395802,342.510822 333.752458,343.938599 C333.395802,343.938599 333.752458,346.437028 333.752458,346.437028 C333.752458,352.147413 331.257309,357.510774 327.326891,361.43698 C326.61358,361.43698 326.61358,362.150507 326.61358,362.864756 C326.61358,363.578284 327.326891,364.648936 328.396138,364.648936 L333.752458,364.648936 C338.029444,364.648936 342.30715,362.150507 344.445643,358.225023 L357.643344,336.086909 C357.643344,335.373381 358,335.016257 358,334.302008 C358,333.231356 357.287409,332.160704 356.218163,331.447176 L348.366694,327.878095 L321.267348,296.460514 C320.198101,295.389862 318.772199,294.676335 316.990361,294.676335 C316.27705,294.676335 315.564459,295.032738 314.495213,295.389862 C312.712655,293.238458 312.000064,291.454278 311.643408,288.955849 L298.445707,234.696006 L302.366038,232.188198 C304.148596,233.25885 305.930433,233.982478 308.079013,233.982478 C309.14826,233.982478 309.861571,233.982478 310.930818,233.25885 C313.425966,231.831073 314.495213,230.760421 315.921115,228.261992 C316.633706,227.904868 316.633706,226.834216 316.633706,226.120688 L316.633706,225.763563 C316.27705,223.622259 314.851868,221.480955 313.069311,220.410303 C310.930818,218.982526 309.504915,216.841222 309.14826,213.985668 C309.14826,204.349799 307.009767,193.98958 303.079349,185.066517 C301.653447,181.141033 298.802363,178.285479 295.237968,176.144175 C284.534695,171.137217 273.128919,168.639509 261.356399,168.639509 L256.010167,168.639509 C252.801707,168.639509 250.307278,169.710161 247.455474,171.504442 L234.257773,180.426783 C233.901117,180.783908 233.187806,180.783908 232.831871,180.783908 C231.405969,180.783908 229.980067,179.713256 229.980067,178.285479 C229.980067,177.571952 230.336722,177.214827 230.336722,176.501299 C230.336722,167.92526 225.346425,160.073571 217.851612,156.147365 C215.356463,154.363185 212.861315,153.648936 210.010231,153.648936 C207.158426,153.648936 205.375869,154.006061 202.88144,155.433837 C199.317045,156.861614 196.099218,159.716446 193.960725,162.928402 C192.178168,165.426831 191.465577,168.282385 191.465577,171.504442 C191.465577,179.713256 198.237711,187.564945 206.08918,190.420499 L214.643873,191.848276 C216.069054,191.848276 217.494956,192.918928 217.494956,194.703107 C217.494956,195.416635 216.782366,196.130884 216.42571,196.844412 L207.158426,205.776854 C206.801771,206.847506 206.445836,207.561755 206.445836,208.632407 L206.445836,211.130836 C206.445836,221.12383 207.871017,231.831073 210.366166,241.477765 C210.722822,242.90482 211.079477,243.975472 211.079477,245.046846 C211.079477,246.831025 210.722822,248.258802 210.010231,250.042982 L197.5244,280.032786 C197.168465,281.103438 196.811809,282.531214 196.811809,283.601867 C196.811809,285.029643 197.168465,286.45742 197.881056,287.528072 L182.910884,297.174042 C181.841638,294.676335 180.772391,293.238458 178.989833,291.810681 L176.841253,290.740029 L167.218034,287.885197 C165.435477,287.170948 163.653639,285.743171 162.584393,283.958991 L155.445515,272.894624 C155.445515,272.538221 155.088859,272.181096 154.732924,271.823971 L149.742627,270.039792 L139.049441,268.612015 L137.980195,268.612015 C134.772455,268.612015 131.554628,270.396916 129.772071,273.608873 L77,364.648936 L198.594367,364.648936 C199.67298,364.648936 200.386292,363.578284 200.386292,362.507632 C200.386292,362.507632 200.386292,362.150507 184.692722,306.097105 L201.812194,295.389862 C202.524785,296.10339 203.594031,296.10339 204.663278,296.10339 C205.732524,296.10339 206.445836,296.10339 207.158426,295.746987 L214.643873,292.167805 C216.42571,291.097153 217.494956,289.669377 217.494956,287.528072 C217.494956,286.814545 217.138301,286.45742 217.138301,285.743171 L236.752201,273.608873 L233.901117,280.747035 C231.405969,287.170948 229.980067,293.951985 229.980067,300.743123 L227.484918,348.578332 L226.772327,353.218065 C226.772327,353.57519 226.415671,353.932314 226.059736,353.932314 L211.079477,358.225023 C209.653575,358.581426 208.584329,360.009203 208.584329,361.43698 C208.584329,363.221881 210.010231,364.648936 211.792068,364.648936 L247.098818,364.648936 C249.237311,364.648936 250.663214,363.221881 251.019869,361.079855 C253.158362,343.938599 255.296855,326.807443 257.792004,309.309062 C257.792004,308.951937 257.792004,308.595534 257.435348,308.23841 L256.366102,307.881285 C255.653511,307.881285 255.296855,307.167757 255.296855,306.097105 L255.296855,301.457372 C255.296855,300.38672 255.296855,299.672471 256.010167,298.958943 C267.069375,285.743171 267.781966,284.672519 274.554821,268.96914 C274.554821,268.612015 274.910756,268.25489 275.267412,268.25489 C275.624067,268.25489 275.980002,268.612015 276.336658,268.612015 L276.336658,268.612015 Z" id="Fill-25811" fill="#1A1919"></path>
        </g>
    </g>
</svg>