<?xml version="1.0" encoding="UTF-8"?>
<svg width="355px" height="420px" viewBox="0 0 355 420" version="1.1" xmlns="http://www.w3.org/2000/svg" xmlns:xlink="http://www.w3.org/1999/xlink">
    <!-- Generator: Sketch 61.2 (89653) - https://sketch.com -->
    <title>road-work-sign-lane-crossover</title>
    <desc>Created with Sketch.</desc>
    <g id="road-work-sign-lane-crossover" stroke="none" stroke-width="1" fill="none" fill-rule="evenodd">
        <g id="Group">
            <path d="M0,14.3144205 L0,14.3144205 C0,6.41521836 6.40329674,0 14.2996963,0 L340.699938,0 C348.485873,0 355,6.34455247 355,14.3144205 L355,405.685579 C355,413.655448 348.485873,420 340.699938,420 L14.2996963,420 C6.3330675,420 0,413.655448 0,405.685579" id="Fill-26548" fill="#1A1919"></path>
            <path d="M339.95382,75 C343.928869,75 347,78.0724881 347,82.0535705 L347,323.94643 C347,327.74667 343.928869,331 339.95382,331 L14.0512929,331 C10.0766091,331 7,327.74667 7,323.94643 L7,82.0535705 C7,78.1576117 10.1620705,75 14.0512929,75" id="Fill-26549" fill="#FBD033"></path>
            <path d="M337,188 L337,320 L167,320 L167,298.332677 C167,290.640353 171.148211,283.545022 177.854559,279.769288 L177.658902,279.909414 L223.907222,253.187708" id="Fill-26550" fill="#D0383F"></path>
            <path d="M267,320 L267,245.735576 C267,239.91261 262.375124,235 256.5,235 C250.8079,235 246,239.91261 246,245.735576 L246,320" id="Fill-26551" fill="#1A1919"></path>
            <path d="M18,240 L18,85 L166,85 L166,141.973668 C166,149.567404 162.040547,156.623873 155.37707,160.420558 L109.286408,187.00905" id="Fill-26552" fill="#D0383F"></path>
            <path d="M246,85 L246,159.26447 C246,165.269114 250.8079,170 256.5,170 C262.375124,170 267,165.269114 267,159.26447 L267,85" id="Fill-26553" fill="#1A1919"></path>
            <path d="M206.920696,96 L224,112.994328 L224,129.988291 L212.551744,118.596874 L212.551744,141.379343 C212.551744,157.655406 203.822811,172.696606 189.654865,180.834638 L189.633824,180.79993 L69.5342807,250.035487 C58.994057,256.180568 52.449836,267.390775 52.449836,279.500092 L52.4559667,320 L41,320 L41,279.500611 C41,263.409624 49.7253721,248.223017 63.9035996,240.0901 L184.044746,170.897288 L185.013064,170.320718 C195.004252,164.085722 201.103121,153.163687 201.103121,141.379343 L201.103121,118.596874 L189.654865,129.988291 L189.654865,112.994328 L206.920696,96 Z" id="Path" fill="#1A1919"></path>
            <path d="M302.172537,118.777719 L290.758988,130.168771 L290.758988,112.994328 L307.791639,96 L325,112.994328 L325,130.168771 L313.586451,118.777719 L313.586451,148.949995 C313.531176,165.130703 304.808573,180.06157 290.693463,188.12909 L290.758988,188.385196 L149.442792,269.55982 C139.262906,275.512514 132.826616,286.219395 132.434289,297.896255 L132.421236,299.029881 L132.421236,320 L121,320 L121,299.029881 C121,282.758227 129.699063,267.752465 143.829181,259.614434 L284.964175,178.439809 L285.104744,178.530049 C295.668656,172.420406 302.172537,161.154668 302.172537,148.970089 L302.172537,118.777719 Z" id="Path" fill="#1A1919"></path>
            <path d="M14.0512929,67 C10.0766091,67 7,63.7285553 7,59.9063587 L7,14.0884975 C7,10.1755499 10.1620705,7 14.0512929,7 L339.95382,7 C343.928869,7 347,10.0899427 347,14.0884975 L347,59.9063587 C347,63.7285553 343.928869,67 339.95382,67" id="Fill-26559" fill="#FBD033"></path>
            <path d="M339.95382,338 C343.928869,338 347,341.086193 347,345.085034 L347,405.738455 C347,409.732525 343.928869,413 339.95382,413 L14.0512929,413 C10.0766091,413 7,409.732525 7,405.738455 L7,345.085034 C7,341.172064 10.1620705,338 14.0512929,338" id="Fill-26560" fill="#FBD033"></path>
            <path d="M91.1413402,39.3358248 L88.605639,39.3358248 L92.4093739,27.5877391 L96.2134749,39.3358248 L93.8586598,39.3358248 L91.1413402,39.3358248 Z M90.4170633,44.5753345 L86.9751007,44.5753345 L85.1589161,50 L79,50 L88.605639,20 L96.2134749,20 L106,50 L99.84145,50 L98.0300256,44.5753345 L94.2207982,44.5753345 L90.4170633,44.5753345 Z" id="Fill-26561" fill="#1A1919"></path>
            <polyline id="Fill-26562" fill="#1A1919" points="319.642992 20 310 20 310 50 330 50 330 44.394561 315.711399 44.394561 315.711399 37.709959 327.858315 37.709959 327.858315 32.1096327 315.711399 32.1096327 315.711399 25.6006914 329.107391 25.6006914 329.107391 20 324.28355 20"></polyline>
            <polygon id="Stroke-26563" fill="#1A1919" fill-rule="nonzero" points="160 20 160 50 154 50 154 20"></polygon>
            <polyline id="Fill-26564" fill="#1A1919" points="226.959906 50 218 50 218 20 223.913502 20 223.913502 44.394561 237 44.394561 237 50 232.161614 50"></polyline>
            <polyline id="Fill-26565" fill="#1A1919" points="173.22591 20 175.73962 20 190.081062 40.6005088 190.081062 20 196 20 196 50 189.185198 50 175.73962 29.5751519 175.73962 50 170 50 170 20 171.433818 20"></polyline>
            <path d="M24,44.4420161 L28.2841163,40.142717 C33.8224724,44.08353 38.284838,44.4420161 39.3561377,44.4420161 C40.962546,44.4420161 42.5740059,42.8295526 42.5740059,41.0382082 C42.5740059,39.0679827 41.1411561,38.1721294 40.2484665,37.8140054 C39.3561377,37.6347623 35.2506314,36.7392711 33.465613,36.380785 C31.8588439,36.0226609 26.4990979,34.5894405 26.4990979,27.9567223 C26.4990979,21.3287116 31.1400736,19 36.3215703,19 C41.6766255,19 45.6085733,20.6121014 49,23.6574232 L44.8944938,27.5985983 C42.752616,25.9861348 40.0698564,24.7321575 35.9643501,24.7321575 C33.6438623,24.7321575 33.1083929,26.8819881 33.1083929,27.5985983 C33.1083929,28.4940895 33.6438623,30.1061909 35.2506314,30.464677 C36.8570398,30.8228011 40.962546,31.9026048 41.4980154,31.9026048 C43.2880854,32.0818479 49,34.4105595 49,40.6800841 C49,46.2333606 45.4299632,50 38.6420582,50 C31.6805946,50 26.3204878,46.5965541 24,44.4420161" id="Fill-26566" fill="#1A1919"></path>
            <polyline id="Fill-26567" fill="#1A1919" points="71.7035713 25.6006914 68.4191215 25.6006914 68.4191215 50 62.575346 50 62.575346 25.6006914 54 25.6006914 54 20 77 20 77 25.6006914 73.3456117 25.6006914"></polyline>
            <polyline id="Fill-26568" fill="#1A1919" points="112.871631 20 109 20 118.684236 37.8907325 118.684236 50 124.315764 50 124.315764 37.8907325 134 20 127.307624 20 121.5 31.7480857 115.511654 20"></polyline>
            <path d="M251.14134,39.3358248 L248.600513,39.3358248 L252.409374,27.5877391 L256.394361,39.3358248 L253.85866,39.3358248 L251.14134,39.3358248 Z M250.416697,44.5753345 L246.969974,44.5753345 L245.158916,50 L239,50 L248.600513,20 L256.213475,20 L266,50 L259.836324,50 L258.024899,44.5753345 L254.220798,44.5753345 L250.416697,44.5753345 Z" id="Fill-26569" fill="#1A1919"></path>
            <polyline id="Fill-26570" fill="#1A1919" points="276.40553 20 278.735667 20 293.264333 40.6005088 293.264333 20 299 20 299 50 292.183868 50 278.91502 29.5751519 278.91502 50 273 50 273 20 274.434098 20"></polyline>
            <polyline id="Fill-26571" fill="#1A1919" points="116 361.533546 116 370 112.002131 370 112.002131 355.404096 106 363.875284 99.8215414 355.404096 99.8215414 370 96 370 96 350 100.911836 350 106 357.205462 110.911836 350 116 350 116 355.764224"></polyline>
            <path d="M127.612539,363.038034 L127.612539,365.715574 C127.612539,366.786591 125.638756,366.786591 125.280052,366.786591 C124.920984,366.786591 122.768031,366.608329 122.768031,365.001443 C122.768031,363.216657 125.459223,363.038034 127.612539,363.038034 M131.385285,365.715574 L131.385285,358.2181 C131.385285,356.427901 129.591036,355 125.638756,355 C122.588497,355 120.435544,356.249639 119.717772,356.785147 L121.332487,359.46774 C122.588497,358.574986 125.100518,358.2181 126.176995,358.2181 C127.253472,358.2181 127.612539,358.932232 127.612539,359.289117 L127.612539,360.181871 C126.356528,360.181871 123.306269,360.717379 122.050259,361.074264 C120.973782,361.609772 119,362.323903 119,365.180066 C119,368.03623 121.870725,369.821377 124.741813,369.821377 C127.253472,369.821377 128.150777,368.393476 128.150777,368.393476 C128.150777,368.393476 129.411503,369.821377 131.564819,370 L133,366.965214 C131.205751,366.608329 131.385285,366.07282 131.385285,365.715574" id="Fill-26572" fill="#1A1919"></path>
            <polyline id="Fill-26573" fill="#1A1919" points="147.564456 369 149 369 144.155492 361.643834 148.461762 355 144.335026 355 142.002539 358.414041 139.664974 355 135.538238 355 139.844508 361.643834 135 369 139.126736 369 142.002539 364.873264 144.873264 369 146.129275 369"></polyline>
            <path d="M155.365254,390.230123 L155.365254,393.036767 C155.365254,394.089082 154.274426,395.843057 152.093505,395.843057 C149.90744,395.843057 148.816979,394.089082 148.816979,391.457941 C148.816979,388.822191 150.270804,387.594373 152.093505,387.594373 C153.911062,387.594373 155.365254,388.646688 155.365254,390.230123 M155.365254,385.489745 L155.365254,379 L159,379 L159,398.298339 L155.365254,398.298339 L155.365254,397.772182 C155.365254,397.772182 153.729196,399 151.548275,399 C149.36221,399 145,397.070875 145,391.457941 C145,385.840398 149.544076,384.261926 151.366409,384.261926 C153.002467,384.261926 153.911062,384.612934 155.365254,385.489745" id="Fill-26574" fill="#1A1919"></path>
            <path d="M117.731675,390.074479 L123.422759,390.074479 C123.422759,388.641199 122.356669,387.213332 120.579732,387.213332 C118.797766,387.213332 117.731675,388.641199 117.731675,390.074479 M117.731675,392.751955 L126.976633,392.751955 C127.154434,391.145469 126.443588,384 120.40193,384 C115.243892,384 114,389.717241 114,391.502345 C114,393.28745 115.06645,399 120.934975,399 C124.133606,399 125.910543,397.036277 126.265786,396.500782 L124.133606,394.35844 C124.133606,394.35844 123.067515,395.786668 120.934975,395.786668 C118.797766,395.786668 117.731675,394.180182 117.731675,392.751955" id="Fill-26575" fill="#1A1919"></path>
            <path d="M100.723739,390.155728 L100.723739,392.869543 C100.723739,394.135576 101.786233,395.764012 103.911578,395.764012 C105.859364,395.764012 107.099059,393.773905 107.099059,391.422126 C107.099059,389.251367 106.036565,387.25614 103.911578,387.25614 C101.609389,387.25614 100.723739,388.88421 100.723739,390.155728 M100.723739,385.266398 L100.723739,384.54269 L97,384.54269 L97,403 L100.723739,403 L100.723739,397.753753 C100.723739,397.753753 101.786233,399.20117 104.442825,399.20117 C109.40626,399.20117 111,393.954923 111,391.603145 C111,389.794057 110.29191,387.79883 109.052214,386.532431 C108.166564,385.266398 106.567812,384 104.442825,384 C103.025928,384 101.609389,384.54269 100.723739,385.266398" id="Fill-26576" fill="#1A1919"></path>
            <path d="M82,396.10912 L84.7452543,393.760554 C85.6605857,395.025223 88.0451091,395.928714 88.9600706,395.928714 C90.0581723,395.928714 90.7903634,395.205994 90.7903634,394.483274 C90.7903634,393.760554 90.2413126,393.580148 89.875032,393.399377 C89.3259812,393.218605 87.312918,392.676657 86.9466374,392.676657 C86.5807269,392.496251 83.0981017,391.953937 83.0981017,388.516361 C83.0981017,384.903491 86.9466374,384 89.1432109,384 C91.5225546,384 93.5356177,384.72272 95,386.167795 L92.6206563,388.702245 L92.6206563,388.697132 C91.3394143,387.432463 90.4244529,387.071286 89.3259812,387.071286 C88.0451091,387.071286 87.312918,387.432463 87.312918,388.335955 C87.312918,389.244193 87.8619689,389.424965 88.2278794,389.424965 C88.59416,389.424965 90.9735037,389.966913 91.5225546,390.147319 C92.0716054,390.328091 95,391.050811 95,394.483274 C95,397.735331 91.8884652,399 88.7769303,399 C85.843356,399 82.9149614,397.55456 82,396.10912" id="Fill-26577" fill="#1A1919"></path>
            <path d="M132.606547,390.074479 L138.369306,390.074479 C138.369306,388.641199 137.288834,387.213332 135.487927,387.213332 C133.687019,387.213332 132.606547,388.641199 132.606547,390.074479 M132.606547,392.751955 L141.976217,392.751955 C142.156417,391.145469 141.435981,384 135.487927,384 C130.085204,384 129,389.717241 129,391.502345 C129,393.28745 130.085204,399 135.848327,399 C139.269942,399 140.895746,397.036277 141.435981,396.500782 L139.089742,394.35844 C139.089742,394.35844 138.00927,395.786668 135.848327,395.786668 C133.867219,395.786668 132.606547,394.180182 132.606547,392.751955" id="Fill-26578" fill="#1A1919"></path>
            <path d="M208.675603,374.61942 C209.211851,374.61942 214.928225,372.037599 214.928225,363.386508 C214.928225,354.546403 207.425439,347 194.910445,347 C182.579616,347 174.898081,353.257911 174,363.938666 L185.264109,365.227158 C186.157135,360.073562 188.658183,356.939211 195.803831,356.939211 C202.775785,356.939211 203.66881,362.098016 203.66881,363.938666 C203.66881,368.908457 200.810624,370.749107 191.69512,370.749107 L191.69512,379.957192 C194.374557,380.141369 199.738849,380.141369 201.346511,381.245684 C204.383447,383.270511 204.383447,384.926984 204.383447,386.767633 C204.383447,388.056125 204.204698,394.687599 196.166025,394.687599 C187.943546,394.687599 186.157135,390.085789 185.264109,385.847495 L174,387.871949 C175.255219,397.448388 181.68623,405 195.987275,405 C210.104877,405 216,395.05558 216,387.503968 C216,379.773388 211.355401,375.171577 208.675603,374.61942" id="Fill-26579" fill="#1A1919"></path>
            <path d="M250.002541,357.348253 C255.749365,357.348253 261.501271,360.801153 261.680972,374.9605 C261.860311,389.301424 256.467808,393.65634 250.002541,393.65634 C243.532192,393.65634 238.139326,389.301424 238.32411,374.9605 C238.503812,360.801153 244.250635,357.348253 250.002541,357.348253 M250.002541,347.00496 C257.724994,346.823383 273,351.541454 273,375.323287 C273,399.28193 258.622776,404 250.002541,404 C241.377224,404 227,399.28193 227,375.323287 C227,351.541454 242.275006,346.823383 250.002541,347.00496" id="Fill-26580" fill="#1A1919"></path>
        </g>
    </g>
</svg>