<?xml version="1.0" encoding="UTF-8"?>
<svg width="255px" height="420px" viewBox="0 0 255 420" version="1.1" xmlns="http://www.w3.org/2000/svg" xmlns:xlink="http://www.w3.org/1999/xlink">
    <!-- Generator: Sketch 61.2 (89653) - https://sketch.com -->
    <title>sign-giving-order-buses-cycles-only</title>
    <desc>Created with Sketch.</desc>
    <g id="sign-giving-order-buses-cycles-only" stroke="none" stroke-width="1" fill="none" fill-rule="evenodd">
        <g id="post" transform="translate(111.000000, 131.000000)">
            <rect id="Rectangle" fill="#C5C5C5" fill-rule="evenodd" x="0" y="0" width="33" height="316"></rect>
            <path id="Rectangle" d="M34,-1 L34,317 L-1,317 L-1,-1 L34,-1 Z M32,1 L1,1 L1,315 L32,315 L32,1 Z" fill="#000000" fill-rule="nonzero"></path>
        </g>
        <g id="Group">
            <path d="M127.5,0.837209302 C197.878622,0.837209302 255,57.9546905 255,128.337209 C255,198.719728 197.878622,255.837209 127.5,255.837209 C57.121378,255.837209 0,198.719728 0,128.337209 C0,57.9546905 57.121378,0.837209302 127.5,0.837209302" id="Fill-66" fill="#FFFFFE"></path>
            <path d="M127.5,0.837209302 C197.878622,0.837209302 255,57.9546905 255,128.337209 C255,198.719728 197.878622,255.837209 127.5,255.837209 C57.121378,255.837209 0,198.719728 0,128.337209 C0,57.9546905 57.121378,0.837209302 127.5,0.837209302" id="Stroke-67" stroke="#0070AC" stroke-width="0.425"></path>
            <path d="M127,6.8372093 C193.795603,6.8372093 248,61.0469159 248,127.837209 C248,194.627503 193.795603,248.837209 127,248.837209 C60.2043974,248.837209 6,194.627503 6,127.837209 C6,61.0469159 60.2043974,6.8372093 127,6.8372093" id="Fill-68" fill="#0070AC"></path>
            <path d="M104.609958,48.9090669 C105.893012,44.4534396 107.176066,39.9919186 108.45912,35.5362912 L108.672963,35.5362912 C108.672963,35.3241185 108.45912,35.1119458 108.245278,34.8997731 C106.534539,34.2632549 105.67917,32.7780458 105.67917,31.0806639 C105.67917,28.7467639 107.389909,27.049382 109.742174,26.8372093 L111.452913,26.8372093 L117.012815,26.8372093 L117.012815,31.0806639 L111.880598,31.0806639 L110.811386,31.0806639 C110.597544,31.0806639 110.383702,31.2928366 110.383702,31.5050094 C110.383702,31.7171821 110.383702,31.9293548 110.597544,32.1415276 C111.880598,32.7780458 112.735967,33.8389094 112.735967,35.3241185 C112.735967,35.9606367 112.735967,36.1728094 112.522125,36.8093276 C112.522125,37.0215004 111.880598,38.9310549 111.880598,38.9310549 L140.547354,38.9310549 C140.975038,37.6580186 141.616565,36.1728094 142.258093,34.6876003 C140.119669,34.2632549 137.981245,33.8389094 135.62898,33.2023912 C135.201295,32.9902185 134.987452,32.565873 134.987452,32.1415276 C134.987452,31.5050094 135.415137,31.0806639 136.056664,31.0806639 L150.603884,31.0806639 C150.603884,33.4145639 148.893146,35.3241185 146.54088,35.3241185 C146.113195,36.3849822 145.68551,37.6580186 145.043983,38.9310549 C146.754722,42.1136459 148.465461,45.5143033 150.390042,48.9090669 C152.314623,48.060376 154.239204,47.6360306 156.383568,47.6360306 C164.937262,47.6360306 172,54.6377307 172,63.3427063 C172,71.8296155 164.937262,78.8372093 156.383568,78.8372093 C148.251619,78.8372093 141.616565,72.8904792 140.761196,64.8279154 L138.836615,64.8279154 C138.40893,66.3131245 137.553561,67.5861609 136.270507,68.4348518 C136.698191,69.4957155 137.125876,70.5565791 137.767403,71.6174428 L140.333511,71.6174428 L140.333511,73.7391701 L138.622772,73.7391701 C138.40893,73.9513428 137.981245,74.1635155 137.553561,74.1635155 C137.125876,74.1635155 136.698191,73.9513428 136.270507,73.7391701 L134.132083,73.7391701 L134.132083,71.6174428 L136.056664,71.6174428 C135.62898,70.7687519 135.201295,69.9200609 134.77361,69.07137 C133.918241,69.4957155 133.704398,69.4957155 132.849029,69.4957155 C129.421611,69.4957155 126.427818,66.73747 126.427818,63.3427063 C126.427818,62.7061881 126.641661,62.0696699 126.855503,61.4331517 C120.867917,57.3959762 114.874391,53.3646943 108.886805,49.1212397 C108.672963,49.5455851 108.45912,50.1821033 108.245278,50.8186215 L108.45912,51.0307943 C112.308283,54.0012125 114.446706,58.4568398 114.446706,63.3427063 C114.446706,71.8296155 107.389909,78.8372093 98.8302743,78.8372093 C90.0567977,78.8372093 83,71.8296155 83,63.3427063 C83,54.6377307 90.0567977,47.6360306 98.8302743,47.6360306 C101.18254,47.6360306 102.251752,47.8482033 104.396116,48.6968942 L104.609958,48.9090669 Z M128.566242,63.3427063 C128.566242,65.4644336 130.496763,67.3739882 132.849029,67.3739882 C134.987452,67.3739882 136.912034,65.4644336 136.912034,63.3427063 C136.912034,61.0088063 134.987452,59.093358 132.849029,59.093358 C130.496763,59.093358 128.566242,61.0088063 128.566242,63.3427063 L128.566242,63.3427063 Z M106.962224,55.910767 C106.748381,56.759458 106.534539,57.6081489 106.106854,58.6690125 C105.037643,61.6453245 102.03791,63.9792245 99.0441167,64.8279154 L98.8302743,64.8279154 C97.9749049,64.8279154 97.1195355,64.1913972 97.1195355,63.3427063 C97.1195355,62.7061881 97.5472202,62.2818426 97.7610625,62.0696699 C97.7610625,62.0696699 97.9749049,62.0696699 98.1887472,61.8574972 C99.8994861,60.5785671 101.396383,59.3055307 102.03791,57.3959762 C102.465594,56.1229398 102.893279,54.8499034 103.320964,53.3646943 C101.824067,52.7281761 100.327171,52.3038306 98.8302743,52.3038306 C92.628846,52.3038306 87.7045318,57.1838034 87.7045318,63.3427063 C87.7045318,69.2835427 92.628846,74.1635155 98.8302743,74.1635155 C104.8238,74.1635155 109.742174,69.2835427 109.742174,63.3427063 C109.742174,60.3663944 108.672963,57.8203216 106.962224,55.910767 L106.962224,55.910767 Z M136.912034,58.6690125 C138.836615,53.576867 140.975038,48.4847215 143.119402,43.1804032 C144.402456,45.5143033 145.68551,48.060376 147.182407,50.6064488 C143.333244,53.3646943 141.188881,57.1838034 140.761196,61.6453245 L138.836615,61.6453245 C138.622772,60.5785671 137.981245,59.5177035 137.125876,58.6690125 L136.912034,58.6690125 Z M149.32083,54.8499034 C147.182407,56.5472852 145.899353,58.8811853 145.471668,61.6453245 L153.169993,61.6453245 C151.886939,59.5177035 150.603884,57.1838034 149.32083,54.8499034 L149.32083,54.8499034 Z M157.666622,62.7061881 C157.880465,62.9183608 157.880465,63.1305336 157.880465,63.3427063 C157.880465,64.1913972 157.238937,64.8279154 156.383568,64.8279154 L145.471668,64.8279154 C146.327037,70.1322337 150.817727,74.1635155 156.383568,74.1635155 C162.371154,74.1635155 167.289528,69.2835427 167.289528,63.3427063 C167.289528,57.1838034 162.371154,52.3038306 156.383568,52.3038306 C155.094574,52.3038306 153.81152,52.5160034 152.742308,52.9403488 C154.239204,56.1229398 155.955883,59.3055307 157.666622,62.7061881 L157.666622,62.7061881 Z M129.207769,58.0324944 C128.780084,57.1838034 128.352399,56.1229398 127.710872,55.0620761 L125.144764,55.0620761 L125.144764,52.9403488 L126.855503,52.9403488 C127.283188,52.5160034 127.710872,52.3038306 128.138557,52.3038306 C128.566242,52.3038306 128.993926,52.5160034 129.207769,52.9403488 L131.352132,52.9403488 L131.352132,55.0620761 L129.421611,55.0620761 C129.849296,55.6985943 130.282921,56.5472852 130.710605,57.3959762 L130.924448,57.3959762 C131.352132,57.1838034 132.207502,56.9716307 132.849029,56.9716307 L133.062871,56.9716307 C134.987452,52.3038306 136.912034,47.4238578 139.050457,42.5379913 L110.811386,42.5379913 C110.597544,43.392576 110.383702,44.4534396 109.956017,45.5143033 C116.157445,49.7577579 122.364813,54.0012125 128.780084,58.4568398 C128.780084,58.4568398 128.993926,58.2446671 129.207769,58.0324944 L129.207769,58.0324944 Z" id="Fill-69" fill="#FFFFFE"></path>
            <path d="M104.609958,48.9090669 C105.893012,44.4534396 107.176066,39.9919186 108.45912,35.5362912 L108.672963,35.5362912 C108.672963,35.3241185 108.45912,35.1119458 108.245278,34.8997731 C106.534539,34.2632549 105.67917,32.7780458 105.67917,31.0806639 C105.67917,28.7467639 107.389909,27.049382 109.742174,26.8372093 L111.452913,26.8372093 L117.012815,26.8372093 L117.012815,31.0806639 L111.880598,31.0806639 L110.811386,31.0806639 C110.597544,31.0806639 110.383702,31.2928366 110.383702,31.5050094 C110.383702,31.7171821 110.383702,31.9293548 110.597544,32.1415276 C111.880598,32.7780458 112.735967,33.8389094 112.735967,35.3241185 C112.735967,35.9606367 112.735967,36.1728094 112.522125,36.8093276 C112.522125,37.0215004 111.880598,38.9310549 111.880598,38.9310549 L140.547354,38.9310549 C140.975038,37.6580186 141.616565,36.1728094 142.258093,34.6876003 C140.119669,34.2632549 137.981245,33.8389094 135.62898,33.2023912 C135.201295,32.9902185 134.987452,32.565873 134.987452,32.1415276 C134.987452,31.5050094 135.415137,31.0806639 136.056664,31.0806639 L150.603884,31.0806639 C150.603884,33.4145639 148.893146,35.3241185 146.54088,35.3241185 C146.113195,36.3849822 145.68551,37.6580186 145.043983,38.9310549 C146.754722,42.1136459 148.465461,45.5143033 150.390042,48.9090669 C152.314623,48.060376 154.239204,47.6360306 156.383568,47.6360306 C164.937262,47.6360306 172,54.6377307 172,63.3427063 C172,71.8296155 164.937262,78.8372093 156.383568,78.8372093 C148.251619,78.8372093 141.616565,72.8904792 140.761196,64.8279154 L138.836615,64.8279154 C138.40893,66.3131245 137.553561,67.5861609 136.270507,68.4348518 C136.698191,69.4957155 137.125876,70.5565791 137.767403,71.6174428 L140.333511,71.6174428 L140.333511,73.7391701 L138.622772,73.7391701 C138.40893,73.9513428 137.981245,74.1635155 137.553561,74.1635155 C137.125876,74.1635155 136.698191,73.9513428 136.270507,73.7391701 L134.132083,73.7391701 L134.132083,71.6174428 L136.056664,71.6174428 C135.62898,70.7687519 135.201295,69.9200609 134.77361,69.07137 C133.918241,69.4957155 133.704398,69.4957155 132.849029,69.4957155 C129.421611,69.4957155 126.427818,66.73747 126.427818,63.3427063 C126.427818,62.7061881 126.641661,62.0696699 126.855503,61.4331517 C120.867917,57.3959762 114.874391,53.3646943 108.886805,49.1212397 C108.672963,49.5455851 108.45912,50.1821033 108.245278,50.8186215 L108.45912,51.0307943 C112.308283,54.0012125 114.446706,58.4568398 114.446706,63.3427063 C114.446706,71.8296155 107.389909,78.8372093 98.8302743,78.8372093 C90.0567977,78.8372093 83,71.8296155 83,63.3427063 C83,54.6377307 90.0567977,47.6360306 98.8302743,47.6360306 C101.18254,47.6360306 102.251752,47.8482033 104.396116,48.6968942 L104.609958,48.9090669 Z M128.566242,63.3427063 C128.566242,65.4644336 130.496763,67.3739882 132.849029,67.3739882 C134.987452,67.3739882 136.912034,65.4644336 136.912034,63.3427063 C136.912034,61.0088063 134.987452,59.093358 132.849029,59.093358 C130.496763,59.093358 128.566242,61.0088063 128.566242,63.3427063 Z M106.962224,55.910767 C106.748381,56.759458 106.534539,57.6081489 106.106854,58.6690125 C105.037643,61.6453245 102.03791,63.9792245 99.0441167,64.8279154 L98.8302743,64.8279154 C97.9749049,64.8279154 97.1195355,64.1913972 97.1195355,63.3427063 C97.1195355,62.7061881 97.5472202,62.2818426 97.7610625,62.0696699 C97.7610625,62.0696699 97.9749049,62.0696699 98.1887472,61.8574972 C99.8994861,60.5785671 101.396383,59.3055307 102.03791,57.3959762 C102.465594,56.1229398 102.893279,54.8499034 103.320964,53.3646943 C101.824067,52.7281761 100.327171,52.3038306 98.8302743,52.3038306 C92.628846,52.3038306 87.7045318,57.1838034 87.7045318,63.3427063 C87.7045318,69.2835427 92.628846,74.1635155 98.8302743,74.1635155 C104.8238,74.1635155 109.742174,69.2835427 109.742174,63.3427063 C109.742174,60.3663944 108.672963,57.8203216 106.962224,55.910767 Z M136.912034,58.6690125 C138.836615,53.576867 140.975038,48.4847215 143.119402,43.1804032 C144.402456,45.5143033 145.68551,48.060376 147.182407,50.6064488 C143.333244,53.3646943 141.188881,57.1838034 140.761196,61.6453245 L138.836615,61.6453245 C138.622772,60.5785671 137.981245,59.5177035 137.125876,58.6690125 L136.912034,58.6690125 Z M149.32083,54.8499034 C147.182407,56.5472852 145.899353,58.8811853 145.471668,61.6453245 L153.169993,61.6453245 C151.886939,59.5177035 150.603884,57.1838034 149.32083,54.8499034 Z M157.666622,62.7061881 C157.880465,62.9183608 157.880465,63.1305336 157.880465,63.3427063 C157.880465,64.1913972 157.238937,64.8279154 156.383568,64.8279154 L145.471668,64.8279154 C146.327037,70.1322337 150.817727,74.1635155 156.383568,74.1635155 C162.371154,74.1635155 167.289528,69.2835427 167.289528,63.3427063 C167.289528,57.1838034 162.371154,52.3038306 156.383568,52.3038306 C155.094574,52.3038306 153.81152,52.5160034 152.742308,52.9403488 C154.239204,56.1229398 155.955883,59.3055307 157.666622,62.7061881 Z M129.207769,58.0324944 C128.780084,57.1838034 128.352399,56.1229398 127.710872,55.0620761 L125.144764,55.0620761 L125.144764,52.9403488 L126.855503,52.9403488 C127.283188,52.5160034 127.710872,52.3038306 128.138557,52.3038306 C128.566242,52.3038306 128.993926,52.5160034 129.207769,52.9403488 L131.352132,52.9403488 L131.352132,55.0620761 L129.421611,55.0620761 C129.849296,55.6985943 130.282921,56.5472852 130.710605,57.3959762 L130.924448,57.3959762 C131.352132,57.1838034 132.207502,56.9716307 132.849029,56.9716307 L133.062871,56.9716307 C134.987452,52.3038306 136.912034,47.4238578 139.050457,42.5379913 L110.811386,42.5379913 C110.597544,43.392576 110.383702,44.4534396 109.956017,45.5143033 C116.157445,49.7577579 122.364813,54.0012125 128.780084,58.4568398 C128.780084,58.4568398 128.993926,58.2446671 129.207769,58.0324944 Z" id="Stroke-70" stroke="#FFFFFE" stroke-width="0.036"></path>
            <path d="M28.3351371,155.40682 L28.3351371,155.616037 C28.2640809,155.616037 28.1930247,155.622015 28.1219685,155.622015 C25.2915628,155.622015 23,153.302693 23,150.451363 L23,128.065131 C23,126.642454 24.1487421,125.482794 25.5580236,125.482794 L26.8488781,96.2043516 C26.9613837,94.865362 28.0686763,93.8372093 29.4009803,93.8372093 C29.4720365,93.8372093 29.5430927,93.8431869 29.6141489,93.8491646 L30.8931607,93.8372093 L218.990792,93.8372093 C226.173391,93.8372093 232,99.7191993 232,106.970067 L232,146.577857 L187.003655,155.837209 C187.429992,154.546041 187.643161,153.254872 187.643161,151.742531 C187.643161,144.641104 181.674439,138.615651 174.633953,138.615651 C167.380298,138.615651 161.624745,144.641104 161.624745,151.742531 C161.624745,153.254872 161.624745,154.546041 162.051082,155.837209 L82.5036548,155.837209 C82.9299921,154.546041 83.1431607,153.254872 83.1431607,151.742531 C83.1431607,144.641104 77.1685177,138.615651 70.1339529,138.615651 C62.8802981,138.615651 56.9115764,144.641104 56.9115764,151.742531 C56.9115764,153.254872 57.124745,154.546041 57.5510823,155.837209 L28.3351371,155.40682 Z M49.0184157,106.970067 L49.0184157,106.970067 C49.0184157,105.541413 47.875595,104.38773 46.4603921,104.38773 L38.7863214,104.393708 C38.7152652,104.38773 38.6382876,104.38773 38.5672314,104.38773 C37.1579499,104.38773 36.0092078,105.541413 36.0092078,106.970067 L36.0210505,145.286689 C36.1335562,146.625678 37.2408488,147.653831 38.5672314,147.653831 C38.6382876,147.653831 38.7152652,147.653831 38.7863214,147.647853 L46.4603921,147.653831 C47.7926961,147.653831 48.8999887,146.625678 49.0124943,145.286689 L49.0184157,106.970067 Z M60.9617804,122.470067 L60.9617804,122.673306 C60.8907242,122.679284 60.819668,122.685262 60.7486117,122.685262 C59.3393302,122.685262 58.1905882,121.525601 58.1905882,120.102925 L58.1905882,106.970067 C58.1905882,105.541413 59.3393302,104.38773 60.7486117,104.38773 C60.819668,104.38773 60.8907242,104.38773 60.9617804,104.393708 L92.3153332,104.38773 C93.7246147,104.38773 94.8733568,105.541413 94.8733568,106.970067 L94.8733568,120.102925 C94.8733568,121.525601 93.7246147,122.685262 92.3153332,122.685262 L60.9617804,122.470067 Z M104.045529,122.685262 L104.045529,122.685262 C102.630326,122.685262 101.481584,121.525601 101.481584,120.102925 L101.481584,106.970067 C101.481584,105.541413 102.630326,104.38773 104.045529,104.38773 L135.393161,104.38773 C136.802442,104.38773 137.951184,105.541413 137.951184,106.970067 L137.951184,120.102925 C137.951184,121.525601 136.802442,122.685262 135.393161,122.685262 L104.045529,122.685262 Z M147.123357,122.685262 L147.123357,122.685262 C145.708154,122.685262 144.565333,121.525601 144.565333,120.102925 L144.565333,106.970067 C144.565333,105.541413 145.708154,104.38773 147.123357,104.38773 L178.470988,104.38773 C179.886191,104.38773 181.029012,105.541413 181.029012,106.970067 L181.029012,120.102925 C181.029012,121.525601 179.886191,122.685262 178.470988,122.685262 L147.123357,122.685262 Z M190.201184,122.685262 L190.201184,122.685262 C188.791903,122.685262 187.643161,121.525601 187.643161,120.102925 L187.643161,106.970067 C187.643161,105.541413 188.791903,104.38773 190.201184,104.38773 L216.432769,104.38773 C220.790883,104.38773 224.325929,107.860734 224.325929,112.134741 L224.112761,120.102925 C224.112761,121.525601 222.964019,122.685262 221.554737,122.685262 L190.201184,122.685262 Z" id="Fill-71" fill="#FFFFFE"></path>
            <path d="M28.3351371,155.40682 L28.3351371,155.616037 C28.2640809,155.616037 28.1930247,155.622015 28.1219685,155.622015 C25.2915628,155.622015 23,153.302693 23,150.451363 L23,128.065131 C23,126.642454 24.1487421,125.482794 25.5580236,125.482794 L26.8488781,96.2043516 C26.9613837,94.865362 28.0686763,93.8372093 29.4009803,93.8372093 C29.4720365,93.8372093 29.5430927,93.8431869 29.6141489,93.8491646 L30.8931607,93.8372093 L218.990792,93.8372093 C226.173391,93.8372093 232,99.7191993 232,106.970067 L232,146.577857 L187.003655,155.837209 C187.429992,154.546041 187.643161,153.254872 187.643161,151.742531 C187.643161,144.641104 181.674439,138.615651 174.633953,138.615651 C167.380298,138.615651 161.624745,144.641104 161.624745,151.742531 C161.624745,153.254872 161.624745,154.546041 162.051082,155.837209 L82.5036548,155.837209 C82.9299921,154.546041 83.1431607,153.254872 83.1431607,151.742531 C83.1431607,144.641104 77.1685177,138.615651 70.1339529,138.615651 C62.8802981,138.615651 56.9115764,144.641104 56.9115764,151.742531 C56.9115764,153.254872 57.124745,154.546041 57.5510823,155.837209 L28.3351371,155.40682 Z M49.0184157,106.970067 L49.0184157,106.970067 C49.0184157,105.541413 47.875595,104.38773 46.4603921,104.38773 L38.7863214,104.393708 C38.7152652,104.38773 38.6382876,104.38773 38.5672314,104.38773 C37.1579499,104.38773 36.0092078,105.541413 36.0092078,106.970067 L36.0210505,145.286689 C36.1335562,146.625678 37.2408488,147.653831 38.5672314,147.653831 C38.6382876,147.653831 38.7152652,147.653831 38.7863214,147.647853 L46.4603921,147.653831 C47.7926961,147.653831 48.8999887,146.625678 49.0124943,145.286689 L49.0184157,106.970067 Z M60.9617804,122.470067 L60.9617804,122.673306 C60.8907242,122.679284 60.819668,122.685262 60.7486117,122.685262 C59.3393302,122.685262 58.1905882,121.525601 58.1905882,120.102925 L58.1905882,106.970067 C58.1905882,105.541413 59.3393302,104.38773 60.7486117,104.38773 C60.819668,104.38773 60.8907242,104.38773 60.9617804,104.393708 L92.3153332,104.38773 C93.7246147,104.38773 94.8733568,105.541413 94.8733568,106.970067 L94.8733568,120.102925 C94.8733568,121.525601 93.7246147,122.685262 92.3153332,122.685262 L60.9617804,122.470067 Z M104.045529,122.685262 L104.045529,122.685262 C102.630326,122.685262 101.481584,121.525601 101.481584,120.102925 L101.481584,106.970067 C101.481584,105.541413 102.630326,104.38773 104.045529,104.38773 L135.393161,104.38773 C136.802442,104.38773 137.951184,105.541413 137.951184,106.970067 L137.951184,120.102925 C137.951184,121.525601 136.802442,122.685262 135.393161,122.685262 L104.045529,122.685262 Z M147.123357,122.685262 L147.123357,122.685262 C145.708154,122.685262 144.565333,121.525601 144.565333,120.102925 L144.565333,106.970067 C144.565333,105.541413 145.708154,104.38773 147.123357,104.38773 L178.470988,104.38773 C179.886191,104.38773 181.029012,105.541413 181.029012,106.970067 L181.029012,120.102925 C181.029012,121.525601 179.886191,122.685262 178.470988,122.685262 L147.123357,122.685262 Z M190.201184,122.685262 L190.201184,122.685262 C188.791903,122.685262 187.643161,121.525601 187.643161,120.102925 L187.643161,106.970067 C187.643161,105.541413 188.791903,104.38773 190.201184,104.38773 L216.432769,104.38773 C220.790883,104.38773 224.325929,107.860734 224.325929,112.134741 L224.112761,120.102925 C224.112761,121.525601 222.964019,122.685262 221.554737,122.685262 L190.201184,122.685262 Z" id="Stroke-72" stroke="#FFFFFE" stroke-width="0.036"></path>
            <path d="M70.2858357,146.192834 L70.2858357,146.192834 C73.1235127,146.192834 75.425779,148.495753 75.425779,151.334234 C75.425779,154.178666 73.1235127,156.481584 70.2858357,156.481584 C67.4481586,156.481584 65.1399433,154.178666 65.1399433,151.334234 C65.1399433,148.495753 67.4481586,146.192834 70.2858357,146.192834 M70.5,140.837209 L70.5,140.837209 C76.2943343,140.837209 81,145.538258 81,151.334234 C81,157.13021 76.2943343,161.837209 70.5,161.837209 C64.7056657,161.837209 60,157.13021 60,151.334234 C60,145.538258 64.7056657,140.837209 70.5,140.837209" id="Fill-73" fill="#FFFFFE"></path>
            <path d="M70.2858357,146.192834 L70.2858357,146.192834 C73.1235127,146.192834 75.425779,148.495753 75.425779,151.334234 C75.425779,154.178666 73.1235127,156.481584 70.2858357,156.481584 C67.4481586,156.481584 65.1399433,154.178666 65.1399433,151.334234 C65.1399433,148.495753 67.4481586,146.192834 70.2858357,146.192834 Z M70.5,140.837209 L70.5,140.837209 C76.2943343,140.837209 81,145.538258 81,151.334234 C81,157.13021 76.2943343,161.837209 70.5,161.837209 C64.7056657,161.837209 60,157.13021 60,151.334234 C60,145.538258 64.7056657,140.837209 70.5,140.837209 Z" id="Stroke-74" stroke="#FFFFFE" stroke-width="0.036"></path>
            <path d="M174.285836,146.192834 L174.285836,146.192834 C177.123513,146.192834 179.425779,148.495753 179.425779,151.334234 C179.425779,154.178666 177.123513,156.481584 174.285836,156.481584 C171.448159,156.481584 169.145892,154.178666 169.145892,151.334234 C169.145892,148.495753 171.448159,146.192834 174.285836,146.192834 M174.5,140.837209 L174.5,140.837209 C180.294334,140.837209 185,145.538258 185,151.334234 C185,157.13021 180.294334,161.837209 174.5,161.837209 C168.705666,161.837209 164,157.13021 164,151.334234 C164,145.538258 168.705666,140.837209 174.5,140.837209" id="Fill-75" fill="#FFFFFE"></path>
            <path d="M174.285836,146.192834 L174.285836,146.192834 C177.123513,146.192834 179.425779,148.495753 179.425779,151.334234 C179.425779,154.178666 177.123513,156.481584 174.285836,156.481584 C171.448159,156.481584 169.145892,154.178666 169.145892,151.334234 C169.145892,148.495753 171.448159,146.192834 174.285836,146.192834 Z M174.5,140.837209 L174.5,140.837209 C180.294334,140.837209 185,145.538258 185,151.334234 C185,157.13021 180.294334,161.837209 174.5,161.837209 C168.705666,161.837209 164,157.13021 164,151.334234 C164,145.538258 168.705666,140.837209 174.5,140.837209 Z" id="Stroke-76" stroke="#FFFFFE" stroke-width="0.036"></path>
            <path d="M127.497034,268.837209 L64.9032786,268.837209 C54.4640661,268.837209 46,277.334984 46,287.815771 L46,344.858647 C46,355.339435 54.4640661,363.837209 64.9032786,363.837209 L190.09079,363.837209 C200.535934,363.837209 209,355.339435 209,344.858647 L209,287.815771 C209,277.334984 200.535934,268.837209 190.09079,268.837209 L127.497034,268.837209" id="Fill-77" fill="#1A1919"></path>
            <path d="M126.99703,278.837209 L64.5172243,278.837209 C59.2595817,278.837209 55,283.117388 55,288.393096 L55,345.281323 C55,350.55703 59.2595817,354.837209 64.5172243,354.837209 L189.476835,354.837209 C194.734477,354.837209 199,350.55703 199,345.281323 L199,288.393096 C199,283.117388 194.734477,278.837209 189.476835,278.837209 L126.99703,278.837209" id="Fill-78" fill="#FFFFFE"></path>
            <path d="M91.4970635,303.829042 C86.6342766,303.829042 82.1943406,307.427866 82.1943406,315.048905 C82.1943406,322.675824 86.8457021,326.274648 91.4970635,326.274648 C95.9428724,326.274648 100.594234,322.675824 100.594234,315.048905 C100.594234,307.427866 96.1542979,303.829042 91.4970635,303.829042 M91.4970635,296.837209 C84.7314469,296.837209 75,302.135478 75,314.837209 C75,327.544821 84.5200214,332.837209 91.4970635,332.837209 C98.4799786,332.837209 108,327.544821 108,314.837209 C108,302.135478 98.0571276,296.837209 91.4970635,296.837209" id="Fill-79" fill="#1A1919"></path>
            <path d="M156,332.985418 L155.137333,327.235829 C152.13882,327.874672 150.639564,327.235829 150.639564,325.958143 L150.639564,297.837209 L144,297.837209 L144,328.513516 C144,331.068889 145.713436,333.837209 150.639564,333.837209 C153.209717,333.837209 156,332.985418 156,332.985418" id="Fill-80" fill="#1A1919"></path>
            <path d="M137,316.074758 L137,332.837209 L130.493976,332.837209 L130.493976,316.934065 C130.493976,315.000624 128.753012,313.067184 125.933735,313.067184 C123.114458,313.067184 120.728916,315.430278 120.728916,318.873473 L120.728916,332.837209 L114,332.837209 L114,307.481689 L120.728916,307.481689 L120.728916,309.200303 C120.728916,309.200303 123.331325,306.837209 127.018072,306.837209 C133.096386,306.837209 137,311.563397 137,316.074758" id="Fill-81" fill="#1A1919"></path>
            <path d="M171.927615,336.73186 L182,306.837209 L174.926128,306.837209 L170,322.650698 L164.853743,306.837209 L158,306.837209 L166.353,331.528867 C166.781358,333.261193 166.13882,335.21006 162.711948,334.776978 L160.570154,334.343897 L159.713436,340.196512 L163.568666,340.629593 C168.494794,341.495756 170.856718,339.546889 171.927615,336.73186" id="Fill-82" fill="#1A1919"></path>
        </g>
    </g>
</svg>