<?xml version="1.0" encoding="UTF-8"?>
<svg width="420px" height="420px" viewBox="0 0 420 420" version="1.1" xmlns="http://www.w3.org/2000/svg" xmlns:xlink="http://www.w3.org/1999/xlink">
    <!-- Generator: Sketch 61.2 (89653) - https://sketch.com -->
    <title>sign-giving-order-minimum-speed-end</title>
    <desc>Created with Sketch.</desc>
    <g id="sign-giving-order-minimum-speed-end" stroke="none" stroke-width="1" fill="none" fill-rule="evenodd">
        <g id="Group-201">
            <g id="Group-200">
                <g id="Group-194">
                    <path d="M208.5307,5.6434 C322.215559,5.6434 414.476524,97.9043646 414.476524,211.589224 C414.476524,325.274083 322.215559,417.525449 208.5307,417.525449 C94.845841,417.525449 2.58487634,325.274083 2.58487634,211.589224 C2.58487634,97.9043646 94.845841,5.6434 208.5307,5.6434" id="Fill-191" fill="#FFFFFE"></path>
                    <path d="M208.5307,5.6434 C322.215559,5.6434 414.476524,97.9043646 414.476524,211.589224 C414.476524,325.274083 322.215559,417.525449 208.5307,417.525449 C94.845841,417.525449 2.58487634,325.274083 2.58487634,211.589224 C2.58487634,97.9043646 94.845841,5.6434 208.5307,5.6434" id="Stroke-193" stroke="#006FAB" stroke-width="0.425"></path>
                </g>
                <path d="M209.6836,16.8147 C317.8301,16.8147 405.5989,104.5933 405.5989,212.7398 C405.5989,320.8863 317.8301,408.6551 209.6836,408.6551 C101.5371,408.6551 13.7585,320.8863 13.7585,212.7398 C13.7585,104.5933 101.5371,16.8147 209.6836,16.8147" id="Fill-195" fill="#006FAB"></path>
                <path d="M301.5887,142.6215 C280.8652,142.6215 258.3952,161.2912 258.3952,211.3853 C258.3952,261.1539 280.1743,279.804 301.5887,279.804 C323.022,279.804 344.7815,261.1539 344.7815,211.3853 C344.7815,161.2912 322.3311,142.6215 301.5887,142.6215 M301.5887,112.5691 C260.1326,112.5691 225.2229,147.4592 225.2229,211.3853 C225.2229,277.0397 261.1693,310.5669 301.5887,310.5669 C341.6812,310.5669 377.9545,277.0397 377.9545,211.3853 C377.9545,147.4592 342.7179,112.5691 301.5887,112.5691" id="Fill-197" fill="#FFFFFE"></path>
                <path d="M85.9789,249.0495 L52.451,254.2323 C52.451,280.5033 77.6762,310.2113 122.9522,310.2113 C168.2191,310.2113 189.6335,281.54 189.6335,250.0953 C189.6335,218.9866 166.4915,208.9752 166.4915,208.9752 C166.4915,208.9752 187.2143,201.3732 187.2143,173.3844 C187.2143,147.1127 172.711,114.9869 121.9155,114.9869 C71.12,114.9869 52.451,151.2693 52.451,174.0753 L85.9789,178.2123 C85.9789,162.3167 95.9903,143.6673 123.634,143.6673 C151.2868,143.6673 154.7427,164.3999 154.7427,170.9652 C154.7427,176.1487 160.2713,197.5722 107.4024,197.5722 L107.4024,223.4785 C123.298,223.4785 139.8838,223.4785 147.8316,230.0536 C155.4336,235.928 155.4336,245.9492 155.4336,250.7869 C155.4336,255.6239 153.706,279.4575 121.5704,279.4575 C89.4341,279.4575 85.9789,257.6973 85.9789,249.0495" id="Fill-198" fill="#FFFFFE"></path>
                <path d="M361.3764,89.4075 L361.5878,89.1289 C352.9106,78.3979 343.1106,68.6175 332.36,59.9494 L57.2859,335.9937 C65.8476,346.5329 75.4845,356.1502 86.0335,364.693 L361.3764,89.4075 Z" id="Fill-199" fill="#D02139"></path>
            </g>
        </g>
    </g>
</svg>