<?xml version="1.0" encoding="UTF-8"?>
<svg width="420px" height="420px" viewBox="0 0 420 420" version="1.1" xmlns="http://www.w3.org/2000/svg" xmlns:xlink="http://www.w3.org/1999/xlink">
    <!-- Generator: Sketch 61.2 (89653) - https://sketch.com -->
    <title>sign-giving-order-turn-left</title>
    <desc>Created with Sketch.</desc>
    <g id="sign-giving-order-turn-left" stroke="none" stroke-width="1" fill="none" fill-rule="evenodd">
        <g id="Group">
            <path d="M209.982432,-6.069721e-13 C325.891043,-6.069721e-13 419.965348,94.0550847 419.965348,209.953729 C419.965348,325.851661 325.891043,419.906746 209.982432,419.906746 C94.0745342,419.906746 0.000229106453,325.851661 0.000229106453,209.953729 C0.000229106453,94.0550847 94.0745342,-6.069721e-13 209.982432,-6.069721e-13" id="Fill-276" fill="#FFFFFE"></path>
            <path d="M209.982537,0.00166177627 C325.890628,0.00166177627 419.965074,94.0565435 419.965074,209.954852 C419.965074,325.853161 325.890628,419.908043 209.982537,419.908043 C94.0744459,419.908043 5.74094444e-12,325.853161 5.74094444e-12,209.954852 C5.74094444e-12,94.0565435 94.0744459,0.00166177627 209.982537,0.00166177627" id="Stroke-277" stroke="#0070AC" stroke-width="0.425"></path>
            <path d="M209.835788,10.5647797 C320.109992,10.5647797 409.596331,99.8952203 409.596331,209.953729 C409.596331,320.012237 320.109992,409.341966 209.835788,409.341966 C99.5622969,409.341966 10.0759579,320.012237 10.0759579,209.953729 C10.0759579,99.8952203 99.5622969,10.5647797 209.835788,10.5647797" id="Fill-278" fill="#0070AC"></path>
            <polygon id="Fill-279" fill="#FFFFFE" points="199.652568 293.502407 143.982636 237.842441 380.38711 237.842441 380.38711 182.544102 143.982636 182.544102 199.652568 126.884136 116.50467 126.884136 33.0051105 210.022068 116.50467 293.502407"></polygon>
        </g>
    </g>
</svg>