<?xml version="1.0" encoding="UTF-8"?>
<svg width="420px" height="420px" viewBox="0 0 420 420" version="1.1" xmlns="http://www.w3.org/2000/svg" xmlns:xlink="http://www.w3.org/1999/xlink">
    <!-- Generator: Sketch 61.2 (89653) - https://sketch.com -->
    <title>sign-giving-order-turn-left-ahead</title>
    <desc>Created with Sketch.</desc>
    <g id="sign-giving-order-turn-left-ahead" stroke="none" stroke-width="1" fill="none" fill-rule="evenodd">
        <g id="Group-2">
            <path d="M209.983043,-6.069721e-13 C325.890941,-6.069721e-13 419.965958,94.0550847 419.965958,209.953729 C419.965958,325.851661 325.890941,419.906746 209.983043,419.906746 C94.0751447,419.906746 0.000127736936,325.851661 0.000127736936,209.953729 C0.000127736936,94.0550847 94.0751447,-6.069721e-13 209.983043,-6.069721e-13" id="Fill-269" fill="#FFFFFE"></path>
            <path d="M209.982537,0.00166177627 C325.890628,0.00166177627 419.965074,94.0565435 419.965074,209.954852 C419.965074,325.853161 325.890628,419.908043 209.982537,419.908043 C94.0744459,419.908043 5.69036343e-12,325.853161 5.69036343e-12,209.954852 C5.69036343e-12,94.0565435 94.0744459,0.00166177627 209.982537,0.00166177627" id="Stroke-270" stroke="#0070AC" stroke-width="0.425"></path>
            <path d="M209.983043,10.5647797 C320.256535,10.5647797 409.743585,99.8952203 409.743585,209.953729 C409.743585,320.012237 320.256535,409.341966 209.983043,409.341966 C99.7095515,409.341966 10.2225006,320.012237 10.2225006,209.953729 C10.2225006,99.8952203 99.7095515,10.5647797 209.983043,10.5647797" id="Fill-271" fill="#0070AC"></path>
            <polygon id="Fill-272" fill="#FFFFFE" points="113.766026 208.965661 44.3620938 139.91339 113.766026 70.5194237 183.169958 70.5194237 113.766026 139.91339 183.169958 208.965661"></polygon>
            <path d="M259.627043,170.912949 C259.627043,167.039695 256.457823,163.869763 252.583857,163.869763 L259.627043,163.869763 L107.075212,163.869763 L107.075212,115.605356 L259.627043,115.605356" id="Fill-273" fill="#FFFFFE"></path>
            <path d="M259.627043,170.912949 L307.892162,170.912949 L307.892162,150.135763 C307.892162,131.109763 292.397009,115.605356 273.371009,115.605356 L259.627043,115.605356" id="Fill-274" fill="#FFFFFE"></path>
            <polygon id="Fill-275" fill="#FFFFFE" points="259.627043 361.488305 307.891934 361.488305 307.891934 170.913376 259.627043 170.913376"></polygon>
        </g>
    </g>
</svg>