<?xml version="1.0" encoding="UTF-8"?>
<svg width="420px" height="420px" viewBox="0 0 420 420" version="1.1" xmlns="http://www.w3.org/2000/svg" xmlns:xlink="http://www.w3.org/1999/xlink">
    <!-- Generator: Sketch 61.2 (89653) - https://sketch.com -->
    <title>sign-giving-order-vehicle-pass-either-side</title>
    <desc>Created with Sketch.</desc>
    <g id="sign-giving-order-vehicle-pass-either-side" stroke="none" stroke-width="1" fill="none" fill-rule="evenodd">
        <g id="Group-3">
            <path d="M209.983329,-6.069721e-13 C325.891227,-6.069721e-13 419.965532,94.0550847 419.965532,209.953729 C419.965532,325.851661 325.891227,419.906746 209.983329,419.906746 C94.0754306,419.906746 0.000413621698,325.851661 0.000413621698,209.953729 C0.000413621698,94.0550847 94.0754306,-6.069721e-13 209.983329,-6.069721e-13" id="Fill-260" fill="#FFFFFE"></path>
            <path d="M209.982537,0.00166177627 C325.890628,0.00166177627 419.965074,94.0565435 419.965074,209.954852 C419.965074,325.853161 325.890628,419.908043 209.982537,419.908043 C94.0744459,419.908043 -7.08134116e-12,325.853161 -7.08134116e-12,209.954852 C-7.08134116e-12,94.0565435 94.0744459,0.00166177627 209.982537,0.00166177627" id="Stroke-261" stroke="#0070AC" stroke-width="0.425"></path>
            <path d="M209.983329,10.5647797 C320.061058,10.5647797 409.391498,99.8952203 409.391498,209.953729 C409.391498,320.012237 320.061058,409.341966 209.983329,409.341966 C99.9056001,409.341966 10.5751594,320.012237 10.5751594,209.953729 C10.5751594,99.8952203 99.9056001,10.5647797 209.983329,10.5647797" id="Fill-262" fill="#0070AC"></path>
            <polyline id="Fill-263" fill="#FFFFFE" points="265.232549 107.15339 339.214481 235.377254 352.606075 184.656915 380.436414 232.912068 360.354007 308.655153 284.258549 288.220373 256.780583 240.316881 307.158515 253.69922 233.166617 125.475356"></polyline>
            <polyline id="Fill-264" fill="#FFFFFE" points="188.071431 125.827729 114.089498 253.69922 164.819092 240.316881 136.989464 288.220373 61.2364136 308.655153 40.801634 232.912068 68.641939 184.656915 82.0235662 235.377254 156.015464 107.15339"></polyline>
        </g>
    </g>
</svg>