<?xml version="1.0" encoding="UTF-8"?>
<svg width="420px" height="420px" viewBox="0 0 420 420" version="1.1" xmlns="http://www.w3.org/2000/svg" xmlns:xlink="http://www.w3.org/1999/xlink">
    <!-- Generator: Sketch 61.2 (89653) - https://sketch.com -->
    <title>sign-giving-order-minimum-speed</title>
    <desc>Created with Sketch.</desc>
    <g id="sign-giving-order-minimum-speed" stroke="none" stroke-width="1" fill="none" fill-rule="evenodd">
        <g id="Group-241">
            <g id="Group-240">
                <g id="Group-235">
                    <path d="M209.4792,5.6434 C323.164059,5.6434 415.425024,97.9043646 415.425024,211.589224 C415.425024,325.274083 323.164059,417.525449 209.4792,417.525449 C95.794341,417.525449 3.53337634,325.274083 3.53337634,211.589224 C3.53337634,97.9043646 95.794341,5.6434 209.4792,5.6434" id="Fill-232" fill="#FFFFFE"></path>
                    <path d="M209.4792,5.6434 C323.164059,5.6434 415.425024,97.9043646 415.425024,211.589224 C415.425024,325.274083 323.164059,417.525449 209.4792,417.525449 C95.794341,417.525449 3.53337634,325.274083 3.53337634,211.589224 C3.53337634,97.9043646 95.794341,5.6434 209.4792,5.6434" id="Stroke-234" stroke="#006FAB" stroke-width="0.425"></path>
                </g>
                <path d="M210.6314,16.8147 C318.7779,16.8147 406.5467,104.5933 406.5467,212.7398 C406.5467,320.8863 318.7779,408.6551 210.6314,408.6551 C102.4751,408.6551 14.7063,320.8863 14.7063,212.7398 C14.7063,104.5933 102.4751,16.8147 210.6314,16.8147" id="Fill-236" fill="#006FAB"></path>
                <path d="M302.4301,142.6215 C281.6975,142.6215 259.2373,161.2912 259.2373,211.3853 C259.2373,261.1539 280.9968,279.804 302.4301,279.804 C323.8543,279.804 345.6236,261.1539 345.6236,211.3853 C345.6236,161.2912 323.1634,142.6215 302.4301,142.6215 M302.4301,112.5691 C261.3009,112.5691 226.0643,147.4592 226.0643,211.3853 C226.0643,277.0397 262.0016,310.5669 302.4301,310.5669 C342.8593,310.5669 378.7959,277.0397 378.7959,211.3853 C378.7959,147.4592 343.5502,112.5691 302.4301,112.5691" id="Fill-238" fill="#FFFFFE"></path>
                <path d="M86.8119,249.0495 L53.2938,254.2323 C53.2938,280.5033 78.519,310.2113 123.7859,310.2113 C169.0521,310.2113 190.4763,281.54 190.4763,250.0953 C190.4763,218.9866 167.3147,208.9752 167.3147,208.9752 C167.3147,208.9752 188.0571,201.3732 188.0571,173.3844 C188.0571,147.1127 173.544,114.9869 122.7492,114.9869 C71.9537,114.9869 53.2938,151.2693 53.2938,174.0753 L86.8119,178.2123 C86.8119,162.3167 96.8331,143.6673 124.4768,143.6673 C152.1205,143.6673 155.5757,164.3999 155.5757,170.9652 C155.5757,176.1487 161.1043,197.5722 108.2361,197.5722 L108.2361,223.4785 C124.1212,223.4785 140.7175,223.4785 148.6653,230.0536 C156.2673,235.928 156.2673,245.9492 156.2673,250.7869 C156.2673,255.6239 154.539,279.4575 122.4034,279.4575 C90.2678,279.4575 86.8119,257.6973 86.8119,249.0495" id="Fill-239" fill="#FFFFFE"></path>
            </g>
        </g>
    </g>
</svg>