<?xml version="1.0" encoding="UTF-8"?>
<svg width="420px" height="420px" viewBox="0 0 420 420" version="1.1" xmlns="http://www.w3.org/2000/svg" xmlns:xlink="http://www.w3.org/1999/xlink">
    <!-- Generator: Sketch 61.2 (89653) - https://sketch.com -->
    <title>sign-giving-order-national-speed-limit</title>
    <desc>Created with Sketch.</desc>
    <g id="sign-giving-order-national-speed-limit" stroke="none" stroke-width="1" fill="none" fill-rule="evenodd">
        <g id="Group">
            <path d="M60.9488372,354.384767 C142.213953,435.630349 273.781395,435.630349 354.694884,354.384767 C435.950233,273.481047 435.950233,141.93314 354.694884,60.6777907 C273.781395,-20.2259302 142.213953,-20.2259302 60.9488372,60.6777907 C-20.3162791,141.93314 -20.3162791,273.481047 60.9488372,354.384767" id="Fill-11" fill="#FFFFFE"></path>
            <path d="M60.9488372,354.384767 C142.213953,435.630349 273.781395,435.630349 354.694884,354.384767 C435.950233,273.481047 435.950233,141.93314 354.694884,60.6777907 C273.781395,-20.2259302 142.213953,-20.2259302 60.9488372,60.6777907 C-20.3162791,141.93314 -20.3162791,273.481047 60.9488372,354.384767 Z" id="Stroke-12" stroke="#1A1919" stroke-width="0.567" stroke-linejoin="round"></path>
            <path d="M388.46093,104.992674 C379.318605,88.8177907 368.056744,74.0396512 354.694884,60.6777907 C341.323256,47.3061628 326.896744,36.4056977 310.360465,26.9117442 L27.1730233,310.411744 C36.6767442,326.596395 47.5772093,341.364767 60.9488372,354.384767 C74.3106977,367.746628 88.7372093,378.998721 105.273488,388.150814" id="Fill-13" fill="#1A1919"></path>
        </g>
    </g>
</svg>