<?xml version="1.0" encoding="UTF-8"?>
<svg width="420px" height="420px" viewBox="0 0 420 420" version="1.1" xmlns="http://www.w3.org/2000/svg" xmlns:xlink="http://www.w3.org/1999/xlink">
    <!-- Generator: Sketch 61.2 (89653) - https://sketch.com -->
    <title>sign-giving-order-no-motor-vehicles</title>
    <desc>Created with Sketch.</desc>
    <g id="sign-giving-order-no-motor-vehicles" stroke="none" stroke-width="1" fill="none" fill-rule="evenodd">
        <g id="Group">
            <path d="M171.894895,3.22749569 C58.8038442,23.3099025 -16.5868677,131.098987 3.13391195,244.180072 C23.2163187,357.261157 131.025336,432.994275 244.125641,412.911869 C357.216692,392.838716 432.969031,285.039665 412.886624,171.968547 C393.155878,58.8874618 284.9952,-16.855623 171.894895,3.22749569" id="Fill-10" fill="#D0383F"></path>
            <path d="M179.299709,44.4394618 C88.7469967,60.2962415 28.5090306,146.603394 44.3558442,237.136886 C60.2126238,327.670377 146.529742,388.260716 237.0732,372.051563 C327.625912,356.20475 387.873844,269.896886 372.017064,179.364106 C356.160285,88.8306143 269.843166,28.2402753 179.299709,44.4394618" id="Fill-12" fill="#FFFFFE"></path>
            <path d="M150.75537,119.477801 L150.75537,119.477801 C166.710387,119.477801 179.652081,132.262886 179.652081,148.012174 C179.652081,163.761462 166.710387,176.546547 150.75537,176.546547 C134.811031,176.546547 121.869336,163.761462 121.869336,148.012174 C121.869336,132.262886 134.811031,119.477801 150.75537,119.477801 M150.75537,130.394953 L150.75537,130.394953 C160.674488,130.394953 168.725675,138.288818 168.725675,148.012174 C168.725675,157.73553 160.674488,165.62014 150.75537,165.62014 C140.836963,165.62014 132.795742,157.73553 132.795742,148.012174 C132.795742,138.288818 140.836963,130.394953 150.75537,130.394953 M150.75537,137.085767 L150.75537,137.085767 C156.791268,137.085767 161.682488,141.986241 161.682488,148.012174 C161.682488,154.038106 156.791268,158.929326 150.75537,158.929326 C144.730149,158.929326 139.838929,154.038106 139.838929,148.012174 C139.838929,141.986241 144.730149,137.085767 150.75537,137.085767" id="Fill-13" fill="#1A1919"></path>
            <path d="M274.068793,119.477801 L274.068793,119.477801 C289.828048,119.477801 302.613132,132.262886 302.613132,148.012174 C302.613132,163.761462 289.828048,176.546547 274.068793,176.546547 C258.319505,176.546547 245.53442,163.761462 245.53442,148.012174 C245.53442,132.262886 258.319505,119.477801 274.068793,119.477801 M274.068793,130.394953 L274.068793,130.394953 C283.792149,130.394953 291.686726,138.288818 291.686726,148.012174 C291.686726,157.73553 283.792149,165.62014 274.068793,165.62014 C264.345437,165.62014 256.451573,157.73553 256.451573,148.012174 C256.451573,138.288818 264.345437,130.394953 274.068793,130.394953 M274.068793,137.085767 L274.068793,137.085767 C280.104692,137.085767 284.9952,141.986241 284.9952,148.012174 C284.9952,154.038106 280.104692,158.929326 274.068793,158.929326 C268.042861,158.929326 263.152353,154.038106 263.152353,148.012174 C263.152353,141.986241 268.042861,137.085767 274.068793,137.085767" id="Fill-14" fill="#1A1919"></path>
            <polyline id="Fill-15" fill="#1A1919" points="272.660014 128.281428 276.886353 139.902614 267.730353 142.73014 263.504014 130.746614"></polyline>
            <polyline id="Fill-16" fill="#1A1919" points="158.864929 144.49058 173.303675 121.238953 164.147675 115.956208 149.698963 139.19858"></polyline>
            <path d="M287.812759,115.603835 C300.490353,121.238953 309.303946,133.564174 309.303946,148.012174 L297.321132,148.012174 L291.334353,132.859428 L271.95598,124.408174 L252.225234,137.437428 L252.225234,161.746174 L227.212454,161.746174 C215.229641,162.098547 206.777675,162.098547 196.565268,162.098547 C186.342895,162.098547 183.173675,155.05536 183.173675,148.012174 C183.173675,130.394953 168.373302,115.603835 150.75537,115.603835 L150.051336,115.603835 L150.051336,103.621021 L157.456149,103.621021 C163.090556,103.621021 172.247268,100.451801 175.778115,95.169055 L190.568522,72.2690889 C192.682048,69.0998686 193.738454,70.8610211 193.386081,72.6214618 L187.399302,97.9866143 C186.342895,101.155835 190.216861,102.916987 193.386081,100.099428 L200.790895,93.0562415 L208.890488,80.0170211 L208.890488,77.9042076 C205.173844,77.9042076 202.092183,75.5956313 201.857268,72.6214618 L201.847302,72.6214618 L201.847302,63.8178347 L199.382827,63.8178347 C200.086861,57.4786821 203.608454,52.5490211 210.651641,52.5490211 C218.056454,52.5490211 222.282081,57.4786821 222.282081,63.8178347 C221.93042,69.4522415 220.874014,69.4522415 219.817607,71.2126821 L219.817607,75.0866482 C220.874014,75.0866482 221.93042,75.0866482 223.690861,75.7906821 C225.099641,76.4954279 231.08642,78.9606143 232.4952,79.6646482 C233.903268,80.3686821 234.255641,80.3686821 236.016793,82.1398008 L250.464793,97.2825804 C253.634014,100.451801 253.634014,103.973394 253.634014,107.142614 L282.530014,107.142614 C286.40398,107.142614 287.812759,109.607801 287.812759,114.195767 L287.812759,115.603835 Z M215.229641,98.6906482 L192.682048,111.73058 L211.003302,119.125428 L223.3392,106.790241 C219.465234,104.677428 217.704081,102.916987 215.229641,98.6906482 L215.229641,98.6906482 Z M245.886793,141.663767 C247.295573,134.972953 251.168827,128.986174 256.803234,125.112208 C257.50798,124.408174 257.155633,123.351767 255.746827,123.351767 L244.125641,123.351767 L244.125641,141.663767 C244.125641,143.081801 245.53442,143.434174 245.886793,141.663767 L245.886793,141.663767 Z" id="Fill-17" fill="#1A1919"></path>
            <path d="M134.556183,248.405699 L143.360522,202.968106 C144.416929,198.027767 150.403709,188.520106 162.738895,188.167733 L253.634014,188.167733 C265.616827,188.520106 271.603607,198.027767 272.660014,202.968106 L281.82598,248.405699 C287.460387,249.462106 293.447166,255.097225 293.447166,261.083292 L293.447166,298.783631 C293.447166,304.418038 288.516793,308.996038 286.051607,310.757191 L286.051607,338.235157 C282.530014,341.75675 278.646793,344.221936 273.71642,344.221936 C268.786759,344.221936 263.504014,341.75675 260.334793,338.235157 L260.334793,311.813597 L236.720827,313.574038 L179.652081,313.574038 L156.048081,311.813597 L156.048081,338.235157 C152.868895,341.75675 147.586149,344.221936 142.655776,344.221936 C137.726115,344.221936 133.852149,341.75675 129.968929,338.235157 L129.968929,310.757191 C127.856115,308.996038 122.925742,304.418038 122.925742,298.783631 L122.925742,261.083292 C122.925742,255.097225 128.912522,249.462106 134.556183,248.405699 L134.556183,248.405699 Z M271.603607,256.505292 L271.603607,256.505292 C278.021064,256.505292 283.234759,261.875597 283.234759,268.488818 C283.234759,275.101326 278.021064,280.461665 271.603607,280.461665 C265.186861,280.461665 259.98242,275.101326 259.98242,268.488818 C259.98242,261.875597 265.186861,256.505292 271.603607,256.505292 L271.603607,256.505292 Z M144.064556,256.505292 L144.064556,256.505292 C150.482014,256.505292 155.695709,261.875597 155.695709,268.488818 C155.695709,275.101326 150.482014,280.461665 144.064556,280.461665 C137.64781,280.461665 132.44337,275.101326 132.44337,268.488818 C132.44337,261.875597 137.64781,256.505292 144.064556,256.505292 L144.064556,256.505292 Z M146.17737,230.788479 L148.642556,217.054479 C151.812488,202.968106 166.964522,200.845326 182.468929,200.845326 L233.903268,200.845326 C249.408387,200.845326 264.56042,202.968106 267.37798,217.054479 L269.843166,230.788479 C271.251946,238.898038 266.673234,241.714886 257.859641,241.362513 L208.186454,239.249699 L158.512556,241.362513 C149.698963,241.714886 145.120963,238.898038 146.17737,230.788479 L146.17737,230.788479 Z M164.499336,269.545225 L164.499336,274.475597 L251.5212,274.475597 L251.5212,269.545225 L224.395607,267.784072 L191.977302,267.784072 L164.499336,269.545225 Z M208.186454,281.518072 L251.873573,281.518072 L251.873573,288.209597 L164.499336,288.209597 L164.499336,281.518072 L207.834081,281.518072 L208.186454,281.518072 Z M164.499336,300.192411 L164.499336,294.910377 L251.5212,294.910377 L251.5212,300.192411 L224.395607,301.601191 L191.977302,301.601191 L164.499336,300.192411 L164.499336,300.192411 Z" id="Fill-18" fill="#1A1919"></path>
        </g>
    </g>
</svg>