<?xml version="1.0" encoding="UTF-8"?>
<svg width="420px" height="420px" viewBox="0 0 420 420" version="1.1" xmlns="http://www.w3.org/2000/svg" xmlns:xlink="http://www.w3.org/1999/xlink">
    <!-- Generator: Sketch 61.2 (89653) - https://sketch.com -->
    <title>sign-giving-order-mini-roundabout</title>
    <desc>Created with Sketch.</desc>
    <g id="sign-giving-order-mini-roundabout" stroke="none" stroke-width="1" fill="none" fill-rule="evenodd">
        <g id="Group">
            <path d="M209.983329,2.02324033e-13 C325.891227,2.02324033e-13 419.965532,94.0550847 419.965532,209.953729 C419.965532,325.851661 325.891227,419.906746 209.983329,419.906746 C94.0754306,419.906746 0.000413621694,325.851661 0.000413621694,209.953729 C0.000413621694,94.0550847 94.0754306,2.02324033e-13 209.983329,2.02324033e-13" id="Fill-306" fill="#FFFFFE"></path>
            <path d="M209.982537,0.00127850848 C325.890628,0.00127850848 419.965074,94.0561602 419.965074,209.954469 C419.965074,325.852778 325.890628,419.907659 209.982537,419.907659 C94.0744459,419.907659 2.02324033e-13,325.852778 2.02324033e-13,209.954469 C2.02324033e-13,94.0561602 94.0744459,0.00127850848 209.982537,0.00127850848" id="Stroke-307" stroke="#0070AC" stroke-width="0.425"></path>
            <path d="M209.983329,10.2124068 C320.061058,10.2124068 409.391498,99.6994576 409.391498,209.953729 C409.391498,320.207288 320.061058,409.694339 209.983329,409.694339 C99.9056001,409.694339 10.5751594,320.207288 10.5751594,209.953729 C10.5751594,99.6994576 99.9056001,10.2124068 209.983329,10.2124068" id="Fill-308" fill="#0070AC"></path>
            <polygon id="Fill-309" fill="#FFFFFE" points="172.928651 67.3694237 170.101837 126.199322 139.453939 154.381322 141.919125 95.5521356 83.0799729 92.7345763 113.737125 64.5525763"></polygon>
            <path d="M96.4715662,238.575661 C81.6711933,183.619729 108.455092,126.903356 157.424244,102.604576 L146.497125,76.8877627 C84.8411255,106.830915 51.0240068,177.281288 69.6983458,245.97122" id="Fill-310" fill="#FFFFFE"></path>
            <polygon id="Fill-311" fill="#FFFFFE" points="351.198007 245.97122 301.524109 214.267627 292.358142 173.759695 342.041295 205.111627 342.032041 205.111627 373.7456 155.437729 382.9016 196.307288"></polygon>
            <path d="M240.923803,94.1433559 C295.879736,108.943729 331.467261,160.378068 328.298041,214.971661 L355.776007,218.493254 C360.705668,150.155695 316.666888,85.6913898 247.96699,67.3694237" id="Fill-312" fill="#FFFFFE"></path>
            <polygon id="Fill-313" fill="#FFFFFE" points="107.036346 311.501186 159.537058 284.02322 199.35021 296.700814 146.849498 323.827119 173.985058 376.317864 134.524278 363.630305"></polygon>
            <path d="M294.119295,291.771153 C253.601397,331.926712 191.240651,337.208746 145.793092,307.265593 L128.889871,329.109153 C185.606244,367.504271 263.472109,361.517492 313.849329,311.501186" id="Fill-314" fill="#FFFFFE"></path>
        </g>
    </g>
</svg>