<?xml version="1.0" encoding="UTF-8"?>
<svg width="420px" height="420px" viewBox="0 0 420 420" version="1.1" xmlns="http://www.w3.org/2000/svg" xmlns:xlink="http://www.w3.org/1999/xlink">
    <!-- Generator: Sketch 61.2 (89653) - https://sketch.com -->
    <title>sign-giving-order-school-crossing-patrol</title>
    <desc>Created with Sketch.</desc>
    <g id="sign-giving-order-school-crossing-patrol" stroke="none" stroke-width="1" fill="none" fill-rule="evenodd">
        <g id="Group">
            <path d="M207.870102,1.61859227e-12 C322.614102,1.61859227e-12 415.739492,93.1154237 415.739492,207.840203 C415.739492,322.564271 322.614102,415.680407 207.870102,415.680407 C93.1261017,415.680407 -2.02324033e-13,322.564271 -2.02324033e-13,207.840203 C-2.02324033e-13,93.1154237 93.1261017,1.61859227e-12 207.870102,1.61859227e-12" id="Fill-96" fill="#D0383F"></path>
            <path d="M207.870102,41.5636271 C299.665017,41.5636271 374.165898,116.054542 374.165898,207.840203 C374.165898,299.625153 299.665017,374.106102 207.870102,374.106102 C116.074475,374.106102 41.5743051,299.625153 41.5743051,207.840203 C41.5743051,116.054542 116.074475,41.5636271 207.870102,41.5636271" id="Fill-97" fill="#FBD033"></path>
            <path d="M90.2594237,180.372203 L90.2594237,180.372203 C74.8916949,180.372203 62.4198305,192.844068 62.4198305,208.201831 C62.4198305,223.559593 74.8916949,236.032169 90.2594237,236.032169 L325.959153,236.032169 C341.317627,236.032169 353.789492,223.559593 353.789492,208.201831 C353.789492,192.844068 341.317627,180.372203 325.959153,180.372203" id="Fill-98" fill="#1A1919"></path>
            <path d="M237.167593,114.146746 C228.363254,114.146746 219.912,120.838271 219.912,134.933898 C219.912,149.020271 228.715627,156.063458 237.167593,156.063458 C245.628814,156.063458 254.08078,149.020271 254.08078,134.933898 C254.08078,120.838271 245.981186,114.146746 237.167593,114.146746 M237.167593,101.459898 C224.841661,101.459898 206.519695,111.329898 206.519695,134.581525 C206.519695,158.176271 224.137627,167.69461 237.167593,167.69461 C249.854441,167.69461 267.824746,158.176271 267.824746,134.581525 C267.824746,111.329898 249.50278,101.459898 237.167593,101.459898" id="Fill-99" fill="#1A1919"></path>
            <path d="M309.398339,113.795085 L296.71078,113.795085 L296.71078,132.459458 L309.398339,132.459458 C315.032746,132.459458 319.259085,127.529085 319.259085,122.951085 C319.259085,118.724746 315.385119,113.795085 309.398339,113.795085 M313.976339,102.163932 L284.033186,102.163932 L284.033186,167.342237 L296.71078,167.342237 L296.71078,144.089898 L311.511153,144.089898 C325.255119,144.089898 332.298305,133.867525 332.298305,122.951085 C332.298305,112.033932 324.551085,102.163932 313.976339,102.163932" id="Fill-100" fill="#1A1919"></path>
            <path d="M83.5586441,156.415831 L92.7246102,147.259119 C104.698169,155.711085 114.568169,156.415831 117.033356,156.415831 C120.554949,156.415831 124.076542,153.245898 124.076542,149.020271 C124.076542,144.794644 120.907322,142.681119 118.793797,141.977085 C116.680983,141.624712 107.86739,139.864271 103.994136,138.807864 C100.472542,138.103119 88.4890169,134.933898 88.4890169,120.485898 C88.4890169,106.047153 98.7113898,101.107525 110.332576,101.107525 C121.963729,101.107525 130.414983,104.639085 138.172169,111.329898 L129.006915,119.781864 C124.428915,116.260271 118.442136,113.442712 109.628542,113.442712 C104.345797,113.442712 103.28939,118.373085 103.28939,119.781864 C103.28939,121.542305 104.345797,125.416271 107.86739,126.120305 C111.398949,126.824339 120.202576,128.937864 121.611356,129.289525 C125.485322,129.641898 138.172169,134.581525 138.172169,147.963864 C138.172169,160.289085 130.063322,168.398644 115.272203,168.398644 C100.120169,168.398644 88.4890169,161.345492 83.5586441,156.415831" id="Fill-101" fill="#1A1919"></path>
            <polyline id="Fill-102" fill="#1A1919" points="186.084915 114.499119 179.394102 114.499119 179.394102 166.989864 166.706542 166.989864 166.706542 114.499119 148.385288 114.499119 148.385288 102.163932 197.363695 102.163932 197.363695 114.499119 189.958881 114.499119"></polyline>
            <path d="M217.798475,282.174508 C217.798475,290.283356 216.028068,300.848136 214.971661,304.017356 C213.915254,307.187288 208.984881,318.113695 208.984881,318.113695 C208.984881,318.113695 213.21122,321.635288 213.21122,321.282915 C210.041288,323.044068 205.111627,326.213288 202.998102,328.326102 C200.885288,330.087254 198.420102,333.608847 197.363695,335.721661 C195.955627,337.834475 192.424068,342.412475 190.662915,343.468881 C189.254847,344.172915 188.550102,345.229322 189.254847,346.648068 C189.958881,348.056847 190.662915,351.578441 191.015288,352.282475 C191.720034,353.338881 189.606508,355.100034 188.902475,352.986508 C188.198441,350.873695 187.846068,350.522034 187.846068,349.465627 C187.493695,348.056847 186.437288,340.299661 186.084915,338.538508 C185.733254,336.778068 183.972102,328.326102 183.620441,326.565661 C182.915695,324.452136 180.802881,317.409661 180.450508,315.296136 C180.098847,313.173356 179.746475,308.947729 179.746475,307.891322 C179.746475,307.187288 179.746475,304.722102 180.098847,304.722102 C180.098847,304.722102 185.733254,312.821695 187.141322,313.878102 C188.902475,314.934508 191.367661,315.648508 193.480475,314.934508 C195.603254,314.230475 204.759254,311.412915 206.519695,311.060542 C208.63322,310.356508 210.746034,307.891322 211.097695,306.482542 C211.450068,304.722102 211.097695,302.960949 210.393661,301.904542 C210.041288,300.495763 207.224441,293.453288 207.224441,292.044508 C206.872068,290.283356 205.815661,288.875288 207.224441,287.818169 C208.63322,286.761763 217.798475,282.174508 217.798475,282.174508 M251.615593,320.578881 C250.559186,321.282915 248.094,322.339322 247.389966,322.339322 C246.68522,322.339322 247.037593,322.691695 247.389966,323.395729 C247.389966,323.748102 254.784814,351.578441 254.784814,352.634847 C255.137186,353.691254 256.193593,354.747661 257.602373,355.100034 C259.362814,355.100034 263.598407,355.451695 265.007186,355.804068 C266.415966,356.156441 267.12,356.156441 267.12,357.212847 C267.12,358.621627 266.063593,358.621627 265.359559,358.621627 C265.007186,358.621627 255.489559,361.086102 254.432441,361.438475 C253.376034,361.790847 251.615593,362.14322 251.26322,362.14322 C250.559186,362.14322 248.798034,361.438475 248.446373,360.029695 C248.446373,358.621627 248.094,355.804068 247.389966,354.747661 C247.037593,353.338881 245.276441,349.113254 243.868373,347.704475 C242.811254,345.934068 240.698441,342.060102 239.994407,339.947288 C239.290373,337.834475 238.233254,333.256475 238.233254,329.030136 C238.233254,327.269695 238.233254,324.452136 235.758814,324.452136 C233.293627,324.452136 232.23722,325.156881 229.772034,325.156881 L225.194034,325.156881 C223.785254,325.156881 222.024814,325.509254 221.320068,326.565661 C220.263661,327.622068 214.619288,333.256475 213.562881,334.312881 C212.154814,335.369288 206.872068,340.299661 205.111627,341.356068 C203.702847,342.764847 200.533627,345.229322 199.47722,345.934068 C198.420102,346.648068 198.068441,347.352102 198.420102,348.408508 C198.772475,349.465627 200.181254,357.212847 200.533627,358.269254 C200.885288,360.382068 200.181254,360.734441 198.772475,360.734441 C197.716068,360.734441 194.889254,358.621627 193.832847,358.269254 L180.450508,361.438475 C179.041729,348.760881 173.045695,330.438915 168.820068,323.395729 C167.058915,325.860915 161.776881,332.551729 159.311695,334.312881 C157.198881,336.073322 155.085356,336.778068 152.963288,337.129729 C150.849763,337.834475 140.637356,341.356068 139.580949,341.707729 C138.524542,342.060102 137.820508,342.764847 137.820508,343.821254 C137.468136,344.877661 137.115763,349.817288 137.115763,350.873695 C137.115763,351.578441 136.764102,351.930102 135.707695,352.282475 C134.298915,352.282475 134.298915,350.873695 134.298915,350.873695 L130.767356,334.665254 L145.920102,328.326102 C150.145729,326.565661 154.381322,322.691695 156.494136,317.057288 C158.959322,311.765288 160.720475,305.426136 161.072136,298.735322 C157.902915,300.144102 154.381322,302.960949 152.963288,305.073763 C151.202136,307.187288 149.089322,311.060542 149.089322,313.525729 C149.089322,316.352542 150.849763,316.352542 150.849763,318.817729 C150.849763,321.282915 148.736949,323.395729 145.920102,323.395729 C143.102542,323.395729 141.693763,321.987661 141.693763,319.874136 C141.693763,317.761322 143.102542,318.466068 143.102542,316.352542 C143.102542,314.230475 142.750169,312.821695 142.750169,311.765288 C142.750169,310.708881 143.454915,304.369729 144.511322,301.552881 C145.920102,298.382949 150.145729,293.453288 151.202136,292.044508 C152.610915,290.283356 155.790102,287.818169 160.015729,286.761763 C163.889695,285.343729 167.058915,285.343729 168.820068,285.343729 C170.228136,285.343729 172.341661,284.991356 170.932881,283.230915 C169.524102,281.469763 167.763661,279.004576 167.763661,274.778949 C167.763661,270.200949 170.580508,264.918915 176.928915,264.918915 C183.268068,264.918915 186.084915,270.200949 186.084915,274.426576 C186.084915,278.652915 182.563322,283.230915 180.802881,284.287322 C179.394102,284.991356 180.098847,286.400136 180.450508,286.761763 C181.155254,287.466508 187.141322,295.566102 188.198441,296.974881 C188.902475,298.735322 193.128102,305.426136 193.480475,306.482542 C193.832847,307.538949 194.889254,308.243695 197.012034,307.538949 C198.772475,306.834915 201.941695,305.426136 202.646441,305.073763 C203.350475,304.369729 202.998102,304.017356 202.646441,302.960949 C202.646441,302.256915 198.068441,289.226949 197.716068,288.170542 C197.363695,287.466508 197.012034,286.761763 197.012034,286.400136 C197.012034,286.400136 197.363695,285.696102 197.716068,284.991356 C198.420102,284.638983 202.998102,279.709322 204.05522,278.652915 C206.519695,276.891763 214.619288,270.200949 216.380441,269.496915 C217.798475,268.792169 217.446814,268.792169 218.50322,268.792169 C219.912,268.792169 222.376475,269.496915 223.08122,269.496915 C224.137627,269.496915 224.841661,268.088136 223.433593,267.735763 C222.024814,267.38339 219.207254,266.326983 218.50322,264.566542 C217.446814,262.80539 217.094441,259.283797 217.094441,257.875729 C217.094441,256.466949 217.798475,245.540542 227.306847,245.540542 C237.167593,245.540542 237.519254,256.114576 237.519254,258.22739 C237.519254,260.340203 237.167593,263.861797 236.111186,265.270576 C235.054068,266.326983 233.997661,267.031729 233.646,267.38339 C233.293627,267.735763 232.589593,269.144542 233.997661,269.144542 C235.054068,269.496915 238.585627,270.553322 240.34678,272.313763 C242.811254,274.778949 245.628814,280.413356 247.037593,283.934949 C248.798034,287.466508 251.615593,293.453288 255.84122,297.326542 C260.076814,301.200508 265.007186,304.369729 265.71122,305.073763 C266.767627,305.426136 267.824746,305.426136 268.176407,305.778508 C268.881153,306.130881 269.937559,307.538949 269.937559,309.300102 C269.937559,311.060542 268.176407,312.821695 266.063593,312.821695 C263.95078,312.821695 263.246746,311.412915 262.542,311.060542 C261.485593,310.708881 259.725153,310.356508 258.65878,309.652475 C257.602373,308.947729 250.910847,304.722102 247.741627,301.552881 C244.572407,298.031288 240.34678,292.396169 239.290373,288.875288 C240.34678,292.396169 243.163627,302.256915 243.868373,303.665695 C244.220034,304.722102 245.628814,308.595356 246.68522,310.708881 C247.741627,313.173356 251.615593,320.578881 251.967966,320.578881" id="Fill-103" fill="#1A1919"></path>
        </g>
    </g>
</svg>