<?xml version="1.0" encoding="UTF-8"?>
<svg width="420px" height="420px" viewBox="0 0 420 420" version="1.1" xmlns="http://www.w3.org/2000/svg" xmlns:xlink="http://www.w3.org/1999/xlink">
    <!-- Generator: Sketch 61.2 (89653) - https://sketch.com -->
    <title>sign-giving-order-no-stopping</title>
    <desc>Created with Sketch.</desc>
    <g id="sign-giving-order-no-stopping" stroke="none" stroke-width="1" fill="none" fill-rule="evenodd">
        <g id="Group">
            <path d="M207.908898,20.8821864 C311.129237,20.8821864 394.903576,104.587475 394.903576,207.720254 C394.903576,310.853034 311.129237,394.558322 207.908898,394.558322 C104.687847,394.558322 20.9142203,310.853034 20.9142203,207.720254 C20.9142203,104.587475 104.687847,20.8821864 207.908898,20.8821864" id="Fill-10561" fill="#0070AC"></path>
            <polygon id="Fill-10562" fill="#D0383F" points="356.469305 91.5774407 324.423305 59.1982881 59.6026271 323.804695 92.0002881 356.183136"></polygon>
            <polygon id="Fill-10563" fill="#D0383F" points="92.0002881 59.1982881 59.6026271 91.5774407 324.423305 356.183136 356.469305 323.804695"></polygon>
            <path d="M61.0106949,354.774356 C142.359,435.701949 274.065305,435.701949 355.061237,354.774356 C436.408831,273.495102 436.408831,141.896288 355.061237,60.9594407 C274.065305,-20.3198136 142.359,-20.3198136 61.0106949,60.9594407 C-20.3368983,141.896288 -20.3368983,273.495102 61.0106949,354.774356 M90.5922203,325.212763 C155.388966,390.312763 260.682966,390.312763 325.832085,325.212763 C390.628831,260.475102 390.628831,155.258695 325.832085,90.168661 C260.682966,25.4210339 155.388966,25.4210339 90.5922203,90.168661 C25.4431017,155.258695 25.4431017,260.475102 90.5922203,325.212763" id="Fill-10564" fill="#D0383F"></path>
        </g>
    </g>
</svg>