<?xml version="1.0" encoding="UTF-8"?>
<svg width="280px" height="420px" viewBox="0 0 280 420" version="1.1" xmlns="http://www.w3.org/2000/svg" xmlns:xlink="http://www.w3.org/1999/xlink">
    <!-- Generator: Sketch 61.2 (89653) - https://sketch.com -->
    <title>sign-giving-order-one-way-traffic</title>
    <desc>Created with Sketch.</desc>
    <g id="sign-giving-order-one-way-traffic" stroke="none" stroke-width="1" fill="none" fill-rule="evenodd">
        <g id="Group">
            <path d="M139.102296,-1.98951966e-13 L24.5969961,-1.98951966e-13 C11.0148961,-1.98951966e-13 0.00109614399,11.0138 0.00109614399,24.5959 L0.00109614399,390.39 C0.00109614399,403.9721 11.0148961,414.9859 24.5969961,414.9859 L253.597796,414.9859 C267.189696,414.9859 278.193696,403.9721 278.193696,390.39 L278.193696,24.5959 C278.193696,11.0138 267.189696,-1.98951966e-13 253.597796,-1.98951966e-13 L139.102296,-1.98951966e-13 Z" id="Fill-315" fill="#FFFFFE"></path>
            <path d="M139.101285,0.001124648 L24.5959466,0.001124648 C11.0138283,0.001124648 -4.77484718e-12,11.0149529 -4.77484718e-12,24.5970713 L-4.77484718e-12,390.390837 C-4.77484718e-12,403.972955 11.0138283,414.986784 24.5959466,414.986784 L253.597003,414.986784 C267.188741,414.986784 278.19295,403.972955 278.19295,390.390837 L278.19295,24.5970713 C278.19295,11.0149529 267.188741,0.001124648 253.597003,0.001124648 L139.101285,0.001124648 Z" id="Stroke-316" stroke="#0070AC" stroke-width="0.567" stroke-linejoin="round"></path>
            <path d="M13.5159961,24.5959 L13.5159961,24.5959 C13.5159961,18.6704 18.3249961,13.8614 24.2504961,13.8614 L24.5871961,13.8614 L253.597796,13.8614 C259.494596,13.8614 264.342796,18.7089 264.342796,24.5959 L264.342796,390.39 C264.342796,396.6326 259.494596,401.4808 253.597796,401.4808 L24.5969961,401.4808 C18.3634961,401.4808 13.5159961,396.6326 13.5159961,390.39" id="Fill-317" fill="#0070AC"></path>
            <polyline id="Fill-318" fill="#FFFFFE" points="110.167796 380.3478 110.167796 149.9904 52.6655961 207.4933 52.6655961 121.2386 138.929396 34.6381 225.193196 121.2386 225.193196 207.4933 167.680496 149.9904 167.680496 380.3478"></polyline>
        </g>
    </g>
</svg>