<?xml version="1.0" encoding="UTF-8"?>
<svg width="420px" height="420px" viewBox="0 0 420 420" version="1.1" xmlns="http://www.w3.org/2000/svg" xmlns:xlink="http://www.w3.org/1999/xlink">
    <!-- Generator: Sketch 61.2 (89653) - https://sketch.com -->
    <title>sign-giving-order-no-right-turn</title>
    <desc>Created with Sketch.</desc>
    <g id="sign-giving-order-no-right-turn" stroke="none" stroke-width="1" fill="none" fill-rule="evenodd">
        <g id="Group-2">
            <path d="M207.55814,-1.49213975e-12 C322.130233,-1.49213975e-12 415.116279,92.9762791 415.116279,207.528837 C415.116279,322.081395 322.130233,415.057674 207.55814,415.057674 C92.9860465,415.057674 -3.47009243e-14,322.081395 -3.47009243e-14,207.528837 C-3.47009243e-14,92.9762791 92.9860465,-1.49213975e-12 207.55814,-1.49213975e-12" id="Fill-106" fill="#D0383F"></path>
            <path d="M207.55814,41.5018605 C299.215814,41.5018605 373.604651,115.88093 373.604651,207.528837 C373.604651,299.176744 299.215814,373.546047 207.55814,373.546047 C115.900465,373.546047 41.5116279,299.176744 41.5116279,207.528837 C41.5116279,115.88093 115.900465,41.5018605 207.55814,41.5018605" id="Fill-107" fill="#FFFFFE"></path>
            <path d="M183.266512,135.083721 L183.266512,135.083721 C160.352093,135.083721 141.754884,153.68093 141.754884,176.585581 L141.754884,346.128837 L183.266512,346.128837 L183.266512,190.308837 C183.266512,182.73907 189.410233,176.585581 196.98,176.585581 L326.086047,176.585581 L353.18093,155.839535 L326.086047,135.083721 L183.266512,135.083721" id="Fill-108" fill="#1A1919"></path>
            <polygon id="Fill-109" fill="#D0383F" points="72.0934884 342.612558 98.4851163 364.774884 343.325581 73.1776744 316.592093 50.6637209"></polygon>
        </g>
    </g>
</svg>