<?xml version="1.0" encoding="UTF-8"?>
<svg width="420px" height="420px" viewBox="0 0 420 420" version="1.1" xmlns="http://www.w3.org/2000/svg" xmlns:xlink="http://www.w3.org/1999/xlink">
    <!-- Generator: Sketch 61.2 (89653) - https://sketch.com -->
    <title>sign-giving-order-maximum-speed</title>
    <desc>Created with Sketch.</desc>
    <g id="sign-giving-order-maximum-speed" stroke="none" stroke-width="1" fill="none" fill-rule="evenodd">
        <g id="Group">
            <path d="M207.55814,-1.66564437e-12 C322.130233,-1.66564437e-12 415.116279,92.9762791 415.116279,207.528837 C415.116279,322.081395 322.130233,415.057674 207.55814,415.057674 C92.9860465,415.057674 0,322.081395 0,207.528837 C0,92.9762791 92.9860465,-1.66564437e-12 207.55814,-1.66564437e-12" id="Fill-7" fill="#D0383F"></path>
            <path d="M207.55814,41.5018605 C299.215814,41.5018605 373.604651,115.88093 373.604651,207.528837 C373.604651,299.176744 299.215814,373.546047 207.55814,373.546047 C115.900465,373.546047 41.5116279,299.176744 41.5116279,207.528837 C41.5116279,115.88093 115.900465,41.5018605 207.55814,41.5018605" id="Fill-8" fill="#FFFFFE"></path>
            <path d="M147.058605,214.971628 L147.058605,229.388372 L97.8111628,229.388372 L147.058605,163.966047 L147.058605,181.908837 L147.058605,214.971628 Z M178.373023,212.86186 L178.373023,229.39814 L198.425581,229.39814 L198.425581,257.528372 L178.373023,257.528372 L178.373023,284.26186 L147.058605,284.26186 L147.058605,257.528372 L63.332093,257.528372 L63.332093,229.749767 L138.971163,129.145116 L178.373023,129.145116 L178.373023,178.04093 L178.373023,212.86186 Z" id="Fill-9" fill="#1A1919"></path>
            <path d="M293.052558,157.636744 C309.237209,157.636744 325.773488,167.130698 326.476744,207.587442 C326.828372,247.682791 311.698605,259.989767 293.052558,259.989767 C274.406512,259.989767 259.286512,247.682791 259.63814,207.587442 C260.341395,167.130698 276.516279,157.636744 293.052558,157.636744 M293.052558,128.793488 C315.214884,128.44186 358.484651,141.110233 358.484651,208.642326 C358.484651,276.174419 317.676279,289.546047 293.052558,289.546047 C268.428837,289.546047 227.620465,276.174419 227.620465,208.642326 C227.620465,141.110233 270.890233,128.44186 293.052558,128.793488" id="Fill-10" fill="#1A1919"></path>
        </g>
    </g>
</svg>