<?xml version="1.0" encoding="UTF-8"?>
<svg width="228px" height="420px" viewBox="0 0 228 420" version="1.1" xmlns="http://www.w3.org/2000/svg" xmlns:xlink="http://www.w3.org/1999/xlink">
    <!-- Generator: Sketch 61.2 (89653) - https://sketch.com -->
    <title>sign-giving-order-entry-20-zone</title>
    <desc>Created with Sketch.</desc>
    <g id="sign-giving-order-entry-20-zone" stroke="none" stroke-width="1" fill="none" fill-rule="evenodd">
        <g id="Group">
            <path d="M223.2825,406.63875 C223.2825,412.78125 218.238125,417.825625 212.095625,417.825625 L11.19125,417.825625 C5.044375,417.825625 1.24344979e-13,412.78125 1.24344979e-13,406.63875 L1.24344979e-13,11.186875 C1.24344979e-13,5.04 5.044375,-6.21724894e-13 11.19125,-6.21724894e-13 L212.095625,-6.21724894e-13 C218.238125,-6.21724894e-13 223.2825,5.04 223.2825,11.186875 L223.2825,406.63875" id="Fill-31" fill="#1A1919"></path>
            <path d="M11.19125,290.364375 C8.194375,290.364375 5.516875,293.041875 5.516875,295.88125 L5.516875,406.63875 C5.516875,409.63125 8.194375,412.15125 11.19125,412.15125 L212.095625,412.15125 C215.088125,412.15125 217.765625,409.63125 217.765625,406.63875 L217.765625,295.88125 C217.765625,293.041875 215.088125,290.364375 212.095625,290.364375 L11.19125,290.364375" id="Fill-32" fill="#ABACAB"></path>
            <path d="M217.765625,11.186875 C217.765625,8.19 215.245625,5.67 212.095625,5.67 L11.186875,5.674375 C11.134375,5.67 11.081875,5.67 11.03375,5.67 C7.98875,5.67 5.516875,8.141875 5.516875,11.186875 L5.516875,279.1775 C5.516875,282.331875 8.036875,284.851875 11.19125,284.851875 L212.095625,284.851875 C215.245625,284.851875 217.765625,282.331875 217.765625,279.1775" id="Fill-33" fill="#FFFFFE"></path>
            <path d="M111.391875,18.59375 C162.710625,18.59375 204.360625,60.239375 204.360625,111.549375 C204.360625,162.859375 162.710625,204.505 111.391875,204.505 C60.073125,204.505 18.423125,162.859375 18.423125,111.549375 C18.423125,60.239375 60.073125,18.59375 111.391875,18.59375" id="Fill-34" fill="#D0383F"></path>
            <path d="M111.58875,37.314375 C152.73125,37.314375 186.12125,70.63 186.12125,111.680625 C186.12125,152.73125 152.73125,186.0425 111.58875,186.0425 C70.44625,186.0425 37.05625,152.73125 37.05625,111.680625 C37.05625,70.63 70.44625,37.314375 111.58875,37.314375" id="Fill-35" fill="#FFFFFE"></path>
            <path d="M148.75,89.17125 C155.999375,89.17125 163.40625,93.428125 163.72125,111.545 C163.87875,129.504375 157.101875,135.02125 148.75,135.02125 C140.398125,135.02125 133.62125,129.504375 133.77875,111.545 C134.098125,93.428125 141.343125,89.17125 148.75,89.17125 M148.75,76.251875 C158.676875,76.094375 177.900625,81.76875 177.900625,112.0175 C177.900625,142.10875 159.779375,148.098125 148.75,148.098125 C137.720625,148.098125 119.441875,142.10875 119.441875,112.0175 C119.441875,81.76875 138.823125,76.094375 148.75,76.251875" id="Fill-36" fill="#1A1919"></path>
            <path d="M67.283125,102.563125 L52.94625,102.563125 C52.63125,89.95875 59.723125,74.676875 80.994375,74.676875 C101.793125,74.676875 106.365,92.483125 106.365,98.783125 C106.365,105.0875 105.735,117.3725 79.734375,133.28875 L105.573125,133.28875 L105.573125,145.73125 L55.30875,145.73125 L55.30875,132.81625 C77.371875,117.6875 91.70875,110.1275 91.70875,99.728125 C91.70875,93.900625 86.82625,87.59625 78.946875,87.59625 C71.0675,87.59625 67.283125,95.160625 67.283125,102.563125" id="Fill-37" fill="#1A1919"></path>
            <polyline id="Fill-38" fill="#1A1919" points="178.215625 220.885 164.66625 220.885 164.66625 262.478125 192.871875 262.478125 192.871875 254.760625 172.703125 254.760625 172.703125 245.46375 189.7175 245.46375 189.7175 237.741875 172.703125 237.741875 172.703125 228.606875 191.611875 228.606875 191.611875 220.885 184.6775 220.885"></polyline>
            <polyline id="Fill-39" fill="#1A1919" points="119.126875 220.885 122.276875 220.885 142.760625 249.55875 142.760625 220.885 150.7975 220.885 150.7975 262.635625 141.343125 262.635625 122.591875 234.276875 122.591875 262.635625 114.24 262.635625 114.24 220.885 116.291875 220.885"></polyline>
            <path d="M83.986875,228.449375 C78.316875,228.449375 72.9575,232.859375 72.9575,241.84125 C72.9575,250.97625 78.631875,255.390625 83.986875,255.390625 C89.50375,255.390625 95.01625,250.97625 95.01625,241.84125 C95.01625,232.859375 89.66125,228.449375 83.986875,228.449375 M83.986875,220.255 C76.1075,220.255 64.290625,226.555 64.290625,241.68375 C64.290625,256.808125 75.7925,263.108125 83.986875,263.108125 C92.33875,263.108125 103.683125,256.808125 103.683125,241.68375 C103.683125,226.555 92.02375,220.255 83.986875,220.255" id="Fill-40" fill="#1A1919"></path>
            <polyline id="Fill-41" fill="#1A1919" points="41.759375 220.885 28.048125 220.885 28.048125 228.291875 46.484375 228.291875 27.260625 254.445625 27.260625 262.478125 57.35625 262.478125 57.35625 254.445625 37.345 254.445625 56.72625 228.291875 56.72625 220.885 46.799375 220.885"></polyline>
            <polyline id="Fill-42" fill="#FFFFFE" points="106.05 324.24 105.573125 322.1925 101.793125 320.455625 100.060625 320.298125 93.59875 319.195625 92.33875 319.195625 86.98375 317.620625 83.829375 316.203125 78.946875 316.675625 77.214375 316.675625 75.32 317.148125 73.5875 317.148125 71.6975 318.565625 71.6975 319.195625 72.9575 321.085625 72.3275 321.72 73.5875 323.4525 76.4225 325.6575 77.686875 326.13 78.001875 326.76 80.206875 327.39 80.679375 328.965 83.671875 330.3825 87.61375 331.3275 89.66125 331.6425 91.70875 331.485 91.23625 332.2725 91.55125 333.06 93.28375 333.375 96.753125 333.69 101.635625 333.5325 105.735 324.87"></polyline>
            <polyline id="Fill-43" fill="#FBD033" points="111.5625 348.66125 111.09 347.869375 106.365 347.869375 105.5775 348.81875 108.255 351.18125 111.405 352.28375 111.5625 351.65375"></polyline>
            <polyline id="Fill-44" fill="#FBD033" points="111.5625 338.734375 111.09 337.946875 100.848125 333.5325 99.430625 333.69 100.375625 337.316875 100.218125 338.419375 101.163125 341.096875 102.580625 343.144375 108.7275 344.404375 111.5625 342.829375"></polyline>
            <polyline id="Fill-45" fill="#FBD033" points="111.5625 313.998125 110.9325 313.525625 105.100625 314.313125 104.470625 315.573125 104.313125 316.833125 102.580625 318.093125 101.635625 320.613125 102.580625 320.928125 111.09 320.455625 111.5625 319.825625"></polyline>
            <polygon id="Fill-46" fill="#1A1919" points="111.5625 310.060625 109.6725 309.903125 107.625 310.375625 105.100625 313.840625 104.470625 309.903125 103.683125 308.800625 103.368125 307.22125 102.108125 306.43375 101.478125 304.70125 101.635625 303.91375 101.320625 303.75625 99.588125 305.48875 100.060625 305.64625 100.848125 305.48875 101.320625 306.43375 101.163125 307.06375 101.793125 307.85125 101.635625 309.273125 102.423125 310.218125 102.423125 312.895625 103.840625 313.368125 104.313125 315.258125 104.628125 315.258125 106.2075 314.313125 106.995 314.785625 107.94 314.313125 108.885 314.470625 109.6725 314.155625 110.6175 314.155625 111.09 313.998125 111.5625 313.998125"></polygon>
            <polyline id="Fill-47" fill="#1A1919" points="108.57 310.218125 108.4125 309.745625 107.4675 308.643125 106.68 307.69375 106.05 307.22125 104.943125 306.74875 104.628125 306.43375 103.998125 305.33125 103.840625 305.33125 103.683125 305.48875 103.683125 305.64625 104.155625 306.90625 104.628125 307.06375 105.735 307.69375 106.5225 308.328125 107.625 309.588125 107.7825 310.533125"></polyline>
            <polyline id="Fill-48" fill="#1A1919" points="111.5625 319.825625 110.775 319.825625 109.9875 319.668125 108.57 319.825625 107.31 319.668125 106.8375 319.825625 105.415625 319.825625 104.943125 319.510625 104.470625 319.510625 101.635625 320.455625 102.108125 321.405 103.525625 322.1925 104.943125 322.665 105.258125 322.98 105.415625 323.7675 105.258125 324.24 103.840625 327.2325 101.950625 329.4375 99.745625 333.5325 101.163125 334.32 101.320625 335.111875 101.635625 335.269375 103.368125 335.741875 103.840625 336.529375 105.735 336.529375 106.365 337.474375 106.995 337.789375 107.625 338.261875 110.6175 338.734375 111.5625 338.734375"></polyline>
            <polyline id="Fill-49" fill="#1A1919" points="111.5625 342.829375 110.145 342.829375 109.83 342.986875 109.2 343.616875 108.885 343.774375 108.4125 343.774375 107.94 343.459375 107.4675 343.459375 107.1525 343.774375 106.8375 343.774375 105.735 343.144375 105.100625 343.144375 104.628125 342.986875 104.155625 342.514375 103.683125 342.356875 101.950625 342.514375 103.053125 345.191875 103.840625 346.294375 104.313125 347.869375 105.5775 349.29125 106.8375 348.66125 107.625 348.66125 109.0425 349.29125 109.3575 349.29125 110.775 348.66125 111.5625 348.66125"></polyline>
            <polyline id="Fill-50" fill="#1A1919" points="111.5625 351.65375 111.2475 351.81125 110.9325 351.81125 108.57 351.02375 108.0975 350.86625 105.8925 348.97625 105.5775 349.29125 106.8375 350.39375 107.7825 351.33875 108.0975 351.49625 111.09 352.44125 111.5625 352.91375"></polyline>
            <polyline id="Fill-51" fill="#1A1919" points="99.115625 333.69 98.643125 335.111875 98.328125 336.844375 96.910625 338.891875 96.438125 339.836875 95.64625 343.616875 95.48875 344.561875 95.64625 348.184375 95.80375 348.50375 96.910625 348.50375 96.910625 348.97625 96.438125 352.28375 96.123125 354.33125 96.123125 354.96125 97.383125 357.79625 98.328125 357.79625 98.485625 357.63875 97.225625 355.11875 97.225625 353.70125 97.540625 350.39375 98.643125 348.66125 98.958125 346.451875 99.115625 343.301875 99.115625 340.466875 98.800625 339.049375 98.800625 338.419375 99.745625 335.741875 99.588125 333.5325"></polyline>
            <polyline id="Fill-52" fill="#1A1919" points="102.423125 342.671875 102.108125 342.041875 101.320625 340.624375 100.533125 338.261875 100.533125 337.159375 100.060625 334.954375 99.903125 334.32 99.745625 333.5325 99.273125 333.69 99.903125 336.056875 100.060625 337.316875 100.060625 338.261875 100.218125 339.206875 100.848125 340.939375 102.265625 342.986875"></polyline>
            <polyline id="Fill-53" fill="#1A1919" points="105.735 314.628125 104.943125 315.258125 104.628125 315.573125 104.785625 316.675625 104.628125 316.990625 102.895625 318.093125 102.895625 318.250625 102.108125 319.983125 101.950625 320.455625 101.478125 320.455625 102.265625 318.093125 102.738125 317.620625 104.155625 316.833125 104.155625 315.573125 104.470625 314.785625"></polyline>
            <polyline id="Fill-54" fill="#1A1919" points="101.950625 320.298125 100.218125 320.140625 93.91375 319.038125 92.02375 318.880625 87.45625 317.463125 85.876875 316.833125 84.931875 316.360625 83.829375 316.045625 83.041875 316.045625 79.261875 316.360625 77.214375 316.360625 75.4775 316.833125 73.5875 316.833125 71.54 318.408125 71.225 318.723125 71.225 319.195625 71.3825 319.353125 72.6425 320.928125 72.6425 321.085625 72.17 321.405 72.0125 321.5625 72.0125 321.72 72.9575 323.295 73.43 323.61 75.95 325.6575 76.265 325.815 77.214375 326.13 77.371875 326.2875 77.686875 326.9175 77.844375 327.075 79.734375 327.39 79.891875 327.5475 80.049375 328.02 80.521875 329.1225 80.994375 329.4375 81.781875 329.7525 83.356875 330.54 86.034375 331.3275 87.45625 331.6425 89.50375 331.8 91.23625 331.6425 91.23625 331.8 90.92125 332.115 90.92125 332.9025 91.23625 333.06 92.02375 333.5325 93.59875 333.69 95.96125 333.8475 97.383125 334.005 100.848125 333.8475 100.690625 333.375 97.225625 333.5325 95.80375 333.375 92.33875 333.06 91.86625 332.745 91.55125 332.5875 91.55125 332.2725 92.33875 331.6425 92.33875 331.3275 92.18125 331.17 91.23625 331.3275 89.34625 331.3275 86.98375 331.0125 83.514375 330.0675 81.309375 328.965 80.836875 328.4925 80.521875 327.8625 80.679375 327.2325 80.521875 327.075 78.159375 326.6025 78.001875 326.445 78.001875 325.9725 77.686875 325.6575 76.7375 325.3425 76.1075 325.0275 73.745 323.4525 73.43 322.98 72.8 321.8775 72.8 321.5625 73.43 321.243125 73.43 321.085625 71.855 319.353125 71.855 319.038125 72.0125 318.723125 73.9025 317.463125 75.635 317.463125 77.371875 316.990625 79.419375 316.833125 83.041875 316.518125 83.829375 316.518125 84.931875 316.990625 85.876875 317.463125 87.45625 318.093125 92.02375 319.510625 93.91375 319.510625 100.533125 320.613125 101.950625 320.770625"></polyline>
            <polyline id="Fill-55" fill="#1A1919" points="94.22875 321.243125 94.22875 320.928125 90.92125 320.298125 87.29875 318.880625 82.569375 318.093125 81.781875 317.935625 77.371875 318.565625 74.375 319.510625 74.375 319.825625 77.529375 318.723125 81.939375 318.250625 82.884375 318.408125 87.29875 319.195625 90.76375 320.455625 94.07125 321.085625"></polyline>
            <polyline id="Fill-56" fill="#1A1919" points="93.59875 321.5625 91.39375 321.5625 85.246875 320.613125 81.939375 320.298125 81.151875 320.298125 75.7925 321.72 75.95 322.035 81.151875 320.770625 82.096875 320.613125 85.404375 320.928125 91.23625 321.8775 93.59875 321.8775"></polyline>
            <polyline id="Fill-57" fill="#1A1919" points="89.50375 322.5075 85.719375 322.98 83.041875 323.295 78.631875 324.7125 78.631875 325.185 83.199375 323.61 89.66125 322.8225"></polyline>
            <polyline id="Fill-58" fill="#1A1919" points="94.54375 322.98 92.49625 323.7675 90.29125 323.925 86.506875 324.87 82.254375 326.76 82.411875 327.075 86.82625 325.0275 90.44875 324.24 92.49625 324.0825 94.70125 323.295"></polyline>
            <polyline id="Fill-59" fill="#1A1919" points="96.438125 324.87 92.33875 325.9725 89.81875 327.2325 87.29875 329.7525 87.45625 329.91 90.29125 327.39 92.65375 326.2875 96.438125 325.3425"></polyline>
            <polyline id="Fill-60" fill="#1A1919" points="100.848125 326.6025 98.958125 327.39 96.595625 328.965 92.96875 330.54 93.12625 331.0125 96.753125 329.28 99.273125 327.705 101.005625 326.9175"></polyline>
            <polyline id="Fill-61" fill="#1A1919" points="100.690625 328.02 96.753125 331.9575 97.068125 332.2725 99.273125 329.91 101.005625 328.335"></polyline>
            <polyline id="Fill-62" fill="#FFFFFE" points="117.079375 324.24 117.551875 322.1925 121.489375 320.455625 123.221875 320.298125 129.68375 319.195625 130.94375 319.195625 136.145625 317.620625 139.295625 316.203125 144.1825 316.675625 145.915 316.675625 147.9625 317.148125 149.695 317.148125 151.4275 318.565625 151.585 319.195625 150.1675 321.085625 150.7975 321.72 149.695 323.4525 146.7025 325.6575 145.4425 326.13 145.285 326.76 142.918125 327.39 142.445625 328.965 139.453125 330.3825 135.673125 331.3275 133.46375 331.6425 131.41625 331.485 131.88875 332.2725 131.73125 333.06 129.84125 333.375 126.53375 333.69 121.489375 333.5325 117.394375 324.87"></polyline>
            <polyline id="Fill-63" fill="#FBD033" points="111.5625 348.66125 112.035 347.869375 116.764375 347.869375 117.551875 348.81875 115.031875 351.18125 111.72 352.28375 111.5625 351.65375"></polyline>
            <polyline id="Fill-64" fill="#FBD033" points="111.5625 338.734375 112.035 337.946875 122.276875 333.5325 123.694375 333.69 122.906875 337.316875 122.906875 338.419375 121.961875 341.096875 120.544375 343.144375 114.555 344.404375 111.5625 342.829375"></polyline>
            <polyline id="Fill-65" fill="#FBD033" points="111.5625 313.998125 112.1925 313.525625 118.024375 314.313125 118.811875 315.573125 118.811875 316.833125 120.544375 318.093125 121.489375 320.613125 120.701875 320.928125 112.035 320.455625 111.5625 319.825625"></polyline>
            <polygon id="Fill-66" fill="#1A1919" points="111.5625 310.060625 113.4525 309.903125 115.504375 310.375625 118.181875 313.840625 118.654375 309.903125 119.599375 308.800625 119.914375 307.22125 121.016875 306.43375 121.646875 304.70125 121.646875 303.91375 121.961875 303.75625 123.536875 305.48875 123.221875 305.64625 122.276875 305.48875 121.961875 306.43375 121.961875 307.06375 121.489375 307.85125 121.489375 309.273125 120.701875 310.218125 120.859375 312.895625 119.441875 313.368125 118.811875 315.258125 118.496875 315.258125 117.079375 314.313125 116.134375 314.785625 115.189375 314.313125 114.24 314.470625 113.4525 314.155625 112.5075 314.155625 112.035 313.998125 111.5625 313.998125"></polygon>
            <polyline id="Fill-67" fill="#1A1919" points="114.555 310.218125 114.87 309.745625 115.661875 308.643125 116.449375 307.69375 117.079375 307.22125 118.181875 306.74875 118.654375 306.43375 119.126875 305.33125 119.441875 305.33125 119.441875 305.64625 118.969375 306.90625 118.496875 307.06375 117.394375 307.69375 115.504375 309.588125 115.504375 310.533125"></polyline>
            <polyline id="Fill-68" fill="#1A1919" points="111.5625 319.825625 112.35 319.825625 113.295 319.668125 114.555 319.825625 115.819375 319.668125 116.291875 319.825625 117.866875 319.825625 118.339375 319.510625 118.654375 319.510625 121.489375 320.455625 121.016875 321.405 119.756875 322.1925 118.339375 322.665 118.024375 322.98 117.866875 323.7675 117.866875 324.24 119.441875 327.2325 121.174375 329.4375 123.379375 333.5325 122.119375 334.32 121.804375 335.111875 121.489375 335.269375 119.914375 335.741875 119.441875 336.529375 117.394375 336.529375 116.921875 337.474375 116.291875 337.789375 115.504375 338.261875 112.665 338.734375 111.5625 338.734375"></polyline>
            <polyline id="Fill-69" fill="#1A1919" points="111.5625 342.829375 112.98 342.829375 113.295 342.986875 113.925 343.616875 114.24 343.774375 114.7125 343.774375 115.189375 343.459375 115.661875 343.459375 115.976875 343.774375 116.291875 343.774375 117.394375 343.144375 118.181875 343.144375 118.654375 342.986875 119.126875 342.514375 119.441875 342.356875 121.174375 342.514375 120.071875 345.191875 119.441875 346.294375 118.811875 347.869375 117.551875 349.29125 116.291875 348.66125 115.504375 348.66125 114.24 349.29125 113.7675 349.29125 112.35 348.66125 111.5625 348.66125"></polyline>
            <polyline id="Fill-70" fill="#1A1919" points="111.5625 351.65375 111.72 351.65375 111.8775 351.81125 112.1925 351.81125 114.555 351.02375 115.031875 350.86625 117.236875 348.97625 117.551875 349.29125 116.291875 350.39375 115.346875 351.33875 115.031875 351.49625 112.1925 352.44125 111.72 352.75625 111.5625 352.91375"></polyline>
            <polyline id="Fill-71" fill="#1A1919" points="124.166875 333.69 124.481875 335.111875 124.95875 336.844375 126.37625 338.891875 126.84875 339.836875 127.63625 343.616875 127.63625 344.561875 127.47875 348.184375 127.32125 348.50375 126.37625 348.50375 126.21875 348.97625 126.69125 352.28375 127.00625 354.33125 127.00625 354.96125 125.74625 357.79625 124.80125 357.79625 124.639375 357.63875 126.06125 355.11875 126.06125 353.70125 125.58875 350.39375 124.639375 348.66125 124.166875 346.451875 124.009375 343.301875 124.166875 340.466875 124.324375 339.049375 124.324375 338.419375 123.536875 335.741875 123.536875 333.5325"></polyline>
            <polyline id="Fill-72" fill="#1A1919" points="120.701875 342.671875 121.174375 342.041875 121.961875 340.624375 122.591875 338.261875 122.591875 337.159375 123.064375 334.954375 123.221875 334.32 123.379375 333.5325 123.851875 333.69 123.379375 336.056875 123.064375 337.316875 123.064375 338.261875 122.906875 339.206875 122.434375 340.939375 121.016875 342.986875"></polyline>
            <polyline id="Fill-73" fill="#1A1919" points="117.394375 314.628125 118.181875 315.258125 118.496875 315.573125 118.496875 316.990625 120.229375 318.093125 120.386875 318.250625 121.016875 319.983125 121.174375 320.455625 121.804375 320.455625 120.859375 318.093125 120.544375 317.620625 118.969375 316.833125 118.969375 315.573125 118.654375 314.785625"></polyline>
            <polyline id="Fill-74" fill="#1A1919" points="121.331875 320.298125 122.906875 320.140625 129.36875 319.038125 131.10125 318.880625 135.673125 317.463125 137.248125 316.833125 138.193125 316.360625 139.295625 316.045625 140.240625 316.045625 143.8675 316.360625 145.915 316.360625 147.6475 316.833125 149.695 316.833125 151.585 318.408125 151.9 318.723125 151.9 319.195625 151.7425 319.353125 150.4825 320.928125 150.4825 321.085625 151.1125 321.405 151.1125 321.72 150.1675 323.295 149.8525 323.61 147.175 325.6575 146.86 325.815 145.915 326.13 145.7575 326.2875 145.4425 326.9175 145.4425 327.075 143.390625 327.39 143.233125 327.5475 143.233125 328.02 142.603125 329.1225 142.130625 329.4375 141.343125 329.7525 139.768125 330.54 137.248125 331.3275 135.673125 331.6425 133.62125 331.8 131.88875 331.6425 131.88875 331.8 132.20375 332.115 132.36125 332.43 132.20375 332.9025 131.88875 333.06 131.10125 333.5325 129.52625 333.69 127.16375 333.8475 125.90375 334.005 122.434375 333.8475 122.434375 333.375 126.06125 333.5325 127.47875 333.375 130.78625 333.06 131.41625 332.745 131.57375 332.5875 131.57375 332.2725 130.78625 331.6425 130.78625 331.3275 130.94375 331.17 131.88875 331.3275 133.93625 331.3275 136.303125 331.0125 139.610625 330.0675 141.973125 328.965 142.445625 328.4925 142.603125 327.8625 142.445625 327.2325 142.603125 327.075 144.97 326.6025 145.1275 326.445 145.285 325.9725 145.4425 325.6575 146.3875 325.3425 147.0175 325.0275 149.38 323.4525 149.695 322.98 150.4825 321.8775 150.325 321.5625 149.8525 321.243125 149.695 321.085625 151.27 319.353125 151.4275 319.038125 151.27 318.723125 149.38 317.463125 147.6475 317.463125 145.915 316.990625 143.71 316.833125 140.083125 316.518125 139.295625 316.518125 138.193125 316.990625 137.248125 317.463125 135.673125 318.093125 131.10125 319.510625 129.36875 319.510625 122.591875 320.613125 121.174375 320.770625"></polyline>
            <polyline id="Fill-75" fill="#1A1919" points="128.89625 321.243125 128.89625 320.928125 132.20375 320.298125 135.830625 318.880625 141.500625 317.935625 145.7575 318.565625 148.75 319.510625 148.75 319.825625 145.6 318.723125 141.185625 318.250625 140.240625 318.408125 135.830625 319.195625 132.51875 320.455625 129.05375 321.085625"></polyline>
            <polyline id="Fill-76" fill="#1A1919" points="129.52625 321.5625 131.73125 321.5625 137.878125 320.613125 141.185625 320.298125 141.973125 320.298125 147.49 321.72 147.3325 322.035 142.130625 320.770625 141.028125 320.613125 137.878125 320.928125 131.88875 321.8775 129.52625 321.8775"></polyline>
            <polyline id="Fill-77" fill="#1A1919" points="133.62125 322.5075 137.405625 322.98 140.083125 323.295 144.655 324.7125 144.4975 325.185 139.925625 323.61 133.46375 322.8225"></polyline>
            <polyline id="Fill-78" fill="#1A1919" points="128.58125 322.98 130.78625 323.7675 132.99125 323.925 136.618125 324.87 140.870625 326.76 140.713125 327.075 136.460625 325.0275 132.67625 324.24 130.62875 324.0825 128.58125 323.295"></polyline>
            <polyline id="Fill-79" fill="#1A1919" points="126.69125 324.87 130.94375 325.9725 133.30625 327.2325 135.988125 329.7525 135.673125 329.91 132.99125 327.39 130.62875 326.2875 126.69125 325.3425"></polyline>
            <polyline id="Fill-80" fill="#1A1919" points="122.434375 326.6025 124.166875 327.39 126.69125 328.965 130.15625 330.54 129.99875 331.0125 126.37625 329.28 123.851875 327.705 122.276875 326.9175"></polyline>
            <polyline id="Fill-81" fill="#1A1919" points="122.434375 328.02 126.37625 331.9575 126.21875 332.2725 123.851875 329.91 122.119375 328.335"></polyline>
            <path d="M37.66,378.7525 C40.341875,378.4375 41.286875,378.1225 42.704375,377.4925 C44.909375,376.2325 46.484375,374.180625 46.484375,371.818125 C46.484375,369.770625 45.381875,367.880625 43.491875,366.620625 C41.601875,365.675625 40.026875,365.203125 36.2425,365.203125 L24.268125,365.203125 C24.110625,365.675625 23.953125,366.305625 23.795625,366.935625 L24.898125,366.935625 C27.260625,366.935625 28.048125,367.250625 28.048125,368.195625 C28.048125,368.668125 27.890625,369.140625 27.418125,370.715625 C26.000625,376.39 24.583125,382.06 23.165625,387.73 C22.535625,390.096875 22.220625,390.726875 21.905625,391.199375 C21.433125,391.671875 20.803125,391.671875 18.27875,391.829375 C18.27875,392.301875 18.12125,392.774375 17.96375,393.246875 L33.88,393.246875 C37.1875,393.246875 39.396875,392.774375 41.129375,391.829375 C43.334375,390.726875 44.751875,388.2025 44.751875,385.3675 C44.751875,383.005 43.806875,381.115 41.759375,380.0125 C40.499375,379.225 39.711875,379.0675 37.66,378.7525 L37.66,378.7525 Z M29.6275,378.1225 C30.2575,375.125625 31.045,372.133125 31.8325,369.140625 C32.4625,367.408125 33.25,366.935625 35.6125,366.935625 L37.03,366.935625 C40.026875,366.935625 42.231875,368.825625 42.231875,371.503125 C42.231875,374.023125 40.656875,376.2325 38.605,377.1775 C37.1875,377.8075 35.14,378.1225 32.1475,378.1225 L29.6275,378.1225 Z M29.150625,379.855 L31.99,379.855 C35.455,379.855 36.5575,379.855 37.975,380.3275 C39.554375,380.9575 40.656875,382.5325 40.656875,384.4225 C40.656875,386.47 39.711875,388.675 38.4475,390.096875 C37.03,391.199375 35.455,391.829375 33.0925,391.829375 L29.785,391.829375 C27.418125,391.829375 26.630625,391.514375 26.630625,390.411875 C26.630625,390.096875 26.630625,389.781875 26.788125,389.151875 C27.575625,386.155 28.363125,383.005 29.150625,379.855 L29.150625,379.855 Z" id="Fill-82" fill="#FBD033"></path>
            <path d="M37.66,378.7525 C40.341875,378.4375 41.286875,378.1225 42.704375,377.4925 C44.909375,376.2325 46.484375,374.180625 46.484375,371.818125 C46.484375,369.770625 45.381875,367.880625 43.491875,366.620625 C41.601875,365.675625 40.026875,365.203125 36.2425,365.203125 L24.268125,365.203125 C24.110625,365.675625 23.953125,366.305625 23.795625,366.935625 L24.898125,366.935625 C27.260625,366.935625 28.048125,367.250625 28.048125,368.195625 C28.048125,368.668125 27.890625,369.140625 27.418125,370.715625 C26.000625,376.39 24.583125,382.06 23.165625,387.73 C22.535625,390.096875 22.220625,390.726875 21.905625,391.199375 C21.433125,391.671875 20.803125,391.671875 18.27875,391.829375 C18.27875,392.301875 18.12125,392.774375 17.96375,393.246875 L33.88,393.246875 C37.1875,393.246875 39.396875,392.774375 41.129375,391.829375 C43.334375,390.726875 44.751875,388.2025 44.751875,385.3675 C44.751875,383.005 43.806875,381.115 41.759375,380.0125 C40.499375,379.225 39.711875,379.0675 37.66,378.7525 Z M29.6275,378.1225 C30.2575,375.125625 31.045,372.133125 31.8325,369.140625 C32.4625,367.408125 33.25,366.935625 35.6125,366.935625 L37.03,366.935625 C40.026875,366.935625 42.231875,368.825625 42.231875,371.503125 C42.231875,374.023125 40.656875,376.2325 38.605,377.1775 C37.1875,377.8075 35.14,378.1225 32.1475,378.1225 L29.6275,378.1225 Z M29.150625,379.855 L31.99,379.855 C35.455,379.855 36.5575,379.855 37.975,380.3275 C39.554375,380.9575 40.656875,382.5325 40.656875,384.4225 C40.656875,386.47 39.711875,388.675 38.4475,390.096875 C37.03,391.199375 35.455,391.829375 33.0925,391.829375 L29.785,391.829375 C27.418125,391.829375 26.630625,391.514375 26.630625,390.411875 C26.630625,390.096875 26.630625,389.781875 26.788125,389.151875 C27.575625,386.155 28.363125,383.005 29.150625,379.855 Z" id="Stroke-83" stroke="#1A1919" stroke-width="0.284"></path>
            <path d="M62.558125,389.624375 C62.243125,389.309375 61.928125,388.994375 61.613125,388.5175 C59.565625,390.884375 57.35625,392.144375 55.30875,392.144375 C52.63125,392.144375 51.05625,390.569375 51.05625,387.73 C51.05625,387.2575 51.21375,387.1 51.37125,386.47 C59.250625,385.525 64.133125,382.69 64.133125,378.91 C64.133125,376.5475 62.085625,374.968125 59.250625,374.968125 C56.88375,374.968125 54.67875,375.76 52.47375,377.4925 C49.32375,379.855 47.586875,383.005 47.586875,386.47 C47.586875,390.726875 50.74125,393.719375 54.99375,393.719375 C57.67125,393.719375 60.195625,392.459375 62.558125,389.624375 M51.52875,385.0525 C52.15875,382.375 52.47375,381.43 53.26125,380.17 C53.89125,379.225 54.36375,378.4375 54.99375,377.8075 C56.09625,376.8625 57.35625,376.2325 58.620625,376.2325 C60.195625,376.2325 61.140625,377.02 61.140625,378.595 C61.140625,380.17 60.353125,381.5875 59.093125,382.5325 C57.51375,383.635 55.78125,384.265 51.52875,385.0525" id="Fill-84" fill="#FBD033"></path>
            <path d="M62.558125,389.624375 C62.243125,389.309375 61.928125,388.994375 61.613125,388.5175 C59.565625,390.884375 57.35625,392.144375 55.30875,392.144375 C52.63125,392.144375 51.05625,390.569375 51.05625,387.73 C51.05625,387.2575 51.21375,387.1 51.37125,386.47 C59.250625,385.525 64.133125,382.69 64.133125,378.91 C64.133125,376.5475 62.085625,374.968125 59.250625,374.968125 C56.88375,374.968125 54.67875,375.76 52.47375,377.4925 C49.32375,379.855 47.586875,383.005 47.586875,386.47 C47.586875,390.726875 50.74125,393.719375 54.99375,393.719375 C57.67125,393.719375 60.195625,392.459375 62.558125,389.624375 Z M51.52875,385.0525 C52.15875,382.375 52.47375,381.43 53.26125,380.17 C53.89125,379.225 54.36375,378.4375 54.99375,377.8075 C56.09625,376.8625 57.35625,376.2325 58.620625,376.2325 C60.195625,376.2325 61.140625,377.02 61.140625,378.595 C61.140625,380.17 60.353125,381.5875 59.093125,382.5325 C57.51375,383.635 55.78125,384.265 51.52875,385.0525 Z" id="Stroke-85" stroke="#1A1919" stroke-width="0.284"></path>
            <path d="M80.049375,389.624375 C79.734375,389.309375 79.419375,388.994375 79.104375,388.5175 C77.056875,390.884375 74.8475,392.144375 72.8,392.144375 C70.1225,392.144375 68.705,390.569375 68.705,387.73 C68.705,387.2575 68.705,387.1 68.8625,386.47 C76.7375,385.525 81.624375,382.69 81.624375,378.91 C81.624375,376.5475 79.576875,374.968125 76.7375,374.968125 C74.375,374.968125 72.17,375.76 69.965,377.4925 C66.810625,379.855 65.235625,383.005 65.235625,386.47 C65.235625,390.726875 68.2325,393.719375 72.485,393.719375 C75.1625,393.719375 77.686875,392.459375 80.049375,389.624375 M69.02,385.0525 C69.65,382.375 69.965,381.43 70.7525,380.17 C71.3825,379.225 71.855,378.4375 72.485,377.8075 C73.5875,376.8625 74.8475,376.2325 76.1075,376.2325 C77.686875,376.2325 78.631875,377.02 78.631875,378.595 C78.631875,380.17 77.844375,381.5875 76.58,382.5325 C75.005,383.635 73.2725,384.265 69.02,385.0525" id="Fill-86" fill="#FBD033"></path>
            <path d="M80.049375,389.624375 C79.734375,389.309375 79.419375,388.994375 79.104375,388.5175 C77.056875,390.884375 74.8475,392.144375 72.8,392.144375 C70.1225,392.144375 68.705,390.569375 68.705,387.73 C68.705,387.2575 68.705,387.1 68.8625,386.47 C76.7375,385.525 81.624375,382.69 81.624375,378.91 C81.624375,376.5475 79.576875,374.968125 76.7375,374.968125 C74.375,374.968125 72.17,375.76 69.965,377.4925 C66.810625,379.855 65.235625,383.005 65.235625,386.47 C65.235625,390.726875 68.2325,393.719375 72.485,393.719375 C75.1625,393.719375 77.686875,392.459375 80.049375,389.624375 Z M69.02,385.0525 C69.65,382.375 69.965,381.43 70.7525,380.17 C71.3825,379.225 71.855,378.4375 72.485,377.8075 C73.5875,376.8625 74.8475,376.2325 76.1075,376.2325 C77.686875,376.2325 78.631875,377.02 78.631875,378.595 C78.631875,380.17 77.844375,381.5875 76.58,382.5325 C75.005,383.635 73.2725,384.265 69.02,385.0525 Z" id="Stroke-87" stroke="#1A1919" stroke-width="0.284"></path>
            <path d="M86.349375,389.466875 C86.51125,389.151875 86.664375,388.675 86.664375,388.2025 C86.664375,387.2575 86.034375,386.47 84.931875,386.47 C83.514375,386.47 82.726875,387.5725 82.726875,389.151875 C82.726875,391.829375 85.404375,393.719375 89.18875,393.719375 C93.44125,393.719375 96.595625,391.199375 96.595625,387.5725 C96.595625,386.6275 96.280625,385.525 95.64625,384.7375 C94.85875,383.635 94.07125,383.1625 90.76375,382.06 C88.87375,381.2725 88.08625,380.485 88.08625,379.225 C88.08625,377.335 89.66125,376.2325 92.18125,376.2325 C94.07125,376.2325 95.33125,376.8625 95.33125,377.65 C95.33125,377.8075 95.33125,377.965 95.17375,378.28 C95.17375,378.4375 95.01625,378.595 94.85875,378.7525 C94.70125,379.0675 94.70125,379.3825 94.70125,379.6975 C94.70125,380.6425 95.33125,381.43 96.280625,381.43 C97.383125,381.43 98.328125,380.3275 98.328125,379.0675 C98.328125,376.5475 95.80375,374.968125 92.33875,374.968125 C88.40125,374.968125 85.404375,377.4925 85.404375,380.8 C85.404375,382.8475 86.51125,384.4225 89.18875,385.3675 C93.12625,386.785 93.44125,387.2575 93.44125,388.994375 C93.44125,391.041875 91.86625,392.301875 89.18875,392.301875 C87.14125,392.301875 85.561875,391.514375 85.561875,390.569375 C85.561875,390.411875 85.561875,390.254375 85.719375,390.096875 C85.876875,389.939375 86.034375,389.781875 86.349375,389.466875" id="Fill-88" fill="#FBD033"></path>
            <path d="M86.349375,389.466875 C86.51125,389.151875 86.664375,388.675 86.664375,388.2025 C86.664375,387.2575 86.034375,386.47 84.931875,386.47 C83.514375,386.47 82.726875,387.5725 82.726875,389.151875 C82.726875,391.829375 85.404375,393.719375 89.18875,393.719375 C93.44125,393.719375 96.595625,391.199375 96.595625,387.5725 C96.595625,386.6275 96.280625,385.525 95.64625,384.7375 C94.85875,383.635 94.07125,383.1625 90.76375,382.06 C88.87375,381.2725 88.08625,380.485 88.08625,379.225 C88.08625,377.335 89.66125,376.2325 92.18125,376.2325 C94.07125,376.2325 95.33125,376.8625 95.33125,377.65 C95.33125,377.8075 95.33125,377.965 95.17375,378.28 C95.17375,378.4375 95.01625,378.595 94.85875,378.7525 C94.70125,379.0675 94.70125,379.3825 94.70125,379.6975 C94.70125,380.6425 95.33125,381.43 96.280625,381.43 C97.383125,381.43 98.328125,380.3275 98.328125,379.0675 C98.328125,376.5475 95.80375,374.968125 92.33875,374.968125 C88.40125,374.968125 85.404375,377.4925 85.404375,380.8 C85.404375,382.8475 86.51125,384.4225 89.18875,385.3675 C93.12625,386.785 93.44125,387.2575 93.44125,388.994375 C93.44125,391.041875 91.86625,392.301875 89.18875,392.301875 C87.14125,392.301875 85.561875,391.514375 85.561875,390.569375 C85.561875,390.411875 85.561875,390.254375 85.719375,390.096875 C85.876875,389.939375 86.034375,389.781875 86.349375,389.466875 Z" id="Stroke-89" stroke="#1A1919" stroke-width="0.284"></path>
            <path d="M119.756875,375.440625 L116.134375,375.440625 C116.134375,375.76 116.134375,376.2325 115.976875,376.705 C115.346875,380.3275 114.87,382.06 113.61,384.895 C111.405,389.466875 109.515,391.671875 107.4675,391.671875 C106.2075,391.671875 105.573125,391.041875 105.573125,389.624375 C105.573125,388.836875 105.8925,387.2575 106.365,385.9975 C106.8375,384.1075 107.4675,382.2175 108.0975,380.17 C108.4125,378.91 108.7275,377.4925 109.2,376.075 C109.3575,375.76 109.515,375.440625 109.6725,374.968125 C108.0975,375.283125 106.05,375.440625 103.683125,375.440625 L103.053125,375.440625 C103.053125,375.9175 102.895625,376.39 102.738125,376.8625 L103.053125,376.8625 L103.998125,376.8625 C105.573125,377.02 105.8925,377.02 105.8925,377.65 C105.8925,377.965 105.8925,378.28 105.42,379.54 C104.628125,381.9025 103.840625,384.265 103.053125,386.6275 C102.738125,388.045 102.580625,388.994375 102.580625,389.781875 C102.580625,392.144375 103.998125,393.719375 106.2075,393.719375 C108.0975,393.719375 109.9875,392.616875 111.5625,390.726875 C112.35,389.624375 112.8225,388.836875 113.925,386.6275 C113.61,388.36 113.61,388.836875 113.61,389.781875 C113.61,392.144375 115.189375,393.719375 117.551875,393.719375 C119.756875,393.719375 122.119375,392.301875 123.694375,389.781875 C126.06125,386.3125 127.63625,381.2725 127.63625,378.1225 C127.63625,376.2325 126.69125,374.968125 125.27375,374.968125 C124.324375,374.968125 123.536875,375.76 123.536875,376.8625 C123.536875,377.4925 123.694375,377.8075 124.48625,378.595 C125.27375,379.3825 125.43125,379.855 125.43125,380.6425 C125.43125,382.69 124.48625,385.525 122.906875,388.2025 C121.646875,390.411875 120.071875,391.671875 118.496875,391.671875 C117.236875,391.671875 116.449375,390.569375 116.449375,388.836875 C116.449375,386.6275 118.024375,380.485 119.756875,375.440625" id="Fill-90" fill="#FBD033"></path>
            <path d="M119.756875,375.440625 L116.134375,375.440625 C116.134375,375.76 116.134375,376.2325 115.976875,376.705 C115.346875,380.3275 114.87,382.06 113.61,384.895 C111.405,389.466875 109.515,391.671875 107.4675,391.671875 C106.2075,391.671875 105.573125,391.041875 105.573125,389.624375 C105.573125,388.836875 105.8925,387.2575 106.365,385.9975 C106.8375,384.1075 107.4675,382.2175 108.0975,380.17 C108.4125,378.91 108.7275,377.4925 109.2,376.075 C109.3575,375.76 109.515,375.440625 109.6725,374.968125 C108.0975,375.283125 106.05,375.440625 103.683125,375.440625 L103.053125,375.440625 C103.053125,375.9175 102.895625,376.39 102.738125,376.8625 L103.053125,376.8625 L103.998125,376.8625 C105.573125,377.02 105.8925,377.02 105.8925,377.65 C105.8925,377.965 105.8925,378.28 105.42,379.54 C104.628125,381.9025 103.840625,384.265 103.053125,386.6275 C102.738125,388.045 102.580625,388.994375 102.580625,389.781875 C102.580625,392.144375 103.998125,393.719375 106.2075,393.719375 C108.0975,393.719375 109.9875,392.616875 111.5625,390.726875 C112.35,389.624375 112.8225,388.836875 113.925,386.6275 C113.61,388.36 113.61,388.836875 113.61,389.781875 C113.61,392.144375 115.189375,393.719375 117.551875,393.719375 C119.756875,393.719375 122.119375,392.301875 123.694375,389.781875 C126.06125,386.3125 127.63625,381.2725 127.63625,378.1225 C127.63625,376.2325 126.69125,374.968125 125.27375,374.968125 C124.324375,374.968125 123.536875,375.76 123.536875,376.8625 C123.536875,377.4925 123.694375,377.8075 124.48625,378.595 C125.27375,379.3825 125.43125,379.855 125.43125,380.6425 C125.43125,382.69 124.48625,385.525 122.906875,388.2025 C121.646875,390.411875 120.071875,391.671875 118.496875,391.671875 C117.236875,391.671875 116.449375,390.569375 116.449375,388.836875 C116.449375,386.6275 118.024375,380.485 119.756875,375.440625 Z" id="Stroke-91" stroke="#1A1919" stroke-width="0.284"></path>
            <path d="M141.343125,374.968125 C135.830625,374.968125 130.78625,380.17 130.78625,385.9975 C130.78625,390.411875 134.098125,393.719375 138.350625,393.719375 C143.8675,393.719375 148.75,388.5175 148.75,382.375 C148.75,378.1225 145.6,374.968125 141.343125,374.968125 M141.658125,376.2325 C144.1825,376.2325 145.6,377.8075 145.6,380.8 C145.6,383.635 144.4975,387.2575 142.918125,389.781875 C141.815625,391.514375 140.240625,392.459375 138.350625,392.459375 C135.673125,392.459375 134.255625,390.726875 134.255625,387.5725 C134.255625,381.5875 137.720625,376.2325 141.658125,376.2325" id="Fill-92" fill="#FBD033"></path>
            <path d="M141.343125,374.968125 C135.830625,374.968125 130.78625,380.17 130.78625,385.9975 C130.78625,390.411875 134.098125,393.719375 138.350625,393.719375 C143.8675,393.719375 148.75,388.5175 148.75,382.375 C148.75,378.1225 145.6,374.968125 141.343125,374.968125 Z M141.658125,376.2325 C144.1825,376.2325 145.6,377.8075 145.6,380.8 C145.6,383.635 144.4975,387.2575 142.918125,389.781875 C141.815625,391.514375 140.240625,392.459375 138.350625,392.459375 C135.673125,392.459375 134.255625,390.726875 134.255625,387.5725 C134.255625,381.5875 137.720625,376.2325 141.658125,376.2325 Z" id="Stroke-93" stroke="#1A1919" stroke-width="0.284"></path>
            <path d="M155.999375,393.246875 C155.999375,392.144375 155.999375,391.671875 156.314375,390.726875 C156.786875,388.5175 157.731875,385.6825 158.519375,384.1075 C159.306875,382.375 160.566875,380.485 161.669375,379.0675 C162.456875,377.965 163.40625,377.335 164.03625,377.335 C164.35125,377.335 164.66625,377.4925 164.66625,377.65 C164.66625,377.965 164.50875,377.965 164.50875,378.28 C164.35125,378.4375 164.35125,378.595 164.35125,378.91 C164.35125,380.0125 165.13875,380.6425 166.08375,380.6425 C167.50125,380.6425 168.28875,379.3825 168.28875,377.65 C168.28875,376.075 167.18625,374.968125 165.45375,374.968125 C164.35125,374.968125 162.93375,375.440625 161.984375,376.39 C161.196875,377.1775 160.094375,378.4375 158.519375,380.9575 C158.991875,379.0675 159.464375,377.02 160.094375,374.968125 C158.204375,375.125625 157.889375,375.283125 157.101875,375.283125 C156.629375,375.283125 155.999375,375.283125 155.369375,375.440625 L153.794375,375.440625 L153.164375,375.440625 C153.164375,375.9175 153.0025,376.39 152.845,376.8625 L153.321875,376.8625 C155.841875,376.8625 156.471875,377.1775 156.471875,378.28 C156.471875,378.7525 156.314375,379.6975 155.999375,380.485 C155.526875,382.69 154.896875,384.895 154.266875,387.1 C154.266875,387.5725 154.109375,388.045 153.951875,388.5175 C153.794375,389.151875 153.636875,389.781875 153.321875,390.411875 C153.164375,391.199375 152.845,391.829375 152.215,393.246875 L155.999375,393.246875 Z" id="Fill-94" fill="#FBD033"></path>
            <path d="M155.999375,393.246875 C155.999375,392.144375 155.999375,391.671875 156.314375,390.726875 C156.786875,388.5175 157.731875,385.6825 158.519375,384.1075 C159.306875,382.375 160.566875,380.485 161.669375,379.0675 C162.456875,377.965 163.40625,377.335 164.03625,377.335 C164.35125,377.335 164.66625,377.4925 164.66625,377.65 C164.66625,377.965 164.50875,377.965 164.50875,378.28 C164.35125,378.4375 164.35125,378.595 164.35125,378.91 C164.35125,380.0125 165.13875,380.6425 166.08375,380.6425 C167.50125,380.6425 168.28875,379.3825 168.28875,377.65 C168.28875,376.075 167.18625,374.968125 165.45375,374.968125 C164.35125,374.968125 162.93375,375.440625 161.984375,376.39 C161.196875,377.1775 160.094375,378.4375 158.519375,380.9575 C158.991875,379.0675 159.464375,377.02 160.094375,374.968125 C158.204375,375.125625 157.889375,375.283125 157.101875,375.283125 C156.629375,375.283125 155.999375,375.283125 155.369375,375.440625 L153.794375,375.440625 L153.164375,375.440625 C153.164375,375.9175 153.0025,376.39 152.845,376.8625 L153.321875,376.8625 C155.841875,376.8625 156.471875,377.1775 156.471875,378.28 C156.471875,378.7525 156.314375,379.6975 155.999375,380.485 C155.526875,382.69 154.896875,384.895 154.266875,387.1 C154.266875,387.5725 154.109375,388.045 153.951875,388.5175 C153.794375,389.151875 153.636875,389.781875 153.321875,390.411875 C153.164375,391.199375 152.845,391.829375 152.215,393.246875 L155.999375,393.246875 Z" id="Stroke-95" stroke="#1A1919" stroke-width="0.284"></path>
            <path d="M179.790625,387.415 C179.475625,387.2575 179.003125,387.1 178.530625,386.785 C176.798125,389.939375 175.223125,391.671875 173.805625,391.671875 C173.175625,391.671875 173.018125,391.356875 173.018125,390.569375 C173.018125,390.254375 173.018125,389.624375 173.333125,388.5175 C174.278125,384.7375 175.223125,380.8 176.325625,376.8625 L180.578125,376.8625 C180.578125,376.39 180.735625,375.9175 180.893125,375.440625 L176.640625,375.440625 C177.113125,373.393125 177.585625,371.345625 178.215625,369.298125 L175.380625,369.298125 C174.908125,371.345625 174.278125,373.393125 173.648125,375.440625 L170.02125,375.440625 C170.02125,375.9175 169.86375,376.39 169.70625,376.8625 L173.333125,376.8625 C172.388125,380.6425 171.43875,384.58 170.33625,388.5175 C170.17875,389.309375 170.17875,390.254375 170.17875,390.884375 C170.17875,392.774375 170.96625,393.719375 172.860625,393.719375 C174.593125,393.719375 176.168125,392.774375 177.585625,390.884375 C178.373125,389.781875 178.845625,389.309375 179.790625,387.415" id="Fill-96" fill="#FBD033"></path>
            <path d="M179.790625,387.415 C179.475625,387.2575 179.003125,387.1 178.530625,386.785 C176.798125,389.939375 175.223125,391.671875 173.805625,391.671875 C173.175625,391.671875 173.018125,391.356875 173.018125,390.569375 C173.018125,390.254375 173.018125,389.624375 173.333125,388.5175 C174.278125,384.7375 175.223125,380.8 176.325625,376.8625 L180.578125,376.8625 C180.578125,376.39 180.735625,375.9175 180.893125,375.440625 L176.640625,375.440625 C177.113125,373.393125 177.585625,371.345625 178.215625,369.298125 L175.380625,369.298125 C174.908125,371.345625 174.278125,373.393125 173.648125,375.440625 L170.02125,375.440625 C170.02125,375.9175 169.86375,376.39 169.70625,376.8625 L173.333125,376.8625 C172.388125,380.6425 171.43875,384.58 170.33625,388.5175 C170.17875,389.309375 170.17875,390.254375 170.17875,390.884375 C170.17875,392.774375 170.96625,393.719375 172.860625,393.719375 C174.593125,393.719375 176.168125,392.774375 177.585625,390.884375 C178.373125,389.781875 178.845625,389.309375 179.790625,387.415 Z" id="Stroke-97" stroke="#1A1919" stroke-width="0.284"></path>
            <path d="M204.84625,387.2575 C204.53125,387.1 204.21625,386.9425 203.90125,386.6275 C202.16875,389.781875 200.589375,391.514375 199.329375,391.514375 C199.014375,391.514375 198.856875,391.199375 198.856875,390.726875 C198.856875,390.411875 198.856875,389.624375 199.014375,389.151875 C199.329375,388.2025 199.644375,387.1 199.959375,385.9975 C200.274375,384.7375 200.589375,383.4775 201.06625,382.06 C201.53875,380.485 201.69625,379.3825 201.69625,378.595 C201.69625,376.5475 199.959375,374.968125 197.439375,374.968125 C195.706875,374.968125 193.659375,375.9175 191.926875,377.4925 C190.6625,378.595 190.19,379.3825 188.93,381.115 C190.3475,375.76 191.769375,370.400625 193.186875,364.888125 C192.556875,364.888125 191.926875,364.888125 191.296875,365.045625 C190.82,365.045625 190.3475,365.045625 189.7175,365.203125 L188.3,365.203125 L185.9375,365.203125 C185.9375,365.675625 185.78,366.148125 185.6225,366.778125 L185.9375,366.778125 L186.8825,366.778125 C188.7725,366.778125 189.245,367.093125 189.245,368.353125 L189.245,369.298125 C187.985,374.338125 186.725,379.3825 185.3075,384.4225 C185.15,385.21 184.835,385.9975 184.52,386.9425 C184.3625,387.8875 184.0475,388.836875 183.7325,389.781875 C183.575,390.569375 183.26,391.514375 182.945,392.459375 C182.945,392.616875 182.7875,392.931875 182.63,393.246875 L185.9375,393.246875 C186.095,392.616875 186.2525,392.144375 186.2525,391.829375 C186.725,389.781875 187.04,388.675 187.1975,388.2025 C187.8275,385.84 188.7725,383.4775 190.19,381.5875 C192.241875,378.7525 194.446875,377.1775 196.494375,377.1775 C197.911875,377.1775 198.699375,377.965 198.699375,379.0675 C198.699375,379.54 198.384375,380.6425 198.069375,381.5875 C197.754375,382.5325 197.439375,383.635 197.124375,384.7375 C196.179375,388.045 195.706875,390.096875 195.706875,391.041875 C195.706875,392.774375 196.651875,393.719375 198.226875,393.719375 C200.431875,393.719375 202.79875,391.356875 204.84625,387.2575" id="Fill-98" fill="#FBD033"></path>
            <path d="M204.84625,387.2575 C204.53125,387.1 204.21625,386.9425 203.90125,386.6275 C202.16875,389.781875 200.589375,391.514375 199.329375,391.514375 C199.014375,391.514375 198.856875,391.199375 198.856875,390.726875 C198.856875,390.411875 198.856875,389.624375 199.014375,389.151875 C199.329375,388.2025 199.644375,387.1 199.959375,385.9975 C200.274375,384.7375 200.589375,383.4775 201.06625,382.06 C201.53875,380.485 201.69625,379.3825 201.69625,378.595 C201.69625,376.5475 199.959375,374.968125 197.439375,374.968125 C195.706875,374.968125 193.659375,375.9175 191.926875,377.4925 C190.6625,378.595 190.19,379.3825 188.93,381.115 C190.3475,375.76 191.769375,370.400625 193.186875,364.888125 C192.556875,364.888125 191.926875,364.888125 191.296875,365.045625 C190.82,365.045625 190.3475,365.045625 189.7175,365.203125 L188.3,365.203125 L185.9375,365.203125 C185.9375,365.675625 185.78,366.148125 185.6225,366.778125 L185.9375,366.778125 L186.8825,366.778125 C188.7725,366.778125 189.245,367.093125 189.245,368.353125 L189.245,369.298125 C187.985,374.338125 186.725,379.3825 185.3075,384.4225 C185.15,385.21 184.835,385.9975 184.52,386.9425 C184.3625,387.8875 184.0475,388.836875 183.7325,389.781875 C183.575,390.569375 183.26,391.514375 182.945,392.459375 C182.945,392.616875 182.7875,392.931875 182.63,393.246875 L185.9375,393.246875 C186.095,392.616875 186.2525,392.144375 186.2525,391.829375 C186.725,389.781875 187.04,388.675 187.1975,388.2025 C187.8275,385.84 188.7725,383.4775 190.19,381.5875 C192.241875,378.7525 194.446875,377.1775 196.494375,377.1775 C197.911875,377.1775 198.699375,377.965 198.699375,379.0675 C198.699375,379.54 198.384375,380.6425 198.069375,381.5875 C197.754375,382.5325 197.439375,383.635 197.124375,384.7375 C196.179375,388.045 195.706875,390.096875 195.706875,391.041875 C195.706875,392.774375 196.651875,393.719375 198.226875,393.719375 C200.431875,393.719375 202.79875,391.356875 204.84625,387.2575 Z" id="Stroke-99" stroke="#1A1919" stroke-width="0.284"></path>
        </g>
    </g>
</svg>