<?xml version="1.0" encoding="UTF-8"?>
<svg width="931px" height="420px" viewBox="0 0 931 420" version="1.1" xmlns="http://www.w3.org/2000/svg" xmlns:xlink="http://www.w3.org/1999/xlink">
    <!-- Generator: Sketch 61.2 (89653) - https://sketch.com -->
    <title>sign-giving-order-contra-flow-bus-lane</title>
    <desc>Created with Sketch.</desc>
    <g id="sign-giving-order-contra-flow-bus-lane" stroke="none" stroke-width="1" fill="none" fill-rule="evenodd">
        <g id="Group" transform="translate(3.000000, 0.000000)">
            <path d="M890.180751,0 C909.274421,0 925,15.7317346 925,34.4469828 L925,381.17847 L925,381.553017 C925,400.278859 909.274421,416 890.180751,416 L34.4342596,416 C15.7149895,416 0,400.278859 0,381.17847 L0,34.4469828 C0,15.7317346 15.7149895,0 34.4342596,0 L890.180751,0 Z" id="Fill-5903" fill="#FFFFFE"></path>
            <path d="M890.181411,1 L34.4340259,1 C16.2711225,1 1,16.2802418 1,34.4474493 L1,381.178235 C1,399.669547 16.2109878,415 34.4340259,415 L890.181411,415 C908.66716,415 924,399.781042 924,381.552551 L924,34.4474493 C924,16.2257271 908.663519,1 890.181411,1 Z" id="Stroke-5904" stroke="#0070AC" stroke-width="2"></path>
            <path d="M364,398 L364,17 L889.782956,17 C899.518866,17 907,24.8572529 907,34.5848481 L907,380.778935 C907,390.132159 899.518866,398 889.782956,398 L364,398" id="Fill-5905" fill="#0070AC"></path>
            <path d="M329,17 L329,398 L34.584619,398 C24.8625862,398 17,390.132159 17,380.778935 L17,34.5848481 C17,24.8572529 24.8625862,17 34.584619,17 L329,17" id="Fill-5906" fill="#0070AC"></path>
            <polyline id="Fill-5907" fill="#FFFFFE" points="647.248689 231 647.248689 323.120587 670 300.004899 670 334.316294 635.319135 369 601 334.316294 601 300.004899 623.751311 323.120587 623.751311 231"></polyline>
            <path d="M416.585549,192.254664 L416.222179,192.627709 C409.962537,192.431013 405,187.480445 405,181.443149 L405.010576,132.593879 C405.207748,129.652478 407.647089,127.36447 410.606179,127.36447 L413.606063,63.5919033 C413.792658,60.4440084 416.242576,58 419.201665,58 L837.213657,58 C853.106771,58 866,70.8621311 866,86.7169102 L866,87.0688535 L866,173.240686 L766.923762,193 C767.6709,190.390194 768.044847,187.408097 768.044847,184.425246 C768.044847,168.756612 754.954445,155.708336 739.247928,155.708336 C723.551987,155.708336 710.461585,168.756612 710.461585,184.425246 C710.461585,187.408097 710.834776,190.390194 711.58267,193 L536.22659,193 C537.358251,190.390194 537.731442,187.408097 537.731442,184.425246 C537.731442,168.756612 524.641041,155.708336 508.934523,155.708336 C492.865391,155.708336 479.774234,168.756612 479.774234,184.425246 C479.774234,187.408097 480.522128,190.390194 481.269266,193 L416.585549,192.254664 Z M461.825547,86.7169102 L462.188918,87.089955 C462.199494,86.9656068 462.199494,86.8412585 462.199494,86.7169102 C462.199494,83.7657117 459.915775,81.3315004 456.967262,81.1348041 L439.392522,81.125007 C436.298962,81.125007 433.787098,83.6308127 433.787098,86.7169102 C433.787098,86.8412585 433.787098,86.9656068 433.796919,87.089955 L433.787098,170.248038 C433.787098,173.551933 436.298962,176.223537 439.392522,176.223537 L456.967262,176.203189 C459.915775,175.995942 462.199494,173.396686 462.199494,170.248038 L461.825547,86.7169102 Z M488.36972,121.026477 L488.36972,121.026477 C485.421963,121.026477 482.972045,118.737716 482.774873,115.806865 L482.774873,87.089955 C482.764297,86.9656068 482.764297,86.8412585 482.764297,86.7169102 C482.764297,83.6308127 485.276161,81.125007 488.36972,81.125007 L557.538531,81.125007 C560.642667,81.125007 563.154531,83.6308127 563.154531,86.7169102 C563.154531,86.8412585 563.14471,86.9656068 563.134134,87.089955 L563.134134,115.806865 C562.947538,118.737716 560.497621,121.026477 557.538531,121.026477 L488.36972,121.026477 Z M583.346143,120.653433 L583.709513,121.015927 C583.584864,121.026477 583.460215,121.026477 583.346143,121.026477 C580.387053,121.026477 577.937136,118.737716 577.739964,115.806865 L577.739964,87.089955 C577.739964,86.9656068 577.730143,86.8412585 577.730143,86.7169102 C577.730143,83.6308127 580.242007,81.125007 583.346143,81.125007 C583.460215,81.125007 583.584864,81.125007 583.709513,81.1348041 L652.514198,81.1348041 C652.638847,81.125007 652.763496,81.125007 652.888145,81.125007 C655.981704,81.125007 658.494323,83.6308127 658.494323,86.7169102 C658.494323,86.8412585 658.483747,86.9656068 658.483747,87.089955 L658.483747,115.806865 C658.286575,118.737716 655.836658,121.026477 652.888145,121.026477 C652.763496,121.026477 652.638847,121.026477 652.514198,121.015927 L583.346143,120.653433 Z M678.68518,121.026477 L678.68518,121.026477 C675.726846,121.026477 673.286749,118.737716 673.089577,115.806865 L673.089577,87.089955 C673.079001,86.9656068 673.079001,86.8412585 673.079001,86.7169102 C673.079001,83.6308127 675.591621,81.125007 678.68518,81.125007 L747.85399,81.125007 C750.94755,81.125007 753.459414,83.6308127 753.459414,86.7169102 C753.459414,86.8412585 753.459414,86.9656068 753.448838,87.089955 L753.448838,115.806865 C753.251666,118.737716 750.801748,121.026477 747.85399,121.026477 L678.68518,121.026477 Z M773.65027,120.653433 L774.024217,121.015927 C773.899568,121.026477 773.774919,121.026477 773.65027,121.026477 C770.691936,121.026477 768.252595,118.737716 768.055423,115.806865 L768.055423,87.089955 C768.044847,86.9656068 768.044847,86.8412585 768.044847,86.7169102 C768.044847,83.6308127 770.556711,81.125007 773.65027,81.125007 C773.774919,81.125007 773.899568,81.125007 774.024217,81.1348041 L831.587081,81.125007 C840.940282,81.3217033 848.42526,88.9431208 848.42526,98.2745152 L848.42526,98.6370092 L848.414684,115.806865 C848.217512,118.737716 845.767594,121.026477 842.819081,121.026477 L773.65027,120.653433 Z" id="Fill-5908" fill="#FFFFFE"></path>
            <path d="M509,173.693508 L509,173.693508 C515.458894,173.693508 520.693508,178.760517 520.693508,185 C520.693508,191.239483 515.458894,196.306492 509,196.306492 C502.55101,196.306492 497.316396,191.239483 497.316396,185 C497.316396,178.760517 502.55101,173.693508 509,173.693508 M509,162 L509,162 C521.698377,162 532,172.301623 532,185 C532,197.699139 521.698377,208 509,208 C496.300861,208 486,197.699139 486,185 C486,172.301623 496.300861,162 509,162" id="Fill-5909" fill="#FFFFFE"></path>
            <path d="M739.377112,173.693508 L739.377112,173.693508 C745.836005,173.693508 751.070619,178.760517 751.070619,185 C751.070619,191.239483 745.836005,196.306492 739.377112,196.306492 C732.928122,196.306492 727.693508,191.239483 727.693508,185 C727.693508,178.760517 732.928122,173.693508 739.377112,173.693508 M739,162 L739,162 C751.699139,162 762,172.301623 762,185 C762,197.699139 751.699139,208 739,208 C726.311527,208 716,197.699139 716,185 C716,172.301623 726.311527,162 739,162" id="Fill-5910" fill="#FFFFFE"></path>
            <polygon id="Fill-5911" fill="#FFFFFE" points="82.9117592 312 82.9117592 165.461981 52 195.818476 52 150.101976 98.1862653 104 144 150.101976 144 195.818476 113.460771 165.461981 113.460771 312"></polygon>
            <polygon id="Fill-5912" fill="#FFFFFE" points="233.538726 312 233.538726 165.461981 203 195.818476 203 150.101976 248.814109 104 295 150.101976 295 195.818476 264.078204 165.461981 264.078204 312"></polygon>
        </g>
    </g>
</svg>