<?xml version="1.0" encoding="UTF-8"?>
<svg width="420px" height="420px" viewBox="0 0 420 420" version="1.1" xmlns="http://www.w3.org/2000/svg" xmlns:xlink="http://www.w3.org/1999/xlink">
    <!-- Generator: Sketch 61.2 (89653) - https://sketch.com -->
    <title>sign-giving-order-no-overtaking</title>
    <desc>Created with Sketch.</desc>
    <g id="sign-giving-order-no-overtaking" stroke="none" stroke-width="1" fill="none" fill-rule="evenodd">
        <g id="Group">
            <path d="M171.630154,3.23361351 C58.708759,22.9345437 -16.5689155,130.913614 3.13201478,243.825241 C23.1748055,356.736869 130.83155,432.004776 243.752945,412.313614 C356.67434,392.261055 432.31341,284.623846 412.260852,171.721986 C392.559922,58.4587298 284.561317,-16.8189446 171.630154,3.23361351" id="Fill-174" fill="#D0383F"></path>
            <path d="M179.024108,44.0322182 C88.6166659,59.8652414 28.4589915,146.395009 44.2822473,236.792683 C60.1152706,327.190358 146.303178,387.338265 236.710619,371.505241 C327.127829,355.681986 387.285503,269.503846 371.45248,179.106172 C355.619457,88.7084972 269.43155,28.2089624 179.024108,44.0322182" id="Fill-175" fill="#FFFFFE"></path>
            <path d="M74.8934101,194.929427 L81.2227125,161.163381 C81.9259683,157.647102 86.4971311,150.614544 95.6492241,150.614544 L162.487829,150.614544 C171.630154,150.614544 175.859457,157.647102 176.562712,161.163381 L183.243643,194.929427 C187.463178,195.632683 192.03434,199.852218 192.03434,204.433148 L192.03434,232.22152 C192.03434,236.089427 188.518061,239.957334 186.759922,241.012218 L186.759922,261.416404 C183.946898,263.8778 181.133875,265.987567 177.265968,265.987567 C173.749689,265.987567 169.872015,263.8778 167.762247,261.416404 L167.762247,241.715474 L150.171085,243.121986 L107.956201,243.121986 L90.3748055,241.715474 L90.3748055,261.416404 C88.2552706,263.8778 84.3873636,265.987567 80.8710845,265.987567 C77.0031776,265.987567 74.1901543,263.8778 71.3771311,261.416404 L71.3771311,241.012218 C69.6189915,239.957334 66.092945,236.089427 66.092945,232.22152 L66.092945,204.433148 C66.092945,199.852218 70.6738752,195.632683 74.8934101,194.929427 M83.3324799,181.919195 L85.4422473,171.721986 C87.5520148,161.163381 98.8138752,159.756869 110.075736,159.756869 L148.061317,159.756869 C159.323178,159.756869 170.575271,161.163381 172.685038,171.721986 L174.804573,181.919195 C175.507829,187.896869 172.33341,190.006637 165.65248,189.655009 L129.063643,188.248497 L92.4845729,189.655009 C85.7938752,190.006637 82.6292241,187.896869 83.3324799,181.919195" id="Fill-176" fill="#1A1919"></path>
            <path d="M232.139457,194.5778 L238.830154,160.811753 C239.53341,157.295474 244.104573,150.262916 252.895271,150.262916 L320.085503,150.262916 C328.885968,150.262916 333.457131,157.295474 334.160387,160.811753 L340.841317,194.5778 C345.070619,195.281055 349.290154,199.510358 349.290154,204.08152 L349.290154,231.869893 C349.290154,235.7378 345.773875,239.254079 344.015736,240.66059 L344.015736,261.064776 C341.192945,263.526172 338.73155,265.284311 334.863643,265.284311 C331.347364,265.284311 327.127829,263.526172 325.018061,261.064776 L325.018061,241.363846 L307.778526,242.770358 L265.563643,242.770358 L247.97248,241.363846 L247.97248,261.064776 C245.862712,263.526172 241.994805,265.284311 238.126898,265.284311 C234.600852,265.284311 231.787829,263.526172 228.974805,261.064776 L228.974805,240.66059 C227.216666,239.254079 223.700387,235.7378 223.700387,231.869893 L223.700387,204.08152 C223.700387,199.510358 227.919922,195.281055 232.139457,194.5778 M240.939922,181.567567 L242.698061,171.370358 C244.807829,160.811753 256.059922,159.405241 267.67341,159.405241 L305.317131,159.405241 C316.920852,159.405241 328.182712,160.811753 330.29248,171.370358 L332.050619,181.567567 C333.105503,187.545241 329.589224,189.655009 323.259922,189.303381 L286.671085,187.545241 L249.730619,189.303381 C243.401317,189.655009 239.885038,187.545241 240.939922,181.567567" id="Fill-177" fill="#D0383F"></path>
        </g>
    </g>
</svg>