<?xml version="1.0" encoding="UTF-8"?>
<svg width="420px" height="420px" viewBox="0 0 420 420" version="1.1" xmlns="http://www.w3.org/2000/svg" xmlns:xlink="http://www.w3.org/1999/xlink">
    <!-- Generator: Sketch 61.2 (89653) - https://sketch.com -->
    <title>sign-giving-order-no-entry-vehicular-traffic</title>
    <desc>Created with Sketch.</desc>
    <g id="sign-giving-order-no-entry-vehicular-traffic" stroke="none" stroke-width="1" fill="none" fill-rule="evenodd">
        <g id="Group">
            <path d="M207.869824,-7.84005629e-13 C322.613824,-7.84005629e-13 415.739214,93.1161356 415.739214,207.840915 C415.739214,322.564983 322.613824,415.681119 207.869824,415.681119 C93.1258237,415.681119 0.000433895597,322.564983 0.000433895597,207.840915 C0.000433895597,93.1161356 93.1258237,-7.84005629e-13 207.869824,-7.84005629e-13" id="Fill-141" fill="#FFFFFE"></path>
            <path d="M207.869603,0.00212101423 C322.613624,0.00212101423 415.739207,93.1179212 415.739207,207.842378 C415.739207,322.566835 322.613624,415.682635 207.869603,415.682635 C93.1255823,415.682635 -3.060151e-12,322.566835 -3.060151e-12,207.842378 C-3.060151e-12,93.1179212 93.1255823,0.00212101423 207.869603,0.00212101423" id="Stroke-142" stroke="#D0383F" stroke-width="0.284"></path>
            <path d="M207.869824,8.09959322 C317.947553,8.09959322 407.277993,97.5866441 407.277993,207.840915 C407.277993,318.094475 317.947553,407.581525 207.869824,407.581525 C97.7920949,407.581525 8.46165423,318.094475 8.46165423,207.840915 C8.46165423,97.5866441 97.7920949,8.09959322 207.869824,8.09959322" id="Fill-143" fill="#D0383F"></path>
            <path d="M41.5740271,249.092034 L41.5740271,249.092034 C35.6755186,249.092034 30.843383,244.415797 30.6575864,238.517288 L30.6575864,177.574576 L30.6575864,177.232169 C30.6575864,171.206949 35.5480949,166.315729 41.5740271,166.315729 L374.508027,166.315729 C380.406536,166.501525 385.082061,171.333661 385.082061,177.232169 L385.082061,177.574576 L385.082061,238.517288 C384.896264,244.279119 380.269858,248.906237 374.508027,249.092034" id="Fill-144" fill="#FFFFFE"></path>
        </g>
    </g>
</svg>