<?xml version="1.0" encoding="UTF-8"?>
<svg width="420px" height="420px" viewBox="0 0 420 420" version="1.1" xmlns="http://www.w3.org/2000/svg" xmlns:xlink="http://www.w3.org/1999/xlink">
    <!-- Generator: Sketch 61.2 (89653) - https://sketch.com -->
    <title>sign-giving-order-no-u-turn</title>
    <desc>Created with Sketch.</desc>
    <g id="sign-giving-order-no-u-turn" stroke="none" stroke-width="1" fill="none" fill-rule="evenodd">
        <g id="Group">
            <path d="M171.630154,3.22254526 C58.708759,23.265336 -16.5689155,130.902545 3.13201478,243.814173 C23.1748055,356.716034 130.83155,432.345336 243.752945,412.292778 C356.67434,392.249987 432.31341,284.612778 412.260852,171.70115 C392.208294,58.7992894 284.561317,-16.8300129 171.630154,3.22254526" id="Fill-136" fill="#D0383F"></path>
            <path d="M179.024108,44.0211499 C88.6166659,60.2058011 28.1073636,146.374173 44.2822473,236.771848 C60.1152706,327.169522 146.303178,387.317429 236.710619,371.494173 C327.127829,355.309522 387.285503,269.14115 371.45248,179.095103 C355.619457,88.697429 269.43155,28.1978941 179.024108,44.0211499" id="Fill-137" fill="#FFFFFE"></path>
            <path d="M145.599922,304.665336 L117.81155,332.453708 L117.81155,176.623941 C117.81155,127.112778 157.994805,86.9392894 207.515736,86.9392894 L207.828294,86.9392894 C257.25155,87.105336 297.219922,127.210452 297.219922,176.623941 L297.57155,176.623941 L297.57155,304.665336 L270.134805,332.453708 L242.346433,304.665336 L242.346433,176.623941 L241.994805,176.623941 C241.994805,157.733708 226.777131,142.359755 207.877131,142.164406 C207.759922,142.154638 207.632945,142.154638 207.515736,142.154638 C188.488759,142.154638 173.036666,157.596964 173.036666,176.623941 L173.036666,332.453708 L145.599922,304.665336" id="Fill-138" fill="#1A1919"></path>
            <polygon id="Fill-139" fill="#D0383F" points="51.3245729 97.8397546 34.085038 127.737894 363.706898 318.027196 381.298061 288.129057"></polygon>
        </g>
    </g>
</svg>