<?xml version="1.0" encoding="UTF-8"?>
<svg width="420px" height="420px" viewBox="0 0 420 420" version="1.1" xmlns="http://www.w3.org/2000/svg" xmlns:xlink="http://www.w3.org/1999/xlink">
    <!-- Generator: Sketch 61.2 (89653) - https://sketch.com -->
    <title>sign-giving-order-keep-left</title>
    <desc>Created with Sketch.</desc>
    <g id="sign-giving-order-keep-left" stroke="none" stroke-width="1" fill="none" fill-rule="evenodd">
        <g id="Group">
            <path d="M209.983228,-6.069721e-13 C325.891838,-6.069721e-13 419.966143,94.0550847 419.966143,209.953729 C419.966143,325.851661 325.891838,419.906746 209.983228,419.906746 C94.0753292,419.906746 0.00102411661,325.851661 0.00102411661,209.953729 C0.00102411661,94.0550847 94.0753292,-6.069721e-13 209.983228,-6.069721e-13" id="Fill-265" fill="#FFFFFE"></path>
            <path d="M209.982537,0.00166177627 C325.890628,0.00166177627 419.965074,94.0565435 419.965074,209.954852 C419.965074,325.853161 325.890628,419.908043 209.982537,419.908043 C94.0744459,419.908043 5.69036343e-12,325.853161 5.69036343e-12,209.954852 C5.69036343e-12,94.0565435 94.0744459,0.00166177627 209.982537,0.00166177627" id="Stroke-266" stroke="#0070AC" stroke-width="0.425"></path>
            <path d="M209.983228,10.5647797 C320.257431,10.5647797 409.74377,99.8952203 409.74377,209.953729 C409.74377,320.012237 320.257431,409.341966 209.983228,409.341966 C99.709736,409.341966 10.223397,320.012237 10.223397,209.953729 C10.223397,99.8952203 99.709736,10.5647797 209.983228,10.5647797" id="Fill-267" fill="#0070AC"></path>
            <polygon id="Fill-268" fill="#FFFFFE" points="261.437499 276.246814 183.219973 276.246814 350.219804 109.266203 310.759024 70.1670508 143.768448 237.137695 143.768448 158.587729 84.9292953 217.416915 84.9292953 335.076712 202.598346 335.076712"></polygon>
        </g>
    </g>
</svg>