<?xml version="1.0" encoding="UTF-8"?>
<svg width="420px" height="420px" viewBox="0 0 420 420" version="1.1" xmlns="http://www.w3.org/2000/svg" xmlns:xlink="http://www.w3.org/1999/xlink">
    <!-- Generator: Sketch 61.2 (89653) - https://sketch.com -->
    <title>sign-giving-order-manually-stop</title>
    <desc>Created with Sketch.</desc>
    <g id="sign-giving-order-manually-stop" stroke="none" stroke-width="1" fill="none" fill-rule="evenodd">
        <g id="Group" transform="translate(0.000000, 0.000000)">
            <path d="M207.577674,0 C322.159535,0 415.155349,92.9860465 415.155349,207.55814 C415.155349,322.130233 322.159535,415.116279 207.577674,415.116279 C92.995814,415.116279 4.02530722e-12,322.130233 4.02530722e-12,207.55814 C4.02530722e-12,92.9860465 92.995814,0 207.577674,0" id="Fill-7" fill="#ABACAB"></path>
            <polyline id="Fill-8" fill="#FFFFFE" points="16.1944186 287.123721 16.1944186 128.461395 128.422326 16.2334884 287.094419 16.2334884 399.332093 128.461395 399.332093 287.123721 287.094419 399.34186 128.422326 398.990233"></polyline>
            <polyline id="Fill-9" fill="#D0383F" points="28.5111628 281.839535 28.8627907 133.735814 133.706512 28.5502326 281.82 28.9018605 386.663721 133.735814 386.663721 281.839535 281.82 386.673488 133.706512 386.673488"></polyline>
            <path d="M247.34093,160.117674 C270.55814,160.117674 290.620465,179.466977 290.620465,206.913488 C290.620465,234.350233 271.622791,254.402791 247.34093,254.402791 C223.068837,254.402791 204.071163,234.350233 204.071163,206.913488 C204.071163,179.466977 223.772093,160.117674 247.34093,160.117674 M247.34093,174.544186 C265.635349,174.544186 274.435814,192.486977 274.435814,206.913488 C274.435814,221.68186 265.635349,240.327907 247.34093,240.327907 C228.694884,240.327907 219.904186,221.68186 219.904186,206.913488 C219.904186,192.486977 229.046512,174.544186 247.34093,174.544186" id="Fill-10" fill="#FFFFFE"></path>
            <path d="M341.987442,175.247442 L326.857674,175.247442 L326.857674,205.506977 L343.393953,205.497209 C351.481395,205.497209 357.810698,198.113023 357.810698,190.377209 C357.810698,182.28 351.833023,175.247442 341.987442,175.247442 M347.613488,218.868837 L326.857674,218.868837 L326.857674,252.293023 L311.376279,252.293023 L311.376279,161.875814 L346.558605,161.875814 C361.688372,161.875814 373.643721,176.653953 373.643721,191.080465 C373.643721,204.442326 360.28186,218.868837 347.613488,218.868837" id="Fill-11" fill="#FFFFFE"></path>
            <path d="M114.69907,174.544186 L102.392093,183.686512 C97.107907,178.763721 90.7786047,173.137674 80.5716279,173.137674 C70.7260465,173.137674 64.0451163,179.115349 63.6934884,185.454419 C63.6934884,194.596744 70.3744186,196.706512 83.7460465,198.816279 C93.24,200.574419 99.9306977,201.277674 106.611628,206.56186 C112.94093,211.484651 116.115349,218.165581 116.115349,226.262791 C116.115349,234.350233 110.831163,254.402791 81.987907,254.402791 C59.1125581,254.402791 47.8604651,241.734419 43.6311628,236.811628 L57.3544186,226.614419 C62.9804651,236.108372 73.1874419,240.679535 80.5716279,240.679535 C87.6139535,240.679535 99.9306977,237.866512 99.9306977,226.614419 C99.9306977,215.352558 86.5590698,214.649302 73.5390698,212.187907 C60.8706977,210.07814 47.5088372,203.73907 47.5088372,186.157674 C47.5088372,168.566512 64.7483721,160.117674 80.5716279,160.117674 C96.7562791,160.117674 107.666512,165.40186 114.69907,174.544186" id="Fill-12" fill="#FFFFFE"></path>
            <polyline id="Fill-13" fill="#FFFFFE" points="159.385116 252.293023 166.769302 252.293023 166.769302 175.950698 191.051163 175.950698 191.051163 161.875814 126.312558 161.875814 126.312558 175.950698 150.594419 175.950698 150.594419 252.293023 157.275349 252.293023"></polyline>
        </g>
    </g>
</svg>