<?xml version="1.0" encoding="UTF-8"?>
<svg width="475px" height="420px" viewBox="0 0 475 420" version="1.1" xmlns="http://www.w3.org/2000/svg" xmlns:xlink="http://www.w3.org/1999/xlink">
    <!-- Generator: Sketch 61.2 (89653) - https://sketch.com -->
    <title>sign-giving-order-give-way</title>
    <desc>Created with Sketch.</desc>
    <g id="sign-giving-order-give-way" stroke="none" stroke-width="1" fill="none" fill-rule="evenodd">
        <g id="Group">
            <polyline id="Fill-37" fill="#FFFFFE" points="345.709653 21.8335932 447.531178 21.8335932 231.913856 394.18922 19.1140932 21.8335932"></polyline>
            <path d="M439.773992,1.51743025e-13 C451.052771,1.51743025e-13 461.265178,5.98677966 466.909551,15.4951525 C472.543958,25.0127797 472.543958,36.986339 466.909551,46.494 L262.669246,400.205186 C257.093212,409.987627 246.695008,416.03278 235.435449,416.03278 C224.176602,416.03278 213.778398,409.987627 208.192398,400.205186 L3.96205932,46.8463729 C-1.32068644,36.986339 -1.32068644,25.0127797 3.96205932,15.4951525 C9.5964661,5.98677966 20.1705,1.51743025e-13 31.0876525,1.51743025e-13 L439.773992,1.51743025e-13 Z M49.0572458,41.564339 L421.814364,41.564339 L235.435449,363.894407 L49.0572458,41.564339 Z" id="Fill-38" fill="#D0383F"></path>
            <path d="M244.943822,195.152644 L240.718195,195.152644 L247.056636,176.13661 L253.053381,195.152644 L249.169449,195.152644 L244.943822,195.152644 Z M243.887415,203.60461 L237.900636,203.60461 L235.083788,212.418203 L225.213076,212.418203 L240.718195,163.801424 L253.053381,163.801424 L268.900195,212.418203 L258.687788,212.418203 L255.870229,203.60461 L249.874195,203.60461 L243.887415,203.60461 Z" id="Fill-39" fill="#1A1919"></path>
            <polyline id="Fill-40" fill="#1A1919" points="186.466297 163.801424 182.583076 163.801424 176.243924 196.561424 168.496703 163.801424 158.274331 163.801424 169.55311 212.418203 181.174297 212.418203 188.227449 176.840644 195.270636 212.418203 207.253449 212.418203 218.170602 163.801424 207.605822 163.801424 200.552669 196.561424 193.509483 163.801424 190.692636 163.801424"></polyline>
            <polyline id="Fill-41" fill="#1A1919" points="279.826602 163.801424 273.488161 163.801424 289.687347 192.687458 289.687347 212.418203 299.204975 212.418203 299.204975 193.039831 315.061754 163.801424 304.135347 163.801424 294.626975 182.827424 284.404602 163.801424"></polyline>
            <polyline id="Fill-42" fill="#1A1919" points="324.570127 59.1815593 300.613754 59.1815593 300.613754 132.801864 350.287653 132.801864 350.287653 119.067864 314.710093 119.067864 314.710093 102.858712 344.652534 102.858712 344.652534 89.1247119 314.710093 89.1247119 314.710093 72.9155593 348.174127 72.9155593 348.174127 59.1815593 335.848907 59.1815593"></polyline>
            <path d="M154.752737,83.1379322 L168.496703,76.7895254 C163.908737,67.6335254 153.343958,58.1251525 138.191924,58.1251525 C123.049144,58.1251525 103.318398,69.0423051 103.318398,95.1114915 C103.318398,121.180678 122.34511,133.154237 137.839551,133.154237 C148.061924,133.154237 155.10511,128.927898 156.51389,127.871492 L156.51389,132.801864 L169.55311,132.801864 L169.55311,90.5334915 L138.191924,90.5334915 L138.191924,102.858712 L156.51389,102.858712 C156.51389,109.901898 150.174737,120.124271 138.191924,120.124271 C126.218364,120.124271 118.461178,109.549525 118.461178,95.4631525 C118.461178,81.3675254 126.92311,72.2115254 137.135517,72.2115254 C147.709551,72.2115254 152.287551,78.1983051 154.752737,83.1379322" id="Fill-43" fill="#1A1919"></path>
            <polygon id="Stroke-44" fill="#1A1919" fill-rule="nonzero" points="205.233228 59.1820594 205.233228 132.802136 194.462719 132.802136 194.462719 59.1820594"></polygon>
            <polyline id="Fill-45" fill="#1A1919" points="255.166195 132.801864 263.265788 132.801864 283.700568 59.1815593 268.196161 59.1815593 253.405754 112.719458 238.253008 59.1815593 222.748602 59.1815593 243.183381 132.801864 250.235822 132.801864"></polyline>
        </g>
    </g>
</svg>