<?xml version="1.0" encoding="UTF-8"?>
<svg width="299px" height="420px" viewBox="0 0 299 420" version="1.1" xmlns="http://www.w3.org/2000/svg" xmlns:xlink="http://www.w3.org/1999/xlink">
    <!-- Generator: Sketch 61.2 (89653) - https://sketch.com -->
    <title>sign-giving-order-end-20-zonev2</title>
    <desc>Created with Sketch.</desc>
    <g id="sign-giving-order-end-20-zonev2" stroke="none" stroke-width="1" fill="none" fill-rule="evenodd">
        <g id="Group">
            <path d="M293.838904,403.608493 C293.838904,411.686301 287.205205,418.32 279.121644,418.32 L14.7115068,418.32 C6.63369863,418.32 2.45283246e-13,411.686301 2.45283246e-13,403.608493 L2.45283246e-13,14.5043836 C2.45283246e-13,6.49561644 6.59342466,1.47169947e-12 14.7115068,1.47169947e-12 L279.121644,1.47169947e-12 C287.205205,1.47169947e-12 293.838904,6.42082192 293.838904,14.5043836" id="Fill-100" fill="#1A1919"></path>
            <path d="M14.7115068,293.591507 L14.7115068,293.591507 C10.7071233,293.591507 7.46219178,296.836438 7.46219178,300.840822 L7.46219178,403.608493 C7.46219178,407.750959 10.5690411,410.857808 14.7115068,410.857808 L279.121644,410.857808 C283.06274,410.857808 286.376712,407.750959 286.376712,403.608493 L286.376712,300.840822 C286.376712,296.698356 283.06274,293.591507 279.121644,293.591507" id="Fill-101" fill="#FFFFFE"></path>
            <path d="M286.376712,14.5043836 L286.376712,14.5043836 C286.376712,10.5690411 283.06274,7.25506849 279.121644,7.25506849 L14.7115068,7.25506849 C10.7071233,7.25506849 7.46219178,10.5 7.46219178,14.5043836 L7.46219178,278.88 C7.46219178,282.815342 10.5690411,286.129315 14.7115068,286.129315 L279.121644,286.129315 C283.06274,286.129315 286.376712,282.815342 286.376712,278.88" id="Fill-102" fill="#FFFFFE"></path>
            <path d="M66.0838356,303.309041 C93.0789041,303.309041 114.987945,325.218082 114.987945,352.207397 C114.987945,379.196712 93.0789041,401.105753 66.0838356,401.105753 C39.0887671,401.105753 17.179726,379.196712 17.179726,352.207397 C17.179726,325.218082 39.0887671,303.309041 66.0838356,303.309041" id="Fill-103" fill="#ABACAB"></path>
            <path d="M66.170137,313.049589 C87.7915068,313.049589 105.333699,330.591781 105.333699,352.207397 C105.333699,373.823014 87.7915068,391.365205 66.170137,391.365205 C44.5487671,391.365205 27.0065753,373.823014 27.0065753,352.207397 C27.0065753,330.591781 44.5487671,313.049589 66.170137,313.049589" id="Fill-104" fill="#FFFFFE"></path>
            <path d="M85.9964384,340.412877 C89.9317808,340.412877 93.8728767,342.691233 93.8728767,352.224658 C94.08,361.545205 90.3460274,364.450685 85.9964384,364.450685 C81.6468493,364.450685 78.12,361.545205 78.12,352.224658 C78.3271233,342.691233 82.2682192,340.412877 85.9964384,340.412877 M85.9964384,333.577808 C91.3816438,333.577808 101.536438,336.477534 101.536438,352.431781 C101.536438,368.178904 91.7958904,371.492877 85.9964384,371.492877 C80.1969863,371.492877 70.6635616,368.178904 70.6635616,352.431781 C70.6635616,336.477534 80.8183562,333.577808 85.9964384,333.577808" id="Fill-105" fill="#ABACAB"></path>
            <path d="M43.5189041,347.460822 L36.0567123,347.460822 C35.849589,340.827123 39.5778082,332.749315 50.7682192,332.749315 C61.7515068,332.749315 64.029863,342.276986 64.029863,345.596712 C64.029863,348.703562 63.8227397,355.331507 50.1468493,363.622192 L63.6156164,363.622192 L63.6156164,370.250137 L37.2994521,370.250137 L37.2994521,363.415068 C48.9041096,355.53863 56.3663014,351.396164 56.3663014,346.010959 C56.3663014,342.898356 53.8750685,339.584384 49.7326027,339.584384 C45.590137,339.584384 43.5189041,343.519726 43.5189041,347.460822" id="Fill-106" fill="#ABACAB"></path>
            <polygon id="Fill-107" fill="#1A1919" points="141.114247 289.857534 16.7827397 414.171781 20.1024658 414.378904 144.641096 289.857534"></polygon>
            <polygon id="Fill-108" fill="#1A1919" points="134.279178 290.064658 10.5690411 413.550411 13.0545205 414.378904 137.800274 289.857534"></polygon>
            <polygon id="Fill-109" fill="#1A1919" points="127.438356 289.650411 6.42657534 410.650685 8.29068493 412.307671 130.758082 289.857534"></polygon>
            <polygon id="Fill-110" fill="#1A1919" points="120.810411 289.443288 4.14246575 406.093973 4.97671233 408.579452 124.124384 289.650411"></polygon>
            <polygon id="Fill-111" fill="#1A1919" points="113.555342 289.857534 3.52109589 399.673151 3.72821918 402.987123 116.869315 289.857534"></polygon>
            <polyline id="Fill-112" fill="#1A1919" points="166.394795 312.652603 157.28137 312.652603 157.28137 317.623562 169.507397 317.623562 156.867123 334.820548 156.867123 339.99863 176.756712 339.99863 176.756712 334.820548 163.495068 334.820548 176.135342 317.623562 176.135342 312.652603 169.714521 312.652603"></polyline>
            <path d="M231.258904,328.192603 L239.129589,328.192603 C239.129589,326.529863 237.679726,324.45863 235.194247,324.45863 C232.708767,324.45863 231.258904,326.32274 231.258904,328.192603 M231.258904,332.127945 L244.106301,332.127945 C244.313425,329.642466 243.484932,319.901918 234.987123,319.901918 C227.732055,319.901918 226.075068,327.778356 226.075068,330.263836 C226.075068,332.749315 227.524932,340.827123 235.608493,340.827123 C240.165205,340.827123 242.650685,338.134521 243.277808,337.306027 L240.165205,334.406301 C240.165205,334.406301 238.715342,336.270411 235.815616,336.270411 C232.708767,336.270411 231.258904,334.199178 231.258904,332.127945" id="Fill-113" fill="#1A1919"></path>
            <path d="M221.311233,327.36411 L221.311233,340.205753 L216.334521,340.205753 L216.334521,327.778356 C216.334521,326.32274 215.091781,324.872877 213.020548,324.872877 C210.742192,324.872877 208.878082,326.736986 208.878082,329.435342 L208.878082,340.205753 L203.694247,340.205753 L203.694247,320.523288 L208.878082,320.523288 L208.878082,321.973151 C208.878082,321.973151 210.949315,320.109041 213.849041,320.109041 C218.411507,320.109041 221.311233,323.83726 221.311233,327.36411" id="Fill-114" fill="#1A1919"></path>
            <path d="M189.60411,324.251507 C187.532877,324.251507 185.047397,326.115616 185.047397,330.470959 C185.047397,334.820548 187.532877,336.684658 189.60411,336.684658 C191.675342,336.684658 194.166575,334.820548 194.166575,330.470959 C194.166575,326.115616 191.675342,324.251507 189.60411,324.251507 M189.60411,319.694795 C184.840274,319.694795 180.076438,323.630137 180.076438,330.470959 C180.076438,337.306027 184.840274,341.24137 189.60411,341.24137 C194.580822,341.24137 199.137534,337.306027 199.137534,330.470959 C199.137534,323.630137 194.373699,319.694795 189.60411,319.694795" id="Fill-115" fill="#1A1919"></path>
            <path d="M219.24,363.415068 L214.263288,363.415068 L214.263288,385.168767 L219.24,385.168767 C223.382466,385.168767 228.560548,382.683288 228.560548,374.392603 C228.560548,366.107671 223.382466,363.415068 219.24,363.415068 M219.447123,357.195616 L207.428219,357.195616 L207.428219,391.382466 L219.24,391.382466 C228.560548,391.382466 235.40137,385.37589 235.40137,374.392603 C235.40137,362.793699 227.317808,357.195616 219.447123,357.195616" id="Fill-116" fill="#1A1919"></path>
            <polyline id="Fill-117" fill="#1A1919" points="144.226849 357.195616 133.036438 357.195616 133.036438 391.382466 156.452877 391.382466 156.452877 384.961644 139.871507 384.961644 139.871507 377.499452 153.754521 377.499452 153.754521 371.07863 139.871507 371.07863 139.871507 363.622192 155.41726 363.622192 155.41726 357.195616 149.612055 357.195616"></polyline>
            <polyline id="Fill-118" fill="#1A1919" points="170.128767 357.195616 172.82137 357.195616 189.60411 380.819178 189.60411 357.195616 196.237808 357.195616 196.237808 391.589589 188.36137 391.589589 173.028493 368.178904 173.028493 391.589589 166.187671 391.589589 166.187671 357.195616 167.850411 357.195616"></polyline>
            <path d="M241.200822,385.790137 L246.177534,381.026301 C252.391233,385.37589 257.782192,385.790137 259.024932,385.790137 C260.889041,385.790137 262.753151,384.133151 262.753151,382.061918 C262.753151,379.777808 261.096164,378.535068 259.853425,378.327945 C258.817808,377.913699 254.048219,377.085205 252.18411,376.670959 C250.112877,376.256712 243.899178,374.392603 243.899178,366.936164 C243.899178,359.266849 249.284384,356.574247 255.503836,356.574247 C261.510411,356.574247 266.067123,358.438356 270.215342,361.959452 L265.445753,366.521918 C262.960274,364.657808 259.646301,363.000822 255.089589,363.000822 C252.18411,363.000822 251.56274,365.693425 251.56274,366.521918 C251.56274,367.350411 252.391233,369.421644 254.048219,369.83589 C255.918082,370.250137 260.681918,371.285753 261.510411,371.492877 C263.374521,371.7 270.215342,374.392603 270.215342,381.440548 C270.215342,387.86137 265.86,392.210959 257.989315,392.210959 C250.112877,392.210959 243.899178,388.48274 241.200822,385.790137" id="Fill-119" fill="#1A1919"></path>
            <path d="M146.861918,24.4808219 C214.464658,24.4808219 269.329315,79.2476712 269.329315,146.723836 C269.329315,214.2 214.464658,268.966849 146.861918,268.966849 C79.2591781,268.966849 24.3945205,214.2 24.3945205,146.723836 C24.3945205,79.2476712 79.2591781,24.4808219 146.861918,24.4808219" id="Fill-120" fill="#D0383F"></path>
            <path d="M146.861918,48.9271233 C200.852055,48.9271233 244.670137,92.7394521 244.670137,146.723836 C244.670137,200.708219 200.852055,244.514795 146.861918,244.514795 C92.8717808,244.514795 49.0536986,200.708219 49.0536986,146.723836 C49.0536986,92.7394521 92.8717808,48.9271233 146.861918,48.9271233" id="Fill-121" fill="#FFFFFE"></path>
            <path d="M193.752329,117.272055 C203.487123,117.272055 213.020548,122.864384 213.434795,146.689315 C213.641918,170.312877 204.729863,177.562192 193.752329,177.562192 C182.769041,177.562192 173.856986,170.312877 174.06411,146.689315 C174.478356,122.864384 184.218904,117.272055 193.752329,117.272055 M193.752329,100.282192 C206.806849,100.075068 232.294521,107.531507 232.294521,147.310685 C232.294521,186.888493 208.256712,194.966301 193.752329,194.966301 C179.242192,194.966301 155.41726,186.888493 155.41726,147.310685 C155.41726,107.531507 180.697808,100.075068 193.752329,100.282192" id="Fill-122" fill="#1A1919"></path>
            <path d="M122.674521,145.032329 C123.503014,145.032329 133.450685,140.889863 133.450685,126.799726 C133.450685,112.502466 120.603288,100.075068 99.6723288,100.075068 C78.5342466,100.075068 65.8939726,110.431233 64.2369863,127.835342 L83.5109589,129.906575 C84.7536986,121.414521 89.1032877,116.443562 100.915068,116.443562 C112.726849,116.443562 114.383836,124.728493 114.383836,127.628219 C114.176712,135.711781 109.412877,138.81863 94.08,138.81863 L94.08,153.944384 C98.6367123,154.35863 107.75589,154.151507 110.24137,155.808493 C115.419452,159.329589 115.419452,161.815068 115.419452,165.129041 C115.419452,167.206027 115.212329,177.769315 101.536438,177.769315 C87.8605479,177.769315 84.7536986,170.312877 83.5109589,163.264932 L64.2369863,166.786027 C66.5153425,182.326027 77.2915068,194.552055 101.329315,194.552055 C125.16,194.552055 135.107671,178.597808 135.107671,165.957534 C135.107671,153.530137 127.438356,146.067945 122.674521,145.032329" id="Fill-123" fill="#1A1919"></path>
        </g>
    </g>
</svg>