<?xml version="1.0" encoding="UTF-8"?>
<svg width="420px" height="420px" viewBox="0 0 420 420" version="1.1" xmlns="http://www.w3.org/2000/svg" xmlns:xlink="http://www.w3.org/1999/xlink">
    <!-- Generator: Sketch 61.2 (89653) - https://sketch.com -->
    <title>sign-giving-order-stop-give-way</title>
    <desc>Created with Sketch.</desc>
    <g id="sign-giving-order-stop-give-way" stroke="none" stroke-width="1" fill="none" fill-rule="evenodd">
        <g id="Group">
            <polygon id="Fill-30" fill="#FFFFFE" points="123.049123 420 296.950158 420 420 296.950068 420 122.694909 296.950158 0 123.049123 0 0 122.694909 0 296.950068"></polygon>
            <path d="M123.256759,419.5 L296.743241,419.5 L419.5,296.74274 L419.5,122.902162 L296.743664,0.5 L123.256336,0.5 L0.5,122.902162 L0.5,296.74274 L123.256759,419.5 Z" id="Stroke-31" stroke="#D0383F"></path>
            <polyline id="Fill-32" fill="#D0383F" points="129.083107 406 291.917613 406 407 291.101279 407 128.898721 291.917613 14 129.083107 14 14 128.898721 14 291.101279"></polyline>
            <path d="M250.822606,164 C276.361558,164 298,184.899862 298,214.651084 C298,244.048024 277.425203,266 250.822606,266 C224.574797,266 204,244.048024 204,214.651084 C204,184.899862 225.638442,164 250.822606,164 M250.822606,179.588473 C270.688545,179.588473 280.616856,199.061896 280.616856,214.651084 C280.616856,230.58382 271.043332,250.775115 250.822606,250.775115 C230.957384,250.775115 221.383861,230.58382 221.383861,214.651084 C221.383861,199.061896 231.311455,179.588473 250.822606,179.588473" id="Fill-33" fill="#FFFFFE"></path>
            <path d="M353.647464,180.56399 L336.824094,180.56399 L336.824094,213.585362 L354.720619,213.585362 C363.66382,213.585362 370.828794,205.411101 370.828794,196.891702 C370.828794,188.37302 364.02178,180.56399 353.647464,180.56399 M359.371199,228.138588 L336.824094,228.138588 L336.824094,264 L320,264 L320,166 L358.656004,166 C375.121415,166 388,181.983291 388,197.957255 C388,212.520527 373.691023,228.138588 359.371199,228.138588" id="Fill-34" fill="#FFFFFE"></path>
            <path d="M107.212967,179.588473 L93.9915241,189.502684 C88.6318701,184.191295 81.4750706,178.172054 70.3982116,178.172054 C59.3112399,178.172054 52.164553,184.545578 51.807002,191.626953 C51.807002,201.186881 58.9536889,203.664718 73.614004,206.143271 C83.9764833,207.923277 91.4908338,208.631844 98.6367984,214.296801 C105.426657,219.607474 109,226.688849 109,235.540926 C109,244.402307 103.282795,266 71.8276934,266 C46.8041767,266 34.2877232,252.191533 30,246.88086 L44.6502025,236.248777 C51.0926222,245.818725 62.1694813,251.129399 70.0406605,251.129399 C77.9017272,251.129399 91.4908338,247.942995 91.4908338,235.894494 C91.4908338,223.856729 76.8297964,222.794594 62.8845834,220.316041 C48.9480383,217.837489 34.2877232,211.110397 34.2877232,191.980521 C34.2877232,173.205644 53.2364838,164 70.3982116,164 C87.9073778,164 99.7094515,169.664957 107.212967,179.588473" id="Fill-35" fill="#FFFFFE"></path>
            <polyline id="Fill-36" fill="#FFFFFE" points="155.893165 264 163.706921 264 163.706921 181.273641 190 181.273641 190 166 120 166 120 181.273641 146.293079 181.273641 146.293079 264 153.761488 264"></polyline>
        </g>
    </g>
</svg>