<?xml version="1.0" encoding="UTF-8"?>
<svg width="420px" height="420px" viewBox="0 0 420 420" version="1.1" xmlns="http://www.w3.org/2000/svg" xmlns:xlink="http://www.w3.org/1999/xlink">
    <!-- Generator: Sketch 61.2 (89653) - https://sketch.com -->
    <title>sign-giving-order-segregated-cycle-pedestrian-route</title>
    <desc>Created with Sketch.</desc>
    <g id="sign-giving-order-segregated-cycle-pedestrian-route" stroke="none" stroke-width="1" fill="none" fill-rule="evenodd">
        <g id="Group">
            <path d="M209.667907,1.94325176e-12 C325.402326,1.94325176e-12 419.335814,93.9139535 419.335814,209.638605 C419.335814,325.363256 325.402326,419.277209 209.667907,419.277209 C93.9334884,419.277209 3.47009243e-12,325.363256 3.47009243e-12,209.638605 C3.47009243e-12,93.9139535 93.9334884,1.94325176e-12 209.667907,1.94325176e-12" id="Fill-112" fill="#FFFFFE"></path>
            <path d="M209.667907,1.94325176e-12 C325.402326,1.94325176e-12 419.335814,93.9139535 419.335814,209.638605 C419.335814,325.363256 325.402326,419.277209 209.667907,419.277209 C93.9334884,419.277209 3.47009243e-12,325.363256 3.47009243e-12,209.638605 C3.47009243e-12,93.9139535 93.9334884,1.94325176e-12 209.667907,1.94325176e-12" id="Stroke-113" stroke="#0070AC" stroke-width="0.425"></path>
            <path d="M209.96093,10.1972093 C320.069302,10.1972093 409.42186,99.5497674 409.42186,209.638605 C409.42186,319.727442 320.069302,409.08 209.96093,409.08 C99.8525581,409.08 10.5,319.727442 10.5,209.638605 C10.5,99.5497674 99.8525581,10.1972093 209.96093,10.1972093" id="Fill-114" fill="#0070AC"></path>
            <path d="M80.464186,214.131628 C83.2772093,204.989302 86.0902326,195.495349 88.9130233,185.991628 L88.9130233,185.64 C88.9130233,185.288372 88.9130233,184.936744 88.2,184.936744 L88.2,184.585116 C85.0353488,183.530233 82.5739535,180.013953 82.5739535,176.497674 C82.5739535,171.574884 86.7934884,167.706977 91.3744186,167.706977 L94.8906977,167.706977 L107.197674,167.706977 L107.197674,176.497674 L95.9455814,176.497674 L93.835814,176.497674 C93.1325581,176.497674 92.7809302,177.20093 92.7809302,177.552558 C92.7809302,177.904186 92.7809302,178.255814 93.1325581,178.607442 C95.9455814,180.365581 98.0553488,182.123721 98.0553488,185.288372 C98.0553488,186.694884 97.7037209,187.39814 97.352093,188.453023 C97.352093,189.507907 95.9455814,193.033953 95.9455814,193.033953 L156.806512,193.033953 C157.861395,190.211163 158.916279,187.39814 160.322791,184.233488 C155.751628,183.178605 151.170698,182.123721 146.599535,180.717209 C145.544651,180.717209 144.841395,179.662326 144.841395,178.607442 C144.841395,177.552558 145.896279,176.497674 147.302791,176.497674 L178.265581,176.497674 C178.265581,181.420465 174.397674,185.288372 169.465116,185.288372 C168.410233,187.749767 167.355349,190.211163 166.300465,193.033953 C169.816744,200.066512 173.684651,207.09907 177.562326,214.483256 L177.913953,214.483256 C181.78186,212.725116 186.001395,212.02186 190.22093,212.02186 C208.515349,212.02186 223.645116,226.8 223.645116,245.084651 C223.645116,263.37907 208.515349,278.147442 190.22093,278.147442 C172.981395,278.147442 158.916279,265.488837 157.15814,248.60093 L153.290233,248.60093 L153.290233,248.249302 C152.225581,251.765581 150.467442,254.236744 147.654419,255.994884 C148.709302,258.104651 149.764186,260.214419 151.170698,262.675814 L156.454884,262.675814 L156.454884,267.246977 L152.938605,267.246977 C152.225581,267.950233 151.170698,268.30186 150.115814,268.30186 C149.412558,268.30186 148.357674,267.950233 147.654419,267.246977 L143.083256,267.246977 L143.083256,262.675814 L147.302791,262.675814 C146.599535,261.269302 145.896279,259.511163 144.841395,257.753023 C142.731628,258.456279 142.38,258.456279 140.270233,258.456279 C132.886047,258.456279 126.898605,252.468837 126.898605,245.084651 C126.898605,243.67814 127.250233,242.623256 127.60186,241.216744 C114.943256,232.777674 102.274884,223.986977 89.6162791,215.186512 C89.2646512,216.241395 88.9130233,217.296279 88.5613953,218.702791 C97.0004651,225.393488 101.571628,234.535814 101.571628,245.084651 C101.571628,263.37907 86.4418605,278.147442 68.1572093,278.147442 C49.8627907,278.147442 35.0846512,263.37907 35.0846512,245.084651 C35.0846512,226.8 49.8627907,212.02186 68.1572093,212.02186 C73.4316279,212.02186 75.5413953,212.373488 80.464186,214.131628 L80.464186,214.131628 Z M131.469767,245.084651 C131.469767,250.007442 135.347442,253.885116 140.270233,253.885116 C145.193023,253.885116 149.06093,250.007442 149.06093,245.084651 C149.06093,240.16186 145.193023,236.293953 140.270233,236.293953 C135.347442,236.293953 131.469767,240.16186 131.469767,245.084651 L131.469767,245.084651 Z M85.3869767,229.261395 C85.0353488,231.019535 84.332093,233.129302 83.6288372,235.23907 C81.5190698,241.568372 75.1897674,246.491163 68.8604651,248.249302 L68.1572093,248.249302 C66.3893023,248.249302 64.9827907,246.842791 64.9827907,245.084651 C64.9827907,244.029767 65.3344186,242.974884 66.3893023,242.271628 L66.7409302,241.92 C70.6186047,239.458605 73.7832558,236.645581 74.8381395,232.777674 C75.5413953,229.964651 76.5962791,227.151628 77.6511628,223.986977 C74.8381395,222.570698 71.6734884,221.867442 68.1572093,221.867442 C55.4888372,221.867442 44.9302326,232.426047 44.9302326,245.084651 C44.9302326,257.753023 55.4888372,268.30186 68.1572093,268.30186 C81.1674419,268.30186 91.3744186,257.753023 91.3744186,245.084651 C91.3744186,239.106977 89.2646512,233.48093 85.3869767,229.613023 L85.3869767,229.261395 Z M149.06093,235.23907 C153.290233,224.338605 157.861395,213.428372 162.432558,202.527907 C165.245581,207.450698 168.058605,212.725116 170.871628,217.999535 L170.52,218.351163 C162.784186,223.986977 158.213023,232.074419 157.15814,241.568372 L157.15814,241.92 L153.290233,241.92 C152.586977,239.106977 151.170698,236.997209 149.412558,235.23907 L149.06093,235.23907 Z M175.452558,227.151628 C170.871628,231.019535 168.058605,235.590698 167.355349,241.568372 L167.355349,241.92 L183.54,241.92 C181.078605,236.997209 178.265581,232.074419 175.452558,227.151628 L175.452558,227.151628 Z M193.385581,243.67814 L193.385581,245.084651 C193.385581,246.842791 191.97907,248.249302 190.22093,248.249302 L167.355349,248.249302 L167.355349,248.60093 C168.76186,259.862791 178.617209,268.30186 190.22093,268.30186 C202.889302,268.30186 213.43814,257.753023 213.43814,245.084651 C213.43814,232.426047 202.889302,221.867442 190.22093,221.867442 C187.759535,221.867442 184.946512,222.21907 182.485116,223.283721 C186.001395,229.964651 189.517674,236.645581 193.385581,243.67814 L193.385581,243.67814 Z M132.886047,234.184186 C131.831163,232.074419 130.766512,229.964651 129.711628,227.503256 L124.085581,227.503256 L124.085581,222.932093 L127.953488,222.932093 C128.656744,222.21907 129.36,221.867442 130.414884,221.867442 C131.127907,221.867442 132.182791,222.21907 132.886047,222.932093 L137.457209,222.932093 L137.457209,227.503256 L133.237674,227.503256 C133.94093,228.909767 134.995814,230.667907 136.050698,232.426047 C137.457209,232.074419 138.863721,231.722791 140.270233,231.722791 L140.973488,231.722791 C145.193023,221.515814 149.412558,211.318605 153.64186,200.769767 L93.835814,200.769767 C93.484186,202.879535 92.7809302,204.989302 92.0776744,207.09907 C105.439535,216.241395 118.811163,225.393488 132.182791,234.887442 C132.182791,234.887442 132.534419,234.535814 132.886047,234.184186 L132.886047,234.184186 Z" id="Fill-115" fill="#FFFFFE"></path>
            <polygon id="Fill-116" fill="#FFFFFE" points="242.994419 390.004186 257.069302 390.004186 257.069302 28.7651163 242.994419 28.7651163"></polygon>
            <path d="M311.942791,104.746047 C299.274419,104.746047 299.274419,118.107907 299.274419,118.459535 C299.274419,126.195349 307.02,127.953488 303.503721,130.414884 C299.626047,133.237674 299.977674,132.534419 292.593488,136.753953 C289.077209,138.160465 285.56093,140.62186 284.506047,143.434884 C283.451163,145.896279 281.341395,149.764186 279.22186,162.774419 C277.112093,175.091163 277.463721,177.552558 277.463721,178.255814 C277.463721,178.95907 277.112093,194.792093 277.112093,194.792093 C277.112093,194.792093 277.463721,198.308372 277.463721,199.714884 C277.463721,201.121395 277.112093,200.769767 276.408837,203.231163 C276.057209,206.044186 276.408837,206.747442 276.408837,206.747442 C277.112093,208.505581 278.166977,210.263721 280.989767,210.263721 C282.396279,210.615349 285.209302,210.263721 285.912558,207.802326 C287.31907,203.934419 285.56093,201.473023 285.56093,201.473023 C285.56093,200.769767 285.209302,199.714884 285.209302,197.605116 C285.209302,195.495349 285.209302,191.266047 285.56093,188.101395 C286.264186,184.585116 286.967442,176.849302 287.31907,176.146047 C287.31907,175.794419 286.615814,174.036279 289.428837,167.355349 C292.593488,160.313023 290.835349,163.83907 292.593488,159.961395 C292.945116,159.961395 294.351628,158.554884 294,161.367907 C293.648372,163.83907 292.593488,171.223256 291.890233,179.662326 C291.186977,188.101395 290.835349,189.859535 290.835349,191.969302 C290.835349,194.440465 290.132093,200.066512 290.483721,204.286047 C290.483721,208.505581 291.186977,209.560465 291.538605,216.944651 C291.890233,224.338605 292.945116,239.106977 292.945116,239.458605 C292.593488,240.16186 293.648372,252.117209 293.648372,252.820465 C293.648372,253.172093 294.703256,267.598605 294.703256,267.598605 C294.703256,267.950233 295.054884,270.06 293.648372,271.81814 C292.24186,273.576279 291.186977,274.631163 292.24186,277.092558 C292.945116,279.553953 295.406512,279.553953 296.461395,278.147442 C297.516279,277.092558 302.800465,272.873023 303.152093,272.169767 C303.503721,271.466512 304.558605,271.466512 304.558605,268.30186 C304.910233,265.488837 305.26186,255.643256 305.26186,253.172093 C305.26186,250.710698 306.316744,229.613023 306.316744,229.261395 C306.316744,228.909767 307.02,219.406047 307.02,218.702791 C307.02,217.647907 308.074884,209.208837 308.77814,218.702791 C309.481395,228.206512 310.184651,239.106977 310.184651,239.810233 C310.536279,245.436279 312.294419,247.194419 311.942791,260.917674 C311.591163,270.763256 313.70093,270.763256 315.45907,272.169767 C321.085116,276.74093 321.085116,277.092558 321.788372,277.795814 C322.853023,278.147442 329.533953,278.850698 324.962791,273.576279 C322.14,270.06 323.556279,270.763256 324.611163,253.533488 L324.259535,253.533488 C325.666047,235.23907 326.017674,236.997209 326.017674,234.535814 C326.017674,234.535814 328.127442,211.318605 328.127442,210.263721 C328.127442,208.857209 327.775814,196.90186 327.072558,185.991628 C326.369302,175.794419 326.369302,177.20093 325.666047,168.058605 C324.962791,159.609767 324.962791,162.422791 325.314419,162.422791 C325.314419,162.422791 327.775814,172.27814 328.127442,173.684651 C329.533953,178.607442 333.753488,193.737209 334.808372,197.253488 C335.511628,200.769767 336.566512,201.824651 336.214884,203.934419 C335.863256,210.615349 335.16,210.615349 341.137674,213.428372 C347.125116,215.889767 347.828372,214.834884 350.289767,216.241395 C352.399535,217.296279 351.696279,217.647907 350.641395,221.867442 C349.93814,225.745116 349.93814,224.338605 348.18,232.426047 C346.773488,240.513488 346.773488,237.700465 346.42186,243.326512 C346.070233,248.60093 347.828372,250.710698 348.883256,252.117209 C349.586512,253.172093 350.289767,253.172093 350.641395,255.643256 C350.993023,259.511163 351.696279,266.192093 351.696279,266.543721 C351.696279,267.246977 352.047907,267.598605 352.047907,269.708372 C352.047907,272.169767 351.344651,272.521395 350.641395,273.224651 C348.18,275.686047 349.586512,280.257209 354.157674,276.389302 C358.377209,272.873023 358.377209,271.114884 358.377209,267.246977 C358.728837,263.027442 359.080465,257.401395 359.080465,255.291628 C359.432093,252.468837 361.893488,248.60093 362.596744,258.456279 C363.651628,268.653488 363.3,264.433953 363.651628,266.192093 C364.003256,270.06 364.003256,270.763256 364.354884,271.81814 C364.706512,273.224651 366.474419,274.631163 366.826047,274.982791 C369.990698,277.092558 373.858605,277.092558 371.397209,273.576279 C369.63907,270.763256 370.342326,270.411628 370.342326,266.543721 L370.342326,253.172093 C370.342326,245.787907 372.803721,250.35907 372.100465,245.436279 C371.397209,239.458605 371.045581,243.326512 370.693953,236.645581 C370.342326,231.371163 371.045581,226.8 371.045581,226.448372 C371.397209,224.690233 373.155349,218.702791 375.616744,231.722791 C377.374884,239.810233 375.265116,236.645581 374.913488,240.16186 C374.56186,244.029767 381.242791,241.92 381.946047,241.216744 C383.704186,239.458605 381.946047,237.700465 381.946047,237.700465 L381.946047,236.293953 C382.649302,234.184186 381.946047,229.613023 381.946047,228.909767 C381.946047,228.55814 380.539535,220.109302 378.07814,216.241395 C375.616744,212.373488 376.32,213.428372 371.045581,208.153953 C367.529302,204.989302 371.045581,203.582791 371.748837,202.527907 C372.803721,201.121395 375.616744,199.011628 374.210233,193.385581 C372.803721,188.453023 368.584186,186.694884 365.067907,186.694884 C362.948372,186.694884 355.564186,188.101395 355.915814,195.846977 C356.267442,200.41814 357.673953,201.121395 358.377209,202.176279 C359.783721,204.286047 358.728837,206.395814 350.289767,206.747442 C347.125116,207.09907 348.18,204.637674 348.18,204.637674 C348.18,204.637674 348.883256,203.934419 346.773488,202.176279 C345.718605,200.769767 345.718605,200.066512 345.718605,199.714884 C345.366977,199.363256 344.663721,194.792093 343.247442,187.749767 C341.84093,180.717209 340.786047,174.739535 340.434419,174.387907 C340.434419,173.684651 338.324651,161.016279 337.973023,160.664651 C337.973023,160.313023 335.863256,148.709302 335.863256,147.654419 C334.808372,141.676744 335.16,140.62186 325.314419,134.292558 C320.030233,130.414884 316.513953,130.414884 320.733488,125.492093 C324.259535,121.624186 324.611163,119.162791 323.907907,113.888372 C322.853023,107.910698 315.810698,104.746047 311.942791,104.746047" id="Fill-117" fill="#FFFFFE"></path>
        </g>
    </g>
</svg>