<?xml version="1.0" encoding="UTF-8"?>
<svg width="960px" height="640px" viewBox="0 0 960 640" version="1.1" xmlns="http://www.w3.org/2000/svg" xmlns:xlink="http://www.w3.org/1999/xlink">
    <!-- Generator: Sketch 61.2 (89653) - https://sketch.com -->
    <title>sign-giving-order-ahead-only</title>
    <desc>Created with Sketch.</desc>
    <g id="sign-giving-order-ahead-only" stroke="none" stroke-width="1" fill="none" fill-rule="evenodd">
        <g id="Group" transform="translate(480.000000, 320.000000) rotate(90.000000) translate(-480.000000, -320.000000) translate(160.000000, 0.000000)">
            <path d="M319.999458,0 C496.636772,0 640,143.353863 640,320.000542 C640,496.646137 496.636772,640 319.999458,640 C143.363228,640 0,496.646137 0,320.000542 C0,143.353863 143.363228,0 319.999458,0" id="Fill-276" fill="#FFFFFE"></path>
            <path d="M320,0 C496.636542,0 640,143.353678 640,320 C640,496.646322 496.636542,640 320,640 C143.363458,640 0,496.646322 0,320 C0,143.353678 143.363458,0 320,0" id="Stroke-277" stroke="#0070AC" stroke-width="0.425"></path>
            <path d="M319.999457,15.5 C488.093488,15.5 624.5,151.698634 624.5,319.500543 C624.5,487.302452 488.093488,623.5 319.999457,623.5 C151.906512,623.5 15.5,487.302452 15.5,319.500543 C15.5,151.698634 151.906512,15.5 319.999457,15.5" id="Fill-278" fill="#0070AC"></path>
            <polygon id="Fill-279" fill="#FFFFFE" points="304.273958 447.5 219.498713 362.649573 579.5 362.649573 579.5 278.350427 219.498713 278.350427 304.273958 193.5 177.654737 193.5 50.5 320.23901 177.654737 447.5"></polygon>
        </g>
    </g>
</svg>