<?xml version="1.0" encoding="UTF-8"?>
<svg width="420px" height="420px" viewBox="0 0 420 420" version="1.1" xmlns="http://www.w3.org/2000/svg" xmlns:xlink="http://www.w3.org/1999/xlink">
    <!-- Generator: Sketch 61.2 (89653) - https://sketch.com -->
    <title>sign-giving-order-route-pedal-cycles-only</title>
    <desc>Created with Sketch.</desc>
    <g id="sign-giving-order-route-pedal-cycles-only" stroke="none" stroke-width="1" fill="none" fill-rule="evenodd">
        <g id="Group">
            <path d="M209.667907,1.94325176e-12 C325.402326,1.94325176e-12 419.335814,93.9139535 419.335814,209.638605 C419.335814,325.363256 325.402326,419.277209 209.667907,419.277209 C93.9334884,419.277209 3.47009243e-12,325.363256 3.47009243e-12,209.638605 C3.47009243e-12,93.9139535 93.9334884,1.94325176e-12 209.667907,1.94325176e-12" id="Fill-126" fill="#FFFFFE"></path>
            <path d="M209.667907,1.94325176e-12 C325.402326,1.94325176e-12 419.335814,93.9139535 419.335814,209.638605 C419.335814,325.363256 325.402326,419.277209 209.667907,419.277209 C93.9334884,419.277209 3.47009243e-12,325.363256 3.47009243e-12,209.638605 C3.47009243e-12,93.9139535 93.9334884,1.94325176e-12 209.667907,1.94325176e-12" id="Stroke-127" stroke="#0070AC" stroke-width="0.425"></path>
            <path d="M209.667907,10.1972093 C319.776279,10.1972093 409.128837,99.5497674 409.128837,209.638605 C409.128837,319.727442 319.776279,409.08 209.667907,409.08 C99.5595349,409.08 10.2069767,319.727442 10.2069767,209.638605 C10.2069767,99.5497674 99.5595349,10.1972093 209.667907,10.1972093" id="Fill-128" fill="#0070AC"></path>
            <path d="M124.534884,194.792093 C129.457674,178.607442 134.380465,162.08093 139.303256,145.544651 L139.303256,144.841395 C139.303256,144.13814 138.6,143.434884 137.896744,143.083256 C131.91907,140.62186 128.051163,134.995814 128.051163,128.656744 C128.051163,120.217674 135.083721,113.185116 143.532558,113.185116 L149.510233,113.185116 L170.617674,113.185116 L170.617674,128.656744 L151.268372,128.656744 L147.400465,128.656744 C146.345581,128.656744 145.642326,129.711628 145.642326,130.766512 C145.642326,131.11814 145.993953,131.821395 146.345581,132.173023 L146.697209,132.534419 C151.62,135.347442 154.784651,138.512093 154.784651,144.13814 C154.784651,146.599535 154.433023,147.654419 154.081395,149.764186 C153.729767,151.170698 151.62,157.851628 151.62,157.851628 C186.802326,157.851628 221.974884,157.851628 257.508837,157.5 C259.618605,152.577209 261.728372,147.654419 263.83814,142.38 C256.102326,140.62186 248.014884,138.512093 239.917674,136.402326 C238.159535,135.69907 237.104651,134.292558 237.104651,132.534419 C237.104651,130.414884 238.862791,128.656744 240.972558,128.656744 L295.152558,128.656744 C295.152558,137.457209 288.471628,144.13814 279.671163,144.13814 C277.913023,148.709302 276.154884,153.280465 274.396744,157.851628 C281.077674,170.168372 287.758605,182.475349 294.449302,195.143721 L294.449302,194.792093 C301.48186,192.330698 308.866047,190.562791 316.26,190.562791 C348.267907,190.562791 374.659535,216.944651 374.659535,248.952558 C374.659535,280.960465 348.267907,306.990698 316.26,306.990698 C286.352093,306.990698 261.376744,284.486512 258.563721,254.94 L251.531163,254.94 L251.531163,254.588372 C250.124651,260.566047 246.96,264.785581 242.027442,268.30186 C243.785581,272.169767 245.905116,276.037674 248.014884,279.905581 L257.157209,279.905581 L257.157209,287.651163 L250.827907,287.651163 C249.773023,288.706047 248.014884,289.76093 246.608372,289.76093 C244.840465,289.76093 243.082326,289.057674 242.027442,287.651163 L233.94,287.651163 L233.94,279.905581 L241.324186,279.905581 C239.917674,277.092558 238.511163,273.927907 236.753023,270.763256 C233.236744,272.169767 232.533488,272.169767 229.017209,272.169767 C216.348837,272.169767 205.8,261.62093 205.8,248.952558 C205.8,246.491163 206.151628,244.381395 206.854884,242.271628 L206.854884,241.92 C184.692558,226.8 162.530233,211.670233 140.367907,196.198605 C139.654884,198.308372 138.951628,200.41814 138.248372,202.527907 L138.6,202.879535 C153.026512,214.131628 161.123721,230.667907 161.123721,248.952558 C161.123721,280.960465 135.083721,306.990698 102.724186,306.990698 C70.7065116,306.990698 44.6762791,280.960465 44.6762791,248.952558 C44.6762791,216.944651 70.7065116,190.562791 102.724186,190.562791 C111.866512,190.562791 115.382791,191.266047 123.831628,194.792093 L124.534884,194.792093 Z M213.535814,248.952558 C213.535814,257.401395 220.568372,264.433953 229.017209,264.433953 C237.456279,264.433953 244.488837,257.401395 244.488837,248.952558 C244.488837,240.513488 237.456279,233.48093 229.017209,233.48093 C220.568372,233.48093 213.535814,240.513488 213.535814,248.952558 L213.535814,248.952558 Z M132.973953,221.164186 C131.91907,224.690233 130.864186,228.206512 129.809302,231.722791 C126.293023,242.271628 115.031163,251.413953 104.130698,254.588372 L102.724186,254.588372 C99.5595349,254.588372 97.0883721,252.117209 97.0883721,248.952558 C97.0883721,246.842791 98.1530233,245.084651 99.5595349,244.029767 C99.5595349,244.029767 99.9111628,244.029767 100.262791,243.67814 C106.943721,239.106977 112.569767,233.832558 114.679535,227.151628 C116.086047,222.21907 117.844186,216.944651 119.612093,211.670233 L119.260465,211.670233 C114.327907,209.560465 108.70186,208.153953 102.724186,208.153953 C80.5618605,208.153953 61.915814,226.448372 61.915814,248.952558 C61.915814,271.466512 80.5618605,289.76093 102.724186,289.76093 C125.23814,289.76093 143.532558,271.466512 143.532558,248.952558 C143.532558,238.403721 139.654884,228.909767 132.973953,221.515814 L132.973953,221.164186 Z M244.488837,231.371163 C252.234419,212.373488 259.970233,193.385581 267.715814,174.036279 C272.638605,183.178605 277.561395,192.330698 282.484186,201.473023 L282.132558,201.824651 C268.41907,211.670233 259.970233,226.096744 258.563721,242.974884 L251.531163,242.974884 C250.476279,238.403721 248.366512,234.887442 244.840465,231.722791 L244.488837,231.371163 Z M290.581395,217.296279 C282.484186,223.986977 277.561395,232.426047 276.154884,242.974884 L304.294884,242.974884 C299.723721,234.535814 295.152558,226.096744 290.581395,217.296279 L290.581395,217.296279 Z M321.534419,246.491163 C321.886047,247.194419 322.237674,247.897674 322.237674,248.952558 C322.237674,252.117209 319.424651,254.588372 316.26,254.588372 L276.154884,254.588372 L276.154884,254.94 C278.967907,274.982791 296.207442,289.76093 316.26,289.76093 C338.773953,289.76093 357.068372,271.466512 357.068372,248.952558 C357.068372,226.448372 338.773953,208.153953 316.26,208.153953 C311.688837,208.153953 306.756279,208.857209 302.536744,210.615349 C308.866047,222.570698 315.205116,234.535814 321.534419,246.491163 L321.534419,246.491163 Z M215.997209,229.613023 C214.23907,225.745116 212.48093,221.867442 210.371163,217.999535 L200.867442,217.999535 L200.867442,210.263721 L207.206512,210.263721 L207.206512,209.912093 C208.261395,208.857209 210.019535,208.153953 211.426047,208.153953 C213.184186,208.153953 214.590698,208.857209 215.645581,209.912093 L215.997209,210.263721 L224.084651,210.263721 L224.084651,217.999535 L216.700465,217.999535 C218.106977,220.812558 219.513488,223.635349 221.271628,226.8 L221.974884,226.8 C224.084651,226.096744 226.555814,225.745116 229.017209,225.745116 L230.072093,225.745116 C237.456279,207.802326 244.840465,189.507907 252.234419,171.223256 L147.400465,171.223256 C146.345581,174.739535 145.290698,178.607442 144.235814,182.475349 C167.453023,198.308372 191.02186,214.483256 214.590698,230.667907 C214.942326,230.316279 215.293953,229.964651 215.997209,229.613023 L215.997209,229.613023 Z" id="Fill-129" fill="#FFFFFE"></path>
        </g>
    </g>
</svg>