<?xml version="1.0" encoding="UTF-8"?>
<svg width="429px" height="420px" viewBox="0 0 429 420" version="1.1" xmlns="http://www.w3.org/2000/svg" xmlns:xlink="http://www.w3.org/1999/xlink">
    <!-- Generator: Sketch 61.2 (89653) - https://sketch.com -->
    <title>sign-giving-order-pedestrian-crossing-tramway</title>
    <desc>Created with Sketch.</desc>
    <g id="sign-giving-order-pedestrian-crossing-tramway" stroke="none" stroke-width="1" fill="none" fill-rule="evenodd">
        <g id="Group">
            <path d="M23.0923292,418 C10.3793877,418 0,407.611568 0,395.138414 L0,22.8615857 C0,10.2367111 10.2279059,0 22.8328708,0 L23.1064815,0 L403.915533,0 C416.627951,0 427,10.3884322 427,22.8615857 L427,395.138414 C427,407.611568 416.627951,418 403.915533,418 L23.0923292,418 Z" id="Fill-5653" fill="#FFFFFE"></path>
            <path d="M23.0919825,417.5 L403.91522,417.5 C416.312098,417.5 426.5,407.375098 426.5,395.138483 L426.5,22.8615167 C426.5,10.6249023 416.312098,0.5 403.91522,0.5 L22.8326839,0.5 C10.5027865,0.5 0.5,10.5142129 0.5,22.8615167 L0.5,395.138483 C0.5,407.37369 10.6937057,417.5 23.0919825,417.5 Z" id="Stroke-5654" stroke="#0070AC"></path>
            <path d="M23.6705918,407 C17.1837861,407 12,401.807707 12,395.569503 L12,23.4304969 C12,17.1203966 17.1114835,12 23.4112454,12 C23.4976942,12 23.584143,12 23.6705918,12.0073471 L404.329408,12 C410.808879,12 416,17.1922931 416,23.4304969 L416,395.569503 C416,401.807707 410.808879,407 404.329408,407" id="Fill-5655" fill="#0070AC"></path>
            <path d="M161.532074,63.527396 L147.467399,63.527396 L154.5,41.7685491 L161.532074,63.527396 Z M154.5,69.4905596 L145.376626,69.4905596 L143.032074,77 L136,77 L149.811424,34 L159.18805,34 L173,77 L165.706776,77 L163.362752,69.4905596 L154.5,69.4905596 Z" id="Fill-5656" fill="#FFFFFE"></path>
            <path d="M114.140085,40.4735292 L105.689305,40.4735292 L105.689305,53.6875479 L114.140085,53.6875479 C117.732638,53.6875479 120.549219,50.0621203 120.549219,46.9549101 C120.549219,43.8471764 117.476396,40.4735292 114.140085,40.4735292 M115.420773,34 L98,34 L98,77 L105.689305,77 L105.689305,60.1610771 L113.115638,60.1610771 L120.80546,77 L129,77 L120.293496,59.1251659 C122.598113,57.8306694 127.976071,54.2052418 127.976071,46.9549101 C127.976071,39.9558353 121.829907,34 115.420773,34" id="Fill-5657" fill="#FFFFFE"></path>
            <polyline id="Fill-5658" fill="#FFFFFE" points="73.7627479 77 77.1763467 77 77.1763467 40.7326378 89 40.7326378 89 34 58 34 58 40.7326378 69.5614363 40.7326378 69.5614363 77 72.7122873 77"></polyline>
            <polyline id="Fill-5659" fill="#FFFFFE" points="261.201678 34 258.085914 34 251.067573 63.7865047 243.797282 34 236 34 245.874283 77 254.70298 77 262.240441 44.8830876 269.770553 77 278.606073 77 289 34 280.943421 34 273.932427 64.0450899 266.654789 34 263.019381 34"></polyline>
            <polyline id="Fill-5660" fill="#FFFFFE" points="352.447063 77 354.260831 77 354.260831 60.1610771 368 34 359.960868 34 350.625963 52.392528 341.039656 34 333 34 346.739693 60.1610771 346.739693 77 350.367228 77"></polyline>
            <polyline id="Fill-5661" fill="#FFFFFE" points="224 60.9378797 224 77 216.736945 77 216.736945 44.623979 203.499738 61.7146822 190.263055 44.623979 190.263055 77 183 77 183 34 191.560347 34 203.499738 50.0621203 215.699216 34 224 34 224 44.623979"></polyline>
            <path d="M317.713195,63.527396 L303.541323,63.527396 L310.631236,41.7685491 L317.713195,63.527396 Z M310.631236,69.4905596 L301.443142,69.4905596 L299.081959,77 L292,77 L305.9094,34 L315.09007,34 L329,77 L321.917511,77 L319.556858,69.4905596 L310.631236,69.4905596 Z" id="Fill-5662" fill="#FFFFFE"></path>
            <path d="M245.805703,285.473529 L235.480398,285.473529 L235.480398,296.098032 L245.805703,296.098032 C248.127098,296.098032 250.448493,293.508515 250.448493,290.918999 C250.448493,288.329483 248.385204,285.473529 245.805703,285.473529 M246.837608,301.794758 L235.480398,301.794758 L235.480398,315.525947 L246.837608,315.525947 C250.706599,315.525947 253.286101,311.382826 253.286101,308.268287 C253.286101,305.93788 251.480398,301.794758 246.837608,301.794758 M248.385204,322 L228,322 L228,279 L245.805703,279 C251.996611,279 257.678605,283.40223 257.678605,289.623979 C257.678605,295.320706 253.286101,298.169331 251.738504,298.946133 C256.904807,299.722936 260,303.607472 260,309.304199 C260,315.785056 255.091804,322 248.385204,322" id="Fill-5663" fill="#FFFFFE"></path>
            <polyline id="Fill-5664" fill="#FFFFFE" points="373.091409 295.579814 380.672801 295.579814 380.672801 279 388 279 388 322 380.672801 322 380.672801 302.312452 361.3198 302.312452 361.3198 322 354 322 354 279 361.3198 279 361.3198 295.579814 368.385937 295.579814"></polyline>
            <polyline id="Fill-5665" fill="#FFFFFE" points="173.473172 285.991747 173.473172 279 166 279 166 322 173.473172 322 173.473172 308.527396 179.407536 301.53565 191.00382 322 199 322 184.303699 296.098032 198.484285 279 190.488626 279 173.473172 299.205242"></polyline>
            <polyline id="Fill-5666" fill="#FFFFFE" points="45.2234681 294.285318 45.2234681 279 38 279 38 322 62 322 62 315.267362 45.2234681 315.267362 45.2234681 299.46435"></polyline>
            <path d="M88.6323286,278 C99.7145925,278 109,287.361114 109,300.369641 C109,313.378694 99.9724771,323 88.6323286,323 C77.0275229,323 68,313.378694 68,300.369641 C68,287.361114 77.5427711,278 88.6323286,278 M88.6323286,285.020967 C97.1373097,285.020967 101.526036,293.608866 101.526036,300.369641 C101.526036,307.390609 97.1373097,316.239224 88.6323286,316.239224 C79.8626903,316.239224 75.739142,307.390609 75.739142,300.369641 C75.739142,293.608866 79.8626903,285.020967 88.6323286,285.020967" id="Fill-5667" fill="#FFFFFE"></path>
            <path d="M135.503408,278 C146.655819,278 156,287.361114 156,300.369641 C156,313.378694 147.181668,323 135.503408,323 C124.084664,323 115,313.378694 115,300.369641 C115,287.361114 124.344181,278 135.503408,278 M135.503408,285.020967 C144.062223,285.020967 148.478728,293.608866 148.478728,300.369641 C148.478728,307.390609 144.32174,316.239224 135.503408,316.239224 C126.67826,316.239224 122.528611,307.390609 122.528611,300.369641 C122.528611,293.608866 126.937777,285.020967 135.503408,285.020967" id="Fill-5668" fill="#FFFFFE"></path>
            <path d="M290.503932,278 C301.656343,278 311,287.361114 311,300.369641 C311,313.378694 302.174853,323 290.503932,323 C278.825672,323 270,313.378694 270,300.369641 C270,287.361114 279.344181,278 290.503932,278 M290.503932,285.020967 C299.062747,285.020967 303.471389,293.608866 303.471389,300.369641 C303.471389,307.390609 299.32174,316.239224 290.503932,316.239224 C281.67826,316.239224 277.528611,307.390609 277.528611,300.369641 C277.528611,293.608866 281.937777,285.020967 290.503932,285.020967" id="Fill-5669" fill="#FFFFFE"></path>
            <polyline id="Fill-5670" fill="#FFFFFE" points="329.762748 322 333.176347 322 333.176347 285.732638 345 285.732638 345 279 314 279 314 285.732638 325.561436 285.732638 325.561436 322 328.712287 322"></polyline>
            <path d="M298.227639,346.800094 L292.563488,351.246431 C290.245886,348.892146 287.149157,346.276684 282.514994,346.276684 C277.623203,346.276684 274.53324,348.892146 274.275613,352.031017 C274.275613,356.484227 277.623203,357.268813 283.802088,358.576808 C288.179145,359.361393 291.533501,359.623098 294.622943,362.23856 C297.455279,364.592316 299,367.730659 299,371.654115 C299,375.315338 296.682918,385 283.029727,385 C272.208872,385 266.802348,378.984492 265,376.623333 L271.436512,371.915291 C274.018507,376.099924 278.910297,378.461082 282.257367,378.461082 C285.604436,378.461082 291.533501,377.146214 291.533501,371.654115 C291.533501,366.423192 285.089703,365.899783 279.167924,364.854021 C272.988519,363.807731 266.802348,360.66886 266.802348,352.292193 C266.802348,343.922928 275.048494,340 282.514994,340 C289.98878,340 295.138197,342.353757 298.227639,346.800094" id="Fill-5671" fill="#FFFFFE"></path>
            <polyline id="Fill-5672" fill="#FFFFFE" points="153.4615 341 150.085914 341 143.067573 370.96708 135.797282 341 128 341 137.874283 384 146.70298 384 154.500262 351.681012 162.030374 384 170.865895 384 181 341 173.202718 341 165.932427 370.96708 158.914086 341 155.279203 341"></polyline>
            <path d="M209.72078,369.527396 L195.549111,369.527396 L202.630969,347.768549 L209.72078,369.527396 Z M202.630969,375.74234 L193.443007,375.74234 L191.082388,383 L184,383 L197.909731,340 L207.090269,340 L221,383 L213.917612,383 L211.556993,375.74234 L202.630969,375.74234 Z" id="Fill-5673" fill="#FFFFFE"></path>
            <polyline id="Fill-5674" fill="#FFFFFE" points="244.446539 384 246.519566 384 246.519566 367.058994 260 341 251.960868 341 242.633296 359.24335 233.039132 341 225 341 238.739169 367.058994 238.739169 384 242.374037 384"></polyline>
            <path d="M214.00393,110.369577 L189.882892,128.263753 L214.00393,144.862518 L238.117108,128.263753 L214.00393,110.369577 Z M101.717317,167.682086 L101.717317,167.682086 C101.717317,165.536169 103.459523,163.793757 105.605187,163.793757 L118.313597,164.053153 C120.459261,164.053153 122.201467,165.680278 122.201467,167.682086 L122.201467,228.883973 C122.201467,230.885781 120.459261,232.512906 118.313597,232.512906 L105.605187,232.512906 C103.459523,232.512906 101.717317,230.885781 101.717317,228.883973 L101.717317,167.682086 Z M127.385643,167.682086 L127.385643,167.682086 C127.385643,165.536169 129.013099,163.793757 131.014671,163.793757 L143.723081,164.053153 C145.731465,164.053153 147.351585,165.680278 147.351585,167.682086 L147.351585,228.883973 C147.351585,230.885781 145.731465,232.512906 143.723081,232.512906 L131.014671,232.512906 C129.013099,232.512906 127.385643,230.885781 127.385643,228.883973 L127.385643,167.682086 Z M305.805868,167.682086 L305.805868,167.682086 C305.805868,165.536169 307.548074,163.793757 309.693739,163.793757 L322.402148,164.053153 C324.547812,164.053153 326.290542,165.680278 326.290542,167.682086 L326.290542,228.883973 C326.290542,230.885781 324.547812,232.512906 322.402148,232.512906 L309.693739,232.512906 C307.548074,232.512906 305.805868,230.885781 305.805868,228.883973 L305.805868,167.682086 Z M280.389049,167.682086 L280.389049,167.682086 C280.389049,165.536169 282.016505,163.793757 284.018077,163.793757 C284.104532,163.793757 284.190988,163.793757 284.277443,163.801093 L296.985853,164.059966 C298.886298,164.197263 300.355515,165.781416 300.355515,167.682086 L300.355515,228.883973 C300.355515,230.784643 298.886298,232.36932 296.985853,232.506093 L284.277443,232.506093 C284.190988,232.512906 284.104532,232.512906 284.018077,232.512906 C282.016505,232.512906 280.389049,230.885781 280.389049,228.883973 L280.389049,167.682086 Z M230.60021,188.169181 L230.60021,188.169181 C230.60021,190.315098 228.85748,192.058034 226.711816,192.058034 L201.29552,192.058034 C199.149856,192.058034 197.407126,190.315098 197.407126,188.169181 L197.407126,167.682086 C197.407126,165.536169 199.149856,163.793757 201.29552,163.793757 L226.711816,164.053153 C228.85748,164.053153 230.60021,165.680278 230.60021,167.682086 L230.60021,188.169181 Z M189.105318,188.169181 L189.105318,188.169181 C189.105318,190.315098 187.363112,192.058034 185.217448,192.058034 L159.800629,192.050698 C159.714697,192.058034 159.628242,192.058034 159.541787,192.058034 C157.540215,192.058034 155.912759,190.315098 155.912759,188.169181 L155.912759,167.682086 C155.912759,165.536169 157.540215,163.793757 159.541787,163.793757 C159.628242,163.793757 159.714697,163.793757 159.800629,163.801093 L185.217448,164.053153 C187.363112,164.053153 189.105318,165.680278 189.105318,167.682086 L189.105318,188.169181 Z M272.087241,188.169181 L272.087241,188.169181 C272.087241,190.315098 270.345035,192.058034 268.199371,192.058034 L242.789887,192.050698 C242.703432,192.058034 242.616977,192.058034 242.531045,192.058034 C240.522138,192.058034 238.894682,190.315098 238.894682,188.169181 L238.894682,167.682086 C238.894682,165.536169 240.522138,163.793757 242.531045,163.793757 C242.616977,163.793757 242.703432,163.793757 242.789887,163.801093 L268.199371,164.053153 C270.345035,164.053153 272.087241,165.680278 272.087241,167.682086 L272.087241,188.169181 Z M335.103222,188.169181 L335.103222,188.169181 C335.103222,190.315098 336.852764,192.058034 338.998428,192.058034 L351.447996,192.058034 C354.162169,192.058034 356.372806,189.739185 356.372806,186.873246 C356.372806,186.426769 356.315169,185.980292 356.207231,185.547964 L351.814776,166.616726 C351.339534,164.946107 349.813204,163.793757 348.070998,163.793757 L338.998428,163.793757 C336.852764,163.793757 335.103222,165.536169 335.103222,167.682086 L335.103222,188.169181 Z M92.8967776,188.169181 L92.8967776,188.169181 C92.8967776,190.315098 91.1545717,192.058034 89.0089075,192.058034 L76.5598638,192.050698 C76.4734084,192.058034 76.3869531,192.058034 76.3004978,192.058034 C73.5789887,192.058034 71.3756877,189.739185 71.3756877,186.873246 C71.3756877,186.426769 71.425989,185.980292 71.5339272,185.547964 L76.1925596,166.616726 C76.6678019,164.946107 78.1941315,163.793757 79.9295258,163.793757 L89.0089075,163.793757 C91.1545717,163.793757 92.8967776,165.536169 92.8967776,167.682086 L92.8967776,188.169181 Z M367,237.957091 L341.590516,237.957091 L341.590516,243.14188 L326.290542,243.14188 L326.023841,243.149216 C325.887084,248.528421 321.560126,252.855891 316.181556,252.992664 C316.095101,253 316.008646,253 315.914855,253 C310.435682,253 305.949961,248.629036 305.805868,243.149216 L305.805868,243.14188 L290.505371,243.14188 L290.239193,243.149216 C290.102436,248.528421 285.774954,252.855891 280.396385,252.992664 C280.303118,253 280.216662,253 280.130207,253 C274.650511,253 270.164789,248.629036 270.021221,243.149216 L157.727273,243.149216 C157.583181,248.629036 153.097459,253 147.610951,253 C142.131779,253 137.646057,248.629036 137.501965,243.149216 L137.501965,243.14188 L122.201467,243.14188 L121.935289,243.149216 C121.791197,248.629036 117.312811,253 111.826303,253 C106.346607,253 101.860886,248.629036 101.717317,243.149216 L101.717317,243.14188 L86.4168195,243.14188 L86.4168195,237.957091 L61,237.957091 L61,192.058034 L69.7843856,156.787427 C70.6195965,153.438852 73.6219544,151.083845 77.0780718,151.083845 L178.211423,151.083845 L181.811632,147.418754 C182.7836,146.446672 184.101389,145.899057 185.476814,145.899057 L208.812418,145.899057 L183.402934,128.263753 L207.516112,110.369577 L207.516112,102.592394 C207.516112,101.159162 208.682997,100 210.1082,100 L217.8918,100 C219.324862,100 220.483888,101.159162 220.483888,102.592394 L220.483888,110.369577 L244.604401,128.263753 L219.187582,145.899057 L242.531045,145.899057 C243.905947,145.899057 245.223736,146.446672 246.195703,147.418754 L249.788577,151.083845 L350.921928,151.083845 C354.378046,151.083845 357.387739,153.438852 358.22295,156.787427 L367,192.058034 L367,237.957091 L367,237.957091 Z" id="Fill-5675" fill="#FFFFFE"></path>
        </g>
    </g>
</svg>