<?xml version="1.0" encoding="UTF-8"?>
<svg width="420px" height="420px" viewBox="0 0 420 420" version="1.1" xmlns="http://www.w3.org/2000/svg" xmlns:xlink="http://www.w3.org/1999/xlink">
    <!-- Generator: Sketch 61.2 (89653) - https://sketch.com -->
    <title>sign-giving-order-no-left-turn</title>
    <desc>Created with Sketch.</desc>
    <g id="sign-giving-order-no-left-turn" stroke="none" stroke-width="1" fill="none" fill-rule="evenodd">
        <g id="Group-3">
            <path d="M207.55814,-1.49213975e-12 C322.130233,-1.49213975e-12 415.116279,92.9762791 415.116279,207.528837 C415.116279,322.081395 322.130233,415.057674 207.55814,415.057674 C92.9860465,415.057674 0,322.081395 0,207.528837 C0,92.9762791 92.9860465,-1.49213975e-12 207.55814,-1.49213975e-12" id="Fill-110" fill="#D0383F"></path>
            <path d="M207.55814,41.5018605 C299.215814,41.5018605 373.604651,115.88093 373.604651,207.528837 C373.604651,299.176744 299.215814,373.546047 207.55814,373.546047 C115.900465,373.546047 41.5116279,299.176744 41.5116279,207.528837 C41.5116279,115.88093 115.900465,41.5018605 207.55814,41.5018605" id="Fill-111" fill="#FFFFFE"></path>
            <path d="M232.211163,135.083721 L232.211163,135.083721 C255.125581,135.083721 273.722791,153.68093 273.722791,176.585581 L273.722791,346.128837 L232.211163,346.128837 L232.211163,190.308837 L231.859535,190.308837 C231.859535,182.73907 225.715814,176.585581 218.146047,176.585581 L89.3916279,176.585581 L62.2967442,155.839535 L89.3916279,135.083721 L232.211163,135.083721" id="Fill-112" fill="#1A1919"></path>
            <polygon id="Fill-113" fill="#D0383F" points="98.5339535 50.6637209 72.152093 73.1776744 316.992558 364.774884 343.384186 342.612558"></polygon>
        </g>
    </g>
</svg>