<?xml version="1.0" encoding="UTF-8"?>
<svg width="420px" height="420px" viewBox="0 0 420 420" version="1.1" xmlns="http://www.w3.org/2000/svg" xmlns:xlink="http://www.w3.org/1999/xlink">
    <!-- Generator: Sketch 61.2 (89653) - https://sketch.com -->
    <title>sign-giving-order-manually-go</title>
    <desc>Created with Sketch.</desc>
    <g id="sign-giving-order-manually-go" stroke="none" stroke-width="1" fill="none" fill-rule="evenodd">
        <g id="Group">
            <path d="M209.687442,-9.71625881e-13 C325.431628,-9.71625881e-13 419.374884,93.9334884 419.374884,209.667907 C419.374884,325.402326 325.431628,419.335814 209.687442,419.335814 C93.9432558,419.335814 7.35659595e-12,325.402326 7.35659595e-12,209.667907 C7.35659595e-12,93.9334884 93.9432558,-9.71625881e-13 209.687442,-9.71625881e-13" id="Fill-14" fill="#FFFFFE"></path>
            <path d="M209.687442,-9.71625881e-13 C325.431628,-9.71625881e-13 419.374884,93.9334884 419.374884,209.667907 C419.374884,325.402326 325.431628,419.335814 209.687442,419.335814 C93.9432558,419.335814 7.35659595e-12,325.402326 7.35659595e-12,209.667907 C7.35659595e-12,93.9334884 93.9432558,-9.71625881e-13 209.687442,-9.71625881e-13" id="Stroke-15" stroke="#005E3C" stroke-width="0.425"></path>
            <path d="M209.687442,10.1972093 C319.610233,10.1972093 408.816279,99.5595349 408.816279,209.667907 C408.816279,319.776279 319.610233,409.138605 209.687442,409.138605 C99.7646512,409.138605 10.5586047,319.776279 10.5586047,209.667907 C10.5586047,99.5595349 99.7646512,10.1972093 209.687442,10.1972093" id="Fill-16" fill="#005E3C"></path>
            <path d="M166.417674,238.462326 L166.417674,228.255349 L125.257674,228.255349 L125.257674,206.796279 L186.48,206.796279 L186.48,287.006512 L166.066047,287.006512 L166.066047,274.347907 C163.253023,277.864186 157.978605,290.874419 130.532093,290.874419 C97.8111628,290.874419 63.6837209,264.844186 63.6837209,216.651628 C63.6837209,168.097674 98.5144186,142.067442 131.235349,142.067442 C159.736744,142.067442 176.976279,157.900465 187.183256,171.975349 L166.769302,185.688837 C157.626977,173.030233 149.881395,164.229767 131.235349,164.229767 C112.94093,164.229767 89.372093,179.359535 89.372093,219.113023 C89.7237209,252.185581 112.589302,269.063721 131.235349,269.063721 C152.704186,269.063721 165.362791,251.472558 166.417674,238.462326" id="Fill-17" fill="#FFFFFE"></path>
            <path d="M288.149302,142.067442 C325.089767,142.067442 356.755814,172.678605 356.755814,215.948372 C356.755814,258.866512 326.857674,290.874419 288.149302,290.874419 C249.802326,290.874419 219.894419,258.866512 219.894419,215.948372 C219.894419,172.678605 251.208837,142.067442 288.149302,142.067442 M288.149302,164.581395 C317.002326,164.581395 331.077209,193.082791 331.077209,215.948372 C331.077209,238.813953 317.353953,268.712093 288.149302,268.712093 C258.954419,268.712093 245.231163,238.813953 245.231163,215.948372 C245.231163,193.082791 259.657674,164.581395 288.149302,164.581395" id="Fill-18" fill="#FFFFFE"></path>
        </g>
    </g>
</svg>