<?xml version="1.0" encoding="UTF-8"?>
<svg width="420px" height="420px" viewBox="0 0 420 420" version="1.1" xmlns="http://www.w3.org/2000/svg" xmlns:xlink="http://www.w3.org/1999/xlink">
    <!-- Generator: Sketch 61.2 (89653) - https://sketch.com -->
    <title>sign-giving-order-no-towed-caravans</title>
    <desc>Created with Sketch.</desc>
    <g id="sign-giving-order-no-towed-caravans" stroke="none" stroke-width="1" fill="none" fill-rule="evenodd">
        <g id="Group">
            <path d="M207.86939,1.39097773e-12 C322.61339,1.39097773e-12 415.739492,93.1154237 415.739492,207.840203 C415.739492,322.564983 322.61339,415.680407 207.86939,415.680407 C93.1253898,415.680407 -2.02324033e-13,322.564983 -2.02324033e-13,207.840203 C-2.02324033e-13,93.1154237 93.1253898,1.39097773e-12 207.86939,1.39097773e-12" id="Fill-22" fill="#D0383F"></path>
            <path d="M207.86939,41.564339 C299.665017,41.564339 374.165186,116.054542 374.165186,207.840203 C374.165186,299.625864 299.665017,374.106814 207.86939,374.106814 C116.074475,374.106814 41.5735932,299.625864 41.5735932,207.840203 C41.5735932,116.054542 116.074475,41.564339 207.86939,41.564339" id="Fill-23" fill="#FFFFFE"></path>
            <path d="M268.870475,199.74061 L330.175525,199.74061 L330.165559,199.720678 C331.378576,199.515661 332.288339,198.331831 332.288339,196.923051 L332.64,196.923051 L332.64,177.554644 L332.288339,177.554644 C332.288339,176.145864 331.378576,174.962746 330.165559,174.757017 L330.175525,174.737797 L268.870475,174.737797 C267.501559,174.737797 266.406,175.99922 266.406,177.554644 L266.406,196.923051 C266.406,198.478475 267.501559,199.74061 268.870475,199.74061 L268.870475,199.74061 Z M199.808949,177.554644 L199.808949,196.923051 C199.808949,198.478475 201.081051,199.74061 202.636475,199.74061 L230.113729,199.74061 C231.669153,199.74061 232.931288,198.478475 232.931288,196.923051 L232.931288,177.554644 C232.931288,175.99922 231.669153,174.737797 230.113729,174.737797 L202.636475,174.737797 C201.081051,174.737797 199.808949,175.99922 199.808949,177.554644 L199.808949,177.554644 Z M266.053627,237.440949 L266.053627,237.440949 C271.492271,237.440949 275.913661,241.852373 275.913661,247.300983 C275.913661,252.749593 271.492271,257.161729 266.053627,257.161729 C260.605017,257.161729 256.183627,252.749593 256.183627,247.300983 C256.183627,241.852373 260.605017,237.440949 266.053627,237.440949 L266.053627,237.440949 Z M266.053627,228.274983 L266.053627,228.274983 C276.354305,228.274983 284.718,236.638678 284.718,246.949322 C284.718,257.259254 276.354305,265.622949 266.053627,265.622949 C255.742983,265.622949 247.379288,257.259254 247.379288,246.949322 C247.379288,236.638678 255.742983,228.274983 266.053627,228.274983 L266.053627,228.274983 Z M105.039864,237.440949 L105.039864,237.440949 C110.488475,237.440949 114.90061,241.852373 114.90061,247.300983 C114.90061,252.749593 110.488475,257.161729 105.039864,257.161729 C99.5912542,257.161729 95.1798305,252.749593 95.1798305,247.300983 C95.1798305,241.852373 99.5912542,237.440949 105.039864,237.440949 L105.039864,237.440949 Z M105.039864,228.274983 L105.039864,228.274983 C115.350508,228.274983 123.714203,236.638678 123.714203,246.949322 C123.714203,257.259254 115.350508,265.622949 105.039864,265.622949 C94.7299322,265.622949 86.3662373,257.259254 86.3662373,246.949322 C86.3662373,236.638678 94.7299322,228.274983 105.039864,228.274983 L105.039864,228.274983 Z M68.7483051,177.202271 L90.5918644,177.202271 L115.604644,203.272169 L68.7483051,203.272169 L68.7483051,177.202271 Z M154.009017,216.653797 C154.009017,214.18861 151.896203,211.723424 149.431017,211.371763 C143.444949,210.667017 138.162203,207.850169 134.278983,203.623831 L110.674271,179.315797 C102.574678,170.853864 92.3530169,166.275864 80.7318305,166.275864 L66.9878644,166.275864 L64.8750508,168.037017 L63.8186441,170.149831 L63.8186441,172.27261 L64.8750508,175.441831 L64.522678,180.019831 L63.8186441,184.950203 L64.1703051,189.175831 L64.8750508,193.401458 L64.1703051,197.979458 L65.5790847,204.328576 L64.522678,207.497797 L64.8750508,211.01939 L64.8750508,213.836237 L65.5790847,216.653797 L64.522678,219.471356 L65.5790847,223.696983 L64.522678,229.33139 L64.1703051,231.092542 L64.522678,234.271729 L65.9314576,237.440949 L65.5790847,239.906136 L64.522678,243.075356 L64.522678,245.188169 L65.2267119,246.596949 L64.522678,249.413797 L83.9010508,249.413797 L83.9010508,247.300983 C83.9010508,235.328136 93.4094237,225.809797 105.392237,225.809797 C117.02339,225.809797 126.531051,235.328136 126.531051,247.300983 L126.531051,249.413797 L154.009017,247.300983 L245.266475,247.300983 C245.266475,235.679797 254.774847,226.162169 266.406,226.162169 C278.026475,226.162169 287.192441,235.679797 287.192441,247.300983 L337.922746,247.300983 C346.726373,247.300983 353.427153,240.257797 353.427153,231.796576 L353.427153,179.667458 C353.427153,167.332271 344.613559,156.767492 332.288339,155.007051 C332.64,155.007051 317.487966,152.541864 301.278814,151.133085 C283.30922,149.725017 264.28322,149.725017 264.28322,149.725017 C264.28322,149.725017 246.675254,150.076678 229.409695,151.485458 C212.496508,152.541864 195.583322,155.007051 195.583322,155.007051 C183.962136,156.767492 174.796169,167.332271 174.796169,179.667458 L174.796169,231.796576 C174.796169,235.328136 175.852576,238.144983 177.96539,241.314203 L154.009017,241.314203 L154.009017,216.653797 L154.009017,216.653797 Z" id="Fill-24" fill="#1A1919"></path>
        </g>
    </g>
</svg>