<?xml version="1.0" encoding="UTF-8"?>
<svg width="420px" height="420px" viewBox="0 0 420 420" version="1.1" xmlns="http://www.w3.org/2000/svg" xmlns:xlink="http://www.w3.org/1999/xlink">
    <!-- Generator: Sketch 61.2 (89653) - https://sketch.com -->
    <title>sign-giving-order-no-vehicle-width</title>
    <desc>Created with Sketch.</desc>
    <g id="sign-giving-order-no-vehicle-width" stroke="none" stroke-width="1" fill="none" fill-rule="evenodd">
        <g id="Group">
            <path d="M207.55814,-1.66564437e-12 C322.130233,-1.66564437e-12 415.116279,92.9762791 415.116279,207.528837 C415.116279,322.081395 322.130233,415.057674 207.55814,415.057674 C92.9860465,415.057674 0,322.081395 0,207.528837 C0,92.9762791 92.9860465,-1.66564437e-12 207.55814,-1.66564437e-12" id="Fill-59" fill="#D0383F"></path>
            <path d="M207.55814,41.3553488 C299.215814,41.3553488 373.604651,115.734419 373.604651,207.382326 C373.604651,299.030233 299.215814,373.399535 207.55814,373.399535 C115.900465,373.399535 41.5116279,299.030233 41.5116279,207.382326 C41.5116279,115.734419 115.900465,41.3553488 207.55814,41.3553488" id="Fill-60" fill="#FFFFFE"></path>
            <polygon id="Fill-61" fill="#1A1919" points="360.242791 248.98186 307.47907 218.732093 360.242791 188.130698"></polygon>
            <polygon id="Fill-62" fill="#1A1919" points="55.2446512 188.130698 55.2446512 248.98186 108.36 218.732093"></polygon>
            <path d="M341.948372,174.417209 L329.641395,174.417209 L329.641395,147.683721 C329.641395,144.51907 327.883256,141.002791 325.070233,140.299535 L324.718605,140.299535 L323.663721,140.299535 C320.489302,140.299535 316.973023,143.112558 315.91814,146.277209 L315.91814,147.683721 L315.91814,174.417209 L303.611163,174.417209 L303.611163,148.035349 L303.611163,147.683721 C303.611163,144.51907 302.204651,141.002791 299.030233,140.299535 C297.623721,139.947907 298.326977,140.299535 297.623721,140.299535 C294.45907,140.299535 290.942791,143.112558 289.887907,146.277209 L289.887907,147.683721 L289.887907,174.417209 L277.922791,174.417209 L277.922791,130.092558 L289.887907,130.092558 L289.887907,133.257209 C293.052558,130.444186 296.568837,129.037674 301.149767,129.037674 L302.204651,129.037674 C303.259535,129.037674 303.962791,129.037674 305.017674,129.389302 C305.369302,129.389302 305.72093,129.389302 306.424186,129.74093 C308.885581,130.795814 310.995349,132.553953 312.050233,135.025116 C313.105116,133.257209 314.863256,131.850698 316.621395,131.147442 C319.082791,129.74093 321.895814,129.037674 324.718605,129.037674 L325.773488,129.037674 C331.399535,129.389302 336.673953,133.257209 339.486977,137.83814 C341.245116,141.354419 341.948372,143.815814 341.948372,147.683721 L341.948372,174.417209 Z M204.051628,167.384651 C213.545581,178.285116 232.894884,178.636744 242.750233,167.384651 C248.024651,159.63907 249.431163,152.254884 249.431163,143.112558 C249.431163,134.673488 247.673023,125.873023 242.750233,119.192093 C233.246512,107.94 213.545581,107.94 204.051628,119.192093 C198.777209,125.873023 197.01907,134.673488 197.01907,143.112558 C197.01907,152.254884 198.425581,159.63907 204.051628,167.384651 L204.051628,167.384651 Z M167.814419,168.791163 C167.814419,173.362326 171.682326,177.230233 176.263256,177.230233 C180.834419,177.230233 184.702326,173.362326 184.702326,168.791163 C184.702326,164.22 180.834419,160.342326 176.263256,160.342326 C171.682326,160.342326 167.814419,164.22 167.814419,168.791163 L167.814419,168.791163 Z M136.509767,118.137209 C135.454884,114.62093 132.993488,112.159535 129.81907,110.753023 C127.357674,109.69814 126.654419,109.69814 123.841395,109.69814 C121.38,109.69814 120.676744,109.69814 118.215349,110.753023 C115.753953,111.456279 113.644186,113.566047 112.237674,116.027442 C110.831163,119.543721 110.127907,121.653488 110.127907,125.521395 L110.127907,126.224651 L94.2948837,126.224651 L94.2948837,122.005116 C94.2948837,113.214419 98.5144186,104.775349 105.546977,99.4911628 C111.182791,95.6232558 117.512093,94.92 124.193023,94.92 C124.193023,94.92 126.302791,94.92 128.764186,95.2716279 C130.883721,95.6232558 132.993488,95.9748837 132.993488,95.9748837 C146.003721,98.0846512 152.694419,110.049767 152.694419,122.005116 C152.694419,127.631163 151.629767,132.905581 148.816744,137.486512 C144.948837,144.51907 146.003721,143.112558 140.377674,148.386977 L123.841395,159.990698 L151.27814,159.990698 L151.27814,174.417209 L96.4046512,174.417209 L96.4046512,159.990698 L105.898605,154.013023 L125.599535,140.299535 C132.993488,133.257209 134.751628,130.092558 134.751628,130.092558 C136.15814,127.631163 136.861395,124.81814 136.861395,122.005116 C136.861395,120.598605 136.861395,119.192093 136.509767,118.137209 L136.509767,118.137209 Z M210.732558,150.848372 C211.084186,152.606512 211.435814,154.716279 212.13907,156.826047 C213.897209,161.045581 218.47814,164.22 223.40093,164.22 C231.136744,163.506977 235.004651,157.88093 236.059535,150.848372 C236.059535,148.386977 236.059535,145.925581 236.411163,143.112558 C236.411163,140.651163 236.411163,138.189767 236.059535,135.376744 C235.707907,133.608837 235.004651,131.49907 234.301395,129.74093 C232.543256,124.81814 228.323721,122.356744 223.40093,122.356744 C218.47814,122.356744 213.897209,125.169767 212.13907,129.74093 C211.435814,131.49907 211.084186,133.608837 210.732558,135.376744 C210.732558,137.83814 210.38093,140.299535 210.029302,143.112558 C210.029302,145.573953 210.38093,148.035349 210.732558,150.848372 L210.732558,150.848372 Z" id="Fill-63" fill="#1A1919"></path>
            <path d="M180.131163,264.111628 L193.493023,264.111628 L203.348372,246.872093 L189.976744,246.872093 L180.131163,264.111628 Z M187.866977,282.747907 L208.974419,282.747907 L208.974419,272.19907 L187.866977,272.19907 L187.866977,282.747907 Z M276.164651,264.111628 L289.536279,264.111628 L299.38186,246.872093 L286.02,246.872093 L276.164651,264.111628 Z M294.107442,264.111628 L307.127442,264.111628 L316.973023,246.872093 L303.962791,246.872093 L294.107442,264.111628 Z M147.058605,249.685116 C139.322791,250.388372 132.290233,254.607907 129.115814,261.650233 C128.764186,263.056744 128.06093,264.463256 127.357674,266.221395 C125.951163,271.144186 125.247907,276.066977 125.247907,280.989767 C125.247907,289.086977 126.654419,298.932558 131.586977,305.613488 C136.15814,311.591163 142.83907,313.70093 150.223256,313.70093 C163.946512,313.70093 172.033953,303.855349 172.033953,291.196744 C172.033953,287.328837 170.97907,282.747907 169.22093,279.231628 C165.704651,273.605581 160.078605,270.44093 153.749302,270.089302 L151.981395,270.089302 C146.706977,270.089302 142.135814,271.495814 137.916279,274.660465 C137.916279,274.660465 135.806512,268.682791 143.542326,262.705116 C145.300465,261.650233 147.410233,260.946977 149.52,260.946977 C151.629767,260.946977 152.333023,261.298605 154.10093,262.00186 C156.562326,262.705116 158.320465,264.814884 158.672093,267.276279 L170.627442,263.056744 C169.22093,257.07907 164.649767,252.849767 159.023721,251.091628 C155.155814,249.685116 150.926512,249.333488 147.058605,249.685116 L147.058605,249.685116 Z M149.52,280.989767 C143.542326,280.989767 138.971163,285.922326 138.971163,291.548372 C138.971163,297.877674 143.542326,301.745581 149.52,302.448837 C155.507442,302.448837 159.023721,297.174419 159.023721,291.548372 C159.023721,286.264186 155.507442,280.989767 149.52,280.989767 L149.52,280.989767 Z M243.10186,250.036744 C235.707907,250.388372 228.675349,254.607907 225.15907,261.650233 C224.807442,263.056744 224.104186,264.463256 223.40093,266.221395 C221.994419,271.144186 221.642791,276.066977 221.642791,280.989767 C221.642791,289.086977 222.697674,298.932558 227.620465,305.613488 C232.543256,311.591163 239.233953,313.70093 246.61814,313.70093 C260.341395,313.70093 268.077209,303.855349 268.077209,291.548372 C268.077209,287.328837 267.373953,282.747907 265.615814,279.231628 C262.099535,273.605581 256.112093,270.44093 249.782791,270.089302 L248.376279,270.089302 C242.750233,270.089302 238.530698,271.495814 234.301395,274.660465 C234.301395,274.660465 232.191628,268.682791 239.937209,262.705116 C241.695349,261.650233 243.805116,260.946977 245.914884,260.946977 C247.673023,260.946977 248.727907,261.298605 250.486047,262.00186 C252.947442,262.705116 254.705581,264.814884 255.057209,267.276279 L266.670698,263.056744 C265.264186,257.07907 261.044651,252.849767 255.408837,251.091628 C251.54093,249.685116 247.321395,249.685116 243.10186,250.036744 L243.10186,250.036744 Z M245.914884,280.989767 C239.585581,280.989767 235.356279,285.922326 235.356279,291.9 C235.356279,297.877674 239.585581,302.097209 245.914884,302.448837 C251.54093,302.448837 255.408837,297.174419 255.408837,291.9 C255.408837,286.264186 251.54093,280.989767 245.914884,280.989767 L245.914884,280.989767 Z" id="Fill-64" fill="#1A1919"></path>
        </g>
    </g>
</svg>