<?xml version="1.0" encoding="UTF-8"?>
<svg width="420px" height="420px" viewBox="0 0 420 420" version="1.1" xmlns="http://www.w3.org/2000/svg" xmlns:xlink="http://www.w3.org/1999/xlink">
    <!-- Generator: Sketch 61.2 (89653) - https://sketch.com -->
    <title>sign-giving-order-no-buses</title>
    <desc>Created with Sketch.</desc>
    <g id="sign-giving-order-no-buses" stroke="none" stroke-width="1" fill="none" fill-rule="evenodd">
        <g id="Group">
            <path d="M207.55814,-1.66564437e-12 C322.130233,-1.66564437e-12 415.116279,92.9762791 415.116279,207.528837 C415.116279,322.081395 322.130233,415.057674 207.55814,415.057674 C92.9860465,415.057674 0,322.081395 0,207.528837 C0,92.9762791 92.9860465,-1.66564437e-12 207.55814,-1.66564437e-12" id="Fill-7" fill="#D0383F"></path>
            <path d="M207.55814,41.3553488 C299.215814,41.3553488 373.604651,115.734419 373.604651,207.382326 C373.604651,299.030233 299.215814,373.399535 207.55814,373.399535 C115.900465,373.399535 41.5116279,299.030233 41.5116279,207.382326 C41.5116279,115.734419 115.900465,41.3553488 207.55814,41.3553488" id="Fill-8" fill="#FFFFFE"></path>
            <path d="M76.7037209,243.004186 L77.0553488,243.346047 C76.9381395,243.355814 76.8209302,243.355814 76.7037209,243.355814 C73.0116279,243.355814 70.0227907,240.366977 70.0227907,236.674884 L70.0227907,207.48 C70.0227907,205.536279 71.5953488,203.963721 73.5390698,203.963721 L75.3069767,165.97814 C75.4730233,164.18093 76.8306977,162.813488 78.4618605,162.813488 L328.234884,162.813488 C337.416279,163.008837 344.771163,170.666512 344.771163,180.043256 L345.122791,221.203256 L345.122791,231.752093 L286.02,243.707442 C286.371628,241.949302 286.723256,240.191163 286.723256,238.433023 C286.723256,228.93907 278.977674,221.203256 269.483721,221.203256 C259.989767,221.203256 252.244186,228.93907 252.244186,238.433023 C252.244186,240.191163 252.595814,241.949302 253.29907,243.707442 L148.465116,243.707442 C148.816744,241.949302 149.168372,240.191163 149.168372,238.433023 C149.168372,228.93907 141.432558,221.203256 131.938605,221.203256 C122.434884,221.203256 114.69907,228.93907 114.69907,238.433023 C114.69907,240.191163 115.050698,241.949302 115.402326,243.707442 L76.7037209,243.004186 Z M104.492093,180.043256 L104.492093,180.043256 C104.492093,178.099535 102.919535,176.526977 100.975814,176.526977 L90.7688372,176.546512 C90.6516279,176.536744 90.5344186,176.526977 90.4269767,176.526977 C88.6786047,176.526977 87.2525581,178.099535 87.2525581,180.043256 L87.272093,229.984186 C87.4576744,231.595814 88.8055814,232.806977 90.4269767,232.806977 C90.5344186,232.806977 90.6516279,232.797209 90.7688372,232.787442 L100.975814,232.806977 C102.773023,232.806977 104.277209,231.595814 104.472558,229.984186 L104.492093,180.043256 Z M119.973488,200.79907 L119.973488,200.79907 C118.029767,200.79907 116.457209,199.226512 116.457209,197.282791 L116.457209,180.043256 C116.457209,178.099535 118.029767,176.526977 119.973488,176.526977 L161.133488,176.526977 C163.077209,176.526977 164.649767,178.099535 164.649767,180.043256 L164.649767,197.282791 C164.649767,199.226512 163.077209,200.79907 161.133488,200.79907 L119.973488,200.79907 Z M176.614884,200.79907 L176.614884,200.79907 C174.671163,200.79907 173.088837,199.226512 173.088837,197.282791 L173.088837,180.043256 C173.088837,178.099535 174.671163,176.526977 176.614884,176.526977 L218.116744,176.546512 C219.718605,176.74186 220.939535,178.255814 220.939535,180.043256 L220.939535,197.282791 C220.939535,199.070233 219.718605,200.584186 218.116744,200.779535 L176.614884,200.79907 Z M233.246512,200.447442 L233.59814,200.779535 C233.48093,200.789302 233.363721,200.79907 233.246512,200.79907 C231.49814,200.79907 230.08186,199.226512 230.08186,197.282791 L230.08186,180.043256 C230.08186,178.099535 231.49814,176.526977 233.246512,176.526977 C233.363721,176.526977 233.48093,176.536744 233.59814,176.546512 L274.75814,176.526977 C276.70186,176.526977 278.274419,178.099535 278.274419,180.043256 L278.274419,197.282791 C278.274419,199.226512 276.70186,200.79907 274.75814,200.79907 L233.246512,200.447442 Z M290.239535,200.79907 L290.239535,200.79907 C288.295814,200.79907 286.723256,199.226512 286.723256,197.282791 L286.723256,180.043256 C286.723256,178.099535 288.295814,176.526977 290.239535,176.526977 L324.718605,176.536744 C330.207907,176.722326 334.564186,181.234884 334.564186,186.733953 C334.564186,186.851163 334.564186,186.968372 334.554419,187.085581 L334.564186,197.282791 C334.564186,199.226512 333.147907,200.79907 331.399535,200.79907 L290.239535,200.79907 Z" id="Fill-9" fill="#1A1919"></path>
            <path d="M131.938605,231.752093 L131.938605,231.752093 C135.62093,231.752093 138.619535,234.750698 138.619535,238.433023 C138.619535,242.125116 135.62093,245.113953 131.938605,245.113953 C128.246512,245.113953 125.247907,242.125116 125.247907,238.433023 C125.247907,234.750698 128.246512,231.752093 131.938605,231.752093 M131.938605,224.719535 L131.938605,224.719535 C139.508372,224.719535 145.652093,230.863256 145.652093,238.433023 C145.652093,246.002791 139.508372,252.156279 131.938605,252.156279 C124.35907,252.156279 118.215349,246.002791 118.215349,238.433023 C118.215349,230.863256 124.35907,224.719535 131.938605,224.719535" id="Fill-10" fill="#1A1919"></path>
            <path d="M269.483721,231.752093 L269.483721,231.752093 C273.175814,231.752093 276.164651,234.750698 276.164651,238.433023 C276.164651,242.125116 273.175814,245.113953 269.483721,245.113953 C265.791628,245.113953 262.802791,242.125116 262.802791,238.433023 C262.802791,234.750698 265.791628,231.752093 269.483721,231.752093 M269.483721,224.719535 L269.483721,224.719535 C277.053488,224.719535 283.206977,230.863256 283.206977,238.433023 C283.206977,246.002791 277.053488,252.156279 269.483721,252.156279 C261.913953,252.156279 255.760465,246.002791 255.760465,238.433023 C255.760465,230.863256 261.913953,224.719535 269.483721,224.719535" id="Fill-11" fill="#1A1919"></path>
        </g>
    </g>
</svg>