<?xml version="1.0" encoding="UTF-8"?>
<svg width="420px" height="420px" viewBox="0 0 420 420" version="1.1" xmlns="http://www.w3.org/2000/svg" xmlns:xlink="http://www.w3.org/1999/xlink">
    <!-- Generator: Sketch 61.2 (89653) - https://sketch.com -->
    <title>sign-giving-order-no-cycling</title>
    <desc>Created with Sketch.</desc>
    <g id="sign-giving-order-no-cycling" stroke="none" stroke-width="1" fill="none" fill-rule="evenodd">
        <g id="Group">
            <path d="M207.55814,-1.66564437e-12 C322.130233,-1.66564437e-12 415.116279,92.9762791 415.116279,207.528837 C415.116279,322.081395 322.130233,415.057674 207.55814,415.057674 C92.9860465,415.057674 0,322.081395 0,207.528837 C0,92.9762791 92.9860465,-1.66564437e-12 207.55814,-1.66564437e-12" id="Fill-123" fill="#D0383F"></path>
            <path d="M207.55814,41.3553488 C299.215814,41.3553488 373.604651,115.734419 373.604651,207.382326 C373.604651,299.030233 299.215814,373.399535 207.55814,373.399535 C115.900465,373.399535 41.5116279,299.030233 41.5116279,207.382326 C41.5116279,115.734419 115.900465,41.3553488 207.55814,41.3553488" id="Fill-124" fill="#FFFFFE"></path>
            <path d="M134.790698,194.469767 C139.02,180.394884 143.239535,166.329767 147.45907,152.254884 L147.45907,151.551628 C147.45907,151.2 147.107442,150.496744 146.404186,150.145116 L146.052558,150.145116 C141.129767,148.035349 137.955349,143.112558 137.955349,137.83814 C137.955349,130.444186 143.942791,124.466512 150.975349,124.466512 L156.249767,124.466512 L174.544186,124.466512 L174.544186,137.83814 L157.656279,137.83814 L154.491628,137.83814 C153.788372,137.83814 152.733488,138.541395 152.733488,139.596279 C152.733488,139.947907 153.085116,140.651163 153.436744,141.002791 L153.788372,141.002791 C158.007907,143.464186 160.830698,146.277209 160.830698,151.2 C160.830698,153.309767 160.47907,154.013023 160.127442,155.771163 C159.775814,157.177674 158.007907,162.803721 158.007907,162.803721 C188.267442,162.803721 218.517209,162.803721 248.776744,162.452093 C250.534884,158.232558 252.293023,154.013023 254.051163,149.44186 C247.370233,147.683721 240.679535,145.925581 233.646977,144.167442 C232.240465,143.815814 231.185581,142.409302 231.185581,141.002791 C231.185581,139.244651 232.592093,137.83814 234.70186,137.83814 L281.136279,137.83814 C281.136279,145.222326 275.158605,151.2 267.774419,151.2 C266.367907,155.067907 264.951628,158.935814 263.193488,162.803721 C268.829302,173.362326 274.455349,183.911163 280.433023,194.821395 L280.433023,194.469767 C286.410698,192.350233 292.749767,190.943721 299.07907,190.943721 C326.515814,190.943721 349.029767,213.457674 349.029767,240.894419 C349.029767,268.331163 326.515814,290.493488 299.07907,290.493488 C273.400465,290.493488 251.941395,271.144186 249.48,245.817209 L243.492558,245.817209 C242.437674,250.74 239.624651,254.607907 235.405116,257.430698 C236.811628,260.595349 238.569767,263.76 240.327907,267.276279 L248.425116,267.276279 L248.425116,273.957209 L243.14093,273.957209 C242.086047,275.012093 240.679535,275.715349 239.273023,275.715349 C237.866512,275.715349 236.46,275.012093 235.405116,273.957209 L228.372558,273.957209 L228.372558,267.276279 L235.053488,267.276279 C233.646977,264.814884 232.240465,262.353488 230.833953,259.540465 C228.02093,260.595349 227.317674,260.595349 224.153023,260.595349 C213.242791,260.595349 204.452093,251.794884 204.452093,240.894419 C204.452093,238.784651 204.803721,237.026512 205.155349,234.916744 L205.155349,234.565116 C186.157674,221.545116 167.16,208.534884 148.162326,195.524651 C147.810698,197.282791 147.45907,199.04093 146.755814,201.150698 L146.755814,201.502326 C159.062791,210.996279 166.105116,225.071163 166.105116,240.894419 C166.105116,268.331163 143.591163,290.493488 116.144651,290.493488 C88.707907,290.493488 66.5455814,268.331163 66.5455814,240.894419 C66.5455814,213.457674 88.707907,190.943721 116.144651,190.943721 C124.24186,190.943721 127.054884,191.646977 134.43907,194.469767 L134.790698,194.469767 Z M211.133023,240.894419 C211.133023,247.926977 217.110698,253.904651 224.153023,253.904651 C231.537209,253.904651 237.514884,247.926977 237.514884,240.894419 C237.514884,233.510233 231.537209,227.532558 224.153023,227.532558 C217.110698,227.532558 211.133023,233.510233 211.133023,240.894419 L211.133023,240.894419 Z M141.833023,217.325581 C141.129767,220.138605 140.426512,222.951628 139.371628,226.126047 C136.197209,235.268372 126.703256,243.004186 117.209302,245.817209 L116.144651,245.817209 C113.683256,245.817209 111.22186,243.355814 111.22186,240.894419 C111.22186,239.136279 111.925116,237.729767 113.331628,236.674884 C113.331628,236.674884 113.683256,236.674884 114.034884,236.323256 C119.670698,232.455349 124.593488,227.884186 126.351628,222.248372 C127.75814,218.028837 129.164651,213.457674 130.571163,208.886512 L130.219535,208.886512 C126,206.776744 121.428837,205.72186 116.144651,205.72186 C97.1567442,205.72186 81.3237209,221.545116 81.3237209,240.894419 C81.3237209,259.892093 97.1567442,275.715349 116.144651,275.715349 C135.493953,275.715349 150.975349,259.892093 150.975349,240.894419 C150.975349,231.752093 147.810698,223.654884 142.184651,217.325581 L141.833023,217.325581 Z M237.514884,225.774419 C244.195814,209.589767 250.886512,193.053488 257.567442,176.526977 C261.435349,184.262791 265.654884,192.350233 269.884186,200.447442 C257.91907,208.886512 250.886512,221.193488 249.48,235.62 L249.48,235.971628 L243.492558,235.971628 C242.437674,231.752093 240.679535,228.93907 237.866512,226.126047 L237.514884,225.774419 Z M276.916744,213.809302 C269.884186,219.435349 266.006512,226.829302 264.6,235.62 L264.6,235.971628 L288.88186,235.971628 C285.004186,228.587442 281.136279,221.193488 276.916744,213.457674 L276.916744,213.809302 Z M303.650233,238.784651 C304.00186,239.487907 304.00186,240.191163 304.00186,240.894419 C304.00186,243.355814 301.892093,245.817209 299.07907,245.817209 L264.6,245.817209 L264.6,246.168837 C267.071163,263.056744 281.839535,275.715349 299.07907,275.715349 C318.428372,275.715349 333.909767,259.892093 333.909767,240.894419 C333.909767,221.545116 318.428372,205.72186 299.07907,205.72186 C295.211163,205.72186 290.991628,206.776744 287.475349,207.831628 C292.749767,218.028837 298.024186,228.235814 303.650233,238.784651 L303.650233,238.784651 Z M213.242791,224.35814 C211.836279,221.193488 210.07814,217.677209 208.32,214.16093 L200.222791,214.16093 L200.222791,207.48 L205.506977,207.48 L205.858605,207.48 C206.56186,206.425116 207.968372,205.72186 209.374884,205.72186 C210.781395,205.72186 212.187907,206.425116 212.891163,207.48 L219.923721,207.48 L219.923721,214.16093 L213.946047,214.16093 C215.00093,216.622326 216.407442,219.083721 217.813953,221.896744 L218.165581,221.896744 C219.923721,221.193488 222.033488,220.84186 224.153023,220.84186 L225.207907,220.84186 C231.537209,205.370233 237.866512,189.888837 244.195814,174.417209 L154.491628,174.417209 C153.788372,177.58186 152.733488,180.746512 151.678605,183.911163 C171.731163,197.634419 191.783721,211.347907 211.836279,225.071163 C212.187907,225.071163 212.539535,224.709767 213.242791,224.35814 L213.242791,224.35814 Z" id="Fill-125" fill="#1A1919"></path>
        </g>
    </g>
</svg>