<?xml version="1.0" encoding="UTF-8"?>
<svg width="256px" height="420px" viewBox="0 0 256 420" version="1.1" xmlns="http://www.w3.org/2000/svg" xmlns:xlink="http://www.w3.org/1999/xlink">
    <!-- Generator: Sketch 61.2 (89653) - https://sketch.com -->
    <title>sign-giving-order-trams-only</title>
    <desc>Created with Sketch.</desc>
    <g id="sign-giving-order-trams-only" stroke="none" stroke-width="1" fill="none" fill-rule="evenodd">
        <g id="post" transform="translate(112.000000, 169.000000)">
            <rect id="Rectangle" fill="#C5C5C5" fill-rule="evenodd" x="0" y="0" width="33" height="316"></rect>
            <path id="Rectangle" d="M34,-1 L34,317 L-1,317 L-1,-1 L34,-1 Z M32,1 L1,1 L1,315 L32,315 L32,1 Z" fill="#000000" fill-rule="nonzero"></path>
        </g>
        <g id="Group-2">
            <path d="M127.989586,0 C198.63821,0 255.978739,57.3288136 255.978739,127.971797 C255.978739,198.614346 198.63821,255.943159 127.989586,255.943159 C57.3405288,255.943159 3.08303289e-14,198.614346 3.08303289e-14,127.971797 C3.08303289e-14,57.3288136 57.3405288,0 127.989586,0" id="Fill-16" fill="#FFFFFE"></path>
            <path d="M127.989373,0.00100178441 C198.638114,0.00100178441 255.978729,57.3296916 255.978729,127.97247 C255.978729,198.615249 198.638114,255.943939 127.989373,255.943939 C57.340632,255.943939 1.73212203e-05,198.615249 1.73212203e-05,127.97247 C1.73212203e-05,57.3296916 57.340632,0.00100178441 127.989373,0.00100178441" id="Stroke-18" stroke="#0070AC" stroke-width="0.425"></path>
            <path d="M127.989586,6.43948475 C195.203905,6.43948475 249.747959,60.8885153 249.747959,127.971797 C249.747959,195.055078 195.203905,249.503675 127.989586,249.503675 C60.7752678,249.503675 6.23077966,195.055078 6.23077966,127.971797 C6.23077966,60.8885153 60.7752678,6.43948475 127.989586,6.43948475" id="Fill-19" fill="#0070AC"></path>
            <path d="M128.406997,64.418278 L111.443742,76.8676881 L128.406997,88.4644881 L145.161112,76.8676881 L128.406997,64.418278 Z M50.4541288,104.354712 L50.2514983,104.354712 C50.2454237,104.283119 50.2393492,104.211525 50.2393492,104.139932 C50.2393492,102.71501 51.396122,101.564312 52.8210441,101.564312 C52.8926373,101.564312 52.9642305,101.564312 53.0358237,101.569953 L61.8365831,101.778658 C63.2615051,101.778658 64.4122034,102.929356 64.4122034,104.354712 L64.4122034,146.866766 C64.4122034,148.291688 63.2615051,149.442386 61.8365831,149.442386 L53.0358237,149.436312 C52.9642305,149.442386 52.8926373,149.442386 52.8210441,149.442386 C51.396122,149.442386 50.2393492,148.291688 50.2393492,146.866766 L50.4541288,104.354712 Z M68.2817085,104.354712 L68.0730034,104.354712 C68.0669288,104.283119 68.0669288,104.211525 68.0669288,104.139932 C68.0669288,102.71501 69.218061,101.564312 70.6429831,101.564312 L79.6641627,101.784732 C80.9997017,101.89798 82.0250034,103.013098 82.0250034,104.354712 L82.0250034,146.866766 C82.0250034,148.207946 80.9997017,149.323064 79.6641627,149.436312 L70.6429831,149.442386 C69.218061,149.442386 68.0669288,148.291688 68.0669288,146.866766 L68.2817085,104.354712 Z M192.401356,104.354712 L192.198725,104.354712 C192.193085,104.283119 192.18701,104.211525 192.18701,104.139932 C192.18701,102.71501 193.343783,101.564312 194.762631,101.564312 C194.840298,101.564312 194.911892,101.564312 194.983485,101.569953 L203.78381,101.784732 C205.119349,101.89798 206.145085,103.013098 206.145085,104.354712 L206.145085,146.866766 C206.145085,148.207946 205.119349,149.323064 203.78381,149.436312 L194.983485,149.436312 C194.911892,149.442386 194.840298,149.442386 194.762631,149.442386 C193.343783,149.442386 192.18701,148.291688 192.18701,146.866766 L192.401356,104.354712 Z M174.794631,104.354712 L174.585925,104.354712 C174.579851,104.283119 174.579851,104.211525 174.579851,104.139932 C174.579851,102.71501 175.736624,101.564312 177.155471,101.564312 L185.962305,101.778658 C187.381153,101.778658 188.537925,102.929356 188.537925,104.354712 L188.537925,146.866766 C188.537925,148.291688 187.381153,149.442386 185.962305,149.442386 L177.155471,149.442386 C175.736624,149.442386 174.579851,148.291688 174.579851,146.866766 L174.794631,104.354712 Z M139.574671,118.527132 L139.783376,118.527132 C139.669695,119.862671 138.55501,120.888407 137.213397,120.888407 L119.606237,121.091037 C119.534644,121.097112 119.463051,121.103186 119.391892,121.103186 C117.966536,121.103186 116.809763,119.946414 116.809763,118.527132 L116.821912,104.354712 C116.815837,104.283119 116.809763,104.211525 116.809763,104.139932 C116.809763,102.71501 117.966536,101.564312 119.391892,101.564312 C119.463051,101.564312 119.534644,101.564312 119.606237,101.569953 L137.213397,101.778658 C138.638319,101.778658 139.789017,102.929356 139.789017,104.354712 L139.574671,118.527132 Z M110.585058,118.527132 L110.787688,118.527132 C110.68659,119.779363 109.690793,120.775159 108.438563,120.876258 L90.6109831,121.103186 C89.1921356,121.103186 88.0353627,119.946414 88.0353627,118.527132 L88.047078,104.354712 C88.0414373,104.283119 88.0353627,104.211525 88.0353627,104.139932 C88.0353627,102.71501 89.1921356,101.564312 90.6109831,101.564312 L108.438563,101.784732 C109.774102,101.89798 110.799837,103.013098 110.799837,104.354712 L110.585058,118.527132 Z M168.349071,118.527132 L168.557776,118.527132 C168.444529,119.862671 167.32941,120.888407 165.988231,120.888407 L148.381071,121.091037 C148.309478,121.097112 148.237885,121.103186 148.166292,121.103186 C146.741369,121.103186 145.590671,119.946414 145.590671,118.527132 L145.596746,104.354712 C145.590671,104.283119 145.590671,104.211525 145.590671,104.139932 C145.590671,102.71501 146.741369,101.564312 148.166292,101.564312 C148.237885,101.564312 148.309478,101.564312 148.381071,101.569953 L165.988231,101.778658 C167.413153,101.778658 168.563851,102.929356 168.563851,104.354712 L168.349071,118.527132 Z M212.80499,118.527132 L212.596285,118.527132 C212.709532,119.862671 213.824651,120.888407 215.166264,120.888407 C215.237858,120.888407 215.309017,120.882332 215.38061,120.876258 L223.972664,120.888407 C225.8688,120.888407 227.406969,119.350237 227.406969,117.454102 C227.406969,117.239322 227.38918,117.030617 227.347525,116.821912 L224.109776,103.513817 C223.823403,102.369193 222.792027,101.564312 221.61139,101.564312 L215.38061,101.569953 C215.309017,101.564312 215.237858,101.564312 215.166264,101.564312 C213.740908,101.564312 212.59021,102.71501 212.59021,104.139932 C212.59021,104.211525 212.59021,104.283119 212.596285,104.354712 L212.80499,118.527132 Z M43.7998644,118.527132 L44.0029288,118.527132 C43.895322,119.862671 42.7745627,120.888407 41.4390237,120.888407 L32.8469695,120.882332 C32.7753763,120.882332 32.7037831,120.888407 32.6326237,120.888407 C30.7364881,120.888407 29.1978847,119.350237 29.1978847,117.454102 C29.1978847,117.239322 29.2161085,117.030617 29.2577627,116.821912 L32.4955119,103.513817 C32.7814508,102.369193 33.8128271,101.564312 34.9934644,101.564312 C35.0650576,101.564312 35.1366508,101.564312 35.2082441,101.569953 L41.4390237,101.564312 C42.8578712,101.564312 44.0146441,102.71501 44.0146441,104.139932 C44.0146441,104.211525 44.0085695,104.283119 44.0029288,104.354712 L43.7998644,118.527132 Z M234.71078,153.091471 L217.09798,153.091471 L217.09798,156.531851 L206.359431,156.531851 C206.359431,160.44301 203.187634,163.615241 199.276041,163.615241 C195.364881,163.615241 192.18701,160.44301 192.18701,156.531851 L181.663241,156.531851 C181.663241,160.44301 178.491444,163.615241 174.579851,163.615241 C170.668692,163.615241 167.490386,160.44301 167.490386,156.531851 L89.3231729,156.531851 C89.3231729,160.44301 86.1513763,163.615241 82.2397831,163.615241 C78.3286237,163.615241 75.1503186,160.44301 75.1503186,156.531851 L64.4122034,156.531851 C64.4122034,160.44301 61.2399729,163.615241 57.3288136,163.615241 C53.4176542,163.615241 50.2393492,160.44301 50.2393492,156.531851 L39.7160136,156.531851 L39.7160136,153.091471 L21.8940746,153.091471 L21.8940746,121.103186 L28.113139,96.6213424 C28.7570441,94.331661 30.7720678,92.757478 33.0617492,92.757478 C33.1333424,92.757478 33.2049356,92.757478 33.2765288,92.7635525 L85.8888678,92.757478 L103.496027,92.757478 L106.006129,90.3311186 C106.650034,89.6867797 107.526508,89.3231729 108.438563,89.3231729 C108.510156,89.3231729 108.581749,89.3231729 108.653342,89.3292475 L110.585058,89.3231729 L124.757912,89.3231729 L107.150753,76.8676881 L123.899227,64.418278 L123.899227,59.0461831 C123.899227,58.0981153 124.668529,57.3288136 125.616597,57.3288136 L130.988692,57.3288136 C131.936759,57.3288136 132.705627,58.0981153 132.705627,59.0461831 L132.705627,64.418278 L149.668881,76.8676881 L131.847376,89.3231729 L148.166292,89.3231729 C149.126075,89.3231729 150.050278,89.7288678 150.700258,90.4382915 L153.103186,92.757478 L223.543105,92.757478 C225.928244,92.757478 228.02701,94.331661 228.69478,96.6213424 L234.71078,121.103186 L234.71078,153.091471 L234.71078,153.091471 Z" id="Fill-20" fill="#FFFFFE"></path>
            <path d="M128.085044,270.116014 L65.1632814,270.116014 C54.6694508,270.116014 46.161139,278.624325 46.161139,289.118156 L46.161139,346.23219 C46.161139,356.72602 54.6694508,365.234332 65.1632814,365.234332 L191.006373,365.234332 C201.506278,365.234332 210.01459,356.72602 210.01459,346.23219 L210.01459,289.118156 C210.01459,278.624325 201.506278,270.116014 191.006373,270.116014 L128.085044,270.116014" id="Fill-21" fill="#1A1919"></path>
            <path d="M128.085044,279.560244 L65.378061,279.560244 C60.1014237,279.560244 55.8262237,283.841519 55.8262237,289.118156 L55.8262237,346.23219 C55.8262237,351.508827 60.1014237,355.784027 65.378061,355.784027 L190.791593,355.784027 C196.068664,355.784027 200.349505,351.508827 200.349505,346.23219 L200.349505,289.118156 C200.349505,283.841519 196.068664,279.560244 190.791593,279.560244 L128.085044,279.560244" id="Fill-22" fill="#FFFFFE"></path>
            <path d="M91.6844475,304.471214 C86.7475525,304.471214 82.2397831,308.120298 82.2397831,316.062373 C82.2397831,323.580963 86.9618983,327.444393 91.6844475,327.444393 C96.1978576,327.444393 100.919973,323.580963 100.919973,316.062373 C100.919973,308.120298 96.4126373,304.471214 91.6844475,304.471214 M91.6844475,297.596529 C84.8154034,297.596529 74.9359729,302.969058 74.9359729,315.847593 C74.9359729,328.732637 84.6010576,333.883878 91.6844475,333.883878 C98.773478,333.883878 108.438563,328.732637 108.438563,315.847593 C108.438563,302.969058 98.3443525,297.596529 91.6844475,297.596529" id="Fill-23" fill="#1A1919"></path>
            <path d="M156.972692,333.669532 L156.108366,327.873953 C153.103186,328.517858 151.600597,327.873953 151.600597,326.371363 L151.600597,298.240434 L144.946766,298.240434 L144.946766,329.161763 C144.946766,331.737383 146.663702,334.527783 151.600597,334.527783 C154.176651,334.527783 156.972692,333.669532 156.972692,333.669532" id="Fill-24" fill="#1A1919"></path>
            <path d="M137.642522,316.921058 L137.642522,333.669532 L131.203037,333.669532 L131.203037,317.564963 C131.203037,315.633247 129.480027,313.915878 126.689627,313.915878 C123.899227,313.915878 121.537953,316.277153 121.537953,319.717098 L121.537953,333.669532 L114.878047,333.669532 L114.878047,308.120298 L121.537953,308.120298 L121.537953,310.052014 C121.537953,310.052014 124.114007,307.691173 127.763092,307.691173 C133.779092,307.691173 137.642522,312.413288 137.642522,316.921058" id="Fill-25" fill="#1A1919"></path>
            <path d="M172.862915,337.747742 L182.957125,308.120298 L176.082441,308.120298 L170.930766,323.795742 L165.773451,308.120298 L158.904841,308.120298 L167.276041,332.381288 C167.705166,334.098658 167.061261,336.030373 163.626956,335.601247 L161.480461,335.386468 L160.621776,341.188122 L164.485641,341.617247 C169.422536,342.261153 171.789451,340.544217 172.862915,337.747742" id="Fill-26" fill="#1A1919"></path>
        </g>
    </g>
</svg>