<?xml version="1.0" encoding="UTF-8"?>
<svg width="420px" height="420px" viewBox="0 0 420 420" version="1.1" xmlns="http://www.w3.org/2000/svg" xmlns:xlink="http://www.w3.org/1999/xlink">
    <!-- Generator: Sketch 61.2 (89653) - https://sketch.com -->
    <title>sign-giving-order-no-vehicles-carry-explosives</title>
    <desc>Created with Sketch.</desc>
    <g id="sign-giving-order-no-vehicles-carry-explosives" stroke="none" stroke-width="1" fill="none" fill-rule="evenodd">
        <g id="Group">
            <path d="M208.221763,1.51743025e-12 C323.161525,1.51743025e-12 416.443525,93.1154237 416.443525,207.840203 C416.443525,322.564271 323.161525,415.680407 208.221763,415.680407 C93.282,415.680407 2.83253647e-12,322.564271 2.83253647e-12,207.840203 C2.83253647e-12,93.1154237 93.282,1.51743025e-12 208.221763,1.51743025e-12" id="Fill-104" fill="#D0383F"></path>
            <path d="M208.075119,41.5636271 C299.870746,41.5636271 374.370915,116.054542 374.370915,207.840203 C374.370915,299.625153 299.870746,374.106102 208.075119,374.106102 C116.280203,374.106102 41.779322,299.625153 41.779322,207.840203 C41.779322,116.054542 116.280203,41.5636271 208.075119,41.5636271" id="Fill-105" fill="#FFFFFE"></path>
            <path d="M135.893492,268.430542 L135.893492,268.430542 C135.893492,274.778949 141.185492,280.060983 147.523932,280.060983 C153.863085,280.060983 158.802712,274.778949 159.145119,268.430542 C159.145119,261.739729 153.863085,256.809356 147.523932,256.809356 C141.185492,256.809356 135.893492,261.739729 135.893492,268.430542" id="Fill-106" fill="#FFFFFE"></path>
            <path d="M256.741017,268.430542 L256.741017,268.430542 C256.741017,274.847288 261.788847,280.060983 268.019797,280.060983 C274.241492,280.060983 279.289322,274.847288 279.289322,268.430542 L279.993356,268.430542 C279.993356,262.023051 274.788915,256.809356 268.372169,256.809356 C261.955424,256.809356 256.741017,262.023051 256.741017,268.430542" id="Fill-107" fill="#FFFFFE"></path>
            <path d="M207.420203,266.66939 L207.771864,266.66939 C207.771864,266.66939 237.362644,267.725797 249.346169,267.725797 L249.697831,273.722542 L166.198271,273.722542 L166.198271,267.725797 L207.420203,266.66939" id="Fill-108" fill="#FFFFFE"></path>
            <path d="M296.202508,187.063017 C293.032576,197.275424 283.162576,204.31861 272.597797,204.31861 L269.780949,204.31861 C263.432542,199.74061 257.09339,195.16261 250.754949,190.58461 L165.141864,190.58461 L165.141864,190.232237 C160.211492,190.232237 155.975898,192.345051 152.454305,195.514271 C149.636746,197.627797 147.876305,201.148678 146.819898,204.670271 C127.793898,209.962983 106.654373,193.753831 106.654373,174.023085 C106.654373,170.853864 107.006746,167.684644 108.063153,164.514712 L107.71078,164.867085 C100.315932,159.232678 95.7379322,150.076678 95.7379322,140.558339 C95.7379322,123.302746 109.471932,109.559492 126.73678,109.559492 L126.385119,109.207119 C127.441525,96.1771525 138.015559,85.9547797 151.397898,85.9547797 C158.802712,85.9547797 165.845898,89.1339661 170.423898,94.7683729 L170.776271,94.7683729 C170.776271,93.3603051 170.423898,91.9515254 170.423898,90.5427458 C170.423898,78.2075593 178.875864,67.9951525 190.858678,65.882339 C195.789051,64.8259322 190.858678,65.5299661 195.789051,65.5299661 C207.771864,65.5299661 217.984271,73.9819322 220.449458,85.6031186 L220.097797,85.9547797 C222.92461,77.1511525 231.376576,71.5167458 240.532576,71.5167458 C252.51539,71.5167458 262.375424,81.3767797 262.375424,93.3603051 C262.375424,94.4167119 262.375424,95.4731186 262.023763,96.8818983 C265.906983,93.0079322 270.837356,90.8951186 276.11939,90.8951186 C286.684169,90.8951186 295.146102,99.3463729 295.146102,109.911153 C295.146102,112.376339 294.441356,115.193898 293.032576,117.306712 C296.202508,115.897932 298.315322,115.193898 301.484542,115.193898 C312.059288,115.193898 320.510542,123.655119 320.510542,134.219898 C320.510542,139.854305 317.693695,145.488712 313.115695,149.020271 L312.763322,149.020271 C317.693695,152.894237 320.510542,159.232678 320.510542,165.571831 C320.510542,177.544678 310.650508,187.414678 298.315322,187.414678 L296.554169,187.414678 L296.202508,187.063017" id="Fill-109" fill="#F0A456"></path>
            <polygon id="Fill-110" fill="#1A1919" points="124.623966 145.841085 120.398339 149.020271 104.893932 133.515864 112.28878 126.120305"></polygon>
            <polygon id="Fill-111" fill="#1A1919" points="123.567559 178.258678 121.454746 174.023085 159.145119 183.189051 158.088712 186.358271 113.345186 182.132644"></polygon>
            <polygon id="Fill-112" fill="#1A1919" points="242.293017 182.132644 242.293017 185.301864 288.102915 181.076237 285.980136 175.079492"></polygon>
            <polygon id="Fill-113" fill="#1A1919" points="177.819458 181.076237 173.593119 184.245458 176.763051 186.358271 189.098237 186.358271 192.267458 184.245458 190.154644 181.076237"></polygon>
            <polygon id="Fill-114" fill="#1A1919" points="234.898169 181.076237 230.671831 178.249424 227.854983 182.132644 230.671831 185.301864"></polygon>
            <polygon id="Fill-115" fill="#1A1919" points="235.954576 106.389559 223.628644 103.220339 228.91139 94.7683729 240.180203 102.163932"></polygon>
            <polygon id="Fill-116" fill="#1A1919" points="136.245153 151.133085 170.423898 175.079492 169.367492 178.258678 126.73678 154.302305 136.245153 154.302305"></polygon>
            <polygon id="Fill-117" fill="#1A1919" points="170.423898 159.232678 121.454746 124.007492 128.850305 119.781153 173.593119 155.358712"></polygon>
            <polygon id="Fill-118" fill="#1A1919" points="172.536712 138.445525 170.423898 140.558339 141.185492 97.9383051 151.750271 103.220339 152.806678 98.9947119"></polygon>
            <polygon id="Fill-119" fill="#1A1919" points="186.985424 100.051119 192.267458 106.389559 198.605898 106.389559 198.605898 97.9383051 186.985424 97.9383051"></polygon>
            <polygon id="Fill-120" fill="#1A1919" points="279.640983 95.8247797 284.923729 101.107525 239.123797 130.345932 237.010983 128.233119"></polygon>
            <polygon id="Fill-121" fill="#1A1919" points="300.428136 136.332712 241.23661 162.401898 242.293017 166.628237 302.540949 151.133085 297.258915 147.953898"></polygon>
            <polygon id="Fill-122" fill="#1A1919" points="276.471763 120.838271 276.471763 132.459458 291.272136 131.402339 291.272136 126.120305"></polygon>
            <polygon id="Fill-123" fill="#1A1919" points="234.898169 139.501932 234.898169 144.784678 243.349424 144.784678 243.349424 140.558339"></polygon>
            <path d="M177.819458,156.415831 L178.034441,156.229322 C182.162542,159.389288 185.175153,163.771525 186.662237,168.741051 L187.337085,168.741051 L187.493695,168.681966 C189.753153,175.695966 195.006712,181.359559 201.844169,184.147932 L201.775831,184.245458 L201.775831,183.893085 L201.844169,183.844678 C200.699492,182.181763 199.975525,180.254746 199.750576,178.239458 L199.663017,178.258678 L199.623864,178.258678 C199.388949,175.52939 198.254237,172.956712 196.395559,170.95139 L196.493085,170.853864 L196.845458,170.501492 L196.855424,170.775559 C198.625831,171.157119 200.27878,171.949424 201.687559,173.084136 L201.775831,172.966678 L202.137458,173.319051 L202.186576,173.329017 C201.912508,171.930203 201.775831,170.521424 201.775831,169.093424 C201.775831,164.514712 203.193864,160.044915 205.834881,156.298373 L206.011424,156.415831 L206.011424,156.767492 L206.079763,156.767492 C206.304712,158.78278 206.989525,160.709797 208.085085,162.421831 L207.771864,162.401898 L207.771864,162.050237 L207.781831,161.737017 C208.906576,161.013051 209.914576,160.113254 210.765254,159.086034 L210.941797,159.232678 L210.941797,159.585051 L211.088441,159.575085 C211.225119,160.387322 211.293458,161.21878 211.293458,162.050237 C211.293458,165.630203 210.022068,169.093424 207.703525,171.871119 L207.771864,171.910271 L208.104305,171.489559 C209.787153,171.362847 211.460034,171.029695 213.073831,170.521424 L213.05461,170.853864 L213.05461,170.149831 L212.966339,170.110678 C211.860814,173.445763 209.650475,176.302475 206.696237,178.219525 L206.715458,178.258678 L207.067831,178.258678 L207.077797,178.210271 C207.536949,178.239458 208.00678,178.258678 208.47661,178.258678 C209.659729,178.258678 210.843559,178.161153 212.017424,177.975356 L211.998203,178.258678 L212.349864,177.907017 L212.085763,177.926237 C211.293458,180.391424 209.757966,182.563322 207.684305,184.128 L207.771864,184.245458 L207.771864,183.893085 L208.104305,183.531458 C219.716237,183.355627 229.077254,173.993898 229.263051,162.382678 L229.615424,162.401898 L229.615424,162.050237 L229.596203,161.697864 C226.798576,163.468271 223.696983,164.662068 220.440203,165.219458 L220.449458,165.571831 L220.449458,165.219458 L220.420271,165.160373 C226.768678,159.389288 230.466814,151.260508 230.661864,142.681119 L230.671831,142.671864 L230.231898,142.251153 C226.925288,145.430339 222.78722,147.601525 218.297492,148.521254 L218.336644,149.020271 L217.984271,148.316237 L217.700949,148.37461 C220.616034,145.038814 222.21061,140.764068 222.21061,136.332712 C222.21061,133.545051 221.574915,130.786576 220.341966,128.272271 L220.449458,128.233119 L220.449458,127.880746 L220.097797,127.509153 C217.740102,132.811119 213.817729,137.271661 208.858169,140.284983 L208.828271,140.558339 L209.180644,140.206678 L209.327288,140.314169 C212.448102,135.706983 214.111017,130.267627 214.111017,124.711525 C214.111017,118.353153 211.929153,112.180576 207.938441,107.230983 L207.771864,107.445966 L208.47661,109.207119 L208.16339,109.207119 C208.368407,110.253559 208.47661,111.309966 208.47661,112.376339 C208.47661,114.949017 207.860136,117.472576 206.696237,119.761932 L206.715458,119.781153 L206.715458,119.429492 L206.715458,119.448712 C205.463288,121.532339 204.505119,123.782542 203.849492,126.130271 L203.89861,126.120305 L204.250271,126.472678 L204.270203,126.44278 C202.343186,124.134203 200.806983,121.513119 199.731356,118.705525 L199.663017,118.724746 L199.310644,118.724746 L199.32061,118.715492 C197.686881,122.618644 196.845458,126.815085 196.845458,131.050678 C196.845458,135.432915 197.745254,139.776 199.496441,143.79661 L199.663017,143.728271 L199.663017,143.375898 L199.672271,143.004305 C195.3,139.46278 192.061729,134.698983 190.389559,129.318712 L190.154644,129.289525 L190.506305,129.641898 L190.418746,129.59278 C188.853356,132.664475 188.041831,136.058644 188.041831,139.501932 C188.041831,145.909424 190.848712,151.984475 195.729966,156.141763 L195.436678,156.415831 L195.789051,156.063458 L195.828203,155.916814 C192.991424,154.850441 189.998034,154.302305 186.985424,154.302305 C183.844678,154.302305 180.734542,154.889593 177.809492,156.043525 L177.819458,156.415831 L178.171119,156.063458" id="Fill-124" fill="#1A1919"></path>
            <path d="M138.015559,247.653356 L146.819898,203.966237 C147.523932,199.388237 153.158339,190.232237 164.789492,190.232237 L251.458983,190.232237 C263.080169,190.232237 268.724542,199.388237 269.428576,203.966237 L278.232203,247.653356 C283.514949,248.709763 289.159322,254.344169 289.159322,259.978576 L289.159322,296.260169 C289.159322,301.552881 284.571356,306.130881 282.458542,307.538949 L282.458542,333.960508 C278.936949,337.482102 275.062983,339.947288 270.484983,339.947288 C265.545356,339.947288 260.614983,337.129729 257.797424,333.960508 L257.797424,308.595356 L235.249831,310.356508 L180.998644,310.356508 L158.441085,308.595356 L158.441085,333.960508 C155.623525,337.129729 150.693153,339.947288 145.763492,339.947288 C141.185492,339.947288 137.301559,337.482102 133.779966,333.960508 L133.779966,307.538949 C131.667153,306.130881 127.089153,301.552881 127.089153,296.260169 L127.089153,259.978576 C127.089153,254.344169 132.723559,248.709763 138.015559,247.653356 L138.015559,247.653356 Z M257.445763,267.021763 C257.445763,273.370169 262.375424,278.300542 268.724542,278.300542 C275.062983,278.300542 279.993356,273.370169 279.993356,267.021763 C279.993356,260.68261 275.062983,255.752949 268.724542,255.752949 C262.375424,255.752949 257.445763,260.68261 257.445763,267.021763 L257.445763,267.021763 Z M136.245153,267.021763 C136.245153,273.370169 141.185492,278.300542 147.523932,278.300542 C153.510712,278.300542 158.802712,273.370169 158.802712,267.021763 C158.802712,260.68261 153.510712,255.752949 147.523932,255.752949 C141.185492,255.752949 136.245153,260.68261 136.245153,267.021763 L136.245153,267.021763 Z M149.285085,230.740169 L151.750271,217.710203 C154.567119,204.31861 169.015119,202.557458 183.815492,202.557458 L232.432983,202.557458 C247.233356,202.557458 261.67139,204.31861 264.488949,217.710203 L266.96339,230.740169 C268.019797,238.849017 263.784203,241.314203 255.332949,240.962542 L208.124237,238.839763 L160.915525,240.962542 C152.454305,241.314203 148.228678,238.849017 149.285085,230.740169 L149.285085,230.740169 Z M166.902305,268.078169 L166.902305,273.017797 L249.346169,273.017797 L249.346169,268.078169 L223.628644,266.317729 L192.619831,266.317729 L166.902305,268.078169 Z M208.47661,279.709322 L249.697831,279.709322 L249.697831,286.047763 L166.549932,286.047763 L166.549932,279.709322 L208.47661,279.709322 Z M166.902305,297.316576 L166.902305,292.386915 L249.346169,292.386915 L249.346169,297.316576 L223.628644,298.725356 L192.619831,298.725356 L166.902305,297.316576 L166.902305,297.316576 Z" id="Fill-125" fill="#1A1919"></path>
        </g>
    </g>
</svg>