<?xml version="1.0" encoding="UTF-8"?>
<svg width="151px" height="320px" viewBox="0 0 151 320" version="1.1" xmlns="http://www.w3.org/2000/svg" xmlns:xlink="http://www.w3.org/1999/xlink">
    <!-- Generator: Sketch 61.2 (89653) - https://sketch.com -->
    <title>traffic-light-green</title>
    <desc>Created with Sketch.</desc>
    <g id="traffic-light-green" stroke="none" stroke-width="1" fill="none" fill-rule="evenodd">
        <g id="Group" transform="translate(10.000000, 5.000000)">
            <path id="Rectangle" d="M129,-0.5 C130.932997,-0.5 132.5,1.06700338 132.5,3 L132.5,3 L132.5,306 C132.5,307.932997 130.932997,309.5 129,309.5 L129,309.5 L3,309.5 C1.06700338,309.5 -0.5,307.932997 -0.5,306 L-0.5,306 L-0.5,3 C-0.5,1.06700338 1.06700338,-0.5 3,-0.5 L3,-0.5 Z M129,0.5 L3,0.5 C1.61928813,0.5 0.5,1.61928813 0.5,3 L0.5,3 L0.5,306 C0.5,307.380712 1.61928813,308.5 3,308.5 L3,308.5 L129,308.5 C130.380712,308.5 131.5,307.380712 131.5,306 L131.5,306 L131.5,3 C131.5,1.61928813 130.380712,0.5 129,0.5 L129,0.5 Z" fill="#000000" fill-rule="nonzero"></path>
            <polygon id="Fill-24566" fill="#1A1919" points="8.27692308 301 123.276923 301 123.276923 9 8.27692308 9"></polygon>
            <path d="M64.77707,217 C80.5105896,217 93.2769231,229.767882 93.2769231,245.499853 C93.2769231,261.231824 80.5105896,274 64.77707,274 C49.0432566,274 36.2769231,261.231824 36.2769231,245.499853 C36.2769231,229.767882 49.0432566,217 64.77707,217" id="Fill-24567" fill="#71BF45"></path>
            <path d="M64.77707,126 C80.5105896,126 93.2769231,138.767661 93.2769231,154.500146 C93.2769231,170.232339 80.5105896,183 64.77707,183 C49.0432566,183 36.2769231,170.232339 36.2769231,154.500146 C36.2769231,138.767661 49.0432566,126 64.77707,126" id="Fill-24568" fill="#B4B5B9"></path>
            <path d="M64.77707,36 C80.5105896,36 93.2769231,48.7678825 93.2769231,64.4998531 C93.2769231,80.2318237 80.5105896,93 64.77707,93 C49.0432566,93 36.2769231,80.2318237 36.2769231,64.4998531 C36.2769231,48.7678825 49.0432566,36 64.77707,36" id="Fill-24569" fill="#B4B5B9"></path>
        </g>
    </g>
</svg>