<svg enable-background="new 0 0 483.2 195.7" viewBox="0 0 483.2 195.7" xmlns="http://www.w3.org/2000/svg"><g fill="#0b0c0c"><path d="m421.5 142.8v-142.7l-50.7 32.3v161.1h112.4v-50.7z"/><path d="m299.2 133.2c-8.3 7.3-19.2 11.7-31.1 11.7-26 0-47.1-21.1-47.1-47.1s21.1-47.1 47.1-47.1c16.7 0 31.4 8.7 39.7 21.8l42.7-27.2c-17.3-27.2-47.8-45.3-82.4-45.3-36.5 0-68.3 20.1-85.1 49.7-16.8-29.6-48.7-49.7-85.2-49.7-53.9 0-97.8 43.9-97.8 97.8s43.9 97.8 97.8 97.8c36.5 0 68.3-20.1 85.1-49.7 16.8 29.7 48.7 49.7 85.1 49.7 24.7 0 47.3-9.2 64.5-24.3l19.4 22.2h3v-87.8h-80zm-201.4 11.8c-26 0-47.1-21.1-47.1-47.1s21.1-47.1 47.1-47.1 47.2 21 47.2 47-21.2 47.2-47.2 47.2"/></g></svg>