<?xml version="1.0" encoding="UTF-8"?>
<svg width="475px" height="420px" viewBox="0 0 475 420" version="1.1" xmlns="http://www.w3.org/2000/svg" xmlns:xlink="http://www.w3.org/1999/xlink">
    <!-- Generator: Sketch 61.2 (89653) - https://sketch.com -->
    <title>warning-sign-worded-sign-ford</title>
    <desc>Created with Sketch.</desc>
    <g id="warning-sign-worded-sign-ford" stroke="none" stroke-width="1" fill="none" fill-rule="evenodd">
        <g id="Group">
            <polyline id="Fill-10" fill="#FFFFFE" points="112.393958 392.076407 22.1929068 392.076407 234.288636 18.6736271 449.905958 392.076407"></polyline>
            <path d="M440.045212,416.03278 C450.971619,416.03278 461.536398,410.046 466.819144,400.176 C472.462805,390.667627 472.462805,378.694068 466.819144,369.176441 L262.167381,15.4552881 C256.6305,5.88854237 246.408839,0 235.345042,0 C224.291212,0 214.068839,5.88854237 208.522703,15.4552881 L4.23327966,369.176441 C-1.41109322,378.694068 -1.41109322,390.667627 4.23327966,400.176 C9.86768644,410.046 20.0800932,416.03278 31.3588729,416.03278 L440.045212,416.03278 Z M49.3284661,374.458475 L421.723246,374.458475 L235.697415,51.786 L49.3284661,374.458475 Z" id="Fill-12" fill="#D0383F"></path>
            <polyline id="Fill-13" fill="#1A1919" points="152.911144 265.612983 133.180398 265.612983 133.180398 336.064068 146.91511 336.064068 146.91511 307.529695 176.163483 307.529695 176.163483 294.499729 146.91511 294.499729 146.91511 278.995322 178.980331 278.995322 178.980331 265.612983 164.884703 265.612983"></polyline>
            <path d="M324.488975,306.824949 L324.488975,317.047322 C324.488975,320.921288 320.958127,327.259729 313.210195,327.259729 C305.815347,327.259729 301.58972,320.921288 301.58972,311.402949 C301.58972,301.895288 306.519381,296.964915 313.210195,296.964915 C319.549347,296.964915 324.488975,300.838169 324.488975,306.824949 M324.488975,289.569356 L324.488975,265.965356 L337.518941,265.965356 L337.518941,336.415729 L324.488975,336.415729 L324.488975,333.951254 C324.488975,333.951254 319.196975,338.529254 311.449754,338.529254 C303.702534,338.529254 287.845754,331.837729 287.845754,311.051288 C287.845754,290.274102 304.406568,284.629729 310.393347,284.629729 C316.731788,284.629729 319.196975,286.038508 324.488975,289.569356" id="Fill-14" fill="#1A1919"></path>
            <path d="M210.332263,295.556136 C204.697856,295.556136 198.711076,300.486508 198.711076,311.402949 C198.711076,322.330068 205.049517,327.612102 210.332263,327.612102 C215.614297,327.612102 221.963415,322.330068 221.963415,311.402949 C221.963415,300.486508 215.966669,295.556136 210.332263,295.556136 M210.332263,283.924983 C198.007042,283.924983 185.671144,293.795695 185.671144,311.402949 C185.671144,328.668508 198.007042,338.880915 210.332263,338.880915 C222.667449,338.880915 234.992669,328.668508 234.992669,311.402949 C234.992669,293.795695 222.667449,283.924983 210.332263,283.924983" id="Fill-15" fill="#1A1919"></path>
            <path d="M277.271008,297.317288 L277.271008,284.629729 C264.945788,284.629729 262.832975,287.808915 260.015415,290.978136 L260.015415,285.686136 L246.623822,285.686136 L246.623822,336.064068 L260.015415,336.064068 L260.015415,311.051288 C260.015415,303.655729 268.115008,297.317288 277.271008,297.317288" id="Fill-16" fill="#1A1919"></path>
        </g>
    </g>
</svg>