<?xml version="1.0" encoding="UTF-8"?>
<svg width="475px" height="420px" viewBox="0 0 475 420" version="1.1" xmlns="http://www.w3.org/2000/svg" xmlns:xlink="http://www.w3.org/1999/xlink">
    <!-- Generator: Sketch 61.2 (89653) - https://sketch.com -->
    <title>warning-sign-side-winds</title>
    <desc>Created with Sketch.</desc>
    <g id="warning-sign-side-winds" stroke="none" stroke-width="1" fill="none" fill-rule="evenodd">
        <g id="Group-11">
            <polyline id="Fill-316" fill="#FFFFFE" points="112.041585 388.545203 20.7841271 388.545203 234.641008 21.1295593 446.384364 388.545203"></polyline>
            <path d="M440.045212,416.023169 C450.971619,416.023169 461.536398,410.036532 466.819144,400.528302 C472.462805,391.010319 472.462805,379.037044 466.819144,369.176654 L262.333958,15.9058983 C256.836229,6.07505085 246.525585,1.51743025e-13 235.345042,1.51743025e-13 C224.232839,1.51743025e-13 213.971314,6.0159661 208.444398,15.7692203 L4.23327966,369.176654 C-1.41109322,379.037044 -1.41109322,391.010319 4.23327966,400.528302 C9.86768644,410.036532 20.0800932,416.023169 31.3588729,416.023169 L440.045212,416.023169 Z M49.3284661,374.458973 L421.723246,374.458973 L235.697415,52.1291186 L49.3284661,374.458973 Z" id="Fill-317" fill="#D0383F"></path>
            <line x1="148.861234" y1="360.715334" x2="148.861234" y2="232.139425" id="Stroke-318" stroke="#1A1919" stroke-width="1.333"></line>
            <path d="M186.023517,221.222542 L159.954331,242.008983 L184.96711,257.504136 L186.023517,221.222542 Z M186.37589,216.292169 C200.119856,216.644542 225.132636,219.109729 233.58389,225.095797 C241.693449,231.082576 243.454602,236.012949 252.258229,239.182169 C262.480602,242.361356 274.805822,240.943322 280.802568,240.943322 C286.789347,240.943322 297.705788,241.304949 307.928161,243.770136 C317.788195,246.587695 335.406127,256.095356 339.280093,259.264932 L330.124093,287.447217 C330.124093,287.447217 311.097381,278.643305 299.466941,278.643305 C291.014975,278.643305 278.679788,283.573464 265.649822,283.925624 C252.258229,284.277783 245.567415,282.164827 237.457856,280.404102 C229.358263,278.643305 215.262636,270.886119 208.923483,266.308047 C202.232669,261.377888 195.179517,261.025729 184.614737,260.673569 L158.897924,244.826542 L155.023958,244.826542 L155.376331,238.829797 L159.601958,238.829797 L186.023517,217.700949 L186.37589,216.292169 L186.37589,216.292169 Z" id="Fill-319" fill="#1A1919"></path>
        </g>
    </g>
</svg>