<?xml version="1.0" encoding="UTF-8"?>
<svg width="475px" height="420px" viewBox="0 0 475 420" version="1.1" xmlns="http://www.w3.org/2000/svg" xmlns:xlink="http://www.w3.org/1999/xlink">
    <!-- Generator: Sketch 61.2 (89653) - https://sketch.com -->
    <title>warning-sign-quayside-or-riverbank</title>
    <desc>Created with Sketch.</desc>
    <g id="warning-sign-quayside-or-riverbank" stroke="none" stroke-width="1" fill="none" fill-rule="evenodd">
        <g id="Group-5">
            <polyline id="Fill-164" fill="#FFFFFE" points="134.582415 391.372373 21.1389915 391.372373 235.699907 16.2091525 455.190483 391.372373"></polyline>
            <path d="M440.038449,416.033492 C451.317229,415.681119 461.529636,410.046712 466.821636,400.176712 C472.456042,390.668339 472.456042,378.69478 466.821636,369.177153 L262.169873,15.456 C256.623737,5.88925424 246.401364,0 235.347534,0 C224.284449,0 214.071331,5.88925424 208.525195,15.456 L4.22580508,369.177153 C-1.40860169,378.69478 -1.40860169,390.668339 4.22580508,400.176712 C9.86021186,410.046712 20.0825847,416.033492 31.3513983,416.033492 L440.038449,416.033492 Z M49.3217034,374.11678 L422.07811,374.11678 L235.699907,51.7867119 L49.3217034,374.11678 Z" id="Fill-165" fill="#D0383F"></path>
            <path d="M362.182551,297.669661 C358.308585,294.148068 353.016585,292.387627 347.382178,292.387627 C340.338992,292.387627 333.638212,295.556847 329.412585,301.191254 C326.595025,304.712847 322.721059,306.473288 318.143059,306.473288 C313.907466,306.473288 310.034212,304.712847 307.216653,301.191254 C302.638653,295.556847 296.300212,292.387627 288.894686,292.387627 C281.8515,292.387627 275.160686,295.556847 270.57272,301.191254 C268.108246,304.712847 264.23428,306.473288 259.65628,306.473288 C255.430653,306.473288 251.556686,304.712847 248.729873,301.191254 C244.151873,295.556847 237.81272,292.387627 230.417161,292.387627 C223.36472,292.387627 216.673907,295.556847 212.095907,301.191254 C214.560381,302.951695 217.025568,305.06522 219.490754,307.178034 C222.308314,303.656441 226.181568,301.895288 230.417161,301.895288 C234.995161,301.895288 238.869127,303.656441 241.334314,307.178034 C245.912314,312.812441 252.613093,315.991627 259.65628,315.991627 C267.051127,315.991627 273.400246,312.812441 277.978246,307.178034 C280.795093,303.656441 284.669059,301.895288 288.894686,301.895288 C293.482653,301.895288 297.356619,303.656441 299.821805,307.178034 C304.399805,312.812441 311.090619,315.991627 318.143059,315.991627 C325.538619,315.991627 331.877771,312.812441 336.465025,307.178034 C339.282585,303.656441 343.156551,301.895288 347.382178,301.895288 C351.960178,301.895288 355.834144,303.656441 358.660958,307.178034 C362.182551,311.403661 367.112924,314.582847 372.394958,315.287593" id="Fill-166" fill="#1A1919"></path>
            <path d="M212.095907,345.582407 C214.560381,347.343559 217.025568,349.456373 219.490754,351.569186 C222.308314,348.047593 226.181568,346.286441 230.417161,346.286441 C234.995161,346.286441 238.869127,348.047593 241.334314,351.569186 C245.912314,357.203593 252.613093,360.372814 259.65628,360.372814 C267.051127,360.372814 273.400246,357.203593 277.978246,351.569186 C280.795093,348.047593 284.669059,346.286441 288.894686,346.286441 C293.482653,346.286441 297.356619,348.047593 299.821805,351.569186 C304.399805,357.203593 311.090619,360.372814 318.143059,360.372814 C325.538619,360.372814 331.877771,357.203593 336.465025,351.569186 C339.282585,348.047593 343.156551,346.286441 347.382178,346.286441 C351.960178,346.286441 355.834144,348.047593 358.660958,351.569186 C362.886585,357.203593 369.577398,360.372814 376.620585,360.372814 C383.673737,360.372814 389.660517,357.555966 394.238517,352.625593 L388.955771,343.812 L387.547703,345.582407 L387.655195,345.328271 C384.98428,348.604983 380.915263,350.51278 376.620585,350.51278 C372.424144,350.51278 368.442686,348.683288 365.762517,345.533288 L365.57672,345.679932 C361.165297,340.055492 354.473771,336.768814 347.382178,336.768814 C340.378144,336.768814 333.755669,339.977186 329.33428,345.484881 L329.167703,345.328271 C326.4975,348.604983 322.437737,350.51278 318.143059,350.51278 C313.937364,350.51278 309.955907,348.683288 307.284992,345.533288 L307.099195,345.679932 C302.687771,340.055492 295.986992,336.768814 288.894686,336.768814 C281.812347,336.768814 275.111568,340.055492 270.700144,345.679932 L270.514347,345.533288 C267.834178,348.683288 263.85272,350.51278 259.65628,350.51278 C255.459839,350.51278 251.478381,348.683288 248.798212,345.533288 L248.612415,345.679932 C244.20028,340.055492 237.4995,336.768814 230.417161,336.768814 C223.325568,336.768814 216.624788,340.055492 212.212653,345.679932" id="Fill-167" fill="#1A1919"></path>
            <path d="M380.152144,328.316847 C379.095737,328.66922 378.039331,328.66922 376.620585,328.66922 C372.394958,328.66922 368.520992,326.908068 365.704144,323.387186 C361.126144,317.752068 354.777025,314.582847 347.382178,314.582847 C340.338992,314.582847 333.638212,317.752068 329.412585,323.387186 C326.595025,326.908068 322.721059,328.66922 318.143059,328.66922 C313.907466,328.66922 310.034212,326.908068 307.216653,323.387186 C302.638653,317.752068 296.300212,314.582847 288.894686,314.582847 C281.8515,314.582847 275.160686,317.752068 270.57272,323.387186 C268.108246,326.908068 264.23428,328.66922 259.65628,328.66922 C255.430653,328.66922 251.556686,326.908068 248.729873,323.387186 C244.151873,317.752068 237.81272,314.582847 230.417161,314.582847 C223.36472,314.582847 216.673907,317.752068 212.095907,323.387186 C214.560381,325.147627 217.025568,327.260441 219.490754,329.373254 C222.308314,325.851661 226.181568,324.09122 230.417161,324.09122 C234.995161,324.09122 238.869127,325.851661 241.334314,329.373254 C245.912314,335.007661 252.613093,338.177593 259.65628,338.177593 C267.051127,338.177593 273.400246,335.007661 277.978246,329.373254 C280.795093,325.851661 284.669059,324.09122 288.894686,324.09122 C293.482653,324.09122 297.356619,325.851661 299.821805,329.373254 C304.399805,335.007661 311.090619,338.177593 318.143059,338.177593 C325.538619,338.177593 331.877771,335.007661 336.465025,329.373254 C339.282585,325.851661 343.156551,324.09122 347.382178,324.09122 C351.960178,324.09122 355.834144,325.851661 358.660958,329.373254 C362.886585,335.007661 369.577398,338.177593 376.620585,338.177593 C379.44811,338.177593 382.264958,337.472847 384.730144,336.768814" id="Fill-168" fill="#1A1919"></path>
            <polyline id="Fill-169" fill="#1A1919" points="154.312449 219.813763 219.843127 219.813763 219.843127 360.372814 73.2780763 360.372814"></polyline>
            <path d="M291.359873,261.739729 C288.894686,265.613695 289.599432,270.896441 293.482653,273.713288 C297.356619,276.178475 302.638653,275.474441 305.456212,271.600475 C307.921398,267.726508 307.216653,262.444475 303.343398,259.626915 C299.469432,257.161729 294.186686,257.866475 291.359873,261.739729 M286.077839,257.866475 C281.147466,264.909661 282.907907,274.417322 289.599432,278.995322 C296.651873,283.935661 306.160246,282.165254 310.738246,275.474441 C315.678585,268.431254 313.907466,258.922881 307.216653,254.344881 C300.173466,249.404542 290.655839,251.165695 286.077839,257.866475" id="Fill-170" fill="#1A1919"></path>
            <path d="M202.929941,199.741322 C200.112381,203.614576 201.168788,208.897322 205.042754,211.362508 C208.925975,214.179356 214.20872,213.122949 216.673907,209.601356 C219.490754,205.72739 218.434347,200.445356 214.560381,197.627797 C210.687127,195.163322 205.395127,195.867356 202.929941,199.741322 M197.295534,195.867356 C192.365161,202.910542 194.125602,212.418915 201.168788,216.996915 C207.859602,221.936542 217.377941,220.166136 222.308314,213.475322 C227.237975,206.432136 225.477534,196.923763 218.434347,191.984136 C211.743534,187.406136 202.225195,189.166576 197.295534,195.867356" id="Fill-171" fill="#1A1919"></path>
            <path d="M291.0075,218.053322 L291.712246,193.754542 L269.516314,178.250136 L257.895127,194.810949 L291.0075,218.053322 Z M266.699466,176.488983 L252.965466,166.628949 L224.7735,171.55861 L255.07828,193.049797 L266.699466,176.488983 Z M234.291127,159.223424 C244.503534,157.462983 252.26072,158.167017 260.712686,164.163763 L291.359873,185.29261 C295.243805,188.110169 297.70828,192.698136 297.004246,197.627797 L296.651873,221.926576 L296.651873,221.936542 L330.468992,254.697254 C331.877771,257.161729 331.877771,259.979288 330.468992,262.092102 L330.468992,262.444475 L321.664653,274.769695 C319.551839,277.938915 315.326212,278.643661 312.147025,276.530847 C317.791398,268.782915 315.678585,258.218136 308.273059,252.936102 C300.525839,247.644102 289.951093,249.404542 284.669059,257.161729 C284.316686,257.514102 283.965025,257.866475 283.612653,258.570508 L280.795093,256.457695 L222.659975,215.588136 L223.717093,214.179356 C228.999127,206.784508 227.237975,196.219729 219.490754,190.927729 C211.743534,185.29261 201.168788,187.406136 195.886754,194.810949 L194.830347,196.219729 L179.325229,183.179797 L193.773941,162.40261 C194.830347,161.346203 196.590788,160.632203 197.999568,161.346203 L199.408347,162.040983 C203.986347,164.515424 208.221941,164.163763 213.152314,163.107356 L234.291127,159.223424 Z" id="Fill-172" fill="#1A1919"></path>
        </g>
    </g>
</svg>