<?xml version="1.0" encoding="UTF-8"?>
<svg width="475px" height="420px" viewBox="0 0 475 420" version="1.1" xmlns="http://www.w3.org/2000/svg" xmlns:xlink="http://www.w3.org/1999/xlink">
    <!-- Generator: Sketch 61.2 (89653) - https://sketch.com -->
    <title>warning-sign-road-narrow</title>
    <desc>Created with Sketch.</desc>
    <g id="warning-sign-road-narrow" stroke="none" stroke-width="1" fill="none" fill-rule="evenodd">
        <g id="Group-2">
            <polyline id="Fill-28" fill="#FFFFFE" points="83.5004492 387.840814 17.6173983 387.840814 234.995873 23.5947458 443.921669 387.840814"></polyline>
            <path d="M440.047703,416.023525 C451.317229,416.023525 461.539602,410.036746 467.174008,400.528373 C472.456042,391.010746 472.456042,379.037186 467.174008,369.176441 L262.942958,15.8176271 C257.357669,6.03589831 246.958754,-2.02324033e-13 235.699907,-2.02324033e-13 C224.440347,-2.02324033e-13 214.042144,6.03589831 208.466822,15.8176271 L4.22580508,369.176441 C-1.40860169,379.037186 -1.40860169,391.010746 4.22580508,400.528373 C9.87017797,410.036746 20.0825847,416.023525 31.3613644,416.023525 L440.047703,416.023525 Z M49.3217034,374.459186 L422.07811,374.459186 L235.699907,52.1291186 L49.3217034,374.459186 Z" id="Fill-29" fill="#D0383F"></path>
            <path d="M273.752619,281.108847 L273.752619,360.71522 L305.103839,360.71522 L305.103839,281.108847 C305.103839,265.603729 298.413025,252.222102 293.13028,245.531288 C288.200619,238.830508 285.021432,234.604169 282.908619,232.138983 C282.908619,232.138983 277.2735,225.448169 277.2735,215.235763 L277.2735,145.831831 L277.2735,215.235763 L277.2735,145.831831 L246.274653,145.831831 L246.274653,215.235763 C245.92228,230.730915 252.965466,243.770136 257.895127,250.460949 C263.177873,257.504136 266.004686,261.378102 268.1175,264.194949 C268.469873,264.194949 273.752619,270.895729 273.752619,281.108847 L273.752619,360.71522" id="Fill-30" fill="#1A1919"></path>
            <polygon id="Fill-31" fill="#1A1919" points="194.125602 360.71522 225.487023 360.71522 225.487023 145.831759 194.125602 145.831759"></polygon>
        </g>
    </g>
</svg>