<?xml version="1.0" encoding="UTF-8"?>
<svg width="263px" height="420px" viewBox="0 0 263 420" version="1.1" xmlns="http://www.w3.org/2000/svg" xmlns:xlink="http://www.w3.org/1999/xlink">
    <!-- Generator: Sketch 61.2 (89653) - https://sketch.com -->
    <title>warning-sign-traffic-queues</title>
    <desc>Created with Sketch.</desc>
    <g id="warning-sign-traffic-queues" stroke="none" stroke-width="1" fill="none" fill-rule="evenodd">
        <g id="post" transform="translate(111.000000, 131.000000)">
            <rect id="Rectangle" fill="#C5C5C5" fill-rule="evenodd" x="0" y="0" width="33" height="316"></rect>
            <path id="Rectangle" d="M34,-1 L34,317 L-1,317 L-1,-1 L34,-1 Z M32,1 L1,1 L1,315 L32,315 L32,1 Z" fill="#000000" fill-rule="nonzero"></path>
        </g>
        <g id="Group-6">
            <path d="M131.497415,243.186538 L38.2086184,243.186538 C28.1536529,243.186538 20,251.373858 20,261.477239 L20,364.895838 C20,374.999219 28.1536529,383.186538 38.2086184,383.186538 L224.791382,383.186538 C234.846347,383.186538 243,374.999219 243,364.895838 L243,261.477239 C243,251.373858 234.846347,243.186538 224.791382,243.186538 L131.497415,243.186538" id="Fill-74" fill="#1A1919"></path>
            <path d="M130.997426,253.186538 L38.0158789,253.186538 C33.0371498,253.186538 29,257.240374 29,262.239283 L29,365.138962 C29,370.138269 33.0371498,374.186538 38.0158789,374.186538 L223.984121,374.186538 C228.96285,374.186538 233,370.138269 233,365.138962 L233,262.239283 C233,257.240374 228.96285,253.186538 223.984121,253.186538 L130.997426,253.186538" id="Fill-75" fill="#FFFFFE"></path>
            <path d="M63.6988334,297.994702 L61.7355021,294.468328 L67.2329886,291.725636 L69.7852796,295.839673 C70.7667468,294.859971 71.3557066,293.489021 71.7486109,292.117675 C72.3375707,290.55031 72.533626,288.977796 72.533626,287.41043 L72.533626,287.018787 L72.533626,286.626748 C72.533626,285.059778 72.3375707,283.492412 71.7486109,281.729423 C71.1596512,279.770414 69.9813349,278.007425 68.0180036,276.832099 C66.6440289,276.244436 65.2696572,275.852396 63.8952856,275.852396 C62.3244618,275.852396 60.5520265,276.244436 59.1776548,277.027722 C57.2143235,278.007425 55.8403488,279.770414 55.2509922,281.729423 C54.6620325,283.492412 54.4659771,285.059778 54.4659771,286.626748 L54.4659771,287.018787 L54.4659771,287.41043 C54.4659771,288.977796 54.6620325,290.55031 55.2509922,292.117675 C55.8403488,294.272308 57.2143235,296.035693 59.1776548,297.015 C60.7484787,297.798682 61.7355021,297.994702 63.6988334,297.994702 M64.8767529,269.186538 L63.8952856,269.186538 L62.1284065,269.382558 C58.7851473,269.382558 55.4474444,270.557884 52.8951533,272.908537 C49.1593867,276.244436 47.1960553,280.750117 47,285.843461 L47,288.194113 C47.1960553,293.096982 49.1593867,297.798682 52.8951533,301.129037 C55.6438966,303.47969 58.5886951,304.655016 62.1284065,304.655016 L64.8767529,304.655016 L66.8400842,304.458996 L68.8034155,308.186538 L75.0914732,305.047055 L73.3245941,301.912324 L74.110006,301.129037 C77.8402165,297.798682 79.8035478,293.096982 80,288.194113 L80,285.843461 C79.8035478,280.750117 77.8402165,276.244436 74.110006,272.908537 C71.5521587,270.557884 68.2144558,269.382558 64.8767529,269.186538" id="Fill-76" fill="#1A1919"></path>
            <path d="M158.084637,301.882809 L158.084637,303.610703 L164,303.610703 L164,280.186538 L158.084637,280.186538 L158.084637,293.244888 C158.084637,296.700289 155.026284,298.61987 152.736665,298.61987 C150.447047,298.61987 148.920377,296.891976 148.920377,294.588634 L148.920377,280.186538 L143,280.186538 L143,295.932379 C143,300.155302 146.630758,304.186538 151.591856,304.186538 C154.835739,304.186538 157.321303,302.842793 158.084637,301.882809" id="Fill-77" fill="#1A1919"></path>
            <path d="M195,300.379623 L199.712018,296.34225 C201.478876,298.457324 205.214598,299.995241 206.785402,299.995241 C208.55226,299.995241 209.926615,298.841706 209.926615,297.688171 C209.926615,296.534636 209.141213,295.957479 208.159758,295.765483 C207.374355,295.380712 204.233142,294.611947 203.442183,294.611947 C202.853231,294.419562 197.159758,293.458023 197.159758,287.684906 C197.159758,281.724456 203.442183,280.186538 207.177905,280.186538 C210.908071,280.186538 214.442183,281.340074 217,283.83953 L213.067828,287.877292 C210.712018,285.954603 209.141213,285.18545 207.177905,285.18545 C205.411047,285.18545 203.835083,285.954603 203.835083,287.492521 C203.835083,288.838441 205.018545,289.030827 205.607497,289.222824 C206,289.222824 210.123065,290.184362 211.104521,290.376747 C212.086373,290.568744 216.80355,291.920106 216.80355,297.495785 C216.80355,302.879468 211.693473,305.186538 206.588953,305.186538 C201.675326,305.186538 196.767255,302.494697 195,300.379623" id="Fill-78" fill="#1A1919"></path>
            <path d="M102.857512,301.882809 L102.857512,303.610703 L109,303.610703 L109,280.186538 L102.857512,280.186538 L102.857512,293.244888 C102.857512,296.700289 99.6871313,298.61987 97.3090452,298.61987 C94.9257519,298.61987 93.3407618,296.891976 93.3407618,294.588634 L93.3407618,280.186538 L87,280.186538 L87,295.932379 C87,300.155302 90.9626757,304.186538 96.1149953,304.186538 C99.4888573,304.186538 102.064817,302.842793 102.857512,301.882809" id="Fill-79" fill="#1A1919"></path>
            <path d="M120.221647,289.298928 L129.754168,289.298928 C129.754168,287.009476 128.004404,284.529108 125.087737,284.529108 C121.976914,284.529108 120.221647,286.81856 120.221647,289.298928 M120.221647,293.883618 L135.981317,293.883618 C136.175867,291.021417 135.008964,279.186538 124.893581,279.186538 C115.944314,279.186538 114,288.535649 114,291.59378 C114,294.646512 115.749764,304.186538 125.670992,304.186538 C131.115227,304.186538 134.037004,301.133807 134.814808,300.179997 L130.920678,296.554517 C130.920678,296.554517 129.170914,298.844355 125.670992,298.844355 C122.171463,298.844355 120.221647,296.17307 120.221647,293.883618" id="Fill-80" fill="#1A1919"></path>
            <path d="M176.212185,289.298928 L185.729215,289.298928 C185.729215,287.009476 183.982222,284.529108 181.070567,284.529108 C177.959178,284.529108 176.212185,286.81856 176.212185,289.298928 M176.212185,293.883618 L191.9414,293.883618 C192.334984,291.021417 190.970587,279.186538 180.876326,279.186538 C171.941234,279.186538 170,288.535649 170,291.59378 C170,294.646512 171.747385,304.186538 181.652898,304.186538 C187.28236,304.186538 190.194015,301.133807 190.776346,300.179997 L187.088119,296.554517 C187.088119,296.554517 185.341126,298.844355 181.652898,298.844355 C178.153419,298.844355 176.212185,296.17307 176.212185,293.883618" id="Fill-81" fill="#1A1919"></path>
            <path d="M181.258643,357.263838 L191,329.186538 L184.181247,329.186538 L179.499803,343.915067 L174.629321,329.186538 L168,329.186538 L175.993151,352.356313 C176.577593,353.926943 175.993151,355.693605 172.68105,355.300749 L170.537833,355.104718 L169.75884,360.606686 L173.460437,360.999145 C177.941422,361.78446 180.284704,360.017799 181.258643,357.263838" id="Fill-82" fill="#1A1919"></path>
            <path d="M134.172582,338.298699 L143.808962,338.298699 C143.808962,336.009211 142.074141,333.528804 138.990577,333.528804 C136.099858,333.528804 134.172582,336.009211 134.172582,338.298699 M134.172582,342.883459 L149.981544,342.883459 C150.173999,340.0162 149.017711,328.186538 138.990577,328.186538 C130.120121,328.186538 128,337.535793 128,340.588572 C128,343.64675 129.927276,353.186538 139.568721,353.186538 C145.163159,353.186538 148.054268,350.13376 148.824867,349.179935 L144.970704,345.554785 C144.970704,345.554785 143.230818,347.844272 139.761566,347.844272 C136.099858,347.844272 134.172582,345.172947 134.172582,342.883459" id="Fill-83" fill="#1A1919"></path>
            <path d="M84,352.414352 L83.24204,347.006708 C80.5880304,347.779284 79.071344,347.006708 79.071344,345.848038 L79.071344,319.186538 L73,319.186538 L73,348.165377 C73,350.675958 74.5220511,353.186538 79.2610256,353.186538 C81.535672,353.186538 84,352.414352 84,352.414352" id="Fill-84" fill="#1A1919"></path>
            <polygon id="Stroke-85" fill="#1A1919" fill-rule="nonzero" points="93 329.186538 93 353.186538 89 353.186538 89 329.186538"></polygon>
            <path d="M90.4998035,318.186538 C92.4336571,318.186538 94,319.752881 94,321.686342 C94,323.620196 92.4336571,325.186538 90.4998035,325.186538 C88.5663429,325.186538 87,323.620196 87,321.686342 C87,319.752881 88.5663429,318.186538 90.4998035,318.186538" id="Fill-86" fill="#1A1919"></path>
            <polyline id="Fill-87" fill="#1A1919" points="107.287495 330.316163 107.287495 319.186538 101 319.186538 101 352.186538 107.287495 352.186538 107.287495 345.857161 109.650768 343.171876 115.93866 352.186538 123.803392 352.186538 114.169979 338.755075 124 328.781604 115.545444 328.781604 107.287495 337.412433 107.287495 332.234168"></polyline>
            <path d="M167,352.414352 L166.24204,347.006708 C163.58803,347.779284 162.071344,347.006708 162.071344,345.848038 L162.071344,319.186538 L156,319.186538 L156,348.165377 C156,350.675958 157.522051,353.186538 162.261026,353.186538 C164.535672,353.186538 167,352.414352 167,352.414352" id="Fill-88" fill="#1A1919"></path>
            <path d="M260.83543,206.950133 L146.661733,9.06715999 C143.507953,3.53944652 137.801794,0.186538462 131.499801,0.186538462 C125.400265,0.186538462 119.491649,3.53944652 116.540325,9.06715999 L2.3666281,206.950133 C0.787152439,209.711398 0,212.669612 0,215.825173 C0,225.494784 7.87589967,233.186538 17.5229918,233.186538 L245.679067,233.186538 C255.325761,233.186538 263,225.494784 263,215.825173 C263,212.472663 262.409337,209.908745 260.83543,206.950133" id="Fill-89" fill="#D0383F"></path>
            <polygon id="Fill-90" fill="#FDFCFB" points="27 209.186538 234 209.186538 130.399493 29.1865385"></polygon>
            <path d="M144.698948,146.817704 C144.698948,144.471695 142.936464,142.516556 140.78245,142.320923 L139.998992,138.014242 L158.027234,137.232503 L158.027234,146.231202 C159.202223,147.404206 160.769139,148.186341 162.335659,148.186341 C164.098538,148.186341 165.665058,147.404206 166.840047,146.231202 L166.840047,136.450368 C168.211,135.668234 169,134.299597 169,132.735722 L169,120.21722 C169,118.066844 167.231974,116.111704 165.077564,115.916072 L162.727586,101.442826 C162.140091,97.9234171 159.006655,95.1865385 155.47575,95.1865385 L125.305295,95.1865385 C121.584365,95.1865385 118.445386,97.9234171 117.857892,101.442826 L115.703482,115.916072 C113.353504,116.111704 111.59102,118.066844 111.59102,120.21722 L111.59102,121.781489 L101.009785,121.781489 C97.2833123,121.781489 94.3458398,124.328664 93.7583453,127.847677 L91.4079715,142.320923 C89.0579935,142.516556 87.2955101,144.471695 87.2955101,146.817704 L87.2955101,148.186341 L76.7146709,148.186341 C72.9881981,148.186341 69.8547622,150.923615 69.2668718,154.442628 L67.1128573,168.720637 C64.7624835,168.91627 63,170.871409 63,173.222951 L63,185.539892 C63,187.104162 63.783458,188.472799 65.1544104,189.450171 L65.1544104,199.231399 C66.3293994,200.404404 67.8963153,201.186538 69.6587987,201.186538 C71.2253188,201.186538 72.9881981,200.404404 73.972766,199.231399 L73.972766,190.237838 L91.7998984,190.824341 L109.43661,190.237838 L109.43661,199.231399 C110.611599,200.404404 112.178515,201.186538 113.745035,201.186538 C115.507518,201.186538 117.074434,200.404404 118.249423,199.231399 L118.249423,189.450171 C119.620375,188.668431 120.403833,187.104162 120.403833,185.539892 L120.403833,173.222951 C120.403833,170.871409 118.64135,168.91627 116.290976,168.720637 L115.703482,164.419489 L133.73212,163.637354 L133.73212,172.630915 C134.907109,174.00469 136.473629,174.591588 138.040545,174.591588 C139.803028,174.591588 141.369944,174.00469 142.544933,172.630915 L142.544933,162.85522 C143.915885,162.073085 144.698948,160.704448 144.698948,159.140574 L144.698948,146.817704 Z M140.390523,112.787928 C158.027234,113.178798 158.419161,113.374431 158.419161,113.374431 C159.985681,113.374431 161.356633,112.005794 161.356633,110.44192 C161.356633,110.44192 161.356633,109.855417 160.573175,105.749507 C160.181644,102.811462 157.83127,100.660691 154.888256,100.269821 L145.683911,99.6833189 L134.907109,99.6833189 L125.696826,100.269821 C122.759354,100.660691 120.403833,102.811462 120.011906,105.749507 C119.424412,109.855417 119.424412,110.44192 119.424412,110.44192 C119.424412,112.005794 120.599797,113.374431 122.367427,113.374431 C122.367427,113.374431 122.56339,113.178798 140.390523,112.787928 L140.390523,112.787928 Z M95.7167923,132.344458 C96.1083233,129.411946 98.4638437,127.065542 101.401712,126.674673 L110.611599,126.08817 L121.388401,126.08817 L130.593141,126.674673 C133.536156,127.065542 135.886134,129.411946 136.278061,132.344458 C137.061123,136.450368 137.061123,136.841238 137.061123,136.841238 C137.061123,138.405507 135.690171,139.779282 134.123651,139.779282 C134.123651,139.779282 133.927687,139.779282 116.095408,139.19278 C98.2682761,139.779282 98.0723126,139.779282 98.0723126,139.779282 C96.3042868,139.779282 94.9333343,138.405507 94.9333343,136.841238 C94.9333343,136.841238 95.1292978,136.450368 95.7167923,132.14922 L95.7167923,132.344458 Z M71.4212822,158.749704 C71.8132091,155.816798 74.1687295,153.660888 77.106202,153.269624 L86.3160886,152.683121 L97.0877447,152.683121 L106.297631,153.269624 C109.235104,153.660888 111.59102,155.816798 111.982551,158.749704 C112.766009,162.85522 112.766009,163.246485 112.766009,163.246485 C112.766009,165.005991 111.395057,166.178996 109.828141,166.178996 C109.828141,166.178996 109.43661,166.178996 91.7998984,165.592494 C73.972766,166.178996 73.5756926,166.178996 73.5756926,166.178996 C72.0087767,166.178996 70.6378243,165.005991 70.6378243,163.246485 C70.6378243,163.246485 70.6378243,162.85522 71.4212822,158.749704 L71.4212822,158.749704 Z" id="Fill-91" fill="#1A1919"></path>
        </g>
    </g>
</svg>