<?xml version="1.0" encoding="UTF-8"?>
<svg width="475px" height="420px" viewBox="0 0 475 420" version="1.1" xmlns="http://www.w3.org/2000/svg" xmlns:xlink="http://www.w3.org/1999/xlink">
    <!-- Generator: Sketch 61.2 (89653) - https://sketch.com -->
    <title>warning-sign-zebra-crossing</title>
    <desc>Created with Sketch.</desc>
    <g id="warning-sign-zebra-crossing" stroke="none" stroke-width="1" fill="none" fill-rule="evenodd">
        <g id="Group">
            <polyline id="Fill-211" fill="#FFFFFE" points="162.752382 397 23.3985507 397 238.108906 25 451.398551 397"></polyline>
            <path d="M445.072719,420 C456.114783,420 466.789977,413.946789 472.128293,403.992013 C477.82197,394.393688 477.82197,382.29589 472.128293,372.696847 L265.323743,15.5933247 C259.729337,5.9454132 249.399432,0 238.219252,0 C227.049143,0 216.719238,5.9454132 211.114762,15.5933247 L4.67636141,372.696847 C-1.02738617,382.29589 -1.02738617,394.393688 4.67636141,403.992013 C10.3700381,413.946789 20.6898719,420 32.0872962,420 L445.072719,420 Z M50.2459165,378.029968 L426.558019,378.029968 L238.575332,52.2704803 L50.2459165,378.029968 Z" id="Fill-212" fill="#D0383F"></path>
            <path d="M254.667889,189.37222 C258.213202,197.538424 266.732128,206.0599 274.886275,212.815787 C283.040422,219.561627 293.33093,223.822723 295.812721,224.532547 C298.649257,225.242371 308.230989,227.373279 309.294511,227.373279 C310.35875,227.373279 312.131048,229.148197 313.19457,229.148197 C314.258092,229.148197 316.385136,227.373279 317.094629,224.532547 C317.803405,221.691816 320.285195,212.460517 315.67636,211.750693 C311.422272,211.040869 310.71278,212.815787 310.71278,212.815787 C310.71278,212.815787 305.395169,211.395422 303.966868,210.330327 C302.903346,209.265232 294.040423,204.639535 291.203886,201.799521 C288.722096,198.603519 282.685676,192.568222 279.849139,187.597301 C276.658573,181.561286 273.468007,171.965385 271.694992,168.41483 C269.567948,164.509004 265.31386,156.69807 262.123294,154.212609 C259.276724,151.371878 252.186099,144.971262 251.832069,144.615991 C251.477323,144.261438 251.477323,141.065436 252.186099,140.710883 C252.895591,140.355612 259.986216,136.449786 261.403768,133.254502 C262.832069,129.703947 264.959114,128.283581 264.959114,121.893013 C264.959114,115.492396 258.922694,102 244.741444,102 C230.550161,102 225.587297,113.006936 225.587297,120.827918 C225.587297,131.834136 232.677205,134.319597 230.904907,136.805057 C229.486639,138.580693 225.941326,138.225423 221.687238,138.580693 C217.06837,138.935246 206.787179,143.196343 201.823598,148.176594 C196.495955,153.147515 186.56951,164.153733 183.732973,170.189748 C180.542407,176.235812 175.214763,187.24203 173.087002,195.408235 C170.605929,203.219887 169.896436,208.200138 169.896436,211.040869 C169.896436,213.880882 169.18766,217.431437 169.18766,217.431437 C169.18766,217.431437 164.932855,219.916898 164.932855,222.756911 C164.932855,225.242371 169.542406,229.503468 171.669451,230.568563 C174.151241,231.633657 179.124138,233.408576 180.542407,233.408576 C182.314705,233.408576 187.633032,231.278387 187.633032,227.727832 C187.633032,224.532547 185.151241,219.207074 185.151241,216.366343 C185.151241,213.525611 188.696554,200.734426 190.114822,198.248966 C191.532374,195.763506 197.56951,186.176935 198.987778,184.75657 C200.40533,183.336922 202.88712,181.561286 202.88712,181.561286 C202.88712,192.212951 201.469569,217.076166 199.341808,224.532547 C197.20473,231.633657 186.923539,251.525953 183.024197,258.627063 C178.060616,266.803316 166.70587,283.845549 160.678767,290.592106 C155.00641,297.337946 146.4882,304.803657 145.069932,305.868752 C144.00641,306.579293 144.360439,308.354212 145.069932,310.129848 C146.133454,311.904767 156.778708,333.218145 157.133454,333.218145 C157.842947,333.218145 173.796495,336.41343 174.860017,336.41343 C175.568793,336.41343 176.642348,333.572698 174.860017,332.507604 C173.087002,331.79778 170.959958,331.442509 170.959958,331.442509 C169.542406,325.041892 168.124138,318.650606 166.351124,311.904767 C166.351124,311.904767 179.832914,299.478183 182.314705,296.272851 C185.151241,293.077567 199.341808,278.875346 202.178344,274.61425 C204.660135,270.709142 213.877804,258.27251 214.941326,255.076508 C216.359594,251.881223 222.396014,241.9401 222.396014,241.9401 C222.396014,241.9401 228.423117,247.265574 230.904907,250.460858 C233.031951,253.65686 242.96843,271.418965 245.095474,275.679344 C247.577264,279.58517 256.086158,299.478183 257.14968,303.738562 C258.567948,308.354212 272.758514,346 272.758514,346 C272.758514,346 305.749915,331.79778 307.167467,330.732685 C308.230989,330.022143 310.35875,326.462258 307.167467,326.462258 C303.966868,326.462258 283.759231,323.621527 283.759231,323.621527 C283.759231,323.621527 282.33093,312.260038 281.9769,309.419307 C281.622154,306.224022 276.658573,283.845549 274.886275,279.58517 C273.113261,275.679344 264.604367,255.787049 262.832069,253.65686 C260.694992,251.525953 254.667889,234.119118 253.249621,230.213292 C251.832069,226.307466 249.705025,215.301248 249.705025,211.040869 C249.705025,206.425219 251.832069,194.698411 254.667889,189.37222" id="Fill-213" fill="#1A1919"></path>
            <polygon id="Stroke-214" fill="#1A1919" fill-rule="nonzero" points="125.398551 360 125.398551 367 112.398551 367 112.398551 360"></polygon>
            <polygon id="Stroke-215" fill="#1A1919" fill-rule="nonzero" points="152.398551 360 152.398551 367 139.398551 367 139.398551 360"></polygon>
            <polygon id="Stroke-216" fill="#1A1919" fill-rule="nonzero" points="178.398551 360 178.398551 367 165.398551 367 165.398551 360"></polygon>
            <polygon id="Stroke-217" fill="#1A1919" fill-rule="nonzero" points="204.398551 360 204.398551 367 191.398551 367 191.398551 360"></polygon>
            <polygon id="Stroke-218" fill="#1A1919" fill-rule="nonzero" points="231.398551 360 231.398551 367 218.398551 367 218.398551 360"></polygon>
            <polygon id="Stroke-219" fill="#1A1919" fill-rule="nonzero" points="257.398551 360 257.398551 367 244.398551 367 244.398551 360"></polygon>
            <polygon id="Stroke-220" fill="#1A1919" fill-rule="nonzero" points="284.398551 360 284.398551 367 271.398551 367 271.398551 360"></polygon>
            <polygon id="Stroke-221" fill="#1A1919" fill-rule="nonzero" points="310.398551 360 310.398551 367 297.398551 367 297.398551 360"></polygon>
            <polygon id="Stroke-222" fill="#1A1919" fill-rule="nonzero" points="336.398551 360 336.398551 367 323.398551 367 323.398551 360"></polygon>
            <polygon id="Stroke-223" fill="#1A1919" fill-rule="nonzero" points="100.398551 360 100.398551 367 87.3985507 367 87.3985507 360"></polygon>
            <polygon id="Stroke-224" fill="#1A1919" fill-rule="nonzero" points="363.398551 360 363.398551 367 350.398551 367 350.398551 360"></polygon>
            <polygon id="Stroke-225" fill="#1A1919" fill-rule="nonzero" points="389.398551 360 389.398551 367 376.398551 367 376.398551 360"></polygon>
            <polygon id="Stroke-226" fill="#1A1919" fill-rule="nonzero" points="125.398551 304 125.398551 311 112.398551 311 112.398551 304"></polygon>
            <polygon id="Stroke-227" fill="#1A1919" fill-rule="nonzero" points="178.398551 304 178.398551 311 165.398551 311 165.398551 304"></polygon>
            <polygon id="Stroke-228" fill="#1A1919" fill-rule="nonzero" points="204.398551 304 204.398551 311 191.398551 311 191.398551 304"></polygon>
            <polygon id="Stroke-229" fill="#1A1919" fill-rule="nonzero" points="231.398551 304 231.398551 311 218.398551 311 218.398551 304"></polygon>
            <polygon id="Stroke-230" fill="#1A1919" fill-rule="nonzero" points="257.398551 304 257.398551 311 244.398551 311 244.398551 304"></polygon>
            <polygon id="Stroke-231" fill="#1A1919" fill-rule="nonzero" points="310.398551 304 310.398551 311 297.398551 311 297.398551 304"></polygon>
            <polygon id="Stroke-232" fill="#1A1919" fill-rule="nonzero" points="336.398551 304 336.398551 311 323.398551 311 323.398551 304"></polygon>
            <polygon id="Stroke-233" fill="#1A1919" fill-rule="nonzero" points="363.398551 304 363.398551 311 350.398551 311 350.398551 304"></polygon>
        </g>
    </g>
</svg>