<?xml version="1.0" encoding="UTF-8"?>
<svg width="475px" height="420px" viewBox="0 0 475 420" version="1.1" xmlns="http://www.w3.org/2000/svg" xmlns:xlink="http://www.w3.org/1999/xlink">
    <!-- Generator: Sketch 61.2 (89653) - https://sketch.com -->
    <title>warning-sign-level-crossing-ahead-barrier-or-gate</title>
    <desc>Created with Sketch.</desc>
    <g id="warning-sign-level-crossing-ahead-barrier-or-gate" stroke="none" stroke-width="1" fill="none" fill-rule="evenodd">
        <g id="Group">
            <polyline id="Fill-308" fill="#FFFFFE" points="107.453619 388.202441 21.8405339 388.202441 234.992669 16.9032203 452.732771 388.202441"></polyline>
            <path d="M439.692839,416.022814 C450.609992,416.022814 460.832364,410.036034 466.466771,400.528373 C472.111144,391.02 472.111144,379.036475 466.466771,369.176441 L262.333958,15.9058983 C256.836229,6.07433898 246.525585,0 235.345042,0 C224.173754,0 213.863822,6.07433898 208.366093,15.9058983 L4.23327966,369.176441 C-1.41109322,379.036475 -1.41109322,391.02 4.23327966,400.528373 C9.86768644,410.036034 20.0800932,416.022814 31.3588729,416.022814 L439.692839,416.022814 Z M49.3284661,374.458475 L421.370873,374.458475 L235.345042,52.1284068 L49.3284661,374.458475 Z" id="Fill-309" fill="#D0383F"></path>
            <path d="M334.702093,327.260441 L341.392907,327.260441 L341.392907,344.163661 L334.702093,344.163661 L334.702093,360.724475 L308.280534,360.724475 L308.280534,344.163661 L291.719008,344.163661 L291.719008,360.724475 L265.297449,360.724475 L265.297449,344.163661 L248.736636,344.163661 L248.736636,360.724475 L222.315076,360.724475 L222.315076,344.163661 L205.40189,344.163661 L205.40189,360.724475 L179.332703,360.724475 L179.332703,344.163661 L162.419517,344.163661 L162.419517,360.724475 L136.350331,360.724475 L136.350331,344.163661 L129.297178,344.163661 L129.297178,327.260441 L136.350331,327.260441 L136.350331,281.460508 L129.297178,281.460508 L129.297178,264.898983 L136.350331,264.898983 L136.350331,255.391322 L149.379585,238.48739 L162.419517,255.391322 L162.419517,264.898983 L179.332703,264.898983 L179.332703,255.391322 L192.362669,238.48739 L205.40189,255.391322 L205.40189,264.898983 L222.315076,264.898983 L222.315076,255.391322 L235.345042,238.48739 L248.736636,255.391322 L248.736636,264.898983 L265.297449,264.898983 L265.297449,255.391322 L278.327415,238.48739 L291.719008,255.391322 L291.719008,264.898983 L308.280534,264.898983 L308.280534,255.391322 L321.309788,238.48739 L334.702093,255.391322 L334.702093,264.898983 L341.392907,264.898983 L341.392907,281.460508 L334.702093,281.460508 L334.702093,327.260441 L334.702093,281.460508 L334.702093,327.260441 Z M162.419517,327.260441 L179.332703,327.260441 L179.332703,281.460508 L162.419517,281.460508 L162.419517,327.260441 Z M205.40189,327.260441 L222.315076,327.260441 L222.315076,281.460508 L205.40189,281.460508 L205.40189,327.260441 Z M248.736636,327.260441 L265.297449,327.260441 L265.297449,281.460508 L248.736636,281.460508 L248.736636,327.260441 Z M291.719008,327.260441 L308.280534,327.260441 L308.280534,281.460508 L291.719008,281.460508 L291.719008,327.260441 Z" id="Fill-310" fill="#1A1919"></path>
        </g>
    </g>
</svg>