<?xml version="1.0" encoding="UTF-8"?>
<svg width="475px" height="420px" viewBox="0 0 475 420" version="1.1" xmlns="http://www.w3.org/2000/svg" xmlns:xlink="http://www.w3.org/1999/xlink">
    <!-- Generator: Sketch 61.2 (89653) - https://sketch.com -->
    <title>warning-sign-steep-hill-upwards</title>
    <desc>Created with Sketch.</desc>
    <g id="warning-sign-steep-hill-upwards" stroke="none" stroke-width="1" fill="none" fill-rule="evenodd">
        <g id="Group-3">
            <polyline id="Fill-41" fill="#FFFFFE" points="107.815958 389.962881 22.9069068 389.962881 234.288636 23.2516271 447.098364 389.962881"></polyline>
            <path d="M439.692839,416.03278 C450.971619,416.03278 461.184737,410.046 466.819144,400.176 C472.463517,390.667627 472.463517,378.694068 466.819144,369.176441 L262.177347,15.4552881 C256.631212,5.88854237 246.408839,0 235.355008,0 C224.291212,0 214.068839,5.88854237 208.522703,15.4552881 L4.23327966,369.176441 C-1.41109322,378.694068 -1.41109322,390.667627 4.23327966,400.176 C9.86768644,410.046 20.0800932,416.03278 31.3588729,416.03278 L439.692839,416.03278 Z M49.3284661,374.458475 L421.723246,374.458475 L235.706669,51.786 L49.3284661,374.458475 Z" id="Fill-42" fill="#D0383F"></path>
            <path d="M155.023958,268.782203 L144.097551,274.064949 C139.167178,264.908949 139.167178,250.81261 155.023958,242.713017 C170.51911,235.318169 180.741483,246.939356 182.854297,251.869017 C185.319483,256.456983 189.193449,265.965356 175.81111,287.456542 L195.189483,277.938915 L199.767483,287.456542 L161.715483,305.768542 L157.137483,296.260169 C168.053924,276.881797 176.163483,265.612983 172.289517,257.865763 C170.166737,253.277797 164.179958,250.460949 158.19389,253.630169 C152.20711,256.456983 152.20711,263.500169 155.023958,268.782203" id="Fill-43" fill="#1A1919"></path>
            <path d="M211.036297,229.33139 C216.328297,226.513831 223.371483,226.866203 230.414669,240.600203 C237.115449,253.982542 233.936263,260.68261 227.597822,263.852542 C221.611042,266.66939 214.215483,264.908949 207.867076,251.517356 C201.528636,237.783356 205.40189,231.796576 211.036297,229.33139 M206.106636,219.46139 C213.511449,215.587424 230.414669,212.770576 241.341788,235.669831 C252.258229,258.218136 240.989415,269.486949 232.527483,273.712576 C224.42789,277.586542 208.219449,279.699356 197.302297,257.161729 C186.023517,234.261763 198.711076,222.982983 206.106636,219.46139" id="Fill-44" fill="#1A1919"></path>
            <path d="M251.554195,200.797017 C254.019381,199.74061 257.198568,200.092271 260.367788,206.079051 C263.537008,212.418203 262.128229,215.235051 259.311381,216.643831 C256.141449,218.05261 252.962975,217.348576 250.145415,211.009424 C246.976195,205.022644 248.736636,202.205797 251.554195,200.797017 M249.089008,196.57139 C252.610602,194.810237 260.367788,193.392203 265.298161,203.966237 C270.580195,214.178644 265.298161,219.46139 261.424195,221.221831 C257.550229,223.334644 250.145415,224.391051 245.215042,213.826983 C239.933008,203.262203 245.567415,197.979458 249.089008,196.57139" id="Fill-45" fill="#1A1919"></path>
            <path d="M292.071381,216.291458 C294.536568,215.235051 297.705788,215.587424 300.884975,221.574203 C304.054195,227.92261 302.646127,230.740169 299.828568,232.148237 C296.649381,233.557017 293.480161,232.852983 290.662602,226.513831 C287.493381,220.517797 289.606195,217.700237 292.071381,216.291458 M289.958568,212.065831 C293.127788,210.30539 300.884975,208.89661 305.815347,219.46139 C311.097381,229.683763 305.815347,234.965797 301.941381,236.726237 C298.058161,238.839763 290.662602,239.543797 285.732941,229.33139 C280.450195,218.756644 286.436975,213.47461 289.958568,212.065831" id="Fill-46" fill="#1A1919"></path>
            <polyline id="Fill-47" fill="#1A1919" points="266.706229 255.742983 264.593415 256.456983 278.337381 181.066271 285.028195 177.544678 271.284229 253.277797 268.819754 254.334203"></polyline>
            <polygon id="Fill-48" fill="#1A1919" points="69.4115847 359.668068 394.24528 359.315695 323.080907 235.669831"></polygon>
            <polygon id="Stroke-49" stroke="#1A1919" stroke-width="0.036" points="69.4103738 359.669758 394.244535 359.317602 323.079765 235.671871"></polygon>
        </g>
    </g>
</svg>