<?xml version="1.0" encoding="UTF-8"?>
<svg width="475px" height="420px" viewBox="0 0 475 420" version="1.1" xmlns="http://www.w3.org/2000/svg" xmlns:xlink="http://www.w3.org/1999/xlink">
    <!-- Generator: Sketch 61.2 (89653) - https://sketch.com -->
    <title>warning-sign-frail-pedestrians-cross-road-ahead</title>
    <desc>Created with Sketch.</desc>
    <g id="warning-sign-frail-pedestrians-cross-road-ahead" stroke="none" stroke-width="1" fill="none" fill-rule="evenodd">
        <g id="Group-5">
            <polyline id="Fill-185" fill="#FFFFFE" points="154.664822 391.372373 21.4913644 391.372373 235.347534 19.7207797 446.738517 391.372373"></polyline>
            <path d="M440.037737,416.03278 C450.964856,416.03278 461.177263,410.036746 466.821636,400.176 C472.456042,390.668339 472.456042,378.684814 466.821636,369.176441 L262.169873,15.4460339 C256.623737,5.88925424 246.401364,2.02324033e-13 235.347534,2.02324033e-13 C224.283737,2.02324033e-13 214.071331,5.88925424 208.525195,15.4460339 L4.22580508,369.176441 C-1.40860169,378.684814 -1.40860169,390.668339 4.22580508,400.176 C9.50783898,410.036746 20.0825847,416.03278 30.9990254,416.03278 L440.037737,416.03278 Z M49.3209915,374.459186 L421.725737,374.459186 L235.347534,51.7767458 L49.3209915,374.459186 Z" id="Fill-186" fill="#D0383F"></path>
            <path d="M206.450822,307.529695 C206.450822,329.020881 200.816415,352.263254 200.464754,354.024407 C199.760008,355.442441 198.351229,355.442441 196.943161,355.080814 C195.886754,354.728441 188.138822,351.206847 186.016042,350.855186 C184.255602,350.150441 184.607975,348.39 184.255602,347.333593 L179.325229,321.616068 L183.550856,321.616068 C181.086381,306.473288 176.156008,285.334475 176.156008,273.713288 C176.156008,262.082136 179.677602,250.460949 180.029975,249.052169 C180.381636,247.644102 182.846822,243.417763 186.016042,246.939356 C189.547602,250.813322 194.829636,254.334915 199.407636,255.391322 C200.464754,255.743695 201.872822,256.095356 201.872822,256.095356 L201.872822,263.138542 C201.872822,274.417322 206.450822,286.390881 206.450822,307.529695 M253.317127,349.798068 C253.317127,349.798068 242.038347,289.207729 241.685975,286.743254 C240.981941,283.925695 239.573161,278.643661 239.573161,268.078881 C239.573161,242.361356 253.6695,224.391763 254.373534,223.687729 C254.725907,223.335356 256.83872,220.870169 259.65628,224.391763 C262.8255,228.969763 271.991466,240.953288 275.513059,244.474169 C278.68228,247.644102 285.373093,254.334915 295.947839,262.434508 C293.482653,264.909661 293.834314,267.726508 293.834314,267.726508 C295.243093,267.726508 297.004246,267.726508 298.764686,267.374136 C298.764686,267.374136 298.412314,265.966068 299.117059,264.909661 C300.173466,265.613695 303.695059,268.430542 306.511907,268.782915 L291.359873,359.316407 L295.243093,360.372814 L310.385873,269.135288 C313.203432,268.782915 314.973839,266.670102 314.973839,265.251356 C314.973839,263.490915 314.269093,262.082136 312.147025,260.673356 C309.681839,258.912915 296.651873,249.404542 286.4295,236.374576 C279.738686,227.209322 271.639093,214.531729 265.99472,192.335797 C265.290686,189.166576 267.4035,188.110169 268.107534,188.110169 C269.163941,188.110169 270.57272,188.461831 271.991466,188.461831 C283.964314,188.461831 287.83828,178.601797 287.83828,173.671424 C287.83828,168.731797 283.612653,156.758237 270.220347,156.758237 C258.2475,156.758237 253.317127,168.379424 253.317127,173.671424 C253.317127,177.193017 252.26072,177.897763 250.499568,178.601797 C246.263975,181.066983 236.051568,184.940949 223.364008,200.083017 C207.165534,218.757356 204.690381,240.600915 204.690381,240.600915 C204.690381,240.600915 203.633975,239.896169 202.577568,239.544508 C195.182008,237.431695 190.604008,228.265729 190.604008,222.278949 C190.604008,216.292169 196.943161,201.491797 196.943161,201.140136 C197.294822,200.43539 197.999568,199.378983 200.464754,199.02661 C212.095195,197.970203 214.912754,185.644983 214.912754,182.12339 C214.912754,178.601797 211.743534,165.562576 197.647195,165.562576 C183.550856,165.562576 180.734008,178.601797 180.734008,182.475763 C180.734008,185.997356 181.438042,187.405424 181.438042,189.166576 C181.438042,190.575356 180.029975,191.983424 178.621195,193.392203 C151.847263,216.996915 126.48211,260.321695 126.834483,321.616068 L139.159703,321.616068 L136.342856,360.372814 L159.242822,360.372814 C163.468449,360.372814 162.764415,356.85122 160.651602,356.147186 C157.481669,354.728441 150.790856,352.263254 149.734449,351.911593 C148.678042,351.206847 147.621636,350.150441 148.678042,347.333593 L155.368856,321.616068 L164.173195,321.616068 L176.860042,360.372814 L228.646754,360.372814 C229.713127,360.372814 231.121907,359.66878 231.825941,358.26 C232.178314,356.85122 230.064788,355.794814 229.360754,355.442441 C228.646754,355.442441 222.659975,352.968 221.955941,352.263254 C221.603568,351.911593 220.194788,351.206847 220.547161,349.094034 C220.899534,347.333593 224.772788,329.373254 224.772788,308.586102 C227.237975,314.925254 231.121907,324.433627 233.586381,333.598881 C236.403941,342.755593 239.220788,355.442441 239.573161,357.907627 C240.277907,360.725186 242.39072,360.372814 242.39072,360.372814 L264.585941,360.372814 C265.642347,360.372814 267.051127,359.316407 267.051127,357.907627 C267.051127,356.147186 265.290686,355.442441 265.290686,355.442441 C265.290686,355.442441 256.134686,352.615627 254.725907,352.263254 C253.317127,351.911593 253.317127,350.855186 253.317127,349.798068" id="Fill-187" fill="#1A1919"></path>
        </g>
    </g>
</svg>