<?xml version="1.0" encoding="UTF-8"?>
<svg width="475px" height="420px" viewBox="0 0 475 420" version="1.1" xmlns="http://www.w3.org/2000/svg" xmlns:xlink="http://www.w3.org/1999/xlink">
    <!-- Generator: Sketch 61.2 (89653) - https://sketch.com -->
    <title>warning-sign-road-narrow-both-sides</title>
    <desc>Created with Sketch.</desc>
    <g id="warning-sign-road-narrow-both-sides" stroke="none" stroke-width="1" fill="none" fill-rule="evenodd">
        <g id="Group">
            <polyline id="Fill-95" fill="#FFFFFE" points="120.144203 398.415559 24.3087458 398.415559 234.290949 26.0599322 446.739051 398.415559"></polyline>
            <path d="M440.048237,416.023525 C450.964678,416.023525 461.187051,410.036746 466.821458,400.528373 C472.455864,391.010746 472.455864,379.037186 466.821458,369.176441 L262.336271,15.9058983 C256.829288,6.07505085 246.518644,-2.02324033e-13 235.348068,-2.02324033e-13 C224.235153,-2.02324033e-13 213.964373,6.0159661 208.446712,15.7692203 L4.22633898,369.176441 C-1.40877966,379.037186 -1.40877966,391.010746 4.22633898,400.528373 C9.86074576,410.036746 20.0831186,416.023525 31.3519322,416.023525 L440.048237,416.023525 Z M49.3215254,374.459186 L421.726271,374.459186 L235.699729,52.1291186 L49.3215254,374.459186 Z" id="Fill-96" fill="#D0383F"></path>
            <path d="M273.752441,281.108847 L273.752441,360.71522 L305.103661,360.71522 L305.103661,281.108847 C305.103661,265.603729 298.060475,252.222102 293.130814,245.531288 C288.200441,238.830508 285.021254,234.604169 282.908441,232.138983 C282.908441,232.138983 277.274034,225.448169 277.274034,215.235763 L277.274034,145.831831 L277.274034,215.235763 L277.274034,145.831831 L245.922102,145.831831 L245.922102,215.235763 C245.922102,230.730915 252.612915,243.770136 257.895661,250.460949 C262.826034,257.504136 266.00522,261.378102 268.118034,264.194949 C268.118034,264.194949 273.752441,270.895729 273.752441,281.108847 L273.752441,360.71522" id="Fill-97" fill="#1A1919"></path>
            <path d="M197.647729,281.108847 L197.647729,360.71522 L166.295797,360.71522 L166.295797,281.108847 C166.295797,265.603729 172.98661,252.222102 178.269356,245.531288 C183.208983,238.830508 186.378915,234.604169 188.491729,232.138983 C188.491729,232.138983 194.126136,225.448169 194.126136,215.235763 L194.126136,145.831831 L194.126136,215.235763 L194.126136,145.831831 L225.134949,145.831831 L225.134949,215.235763 C225.487322,230.730915 218.434169,243.770136 213.504508,250.460949 C208.221763,257.504136 205.404915,261.378102 203.292102,264.194949 C202.939729,264.194949 197.647729,270.895729 197.647729,281.108847 L197.647729,360.71522" id="Fill-98" fill="#1A1919"></path>
        </g>
    </g>
</svg>