<?xml version="1.0" encoding="UTF-8"?>
<svg width="475px" height="420px" viewBox="0 0 475 420" version="1.1" xmlns="http://www.w3.org/2000/svg" xmlns:xlink="http://www.w3.org/1999/xlink">
    <!-- Generator: Sketch 61.2 (89653) - https://sketch.com -->
    <title>warning-sign-dual-carriageway-ends</title>
    <desc>Created with Sketch.</desc>
    <g id="warning-sign-dual-carriageway-ends" stroke="none" stroke-width="1" fill="none" fill-rule="evenodd">
        <g id="Group-4">
            <polyline id="Fill-175" fill="#FFFFFE" points="109.214771 390.315254 24.3057203 390.315254 235.697415 23.5940339 448.144805 390.315254"></polyline>
            <path d="M440.045212,416.022814 C450.972331,416.022814 461.536398,410.036034 466.819144,400.528373 C472.453551,391.02 472.453551,379.036475 466.819144,369.528814 L262.333958,15.9058983 C256.826975,6.07433898 246.526297,-1.01162017e-13 235.345042,-1.01162017e-13 C224.232839,-1.01162017e-13 213.971314,6.0159661 208.444398,15.7685085 L4.23327966,369.528814 C-1.41109322,379.036475 -1.41109322,391.02 4.23327966,400.528373 C9.86768644,410.036034 20.0800932,416.022814 31.3588729,416.022814 L440.045212,416.022814 Z M49.3284661,374.458475 L421.723246,374.458475 L235.697415,52.1284068 L49.3284661,374.458475 Z" id="Fill-176" fill="#D0383F"></path>
            <path d="M259.301415,118.011458 L259.301415,173.661458 C259.301415,178.601797 260.015415,181.418644 262.128229,185.644271 C271.988975,204.308644 282.211347,223.335356 292.423754,242.361356 C295.945347,248.348136 297.354127,255.038949 297.354127,261.729763 L297.354127,263.842576 L297.354127,360.724475 L255.779822,360.724475 L255.779822,263.842576 L255.779822,262.082136 C255.779822,258.208169 255.075788,256.447729 253.314636,253.277797 C249.441381,246.586983 245.567415,239.896169 241.341788,232.843017 C239.933008,230.377831 237.810229,228.969763 234.992669,228.969763 C232.528195,228.969763 230.063008,230.377831 229.006602,232.843017 C225.132636,239.543797 221.258669,246.235322 217.033042,253.277797 C215.262636,256.447729 214.55789,258.208169 214.206229,261.729763 L214.206229,263.842576 L214.206229,360.724475 L172.631924,360.724475 L172.631924,263.842576 L172.631924,261.729763 C172.631924,255.038949 174.402331,248.348136 177.572263,242.361356 C187.432297,223.687017 197.654669,204.661017 207.867076,185.644271 C209.97989,181.418644 210.684636,178.601797 210.684636,173.661458 L210.684636,118.011458 L259.301415,118.011458" id="Fill-177" fill="#1A1919"></path>
        </g>
    </g>
</svg>