<?xml version="1.0" encoding="UTF-8"?>
<svg width="475px" height="420px" viewBox="0 0 475 420" version="1.1" xmlns="http://www.w3.org/2000/svg" xmlns:xlink="http://www.w3.org/1999/xlink">
    <!-- Generator: Sketch 61.2 (89653) - https://sketch.com -->
    <title>warning-sign-crossroads</title>
    <desc>Created with Sketch.</desc>
    <g id="warning-sign-crossroads" stroke="none" stroke-width="1" fill="none" fill-rule="evenodd">
        <g id="Group">
            <polyline id="Fill-68" fill="#FFFFFE" points="106.941279 391.840465 21.105 391.840465 234.640814 18.2846512 448.176628 391.840465 329.980814 391.840465"></polyline>
            <path d="M439.38593,415.409302 C450.647791,415.409302 460.845,409.42186 466.471047,399.576279 C472.10686,390.082326 472.10686,378.117209 466.471047,368.623256 L262.458488,15.4716279 C256.871512,5.89953488 246.537558,-2.77607394e-13 235.34407,-2.77607394e-13 C224.160349,-2.77607394e-13 213.826395,5.89953488 208.229651,15.4716279 L4.22686047,368.623256 C-1.40895349,378.117209 -1.40895349,390.082326 4.22686047,399.576279 C9.85290698,409.42186 20.0501163,415.409302 31.3119767,415.409302 L439.38593,415.409302 Z M49.2547674,373.897674 L421.44314,373.897674 L235.34407,51.7088372 L49.2547674,373.897674 Z" id="Fill-69" fill="#D0383F"></path>
            <polygon id="Fill-70" fill="#1A1919" points="269.82314 178.685581 235.34407 143.864651 200.874767 178.685581 200.874767 248.67907 149.507791 248.67907 149.507791 283.851628 200.874767 283.851628 200.874767 359.832558 269.82314 359.832558 269.82314 283.851628 321.883605 283.851628 321.883605 248.67907 269.82314 248.67907"></polygon>
        </g>
    </g>
</svg>