<?xml version="1.0" encoding="UTF-8"?>
<svg width="475px" height="420px" viewBox="0 0 475 420" version="1.1" xmlns="http://www.w3.org/2000/svg" xmlns:xlink="http://www.w3.org/1999/xlink">
    <!-- Generator: Sketch 61.2 (89653) - https://sketch.com -->
    <title>warning-sign-accompanied-horses</title>
    <desc>Created with Sketch.</desc>
    <g id="warning-sign-accompanied-horses" stroke="none" stroke-width="1" fill="none" fill-rule="evenodd">
        <g id="Group">
            <polyline id="Fill-78" fill="#FFFFFE" points="115.734419 389.730698 23.5688372 389.730698 233.236744 27.4367442 448.17907 389.730698"></polyline>
            <path d="M439.388372,415.409302 C450.288837,415.409302 460.495814,409.431628 466.12186,399.927907 C471.747907,390.433953 471.747907,378.478605 466.12186,368.623256 L261.943256,15.8916279 C256.444186,6.07534884 246.149302,3.05368134e-12 234.994884,3.05368134e-12 C223.89907,3.05368134e-12 213.643256,6.00697674 208.134419,15.7451163 L4.21953488,368.623256 C-1.40651163,378.478605 -1.40651163,390.433953 4.21953488,399.927907 C9.8455814,409.431628 20.0525581,415.409302 30.9530233,415.409302 L439.388372,415.409302 Z M49.2474419,373.897674 L421.093953,373.897674 L234.994884,52.0604651 L49.2474419,373.897674 Z" id="Fill-79" fill="#D0383F"></path>
            <path d="M205.8,246.92093 C205.8,245.866047 204.393488,241.646512 204.04186,239.185116 C203.690233,237.075349 203.338605,232.152558 203.338605,229.691163 C203.338605,227.229767 203.338605,225.471628 203.690233,223.000465 C204.04186,220.53907 204.745116,215.967907 205.8,212.451628 C206.503256,208.935349 207.909767,205.41907 210.019535,202.254419 C212.129302,199.089767 216.348837,197.683256 216.348837,197.683256 C216.348837,197.683256 215.293953,194.518605 214.590698,193.102326 C214.23907,192.047442 214.23907,187.827907 214.23907,187.827907 C214.23907,187.827907 213.535814,187.476279 212.48093,187.124651 C212.48093,184.663256 214.23907,179.037209 214.590698,178.333953 C214.942326,177.630698 215.997209,174.114419 220.568372,174.114419 C225.50093,174.114419 225.852558,176.224186 226.555814,177.630698 C227.25907,178.685581 228.313953,182.20186 228.313953,182.20186 C229.720465,182.905116 231.126977,183.608372 232.885116,184.663256 C232.885116,184.663256 229.368837,186.069767 229.017209,186.069767 L229.017209,188.882791 C229.017209,189.234419 229.017209,191.695814 228.665581,193.102326 C228.313953,194.166977 225.852558,194.870233 225.149302,195.573488 C224.797674,195.573488 224.446047,198.034884 226.555814,199.793023 C228.313953,201.551163 230.775349,206.825581 231.478605,207.880465 C232.533488,209.286977 233.94,218.78093 233.94,220.187442 C233.94,221.593953 233.236744,225.823256 233.236744,225.823256 C236.753023,229.691163 240.269302,233.55907 244.137209,237.778605 C244.137209,237.778605 246.256744,238.130233 246.96,238.130233 C247.663256,238.130233 249.773023,238.833488 249.773023,238.833488 C249.773023,238.833488 251.882791,235.668837 254.344186,233.55907 C256.805581,231.449302 259.618605,229.339535 262.431628,227.229767 C265.244651,225.471628 270.528837,222.648837 275.1,220.53907 C280.022791,218.429302 286.000465,217.022791 289.526512,216.319535 C291.636279,215.967907 301.130233,215.967907 302.185116,215.616279 C302.888372,215.616279 308.162791,214.209767 309.227442,213.506512 C310.633953,213.154884 314.50186,212.803256 314.50186,212.803256 C314.50186,212.803256 313.798605,214.209767 313.798605,214.913023 C313.446977,215.616279 311.688837,217.022791 311.688837,217.022791 C311.688837,217.022791 313.798605,216.319535 314.853488,217.022791 C315.908372,217.374419 316.611628,218.78093 316.611628,218.78093 C316.611628,218.78093 314.50186,219.132558 313.798605,219.132558 C313.446977,219.484186 311.337209,220.187442 311.337209,220.187442 C311.337209,220.187442 311.688837,222.648837 311.688837,223.713488 C311.688837,224.416744 313.798605,227.229767 314.50186,228.284651 C315.205116,229.339535 316.26,233.207442 316.26,235.668837 C315.908372,238.833488 315.205116,240.591628 315.205116,242.701395 C315.205116,244.811163 316.611628,248.327442 316.611628,248.67907 C316.611628,249.382326 316.26,250.788837 315.908372,251.492093 C315.908372,252.195349 316.963256,256.424651 316.963256,257.831163 C316.963256,258.886047 316.611628,262.402326 316.26,263.105581 C315.908372,263.808837 316.26,265.566977 315.908372,265.918605 C315.556744,266.270233 313.798605,266.62186 312.743721,266.270233 C312.040465,265.918605 310.282326,264.512093 309.930698,264.512093 C309.227442,264.512093 307.459535,265.215349 306.756279,264.863721 C306.404651,264.512093 304.99814,263.808837 304.646512,263.105581 C304.294884,262.402326 303.591628,260.292558 303.591628,259.237674 C303.591628,258.182791 303.591628,254.666512 303.24,253.60186 C302.888372,252.898605 299.723721,251.492093 298.668837,250.788837 C297.613953,250.437209 295.152558,248.327442 295.152558,248.327442 C294.097674,248.327442 293.042791,248.67907 291.987907,249.030698 C291.987907,249.030698 291.987907,256.776279 289.87814,262.050698 C287.758605,266.973488 283.187442,271.193023 283.187442,271.193023 C283.187442,271.193023 282.484186,279.280465 282.835814,280.335349 C282.835814,281.74186 281.78093,287.026047 281.78093,288.432558 C281.429302,290.190698 281.78093,291.948837 281.78093,293.003721 C281.78093,294.058605 283.890698,296.871628 284.593953,297.574884 C285.297209,297.926512 291.636279,303.20093 292.691163,304.255814 C293.746047,305.662326 300.075349,313.046512 300.778605,313.759535 C301.48186,314.453023 302.185116,317.627442 302.185116,318.330698 C302.185116,319.033953 304.646512,323.605116 305.349767,324.66 C306.053023,325.714884 309.227442,332.044186 309.930698,333.450698 C310.282326,334.505581 311.337209,338.725116 311.688837,341.186512 C312.040465,343.296279 309.227442,349.283721 308.514419,350.690233 C307.811163,351.745116 305.349767,355.613023 305.349767,355.613023 C305.349767,355.613023 302.888372,352.8 302.536744,352.448372 C302.185116,351.745116 299.723721,348.932093 299.723721,347.877209 C299.723721,346.470698 304.294884,343.647907 304.294884,343.647907 C304.294884,343.647907 303.943256,342.241395 303.943256,341.889767 C303.591628,341.186512 303.24,340.483256 302.888372,339.428372 C302.888372,339.428372 302.185116,332.747442 300.778605,329.934419 C299.723721,327.121395 296.207442,322.550233 294.449302,320.440465 C292.691163,318.682326 285.648837,312.694884 283.187442,310.585116 C280.726047,308.123721 270.177209,301.794419 270.177209,301.794419 C270.177209,301.794419 266.66093,306.365581 265.947907,307.772093 C265.596279,309.178605 264.893023,314.453023 264.541395,315.517674 C264.189767,316.572558 263.134884,320.440465 262.431628,321.495349 C261.728372,322.90186 255.047442,332.395814 253.992558,333.802326 C253.289302,335.208837 252.234419,338.02186 251.882791,339.076744 C251.179535,340.483256 251.179535,346.470698 251.882791,347.525581 C252.234419,348.580465 256.102326,353.503256 256.453953,354.206512 C256.805581,354.909767 257.157209,356.316279 257.157209,357.019535 C257.157209,357.371163 254.344186,358.777674 253.289302,359.129302 C252.586047,359.48093 248.366512,360.184186 248.014884,360.184186 C247.311628,360.184186 245.553488,360.184186 244.137209,359.832558 C244.137209,358.777674 245.553488,356.316279 245.553488,354.55814 C245.192093,352.8 241.675814,351.04186 242.027442,348.932093 C242.37907,347.525581 242.730698,346.11907 243.433953,345.064186 C243.785581,343.999535 245.905116,338.373488 246.608372,337.318605 C246.96,336.615349 247.311628,331.34093 247.663256,328.176279 C248.014884,325.011628 250.476279,317.627442 250.827907,316.572558 C251.179535,315.517674 253.992558,310.936744 253.992558,310.233488 C253.992558,309.530233 253.289302,306.717209 253.289302,305.310698 C253.64093,303.904186 253.992558,298.981395 253.992558,298.981395 C253.992558,298.981395 239.917674,302.497674 225.852558,302.497674 C211.777674,302.497674 193.834884,296.871628 189.615349,295.113488 C189.615349,295.113488 183.989302,300.036279 184.34093,300.036279 C184.34093,300.036279 185.044186,301.091163 185.044186,304.607442 C185.044186,308.123721 180.463256,316.22093 180.111628,316.924186 C179.76,317.627442 179.76,319.385581 179.76,320.088837 C180.111628,320.440465 181.879535,326.769767 182.231163,328.176279 C182.582791,329.231163 183.286047,336.263721 182.934419,336.966977 C182.934419,337.670233 189.263721,343.647907 190.318605,344.36093 C191.02186,344.712558 198.406047,353.503256 199.109302,354.206512 C199.812558,355.261395 200.515814,356.667907 200.515814,357.722791 C200.515814,358.777674 199.46093,360.184186 197.351163,359.832558 C195.593023,359.832558 191.02186,359.832558 189.966977,359.48093 C188.912093,359.129302 188.560465,357.722791 187.857209,356.316279 C187.153953,354.909767 187.505581,353.151628 187.153953,352.096744 C186.450698,351.04186 185.747442,350.338605 182.231163,350.338605 C178.705116,350.338605 179.056744,348.932093 179.056744,347.877209 C178.705116,346.470698 178.705116,340.834884 178.353488,339.428372 C178.00186,338.02186 176.595349,331.692558 176.243721,330.637674 C175.892093,329.231163 171.672558,319.737209 170.969302,319.033953 C170.266047,318.330698 169.562791,317.275814 169.562791,316.22093 C169.562791,315.166047 172.024186,310.585116 172.375814,309.88186 C172.727442,309.178605 173.430698,307.772093 173.07907,306.717209 C172.727442,306.013953 170.969302,306.013953 169.914419,306.013953 C168.859535,306.365581 166.749767,307.068837 165.343256,307.420465 C164.288372,308.123721 159.355814,309.88186 158.30093,310.233488 C157.597674,310.585116 155.839535,311.288372 155.136279,311.991628 C154.433023,312.694884 153.026512,318.330698 152.674884,319.033953 C152.323256,319.737209 149.86186,323.605116 149.158605,324.66 C148.806977,325.363256 147.752093,327.473023 147.752093,328.879535 C147.752093,329.934419 146.697209,341.186512 146.697209,342.944651 C146.697209,344.36093 147.048837,344.712558 147.048837,347.173953 C147.048837,349.283721 144.93907,351.04186 143.884186,352.448372 C142.829302,353.854884 139.303256,354.909767 138.248372,354.909767 C137.193488,355.261395 134.732093,354.909767 134.732093,354.909767 C134.732093,354.909767 132.973953,351.745116 132.973953,348.932093 C132.973953,345.767442 134.380465,342.944651 134.380465,342.944651 C134.380465,342.944651 134.380465,343.999535 136.490233,343.999535 C138.951628,343.999535 138.951628,340.483256 138.951628,340.483256 C138.951628,340.483256 140.367907,340.131628 141.422791,339.428372 C142.126047,339.076744 142.477674,332.044186 142.829302,326.41814 C142.829302,324.308372 143.18093,315.166047 143.18093,312.343256 C143.18093,309.178605 145.290698,308.123721 146.697209,306.717209 C148.103721,305.310698 150.565116,304.255814 150.565116,298.981395 C150.916744,293.706977 145.642326,288.432558 145.290698,275.06093 C144.93907,269.786512 148.455349,259.94093 149.86186,256.776279 C145.993953,256.776279 134.380465,262.402326 134.380465,277.522326 C134.380465,293.003721 128.754419,297.574884 127.347907,298.981395 C126.293023,300.739535 121.72186,306.013953 115.734419,306.013953 C109.756744,306.013953 105.888837,300.036279 105.888837,300.036279 C105.888837,300.036279 109.405116,301.091163 113.624651,298.27814 C117.492558,295.816744 120.666977,285.267907 121.018605,279.632093 C121.72186,274.006047 123.48,270.841395 125.23814,265.566977 C127.347907,260.292558 134.028837,253.60186 139.664651,252.195349 C145.290698,250.788837 152.323256,251.140465 155.839535,252.195349 C159.707442,249.733953 166.39814,244.459535 182.934419,244.459535 C195.944651,244.459535 202.625581,248.327442 206.151628,249.382326 L205.8,246.92093 Z M236.049767,247.975814 L231.126977,237.426977 L240.972558,240.591628 L243.082326,244.107907 L236.049767,247.975814 Z" id="Fill-80" fill="#1A1919"></path>
        </g>
    </g>
</svg>