<?xml version="1.0" encoding="UTF-8"?>
<svg width="475px" height="420px" viewBox="0 0 475 420" version="1.1" xmlns="http://www.w3.org/2000/svg" xmlns:xlink="http://www.w3.org/1999/xlink">
    <!-- Generator: Sketch 61.2 (89653) - https://sketch.com -->
    <title>warning-sign-uneven-road</title>
    <desc>Created with Sketch.</desc>
    <g id="warning-sign-uneven-road" stroke="none" stroke-width="1" fill="none" fill-rule="evenodd">
        <g id="Group-9">
            <polyline id="Fill-280" fill="#FFFFFE" points="124.017636 394.893254 20.4349576 394.893254 234.6435 22.1952203 450.26011 394.893254"></polyline>
            <path d="M440.037737,416.03278 C450.964856,416.03278 461.177263,410.036034 466.821636,400.527661 C472.456042,390.667627 472.456042,378.684102 466.821636,369.176441 L262.169873,15.4552881 C256.623737,5.88854237 246.401364,2.02324033e-13 235.347534,2.02324033e-13 C224.283737,2.02324033e-13 214.071331,5.88854237 208.525195,15.4552881 L4.22580508,369.176441 C-1.40860169,378.684102 -1.40860169,390.667627 4.22580508,400.527661 C9.86021186,410.036034 20.0825847,416.03278 30.9990254,416.03278 L440.037737,416.03278 Z M49.3209915,374.458475 L421.725737,374.458475 L235.347534,52.1383729 L49.3209915,374.458475 Z" id="Fill-281" fill="#D0383F"></path>
            <path d="M101.107703,312.107695 C114.851669,312.107695 127.89089,305.768542 136.342856,294.852102 C144.804076,283.573322 157.481669,277.234169 171.930381,277.234169 C187.434788,277.234169 201.872822,285.333763 210.334754,298.725356 L210.334754,299.077729 C215.265127,307.177322 224.068754,312.107695 233.938754,312.107695 C243.447127,312.107695 252.26072,307.529695 257.542754,299.077729 L257.191093,299.077729 C265.642347,285.333763 279.738686,277.586542 295.947839,277.586542 C309.681839,277.586542 322.721059,283.924983 331.173025,294.852102 C339.986619,305.768542 353.016585,312.459356 366.760551,312.459356 L367.464585,312.459356 L367.464585,357.555254 L362.182551,357.555254 L105.343297,357.555254 L100.403669,357.555254 L100.403669,312.107695 L101.107703,312.107695" id="Fill-282" fill="#1A1919"></path>
        </g>
    </g>
</svg>