<?xml version="1.0" encoding="UTF-8"?>
<svg width="475px" height="420px" viewBox="0 0 475 420" version="1.1" xmlns="http://www.w3.org/2000/svg" xmlns:xlink="http://www.w3.org/1999/xlink">
    <!-- Generator: Sketch 61.2 (89653) - https://sketch.com -->
    <title>warning-sign-swing-bridge</title>
    <desc>Created with Sketch.</desc>
    <g id="warning-sign-swing-bridge" stroke="none" stroke-width="1" fill="none" fill-rule="evenodd">
        <g id="Group-4">
            <polyline id="Fill-157" fill="#FFFFFE" points="106.047331 392.42878 21.1389915 392.42878 232.529975 25.7175254 444.978076 392.42878"></polyline>
            <path d="M439.695331,416.033492 C450.964856,415.681119 461.187229,410.046712 466.821636,400.176712 C472.103669,390.668339 472.103669,378.69478 466.821636,369.177153 L262.169873,15.456 C256.623737,5.88925424 246.401364,0 235.347534,0 C224.293703,0 214.071331,5.88925424 208.525195,15.456 L4.22580508,369.177153 C-1.40860169,378.69478 -1.40860169,390.668339 4.22580508,400.176712 C9.86021186,410.046712 20.0825847,416.033492 31.3513983,416.033492 L439.695331,416.033492 Z M49.3209915,374.11678 L421.725737,374.11678 L235.347534,51.7867119 L49.3209915,374.11678 Z" id="Fill-158" fill="#D0383F"></path>
            <polygon id="Fill-159" fill="#1A1919" points="360.773771 294.500441 329.411873 294.500441 329.411873 360.372814 398.825771 360.372814"></polygon>
            <path d="M329.411873,329.373254 C324.482212,329.373254 320.255873,330.782034 317.086653,333.599593 C312.508653,336.768814 305.807873,339.585661 298.413025,339.585661 C290.665093,339.585661 283.964314,336.768814 279.386314,333.599593 C276.217093,330.782034 271.991466,329.373254 267.061093,329.373254 C262.120754,329.373254 257.895127,330.782034 254.725907,333.599593 C250.147907,336.768814 243.447127,339.585661 235.699907,339.585661 C228.304347,339.585661 221.251195,336.768814 217.025568,333.599593 C213.856347,330.782034 209.630008,329.373254 204.700347,329.373254 C199.408347,329.373254 195.534381,330.782034 192.012788,333.599593 C187.787161,336.768814 181.095636,339.585661 173.338449,339.585661 C165.943602,339.585661 158.890449,336.768814 154.664822,333.599593 C151.495602,330.782034 147.269263,329.373254 142.339602,329.373254 L142.339602,318.808475 C149.734449,318.808475 156.777636,321.978407 161.013229,325.147627 C164.182449,327.612814 168.408788,329.373254 173.338449,329.373254 C178.621195,329.373254 182.504415,327.612814 186.026008,325.147627 C190.252347,321.978407 196.943161,318.808475 204.700347,318.808475 C212.095195,318.808475 219.138381,321.978407 223.373975,325.147627 C226.543907,327.612814 230.769534,329.373254 235.699907,329.373254 C240.981941,329.373254 244.865161,327.612814 248.386754,325.147627 C252.613093,321.978407 259.303907,318.808475 267.061093,318.808475 C274.808314,318.808475 281.499127,321.978407 285.725466,325.147627 C289.256314,327.612814 293.13028,329.373254 298.413025,329.373254 C303.342686,329.373254 307.569025,327.612814 310.748212,325.147627 C314.973839,321.978407 321.664653,318.808475 329.411873,318.808475" id="Fill-160" fill="#1A1919"></path>
            <path d="M329.411873,350.160407 C324.482212,350.160407 320.255873,351.569186 317.086653,354.386034 C312.508653,357.555966 305.807873,360.372814 298.413025,360.372814 C290.665093,360.372814 283.964314,357.555966 279.386314,354.386034 C276.217093,351.569186 271.991466,350.160407 267.061093,350.160407 C262.120754,350.160407 257.895127,351.569186 254.725907,354.386034 C250.147907,357.555966 243.447127,360.372814 235.699907,360.372814 C228.304347,360.372814 221.251195,357.555966 217.025568,354.386034 C213.856347,351.569186 209.630008,350.160407 204.700347,350.160407 C199.408347,350.160407 195.534381,351.569186 192.012788,354.386034 C187.787161,357.555966 181.095636,360.372814 173.338449,360.372814 C165.943602,360.372814 158.890449,357.555966 154.664822,354.386034 C151.495602,351.569186 147.269263,350.160407 142.339602,350.160407 L142.339602,339.585661 C149.734449,339.585661 156.777636,342.755593 161.013229,345.93478 C164.182449,348.399966 168.408788,350.160407 173.338449,350.160407 C178.621195,350.160407 182.504415,348.399966 186.026008,345.93478 C190.252347,342.755593 196.943161,339.585661 204.700347,339.585661 C212.095195,339.585661 219.138381,342.755593 223.373975,345.93478 C226.543907,348.399966 230.769534,350.160407 235.699907,350.160407 C240.981941,350.160407 244.865161,348.399966 248.386754,345.93478 C252.613093,342.755593 259.303907,339.585661 267.061093,339.585661 C274.808314,339.585661 281.499127,342.755593 285.725466,345.93478 C289.256314,348.399966 293.13028,350.160407 298.413025,350.160407 C303.342686,350.160407 307.569025,348.399966 310.748212,345.93478 C314.973839,342.755593 321.664653,339.585661 329.411873,339.585661" id="Fill-161" fill="#1A1919"></path>
            <polygon id="Fill-162" fill="#1A1919" points="110.977703 294.500441 142.339602 294.500441 142.339602 360.372814 72.9257034 360.372814"></polygon>
            <polygon id="Fill-163" fill="#1A1919" points="122.608856 275.122068 142.339602 294.500441 274.456653 162.050949 255.07828 142.672576"></polygon>
        </g>
    </g>
</svg>