<?xml version="1.0" encoding="UTF-8"?>
<svg width="476px" height="420px" viewBox="0 0 476 420" version="1.1" xmlns="http://www.w3.org/2000/svg" xmlns:xlink="http://www.w3.org/1999/xlink">
    <!-- Generator: Sketch 61.2 (89653) - https://sketch.com -->
    <title>warning-sign-bend-to-right</title>
    <desc>Created with Sketch.</desc>
    <g id="warning-sign-bend-to-right" stroke="none" stroke-width="1" fill="none" fill-rule="evenodd">
        <g id="Group">
            <polygon id="Fill-217" fill="#FFFFFE" points="107.401556 394.401871 23.4708899 394.401871 237.564368 22.7508091 451.302668 394.401871"></polygon>
            <path d="M266.013866,165.729547 L295.17588,179.234215 L281.305948,208.39623 L253.570407,218.353446 L220.495677,230.454695 C202.187605,237.49648 188.75942,254.63697 188.14736,276.037754 L188.132743,276.687561 L188.129707,276.687475 L188.130359,364.172163 L142.608792,364.172163 L142.608792,276.685399 C142.612948,235.492178 169.102749,201.262015 203.793957,188.168922 L204.847697,187.778647 L237.918104,175.687484 L266.013866,165.729547 Z" id="Path" fill="#1A1919"></path>
            <path d="M49.7893233,378.032729 L426.043283,378.032729 L237.920986,52.6339849 L49.7893233,378.032729 Z M444.181108,419.997701 C455.215383,419.997701 465.884395,413.961846 471.219262,404.349721 C476.899219,394.401871 476.899219,382.309987 471.219262,372.697862 L264.643587,15.59827 C259.042157,5.93715499 248.718957,6.14285017e-13 237.565808,6.14285017e-13 C226.402574,6.14285017e-13 216.088739,5.93715499 210.48803,15.59827 L4.26753278,372.697862 C-1.42251093,382.309987 -1.42251093,394.401871 4.26753278,404.349721 C9.95757648,413.961846 20.2714111,419.997701 31.6514985,419.997701 L444.181108,419.997701 Z" id="Fill-222" fill="#D02139"></path>
        </g>
    </g>
</svg>