<?xml version="1.0" encoding="UTF-8"?>
<svg width="475px" height="420px" viewBox="0 0 475 420" version="1.1" xmlns="http://www.w3.org/2000/svg" xmlns:xlink="http://www.w3.org/1999/xlink">
    <!-- Generator: Sketch 61.2 (89653) - https://sketch.com -->
    <title>warning-sign-staggered-junction</title>
    <desc>Created with Sketch.</desc>
    <g id="warning-sign-staggered-junction" stroke="none" stroke-width="1" fill="none" fill-rule="evenodd">
        <g id="Group-4">
            <polyline id="Fill-77" fill="#FFFFFE" points="99.5595349 393.598605 22.8655814 393.598605 235.346512 19.3395349 446.772558 393.598605"></polyline>
            <path d="M439.388372,415.409302 C450.288837,415.409302 460.847442,409.42186 466.12186,399.576279 C471.757674,390.082326 471.757674,378.117209 466.12186,368.623256 L261.777209,15.4325581 C256.248837,5.88 246.04186,-2.77607394e-13 234.994884,-2.77607394e-13 C223.957674,-2.77607394e-13 213.750698,5.88 208.212558,15.4325581 L4.21953488,368.623256 C-1.40651163,378.117209 -1.40651163,390.082326 4.21953488,399.576279 C9.85534884,409.42186 20.0525581,415.409302 31.3144186,415.409302 L439.388372,415.409302 Z M49.2572093,373.897674 L421.093953,373.897674 L235.346512,51.7088372 L49.2572093,373.897674 Z" id="Fill-78" fill="#D0383F"></path>
            <polygon id="Fill-79" fill="#1A1919" points="190.318605 359.832558 259.266977 359.832558 259.266977 249.382326 310.633953 249.382326 310.633953 214.561395 259.266977 214.561395 259.266977 180.092093 224.797674 145.271163 190.318605 180.092093 190.318605 283.851628 138.961395 283.851628 138.961395 318.32093 190.318605 318.32093"></polygon>
        </g>
    </g>
</svg>