<?xml version="1.0" encoding="UTF-8"?>
<svg width="475px" height="420px" viewBox="0 0 475 420" version="1.1" xmlns="http://www.w3.org/2000/svg" xmlns:xlink="http://www.w3.org/1999/xlink">
    <!-- Generator: Sketch 61.2 (89653) - https://sketch.com -->
    <title>warning-sign-t-junction-with-priority</title>
    <desc>Created with Sketch.</desc>
    <g id="warning-sign-t-junction-with-priority" stroke="none" stroke-width="1" fill="none" fill-rule="evenodd">
        <g id="Group-2">
            <polyline id="Fill-71" fill="#FFFFFE" points="99.557093 391.840465 19.3468605 391.840465 232.882674 19.3395349 449.58314 391.840465"></polyline>
            <path d="M439.38593,415.409302 C450.296163,415.409302 460.493372,409.42186 466.119419,399.576279 C471.755233,390.082326 471.755233,378.117209 466.119419,368.623256 L261.774767,15.4325581 C256.246395,5.88 246.039419,-2.77607394e-13 234.992442,-2.77607394e-13 C223.955233,-2.77607394e-13 213.748256,5.88 208.210116,15.4325581 L4.22686047,368.623256 C-1.40895349,378.117209 -1.40895349,390.082326 4.22686047,399.576279 C9.85290698,409.42186 20.0501163,415.409302 30.9603488,415.409302 L439.38593,415.409302 Z M49.2547674,373.897674 L421.091512,373.897674 L234.992442,51.7088372 L49.2547674,373.897674 Z" id="Fill-72" fill="#D0383F"></path>
            <polygon id="Fill-73" fill="#1A1919" points="206.852442 359.832558 275.800814 359.832558 275.800814 249.382326 313.796163 249.382326 313.796163 214.561395 172.021744 214.561395 137.200814 249.382326 172.021744 283.851628 206.852442 283.851628"></polygon>
        </g>
    </g>
</svg>