<?xml version="1.0" encoding="UTF-8"?>
<svg width="474px" height="420px" viewBox="0 0 474 420" version="1.1" xmlns="http://www.w3.org/2000/svg" xmlns:xlink="http://www.w3.org/1999/xlink">
    <!-- Generator: Sketch 61.2 (89653) - https://sketch.com -->
    <title>warning-sign-junction-on-bend-ahead</title>
    <desc>Created with Sketch.</desc>
    <g id="warning-sign-junction-on-bend-ahead" stroke="none" stroke-width="1" fill="none" fill-rule="evenodd">
        <g id="Group-6">
            <polyline id="Fill-100" fill="#FFFFFE" points="92.8761628 392.895349 21.8082558 392.895349 236.398953 23.2172093 447.825 392.895349"></polyline>
            <path d="M438.331047,415.409302 C449.58314,415.409302 459.790116,409.431628 465.416163,399.927907 C471.051977,390.433953 471.051977,378.478605 465.416163,368.974884 L261.589186,15.8916279 C256.090116,6.0655814 245.805,-1.38803697e-13 234.640814,-1.38803697e-13 C223.545,-1.38803697e-13 213.298953,6.00697674 207.780349,15.7451163 L4.22686047,368.623256 C-1.40895349,378.478605 -1.40895349,390.433953 4.22686047,399.927907 C9.50127907,409.431628 20.0501163,415.409302 30.9603488,415.409302 L438.331047,415.409302 Z M49.2547674,373.897674 L420.388256,373.897674 L234.640814,52.0604651 L49.2547674,373.897674 Z" id="Fill-101" fill="#D0383F"></path>
            <polygon id="Fill-102" fill="#1A1919" points="173.076628 360.184186 218.104535 360.184186 218.104535 280.686977 173.076628 280.686977"></polygon>
            <polygon id="Fill-103" fill="#1A1919" points="234.289186 192.750698 249.770581 234.965581 286.711047 221.593953 300.072907 192.750698 271.581279 179.388837"></polygon>
            <polygon id="Fill-104" fill="#1A1919" points="161.824535 206.122326 149.507791 226.87814 185.393372 247.624186 197.710116 226.87814"></polygon>
            <path d="M234.289186,192.750698 C199.819884,205.41907 173.076628,239.536744 173.076628,280.686977 L218.114302,280.686977 C218.114302,259.237674 231.476163,241.99814 249.770581,234.965581 C244.847791,220.890698 239.573372,206.825581 234.289186,192.750698" id="Fill-105" fill="#1A1919"></path>
        </g>
    </g>
</svg>