<?xml version="1.0" encoding="UTF-8"?>
<svg width="355px" height="420px" viewBox="0 0 355 420" version="1.1" xmlns="http://www.w3.org/2000/svg" xmlns:xlink="http://www.w3.org/1999/xlink">
    <!-- Generator: Sketch 61.2 (89653) - https://sketch.com -->
    <title>warning-sign-light-signals-ahead</title>
    <desc>Created with Sketch.</desc>
    <g id="warning-sign-light-signals-ahead" stroke="none" stroke-width="1" fill="none" fill-rule="evenodd">
        <g id="Group">
            <path d="M331.875,0 C344.0943,0 354,9.89686342 354,22.1052632 L354,397.894737 C354,410.103137 344.0943,420 331.875,420 L22.125,420 C9.90569991,420 0,410.103137 0,397.894737 L0,22.1052632 C0,9.89686342 9.90569991,0 22.125,0 L331.875,0 Z" id="Path" fill="#000000" fill-rule="nonzero"></path>
            <path d="M331.875,8.84210526 L22.125,8.84210526 C15.0552621,8.84210526 9.27630061,14.3636462 8.87253517,21.3259519 L8.85,22.1052632 L8.85,397.894737 C8.85,404.958168 14.3764708,410.731974 21.3449929,411.13538 L22.125,411.157895 L331.875,411.157895 C338.944738,411.157895 344.723699,405.636354 345.127465,398.674048 L345.15,397.894737 L345.15,22.1052632 C345.15,15.0418319 339.623529,9.26802559 332.655007,8.86462033 L331.875,8.84210526 Z" id="Path" fill="#FFFFFF" fill-rule="nonzero"></path>
            <path d="M198.613396,237.718183 C192.435212,237.718183 186.484265,242.519175 186.484265,252.32691 C186.484265,262.140813 192.655766,266.935637 198.613396,266.935637 C204.564342,266.935637 210.521972,262.140813 210.521972,252.32691 C210.521972,242.519175 204.784896,237.718183 198.613396,237.718183 M198.613396,229 C189.790347,229 177,235.756283 177,252.108823 C177,268.461363 189.569793,275 198.613396,275 C207.656553,275 220,268.461363 220,252.108823 C220,235.756283 207.215446,229 198.613396,229" id="Fill-282" fill="#1A1919"></path>
            <path d="M249.885628,237.180638 L241.053434,237.180638 L241.053434,250.452275 L249.885628,250.452275 C253.857684,250.452275 256.726218,246.914811 256.726218,243.819809 C256.726218,240.503129 254.078032,237.180638 249.885628,237.180638 M253.195749,229 L232,229 L232,275 L241.053434,275 L241.053434,258.411682 L251.430292,258.411682 C261.145215,258.411682 266,251.557985 266,243.819809 C266,235.854145 260.704073,229 253.195749,229" id="Fill-283" fill="#1A1919"></path>
            <path d="M92,266.516069 L98.5112397,260.207539 C106.764689,266.081165 113.709836,266.516069 115.235311,266.516069 C117.622897,266.516069 120.227218,264.340669 120.227218,261.512692 C120.227218,258.684715 118.056804,256.938502 116.537471,256.72083 C115.018138,256.285925 108.935102,254.980333 106.330782,254.327757 C103.726023,253.892853 95.4725734,251.49978 95.4725734,241.493025 C95.4725734,231.697785 102.641035,228 110.671608,228 C118.707884,228 124.568044,230.392633 129.782827,235.178339 L123.699791,241.275793 C120.444391,238.659331 116.320298,236.701163 110.020528,236.701163 C106.330782,236.701163 105.679702,239.970201 105.679702,241.275793 C105.679702,242.363273 106.547516,244.973578 108.935102,245.408922 C111.322688,245.843826 117.622897,247.584323 118.490712,247.584323 C121.095471,248.019227 130,251.49978 130,260.860115 C130,269.344046 124.350871,275 113.927009,275 C103.726023,275 95.4725734,269.996622 92,266.516069" id="Fill-284" fill="#1A1919"></path>
            <polyline id="Fill-285" fill="#1A1919" points="163.201907 237.475886 158.440271 237.475886 158.440271 274 149.559729 274 149.559729 237.475886 137 237.475886 137 229 171 229 171 237.475886 165.799084 237.475886"></polyline>
            <path d="M193.056042,314.64147 L204.087626,314.64147 C204.087626,312.225174 201.882557,309.369752 198.574731,309.369752 C195.267351,309.369752 193.056042,312.005833 193.056042,314.64147 M193.056042,320.138745 L210.929268,320.138745 C211.370103,316.624414 210.047151,303 198.354536,303 C188.205069,303 186,313.982561 186,317.283324 C186,320.797654 187.984428,332 199.236207,332 C205.631219,332 208.94484,328.265885 209.82651,327.387191 L205.410578,322.994167 C205.410578,322.994167 203.42615,325.629804 199.236207,325.629804 C195.267351,325.629804 193.056042,322.774382 193.056042,320.138745" id="Fill-286" fill="#1A1919"></path>
            <path d="M162.980287,305.153392 L162.980287,293 L156,293 L156,331 L162.980287,331 L162.980287,314.870928 C162.980287,312.220772 165.379361,310.01216 167.785049,310.01216 C170.402381,310.01216 173.019713,311.779228 173.019713,314.870928 L173.019713,331 L180,331 L180,312.441767 C180,306.920014 175.20097,303.165776 170.184123,303.165776 C165.815877,303.165776 164.070695,304.711402 162.980287,305.153392" id="Fill-287" fill="#1A1919"></path>
            <path d="M242,312.997722 L242,331 L235.021821,331 L235.021821,313.664207 C235.021821,311.664753 233.48909,309.664849 230.435971,309.664849 C227.601058,309.664849 224.766145,312.331237 224.766145,315.885973 L224.766145,331 L218,331 L218,303.444174 L224.766145,303.444174 L224.766145,305.443628 C224.766145,305.443628 227.819264,303 231.526559,303 C237.856734,303 242,308.109568 242,312.997722" id="Fill-288" fill="#1A1919"></path>
            <polyline id="Fill-289" fill="#1A1919" points="141.053694 331 143.26845 331 151 304 143.489479 304 139.065326 321.639155 134.647872 304 127.352128 304 122.934227 321.639155 118.516326 304 111 304 118.516326 331 127.131099 331 131.113194 314.231713 135.531095 331 138.623715 331"></polyline>
            <path d="M64,390.946358 L67.0959448,385.051585 C68.6434702,385.705874 71.0760621,387.450938 76.1683236,387.450938 C83.023119,387.450938 81.9176799,382.216186 81.9176799,382.216186 C81.9176799,382.216186 79.485088,383.743007 76.3891432,383.743007 C64.2212666,383.743007 64,370.650174 64,370.650174 C64,370.650174 64,364.761574 68.2013839,361.271445 C70.4127092,359.090775 73.0661207,358.218243 76.3891432,358.218243 C77.4950293,358.218243 80.1484409,358.436046 81.9176799,359.526821 L81.9176799,358 L89,358 L89,385.269828 C89,391.601088 80.5909741,394 76.1683236,394 C71.739415,394 66.6534115,392.473179 64,390.946358 M81.9176799,370.868417 C81.9176799,367.814775 80.3697075,364.979376 76.8316764,364.979376 C73.2873874,364.979376 71.9606816,368.251261 71.9606816,370.868417 C71.9606816,373.273502 73.0661207,376.545388 76.8316764,376.545388 C80.5909741,376.545388 81.9176799,373.709989 81.9176799,370.868417" id="Fill-290" fill="#1A1919"></path>
            <polygon id="Stroke-291" fill="#1A1919" fill-rule="nonzero" points="57 358 57 385 52 385 52 358"></polygon>
            <path d="M54.0002246,347 C56.2098939,347 58,348.790106 58,350.999775 C58,353.209894 56.2098939,355 54.0002246,355 C51.7901061,355 50,353.209894 50,350.999775 C50,348.790106 51.7901061,347 54.0002246,347" id="Fill-292" fill="#1A1919"></path>
            <path d="M47,385.11382 L46.1037762,378.689795 C42.7435031,379.575975 41.1752247,378.911452 41.1752247,377.360748 L41.1752247,347 L34,347 L34,380.240499 C34,382.898592 35.7983348,386 41.1752247,386 C44.0876123,386 47,385.11382 47,385.11382" id="Fill-293" fill="#1A1919"></path>
            <path d="M266.107456,363.05867 C263.100426,363.05867 259.87284,365.654993 259.87284,371.497157 C259.87284,377.345007 263.100426,379.941767 266.107456,379.941767 C268.899574,379.941767 272.121082,377.345007 272.121082,371.497157 C272.121082,365.654993 268.899574,363.05867 266.107456,363.05867 M266.107456,357 C259.657928,357 253,362.193083 253,371.497157 C253,380.590848 259.443016,386 266.107456,386 C272.550472,386 279,380.590848 279,371.497157 C279,362.193083 272.550472,357 266.107456,357" id="Fill-294" fill="#1A1919"></path>
            <path d="M149,380.791728 L154.360525,376.234435 L154.354662,376.234435 C156.368806,378.404512 160.607707,380.357888 162.392293,380.357888 C164.400574,380.357888 165.961918,379.05593 165.961918,377.536832 C165.961918,376.234435 165.06985,375.583456 163.954089,375.366755 C163.06157,375.149616 159.491945,374.281498 158.599877,374.064797 C157.93015,373.847658 151.454314,372.7624 151.454314,366.246467 C151.454314,359.736237 158.599877,358 162.838778,358 C167.077679,358 171.099652,359.302397 174,361.906314 L169.537857,366.680307 C166.854437,364.51023 165.06985,363.642112 163.06157,363.642112 C160.830498,363.642112 159.045911,364.51023 159.045911,366.029328 C159.045911,367.548426 160.384464,367.765565 161.053741,367.982265 C161.500225,368.199405 166.18516,369.067523 167.300922,369.284662 C168.422546,369.501363 173.777209,371.2376 173.777209,377.319693 C173.777209,383.612784 167.976061,386 162.169502,386 C156.591597,386 151.007829,383.178944 149,380.791728" id="Fill-295" fill="#1A1919"></path>
            <path d="M146,384.45806 L144.674938,378.510703 C139.809977,380.052644 138.484468,378.731108 138.484468,377.409572 L138.484468,363.967131 L145.558015,363.967131 L145.558015,357.79937 L138.484468,357.79937 L138.484468,347 L131.417172,349.202708 L131.417172,357.79937 L127,357.79937 L127,363.967131 L131.417172,363.967131 L131.417172,379.832239 C131.417172,383.136524 133.625758,386 138.705461,386 C142.466352,386 145.116476,384.678464 146,384.45806" id="Fill-296" fill="#1A1919"></path>
            <path d="M103.984479,359.153392 L103.984479,347 L97,347 L97,385 L103.984479,385 L103.984479,368.871374 C103.984479,366.220772 106.383024,364.01216 108.782011,364.01216 C111.398766,364.01216 114.015521,365.779228 114.015521,368.871374 L114.015521,385 L121,385 L121,366.441767 C121,360.920014 116.202469,357.165776 111.180556,357.165776 C106.601234,357.165776 105.074647,358.711849 103.984479,359.153392" id="Fill-297" fill="#1A1919"></path>
            <path d="M193,380.791728 L198.360976,376.234435 C200.145563,378.404512 204.607707,380.357888 206.392744,380.357888 C208.183645,380.357888 209.968232,379.05593 209.968232,377.536832 C209.968232,376.234435 208.852922,375.583456 207.960403,375.366755 C207.062021,375.149616 203.269154,374.281498 202.599877,374.064797 C201.930601,373.847658 195.237386,372.7624 195.237386,366.246467 C195.237386,359.736237 202.599877,358 206.838778,358 C211.083993,358 214.87686,359.302397 218,361.906314 L213.538308,366.680307 C210.860751,364.51023 209.076164,363.642112 206.838778,363.642112 C204.830949,363.642112 203.045911,364.51023 203.045911,366.029328 C203.045911,367.548426 204.384464,367.765565 204.830949,367.982265 C205.500225,368.199405 210.191474,369.067523 211.307236,369.284662 C212.422546,369.501363 217.777209,371.2376 217.777209,377.319693 C217.777209,383.612784 211.75327,386 206.169502,386 C200.368806,386 194.790901,383.178944 193,380.791728" id="Fill-298" fill="#1A1919"></path>
            <path d="M228.980287,359.153392 L228.980287,347 L222,347 L222,385 L228.980287,385 L228.980287,368.871374 C228.980287,366.220772 231.379361,364.01216 233.785049,364.01216 C236.402381,364.01216 239.019713,365.779228 239.019713,368.871374 L239.019713,385 L246,385 L246,366.441767 C246,360.920014 241.20097,357.165776 236.184123,357.165776 C231.597619,357.165776 230.070695,358.711849 228.980287,359.153392" id="Fill-299" fill="#1A1919"></path>
            <polyline id="Fill-300" fill="#1A1919" points="314.059499 385 316.26845 385 324 358 316.26845 358 312.065326 375.639155 307.647872 358 300.35838 358 295.934227 375.856982 291.516326 358 284 358 291.516326 385 300.137351 385 304.113194 368.231713 308.531095 385 311.623715 385"></polyline>
            <path d="M40.1098368,204 C35.5105583,204 32,200.279677 32,195.910153 L32,40.0898468 C32,35.5017139 35.5105583,32 40.1098368,32 L314.895919,32 C319.276479,32 323,35.5017139 323,40.0898468 L323,195.910153 C323,200.279677 319.276479,204 314.895919,204 L40.1098368,204" id="Fill-301" fill="#1A1919"></path>
            <path d="M93.9997801,53 C111.668346,53 126,67.3377138 126,85 C126,102.662286 111.668346,117 93.9997801,117 C76.331654,117 62,102.662286 62,85 C62,67.3377138 76.331654,53 93.9997801,53" id="Fill-302" fill="#FFFFFE"></path>
            <path d="M94,56 C110.006888,56 123,68.9937096 123,85.0030844 C123,101.012459 110.006888,114 94,114 C77.9931116,114 65,101.012459 65,85.0030844 C65,68.9937096 77.9931116,56 94,56" id="Fill-303" fill="#D0383F"></path>
            <path d="M177.99978,123 C194.563244,123 208,136.442906 208,153.00022 C208,169.557533 194.563244,183 177.99978,183 C161.436756,183 148,169.557533 148,153.00022 C148,136.442906 161.436756,123 177.99978,123" id="Fill-304" fill="#FFFFFE"></path>
            <path d="M177.999779,125 C193.457383,125 206,137.54975 206,153.003315 C206,168.456439 193.457383,181 177.999779,181 C162.542175,181 150,168.456439 150,153.003315 C150,137.54975 162.542175,125 177.999779,125" id="Fill-305" fill="#FBD033"></path>
            <path d="M261.99978,53 C279.668346,53 294,67.3377138 294,85 C294,102.662286 279.668346,117 261.99978,117 C244.331654,117 230,102.662286 230,85 C230,67.3377138 244.331654,53 261.99978,53" id="Fill-306" fill="#FFFFFE"></path>
            <path d="M261.99978,56 C278.007574,56 291,68.9937096 291,85.0030844 C291,101.012459 278.007574,114 261.99978,114 C245.992426,114 233,101.012459 233,85.0030844 C233,68.9937096 245.992426,56 261.99978,56" id="Fill-307" fill="#D0383F"></path>
        </g>
    </g>
</svg>