<?xml version="1.0" encoding="UTF-8"?>
<svg width="475px" height="420px" viewBox="0 0 475 420" version="1.1" xmlns="http://www.w3.org/2000/svg" xmlns:xlink="http://www.w3.org/1999/xlink">
    <!-- Generator: Sketch 61.2 (89653) - https://sketch.com -->
    <title>warning-sign-roundabout</title>
    <desc>Created with Sketch.</desc>
    <g id="warning-sign-roundabout" stroke="none" stroke-width="1" fill="none" fill-rule="evenodd">
        <g id="Group-8">
            <polyline id="Fill-83" fill="#FFFFFE" points="149.156163 394.653488 24.9826744 394.653488 233.937558 27.4367442 447.825 394.653488"></polyline>
            <path d="M439.38593,415.409302 C450.296163,415.409302 460.845,409.42186 466.119419,399.576279 C471.755233,390.082326 471.755233,378.117209 466.119419,368.623256 L261.774767,15.4325581 C256.246395,5.88 246.039419,-1.38803697e-13 234.992442,-1.38803697e-13 C223.955233,-1.38803697e-13 213.748256,5.88 208.210116,15.4325581 L4.22686047,368.623256 C-1.40895349,378.117209 -1.40895349,390.082326 4.22686047,399.576279 C9.85290698,409.42186 20.0501163,415.409302 31.3119767,415.409302 L439.38593,415.409302 Z M49.2547674,373.897674 L421.091512,373.897674 L235.34407,51.7088372 L49.2547674,373.897674 Z" id="Fill-84" fill="#D0383F"></path>
            <path d="M180.118953,288.422791 C177.30593,281.74186 175.899419,274.357674 175.899419,266.62186 C175.899419,239.888372 193.832442,217.022791 218.114302,209.990233 L234.640814,190.289302 L216.346395,174.466047 L216.356163,174.466047 C173.428256,183.256744 141.068721,221.242326 141.068721,266.62186 C141.068721,278.928837 143.530116,290.532558 147.749651,301.442791" id="Fill-85" fill="#1A1919"></path>
            <path d="M243.089651,208.232093 C250.122209,209.286977 257.506395,211.748372 264.197093,215.616279 C287.414302,228.97814 297.96314,255.711628 291.985465,280.335349 L300.776163,304.607442 L323.651512,296.52 C337.365,255.008372 320.828721,208.232093 281.436628,185.366512 C270.878023,179.388837 259.274302,175.52093 247.660814,173.762791" id="Fill-86" fill="#1A1919"></path>
            <path d="M281.085,302.849302 C276.50407,308.475349 270.878023,313.749767 264.197093,317.617674 C240.979884,330.637674 212.478488,326.769767 193.832442,309.178605 L168.505465,304.607442 L164.28593,328.527907 C193.129186,361.23907 242.034767,370.029767 281.436628,347.515814 C292.337093,341.186512 301.137558,333.450698 308.521744,323.946977" id="Fill-87" fill="#1A1919"></path>
        </g>
    </g>
</svg>