<?xml version="1.0" encoding="UTF-8"?>
<svg width="475px" height="420px" viewBox="0 0 475 420" version="1.1" xmlns="http://www.w3.org/2000/svg" xmlns:xlink="http://www.w3.org/1999/xlink">
    <!-- Generator: Sketch 61.2 (89653) - https://sketch.com -->
    <title>warning-sign-falling-rocks</title>
    <desc>Created with Sketch.</desc>
    <g id="warning-sign-falling-rocks" stroke="none" stroke-width="1" fill="none" fill-rule="evenodd">
        <g id="Group-2">
            <polyline id="Fill-33" fill="#FFFFFE" points="90.1982034 389.258847 19.3755254 389.258847 235.002814 18.3212542 449.563017 389.258847"></polyline>
            <path d="M438.988983,416.03278 C450.267763,416.03278 460.480169,410.046 466.114576,400.176 C471.758949,390.667627 471.758949,378.694068 466.114576,369.176441 L261.825153,15.4552881 C256.279017,5.88854237 246.056644,0 235.002814,0 C223.939017,0 213.716644,5.88854237 208.170508,15.4552881 L4.23274576,369.176441 C-1.41091525,378.694068 -1.41091525,390.667627 4.23274576,400.176 C9.51549153,410.046 20.0802712,416.03278 31.006678,416.03278 L438.988983,416.03278 Z M48.9762712,374.106102 L421.01939,374.106102 L235.002814,51.786 L48.9762712,374.106102 Z" id="Fill-34" fill="#D0383F"></path>
            <path d="M336.462712,274.768983 C336.462712,275.473729 336.110339,276.177763 336.110339,276.530136 C336.110339,276.881797 333.293492,279.699356 332.941119,280.051729 C332.588746,280.051729 330.123559,280.755763 329.771898,280.755763 C329.067153,280.755763 318.140746,280.40339 317.436712,280.40339 C317.084339,280.40339 312.506339,278.642949 311.801593,277.938915 C310.745186,277.234169 307.223593,274.417322 306.871932,273.360915 C306.519559,272.303797 305.11078,263.147797 305.463153,262.09139 C305.815525,261.387356 305.463153,258.218136 305.815525,257.865763 C306.167186,257.161729 307.928339,253.630169 308.632373,253.277797 C308.984746,252.573763 313.915119,250.81261 314.971525,250.108576 C316.027932,249.404542 319.549525,247.995763 320.263525,247.995763 C320.615898,247.995763 322.728712,247.291017 323.432746,247.291017 C324.13678,247.291017 325.897932,247.291017 326.250305,247.64339 C326.954339,247.995763 327.658373,248.347424 328.010746,248.699797 C328.363119,248.699797 329.771898,248.699797 330.123559,249.052169 C330.475932,249.052169 332.236373,251.869017 332.236373,252.22139 C332.588746,252.22139 334.349898,254.686576 334.701559,255.038949 C335.406305,255.038949 336.814373,256.809356 336.814373,257.161729 C336.814373,257.51339 338.223153,263.147797 338.223153,263.852542 C338.223153,264.204203 338.927898,268.782203 338.927898,268.782203 C338.927898,269.134576 339.279559,271.952136 338.927898,272.303797 C338.575525,272.656169 337.519119,274.064949 337.166746,274.417322" id="Fill-35" fill="#1A1919"></path>
            <path d="M355.841085,346.638102 C354.432305,346.638102 343.867525,346.276475 342.811119,346.638102 C341.754712,346.638102 338.223153,347.694508 337.166746,348.046881 C336.110339,348.046881 331.179966,348.046881 330.475932,347.694508 C329.419525,347.342847 318.493119,341.346102 317.788373,340.642068 C316.731966,339.585661 311.801593,335.359322 311.097559,333.951254 C310.393525,332.542475 306.519559,326.908068 306.167186,325.851661 C306.167186,324.794542 305.463153,321.625322 305.463153,320.921288 C305.463153,319.864881 305.815525,310.698915 306.167186,309.290136 C306.871932,307.881356 310.393525,300.486508 311.097559,299.077729 C312.153966,298.021322 317.788373,290.625763 319.911153,289.569356 C322.023966,288.512949 330.475932,285.686136 335.053932,285.686136 C339.984305,285.686136 345.276305,287.104169 346.685085,287.456542 C347.741492,287.456542 350.910712,287.808915 352.319492,288.865322 C353.375898,289.569356 355.488712,290.625763 356.897492,292.034542 C358.306271,293.443322 360.066712,295.203763 360.770746,296.964915 C361.827864,298.725356 367.119864,307.177322 367.823898,309.290136 C368.176271,311.402949 369.232678,315.276915 369.232678,317.399695 C369.232678,319.160136 370.289085,331.837729 369.585051,332.894136 C369.232678,333.951254 367.823898,337.472136 367.119864,338.176881 C366.063458,338.529254 361.475492,343.107254 360.419085,343.811288" id="Fill-36" fill="#1A1919"></path>
            <path d="M295.24078,306.473288 C295.593153,306.824949 297.353593,309.290136 297.353593,309.994881 C297.353593,310.698915 297.715932,314.220508 297.353593,314.924542 C297.353593,315.638542 295.944814,317.752068 295.24078,318.456102 C294.536746,318.808475 291.015153,319.864881 289.958746,319.864881 C288.902339,320.216542 285.380746,320.568915 284.323627,320.568915 C283.619593,320.568915 281.154407,320.216542 280.450373,319.512508 C279.745627,318.808475 276.566441,313.164102 276.566441,312.107695 C276.566441,311.051288 276.21478,307.529695 276.566441,306.824949 C276.566441,306.120915 276.21478,304.008102 276.92878,302.951695 C277.281153,302.246949 281.50678,298.725356 282.210814,298.725356 C282.915559,298.373695 283.619593,298.373695 284.323627,298.725356 C285.380746,298.725356 289.606373,300.134136 290.66278,300.838169 C291.366814,301.895288 292.775593,303.303356 293.127966,303.655729" id="Fill-37" fill="#1A1919"></path>
            <path d="M277.281153,270.190983 C277.632814,270.895729 277.985186,275.473729 277.632814,276.177763 C277.281153,277.234169 276.21478,278.995322 274.806,280.051729 C273.39722,281.459797 271.63678,282.868576 270.580373,283.573322 C269.523966,284.277356 266.706407,285.333763 265.65,285.686136 C264.945966,285.686136 264.24122,286.742542 262.832441,286.742542 C261.424373,287.104169 260.367254,286.400136 260.015593,286.038508 C259.310847,285.333763 256.846373,281.459797 256.141627,280.755763 C255.427627,280.051729 253.667186,278.290576 253.314814,277.586542 C253.314814,276.530136 252.962441,274.064949 253.314814,273.008542 C253.667186,271.952136 255.78,268.430542 256.141627,267.374136 C256.141627,266.66939 256.846373,261.739729 257.550407,261.034983 C258.254441,259.978576 259.310847,259.274542 260.015593,259.274542 C261.072,258.922169 268.466847,258.922169 269.523966,259.274542 C270.932034,259.626203 273.39722,261.034983 273.749593,261.387356 C274.453627,262.09139 275.510034,263.147797 275.862407,263.852542 C276.21478,264.556576 276.92878,268.078169 276.92878,268.078169" id="Fill-38" fill="#1A1919"></path>
            <path d="M270.932034,203.966237 L275.862407,203.966237 C277.281153,204.31861 285.732407,208.544237 286.788814,210.30539 C287.493559,211.713458 289.254,219.109017 289.606373,220.517797 C289.606373,221.926576 289.958746,226.866203 290.310407,227.570237 C291.015153,227.92261 293.832,233.205356 293.480339,233.557017 C293.480339,234.261763 294.888407,236.022203 293.127966,237.430983 C291.366814,238.839763 285.380746,242.361356 284.323627,243.417763 C283.26722,244.474169 277.632814,252.22139 275.510034,253.277797 C273.39722,254.686576 270.932034,255.742983 268.466847,255.39061 C266.354034,255.038949 257.90278,252.573763 256.141627,252.22139 C254.37122,251.517356 250.497254,250.108576 249.440847,248.347424 C248.736814,246.23461 246.624,239.896169 246.271627,238.839763 C246.271627,237.783356 245.919254,234.613424 245.567593,233.205356 C244.862847,231.796576 243.102407,227.92261 243.102407,226.866203 C243.102407,225.457424 242.397661,221.926576 243.102407,220.517797 C244.158814,218.756644 246.624,213.826983 248.736814,211.361797 C250.497254,208.89661 253.667186,205.375017 254.723593,203.966237 C255.78,202.557458 258.254441,200.444644 258.606814,200.092271 C258.959186,200.092271 262.128407,199.035864 262.128407,199.035864 C262.128407,199.035864 267.762814,202.205797 268.466847,202.909831" id="Fill-39" fill="#1A1919"></path>
            <path d="M219.146034,162.744305 C219.497695,162.040271 219.850068,161.336237 220.554102,160.631492 C220.554102,160.631492 224.075695,160.631492 224.780441,161.336237 C225.484475,161.687898 227.597288,166.275864 227.597288,166.979898 C227.597288,168.037017 228.302034,170.149831 227.597288,171.206237 C226.540881,172.615017 223.724034,175.784237 222.667627,175.784237 C221.258847,175.784237 219.146034,175.784237 218.441288,175.079492 C217.737254,174.375458 216.328475,172.966678 215.624441,172.262644 C215.272068,171.557898 213.149288,168.037017 213.149288,165.571831 C213.149288,163.449051 214.215661,162.392644 215.272068,162.392644" id="Fill-40" fill="#1A1919"></path>
            <path d="M238.524407,178.953458 C239.932475,179.657492 243.102407,180.71461 243.102407,181.771017 C243.102407,182.475051 244.158814,185.644271 243.102407,187.053051 C242.046,188.461831 240.989593,190.222271 239.580814,191.631051 C238.524407,193.039831 234.288814,197.275424 232.880034,197.627797 C231.471254,198.331831 230.414847,198.331831 230.062475,197.627797 C229.358441,197.275424 225.484475,194.44861 225.484475,193.039831 C225.132814,191.983424 225.132814,189.87061 225.484475,188.109458 C225.484475,186.700678 225.836847,179.657492 226.893254,178.249424 C227.949661,177.193017 230.414847,176.135898 232.175288,176.135898 C233.936441,176.135898 236.410881,177.897051 237.115627,178.249424" id="Fill-41" fill="#1A1919"></path>
            <path d="M230.062475,204.670983 C230.062475,204.670983 232.175288,204.31861 232.527661,204.670983 C232.527661,205.022644 233.584068,207.135458 233.584068,208.544237 C233.584068,209.600644 234.288814,212.770576 233.584068,213.826983 C232.880034,214.531017 230.76722,216.643831 230.414847,216.643831 C229.710814,216.996203 228.302034,218.404983 227.245627,218.404983 C226.18922,218.404983 226.18922,216.291458 226.18922,215.939797 C226.18922,215.235051 224.075695,211.361797 224.075695,209.953017 C224.428068,208.89661 226.893254,203.613864 227.949661,203.966237" id="Fill-42" fill="#1A1919"></path>
            <path d="M199.062915,145.488712 C200.471695,147.953898 200.824068,157.462271 201.880475,159.222712 C202.936881,160.983864 205.754441,160.279119 207.514881,162.744305 C209.275322,165.571831 211.036475,170.853864 212.092881,172.615017 C213.149288,174.375458 215.976102,178.953458 215.976102,179.657492 C215.976102,180.71461 215.976102,183.179085 216.328475,184.940237 C216.680847,186.700678 219.850068,196.57139 220.202441,199.388237 C220.554102,202.557458 219.850068,208.544237 220.906475,211.361797 C221.962881,214.178644 223.019288,216.996203 223.019288,218.756644 C223.019288,220.869458 222.315254,224.391051 222.315254,226.513831 C222.315254,228.274983 228.302034,244.474169 229.358441,246.939356 C230.414847,249.756203 236.05922,269.134576 237.819661,271.599763 C239.932475,273.712576 246.271627,280.40339 246.975661,282.868576 C247.328034,285.686136 248.032068,292.034542 248.032068,294.147356 C248.032068,296.260169 247.328034,298.021322 247.328034,299.430102 C247.680407,300.838169 247.328034,302.599322 248.736814,304.359763 C250.497254,306.120915 262.48078,317.752068 264.593593,319.864881 C266.706407,322.330068 277.985186,337.120475 279.041593,338.880915 C280.098,340.993729 283.26722,344.515322 284.323627,346.638102 C285.028373,348.399254 290.310407,360.372102 290.310407,360.372102 L74.6937966,360.372102" id="Fill-43" fill="#1A1919"></path>
        </g>
    </g>
</svg>