<?xml version="1.0" encoding="UTF-8"?>
<svg width="257px" height="420px" viewBox="0 0 257 420" version="1.1" xmlns="http://www.w3.org/2000/svg" xmlns:xlink="http://www.w3.org/1999/xlink">
    <!-- Generator: Sketch 61.2 (89653) - https://sketch.com -->
    <title>warning-sign-other-danger</title>
    <desc>Created with Sketch.</desc>
    <g id="warning-sign-other-danger" stroke="none" stroke-width="1" fill="none" fill-rule="evenodd">
        <g id="post" transform="translate(111.000000, 131.000000)">
            <rect id="Rectangle" fill="#C5C5C5" fill-rule="evenodd" x="0" y="0" width="33" height="316"></rect>
            <path id="Rectangle" d="M34,-1 L34,317 L-1,317 L-1,-1 L34,-1 Z M32,1 L1,1 L1,315 L32,315 L32,1 Z" fill="#000000" fill-rule="nonzero"></path>
        </g>
        <g id="Group">
            <path d="M128.499805,237.699907 L41.8151161,237.699907 C31.974048,237.699907 24,245.711783 24,255.598663 L24,356.80115 C24,366.68803 31.974048,374.699907 41.8151161,374.699907 L215.179435,374.699907 C225.020503,374.699907 233,366.68803 233,356.80115 L233,255.598663 C233,245.711783 225.020503,237.699907 215.179435,237.699907 L128.499805,237.699907" id="Fill-148" fill="#1A1919"></path>
            <path d="M129.502918,247.699907 L42.8580996,247.699907 C37.9668881,247.699907 34,251.681641 34,256.597907 L34,357.796432 C34,362.71309 37.9668881,366.699907 42.8580996,366.699907 L216.142289,366.699907 C221.033501,366.699907 225,362.71309 225,357.796432 L225,256.597907 C225,251.681641 221.033501,247.699907 216.142289,247.699907 L129.502918,247.699907" id="Fill-149" fill="#FFFFFE"></path>
            <polygon id="Stroke-150" fill="#1A1919" fill-rule="nonzero" points="130 321.699907 130 345.699907 125 345.699907 125 321.699907"></polygon>
            <path d="M128.999832,311.699907 C130.65742,311.699907 132,313.042486 132,314.700075 C132,316.357327 130.65742,317.699907 128.999832,317.699907 C127.34258,317.699907 126,316.357327 126,314.700075 C126,313.042486 127.34258,311.699907 128.999832,311.699907" id="Fill-151" fill="#1A1919"></path>
            <path d="M143.297714,330.043118 L143.297714,334.529435 C143.297714,336.870379 145.067307,339.406106 148.803246,339.406106 C152.347996,339.406106 154.511096,336.090064 154.511096,332.188885 C154.511096,328.287706 152.54475,325.161321 148.803246,325.161321 C145.067307,325.161321 143.297714,327.702568 143.297714,330.043118 M143.297714,321.650496 L143.297714,320.675004 L137,320.675004 L137,351.699907 L143.297714,351.699907 L143.297714,342.916931 C143.297714,342.916931 145.460417,345.263 149.982974,345.263 C158.443789,345.263 161,336.284847 161,332.384062 C161,329.262803 159.820272,325.941636 158.050282,323.795869 C156.084333,321.650496 153.527724,319.699907 149.786618,319.699907 C147.426764,319.699907 145.067307,320.479827 143.297714,321.650496" id="Fill-152" fill="#1A1919"></path>
            <path d="M112.505532,331.017219 L112.505532,335.458995 C112.505532,336.038323 112.112421,336.424802 111.915667,337.00413 C111.718914,337.583458 111.325803,338.162786 110.735939,338.548874 C109.949321,339.321442 108.966346,339.90077 107.196356,339.90077 C103.454853,339.90077 101.68526,337.390218 101.68526,332.948443 C101.68526,328.506667 104.044717,325.99065 107.196356,325.99065 C110.342431,325.99065 112.505532,328.120579 112.505532,331.017219 M112.505532,322.321442 L112.505532,311.699907 L119,311.699907 L119,344.927339 L112.505532,344.927339 L112.505532,343.377129 C112.505532,343.377129 111.718914,344.149697 110.146075,344.927339 C109.162703,345.313428 107.589864,345.699907 106.016628,345.699907 C104.241471,345.699907 101.68526,345.120579 99.5221597,343.569978 C96.965949,341.639145 95,338.162786 95,332.948443 C95,328.313818 96.1797284,325.411322 98.1460749,323.480098 C100.505532,321.162786 104.044717,320.197369 105.426764,320.197369 C108.376482,320.197369 109.949321,320.583458 112.505532,322.321442" id="Fill-153" fill="#1A1919"></path>
            <path d="M206,282.463357 L206,297.699907 L199.948997,297.699907 L199.948997,283.034502 C199.948997,281.130558 198.625268,279.41674 195.972842,279.41674 C193.514598,279.41674 191.056354,281.701703 191.056354,284.938445 L191.056354,297.699907 L185,297.699907 L185,274.271051 L191.056354,274.271051 L191.056354,275.984485 C191.056354,275.984485 193.514598,273.699907 196.918144,273.699907 C202.407241,273.699907 206,278.078938 206,282.463357" id="Fill-154" fill="#1A1919"></path>
            <path d="M162.214778,283.220136 L171.722871,283.220136 C171.722871,280.839218 169.976583,278.260192 167.066102,278.260192 C163.961459,278.260192 162.214778,280.641109 162.214778,283.220136 M162.214778,287.981168 L177.93765,287.981168 C178.325975,285.005523 177.161783,272.699907 166.87194,272.699907 C157.940451,272.699907 156,282.426497 156,285.600652 C156,288.774807 157.746681,298.699907 167.648198,298.699907 C173.275389,298.699907 176.191361,295.525752 176.96762,294.533603 L173.081226,290.758704 C173.081226,290.758704 171.334938,293.13922 167.648198,293.13922 C164.155229,293.13922 162.214778,290.362085 162.214778,287.981168" id="Fill-155" fill="#1A1919"></path>
            <polyline id="Fill-156" fill="#1A1919" points="63.2228621 284.225267 59.7530201 284.225267 59.7530201 297.699907 53 297.699907 53 265.699907 59.7530201 265.699907 59.7530201 278.233681 73.2528253 278.233681 73.2528253 265.699907 80 265.699907 80 297.699907 73.2528253 297.699907 73.2528253 284.225267 68.8188785 284.225267"></polyline>
            <polygon id="Stroke-157" fill="#1A1919" fill-rule="nonzero" points="95 274.699907 95 298.699907 90 298.699907 90 274.699907"></polygon>
            <path d="M92.0001685,265.699907 C93.6574204,265.699907 95,267.042486 95,268.699738 C95,270.357327 93.6574204,271.699907 92.0001685,271.699907 C90.3425796,271.699907 89,270.357327 89,268.699738 C89,267.042486 90.3425796,265.699907 92.0001685,265.699907" id="Fill-158" fill="#1A1919"></path>
            <path d="M117.314342,284.017219 L117.314342,288.458995 C117.314342,288.845474 117.117986,289.424802 116.724478,290.00413 C116.527724,290.583458 116.134614,291.162786 115.735939,291.548874 C114.949321,292.321442 113.966346,292.90077 112.196356,292.90077 C108.460417,292.90077 106.494071,290.390218 106.494071,285.948443 C106.494071,281.506667 109.050282,278.996115 112.196356,278.996115 C115.342829,278.996115 117.314342,281.120579 117.314342,284.017219 M117.511096,275.321442 C117.511096,271.845474 117.511096,268.369115 117.314342,264.699907 L124,264.699907 L124,297.927339 L117.314342,297.927339 L117.314342,296.382204 C117.314342,296.382204 116.527724,297.154772 115.146075,297.927339 C113.966346,298.313428 112.39311,298.699907 110.820272,298.699907 C109.247035,298.699907 106.494071,298.120579 104.331368,296.575443 C101.966346,294.64422 100,291.162786 100,285.948443 C100,281.313428 100.982974,278.416787 103.146075,276.287249 C105.511096,274.162786 108.853925,273.196979 110.426764,273.196979 C113.376482,273.196979 114.949321,273.583458 117.511096,275.321442" id="Fill-159" fill="#1A1919"></path>
            <path d="M146.505639,284.017219 L146.505639,288.458995 C146.505639,288.845474 146.112138,289.424802 145.915785,290.00413 C145.719034,290.583458 145.32593,291.162786 144.736076,291.548874 C143.949471,292.321442 142.966115,292.90077 141.196552,292.90077 C137.45511,292.90077 135.685547,290.390218 135.685547,285.948443 C135.685547,281.506667 138.044964,278.996115 141.196552,278.996115 C144.342575,278.996115 146.505639,281.120579 146.505639,284.017219 M146.505639,275.321442 L146.505639,264.699907 L153,264.699907 L153,297.927339 L146.505639,297.927339 L146.505639,296.382204 C146.505639,296.382204 145.719034,297.154772 144.146221,297.927339 C143.162866,298.313428 141.589656,298.699907 140.011278,298.699907 C138.241715,298.699907 135.488796,298.120579 133.522482,296.575443 C130.966314,294.64422 129,291.162786 129,285.948443 C129,281.313428 130.179709,278.416787 132.146023,276.287249 C134.505838,274.162786 138.044964,273.196979 139.421424,273.196979 C142.376261,273.196979 143.949471,273.583458 146.505639,275.321442" id="Fill-160" fill="#1A1919"></path>
            <polyline id="Fill-161" fill="#FFFFFE" points="76.5430847 213.699907 13 213.699907 128.922417 9.69990672 246 213.699907"></polyline>
            <path d="M240.082873,226.699907 C246.044566,226.699907 251.61632,223.447652 254.690378,218.282715 C257.769874,213.117392 257.769874,206.607469 254.690378,201.442532 L143.125953,9.34061799 C140.126465,3.99972722 134.501501,0.699906716 128.406594,0.699906716 C122.338484,0.699906716 116.739931,3.96801677 113.724519,9.26598242 L2.30962164,201.251109 C-0.769873881,206.607469 -0.769873881,213.117392 2.30962164,218.282715 C5.38367979,223.447652 10.9554345,226.699907 17.1089881,226.699907 L240.082873,226.699907 Z M26.9129616,204.120519 L230.08665,204.120519 L128.598844,29.0181132 L26.9129616,204.120519 Z" id="Fill-162" fill="#D0383F"></path>
            <path d="M127.5,163.699907 C136.058329,163.699907 143,170.641578 143,179.199907 C143,187.758236 136.058329,194.699907 127.5,194.699907 C118.941671,194.699907 112,187.758236 112,179.199907 C112,170.641578 118.941671,163.699907 127.5,163.699907" id="Fill-163" fill="#1A1919"></path>
            <path d="M126.395055,157.699907 L130.795776,157.699907 L147.580865,91.1569743 C147.862091,89.8383692 148,88.4935616 148,87.1487539 C148,76.4103299 139.262683,67.6999067 128.502704,67.6999067 C117.737317,67.6999067 109,76.4103299 109,87.1487539 C109,88.4935616 109.137909,89.8383692 109.419135,91.1569743" id="Fill-164" fill="#1A1919"></path>
        </g>
    </g>
</svg>