<?xml version="1.0" encoding="UTF-8"?>
<svg width="257px" height="420px" viewBox="0 0 257 420" version="1.1" xmlns="http://www.w3.org/2000/svg" xmlns:xlink="http://www.w3.org/1999/xlink">
    <!-- Generator: Sketch 61.2 (89653) - https://sketch.com -->
    <title>warning-sign-distance-to-stop-line-ahead-50-yards</title>
    <desc>Created with Sketch.</desc>
    <g id="warning-sign-distance-to-stop-line-ahead-50-yards" stroke="none" stroke-width="1" fill="none" fill-rule="evenodd">
        <g id="post" transform="translate(112.000000, 136.000000)">
            <rect id="Rectangle" fill="#C5C5C5" fill-rule="evenodd" x="0" y="0" width="33" height="316"></rect>
            <path id="Rectangle" d="M34,-1 L34,317 L-1,317 L-1,-1 L34,-1 Z M32,1 L1,1 L1,315 L32,315 L32,1 Z" fill="#000000" fill-rule="nonzero"></path>
        </g>
        <g id="Group-10" transform="translate(0.000000, -1.996063)">
            <path d="M16.0501724,22.6297718 L114.955601,193.509783 C117.512398,198.103637 122.630726,200.996063 127.914773,200.996063 C133.374008,200.996063 138.317149,198.103637 141.049134,193.509783 L239.954562,22.6297718 C241.147734,20.4179163 242,17.6956327 242,15.1434918 C242,6.80177204 235.181875,-0.00393700787 226.824937,-0.00393700787 L29.1797981,-0.00393700787 C20.82286,-0.00393700787 14,6.80177204 14,15.1434918 C14,18.0359181 14.6818125,20.0776309 16.0501724,22.6297718" id="Fill-21" fill="#D0383F"></path>
            <polygon id="Fill-22" fill="#FDFCFB" points="219 19.996063 39 19.996063 128.912527 175.996063"></polygon>
            <path d="M15.8469059,210.996063 C7.15926206,210.996063 0,217.982919 0,226.668002 L0,326.324124 C0,335.013938 7.15926206,341.996063 15.8469059,341.996063 L241.318708,341.996063 C250.011084,341.996063 257,335.013938 257,326.324124 L257,226.668002 C257,217.982919 250.011084,210.996063 241.318708,210.996063 L15.8469059,210.996063" id="Fill-23" fill="#1A1919"></path>
            <path d="M15.9956862,218.996063 C11.5725406,218.996063 8,222.562101 8,226.807384 L8,326.180025 C8,330.425308 11.5725406,333.996063 15.9956862,333.996063 L241.169709,333.996063 C245.59758,333.996063 249,330.425308 249,326.180025 L249,226.807384 C249,222.562101 245.59758,218.996063 241.169709,218.996063 L15.9956862,218.996063" id="Fill-24" fill="#FFFFFE"></path>
            <path d="M166.489531,303.949311 L166.489531,308.015831 C166.489531,309.710214 164.941056,312.251789 161.672053,312.251789 C158.570323,312.251789 156.677742,309.710214 156.677742,305.813132 C156.677742,301.741905 158.914429,299.878084 161.672053,299.878084 C164.424898,299.878084 166.489531,301.403029 166.489531,303.949311 M166.489531,296.828194 L166.489531,286.996063 L172,286.996063 L172,316.148871 L166.489531,316.148871 L166.489531,315.132241 C166.489531,315.132241 164.252845,316.996063 160.983842,316.996063 C157.710059,316.996063 151,314.285049 151,305.643694 C151,296.997632 157.882112,294.625495 160.467683,294.625495 C163.048475,294.625495 164.252845,295.303248 166.489531,296.828194" id="Fill-25" fill="#1A1919"></path>
            <path d="M175,312.903921 L179.06941,309.323297 C180.42588,311.028356 183.652206,312.562909 185.178235,312.562909 C186.534705,312.562909 187.891175,311.369368 187.891175,310.346332 C187.891175,309.323297 187.043381,308.811779 186.365146,308.641273 C185.517353,308.470767 182.804412,307.788743 182.295736,307.618237 C181.617501,307.447731 176.695588,306.595202 176.695588,301.475288 C176.695588,296.189604 182.126177,294.996063 185.517353,294.996063 C188.738969,294.996063 191.626177,296.019099 194,298.06517 L190.434556,301.8163 C188.56941,300.111241 187.043381,299.429217 185.517353,299.429217 C183.821765,299.429217 182.634854,300.111241 182.634854,301.304782 C182.634854,302.50306 183.482647,302.673566 183.991324,302.839335 C184.5,303.014578 188.060734,303.696601 188.738969,303.867107 C189.586763,304.037613 193.830441,305.40166 193.830441,310.175826 C193.830441,315.120498 189.247645,316.996063 185.008676,316.996063 C180.595439,316.996063 176.35647,314.779486 175,312.903921" id="Fill-26" fill="#1A1919"></path>
            <path d="M140.627907,319.645813 L149,294.996063 L143.190793,294.996063 L139.08543,308.005389 L134.813953,294.996063 L129,294.996063 L136.009967,315.192127 C136.351685,316.561029 135.839108,318.27691 132.934504,317.934685 L131.055055,317.592459 L130.371618,322.383617 L133.61794,322.896956 C137.718557,323.410294 139.598007,321.870279 140.627907,319.645813" id="Fill-27" fill="#1A1919"></path>
            <path d="M103.917273,292.398613 C107.060896,292.398613 110.043661,294.08305 110.043661,301.663013 C110.209115,309.247656 107.391804,311.605867 103.917273,311.605867 C100.608196,311.605867 97.7908847,309.247656 97.7908847,301.663013 C97.9563386,294.08305 100.939104,292.398613 103.917273,292.398613 M103.917273,287.003738 C108.053619,286.835295 116,289.366628 116,301.831457 C116,314.469408 108.549981,316.996063 103.917273,316.996063 C99.4500191,316.996063 92,314.469408 92,301.831457 C92,289.366628 99.9463807,286.835295 103.917273,287.003738" id="Fill-28" fill="#1A1919"></path>
            <path d="M72.2785135,296.543239 L72.7859889,292.28322 L85.6467322,292.28322 L85.6467322,286.996063 L67.880393,286.996063 L65.338317,302.166464 L71.2635626,303.023201 L71.2635626,303.018468 C72.2785135,301.655261 73.8009398,300.632857 75.8308415,300.632857 C77.8654421,300.632857 80.9102947,302.336865 80.9102947,306.260815 C80.9102947,309.66883 78.542076,311.543239 75.8308415,311.543239 C73.4626228,311.543239 71.2635626,309.66883 70.7560871,307.453621 L65,308.987227 C66.5224263,316.484861 75.1542076,316.996063 76.1691585,316.996063 C77.8654421,316.996063 87,315.973658 87,306.260815 C87,295.861636 78.880393,295.691235 77.0149509,295.691235 C75.3233661,295.691235 73.8009398,296.032036 72.2785135,296.543239" id="Fill-29" fill="#1A1919"></path>
            <polyline id="Fill-30" fill="#1A1919" points="110.572852 234.996063 101 234.996063 101 263.996063 121 263.996063 121 258.597774 106.809207 258.597774 106.809207 252.192866 118.778832 252.192866 118.778832 246.630709 106.809207 246.630709 106.809207 240.38967 120.145705 240.38967 120.145705 234.996063 115.186047 234.996063"></polyline>
            <path d="M43.12753,243.879307 L48.4970446,241.493696 C46.6528748,237.91528 42.4569228,233.996063 36.5891098,233.996063 C30.548988,233.996063 23,238.426483 23,248.825662 C23,259.224842 30.3813362,263.996063 36.5891098,263.996063 C40.612753,263.996063 43.2951818,262.292055 43.7981372,261.951254 L43.7981372,263.825662 L49,263.825662 L49,246.951254 L36.5891098,246.951254 L36.5891098,251.892876 L43.7981372,251.892876 C43.7981372,254.789689 41.2833602,258.708906 36.5891098,258.708906 C31.8902024,258.708906 28.87247,254.619288 28.87247,248.996063 C28.87247,243.368105 32.225506,239.619288 36.2491492,239.619288 C40.2774494,239.619288 42.289271,242.004899 43.12753,243.879307" id="Fill-31" fill="#1A1919"></path>
            <polygon id="Stroke-32" fill="#1A1919" fill-rule="nonzero" points="65 234.996063 65 263.996063 59 263.996063 59 234.996063"></polygon>
            <polyline id="Fill-33" fill="#1A1919" points="83.7549515 263.996063 86.9425243 263.996063 95 234.996063 88.9603883 234.996063 83.0838835 256.115325 77.2073786 234.996063 71 234.996063 79.2252427 263.996063 81.9095146 263.996063"></polyline>
            <path d="M191.74494,253.541268 L189.393158,253.541268 L192.918503,242.243722 L196.774494,253.541268 L194.259717,253.541268 L191.74494,253.541268 Z M191.074333,258.766325 L187.71664,258.766325 L186.040122,263.996063 L180,263.996063 L189.393158,234.996063 L196.606842,234.996063 L206,263.996063 L200.12753,263.996063 L198.28336,258.766325 L194.762672,258.766325 L191.074333,258.766325 Z" id="Fill-34" fill="#1A1919"></path>
            <polyline id="Fill-35" fill="#1A1919" points="157.979175 234.996063 155.60275 234.996063 151.698625 254.384019 147.110806 234.996063 141 234.996063 147.620039 263.996063 154.754028 263.996063 158.997642 242.749373 163.245972 263.996063 170.375246 263.996063 177 234.996063 170.714735 234.996063 166.47112 254.384019 162.227505 234.996063 160.355599 234.996063"></polyline>
            <polyline id="Fill-36" fill="#1A1919" points="213.887638 234.996063 210 234.996063 219.62765 252.192866 219.62765 263.996063 225.37235 263.996063 225.37235 252.192866 235 234.996063 228.41118 234.996063 222.502345 246.293609 216.58882 234.996063"></polyline>
        </g>
    </g>
</svg>