<?xml version="1.0" encoding="UTF-8"?>
<svg width="475px" height="420px" viewBox="0 0 475 420" version="1.1" xmlns="http://www.w3.org/2000/svg" xmlns:xlink="http://www.w3.org/1999/xlink">
    <!-- Generator: Sketch 61.2 (89653) - https://sketch.com -->
    <title>warning-sign-risk-of-grounding</title>
    <desc>Created with Sketch.</desc>
    <g id="warning-sign-risk-of-grounding" stroke="none" stroke-width="1" fill="none" fill-rule="evenodd">
        <g id="Group-3">
            <polyline id="Fill-220" fill="#FFFFFE" points="15.1522119 392.780441 233.234008 19.3684068 450.612483 392.076407"></polyline>
            <path d="M164.182449,305.416169 L164.182449,305.416169 C167.097534,305.416169 169.464483,307.783831 169.464483,310.698915 C169.464483,313.614 167.097534,315.980949 164.182449,315.980949 C161.257398,315.980949 158.890449,313.614 158.890449,310.698915 C158.890449,307.783831 161.257398,305.416169 164.182449,305.416169 M163.830076,294.489763 L163.830076,294.489763 C172.771093,294.489763 180.029263,301.747932 180.029263,310.698915 C180.029263,319.639932 172.771093,326.898102 163.830076,326.898102 C154.879805,326.898102 147.621636,319.639932 147.621636,310.698915 C147.621636,301.747932 154.879805,294.489763 163.830076,294.489763" id="Fill-221" fill="#1A1919"></path>
            <path d="M203.291568,282.516203 L203.291568,282.516203 C206.206653,282.516203 208.573602,284.883864 208.573602,287.798949 C208.573602,290.714034 206.206653,293.080983 203.291568,293.080983 C200.366517,293.080983 197.999568,290.714034 197.999568,287.798949 C197.999568,284.883864 200.366517,282.516203 203.291568,282.516203 M203.291568,271.24739 L203.291568,271.24739 C212.427636,271.24739 219.842415,278.662169 219.842415,287.798949 C219.842415,296.935017 212.427636,304.359763 203.291568,304.359763 C194.144822,304.359763 186.730042,296.935017 186.730042,287.798949 C186.730042,278.662169 194.144822,271.24739 203.291568,271.24739" id="Fill-222" fill="#1A1919"></path>
            <path d="M338.930212,305.768542 L338.930212,305.768542 C341.845297,305.768542 344.212246,308.136203 344.212246,311.051288 C344.212246,313.965661 341.845297,316.333322 338.930212,316.333322 C336.015127,316.333322 333.647466,313.965661 333.647466,311.051288 C333.647466,308.136203 336.015127,305.768542 338.930212,305.768542 M338.930212,294.842136 L338.930212,294.842136 C347.870517,294.842136 355.138653,302.100305 355.138653,311.051288 C355.138653,319.991593 347.870517,327.249763 338.930212,327.249763 C329.979229,327.249763 322.721059,319.991593 322.721059,311.051288 C322.721059,302.100305 329.979229,294.842136 338.930212,294.842136" id="Fill-223" fill="#1A1919"></path>
            <path d="M162.069636,337.824508 L97.5953644,337.824508 L97.5953644,360.724475 L375.221771,360.724475 L375.221771,338.176881 L347.733839,338.176881 C338.225466,338.176881 329.0595,334.655288 322.017025,331.486068 C314.973839,328.658542 301.229873,319.502542 293.13028,314.924542 C285.373093,310.346542 273.047161,301.894576 260.711975,301.542915 C244.151161,301.190542 237.81272,304.359763 233.234008,306.824949 C228.304347,309.642508 210.334754,320.207288 202.225195,324.785288 C194.477975,329.724915 184.969602,337.824508 162.069636,337.824508" id="Fill-224" fill="#1A1919"></path>
            <path d="M127.89089,292.376949 L131.06011,257.151763 C131.764856,251.869017 133.877669,249.756203 136.342856,247.995763 L153.256042,237.421017 C156.777636,234.955831 161.013229,236.716983 163.126042,239.543797 L181.448008,269.486949 L190.251636,264.194949 L192.364449,246.939356 L234.995161,252.573763 L243.094754,269.486949 L248.386754,231.082576 C249.090788,228.969051 249.795534,224.743424 254.725907,225.447458 L311.803907,234.251797 C317.439025,235.660576 318.847093,238.125051 318.143059,241.304237 L311.452246,289.911763 L316.73428,289.911763 C322.368686,284.277356 330.46828,280.755763 338.930212,280.755763 C355.843398,280.755763 369.577398,294.489763 369.577398,311.402949 C369.577398,313.164102 369.225025,314.924542 368.872653,316.685695 L358.660246,315.276915 C359.012619,313.868136 359.012619,312.459356 359.012619,311.402949 C359.012619,300.134136 349.846653,291.320542 338.930212,291.320542 C328.355466,291.320542 319.551839,299.420136 318.847093,309.642508 L237.460347,297.658983 L224.078008,268.430542 L217.377229,267.364169 L223.012347,273.360203 L219.138381,275.473729 C215.264415,270.895729 209.630008,267.716542 203.291568,267.716542 C192.364449,267.716542 183.208449,276.881797 183.208449,287.798949 C183.208449,290.615797 183.913195,293.433356 184.969602,295.898542 L180.029263,298.71539 C176.156008,293.785729 170.521602,290.968169 164.182449,290.968169 C153.256042,290.968169 144.100042,299.781763 144.100042,311.051288 C144.100042,313.868136 144.804076,316.333322 145.860483,318.798508 L140.578449,321.967729 L128.947297,301.190542 C127.538517,299.077729 127.538517,298.372983 127.89089,292.376949 M143.043636,257.151763 L156.425263,249.403831 L168.056415,268.782203 L137.399263,286.390169 L139.522042,262.433797 C139.873703,259.96861 141.282483,257.855797 143.043636,257.151763" id="Fill-225" fill="#1A1919"></path>
            <path d="M439.695331,416.022814 C450.612483,416.022814 460.834856,410.036034 466.469263,400.527661 C472.103669,391.019288 472.103669,379.036475 466.469263,369.176441 L261.8175,15.445322 C256.271364,5.88854237 246.048992,-2.02324033e-13 234.995161,-2.02324033e-13 C223.941331,-2.02324033e-13 213.718958,5.88854237 208.172822,15.445322 L4.22580508,369.176441 C-1.40860169,379.036475 -1.40860169,390.667627 4.22580508,400.527661 C9.50783898,410.036034 20.0825847,416.022814 30.9990254,416.022814 L439.695331,416.022814 Z M48.9686186,374.458475 L421.373364,374.458475 L235.347534,52.1284068 L48.9686186,374.458475 Z" id="Fill-226" fill="#D0383F"></path>
        </g>
    </g>
</svg>