<?xml version="1.0" encoding="UTF-8"?>
<svg width="475px" height="420px" viewBox="0 0 475 420" version="1.1" xmlns="http://www.w3.org/2000/svg" xmlns:xlink="http://www.w3.org/1999/xlink">
    <!-- Generator: Sketch 61.2 (89653) - https://sketch.com -->
    <title>warning-sign-cattle</title>
    <desc>Created with Sketch.</desc>
    <g id="warning-sign-cattle" stroke="none" stroke-width="1" fill="none" fill-rule="evenodd">
        <g id="Group">
            <polyline id="Fill-10" fill="#FFFFFE" points="109.305356 393.132814 22.6358644 393.132814 234.026847 25.3644407 445.418542 393.132814"></polyline>
            <path d="M439.784136,416.03278 C451.052949,416.03278 461.275322,410.046 466.909729,400.176 C472.544136,390.667627 472.544136,378.694068 466.909729,369.176441 L262.257966,15.4552881 C256.711831,5.88854237 246.499424,0 235.435627,0 C224.381797,0 214.159424,5.88854237 208.613288,15.4552881 L3.96152542,369.176441 C-1.32050847,378.694068 -1.32050847,390.667627 3.96152542,400.176 C9.60589831,410.046 20.170678,416.03278 31.0970847,416.03278 L439.784136,416.03278 Z M49.0574237,374.458475 L421.813831,374.458475 L235.435627,51.786 L49.0574237,374.458475 Z" id="Fill-12" fill="#D0383F"></path>
            <path d="M138.906102,302.246949 C138.553729,302.246949 134.318136,306.824949 133.261729,307.881356 C132.556983,308.937763 131.500576,310.698915 132.205322,313.164102 C133.261729,315.638542 134.670508,328.668508 134.670508,331.486068 C134.670508,334.302915 134.318136,343.811288 134.318136,344.515322 C134.318136,345.571729 133.965763,346.276475 133.965763,346.990475 C134.318136,347.342847 135.022169,348.399254 135.736169,348.750915 C136.440915,349.103288 137.849695,350.159695 137.849695,350.159695 C137.849695,350.159695 135.736169,354.386034 135.374542,355.442441 C137.497322,357.907627 143.484102,360.020441 146.653322,360.020441 C149.470881,360.020441 151.231322,359.315695 151.231322,357.202881 C151.231322,355.442441 148.413763,351.920847 147.005695,350.512068 C145.949288,349.103288 144.540508,341.698475 144.540508,335.359322 C144.540508,329.372542 146.653322,320.568915 151.231322,314.924542 C157.932102,327.259729 159.692542,338.529254 159.340881,345.924102 C162.157729,346.276475 163.566508,348.046881 164.622915,350.512068 C166.031695,352.977254 168.144508,355.090068 173.778915,355.090068 C176.596475,355.090068 177.652881,354.386034 178.005254,354.033661 C178.005254,353.681288 177.652881,352.624881 176.596475,351.920847 C175.891729,350.864441 169.553288,340.993729 168.496881,338.880915 C167.440475,336.768102 166.384068,332.190102 166.384068,330.429661 C166.384068,328.316136 166.384068,323.034102 168.849254,322.681729 C171.666102,321.977695 172.018475,326.203322 173.427254,326.203322 C174.835322,325.851661 173.778915,323.738136 175.540068,323.386475 C177.300508,323.034102 179.775661,322.330068 180.479695,324.090508 C181.184441,325.851661 181.888475,326.908068 182.944881,325.146915 C184.001288,323.738136 184.001288,322.330068 184.001288,321.625322 C188.227627,319.160136 189.635695,317.399695 190.340441,316.343288 C191.396847,315.276915 194.213695,312.107695 194.213695,312.107695 C199.144068,312.459356 204.436068,312.811729 206.19722,312.811729 C208.310034,312.811729 213.592068,312.459356 215.704881,312.459356 C218.170068,312.459356 220.635254,312.811729 223.462068,312.811729 C225.927254,312.811729 229.80122,312.107695 231.21,311.755322 C232.266407,311.402949 232.61878,311.402949 233.675186,311.755322 C235.083254,312.107695 236.139661,312.811729 236.139661,314.220508 C236.492034,315.276915 237.548441,317.752068 237.548441,319.512508 L237.548441,323.386475 C237.19678,324.090508 235.435627,327.964475 235.435627,329.020881 C235.435627,330.077288 237.19678,331.133695 237.900814,332.542475 C238.604847,334.302915 240.718373,337.472136 240.366,341.346102 C240.366,344.867695 239.661254,346.276475 239.661254,348.399254 C239.661254,349.455661 238.604847,350.512068 240.366,350.512068 C242.136407,350.864441 242.136407,351.568475 242.48878,352.977254 C243.192814,354.033661 243.192814,355.090068 244.601593,356.146475 C246.010373,356.850508 250.236,358.611661 252.701186,358.611661 C255.166373,358.964034 255.870407,358.611661 256.22278,357.555254 C256.575153,356.498847 255.870407,355.090068 254.461627,354.033661 C252.701186,352.977254 251.997153,352.977254 251.64478,351.568475 C250.940034,349.808034 249.883627,344.867695 249.531966,343.458915 C249.179593,341.698475 248.82722,335.007661 248.82722,333.598881 C248.82722,331.837729 248.82722,329.020881 249.179593,327.259729 C249.883627,325.851661 250.588373,321.625322 250.588373,321.625322 C251.292407,325.499288 253.40522,332.542475 254.109966,332.894136 C255.166373,333.598881 255.870407,334.302915 256.22278,335.359322 C256.575153,336.064068 257.279186,342.050136 257.98322,344.163661 C258.335593,345.924102 258.687966,352.624881 259.039627,353.328915 C259.744373,353.681288 261.153153,353.681288 261.857186,354.386034 C262.913593,355.090068 263.979966,357.202881 265.388746,358.259288 C266.796814,359.315695 268.910339,360.372102 271.023153,360.372102 C273.488339,360.372102 274.896407,360.020441 275.24878,359.315695 C275.601153,358.611661 275.601153,357.907627 275.24878,357.202881 C274.544746,356.498847 270.318407,353.328915 269.614373,352.272508 C269.262,351.216102 266.796814,346.638102 266.445153,345.220068 C266.09278,343.811288 263.265966,333.598881 263.265966,332.190102 C263.265966,330.781322 263.979966,329.372542 264.332339,327.612102 C264.332339,325.851661 264.684,320.216542 264.684,318.103729 C264.684,316.343288 264.684,315.638542 266.445153,315.638542 C267.853932,315.638542 269.966746,315.638542 271.023153,315.276915 C272.079559,314.572881 273.84,312.811729 274.896407,311.402949 C276.305186,308.586102 277.361593,306.824949 277.713966,305.768542 C278.066339,304.359763 280.531525,297.317288 281.587932,294.499729 C282.996,292.034542 286.527559,285.686136 288.288712,283.220949 C290.049153,281.108136 293.218373,277.586542 294.979525,275.82539 C296.739966,274.064949 299.205153,273.712576 301.317966,273.008542 C303.43078,272.656169 306.609966,273.360915 309.427525,273.008542 C312.596746,272.303797 315.414305,271.952136 317.174746,271.24739 C318.935898,270.543356 322.809153,268.782203 324.570305,268.430542 C326.330746,268.078169 330.566339,268.782203 331.271085,268.078169 C331.975119,267.374136 332.327492,266.317729 333.031525,265.261322 C333.736271,263.852542 334.440305,263.500169 334.792678,263.147797 C335.496712,262.796136 336.201458,262.796136 336.201458,261.739729 C336.201458,260.68261 335.849085,260.330949 334.792678,258.922169 C333.031525,256.809356 329.509932,254.334203 328.805898,252.925424 C327.749492,251.869017 327.035492,250.460949 325.979085,249.404542 C324.922678,248.347424 322.105119,246.939356 320.696339,245.530576 C319.639932,244.121797 313.653153,238.135017 312.245085,237.07861 C311.187966,236.022203 306.962339,233.205356 306.962339,233.205356 C309.779898,233.205356 316.470712,233.90939 318.935898,232.148237 C321.752746,230.387797 322.457492,228.979017 323.161525,226.866203 C319.639932,227.570237 317.174746,227.92261 315.414305,227.92261 C313.653153,227.92261 308.018746,227.218576 305.544305,226.162169 C302.726746,224.743424 301.670339,224.743424 300.966305,224.743424 C300.261559,224.743424 299.557525,225.095797 297.796373,225.809797 C296.035932,226.513831 294.979525,226.866203 294.979525,227.92261 C294.979525,228.627356 295.331186,229.33139 296.035932,229.683763 C296.739966,230.387797 297.092339,232.50061 296.388305,232.852983 C295.331186,232.852983 294.979525,232.50061 293.923119,231.796576 C293.218373,231.091831 289.69678,229.33139 287.583966,229.33139 C285.823525,229.33139 284.767119,230.740169 284.40478,231.444203 C283.700746,232.148237 283.348373,233.557017 284.40478,234.613424 C285.471153,235.669831 286.527559,235.669831 287.231593,236.022203 C288.288712,236.374576 289.345119,236.726237 289.345119,237.783356 C289.345119,238.48739 288.992746,238.839763 287.231593,238.839763 C285.471153,239.191424 277.713966,239.896169 274.192373,239.896169 C265.036373,240.247831 245.658,241.304949 238.95722,242.008983 C232.61878,242.713017 224.166814,243.769424 217.466034,244.474169 C210.77522,245.178203 207.253627,245.178203 200.914475,245.178203 C194.918441,245.178203 179.775661,244.474169 175.187695,243.417763 C168.496881,242.713017 160.044915,242.361356 156.161695,242.008983 C152.287729,241.65661 145.949288,241.304949 143.131729,243.06539 C139.962508,244.825831 135.736169,247.995763 133.965763,251.164983 C132.205322,254.686576 132.205322,254.334203 131.500576,257.865763 C131.148915,261.387356 129.740136,267.725797 129.036102,270.543356 C128.331356,273.360915 128.331356,276.177763 128.331356,279.346983 C128.331356,282.516915 127.627322,288.865322 127.627322,292.386915 C127.627322,293.443322 127.627322,295.203763 125.866169,295.556136 C124.458102,296.260169 123.753356,296.612542 123.049322,298.021322 C122.344576,299.077729 121.288169,299.077729 120.936508,301.190542 C120.584136,303.303356 120.584136,305.064508 120.936508,306.824949 C121.288169,308.586102 122.344576,308.937763 122.696949,312.107695 C123.049322,314.572881 123.753356,318.808475 124.105729,320.921288 C124.809763,318.456102 126.218542,317.752068 126.218542,315.990915 C126.218542,313.868136 127.274949,308.937763 127.978983,306.824949 C128.331356,304.712136 131.500576,303.303356 131.500576,301.895288 C131.852949,300.134136 131.852949,298.725356 131.500576,297.668949 C130.796542,296.612542 130.444169,296.260169 130.796542,294.852102 C131.148915,293.090949 131.852949,286.038508 131.852949,284.277356 C131.852949,282.516915 132.909356,267.374136 133.261729,265.612983 C133.614102,263.500169 135.736169,255.742983 135.736169,255.742983 C135.374542,262.09139 135.022169,270.895729 135.022169,273.360915 L135.022169,286.038508 C135.374542,288.512949 134.670508,294.147356 136.088542,296.612542 C137.497322,299.430102 138.201356,300.486508 138.201356,300.486508" id="Fill-13" fill="#1A1919"></path>
        </g>
    </g>
</svg>