<?xml version="1.0" encoding="UTF-8"?>
<svg width="475px" height="420px" viewBox="0 0 475 420" version="1.1" xmlns="http://www.w3.org/2000/svg" xmlns:xlink="http://www.w3.org/1999/xlink">
    <!-- Generator: Sketch 61.2 (89653) - https://sketch.com -->
    <title>warning-sign-hump-bridge</title>
    <desc>Created with Sketch.</desc>
    <g id="warning-sign-hump-bridge" stroke="none" stroke-width="1" fill="none" fill-rule="evenodd">
        <g id="Group-8">
            <polyline id="Fill-277" fill="#FFFFFE" points="109.217263 387.146034 24.3082119 387.146034 235.699907 20.4347797 448.147297 387.146034"></polyline>
            <path d="M440.047703,416.03278 C450.964856,416.03278 461.53889,410.036034 466.821636,400.527661 C472.456042,390.667627 472.456042,378.684102 466.821636,369.176441 L262.169873,15.4552881 C256.623737,5.88854237 246.401364,2.02324033e-13 235.347534,2.02324033e-13 C224.293703,2.02324033e-13 214.071331,5.88854237 208.525195,15.4552881 L4.22580508,369.176441 C-1.40860169,378.684102 -1.40860169,390.667627 4.22580508,400.527661 C9.87017797,410.036034 20.0825847,416.03278 31.3613644,416.03278 L440.047703,416.03278 Z M49.3209915,374.458475 L421.725737,374.458475 L235.699907,52.1383729 L49.3209915,374.458475 Z" id="Fill-278" fill="#D0383F"></path>
            <path d="M268.822246,322.671763 L269.164653,322.681729 C269.173907,322.564271 269.173907,322.446814 269.173907,322.330068 C269.173907,303.401593 253.933602,288.004678 235.005127,287.808915 C234.887669,287.798949 234.760958,287.798949 234.6435,287.798949 C215.587602,287.798949 200.112381,303.264203 200.112381,322.330068 C200.112381,322.446814 200.112381,322.564271 200.122347,322.681729 L200.112381,346.980508 L109.921297,346.980508 L109.921297,291.330508 L132.46889,290.968169 C150.027737,290.968169 166.775059,283.573322 178.592008,270.582508 L178.631161,270.934881 C193.040008,255.194847 213.357331,246.23461 234.6435,246.23461 C255.928958,246.23461 276.24628,255.194847 290.665093,270.934881 L291.046653,270.582508 C302.863602,283.573322 319.610924,290.968169 337.169771,290.968169 L359.717364,291.320542 L359.717364,346.980508 L269.52628,346.980508" id="Fill-279" fill="#1A1919"></path>
        </g>
    </g>
</svg>