<?xml version="1.0" encoding="UTF-8"?>
<svg width="229px" height="420px" viewBox="0 0 229 420" version="1.1" xmlns="http://www.w3.org/2000/svg" xmlns:xlink="http://www.w3.org/1999/xlink">
    <!-- Generator: Sketch 61.2 (89653) - https://sketch.com -->
    <title>warning-sign-distance-to-stop-line-ahead-100-yards</title>
    <desc>Created with Sketch.</desc>
    <g id="warning-sign-distance-to-stop-line-ahead-100-yards" stroke="none" stroke-width="1" fill="none" fill-rule="evenodd">
        <g id="post" transform="translate(98.000000, 131.000000)">
            <rect id="Rectangle" fill="#C5C5C5" fill-rule="evenodd" x="0" y="0" width="33" height="316"></rect>
            <path id="Rectangle" d="M34,-1 L34,317 L-1,317 L-1,-1 L34,-1 Z M32,1 L1,1 L1,315 L32,315 L32,1 Z" fill="#000000" fill-rule="nonzero"></path>
        </g>
        <g id="Group" transform="translate(0.000000, -3.004444)">
            <path d="M2.06070493,22.8633642 L101.302922,195.443674 C104.044183,200.083238 109.188807,203.004444 114.5,203.004444 C119.987281,203.004444 124.955817,200.083238 127.701837,195.443674 L227.115383,22.8633642 C228.314685,20.6295003 229,17.8801293 229,15.3025939 C229,6.87787199 222.318176,0.00444444444 213.918305,0.00444444444 L15.257783,0.00444444444 C6.8579118,0.00444444444 0,6.87787199 0,15.3025939 C0,18.2238006 0.51398645,20.2858289 2.06070493,22.8633642" id="Fill-7" fill="#D0383F"></path>
            <polygon id="Fill-8" fill="#FDFCFB" points="206 20.0044444 25 20.0044444 115.412041 177.004444"></polygon>
            <path d="M113.497622,213.004444 L30.8431396,213.004444 C22.0916005,213.004444 15,220.062257 15,228.761531 L15,328.247358 C15,336.951362 22.0916005,344.004444 30.8431396,344.004444 L196.152104,344.004444 C204.903643,344.004444 212,336.951362 212,328.247358 L212,228.761531 C212,220.062257 204.903643,213.004444 196.152104,213.004444 L113.497622,213.004444" id="Fill-9" fill="#1A1919"></path>
            <path d="M113.497625,220.004444 L30.8660543,220.004444 C26.5197743,220.004444 23,223.530121 23,227.88369 L23,328.120441 C23,332.47401 26.5197743,336.004444 30.8660543,336.004444 L196.129196,336.004444 C200.475476,336.004444 204,332.47401 204,328.120441 L204,227.88369 C204,223.530121 200.475476,220.004444 196.129196,220.004444 L113.497625,220.004444" id="Fill-10" fill="#FFFFFE"></path>
            <path d="M127.585079,240.957378 C123.607052,240.957378 119.964742,244.108931 119.964742,250.591988 C119.964742,257.245267 123.772611,260.39682 127.585079,260.39682 C131.227389,260.39682 135.035258,257.245267 135.035258,250.591988 C135.035258,244.108931 131.392948,240.957378 127.585079,240.957378 M127.585079,235.004444 C122.117016,235.004444 114,239.556688 114,250.591988 C114,261.452201 121.785897,266.004444 127.585079,266.004444 C133.214103,266.004444 141,261.452201 141,250.591988 C141,239.556688 133.048544,235.004444 127.585079,235.004444" id="Fill-11" fill="#1A1919"></path>
            <path d="M161.687202,240.551796 L155.841215,240.551796 L155.841215,249.050993 L161.515401,249.050993 C164.092408,249.050993 165.982213,246.797382 165.982213,244.71231 C165.982213,242.632053 164.264208,240.551796 161.687202,240.551796 M163.748807,235.004444 L150,235.004444 L150,265.004444 L155.841215,265.004444 L155.841215,254.251635 L162.546204,254.251635 C168.907592,254.251635 172,249.744412 172,244.71231 C172,239.685022 168.563991,235.004444 163.748807,235.004444" id="Fill-12" fill="#1A1919"></path>
            <path d="M58,260.318082 L62.2791936,256.186024 C67.7613161,260.145913 72.2116774,260.495034 73.4098517,260.495034 C74.955116,260.495034 76.4956257,258.94073 76.4956257,257.04687 C76.4956257,255.15301 75.1262838,254.119995 74.0992773,253.947826 C73.2386839,253.603488 69.130658,252.742643 67.4189806,252.398304 C65.7073032,252.053966 60.3963484,250.504444 60.3963484,243.957237 C60.3963484,237.414812 65.0226322,235.004444 70.3288323,235.004444 C75.639787,235.004444 79.4054774,236.553966 83,239.65301 L78.8919741,243.612899 C76.6667935,242.063377 73.9233549,240.686024 69.9864968,240.686024 C67.4189806,240.686024 67.0766451,242.924222 67.0766451,243.612899 C67.0766451,244.473744 67.5901483,246.195435 69.130658,246.544556 C70.6711677,246.888894 74.7839483,247.921908 75.4686192,247.921908 C77.1802967,248.266246 83,250.504444 83,256.702531 C83,262.216725 79.2343096,266.004444 72.5540129,266.004444 C65.7073032,266.004444 60.2251807,262.733232 58,260.318082" id="Fill-13" fill="#1A1919"></path>
            <polyline id="Fill-14" fill="#1A1919" points="105.127173 240.584038 101.937685 240.584038 101.937685 265.004444 96.2301823 265.004444 96.2301823 240.584038 88 240.584038 88 235.004444 110 235.004444 110 240.584038 106.642645 240.584038"></polyline>
            <path d="M163.489531,305.5228 L163.489531,309.724871 C163.489531,311.475734 161.941056,314.102028 158.672053,314.102028 C155.570323,314.102028 153.677742,311.475734 153.677742,307.273663 C153.677742,303.241815 155.914429,301.315866 158.672053,301.315866 C161.424898,301.315866 163.489531,302.891642 163.489531,305.5228 M163.489531,298.164313 L163.489531,288.004444 L169,288.004444 L169,318.129013 L163.489531,318.129013 L163.489531,317.078495 C163.489531,317.078495 161.252845,319.004444 157.983842,319.004444 C154.710059,319.004444 148,316.203064 148,307.273663 C148,298.339399 154.882112,295.888191 157.467683,295.888191 C160.048475,295.888191 161.252845,296.588536 163.489531,298.164313" id="Fill-15" fill="#1A1919"></path>
            <path d="M172,313.912302 L176.06941,310.331678 C177.42588,312.036737 180.652206,313.571291 182.178235,313.571291 C183.534705,313.571291 184.891175,312.377749 184.891175,311.354714 C184.891175,310.331678 184.043381,309.82016 183.365146,309.649654 C182.517353,309.479148 179.804412,308.797125 179.295736,308.626619 C178.617501,308.456113 173.695588,307.603583 173.695588,302.483669 C173.695588,297.368492 179.126177,296.004444 182.517353,296.004444 C185.738969,296.004444 188.626177,297.02748 191,299.073551 L187.434556,302.824681 C185.56941,301.119622 184.043381,300.437598 182.517353,300.437598 C180.821765,300.437598 179.634854,301.119622 179.634854,302.313163 C179.634854,303.506705 180.482647,303.681947 180.991324,303.852453 C181.5,304.018223 185.060734,304.704983 185.738969,304.875489 C186.586763,305.045994 190.830441,306.410042 190.830441,311.184208 C190.830441,316.128879 186.247645,318.004444 182.008676,318.004444 C177.595439,318.004444 173.35647,315.787867 172,313.912302" id="Fill-16" fill="#1A1919"></path>
            <path d="M135.627907,320.654194 L144,296.004444 L138.190793,296.004444 L134.08543,309.01377 L129.813953,296.004444 L124,296.004444 L131.009967,316.200508 C131.351685,317.569411 130.839108,319.285292 127.934504,318.943066 L126.055055,318.60084 L125.371618,323.391999 L128.61794,323.905337 C132.718557,324.418676 134.598007,322.878661 135.627907,320.654194" id="Fill-17" fill="#1A1919"></path>
            <path d="M45.0022391,288.004444 L50,288.004444 L50,318.004444 L44.5185849,318.004444 L44.5185849,297.250489 L40,297.250489 L40,292.368345 L40.6448724,292.368345 C41.9346171,292.368345 44.3573668,292.368345 45.0022391,288.004444" id="Fill-18" fill="#1A1919"></path>
            <path d="M69.9172731,293.58708 C72.8954424,293.58708 76.0436614,295.501723 76.0436614,303.160293 C76.2091153,310.997757 73.3918039,313.434575 69.9172731,313.434575 C66.6081961,313.434575 63.6254309,310.997757 63.7954807,303.160293 C63.9609345,295.501723 66.9391038,293.58708 69.9172731,293.58708 M69.9172731,288.012376 C74.0582152,287.838317 82,290.454028 82,303.334352 C82,316.393568 74.3891229,319.004444 69.9172731,319.004444 C65.4500191,319.004444 58,316.393568 58,303.334352 C58,290.454028 65.9463807,287.838317 69.9172731,288.012376" id="Fill-19" fill="#1A1919"></path>
            <path d="M100.917273,293.58708 C104.060896,293.58708 107.043661,295.501723 107.043661,303.160293 C107.209115,310.997757 104.391804,313.434575 100.917273,313.434575 C97.6081961,313.434575 94.7908847,310.997757 94.7908847,303.160293 C94.9563386,295.501723 97.9391038,293.58708 100.917273,293.58708 M100.917273,288.012376 C105.053619,287.838317 113,290.454028 113,303.334352 C113,316.393568 105.554577,319.004444 100.917273,319.004444 C96.4500191,319.004444 89,316.393568 89,303.334352 C89,290.454028 96.9463807,287.838317 100.917273,288.012376" id="Fill-20" fill="#1A1919"></path>
        </g>
    </g>
</svg>