<?xml version="1.0" encoding="UTF-8"?>
<svg width="475px" height="420px" viewBox="0 0 475 420" version="1.1" xmlns="http://www.w3.org/2000/svg" xmlns:xlink="http://www.w3.org/1999/xlink">
    <!-- Generator: Sketch 61.2 (89653) - https://sketch.com -->
    <title>warning-sign-wild-animals</title>
    <desc>Created with Sketch.</desc>
    <g id="warning-sign-wild-animals" stroke="none" stroke-width="1" fill="none" fill-rule="evenodd">
        <g id="Group">
            <polyline id="Fill-122" fill="#FFFFFE" points="140.719535 392.192093 22.1623256 392.192093 232.533488 25.6688372 448.530698 392.192093"></polyline>
            <path d="M439.388372,415.399535 C450.288837,415.399535 460.495814,409.42186 466.12186,399.927907 C471.747907,390.072558 471.747907,378.468837 466.12186,368.623256 L261.777209,15.4227907 C256.23907,5.87023256 246.032093,2.11675638e-12 234.994884,2.11675638e-12 C223.957674,2.11675638e-12 213.750698,5.87023256 208.212558,15.4227907 L4.21953488,368.623256 C-1.40651163,378.468837 -1.40651163,390.072558 4.21953488,399.927907 C9.50372093,409.42186 20.0525581,415.399535 30.9627907,415.399535 L439.388372,415.399535 Z M49.2474419,373.897674 L421.093953,373.897674 L234.994884,52.0506977 L49.2474419,373.897674 Z" id="Fill-123" fill="#D0383F"></path>
            <path d="M314.50186,213.85814 C312.392093,213.506512 306.756279,211.386977 305.349767,210.332093 C303.943256,209.277209 298.317209,204.354419 296.910698,203.651163 C295.504186,202.947907 291.636279,200.83814 289.526512,200.486512 C287.768372,200.134884 284.593953,199.08 283.890698,197.673488 C282.835814,196.618605 282.835814,195.212093 284.242326,194.508837 C286.010233,194.157209 291.284651,191.695814 292.691163,190.289302 C294.097674,188.531163 296.55907,185.014884 297.262326,183.608372 C297.965581,182.553488 297.262326,181.498605 296.910698,181.146977 C296.55907,181.146977 294.449302,181.146977 293.746047,182.20186 C293.042791,183.256744 291.284651,185.71814 289.87814,186.773023 C288.12,187.476279 290.933023,185.014884 291.284651,182.905116 C291.636279,181.146977 291.636279,179.37907 291.636279,178.675814 C291.284651,178.324186 290.229767,177.269302 289.87814,177.62093 C289.174884,177.62093 288.471628,178.675814 288.823256,179.730698 C288.823256,180.433953 288.823256,182.553488 288.12,183.256744 C287.768372,183.608372 287.416744,185.366512 286.713488,185.71814 C286.010233,186.069767 284.945581,186.773023 284.945581,186.773023 C284.945581,186.773023 285.648837,183.608372 285.648837,181.840465 C285.648837,179.37907 284.593953,175.511163 284.242326,174.807907 C283.890698,174.104651 282.132558,174.104651 281.78093,174.104651 C281.429302,174.456279 280.374419,175.862791 281.077674,176.917674 C281.78093,177.972558 282.132558,179.37907 282.132558,180.433953 C282.132558,181.498605 281.78093,184.663256 280.022791,186.421395 C278.616279,187.827907 276.85814,189.937674 272.990233,189.937674 C268.770698,189.937674 266.309302,186.421395 266.309302,186.421395 C266.309302,186.421395 269.473953,183.256744 269.825581,182.553488 C270.177209,181.840465 272.990233,177.972558 272.990233,174.456279 C272.990233,170.588372 270.880465,165.313953 269.825581,163.555814 C268.770698,161.797674 265.957674,158.633023 265.254419,157.929767 C264.893023,157.226512 262.783256,156.874884 262.08,157.57814 C261.728372,157.929767 261.728372,160.039535 262.783256,160.742791 C263.486512,161.797674 265.606047,164.962326 265.957674,166.017209 C266.66093,167.072093 267.364186,169.533488 267.364186,172.346512 C267.364186,174.807907 265.957674,180.433953 260.673488,180.433953 C255.047442,180.433953 247.311628,169.885116 245.905116,168.126977 C243.795349,164.962326 240.62093,156.874884 239.566047,151.600465 C238.159535,146.316279 237.807907,138.228837 237.807907,137.525581 C237.807907,136.822326 237.104651,134.36093 235.346512,134.36093 C233.588372,134.36093 233.236744,136.470698 233.236744,137.173953 C233.236744,137.877209 232.885116,142.096744 232.885116,143.503256 C232.885116,145.261395 233.588372,153.006977 234.291628,154.413488 C234.643256,156.171628 234.643256,157.57814 234.643256,157.57814 C234.643256,157.57814 229.720465,158.984651 227.610698,159.336279 C225.50093,159.687907 219.865116,159.687907 219.865116,159.687907 C219.865116,159.687907 219.16186,154.413488 218.810233,152.655349 C218.810233,150.887442 218.458605,145.964651 218.458605,144.909767 C218.458605,144.206512 217.755349,142.8 217.052093,142.8 C215.997209,142.448372 215.293953,143.503256 214.942326,144.55814 C214.590698,145.613023 214.590698,149.832558 214.590698,150.887442 C214.590698,151.952093 214.942326,157.57814 214.942326,157.57814 C214.942326,157.57814 212.48093,155.116744 211.777674,154.06186 C210.722791,153.358605 208.261395,151.600465 207.55814,151.600465 C207.206512,151.248837 206.151628,150.887442 205.448372,151.600465 C205.096744,152.303721 205.096744,153.710233 205.8,154.413488 C206.503256,155.116744 209.316279,158.633023 210.019535,159.687907 C210.722791,160.742791 214.942326,163.907442 214.942326,163.907442 C214.942326,165.313953 214.942326,166.720465 214.590698,168.478605 C214.590698,168.478605 212.832558,168.126977 211.426047,167.775349 C210.019535,167.423721 207.909767,166.368837 206.503256,164.962326 C205.448372,163.907442 200.877209,160.391163 199.812558,158.984651 C199.109302,157.57814 197.702791,156.171628 196.999535,155.82 C196.647907,155.116744 194.889767,153.710233 193.834884,154.765116 C192.78,155.82 193.834884,158.281395 194.186512,158.984651 C194.53814,159.336279 195.944651,162.50093 196.999535,163.907442 C198.406047,164.962326 200.877209,167.775349 201.580465,168.478605 C202.635349,169.533488 203.690233,170.236744 204.745116,170.94 C205.448372,171.643256 206.854884,172.69814 208.261395,172.69814 C209.667907,172.69814 211.074419,173.049767 212.48093,174.456279 C213.887442,175.862791 225.852558,189.234419 227.610698,190.64093 C229.368837,192.39907 232.885116,196.618605 237.456279,198.728372 C242.027442,200.83814 247.311628,203.299535 253.289302,203.651163 C259.266977,204.002791 263.486512,203.651163 263.486512,203.651163 C261.025116,209.628837 258.915349,213.506512 257.508837,215.967907 C255.750698,218.077674 250.476279,226.868372 250.476279,226.868372 C250.476279,226.868372 246.256744,226.165116 244.146977,226.165116 C238.511163,226.165116 231.478605,228.626512 226.907442,228.626512 C220.216744,228.626512 196.296279,221.242326 178.353488,221.242326 C163.585116,221.242326 154.784651,227.923256 152.674884,229.329767 C150.565116,230.736279 145.290698,234.604186 143.532558,237.768837 C141.422791,240.933488 141.071163,245.162791 141.071163,247.975814 C141.071163,251.140465 140.719535,259.227907 146.697209,259.227907 L148.806977,259.227907 C150.213488,263.095814 153.729767,269.776744 155.839535,271.886512 C157.597674,274.006047 160.772093,277.522326 161.826977,278.928837 C163.233488,279.983721 166.749767,282.796744 166.39814,287.719535 C166.39814,292.642326 164.288372,294.752093 163.233488,295.806977 C162.530233,296.510233 160.068837,297.565116 160.068837,301.091163 C160.068837,304.95907 162.88186,306.717209 164.64,307.068837 C166.39814,307.420465 170.969302,308.475349 173.430698,312.343256 C175.892093,316.211163 177.650233,319.375814 178.705116,320.430698 C179.76,321.837209 186.09907,328.869767 187.153953,330.979535 C188.560465,333.09907 190.670233,339.076744 191.02186,339.076744 C191.02186,339.076744 192.428372,338.725116 193.483256,340.131628 C194.186512,341.53814 194.889767,342.593023 194.889767,342.593023 C194.889767,342.593023 194.186512,343.647907 194.53814,344.702791 L194.53814,348.21907 C197.351163,349.625581 200.515814,351.383721 203.690233,353.14186 C204.04186,352.438605 204.393488,351.735349 204.745116,351.032093 C205.096744,351.383721 205.8,351.735349 206.503256,352.438605 C207.206512,351.735349 207.206512,350.328837 206.854884,349.273953 C206.503256,348.570698 206.151628,346.46093 205.8,345.757674 C205.448372,345.406047 204.04186,343.296279 204.04186,342.944651 C204.04186,342.593023 203.338605,341.186512 202.986977,340.834884 C202.635349,340.131628 200.877209,336.263721 200.164186,335.560465 C199.812558,335.208837 193.834884,327.814884 193.483256,327.111628 C192.78,326.056744 191.02186,323.243721 190.670233,322.892093 C190.318605,322.188837 188.208837,318.32093 188.208837,318.32093 C188.208837,318.32093 203.338605,327.111628 204.04186,327.463256 C204.745116,327.814884 206.151628,328.869767 206.151628,330.627907 C206.151628,332.034419 207.206512,332.747442 207.909767,332.747442 C208.613023,332.747442 211.074419,332.395814 211.777674,333.09907 C212.48093,333.802326 213.184186,334.857209 213.887442,335.208837 C214.590698,335.560465 214.942326,336.263721 214.942326,336.263721 C214.942326,336.263721 212.129302,342.241395 211.426047,342.944651 C211.074419,343.647907 211.074419,345.406047 211.777674,346.109302 C212.832558,346.812558 215.645581,349.977209 216.348837,351.735349 C217.052093,353.493488 217.403721,355.603256 217.403721,356.65814 C217.403721,358.064651 217.403721,358.767907 217.755349,358.767907 C218.106977,359.119535 219.16186,360.526047 220.216744,360.526047 C221.633023,360.526047 222.326512,359.119535 222.326512,358.767907 C222.326512,358.416279 223.039535,360.174419 223.039535,360.174419 C223.039535,360.174419 224.797674,359.471163 225.149302,359.119535 C225.149302,359.119535 225.852558,357.713023 225.852558,357.361395 C225.852558,357.009767 224.797674,355.251628 224.446047,354.9 C224.094419,354.548372 223.039535,348.922326 223.039535,345.406047 C223.039535,341.889767 223.742791,338.02186 224.094419,336.263721 C224.446047,334.505581 226.204186,326.76 226.907442,325.00186 C227.25907,323.243721 230.423721,315.859535 231.478605,314.101395 C232.18186,311.991628 233.236744,310.233488 233.236744,310.233488 L239.214419,310.233488 C240.62093,310.233488 244.850233,309.178605 246.608372,308.475349 C249.773023,307.420465 255.750698,303.552558 257.157209,302.146047 C258.915349,300.729767 264.541395,297.565116 265.606047,297.213488 C266.66093,296.510233 272.638605,293.697209 274.045116,292.993953 C275.451628,292.290698 279.671163,291.235814 280.022791,291.235814 C280.022791,290.884186 281.077674,290.18093 281.429302,289.829302 C281.78093,289.829302 282.132558,289.126047 282.484186,288.422791 C282.835814,288.071163 283.53907,284.203256 283.53907,283.5 C283.53907,282.796744 283.53907,281.74186 283.187442,281.390233 C283.187442,281.038605 280.726047,279.632093 280.374419,279.632093 C279.671163,279.280465 272.286977,276.467442 270.177209,275.06093 C268.067442,274.006047 262.08,271.886512 262.08,271.886512 C263.134884,269.776744 263.83814,268.370233 264.893023,266.963721 C265.957674,265.908837 268.067442,264.853953 269.122326,264.150698 C270.528837,263.79907 271.232093,263.79907 271.935349,263.095814 C272.638605,262.04093 272.286977,260.986047 272.286977,260.282791 C272.638605,259.227907 272.990233,257.11814 273.693488,256.063256 C274.396744,255.008372 275.451628,252.195349 276.154884,251.140465 C276.85814,250.085581 280.374419,245.162791 281.429302,243.756279 C282.132558,242.701395 283.890698,240.58186 284.593953,238.823721 C285.297209,236.713953 286.36186,233.549302 286.36186,232.494419 C286.36186,231.439535 286.713488,229.329767 286.713488,229.329767 C286.713488,229.329767 288.471628,230.033023 289.87814,230.033023 C290.933023,229.681395 294.449302,228.274884 295.152558,227.923256 C295.504186,227.22 297.262326,226.165116 298.668837,226.165116 C300.075349,226.165116 303.24,226.868372 304.99814,226.868372 C306.404651,226.868372 308.524186,226.516744 309.57907,225.813488 C310.282326,224.758605 312.040465,222.297209 312.392093,221.242326 C313.095349,220.187442 313.798605,217.726047 314.150233,216.671163 C314.150233,215.967907 314.50186,213.85814 314.50186,213.85814 M262.783256,193.453953 C258.915349,190.289302 252.586047,185.366512 250.827907,183.608372 C249.421395,181.498605 244.498605,176.917674 243.443721,175.159535 C242.37907,173.401395 238.511163,168.830233 237.807907,167.775349 C237.104651,166.368837 234.994884,164.25907 232.18186,164.610698 C229.368837,164.962326 227.25907,165.665581 225.50093,165.665581 C223.742791,165.665581 221.633023,165.313953 221.633023,165.313953 C221.974884,167.775349 223.742791,173.401395 224.446047,174.807907 C225.149302,176.214419 227.962326,181.498605 229.017209,182.553488 C230.072093,183.96 233.236744,186.421395 235.69814,186.421395 C237.104651,186.421395 237.104651,183.96 237.104651,183.256744 C237.104651,182.20186 236.753023,179.730698 235.69814,179.027442 C234.994884,177.972558 233.588372,175.511163 233.236744,174.456279 C232.885116,173.401395 231.830233,170.236744 231.830233,169.533488 C231.830233,169.18186 232.18186,168.478605 233.236744,168.478605 C234.291628,168.478605 235.346512,169.533488 235.69814,169.885116 C235.69814,170.236744 238.862791,174.807907 239.566047,175.511163 C240.62093,177.62093 242.027442,182.20186 242.730698,183.96 C243.082326,185.71814 243.443721,187.124651 243.443721,187.827907 C243.795349,188.882791 244.498605,191.695814 246.256744,192.750698 C248.014884,194.157209 250.124651,195.563721 255.39907,195.563721 C260.32186,195.212093 262.783256,193.453953 262.783256,193.453953 M224.446047,300.37814 C225.852558,293.697209 227.25907,287.367907 227.610698,286.313023 C227.610698,284.906512 227.610698,282.093488 224.446047,282.445116 C220.92,282.445116 213.184186,282.093488 210.371163,281.038605 C207.55814,280.335349 200.164186,278.577209 198.406047,277.522326 C196.296279,276.467442 193.483256,276.467442 192.428372,277.522326 C191.373488,279.280465 192.428372,281.390233 192.428372,282.445116 C192.428372,283.851628 192.076744,285.25814 191.373488,286.664651 C190.318605,288.071163 188.912093,290.884186 187.857209,291.93907 C186.802326,293.345581 186.09907,294.400465 185.044186,295.103721 C183.989302,295.806977 179.76,297.916744 179.056744,298.268372 C178.353488,298.62 177.298605,299.674884 178.705116,301.433023 C180.121395,303.20093 184.34093,306.365581 186.09907,307.772093 C187.505581,308.826977 193.483256,312.343256 195.241395,313.39814 C196.999535,314.101395 202.635349,316.914419 204.745116,318.32093 C206.503256,319.375814 210.019535,321.133953 210.722791,321.837209 C211.777674,322.892093 217.052093,326.76 217.052093,326.76 C218.458605,323.595349 219.865116,319.727442 220.216744,318.672558 C220.568372,317.617674 221.271628,311.64 221.271628,311.64 C221.271628,311.64 219.16186,310.936744 218.458605,310.936744 C218.106977,310.585116 217.052093,308.826977 218.458605,307.772093 C218.810233,307.772093 219.513488,307.420465 219.513488,307.420465 C219.513488,307.420465 218.106977,306.365581 218.106977,304.607442 C218.106977,303.20093 220.216744,301.433023 221.633023,300.729767 C223.391163,300.37814 224.446047,300.37814 224.446047,300.37814 M235.69814,300.026512 C236.401395,296.158605 239.214419,290.532558 240.269302,289.126047 C241.324186,287.719535 243.443721,284.554884 245.20186,283.5 C246.608372,282.445116 247.663256,281.74186 249.773023,281.74186 C251.531163,281.74186 253.64093,283.148372 254.695814,283.5 C256.102326,283.5 259.266977,284.906512 262.08,284.906512 C264.893023,285.25814 266.309302,285.25814 267.364186,285.25814 C268.41907,285.609767 268.770698,285.961395 269.122326,286.313023 C269.122326,286.664651 268.770698,287.367907 268.41907,287.367907 C268.067442,287.367907 250.476279,295.806977 249.773023,296.158605 C248.71814,296.86186 245.553488,297.916744 243.443721,298.268372 C241.675814,298.268372 239.917674,297.916744 239.917674,297.916744 C240.269302,297.916744 238.511163,300.37814 238.511163,300.37814" id="Fill-124" fill="#1A1919"></path>
        </g>
    </g>
</svg>