<?xml version="1.0" encoding="UTF-8"?>
<svg width="475px" height="420px" viewBox="0 0 475 420" version="1.1" xmlns="http://www.w3.org/2000/svg" xmlns:xlink="http://www.w3.org/1999/xlink">
    <!-- Generator: Sketch 61.2 (89653) - https://sketch.com -->
    <title>warning-sign-aircraft</title>
    <desc>Created with Sketch.</desc>
    <g id="warning-sign-aircraft" stroke="none" stroke-width="1" fill="none" fill-rule="evenodd">
        <g id="Group-4">
            <polyline id="Fill-10" fill="#FFFFFE" points="129.649551 392.076407 25.3720932 392.076407 234.288636 23.604 445.327958 392.076407"></polyline>
            <path d="M439.693551,416.03278 C450.609992,416.03278 460.832364,410.046 466.466771,400.176 C472.101178,390.667627 472.101178,378.694068 466.466771,369.176441 L262.167381,15.4552881 C256.631212,5.88854237 246.408839,0 235.345042,0 C224.291212,0 214.068839,5.88854237 208.522703,15.4552881 L4.23327966,369.176441 C-1.41109322,378.694068 -1.41109322,390.667627 4.23327966,400.176 C9.86768644,410.046 20.0800932,416.03278 31.3588729,416.03278 L439.693551,416.03278 Z M49.3284661,374.458475 L421.371585,374.458475 L235.345042,51.786 L49.3284661,374.458475 Z" id="Fill-12" fill="#D0383F"></path>
            <path d="M153.263517,218.404983 C155.023958,215.235051 157.489144,214.178644 163.475924,214.178644 C169.462703,214.178644 173.688331,214.88339 181.093856,219.109017 C192.362669,225.457424 203.641449,232.148237 215.262636,238.839763 C239.580636,224.743424 263.889381,210.657051 288.549788,196.57139 C291.014975,195.514271 293.832534,195.514271 295.945347,196.57139 C298.410534,197.979458 300.87572,199.388237 303.702534,201.14939 C307.224127,203.262203 308.280534,206.783797 306.16772,210.30539 C305.815347,211.009424 304.406568,212.065831 303.702534,212.770576 C289.958568,225.457424 276.214602,238.135017 262.480602,251.164983 C260.367788,254.686576 258.245008,258.569797 255.779822,262.443763 C264.945788,267.725797 274.101788,273.008542 283.620127,278.290576 C285.732941,280.051729 287.14172,281.459797 288.902161,283.220949 C290.310941,284.629729 291.71972,286.400136 293.127788,288.160576 C298.058161,284.629729 302.9985,280.755763 308.280534,276.881797 C310.74572,274.768983 314.267314,274.417322 317.084161,276.177763 C317.788907,276.530136 318.845314,277.234169 319.90172,277.938915 C323.43328,279.699356 324.137314,282.868576 322.366907,286.400136 C320.605754,289.217695 318.845314,292.386915 317.084161,295.556136 C314.618975,299.781763 312.1545,304.008102 309.336941,308.586102 C306.871754,312.811729 304.406568,317.047322 301.932127,321.625322 C300.170975,324.442881 298.410534,327.612102 296.649381,330.781322 C294.536568,334.302915 291.367347,335.007661 287.845754,332.894136 C287.14172,332.542475 286.084602,332.190102 285.028195,331.486068 C282.211347,329.724915 280.802568,326.555695 281.506602,323.386475 C282.211347,317.047322 282.915381,310.698915 283.620127,304.359763 C281.506602,304.359763 279.032161,304.359763 276.919347,303.655729 C274.805822,302.951695 272.693008,302.246949 270.227822,301.190542 C261.071822,295.908508 251.906568,290.625763 242.749856,285.333763 C240.637042,288.865322 238.524229,292.738576 236.049788,296.612542 C231.823449,314.924542 227.597822,333.246508 223.372195,351.568475 C223.372195,352.272508 223.019822,354.033661 222.667449,355.090068 C220.554636,358.611661 217.033042,359.315695 213.501483,357.555254 C211.036297,356.146475 208.571822,354.737695 205.754263,352.977254 C203.641449,351.568475 202.232669,349.103288 201.880297,346.638102 L201.880297,261.739729 C190.601517,255.39061 179.332703,248.699797 167.702263,242.008983 C160.306703,237.783356 157.841517,234.613424 154.672297,229.33139 C151.845483,224.03939 151.49311,221.574203 153.263517,218.404983" id="Fill-13" fill="#1A1919"></path>
        </g>
    </g>
</svg>