<?xml version="1.0" encoding="UTF-8"?>
<svg width="253px" height="420px" viewBox="0 0 253 420" version="1.1" xmlns="http://www.w3.org/2000/svg" xmlns:xlink="http://www.w3.org/1999/xlink">
    <!-- Generator: Sketch 61.2 (89653) - https://sketch.com -->
    <title>warning-sign-traffic-signals-not-in-use</title>
    <desc>Created with Sketch.</desc>
    <g id="warning-sign-traffic-signals-not-in-use" stroke="none" stroke-width="1" fill="none" fill-rule="evenodd">
        <g id="Group-2">
            <path d="M252,40.9964219 C251.467127,18.1033012 233.060641,0 210.130928,0 L208.797937,0 L42.1357776,0 C19.1985221,0 0.799579223,18.1033012 0.266167208,40.9964219 L0,379.075155 C0.532873215,401.968276 19.9981014,419 42.6686508,419 L210.397634,419 C233.060641,419 251.467127,402.234556 252,379.340897 L252,40.9964219 Z" id="Fill-155" fill="#FFFFFE"></path>
            <path d="M251.5,40.9966833 L251.500135,41.0083228 C250.972698,18.3573866 232.760165,0.5 210.130803,0.5 L42.1357386,0.5 C19.5015537,0.5 1.29390325,18.3547923 0.766541154,40.9970775 L0.499864502,379.063534 C1.01679996,401.263477 19.8201683,418.5 42.6688212,418.5 L210.397344,418.5 C233.081151,418.5 250.97992,401.67046 251.5,379.34129 L251.5,40.9966833 Z" id="Stroke-156" stroke="#1A1919"></path>
            <path d="M229,43.3146227 C228.468486,31.3218161 218.631439,22 206.9263,22 L43.0812237,22 C31.1100587,22 21.2660259,31.3218161 21,43.3146227 L21,376.886395 C21.2660259,388.605696 30.3125184,398.734032 42.2836834,399 L206.9263,399 C218.631439,398.734032 228.468486,389.404678 229,377.685377 L229,43.3146227 Z" id="Fill-157" fill="#1A1919"></path>
            <path d="M229,43.3147752 C228.468276,31.3219774 218.631386,22 206.926078,22 L43.0813066,22 C31.1101367,22 21.2658619,31.3219774 21,43.3147752 L21,376.886198 C21.2658619,388.605255 30.312551,398.733658 42.2837209,399 L206.926078,399 C218.631386,398.733658 228.468276,389.404282 229,377.685225 L229,43.3147752 Z" id="Stroke-158" stroke="#1A1919" stroke-width="0.284"></path>
            <path d="M120.4965,156 C151.686238,156 177,181.312246 177,212.5 C177,243.688293 151.686238,269 120.4965,269 C89.3067616,269 64,243.688293 64,212.5 C64,181.312246 89.3067616,156 120.4965,156" id="Fill-159" fill="#FFFFFE"></path>
            <path d="M120.4963,156 C151.68581,156 177,181.311763 177,212.5 C177,243.688237 151.68581,269 120.4963,269 C89.3067906,269 64,243.688237 64,212.5 C64,181.311763 89.3067906,156 120.4963,156" id="Stroke-160" stroke="#1A1919" stroke-width="0.036"></path>
            <line x1="205.623674" y1="48.6236737" x2="205.376326" y2="48.3763263" id="Stroke-161" stroke="#1A1919" stroke-width="0.036"></line>
            <path d="M121.495961,34 C152.6857,34 178,59.3176786 178,90.5040392 C178,121.689861 152.6857,147 121.495961,147 C90.3067616,147 65,121.689861 65,90.5040392 C65,59.3176786 90.3067616,34 121.495961,34" id="Fill-162" fill="#FFFFFE"></path>
            <path d="M121.4963,34 C152.68581,34 178,59.3175061 178,90.5037003 C178,121.689895 152.68581,147 121.4963,147 C90.3067906,147 65,121.689895 65,90.5037003 C65,59.3175061 90.3067906,34 121.4963,34" id="Stroke-163" stroke="#1A1919" stroke-width="0.036"></path>
            <path d="M121.495961,278 C152.6857,278 178,303.534875 178,334.99973 C178,366.465125 152.6857,392 121.495961,392 C90.3067616,392 65,366.465125 65,334.99973 C65,303.534875 90.3067616,278 121.495961,278" id="Fill-164" fill="#FFFFFE"></path>
            <path d="M121.4963,278 C152.68581,278 178,303.534811 178,335 C178,366.465189 152.68581,392 121.4963,392 C90.3067906,392 65,366.465189 65,335 C65,303.534811 90.3067906,278 121.4963,278" id="Stroke-165" stroke="#1A1919" stroke-width="0.036"></path>
            <path d="M120.4965,156 C151.686238,156 177,181.312246 177,212.5 C177,243.688293 151.686238,269 120.4965,269 C89.3067616,269 64,243.688293 64,212.5 C64,181.312246 89.3067616,156 120.4965,156" id="Fill-166" fill="#FFFFFE"></path>
            <path d="M120.4963,156 C151.68581,156 177,181.311763 177,212.5 C177,243.688237 151.68581,269 120.4963,269 C89.3067906,269 64,243.688237 64,212.5 C64,181.311763 89.3067906,156 120.4963,156" id="Stroke-167" stroke="#1A1919" stroke-width="0.036"></path>
            <path d="M121.361393,205 L121.361393,222 M113,212.434273 L130,212.434273" id="Stroke-168" stroke="#1A1919" stroke-width="0.567"></path>
            <polyline id="Fill-169" fill="#FFFFFE" points="171.361961 72.9101876 170.028175 68.9079198 198.039309 15 221.790305 18.4688837 237 49.6915337 236.733135 49.1576104 236.46627 49.1576104 172.962074 168.986725 172.962074 168.453341 166.287211 181 122 158.848114 129.201045 145.501109 172.428883 64.1058457"></polyline>
            <polyline id="Fill-170" fill="#FFFFFE" points="75.2009698 245.794918 16 355.309655 16 395.805038 51.4644397 407 50.6648707 406.734005 48.7990302 406.200937 49.8653017 406.467471 124 264.181449 77.8663793 241 75.2009698 246.593981"></polyline>
            <path d="M121.000268,161 C149.707041,161 173,184.296322 173,213.000268 C173,241.704214 149.707041,265 121.000268,265 C92.2929594,265 69,241.704214 69,213.000268 C69,184.296322 92.2929594,161 121.000268,161" id="Fill-171" fill="#FBD033"></path>
            <path d="M121.999732,38 C150.707041,38 174,61.2957855 174,89.9997319 C174,118.703678 150.707041,142 121.999732,142 C93.2929594,142 70,118.703678 70,89.9997319 C70,61.2957855 93.2929594,38 121.999732,38" id="Fill-172" fill="#D0383F"></path>
            <path d="M121.000268,282 C149.707041,282 173,305.295786 173,333.999732 C173,362.703678 149.707041,386 121.000268,386 C92.2929594,386 69,362.703678 69,333.999732 C69,305.295786 92.2929594,282 121.000268,282" id="Fill-173" fill="#518B33"></path>
            <path d="M121,282 C149.707182,282 173,305.296118 173,334 C173,362.703882 149.707182,386 121,386 C92.2928177,386 69,362.703882 69,334 C69,305.296118 92.2928177,282 121,282" id="Stroke-174" stroke="#FFFFFE" stroke-width="0.036"></path>
            <polygon id="Fill-175" fill="#D0383F" points="198.050781 21.7999852 198.317065 21 208.702672 21 209.76727 21.2668414 210.831867 21.2668414 211.630181 21.5336828 212.694778 21.7999852 213.759375 22.0668266 215.356003 22.333668 216.4206 23.1336532 217.750943 23.6667969 219.088818 24.2004797 220.419699 25.2667673 222.548356 26.8667376 224.145521 28.467247 224.677551 29.2672322 225.475864 30.0672173 226.274178 31.4003463 227.072492 32.4747199 227.870805 34.0746902 228.935403 36.7414871 229.467432 38.3414575 230 42.075081 230 52.7422686 229.733716 52.7422686 229.733716 53.008571 229.467432 53.2754124 174.092766 159.183422 49.2233974 397.666332 49.4896812 396.866347 48.6908297 399 41.7717534 399 38.5709678 398.733159 36.442311 398.200015 35.6439974 397.666332 33.7810864 397.133188 32.1844592 396.066362 31.1198618 395.266376 29.5232347 394.19955 28.4586373 393.399565 25.7974127 390.199624 24.1932543 388.065971 22.3303433 384.332347 21.2657459 380.599263 21 378.732451 21 355.257415 126.966982 157.31661"></polygon>
        </g>
    </g>
</svg>