<?xml version="1.0" encoding="UTF-8"?>
<svg width="475px" height="420px" viewBox="0 0 475 420" version="1.1" xmlns="http://www.w3.org/2000/svg" xmlns:xlink="http://www.w3.org/1999/xlink">
    <!-- Generator: Sketch 61.2 (89653) - https://sketch.com -->
    <title>warning-sign-traffic-merging-left</title>
    <desc>Created with Sketch.</desc>
    <g id="warning-sign-traffic-merging-left" stroke="none" stroke-width="1" fill="none" fill-rule="evenodd">
        <g id="Group-5">
            <path d="M31.3144186,415.409302 L439.036744,415.409302 C456.276279,415.409302 469.989767,401.334419 469.989767,384.104651 C469.989767,378.820465 468.583256,373.194419 466.12186,368.623256 L262.089767,15.4716279 C256.453953,5.62604651 246.256744,-1.38803697e-13 234.994884,-1.38803697e-13 C224.094419,-1.38803697e-13 213.535814,5.62604651 207.909767,15.4716279 L4.22930233,368.623256 C1.40651163,373.194419 0,378.820465 0,384.104651 C0,401.334419 14.0748837,415.409302 31.3144186,415.409302" id="Fill-80" fill="#D0383F"></path>
            <polygon id="Fill-81" fill="#FFFFFE" points="421.093953 373.897674 49.2572093 373.897674 234.994884 51.7088372"></polygon>
            <path d="M207.55814,217.022791 L207.55814,169.533488 L242.037209,135.064186 L276.506512,169.533488 L276.506512,359.832558 L207.55814,359.832558 L207.55814,280.335349 L151.971628,335.560465 L127.347907,311.288372 L197.36093,241.294884 C203.690233,234.965581 207.55814,226.165116 207.55814,217.022791" id="Fill-82" fill="#1A1919"></path>
        </g>
    </g>
</svg>