<?xml version="1.0" encoding="UTF-8"?>
<svg width="475px" height="420px" viewBox="0 0 475 420" version="1.1" xmlns="http://www.w3.org/2000/svg" xmlns:xlink="http://www.w3.org/1999/xlink">
    <!-- Generator: Sketch 61.2 (89653) - https://sketch.com -->
    <title>warning-sign-level-crossing-ahead-without-barrier</title>
    <desc>Created with Sketch.</desc>
    <g id="warning-sign-level-crossing-ahead-without-barrier" stroke="none" stroke-width="1" fill="none" fill-rule="evenodd">
        <g id="Group-2">
            <polyline id="Fill-341" fill="#FFFFFE" points="108.158364 386.442 24.3057203 386.442 233.936263 20.0824068 448.497178 386.442"></polyline>
            <path d="M439.692839,416.03278 C450.609992,416.03278 460.832364,410.046 466.466771,400.527661 C472.111144,390.667627 472.111144,378.694068 466.466771,369.176441 L262.499822,15.4944407 C256.904568,5.90776271 246.555483,0 235.345042,0 C224.144568,0 213.794771,5.90776271 208.189551,15.4944407 L4.23327966,369.176441 C-1.41109322,378.694068 -1.41109322,390.667627 4.23327966,400.527661 C9.86768644,410.046 20.0800932,416.03278 31.3588729,416.03278 L439.692839,416.03278 Z M49.3284661,374.458475 L421.370873,374.458475 L235.345042,52.1383729 L49.3284661,374.458475 Z" id="Fill-342" fill="#D0383F"></path>
            <path d="M323.080907,266.317729 L323.080907,260.330949 L323.120059,260.320983 C323.090161,260.203525 323.080907,260.086068 323.080907,259.978576 C323.080907,259.000475 324.019856,258.218136 325.19372,258.218136 L325.19372,253.982542 L298.762195,253.982542 L298.762195,258.218136 L298.762195,258.257288 C299.584398,258.452339 300.170975,259.322949 300.170975,260.330949 L300.523347,260.330949 L300.523347,266.317729" id="Fill-343" fill="#1A1919"></path>
            <path d="M221.258669,266.317729 L221.258669,262.09139 C221.258669,257.611627 224.887754,253.982542 229.358263,253.982542 L239.580636,253.982542 C244.051144,253.982542 247.680229,257.611627 247.680229,262.09139 C247.680229,262.208847 247.680229,262.326305 247.670263,262.443763 L247.680229,262.09139 L247.680229,266.317729" id="Fill-344" fill="#1A1919"></path>
            <path d="M141.632364,270.543356 L149.731958,270.543356 C150.905822,270.543356 151.844771,271.335661 151.844771,272.303797 C151.844771,272.421254 151.835517,272.538712 151.805619,272.646203 L151.844771,272.656169 L151.844771,293.090949 L151.805619,293.080983 C151.609856,293.903186 150.739246,294.499729 149.731958,294.499729 L149.731958,294.852102 L127.184364,294.852102 L127.184364,331.837729 L343.50572,331.837729 L343.50572,313.515763 L335.406127,313.515763 L335.406127,266.317729 L180.38911,266.317729 L180.38911,251.869017 L137.406737,251.869017 L137.406737,270.543356 L141.632364,270.543356" id="Fill-345" fill="#1A1919"></path>
            <path d="M156.794364,313.418237 C169.628568,313.418237 180.046703,323.992983 180.046703,337.022237 C180.046703,350.052203 169.628568,360.626949 156.794364,360.626949 C143.960873,360.626949 133.542737,350.052203 133.542737,337.022237 C133.542737,323.992983 143.960873,313.418237 156.794364,313.418237" id="Fill-346" fill="#1A1919"></path>
            <path d="M329.05772,331.818508 C336.834127,331.818508 343.153347,338.294339 343.153347,346.266508 C343.153347,354.238678 336.834127,360.705254 329.05772,360.705254 C321.280602,360.705254 314.961381,354.238678 314.961381,346.266508 C314.961381,338.294339 321.280602,331.818508 329.05772,331.818508" id="Fill-347" fill="#1A1919"></path>
            <path d="M298.537246,331.818508 C306.314364,331.818508 312.633585,338.294339 312.633585,346.266508 C312.633585,354.238678 306.314364,360.705254 298.537246,360.705254 C290.760839,360.705254 284.441619,354.238678 284.441619,346.266508 C284.441619,338.294339 290.760839,331.818508 298.537246,331.818508" id="Fill-348" fill="#1A1919"></path>
            <path d="M207.85711,313.418237 C220.887076,313.418237 231.461822,323.992983 231.461822,337.022237 C231.461822,350.052203 220.887076,360.626949 207.85711,360.626949 C194.827856,360.626949 184.25311,350.052203 184.25311,337.022237 C184.25311,323.992983 194.827856,313.418237 207.85711,313.418237" id="Fill-349" fill="#1A1919"></path>
            <path d="M258.626568,313.418237 C271.460771,313.418237 281.878195,323.992983 281.878195,337.022237 C281.878195,350.052203 271.460771,360.626949 258.626568,360.626949 C245.792364,360.626949 235.374229,350.052203 235.374229,337.022237 C235.374229,323.992983 245.792364,313.418237 258.626568,313.418237" id="Fill-350" fill="#1A1919"></path>
            <path d="M223.997924,161.961966 C241.301924,161.961966 255.349144,176.165797 255.349144,193.665559 C255.349144,211.166034 241.301924,225.369864 223.997924,225.369864 C206.693212,225.369864 192.645992,211.166034 192.645992,193.665559 C192.645992,176.165797 206.693212,161.961966 223.997924,161.961966" id="Fill-351" fill="#1A1919"></path>
            <path d="M255.838195,170.208203 C272.761347,170.208203 286.486093,183.942203 286.486093,200.85539 C286.486093,217.768576 272.761347,231.503288 255.838195,231.503288 C238.915754,231.503288 225.191008,217.768576 225.191008,200.85539 C225.191008,183.942203 238.915754,170.208203 255.838195,170.208203" id="Fill-352" fill="#1A1919"></path>
            <path d="M279.022195,190.457186 C291.856398,190.457186 302.273822,201.031932 302.273822,214.061186 C302.273822,227.091153 291.856398,237.665898 279.022195,237.665898 C266.187992,237.665898 255.769856,227.091153 255.769856,214.061186 C255.769856,201.031932 266.187992,190.457186 279.022195,190.457186" id="Fill-353" fill="#1A1919"></path>
            <path d="M293.480161,232.852983 C294.536568,231.796576 296.297008,231.091831 298.058161,231.091831 C301.58972,231.091831 304.758941,233.90939 304.758941,237.783356 L304.758941,251.869017 L319.196975,251.869017 L319.196975,247.995763 C319.196975,236.022203 311.097381,198.331831 283.619415,189.518237" id="Fill-354" fill="#1A1919"></path>
        </g>
    </g>
</svg>