<?xml version="1.0" encoding="UTF-8"?>
<svg width="475px" height="420px" viewBox="0 0 475 420" version="1.1" xmlns="http://www.w3.org/2000/svg" xmlns:xlink="http://www.w3.org/1999/xlink">
    <!-- Generator: Sketch 61.2 (89653) - https://sketch.com -->
    <title>warning-sign-trams-crossing-ahead</title>
    <desc>Created with Sketch.</desc>
    <g id="warning-sign-trams-crossing-ahead" stroke="none" stroke-width="1" fill="none" fill-rule="evenodd">
        <g id="Group">
            <polyline id="Fill-27" fill="#FFFFFE" points="106.47701 393.623188 20.2898551 393.623188 235.4019 18.2608696 455.507246 393.623188"></polyline>
            <path d="M444.454675,420 C455.499396,420 465.823105,413.956131 471.518522,404.347746 C477.223294,394.748703 477.223294,382.661684 471.518522,372.696847 L265.016996,15.6033859 C259.410086,5.9454132 249.077022,0 237.903498,0 C226.720619,0 216.387555,5.9454132 210.780645,15.6033859 L4.27911879,372.696847 C-1.42637293,382.661684 -1.42637293,394.393688 4.27911879,404.347746 C9.97453649,413.956131 20.2982456,420 31.699155,420 L444.454675,420 Z M49.863328,378.029968 L425.934313,378.029968 L237.903498,52.6362745 L49.863328,378.029968 Z" id="Fill-28" fill="#D0383F"></path>
            <path d="M237.903224,246.907943 L217.978347,261.441722 L237.903224,275.257261 L257.818754,261.441722 L237.903224,246.907943 Z M145.389427,294.042471 L145.389427,294.042471 C145.389427,292.280888 146.822183,290.853719 148.589945,290.853719 L158.913268,290.853719 C160.484052,290.853719 161.758652,292.280888 161.758652,294.042471 L161.738522,344.35501 C161.560956,345.772154 160.346024,346.834833 158.913268,346.834833 L148.589945,346.834833 C146.979621,346.834833 145.616598,345.772154 145.418902,344.35501 L145.389427,294.042471 Z M166.381861,294.042471 L166.381861,294.042471 C166.381861,292.280888 167.813899,290.853719 169.582379,290.853719 L180.25149,290.873769 C181.683528,291.070694 182.750367,292.428402 182.750367,294.042471 L182.730957,344.35501 C182.562735,345.643974 181.5455,346.657958 180.25149,346.814782 L169.582379,346.834833 C167.972056,346.834833 166.609032,345.772154 166.411336,344.35501 L166.381861,294.042471 Z M313.683316,294.042471 L313.683316,294.042471 C313.683316,292.280888 315.115354,290.853719 316.883834,290.853719 L327.552945,290.873769 C328.984983,291.070694 330.051822,292.428402 330.051822,294.042471 L330.032412,344.35501 C329.86419,345.643974 328.846955,346.657958 327.552945,346.814782 L316.883834,346.834833 C315.27351,346.834833 313.910487,345.772154 313.712791,344.35501 L313.683316,294.042471 Z M292.690882,294.042471 L292.690882,294.042471 C292.690882,292.280888 294.122919,290.853719 295.8914,290.853719 L306.214723,290.853719 C307.785507,290.853719 309.060106,292.280888 309.060106,294.042471 L309.039977,344.35501 C308.862411,345.772154 307.647479,346.834833 306.214723,346.834833 L295.8914,346.834833 C294.281076,346.834833 292.918052,345.772154 292.720356,344.35501 L292.690882,294.042471 Z M251.772852,310.691582 L251.772852,310.691582 C251.772852,312.453165 250.340815,313.880334 248.572335,313.880334 L227.5799,313.860284 C227.462002,313.880334 227.343384,313.880334 227.224767,313.880334 C225.653982,313.880334 224.379383,312.453165 224.379383,310.691582 L224.379383,294.042471 C224.379383,292.280888 225.653982,290.853719 227.224767,290.853719 C227.343384,290.853719 227.462002,290.853719 227.5799,290.873769 L248.572335,290.853719 C250.340815,290.853719 251.772852,292.280888 251.772852,294.042471 L251.772852,310.691582 Z M216.911508,310.691582 L216.911508,310.691582 C216.911508,312.453165 215.626844,313.880334 214.05606,313.880334 L193.064344,313.880334 C191.305929,313.880334 189.863108,312.453165 189.863108,310.691582 L189.863108,294.042471 C189.863108,292.280888 191.305929,290.853719 193.064344,290.853719 L214.05606,290.853719 C215.626844,290.853719 216.911508,292.280888 216.911508,294.042471 L216.911508,310.691582 Z M285.933994,310.691582 L285.933994,310.691582 C285.933994,312.453165 284.501237,313.880334 282.732757,313.880334 L261.741042,313.880334 C259.972562,313.880334 258.530459,312.453165 258.530459,310.691582 L258.530459,294.042471 C258.530459,292.280888 259.972562,290.853719 261.741042,290.853719 L282.732757,290.853719 C284.501237,290.853719 285.933994,292.280888 285.933994,294.042471 L285.933994,310.691582 Z M337.876268,310.691582 L337.876268,310.691582 C337.876268,312.453165 339.308306,313.880334 341.076786,313.880334 L351.400109,313.880334 C353.750893,313.880334 355.667466,311.980545 355.667466,309.628903 C355.667466,309.284464 355.627927,308.940024 355.538784,308.60561 L351.548201,292.920357 C351.083795,291.670778 349.888274,290.853719 348.554725,290.853719 L341.076786,290.853719 C339.308306,290.853719 337.876268,292.280888 337.876268,294.042471 L337.876268,310.691582 Z M137.920833,310.691582 L137.920833,310.691582 C137.920833,312.453165 136.488796,313.880334 134.720316,313.880334 L124.396993,313.880334 C122.046208,313.880334 120.129636,311.980545 120.129636,309.628903 C120.129636,309.284464 120.169175,308.940024 120.258318,308.60561 L124.2489,292.920357 C124.713306,291.670778 125.908827,290.853719 127.242376,290.853719 L134.720316,290.853719 C136.2911,290.853719 137.5657,292.280888 137.5657,294.042471 L137.920833,310.691582 Z M364.202899,351.450038 L343.210464,351.450038 L343.210464,355.700753 L330.051822,355.700753 C330.051822,360.247213 326.604723,363.995948 322.228094,364.192873 L322.21803,364.202899 C317.506396,364.202899 313.683316,360.394728 313.683316,355.700753 L301.226315,355.700753 C301.226315,360.394728 297.403234,364.202899 292.690882,364.202899 C287.978529,364.202899 284.155449,360.394728 284.155449,355.700753 L191.2858,355.700753 C191.2858,360.394728 187.620876,364.202899 183.10622,364.202899 C178.591563,364.202899 174.92664,360.394728 174.92664,355.700753 L161.758652,355.700753 C161.758652,360.247213 158.310834,363.995948 153.934205,364.192873 C153.816307,364.202899 153.697689,364.202899 153.579071,364.202899 C149.05435,364.202899 145.389427,360.394728 145.389427,355.700753 L132.586637,355.700753 L132.586637,351.450038 L111.594203,351.450038 L111.594203,313.880334 L118.993783,284.802036 C119.833451,282.292853 122.302853,280.570655 125.108698,280.570655 L208.366011,280.570655 L211.526989,277.343234 C212.317773,276.68443 213.345073,276.31994 214.411912,276.31994 L233.625802,276.31994 L212.634087,261.441722 L232.558963,246.907943 L232.558963,240.531155 C232.558963,239.360346 233.517249,238.405797 234.692641,238.405797 L241.10446,238.405797 C242.279852,238.405797 243.238139,239.360346 243.238139,240.531155 L243.238139,246.907943 L263.163015,261.441722 L242.171299,276.31994 L261.385189,276.31994 C262.63966,276.31994 263.825116,276.82192 264.63531,277.697699 L267.431091,280.570655 L288.423525,280.570655 L351.044256,280.58068 C353.553197,280.728195 355.707005,282.411008 356.457531,284.792726 L364.202899,313.880334 L364.202899,351.450038 L364.202899,351.450038 Z" id="Fill-29" fill="#1A1919"></path>
        </g>
    </g>
</svg>