<?xml version="1.0" encoding="UTF-8"?>
<svg width="475px" height="420px" viewBox="0 0 475 420" version="1.1" xmlns="http://www.w3.org/2000/svg" xmlns:xlink="http://www.w3.org/1999/xlink">
    <!-- Generator: Sketch 61.2 (89653) - https://sketch.com -->
    <title>warning-sign-wild-horses</title>
    <desc>Created with Sketch.</desc>
    <g id="warning-sign-wild-horses" stroke="none" stroke-width="1" fill="none" fill-rule="evenodd">
        <g id="Group">
            <polyline id="Fill-119" fill="#FFFFFE" points="178.009186 391.47907 23.2147674 391.47907 234.640814 24.2623256 444.308721 391.47907"></polyline>
            <path d="M439.38593,415.399535 C450.296163,415.399535 460.845,409.42186 466.119419,399.927907 C471.755233,390.072558 471.755233,378.468837 466.119419,368.623256 L261.774767,15.4227907 C256.246395,5.87023256 246.039419,-1.38803697e-13 234.992442,-1.38803697e-13 C223.955233,-1.38803697e-13 213.748256,5.87023256 208.210116,15.4227907 L4.22686047,368.623256 C-1.40895349,378.468837 -1.40895349,390.072558 4.22686047,399.927907 C9.85290698,409.42186 20.0501163,415.399535 31.3119767,415.399535 L439.38593,415.399535 Z M49.2547674,373.897674 L421.091512,373.897674 L235.34407,52.0506977 L49.2547674,373.897674 Z" id="Fill-120" fill="#D0383F"></path>
            <path d="M259.977558,220.890698 C260.329186,221.242326 259.62593,221.593953 259.62593,221.593953 C259.62593,221.593953 257.154767,222.297209 256.451512,223.352093 C255.748256,224.055349 254.693372,226.516744 254.693372,226.516744 C256.099884,226.165116 257.858023,225.813488 259.62593,225.110233 C259.977558,225.110233 260.329186,225.46186 260.680814,225.813488 C261.032442,225.813488 256.451512,227.571628 255.396628,228.274884 C254.693372,228.97814 251.177093,231.791163 250.122209,231.791163 C249.067326,231.791163 246.60593,232.142791 246.60593,232.142791 C246.957558,232.846047 247.309186,233.549302 248.012442,234.604186 C248.012442,234.604186 245.551047,236.010698 245.551047,236.362326 C245.199419,236.713953 243.441279,238.823721 243.441279,238.823721 C243.441279,238.823721 249.770581,239.526977 251.880349,236.010698 C249.770581,239.526977 244.847791,243.053023 234.640814,243.053023 C224.091977,243.053023 215.64314,238.823721 210.017093,236.713953 C204.039419,234.252558 196.303605,231.439535 189.964535,231.439535 C183.98686,231.439535 176.954302,233.197674 172.373372,237.417209 C164.28593,234.252558 153.033837,236.010698 147.749651,240.933488 C142.82686,245.866047 137.90407,251.843721 137.200814,256.063256 C136.14593,260.634419 133.684535,271.534884 130.158488,276.467442 C125.235698,284.554884 119.609651,286.664651 117.851512,290.18093 C116.093372,293.697209 116.093372,301.091163 116.445,301.091163 C117.148256,301.433023 119.609651,301.091163 121.016163,300.37814 C123.829186,299.323256 131.574767,291.235814 134.387791,287.367907 C137.200814,283.5 146.694767,266.612093 148.101279,260.634419 C149.507791,254.656744 150.914302,248.67907 155.143605,245.514419 C159.714767,242.349767 165.340814,243.756279 165.340814,244.107907 C165.340814,244.107907 160.066395,248.327442 159.714767,259.931163 C159.36314,271.534884 166.395698,270.128372 162.879419,277.522326 C159.36314,283.851628 148.804535,279.632093 145.288256,283.5 C142.475233,286.664651 145.288256,297.916744 145.288256,300.026512 C145.288256,302.146047 144.233372,311.991628 143.530116,314.453023 C143.178488,316.562791 143.530116,317.969302 143.178488,319.375814 C142.82686,320.430698 145.288256,320.782326 145.288256,320.782326 C145.288256,320.782326 143.178488,323.595349 142.123605,322.892093 C141.068721,322.540465 140.365465,322.540465 139.662209,322.892093 C138.958953,322.892093 137.552442,323.595349 136.14593,322.892093 L130.510116,334.857209 C131.22314,335.208837 132.278023,335.560465 133.332907,335.208837 C134.739419,334.857209 141.771977,331.692558 142.475233,330.979535 C143.530116,330.627907 149.507791,327.111628 150.562674,325.00186 C151.26593,322.892093 152.682209,316.211163 152.682209,314.101395 C153.033837,311.991628 153.385465,305.310698 153.385465,303.552558 C153.385465,301.784651 153.033837,298.62 153.385465,297.213488 C154.088721,296.158605 155.143605,294.752093 156.550116,294.048837 C158.308256,293.697209 160.418023,293.697209 160.769651,293.697209 C161.472907,293.697209 167.450581,294.400465 168.505465,294.400465 C169.911977,294.400465 175.547791,293.345581 176.954302,292.642326 C178.712442,292.290698 179.767326,292.642326 180.118953,293.345581 C180.822209,294.048837 179.415698,295.103721 179.415698,295.455349 C179.06407,295.806977 176.251047,299.323256 175.547791,300.729767 C174.844535,302.497674 172.373372,305.662326 173.076628,307.068837 C173.789651,308.475349 173.789651,308.826977 175.899419,309.88186 C178.009186,310.585116 186.096628,314.804651 190.667791,319.024186 C195.600349,323.595349 200.171512,329.221395 200.874767,332.034419 C201.929651,335.208837 203.687791,335.560465 204.742674,335.560465 C205.797558,335.912093 207.907326,336.263721 207.907326,337.670233 C207.907326,339.076744 207.555698,340.834884 207.555698,340.834884 L220.575698,345.757674 C220.575698,345.757674 220.575698,341.186512 220.22407,339.428372 C219.872442,337.318605 217.762674,335.208837 215.994767,333.09907 C214.236628,330.627907 195.951977,312.694884 194.18407,311.288372 C192.42593,310.233488 191.019419,308.826977 190.667791,306.013953 C190.316163,303.20093 193.832442,301.091163 195.951977,298.62 C197.358488,296.86186 201.226395,288.774419 201.929651,287.719535 C202.632907,286.664651 205.094302,283.851628 206.500814,283.851628 C208.258953,283.851628 212.12686,286.313023 217.059419,288.071163 C219.169186,288.774419 234.289186,292.642326 236.398953,293.345581 C238.518488,293.697209 243.089651,293.345581 244.496163,294.752093 C245.902674,295.806977 244.496163,298.62 244.144535,300.37814 C243.792907,302.497674 239.925,310.233488 239.925,310.233488 C239.925,310.233488 240.628256,313.046512 240.628256,315.156279 C240.628256,317.617674 239.573372,326.408372 238.518488,329.221395 C237.815233,332.395814 232.882674,340.483256 231.827791,341.889767 C231.124535,342.944651 230.069651,343.647907 230.069651,345.406047 C230.069651,347.164186 233.234302,347.515814 234.289186,348.922326 C235.695698,349.977209 234.640814,352.086977 234.289186,354.196744 L248.36407,360.174419 C248.36407,359.119535 249.067326,357.361395 248.36407,356.65814 C248.012442,355.603256 246.254302,353.493488 245.199419,352.086977 C244.496163,351.032093 242.034767,347.164186 241.331512,346.46093 C240.628256,345.406047 240.628256,343.296279 241.331512,341.53814 C241.68314,339.78 246.254302,327.814884 246.60593,326.408372 C247.309186,324.650233 253.990116,310.585116 254.693372,308.826977 C255.396628,306.717209 261.032442,296.510233 261.735698,294.752093 C262.438953,292.642326 267.010116,290.884186 268.416628,290.884186 C270.174767,290.884186 278.965465,294.048837 280.381744,294.752093 C281.436628,295.103721 289.52407,298.62 290.930581,299.323256 C292.688721,300.026512 291.633837,301.433023 290.578953,301.784651 C289.52407,302.497674 276.50407,311.288372 275.449186,311.64 C274.394302,311.991628 273.339419,313.046512 272.636163,313.046512 C271.581279,313.046512 270.174767,314.101395 270.174767,314.453023 C270.174767,315.156279 269.82314,316.562791 268.065,316.562791 C266.658488,316.562791 263.845465,314.453023 262.087326,312.343256 C259.62593,313.749767 257.858023,314.804651 256.80314,316.914419 C255.045,318.672558 254.341744,320.07907 253.28686,322.540465 C253.990116,323.243721 255.396628,323.595349 256.451512,323.595349 L267.713372,323.595349 C268.768256,323.595349 270.174767,323.243721 271.229651,322.892093 C272.284535,322.188837 300.072907,303.904186 300.072907,303.904186 C300.072907,303.904186 304.653837,300.37814 304.653837,297.213488 C304.653837,294.752093 302.54407,294.048837 301.840814,292.993953 C300.776163,292.290698 294.44686,288.071163 293.391977,287.367907 C291.985465,286.313023 287.062674,283.5 285.656163,282.796744 C284.601279,282.093488 280.733372,280.686977 280.733372,280.686977 C281.788256,277.522326 282.491512,275.06093 282.84314,274.357674 C283.194767,273.654419 283.194767,267.315349 283.546395,266.260465 C283.546395,265.205581 285.304535,260.634419 286.007791,259.931163 C286.711047,259.227907 288.469186,253.60186 288.820814,252.546977 C289.172442,251.843721 291.985465,243.756279 293.391977,243.756279 C294.798488,243.404651 296.205,244.811163 297.611512,244.811163 C299.018023,245.162791 304.302209,244.459535 307.115233,244.811163 C309.576628,245.162791 312.741279,248.327442 313.444535,248.67907 C314.499419,249.030698 316.960814,250.085581 317.66407,250.085581 C318.015698,250.085581 321.531977,247.624186 321.531977,246.92093 C321.531977,246.217674 319.070581,244.811163 318.718953,244.811163 C318.367326,244.459535 315.90593,243.053023 315.90593,243.053023 C315.90593,243.404651 316.960814,242.349767 318.718953,242.349767 C320.125465,242.349767 321.531977,243.756279 321.883605,244.107907 C322.596628,244.459535 324.354767,245.514419 324.706395,244.811163 C325.058023,244.459535 326.464535,242.701395 326.464535,241.646512 C326.464535,240.230233 325.058023,238.472093 324.354767,237.768837 C323.651512,237.065581 315.554302,229.329767 314.851047,228.97814 C313.796163,228.626512 309.576628,224.758605 309.576628,223.703721 C309.225,223.000465 307.115233,221.242326 306.763605,220.890698 C306.411977,220.53907 295.853372,213.154884 294.44686,212.1 C293.040349,211.045116 291.633837,209.277209 291.633837,207.51907 C291.633837,205.76093 290.930581,201.189767 290.930581,201.189767 C290.930581,201.189767 288.469186,200.83814 287.414302,201.893023 C286.359419,202.596279 283.898023,208.222326 282.491512,208.222326 C278.613837,207.51907 273.691047,208.573953 273.691047,209.277209 C274.042674,210.332093 277.558953,209.628837 277.558953,209.628837 C277.558953,209.980465 276.152442,211.748372 275.097558,211.748372 C274.394302,211.748372 272.284535,212.451628 271.932907,212.803256 C271.229651,212.803256 269.82314,213.85814 269.82314,213.85814 C270.878023,213.85814 271.932907,213.85814 273.339419,214.209767 C273.339419,214.209767 271.229651,215.616279 270.174767,215.616279 C269.119884,215.616279 265.603605,216.671163 264.548721,217.022791 C263.845465,217.726047 261.032442,219.835814 261.032442,219.835814 L257.858023,219.835814 L258.209651,220.53907 L259.977558,220.53907" id="Fill-121" fill="#1A1919"></path>
        </g>
    </g>
</svg>