<?xml version="1.0" encoding="UTF-8"?>
<svg width="272px" height="420px" viewBox="0 0 272 420" version="1.1" xmlns="http://www.w3.org/2000/svg" xmlns:xlink="http://www.w3.org/1999/xlink">
    <!-- Generator: Sketch 61.2 (89653) - https://sketch.com -->
    <title>warning-sign-overhead-electric-cables</title>
    <desc>Created with Sketch.</desc>
    <g id="warning-sign-overhead-electric-cables" stroke="none" stroke-width="1" fill="none" fill-rule="evenodd">
        <g id="post" transform="translate(119.000000, 157.000000)">
            <rect id="Rectangle" fill="#C5C5C5" fill-rule="evenodd" x="0" y="0" width="33" height="316"></rect>
            <path id="Rectangle" d="M34,-1 L34,317 L-1,317 L-1,-1 L34,-1 Z M32,1 L1,1 L1,315 L32,315 L32,1 Z" fill="#000000" fill-rule="nonzero"></path>
        </g>
        <g id="Group" transform="translate(0.000000, -0.000000)">
            <polyline id="Fill-311" fill="#FFFFFE" points="28.4879874 233.347368 14.3157895 215.248473 128.101648 17.1789474 146.118908 17.1789474 257.684211 215.248473 249.988359 231.517836"></polyline>
            <path d="M254.16807,240.505263 C260.46954,240.505263 266.561646,237.04427 269.41065,231.547835 C272.863117,226.050988 272.863117,219.123241 269.41065,213.423096 C230.193335,145.40368 190.77856,77.3842628 151.363786,9.16113718 C148.520529,3.46099293 142.422266,0 136.126953,0 C129.419479,0 123.53017,3.46099293 120.47837,9.16113718 C81.266802,77.1805539 41.8520274,145.199971 2.43725281,213.423096 C-0.812417604,218.919943 -0.812417604,225.847279 2.43725281,231.547835 C5.68651271,237.04427 11.7843657,240.505263 18.4860925,240.505263 L254.16807,240.505263 Z M28.6460335,216.476672 L243.602125,216.476672 L136.126953,30.135742 L28.6460335,216.476672 L28.6460335,216.476672 Z" id="Fill-312" fill="#D0383F"></path>
            <path d="M135.386928,55.8315789 L131.180351,55.8315789 C130.58022,60.9665837 125.978947,60.3503997 125.978947,61.5827677 C125.978947,62.6100177 129.379554,62.1989516 129.379554,63.4313195 C129.379554,65.0747536 125.978947,64.6641027 125.978947,65.4854045 C125.978947,66.7235855 129.379554,66.5126546 129.379554,67.7508355 C129.379554,69.1887365 125.978947,68.9832035 125.978947,69.8049205 C125.978947,70.8317553 129.379554,70.4211044 129.379554,72.0641233 C129.379554,73.2969064 125.978947,72.8858403 125.978947,74.1182082 C125.978947,74.9399252 129.379554,74.7343922 129.379554,75.9671753 C129.379554,77.4046611 125.978947,77.1995432 125.978947,78.0212602 C125.978947,79.0480951 129.379554,79.0480951 129.379554,80.280463 C129.379554,81.5128309 125.978947,81.5128309 125.978947,82.334548 C125.978947,83.156265 129.379554,82.9507319 129.379554,84.3886329 C129.379554,85.6268139 125.978947,85.4212808 125.978947,86.2429978 C125.978947,87.4753658 129.379554,87.2702479 129.379554,88.5026158 C129.379554,89.3243329 127.179209,89.7349838 127.179209,93.0214366 L131.180351,93.0214366 C131.180351,95.4861725 132.380613,98.7726253 135.386928,100.210526 C137.98763,98.7726253 139.187892,95.4861725 139.187892,93.0214366 L143.389212,93.0214366 C143.389212,89.7349838 140.988284,89.3243329 140.988284,88.5026158 C140.988284,87.2702479 144.589474,87.4753658 144.589474,86.2429978 C144.589474,85.4212808 140.988284,85.6268139 140.988284,84.3886329 C140.988284,82.9507319 144.589474,83.156265 144.589474,82.334548 C144.589474,81.5128309 140.988284,81.5128309 140.988284,80.280463 C140.988284,79.0480951 144.589474,79.0480951 144.589474,78.0212602 C144.589474,77.1995432 140.988284,77.4046611 140.988284,75.9671753 C140.988284,74.7343922 144.589474,74.9399252 144.589474,74.1182082 C144.589474,72.8858403 140.988284,73.2969064 140.988284,72.0641233 C140.988284,70.4211044 144.589474,70.8317553 144.589474,69.8049205 C144.589474,68.9832035 140.988284,69.1887365 140.988284,67.7508355 C140.988284,66.5126546 144.589474,66.7235855 144.589474,65.4854045 C144.589474,64.6641027 140.988284,65.0747536 140.988284,63.4313195 C140.988284,62.1989516 144.589474,62.6100177 144.589474,61.5827677 C144.589474,60.3503997 139.788023,60.9665837 139.187892,55.8315789 L135.386928,55.8315789" id="Fill-313" fill="#1A1919"></path>
            <path d="M138.635845,154.920858 L73.0105263,172.066412 L136.214132,101.642105 L123.090129,142.060455 C122.484701,143.896772 123.292075,144.917222 124.906414,144.304704 L184.673684,127.975429 L124.300986,209.010526 L140.654075,157.573452 C141.259503,156.145069 140.654075,154.308752 138.635845,154.920858" id="Fill-314" fill="#1A1919"></path>
        </g>
        <g id="Group-2" transform="translate(0.000000, 255.000000)">
            <path d="M136.00201,0 L13.1432746,0 C5.88321834,0 0,5.90821945 0,13.1907584 L0,92.1966955 C0,99.4792344 5.88321834,105.387454 13.1432746,105.387454 L258.856725,105.387454 C266.117069,105.387454 272,99.4792344 272,92.1966955 L272,13.1907584 C272,5.90821945 266.117069,0 258.856725,0 L136.00201,0" id="Fill-315" fill="#1A1919"></path>
            <path d="M136.501989,6.02214022 L13.5642001,6.02214022 C9.95137438,6.02214022 7.02583026,8.9681509 7.02583026,12.6056047 L7.02583026,91.7781591 C7.02583026,95.4156129 9.95137438,98.3616236 13.5642001,98.3616236 L259.435755,98.3616236 C263.048293,98.3616236 265.97786,95.4156129 265.97786,91.7781591 L265.97786,12.6056047 C265.97786,8.9681509 263.048293,6.02214022 259.435755,6.02214022 L136.501989,6.02214022" id="Fill-316" fill="#FFFFFE"></path>
            <path d="M40.1476015,39.6740956 L43.7552763,36.310729 C48.3731701,39.3936498 52.1293293,39.6740956 53.1395482,39.6740956 C54.4382762,39.6740956 55.7372958,38.4126561 55.7372958,36.8713373 C55.7372958,35.3297352 54.5826765,34.4889643 53.7168579,34.3487414 C52.9951479,34.0685789 49.5318734,33.5079706 48.0846611,33.0875852 C46.6415328,32.8074226 42.1680394,31.5459831 42.1680394,26.2169462 C42.1680394,20.8918753 46.0642232,19.0701107 50.5420924,19.0701107 C55.0155858,19.0701107 58.3388357,20.331267 61.2250923,22.7136399 L57.7615261,26.0770066 C56.0258048,24.6756274 53.5724575,23.5544108 50.2532917,23.5544108 C48.0846611,23.5544108 47.7961521,25.3761754 47.7961521,26.0770066 C47.7961521,26.6373317 48.2290614,28.0387109 49.5318734,28.3191567 C50.8306013,28.6032851 54.2941675,29.4440559 54.8711855,29.4440559 C56.3143137,29.7242185 61.2250923,31.5459831 61.2250923,36.5908915 C61.2250923,41.0791575 58.1944354,44.1623616 52.41813,44.1623616 C46.6415328,44.1623616 42.0236391,41.4995429 40.1476015,39.6740956" id="Fill-317" fill="#1A1919"></path>
            <path d="M75.8719852,35.4275197 L75.8719852,38.9198681 C75.8719852,40.2293884 73.3518555,40.0837881 72.9324932,40.0837881 C72.513131,40.0837881 69.8570759,40.0837881 69.8570759,37.9012542 C69.8570759,35.57312 73.0723748,35.4275197 75.8719852,35.4275197 M80.3456534,38.7742678 L80.3456534,29.4617309 C80.3456534,26.9838784 78.1089606,25.0922509 73.3518555,25.0922509 C69.5773127,25.0922509 67.0611392,26.8382781 66.0825331,27.4203851 L68.0397453,30.9168515 C69.4377137,29.8982377 72.6530126,29.1705303 73.9110993,29.1705303 C75.1731423,29.1705303 75.8719852,30.1891441 75.8719852,30.7712512 L75.8719852,31.7898651 C74.3344178,31.7898651 70.4163198,32.5172784 69.0183514,33.0993855 C67.6203831,33.5358922 65.2398524,34.5545061 65.2398524,38.1921607 C65.2398524,41.6886271 68.7385882,44.0167613 72.2336503,44.0167613 C75.3130239,44.0167613 76.29163,42.2707342 76.29163,42.2707342 C76.29163,42.2707342 77.8291974,44.1623616 80.4852524,44.1623616 L82.302583,40.5244129 C80.2057718,40.0837881 80.3456534,39.3563749 80.3456534,38.7742678" id="Fill-318" fill="#1A1919"></path>
            <path d="M103.901833,32.808479 L110.846338,32.808479 C110.846338,31.0621577 109.571623,29.1705303 107.442803,29.1705303 C105.176548,29.1705303 103.901833,30.9168515 103.901833,32.808479 M103.901833,36.3005333 L115.378849,36.3005333 C115.66231,34.1179993 114.812213,25.0922509 107.301359,25.0922509 C100.785768,25.0922509 99.3653137,32.2263719 99.3653137,34.5545061 C99.3653137,36.8826403 100.640029,44.1623616 107.867995,44.1623616 C111.979323,44.1623616 114.104134,41.8342274 114.670769,41.10652 L111.837879,38.337761 C111.837879,38.337761 110.563164,40.0837881 107.867995,40.0837881 C105.318278,40.0837881 103.901833,38.0468545 103.901833,36.3005333" id="Fill-319" fill="#1A1919"></path>
            <path d="M96.6410949,23.5288963 L97.3579336,19.6618587 C94.0611711,18.5158768 88.0370026,18.6591969 88.0370026,23.5288963 L88.0370026,26.5368817 L85.3136531,26.5368817 L85.3136531,30.4079727 L88.0370026,30.4079727 L88.0370026,44.1623616 L92.4843578,44.1623616 L92.4843578,30.4079727 L96.2111076,30.4079727 L96.2111076,26.5368817 L92.4843578,26.5368817 L92.4843578,24.9612289 C92.4843578,22.9561949 94.9211457,23.2425456 96.6410949,23.5288963" id="Fill-320" fill="#1A1919"></path>
            <path d="M178.656827,47.2110158 L180.788171,43.5524576 C181.640594,43.9745771 183.203561,44.9596173 186.475108,44.9596173 C190.879676,44.9596173 190.169132,41.5823772 190.169132,41.5823772 C190.169132,41.5823772 188.606453,42.5674174 186.617274,42.5674174 C178.941159,42.5674174 178.656827,34.2612785 178.656827,34.2612785 C178.656827,34.2612785 178.798993,30.461919 181.356549,28.0660214 C182.919229,26.7993786 184.482196,26.095941 186.617274,26.095941 C187.327818,26.095941 189.032664,26.3772591 190.169132,27.0809812 L190.169132,26.095941 L194.715867,26.095941 L194.715867,43.6929745 C194.715867,47.6331353 189.316709,49.1808118 186.475108,49.1808118 C183.629773,49.1808118 180.503839,48.1960561 178.656827,47.2110158 M190.169132,34.2612785 C190.169132,32.4319994 189.316709,30.6027203 186.901319,30.6027203 C184.624362,30.6027203 183.771652,32.7133176 183.771652,34.2612785 C183.771652,35.8092395 184.482196,38.0606381 186.901319,38.0606381 C189.316709,38.0606381 190.169132,36.231359 190.169132,34.2612785" id="Fill-321" fill="#1A1919"></path>
            <path d="M134.145301,27.0447628 L134.145301,19.0701107 L129.476015,19.0701107 L129.476015,44.1623616 L134.145301,44.1623616 L134.145301,33.4284706 C134.145301,31.833716 135.754332,30.2386684 137.359528,30.2386684 C138.964724,30.2386684 140.86164,31.3987563 140.86164,33.4284706 L140.86164,44.1623616 L145.535055,44.1623616 L145.535055,31.833716 C145.535055,28.3496419 142.320534,25.8849679 138.964724,25.8849679 C135.900339,25.8849679 134.73287,26.8996785 134.145301,27.0447628" id="Fill-322" fill="#1A1919"></path>
            <polygon id="Stroke-323" fill="#1A1919" fill-rule="nonzero" points="173.638376 26.095941 173.638376 44.1623616 170.627306 44.1623616 170.627306 26.095941"></polygon>
            <path d="M172.132982,19.0701107 C173.519122,19.0701107 174.642066,20.1930555 174.642066,21.5794767 C174.642066,22.9656161 173.519122,24.0885609 172.132982,24.0885609 C170.746561,24.0885609 169.623616,22.9656161 169.623616,21.5794767 C169.623616,20.1930555 170.746561,19.0701107 172.132982,19.0701107" id="Fill-324" fill="#1A1919"></path>
            <path d="M231.852399,43.1646527 L231.012685,39.3123955 C227.789636,40.3101044 226.949923,39.4550076 226.949923,38.742523 L226.949923,29.9057545 L231.572588,29.9057545 L231.572588,26.0537854 L226.949923,26.0537854 L226.949923,19.0701107 L222.471265,20.3527559 L222.471265,26.0537854 L219.808118,26.0537854 L219.808118,29.9057545 L222.471265,29.9057545 L222.471265,40.3101044 C222.471265,42.4518799 223.870881,44.1623616 227.229733,44.1623616 C229.613069,44.1623616 231.292496,43.4495889 231.852399,43.1646527" id="Fill-325" fill="#1A1919"></path>
            <path d="M155.091062,32.808479 L162.037155,32.808479 C162.037155,31.0621577 160.758139,29.1705303 158.632842,29.1705303 C156.366068,29.1705303 155.091062,30.9168515 155.091062,32.808479 M155.091062,36.3005333 L166.570702,36.3005333 C166.853941,34.1179993 165.862461,25.0922509 158.491366,25.0922509 C151.970275,25.0922509 150.553506,32.2263719 150.553506,34.5545061 C150.553506,36.8826403 151.828512,44.1623616 159.058131,44.1623616 C163.170398,44.1623616 165.295696,41.8342274 165.720698,41.10652 L163.028922,38.337761 C163.028922,38.337761 161.753629,40.0837881 159.058131,40.0837881 C156.507831,40.0837881 155.091062,38.0468545 155.091062,36.3005333" id="Fill-326" fill="#1A1919"></path>
            <path d="M205.159535,27.0447628 L205.159535,19.0701107 L200.738007,19.0701107 L200.738007,44.1623616 L205.159535,44.1623616 L205.159535,33.4284706 C205.159535,31.833716 206.540076,30.2386684 208.196614,30.2386684 C209.715293,30.2386684 211.509969,31.3987563 211.509969,33.4284706 L211.509969,44.1623616 L215.793358,44.1623616 L215.793358,31.833716 C215.793358,28.3496419 212.894138,25.8849679 209.715293,25.8849679 C206.816072,25.8849679 205.711807,26.8996785 205.159535,27.0447628" id="Fill-327" fill="#1A1919"></path>
            <polygon id="Stroke-328" fill="#1A1919" fill-rule="nonzero" points="66.2435424 67.2472325 66.2435424 71.2619926 60.2214022 71.2619926 60.2214022 67.2472325"></polygon>
            <polygon id="Fill-329" fill="#1A1919" points="60.2232852 57.2103321 56.2066421 64.2361624 60.3666851 64.2361624 64.2361624 57.2103321"></polygon>
            <polygon id="Fill-330" fill="#1A1919" points="97.2830126 57.2103321 93.3431734 64.2361624 97.5747324 64.2361624 101.372694 57.2103321"></polygon>
            <polygon id="Fill-331" fill="#1A1919" points="103.238847 57.2103321 99.3653137 64.2361624 103.525357 64.2361624 107.394834 57.2103321"></polygon>
            <path d="M23.5889238,59.2177122 L28.103321,59.2177122 L28.103321,83.3062731 L23.1520561,83.3062731 L23.1520561,66.6416813 L19.0701107,66.6416813 L19.0701107,62.7177122 L19.7984197,62.7177122 C20.963302,62.7177122 23.0063354,62.7177122 23.5889238,59.2177122" id="Fill-332" fill="#1A1919"></path>
            <path d="M47.4284457,74.7061294 C47.4284457,72.4511199 45.7486645,70.4784138 43.5085788,70.4784138 C41.2687762,70.4784138 39.5850332,72.4511199 39.5850332,74.7061294 C39.5850332,76.960854 41.2687762,78.9375482 43.5085788,78.9375482 C45.048567,78.9375482 47.4284457,77.8103283 47.4284457,74.7061294 M47.1482935,64.8374716 C48.5482055,64.2737193 50.0921554,63.7102518 51.6318605,63.1464994 C50.6521768,60.6097561 48.9721126,58.2140221 43.5085788,58.2140221 C38.0453281,58.2140221 34.1254613,62.1600039 34.1254613,70.7601476 C34.1254613,75.2695969 35.8052425,78.5148051 37.0653614,80.2057774 C38.3251973,81.8970345 41.1289831,83.3062731 43.788731,83.3062731 C46.5885551,83.3062731 52.1918819,81.7560252 52.1918819,74.5651201 C52.1918819,67.5189275 46.8684243,66.109689 44.4885456,66.109689 C42.1086668,66.109689 40.0049785,67.2371937 39.305164,67.9416706 C39.1650879,64.1329948 41.8287976,62.582747 43.5085788,62.582747 C45.1886431,62.582747 46.3084029,63.2875087 47.1482935,64.8374716" id="Fill-333" fill="#1A1919"></path>
            <path d="M85.4701731,74.7061294 C85.4701731,72.4511199 83.8032897,70.4784138 81.5767537,70.4784138 C79.4928687,70.4784138 77.8259854,72.4511199 77.8259854,74.7061294 C77.8259854,76.960854 79.354149,78.9375482 81.5767537,78.9375482 C83.1085678,78.9375482 85.4701731,77.8103283 85.4701731,74.7061294 M85.1924528,64.8374716 C86.5816158,64.2737193 88.1094986,63.7102518 89.6376622,63.1464994 C88.66522,60.6097561 86.9983367,58.2140221 81.5767537,58.2140221 C76.159102,58.2140221 72.2656827,62.1600039 72.2656827,70.7601476 C72.2656827,75.2695969 73.932566,78.5148051 75.1866598,80.2057774 C76.4368223,81.8970345 79.2151484,83.3062731 81.854474,83.3062731 C84.6367314,83.3062731 90.3321033,81.7560252 90.3321033,74.5651201 C90.3321033,67.5189275 84.9144517,66.109689 82.5491959,66.109689 C80.1875906,66.109689 78.1039865,67.2371937 77.4092645,67.9416706 C77.270264,64.1329948 79.9098703,62.582747 81.5767537,62.582747 C83.243637,62.582747 84.3590111,63.2875087 85.1924528,64.8374716" id="Fill-334" fill="#1A1919"></path>
            <path d="M148.406174,66.2447942 L148.826311,62.6573722 L159.466931,62.6573722 L159.466931,58.2140221 L144.767258,58.2140221 L142.664031,70.8315715 L147.566468,71.5484185 C148.406174,70.5450066 149.666017,69.5415947 151.34543,69.5415947 C153.028804,69.5415947 155.548206,70.9749989 155.548206,74.2717994 C155.548206,77.2858018 153.588702,78.719206 151.34543,78.719206 C149.385926,78.719206 147.566468,77.1426642 147.146615,75.4186386 L142.523985,76.5651881 C143.647743,83.0194184 150.785531,83.3062731 151.765283,83.3062731 C153.168849,83.3062731 160.590406,82.4462885 160.590406,74.2717994 C160.590406,65.6713746 153.86851,65.3848096 152.468905,65.3848096 C150.925577,65.3848096 149.666017,65.6713746 148.406174,66.2447942" id="Fill-335" fill="#1A1919"></path>
            <path d="M167.114391,79.2915129 C168.500283,79.2915129 169.623616,80.4149129 169.623616,81.8005888 C169.623616,83.1865631 168.500283,84.3099631 167.114391,84.3099631 C165.728499,84.3099631 164.605166,83.1865631 164.605166,81.8005888 C164.605166,80.4149129 165.728499,79.2915129 167.114391,79.2915129" id="Fill-336" fill="#1A1919"></path>
            <path d="M185.106071,63.7272127 C187.870452,63.7272127 190.485646,65.2774781 190.485646,71.6229692 C190.630722,77.8274493 188.161193,79.8004626 185.106071,79.8004626 C182.200431,79.8004626 179.730901,77.8274493 179.730901,71.6229692 C179.875978,65.2774781 182.491171,63.7272127 185.106071,63.7272127 M185.106071,59.2177122 C188.742086,59.2177122 195.719557,61.1907255 195.719557,71.7636952 C195.719557,82.3369498 189.177902,84.3099631 185.106071,84.3099631 C181.183721,84.3099631 174.642066,82.3369498 174.642066,71.7636952 C174.642066,61.1907255 181.619538,59.2177122 185.106071,59.2177122" id="Fill-337" fill="#1A1919"></path>
            <path d="M231.852399,71.2605437 L231.852399,83.3062731 L227.314179,83.3062731 L227.314179,72.5509196 C227.314179,70.8305151 226.0387,69.540429 224.621724,69.540429 C223.205034,69.540429 221.646274,70.8305151 221.646274,73.1243877 L221.646274,83.3062731 L217.108055,83.3062731 L217.108055,72.4074801 C217.108055,70.8305151 215.691079,69.540429 214.415886,69.540429 C213.140407,69.540429 211.294643,70.5439259 211.294643,72.9809482 L211.294643,83.3062731 L206.760148,83.3062731 L206.760148,65.6698811 L211.294643,65.6698811 L211.294643,66.6733779 C211.294643,66.6733779 212.857127,65.3832919 215.832863,65.3832919 C218.525031,65.3832919 220.083505,67.1034066 220.083505,67.1034066 C220.083505,67.1034066 221.929555,65.2398524 224.905291,65.2398524 C229.4395,65.2398524 231.852399,68.3937824 231.852399,71.2605437" id="Fill-338" fill="#1A1919"></path>
            <path d="M134.494465,83.7681371 L132.579096,87.3210332 C130.663451,85.8998173 122.450185,80.3571615 122.450185,70.8312515 C122.450185,61.3053415 128.884717,56.6153577 132.442185,54.199262 L134.494465,57.6102376 C131.484363,59.8841256 127.516438,63.4370217 127.516438,70.6890437 C127.516438,78.0832735 132.305275,82.0627929 134.494465,83.7681371" id="Fill-339" fill="#1A1919"></path>
            <path d="M240.885609,83.7681371 L242.80121,87.3210332 C244.853442,85.8998173 252.929889,80.3571615 252.929889,70.8312515 C252.929889,61.3053415 246.495228,56.6153577 242.937841,54.199262 L240.885609,57.6102376 C243.895642,59.8841256 248.004255,63.4370217 248.004255,70.6890437 C248.004255,78.0832735 243.074749,82.0627929 240.885609,83.7681371" id="Fill-340" fill="#1A1919"></path>
        </g>
    </g>
</svg>