<?xml version="1.0" encoding="UTF-8"?>
<svg width="475px" height="420px" viewBox="0 0 475 420" version="1.1" xmlns="http://www.w3.org/2000/svg" xmlns:xlink="http://www.w3.org/1999/xlink">
    <!-- Generator: Sketch 61.2 (89653) - https://sketch.com -->
    <title>warning-sign-tunnel-ahead</title>
    <desc>Created with Sketch.</desc>
    <g id="warning-sign-tunnel-ahead" stroke="none" stroke-width="1" fill="none" fill-rule="evenodd">
        <g id="Group-7">
            <polyline id="Fill-246" fill="#FFFFFE" points="106.397212 388.554814 21.4888729 388.554814 232.879856 21.8428475 445.327246 388.554814"></polyline>
            <path d="M439.692839,416.03278 C450.971619,416.03278 461.184025,410.036034 466.819144,400.527661 C472.111144,390.667627 472.111144,378.684102 466.819144,369.176441 L262.167381,15.4552881 C256.6305,5.88854237 246.408839,2.02324033e-13 235.345042,2.02324033e-13 C224.291212,2.02324033e-13 214.068839,5.88854237 208.522703,15.4552881 L4.23327966,369.176441 C-1.41109322,378.684102 -1.41109322,390.667627 4.23327966,400.527661 C9.86768644,410.036034 20.0800932,416.03278 31.3588729,416.03278 L439.692839,416.03278 Z M49.3284661,374.458475 L421.723246,374.458475 L235.345042,52.1383729 L49.3284661,374.458475 Z" id="Fill-247" fill="#D0383F"></path>
            <path d="M166.997517,277.586542 L166.645144,277.596508 L166.645144,277.234169 C166.645144,244.767458 189.378534,216.692949 221.268636,209.777186 L222.021788,213.220475 C191.756161,219.823017 170.166737,246.616169 170.166737,277.586542" id="Fill-248" fill="#1A1919"></path>
            <path d="M301.941381,277.586542 L301.941381,277.586542 C301.941381,246.616169 280.352669,219.823017 250.086331,213.220475 L250.487822,209.698881 C282.533822,216.477254 305.462975,244.63078 305.462975,277.234169 L305.462975,277.596508" id="Fill-249" fill="#1A1919"></path>
            <path d="M246.623822,212.418203 C244.158636,212.065831 238.876602,211.361797 236.049076,211.361797 C233.232229,211.361797 228.654229,211.713458 225.132636,212.418203 L222.667449,194.096237 L249.440669,194.096237 L246.623822,212.418203 Z M249.793042,216.643831 C245.567415,215.587424 238.524229,214.88339 236.049076,214.88339 C233.232229,214.88339 226.189042,215.587424 222.315076,216.291458 L218.793483,190.927017 L253.314636,190.927017 L249.793042,216.643831 Z" id="Fill-250" fill="#1A1919"></path>
            <polyline id="Fill-251" fill="#1A1919" points="171.92789 197.617831 142.336398 250.460949 138.815517 249.756203 170.166737 194.096237"></polyline>
            <polyline id="Fill-252" fill="#1A1919" points="299.818602 197.617831 329.419347 250.460949 332.940941 249.756203 301.941381 194.096237"></polyline>
            <polygon id="Stroke-253" fill="#1A1919" fill-rule="nonzero" points="221.953077 194.576079 221.953077 197.13879 170.166645 197.13879 170.166645 194.576079"></polygon>
            <polygon id="Stroke-254" fill="#1A1919" fill-rule="nonzero" points="301.931518 194.576079 301.931518 197.13879 249.792931 197.13879 249.792931 194.576079"></polygon>
            <polygon id="Stroke-255" fill="#1A1919" fill-rule="nonzero" points="141.857152 249.7568 141.857152 360.724931 139.29444 360.724931 139.29444 249.7568"></polygon>
            <polygon id="Stroke-256" fill="#1A1919" fill-rule="nonzero" points="332.46135 249.7568 332.46135 360.724931 329.898638 360.724931 329.898638 249.7568"></polygon>
            <polygon id="Stroke-257" fill="#1A1919" fill-rule="nonzero" points="332.940772 357.682797 332.940772 360.245509 138.815018 360.245509 138.815018 357.682797"></polygon>
            <polygon id="Stroke-258" fill="#1A1919" fill-rule="nonzero" points="304.983434 277.586872 304.983434 357.203375 302.420722 357.203375 302.420722 277.586872"></polygon>
            <polygon id="Stroke-259" fill="#1A1919" fill-rule="nonzero" points="169.687223 277.586872 169.687223 357.203375 167.124511 357.203375 167.124511 277.586872"></polygon>
            <polygon id="Stroke-260" fill="#1A1919" fill-rule="nonzero" points="163.340638 277.586872 163.340638 280.756272 145.650807 280.756272 145.650807 277.586872"></polygon>
            <polygon id="Stroke-261" fill="#1A1919" fill-rule="nonzero" points="163.340638 297.317365 163.340638 300.838921 145.650807 300.838921 145.650807 297.317365"></polygon>
            <polygon id="Stroke-262" fill="#1A1919" fill-rule="nonzero" points="163.340638 317.390232 163.340638 320.911788 145.650807 320.911788 145.650807 317.390232"></polygon>
            <polygon id="Stroke-263" fill="#1A1919" fill-rule="nonzero" points="163.340638 337.120726 163.340638 340.642282 145.650807 340.642282 145.650807 337.120726"></polygon>
            <polygon id="Stroke-264" fill="#1A1919" fill-rule="nonzero" points="326.162707 277.586872 326.162707 280.756272 308.729148 280.756272 308.729148 277.586872"></polygon>
            <polygon id="Stroke-265" fill="#1A1919" fill-rule="nonzero" points="326.162707 297.317365 326.162707 300.838921 308.729148 300.838921 308.729148 297.317365"></polygon>
            <polygon id="Stroke-266" fill="#1A1919" fill-rule="nonzero" points="326.162707 317.390232 326.162707 320.911788 308.729148 320.911788 308.729148 317.390232"></polygon>
            <polygon id="Stroke-267" fill="#1A1919" fill-rule="nonzero" points="326.162707 337.120726 326.162707 340.642282 308.729148 340.642282 308.729148 337.120726"></polygon>
            <polyline id="Fill-268" fill="#1A1919" points="169.110331 198.674237 191.306263 226.504576 194.12311 224.391051 171.223144 195.856678"></polyline>
            <polyline id="Fill-269" fill="#1A1919" points="302.997788 198.674237 280.802568 226.504576 277.975042 224.391051 300.523347 195.856678"></polyline>
            <polyline id="Fill-270" fill="#1A1919" points="197.302297 196.209051 207.867076 215.939797 204.697856 217.700237 193.419076 196.209051"></polyline>
            <polyline id="Fill-271" fill="#1A1919" points="274.805822 196.209051 264.241042 215.939797 267.410975 217.700237 278.327415 196.209051"></polyline>
            <polyline id="Fill-272" fill="#1A1919" points="140.575958 253.981831 170.166737 262.09139 171.223144 258.912203 140.575958 250.108576"></polyline>
            <polyline id="Fill-273" fill="#1A1919" points="331.532161 253.630169 301.941381 262.09139 301.227381 258.912203 331.532161 250.108576"></polyline>
            <polyline id="Fill-274" fill="#1A1919" points="178.276297 243.06539 152.911144 228.265017 154.672297 225.447458 179.685076 240.247831"></polyline>
            <polyline id="Fill-275" fill="#1A1919" points="294.184195 243.06539 319.196975 228.265017 317.788195 225.095797 292.423754 239.896169"></polyline>
            <path d="M180.741483,277.586542 L180.38911,277.625695 L180.38911,277.234169 C180.38911,246.704441 205.166975,221.926576 235.697415,221.926576 L236.088229,221.926576 C266.48128,222.141559 291.014975,246.841119 291.014975,277.234169 L291.014975,277.625695 L291.367347,277.586542 L291.367347,357.202881 L180.38911,357.202881 L180.38911,277.586542" id="Fill-276" fill="#1A1919"></path>
        </g>
    </g>
</svg>