<?xml version="1.0" encoding="UTF-8"?>
<svg width="475px" height="420px" viewBox="0 0 475 420" version="1.1" xmlns="http://www.w3.org/2000/svg" xmlns:xlink="http://www.w3.org/1999/xlink">
    <!-- Generator: Sketch 61.2 (89653) - https://sketch.com -->
    <title>warning-sign-steep-hill-downwards</title>
    <desc>Created with Sketch.</desc>
    <g id="warning-sign-steep-hill-downwards" stroke="none" stroke-width="1" fill="none" fill-rule="evenodd">
        <g id="Group-2">
            <polyline id="Fill-32" fill="#FFFFFE" points="107.808483 392.076407 22.9001441 392.076407 234.291127 25.3644407 446.738517 392.076407"></polyline>
            <path d="M439.686076,416.03278 C450.964856,416.03278 461.177263,410.046 466.821636,400.176 C472.103669,390.667627 472.103669,378.694068 466.821636,369.176441 L262.169873,15.4552881 C256.623737,5.88854237 246.401364,0 235.347534,0 C224.283737,0 214.071331,5.88854237 208.525195,15.4552881 L4.22580508,369.176441 C-1.40860169,378.694068 -1.40860169,390.667627 4.22580508,400.176 C9.86021186,410.046 20.0825847,416.03278 31.3513983,416.03278 L439.686076,416.03278 Z M49.3217034,374.458475 L421.725737,374.458475 L235.347534,51.786 L49.3217034,374.458475 Z" id="Fill-33" fill="#D0383F"></path>
            <path d="M196.943161,186.349017 L206.451534,190.574644 L180.734008,243.06539 L170.521602,238.135017 L188.138822,201.853424 L179.677602,197.627797 L183.903229,189.165864 L185.312008,189.87061 C187.787161,190.927017 192.012788,193.039831 196.943161,186.349017" id="Fill-34" fill="#1A1919"></path>
            <path d="M238.165093,218.05261 C243.7995,220.869458 247.672754,226.866203 241.334314,240.247831 C234.6435,253.982542 227.590347,255.742983 221.251907,252.573763 C214.912754,249.756203 211.743534,243.06539 218.78672,229.33139 C225.477534,215.939797 232.530686,215.587424 238.165093,218.05261 M242.743093,208.191864 C250.490314,211.713458 262.8255,223.334644 251.908347,245.882949 C240.63028,268.782203 224.772788,266.66939 216.321534,262.443763 C208.221941,258.569797 196.590788,247.291017 207.869568,224.391051 C218.78672,201.853424 235.347534,204.670983 242.743093,208.191864" id="Fill-35" fill="#1A1919"></path>
            <path d="M285.373093,232.50061 C287.83828,233.90939 289.599432,236.726237 286.781873,242.713017 C283.612653,249.052169 280.443432,249.756203 277.625873,248.347424 C274.808314,246.939356 273.047873,244.121797 276.217093,237.783356 C279.386314,231.796576 282.907907,231.444203 285.373093,232.50061 M287.485907,228.274983 C291.0075,229.683763 296.651873,234.965797 291.712246,245.530576 C286.4295,255.742983 279.034653,255.038949 275.513059,252.925424 C271.629127,251.164983 266.347093,245.882949 271.277466,235.669831 C276.569466,225.095797 283.964314,226.513831 287.485907,228.274983" id="Fill-36" fill="#1A1919"></path>
            <path d="M298.060653,274.064949 C300.525839,275.473729 302.28628,277.938915 299.469432,284.277356 C296.651873,290.625763 293.13028,291.330508 290.303466,289.921729 C287.485907,288.512949 286.077839,285.333763 289.247059,279.346983 C292.41628,273.008542 295.595466,273.008542 298.060653,274.064949 M300.173466,269.486949 C303.695059,271.24739 309.329466,276.530136 304.399805,286.742542 C299.117059,297.317288 292.063907,296.260169 288.190653,294.499729 C284.316686,292.738576 279.034653,287.456542 283.964314,276.881797 C289.247059,266.66939 297.004246,267.725797 300.173466,269.486949" id="Fill-37" fill="#1A1919"></path>
            <polyline id="Fill-38" fill="#1A1919" points="251.556686 278.290576 249.433907 277.234169 317.791398 241.304949 324.482212 244.825831 256.134686 280.40339 254.021873 279.346983"></polyline>
            <polygon id="Fill-39" fill="#1A1919" points="397.407737 360.372102 72.9257034 360.372102 144.100042 236.726237"></polygon>
            <polygon id="Stroke-40" stroke="#1A1919" stroke-width="0.036" points="397.406921 360.374069 72.924916 360.374069 144.099468 236.728338"></polygon>
        </g>
    </g>
</svg>