<?xml version="1.0" encoding="UTF-8"?>
<svg width="475px" height="420px" viewBox="0 0 475 420" version="1.1" xmlns="http://www.w3.org/2000/svg" xmlns:xlink="http://www.w3.org/1999/xlink">
    <!-- Generator: Sketch 61.2 (89653) - https://sketch.com -->
    <title>warning-sign-cycle-route-ahead</title>
    <desc>Created with Sketch.</desc>
    <g id="warning-sign-cycle-route-ahead" stroke="none" stroke-width="1" fill="none" fill-rule="evenodd">
        <g id="Group">
            <polyline id="Fill-17" fill="#FFFFFE" points="272.987791 392.895349 21.105 392.895349 233.58593 22.5139535 446.06686 392.895349"></polyline>
            <path d="M439.38593,415.409302 C450.296163,415.409302 460.845,409.431628 466.119419,399.927907 C471.755233,390.433953 471.755233,378.478605 466.119419,368.623256 L261.774767,15.4325581 C256.246395,5.88 246.039419,-1.24923327e-12 234.992442,-1.24923327e-12 C223.955233,-1.24923327e-12 213.748256,5.88 208.210116,15.4325581 L4.22686047,368.623256 C-1.40895349,378.478605 -1.40895349,390.082326 4.22686047,399.927907 C9.85290698,409.431628 20.0501163,415.409302 31.3119767,415.409302 L439.38593,415.409302 Z M49.2547674,373.907442 L421.091512,373.907442 L235.34407,52.0604651 L49.2547674,373.907442 Z" id="Fill-18" fill="#D0383F"></path>
            <path d="M167.450581,273.654419 C171.318488,260.644186 175.196163,247.624186 179.06407,234.613953 L179.06407,234.262326 C179.06407,233.55907 179.06407,233.207442 178.360814,232.855814 L178.009186,232.855814 C173.438023,231.097674 170.615233,226.526512 170.615233,221.593953 C170.615233,214.913023 175.899419,209.286977 182.580349,209.286977 L187.50314,209.286977 L204.039419,209.286977 L204.039419,221.593953 L188.909651,221.593953 L185.745,221.593953 C185.041744,221.593953 184.338488,222.306977 184.338488,223.010233 C184.338488,223.713488 184.338488,224.065116 185.041744,224.416744 C188.909651,226.526512 191.371047,229.339535 191.371047,233.55907 C191.371047,235.668837 191.371047,236.372093 190.667791,238.130233 C190.667791,239.185116 188.909651,244.459535 188.909651,244.459535 C216.707791,244.459535 244.496163,244.459535 272.284535,244.107907 C273.691047,240.24 275.449186,236.372093 277.207326,232.152558 C270.878023,230.746047 264.548721,229.339535 258.209651,227.581395 C256.80314,227.229767 256.099884,225.823256 256.099884,224.416744 C256.099884,223.010233 257.506395,221.593953 259.274302,221.593953 L301.840814,221.593953 C301.840814,228.284651 296.205,233.910698 289.52407,233.910698 C288.117558,237.426977 286.711047,240.943256 285.304535,244.459535 C290.578953,253.963256 295.853372,263.808837 301.137558,273.654419 C306.411977,271.544651 312.389651,270.13814 318.367326,270.13814 C343.342674,270.13814 364.098488,290.893953 364.098488,315.869302 C364.098488,341.186512 343.342674,361.590698 318.367326,361.590698 C294.798488,361.590698 275.097558,344.009302 272.636163,320.440465 L272.987791,320.440465 L267.361744,320.440465 C266.30686,325.011628 263.845465,328.527907 259.977558,330.989302 C261.38407,334.153953 262.790581,337.318605 264.548721,340.483256 L271.932907,340.483256 L271.932907,346.470698 L267.010116,346.470698 C265.955233,347.173953 264.548721,347.877209 263.493837,347.877209 C262.087326,347.877209 261.032442,347.525581 259.977558,346.470698 L253.638488,346.470698 L253.638488,340.483256 L259.274302,340.483256 C258.209651,338.02186 257.154767,335.560465 255.748256,333.09907 C252.935233,334.153953 252.583605,334.153953 249.770581,334.153953 C239.573372,334.153953 231.476163,326.066512 231.476163,315.869302 C231.476163,314.111163 231.827791,312.343256 232.179419,310.585116 L232.179419,310.233488 C214.939884,298.27814 197.710116,286.322791 180.118953,274.357674 C179.767326,276.115814 179.06407,277.873953 178.360814,279.632093 L178.712442,279.632093 C189.964535,288.432558 196.303605,301.442791 196.303605,315.869302 C196.303605,341.186512 175.899419,361.590698 150.562674,361.590698 C125.587326,361.590698 105.18314,341.186512 105.18314,315.869302 C105.18314,290.893953 125.587326,270.13814 150.562674,270.13814 C157.956628,270.13814 160.769651,270.841395 167.450581,273.302791 L167.450581,273.654419 Z M237.463605,315.869302 C237.463605,322.550233 243.089651,328.176279 249.770581,328.176279 C256.451512,328.176279 261.735698,322.550233 261.735698,315.869302 C261.735698,309.178605 256.451512,303.904186 249.770581,303.904186 C243.089651,303.904186 237.463605,309.178605 237.463605,315.869302 L237.463605,315.869302 Z M174.141279,294.410233 C173.438023,296.871628 172.725,299.684651 171.670116,302.497674 C169.208721,310.936744 160.418023,317.97907 151.617558,320.440465 L150.562674,320.440465 C148.101279,320.440465 145.991512,318.330698 145.991512,315.869302 C145.991512,314.462791 147.046395,313.046512 148.101279,312.343256 C148.101279,312.343256 148.452907,311.991628 148.804535,311.64 C154.088721,308.123721 158.308256,304.255814 160.066395,298.981395 C161.121279,295.113488 162.527791,290.893953 163.934302,286.674419 L163.582674,286.674419 C159.714767,284.916279 155.143605,283.861395 150.562674,283.861395 C132.981279,283.861395 118.554767,298.27814 118.554767,315.869302 C118.554767,333.450698 132.981279,347.877209 150.562674,347.877209 C168.505465,347.877209 182.580349,333.450698 182.580349,315.869302 C182.580349,307.772093 179.415698,300.036279 174.492907,294.410233 L174.141279,294.410233 Z M261.735698,302.146047 C267.713372,287.377674 273.691047,272.247907 280.030116,257.127907 C283.898023,264.160465 287.76593,271.544651 291.633837,278.928837 L291.282209,278.928837 C280.733372,286.674419 274.042674,297.926512 272.636163,311.288372 L272.987791,311.288372 L267.361744,311.288372 C266.30686,307.772093 264.900349,304.95907 262.087326,302.497674 L261.735698,302.146047 Z M297.96314,291.245581 C291.633837,296.52 287.76593,303.20093 286.711047,311.288372 L308.873372,311.288372 C305.357093,304.607442 301.840814,297.926512 297.96314,290.893953 L297.96314,291.245581 Z M322.596628,314.111163 C322.596628,314.462791 322.948256,315.166047 322.948256,315.869302 C322.948256,318.330698 320.828721,320.440465 318.367326,320.440465 L286.711047,320.440465 L286.711047,320.792093 C288.820814,336.263721 302.54407,347.877209 318.367326,347.877209 C335.958488,347.877209 350.385,333.450698 350.385,315.869302 C350.385,298.27814 335.958488,283.861395 318.367326,283.861395 C314.851047,283.861395 310.98314,284.564651 307.46686,285.619535 C312.389651,295.113488 317.312442,304.607442 322.596628,314.111163 L322.596628,314.111163 Z M239.573372,300.739535 C238.16686,297.926512 236.750581,294.76186 234.992442,291.597209 L227.608256,291.597209 L227.608256,285.619535 L232.531047,285.619535 L232.531047,285.267907 C233.58593,284.564651 234.640814,283.861395 236.047326,283.861395 C237.102209,283.861395 238.518488,284.564651 239.221744,285.267907 L239.573372,285.619535 L245.902674,285.619535 L245.902674,291.597209 L240.276628,291.597209 C241.331512,293.706977 242.386395,296.168372 243.792907,298.629767 L244.144535,298.629767 C245.902674,297.926512 247.660814,297.574884 249.770581,297.574884 L250.473837,297.574884 C256.099884,283.509767 262.087326,269.434884 268.065,255.01814 L185.745,255.01814 C185.041744,257.831163 184.338488,260.644186 183.283605,263.808837 C201.578023,276.467442 219.872442,289.135814 238.16686,301.794419 C238.518488,301.442791 238.870116,301.091163 239.573372,300.739535 L239.573372,300.739535 Z" id="Fill-19" fill="#1A1919"></path>
            <path d="M167.450581,273.654419 C171.318488,260.644186 175.196163,247.624186 179.06407,234.613953 L179.06407,234.262326 C179.06407,233.55907 179.06407,233.207442 178.360814,232.855814 L178.009186,232.855814 C173.438023,231.097674 170.615233,226.526512 170.615233,221.593953 C170.615233,214.913023 175.899419,209.286977 182.580349,209.286977 L187.50314,209.286977 L204.039419,209.286977 L204.039419,221.593953 L188.909651,221.593953 L185.745,221.593953 C185.041744,221.593953 184.338488,222.306977 184.338488,223.010233 C184.338488,223.713488 184.338488,224.065116 185.041744,224.416744 C188.909651,226.526512 191.371047,229.339535 191.371047,233.55907 C191.371047,235.668837 191.371047,236.372093 190.667791,238.130233 C190.667791,239.185116 188.909651,244.459535 188.909651,244.459535 C216.707791,244.459535 244.496163,244.459535 272.284535,244.107907 C273.691047,240.24 275.449186,236.372093 277.207326,232.152558 C270.878023,230.746047 264.548721,229.339535 258.209651,227.581395 C256.80314,227.229767 256.099884,225.823256 256.099884,224.416744 C256.099884,223.010233 257.506395,221.593953 259.274302,221.593953 L301.840814,221.593953 C301.840814,228.284651 296.205,233.910698 289.52407,233.910698 C288.117558,237.426977 286.711047,240.943256 285.304535,244.459535 C290.578953,253.963256 295.853372,263.808837 301.137558,273.654419 C306.411977,271.544651 312.389651,270.13814 318.367326,270.13814 C343.342674,270.13814 364.098488,290.893953 364.098488,315.869302 C364.098488,341.186512 343.342674,361.590698 318.367326,361.590698 C294.798488,361.590698 275.097558,344.009302 272.636163,320.440465 L272.987791,320.440465 L267.361744,320.440465 C266.30686,325.011628 263.845465,328.527907 259.977558,330.989302 C261.38407,334.153953 262.790581,337.318605 264.548721,340.483256 L271.932907,340.483256 L271.932907,346.470698 L267.010116,346.470698 C265.955233,347.173953 264.548721,347.877209 263.493837,347.877209 C262.087326,347.877209 261.032442,347.525581 259.977558,346.470698 L253.638488,346.470698 L253.638488,340.483256 L259.274302,340.483256 C258.209651,338.02186 257.154767,335.560465 255.748256,333.09907 C252.935233,334.153953 252.583605,334.153953 249.770581,334.153953 C239.573372,334.153953 231.476163,326.066512 231.476163,315.869302 C231.476163,314.111163 231.827791,312.343256 232.179419,310.585116 L232.179419,310.233488 C214.939884,298.27814 197.710116,286.322791 180.118953,274.357674 C179.767326,276.115814 179.06407,277.873953 178.360814,279.632093 L178.712442,279.632093 C189.964535,288.432558 196.303605,301.442791 196.303605,315.869302 C196.303605,341.186512 175.899419,361.590698 150.562674,361.590698 C125.587326,361.590698 105.18314,341.186512 105.18314,315.869302 C105.18314,290.893953 125.587326,270.13814 150.562674,270.13814 C157.956628,270.13814 160.769651,270.841395 167.450581,273.302791 L167.450581,273.654419 Z M237.463605,315.869302 C237.463605,322.550233 243.089651,328.176279 249.770581,328.176279 C256.451512,328.176279 261.735698,322.550233 261.735698,315.869302 C261.735698,309.178605 256.451512,303.904186 249.770581,303.904186 C243.089651,303.904186 237.463605,309.178605 237.463605,315.869302 Z M174.141279,294.410233 C173.438023,296.871628 172.725,299.684651 171.670116,302.497674 C169.208721,310.936744 160.418023,317.97907 151.617558,320.440465 L150.562674,320.440465 C148.101279,320.440465 145.991512,318.330698 145.991512,315.869302 C145.991512,314.462791 147.046395,313.046512 148.101279,312.343256 C148.101279,312.343256 148.452907,311.991628 148.804535,311.64 C154.088721,308.123721 158.308256,304.255814 160.066395,298.981395 C161.121279,295.113488 162.527791,290.893953 163.934302,286.674419 L163.582674,286.674419 C159.714767,284.916279 155.143605,283.861395 150.562674,283.861395 C132.981279,283.861395 118.554767,298.27814 118.554767,315.869302 C118.554767,333.450698 132.981279,347.877209 150.562674,347.877209 C168.505465,347.877209 182.580349,333.450698 182.580349,315.869302 C182.580349,307.772093 179.415698,300.036279 174.492907,294.410233 L174.141279,294.410233 Z M261.735698,302.146047 C267.713372,287.377674 273.691047,272.247907 280.030116,257.127907 C283.898023,264.160465 287.76593,271.544651 291.633837,278.928837 L291.282209,278.928837 C280.733372,286.674419 274.042674,297.926512 272.636163,311.288372 L272.987791,311.288372 L267.361744,311.288372 C266.30686,307.772093 264.900349,304.95907 262.087326,302.497674 L261.735698,302.146047 Z M297.96314,291.245581 C291.633837,296.52 287.76593,303.20093 286.711047,311.288372 L308.873372,311.288372 C305.357093,304.607442 301.840814,297.926512 297.96314,290.893953 L297.96314,291.245581 Z M322.596628,314.111163 C322.596628,314.462791 322.948256,315.166047 322.948256,315.869302 C322.948256,318.330698 320.828721,320.440465 318.367326,320.440465 L286.711047,320.440465 L286.711047,320.792093 C288.820814,336.263721 302.54407,347.877209 318.367326,347.877209 C335.958488,347.877209 350.385,333.450698 350.385,315.869302 C350.385,298.27814 335.958488,283.861395 318.367326,283.861395 C314.851047,283.861395 310.98314,284.564651 307.46686,285.619535 C312.389651,295.113488 317.312442,304.607442 322.596628,314.111163 Z M239.573372,300.739535 C238.16686,297.926512 236.750581,294.76186 234.992442,291.597209 L227.608256,291.597209 L227.608256,285.619535 L232.531047,285.619535 L232.531047,285.267907 C233.58593,284.564651 234.640814,283.861395 236.047326,283.861395 C237.102209,283.861395 238.518488,284.564651 239.221744,285.267907 L239.573372,285.619535 L245.902674,285.619535 L245.902674,291.597209 L240.276628,291.597209 C241.331512,293.706977 242.386395,296.168372 243.792907,298.629767 L244.144535,298.629767 C245.902674,297.926512 247.660814,297.574884 249.770581,297.574884 L250.473837,297.574884 C256.099884,283.509767 262.087326,269.434884 268.065,255.01814 L185.745,255.01814 C185.041744,257.831163 184.338488,260.644186 183.283605,263.808837 C201.578023,276.467442 219.872442,289.135814 238.16686,301.794419 C238.518488,301.442791 238.870116,301.091163 239.573372,300.739535 Z" id="Stroke-20" stroke="#1A1919" stroke-width="0.036"></path>
        </g>
    </g>
</svg>