<?xml version="1.0" encoding="UTF-8"?>
<svg width="475px" height="420px" viewBox="0 0 475 420" version="1.1" xmlns="http://www.w3.org/2000/svg" xmlns:xlink="http://www.w3.org/1999/xlink">
    <!-- Generator: Sketch 61.2 (89653) - https://sketch.com -->
    <title>warning-sign-traffic-signals</title>
    <desc>Created with Sketch.</desc>
    <g id="warning-sign-traffic-signals" stroke="none" stroke-width="1" fill="none" fill-rule="evenodd">
        <g id="Group-9">
            <polyline id="Fill-37" fill="#FFFFFE" points="88.6468605 393.950233 18.2919767 393.950233 232.882674 22.1623256 451.702674 393.950233"></polyline>
            <path d="M439.38593,415.399535 C450.296163,415.399535 460.845,409.42186 466.119419,399.927907 C471.755233,390.082326 471.755233,378.468837 466.119419,368.623256 L261.774767,15.4227907 C256.246395,5.88 246.039419,0 234.992442,0 C223.955233,0 213.748256,5.88 208.210116,15.4227907 L4.22686047,368.623256 C-1.40895349,378.468837 -1.40895349,390.082326 4.22686047,399.927907 C9.85290698,409.42186 20.0501163,415.399535 31.3119767,415.399535 L439.38593,415.399535 Z M49.2547674,373.897674 L421.091512,373.897674 L235.34407,52.0506977 L49.2547674,373.897674 Z" id="Fill-38" fill="#D0383F"></path>
            <path d="M193.832442,155.82 L193.832442,155.82 C193.832442,132.905581 212.429651,114.31814 235.34407,114.31814 L235.705465,114.31814 C258.492907,114.513488 276.855698,133.042326 276.855698,155.82 L276.855698,321.837209 C276.855698,344.624651 258.492907,363.143721 235.705465,363.348837 L235.34407,363.348837 C212.429651,363.348837 193.832442,344.751628 193.832442,321.837209" id="Fill-39" fill="#1A1919"></path>
            <path d="M235.392907,121.448372 C254.419884,121.448372 269.871977,136.890698 269.871977,155.917674 C269.871977,174.944651 254.419884,190.386977 235.392907,190.386977 C216.36593,190.386977 200.913837,174.944651 200.913837,155.917674 C200.913837,136.890698 216.36593,121.448372 235.392907,121.448372" id="Fill-40" fill="#D0383F"></path>
            <path d="M235.392907,204.373953 C254.419884,204.373953 269.871977,219.816279 269.871977,238.843256 C269.871977,257.870233 254.419884,273.312558 235.392907,273.312558 C216.36593,273.312558 200.913837,257.870233 200.913837,238.843256 C200.913837,219.816279 216.36593,204.373953 235.392907,204.373953" id="Fill-41" fill="#FBD033"></path>
            <path d="M235.392907,287.299535 C254.419884,287.299535 269.871977,302.74186 269.871977,321.768837 C269.871977,340.795814 254.419884,356.23814 235.392907,356.23814 C216.36593,356.23814 200.913837,340.795814 200.913837,321.768837 C200.913837,302.74186 216.36593,287.299535 235.392907,287.299535" id="Fill-42" fill="#518B33"></path>
        </g>
    </g>
</svg>