<?xml version="1.0" encoding="UTF-8"?>
<svg width="475px" height="420px" viewBox="0 0 475 420" version="1.1" xmlns="http://www.w3.org/2000/svg" xmlns:xlink="http://www.w3.org/1999/xlink">
    <!-- Generator: Sketch 61.2 (89653) - https://sketch.com -->
    <title>warning-sign-slippery-road</title>
    <desc>Created with Sketch.</desc>
    <g id="warning-sign-slippery-road" stroke="none" stroke-width="1" fill="none" fill-rule="evenodd">
        <g id="Group-10">
            <polyline id="Fill-283" fill="#FFFFFE" points="139.255271 390.315254 25.8125593 390.315254 234.729102 24.6604068 447.528864 390.315254"></polyline>
            <path d="M439.780932,416.03278 C451.059712,416.03278 461.272831,410.036034 466.907237,400.527661 C472.55161,390.667627 472.55161,378.684102 466.907237,369.176441 L262.597881,15.4944407 C256.992661,5.90776271 246.643576,2.02324033e-13 235.443102,2.02324033e-13 C224.232661,2.02324033e-13 213.882864,5.90776271 208.28761,15.4944407 L3.969,369.176441 C-1.323,378.684102 -1.323,390.667627 3.969,400.527661 C9.60340678,410.036034 20.1681864,416.03278 31.0945932,416.03278 L439.780932,416.03278 Z M49.0641864,374.458475 L421.811339,374.458475 L235.443102,52.1383729 L49.0641864,374.458475 Z" id="Fill-284" fill="#D0383F"></path>
            <path d="M184.702831,191.631051 L196.686356,160.631492 C198.095136,157.109898 203.377169,151.123119 212.180797,152.884271 L244.246729,158.518678 L275.950322,164.153085 C284.764627,165.561864 287.933847,172.966678 287.933847,176.840644 L288.637881,209.953017 C292.511847,211.361797 296.033441,215.939797 295.328695,220.517797 L290.399034,246.939356 C289.694288,250.81261 285.821034,253.630169 284.059881,254.334203 L280.538288,273.712576 C277.359102,275.82539 274.542254,277.234169 271.020661,276.530136 C267.499068,275.82539 263.977475,273.360203 262.216322,270.543356 L265.737915,251.869017 L248.824729,250.108576 L228.389949,246.586983 L208.307542,243.06539 L191.746017,238.839763 L188.576797,257.503424 C186.11161,259.616949 181.885983,261.034983 178.36439,260.320983 C174.842797,259.616949 172.729983,257.503424 170.254831,254.334203 L173.78639,234.965797 C172.37761,233.557017 169.550797,229.673797 170.254831,225.799831 L174.842797,199.02661 C175.546831,194.800271 180.477203,191.631051 184.702831,191.631051 M195.277576,180.713898 L198.799169,171.557898 L198.799169,171.548644 C202.320763,161.687898 213.599542,162.040271 224.515983,164.153085 L242.486288,167.322305 L260.808254,170.492237 L260.808254,170.501492 C271.372322,172.614305 281.947068,175.784237 282.299441,185.996644 L282.299441,195.856678 C282.299441,201.853424 278.777847,203.262203 272.428729,201.853424 L237.908288,194.096237 L202.320763,189.518237 C195.98161,188.813492 193.164763,186.349017 195.277576,180.713898" id="Fill-285" fill="#1A1919"></path>
            <path d="M181.53361,266.317729 L162.155237,262.796136 C144.889678,266.66939 131.860424,274.417322 131.860424,283.220949 C131.860424,292.024576 138.198864,294.499729 145.946797,296.612542 C153.703983,298.725356 186.463983,309.290136 218.177542,311.402949 C227.685915,323.034102 235.794763,328.668508 247.064288,333.246508 C256.229542,337.120475 256.934288,342.050136 256.934288,344.867695 C256.934288,349.798068 254.107475,352.977254 242.837949,360.372102 L276.302695,360.372102 C281.243034,353.328915 283.707508,350.502102 283.707508,344.867695 C283.707508,339.233288 280.185915,332.894136 274.189881,328.316136 C267.850729,323.738136 257.638322,318.093763 245.303136,313.868136 C261.864661,315.276915 271.724695,313.868136 284.059881,313.868136 C296.385102,313.868136 306.959847,315.276915 313.299,315.980949 C319.989814,317.037356 328.098661,318.446136 333.381407,319.502542 C338.31178,320.558949 345.36422,325.146915 345.36422,332.542475 C345.36422,338.176881 338.31178,346.980508 330.212186,360.372102 L364.390932,360.372102 C365.799,349.798068 367.560153,341.698475 367.560153,332.894136 C367.560153,310.346542 346.068966,302.599322 337.959407,301.894576 C329.859814,301.190542 316.46822,299.781763 301.677814,299.781763 C287.229102,299.781763 269.611881,301.190542 238.259949,299.077729 C240.021102,297.668949 254.811508,285.686136 274.542254,282.868576 L251.642288,278.642949 C234.729102,280.755763 224.164322,288.855356 217.825169,298.021322 C217.825169,298.021322 192.108356,295.556136 187.168017,294.852102 C182.590017,294.147356 166.733237,291.682169 161.451203,290.615797 C156.520831,289.55939 155.464424,287.798949 155.464424,283.924983 C155.464424,279.699356 157.92961,276.530136 181.53361,266.317729" id="Fill-286" fill="#1A1919"></path>
        </g>
    </g>
</svg>