<?xml version="1.0" encoding="UTF-8"?>
<svg width="475px" height="420px" viewBox="0 0 475 420" version="1.1" xmlns="http://www.w3.org/2000/svg" xmlns:xlink="http://www.w3.org/1999/xlink">
    <!-- Generator: Sketch 61.2 (89653) - https://sketch.com -->
    <title>warning-sign-two-way-traffic-ahead</title>
    <desc>Created with Sketch.</desc>
    <g id="warning-sign-two-way-traffic-ahead" stroke="none" stroke-width="1" fill="none" fill-rule="evenodd">
        <g id="Group-5">
            <polyline id="Fill-178" fill="#FFFFFE" points="103.935051 391.372373 19.026 391.372373 230.770068 24.6504407 443.217458 391.372373"></polyline>
            <path d="M440.048237,416.022814 C450.964678,416.022814 461.187051,410.036034 466.821458,400.528373 C472.455864,391.02 472.455864,379.036475 466.821458,369.528814 L262.336271,15.9058983 C256.829288,6.07433898 246.518644,-1.01162017e-13 235.348068,-1.01162017e-13 C224.235153,-1.01162017e-13 213.964373,6.0159661 208.446712,15.7685085 L4.22633898,369.528814 C-1.40877966,379.036475 -1.40877966,391.02 4.22633898,400.528373 C9.86074576,410.036034 20.0831186,416.022814 31.3519322,416.022814 L440.048237,416.022814 Z M49.3215254,374.458475 L421.726271,374.458475 L235.699729,52.1284068 L49.3215254,374.458475 Z" id="Fill-179" fill="#D0383F"></path>
            <polyline id="Fill-180" fill="#1A1919" points="290.313254 360.724475 255.782847 326.194068 255.782847 291.320542 290.313254 326.194068 325.18678 291.320542 325.18678 326.194068"></polyline>
            <polygon id="Stroke-181" fill="#1A1919" fill-rule="nonzero" points="298.811518 190.927426 298.811518 329.725628 282.146772 329.725628 282.146772 190.927426"></polygon>
            <polyline id="Fill-182" fill="#1A1919" points="205.756576 156.053492 171.226169 190.927017 171.226169 225.448169 205.756576 190.927017 240.630102 225.448169 240.630102 190.927017"></polyline>
            <polygon id="Stroke-183" fill="#1A1919" fill-rule="nonzero" points="214.207112 187.40587 214.207112 326.204073 197.286095 326.204073 197.286095 187.40587"></polygon>
        </g>
    </g>
</svg>